<?xml version="1.0" encoding="utf-8" standalone="no"?>
<!DOCTYPE svg PUBLIC "-//W3C//DTD SVG 1.1//EN"
  "http://www.w3.org/Graphics/SVG/1.1/DTD/svg11.dtd">
<svg xmlns:xlink="http://www.w3.org/1999/xlink" width="420.222356pt" height="169.200156pt" viewBox="0 0 420.222356 169.200156" xmlns="http://www.w3.org/2000/svg" version="1.1">
 <metadata>
  <rdf:RDF xmlns:dc="http://purl.org/dc/elements/1.1/" xmlns:cc="http://creativecommons.org/ns#" xmlns:rdf="http://www.w3.org/1999/02/22-rdf-syntax-ns#">
   <cc:Work>
    <dc:type rdf:resource="http://purl.org/dc/dcmitype/StillImage"/>
    <dc:date>2026-06-23T12:37:48.038239</dc:date>
    <dc:format>image/svg+xml</dc:format>
    <dc:creator>
     <cc:Agent>
      <dc:title>Matplotlib v3.11.0, https://matplotlib.org/</dc:title>
     </cc:Agent>
    </dc:creator>
   </cc:Work>
  </rdf:RDF>
 </metadata>
 <defs>
  <style type="text/css">*{stroke-linejoin: round; stroke-linecap: butt}</style>
 </defs>
 <g id="figure_1">
  <g id="patch_1">
   <path d="M 0 169.200156 
L 420.222356 169.200156 
L 420.222356 0 
L 0 0 
z
" style="fill: #ffffff"/>
  </g>
  <g id="axes_1">
   <g id="patch_2">
    <path d="M 60.177756 137.422852 
L 408.157356 137.422852 
L 408.157356 7.2 
L 60.177756 7.2 
z
" style="fill: #ffffff"/>
   </g>
   <g id="matplotlib.axis_1">
    <g id="xtick_1">
     <g id="line2d_1">
      <defs>
       <path id="mc5b2a87be0" d="M 0 0 
L 0 3 
" style="stroke: #222222; stroke-width: 0.8"/>
      </defs>
      <g>
       <use xlink:href="#mc5b2a87be0" x="60.177756" y="137.422852" style="fill: #222222; stroke: #222222; stroke-width: 0.8"/>
      </g>
     </g>
     <g id="text_1">
      <text style="font-size: 7px; font-family: 'Arial', 'Helvetica', 'DejaVu Sans', sans-serif; text-anchor: middle; fill: #222222" x="60.177756" y="149.019043" transform="rotate(-0 60.177756 149.019043)">0.0</text>
     </g>
    </g>
    <g id="xtick_2">
     <g id="line2d_2">
      <g>
       <use xlink:href="#mc5b2a87be0" x="129.773676" y="137.422852" style="fill: #222222; stroke: #222222; stroke-width: 0.8"/>
      </g>
     </g>
     <g id="text_2">
      <text style="font-size: 7px; font-family: 'Arial', 'Helvetica', 'DejaVu Sans', sans-serif; text-anchor: middle; fill: #222222" x="129.773676" y="149.019043" transform="rotate(-0 129.773676 149.019043)">0.2</text>
     </g>
    </g>
    <g id="xtick_3">
     <g id="line2d_3">
      <g>
       <use xlink:href="#mc5b2a87be0" x="199.369596" y="137.422852" style="fill: #222222; stroke: #222222; stroke-width: 0.8"/>
      </g>
     </g>
     <g id="text_3">
      <text style="font-size: 7px; font-family: 'Arial', 'Helvetica', 'DejaVu Sans', sans-serif; text-anchor: middle; fill: #222222" x="199.369596" y="149.019043" transform="rotate(-0 199.369596 149.019043)">0.4</text>
     </g>
    </g>
    <g id="xtick_4">
     <g id="line2d_4">
      <g>
       <use xlink:href="#mc5b2a87be0" x="268.965516" y="137.422852" style="fill: #222222; stroke: #222222; stroke-width: 0.8"/>
      </g>
     </g>
     <g id="text_4">
      <text style="font-size: 7px; font-family: 'Arial', 'Helvetica', 'DejaVu Sans', sans-serif; text-anchor: middle; fill: #222222" x="268.965516" y="149.019043" transform="rotate(-0 268.965516 149.019043)">0.6</text>
     </g>
    </g>
    <g id="xtick_5">
     <g id="line2d_5">
      <g>
       <use xlink:href="#mc5b2a87be0" x="338.561436" y="137.422852" style="fill: #222222; stroke: #222222; stroke-width: 0.8"/>
      </g>
     </g>
     <g id="text_5">
      <text style="font-size: 7px; font-family: 'Arial', 'Helvetica', 'DejaVu Sans', sans-serif; text-anchor: middle; fill: #222222" x="338.561436" y="149.019043" transform="rotate(-0 338.561436 149.019043)">0.8</text>
     </g>
    </g>
    <g id="xtick_6">
     <g id="line2d_6">
      <g>
       <use xlink:href="#mc5b2a87be0" x="408.157356" y="137.422852" style="fill: #222222; stroke: #222222; stroke-width: 0.8"/>
      </g>
     </g>
     <g id="text_6">
      <text style="font-size: 7px; font-family: 'Arial', 'Helvetica', 'DejaVu Sans', sans-serif; text-anchor: middle; fill: #222222" x="408.157356" y="149.019043" transform="rotate(-0 408.157356 149.019043)">1.0</text>
     </g>
    </g>
    <g id="text_7">
     <text style="font-size: 8px; font-family: 'Arial', 'Helvetica', 'DejaVu Sans', sans-serif; text-anchor: middle" x="234.167556" y="160.316406" transform="rotate(-0 234.167556 160.316406)">Normalized arc length</text>
    </g>
   </g>
   <g id="matplotlib.axis_2">
    <g id="ytick_1">
     <g id="line2d_7">
      <defs>
       <path id="m401171d164" d="M 0 0 
L -3 0 
" style="stroke: #222222; stroke-width: 0.8"/>
      </defs>
      <g>
       <use xlink:href="#m401171d164" x="60.177756" y="131.503631" style="fill: #222222; stroke: #222222; stroke-width: 0.8"/>
      </g>
     </g>
     <g id="text_8">
      <text style="font-size: 7px; font-family: 'Arial', 'Helvetica', 'DejaVu Sans', sans-serif; text-anchor: end; fill: #222222" x="53.677756" y="134.051727" transform="rotate(-0 53.677756 134.051727)">0</text>
     </g>
    </g>
    <g id="ytick_2">
     <g id="line2d_8">
      <g>
       <use xlink:href="#m401171d164" x="60.177756" y="114.240132" style="fill: #222222; stroke: #222222; stroke-width: 0.8"/>
      </g>
     </g>
     <g id="text_9">
      <text style="font-size: 7px; font-family: 'Arial', 'Helvetica', 'DejaVu Sans', sans-serif; text-anchor: end; fill: #222222" x="53.677756" y="116.788228" transform="rotate(-0 53.677756 116.788228)">2</text>
     </g>
    </g>
    <g id="ytick_3">
     <g id="line2d_9">
      <g>
       <use xlink:href="#m401171d164" x="60.177756" y="96.976633" style="fill: #222222; stroke: #222222; stroke-width: 0.8"/>
      </g>
     </g>
     <g id="text_10">
      <text style="font-size: 7px; font-family: 'Arial', 'Helvetica', 'DejaVu Sans', sans-serif; text-anchor: end; fill: #222222" x="53.677756" y="99.524729" transform="rotate(-0 53.677756 99.524729)">4</text>
     </g>
    </g>
    <g id="ytick_4">
     <g id="line2d_10">
      <g>
       <use xlink:href="#m401171d164" x="60.177756" y="79.713135" style="fill: #222222; stroke: #222222; stroke-width: 0.8"/>
      </g>
     </g>
     <g id="text_11">
      <text style="font-size: 7px; font-family: 'Arial', 'Helvetica', 'DejaVu Sans', sans-serif; text-anchor: end; fill: #222222" x="53.677756" y="82.26123" transform="rotate(-0 53.677756 82.26123)">6</text>
     </g>
    </g>
    <g id="ytick_5">
     <g id="line2d_11">
      <g>
       <use xlink:href="#m401171d164" x="60.177756" y="62.449636" style="fill: #222222; stroke: #222222; stroke-width: 0.8"/>
      </g>
     </g>
     <g id="text_12">
      <text style="font-size: 7px; font-family: 'Arial', 'Helvetica', 'DejaVu Sans', sans-serif; text-anchor: end; fill: #222222" x="53.677756" y="64.997731" transform="rotate(-0 53.677756 64.997731)">8</text>
     </g>
    </g>
    <g id="ytick_6">
     <g id="line2d_12">
      <g>
       <use xlink:href="#m401171d164" x="60.177756" y="45.186137" style="fill: #222222; stroke: #222222; stroke-width: 0.8"/>
      </g>
     </g>
     <g id="text_13">
      <text style="font-size: 7px; font-family: 'Arial', 'Helvetica', 'DejaVu Sans', sans-serif; text-anchor: end; fill: #222222" x="53.677756" y="47.734233" transform="rotate(-0 53.677756 47.734233)">10</text>
     </g>
    </g>
    <g id="ytick_7">
     <g id="line2d_13">
      <g>
       <use xlink:href="#m401171d164" x="60.177756" y="27.922638" style="fill: #222222; stroke: #222222; stroke-width: 0.8"/>
      </g>
     </g>
     <g id="text_14">
      <text style="font-size: 7px; font-family: 'Arial', 'Helvetica', 'DejaVu Sans', sans-serif; text-anchor: end; fill: #222222" x="53.677756" y="30.470734" transform="rotate(-0 53.677756 30.470734)">12</text>
     </g>
    </g>
    <g id="ytick_8">
     <g id="line2d_14">
      <g>
       <use xlink:href="#m401171d164" x="60.177756" y="10.659139" style="fill: #222222; stroke: #222222; stroke-width: 0.8"/>
      </g>
     </g>
     <g id="text_15">
      <text style="font-size: 7px; font-family: 'Arial', 'Helvetica', 'DejaVu Sans', sans-serif; text-anchor: end; fill: #222222" x="53.677756" y="13.207235" transform="rotate(-0 53.677756 13.207235)">14</text>
     </g>
    </g>
    <g id="text_16">
     <!-- $d$ -->
     <g transform="translate(18.72 55.087793)">
      <text>
       <tspan x="0" y="-0.671875" style="font-size: 12px; font-family: 'cmmi10'">d</tspan>
      </text>
     </g>
     <!-- $(\mathrm{mm})$ -->
     <g transform="translate(7.2 68.412012)">
      <text>
       <tspan x="0" y="-0" style="font-size: 12px; font-family: 'cmr10'">(</tspan>
       <tspan x="4.658203" y="-0" style="font-size: 12px; font-family: 'cmr10'">m</tspan>
       <tspan x="14.654297" y="-0" style="font-size: 12px; font-family: 'cmr10'">m</tspan>
       <tspan x="24.650391" y="-0" style="font-size: 12px; font-family: 'cmr10'">)</tspan>
      </text>
     </g>
    </g>
   </g>
   <g id="line2d_15">
    <path d="M 60.177756 131.503631 
L 67.077068 93.935189 
L 72.33117 107.762686 
L 77.53974 115.449263 
L 82.581804 118.197482 
L 86.808617 116.928596 
L 92.226291 115.986906 
L 96.950363 110.747431 
L 102.094635 85.502826 
L 107.31045 39.946331 
L 119.467711 17.470155 
L 124.675052 73.818447 
L 129.811491 108.465203 
L 135.068889 114.607377 
L 139.708331 112.393573 
L 144.855275 118.352651 
L 149.804576 119.00133 
L 154.706879 118.832693 
L 159.638718 105.077366 
L 164.87791 84.759643 
L 171.374316 23.617321 
L 181.820084 26.004682 
L 188.230689 78.523809 
L 193.414853 104.512772 
L 199.349646 121.190118 
L 204.255699 115.731061 
L 209.092494 111.475369 
L 214.68462 96.280428 
L 219.579666 115.698308 
L 224.63286 111.075415 
L 230.36333 74.537834 
L 235.491641 22.041399 
L 247.650559 33.068297 
L 252.601242 83.810721 
L 258.334926 110.624878 
L 262.273393 113.596346 
L 267.644782 116.096741 
L 271.832627 119.527994 
L 276.828353 117.207501 
L 281.775762 111.708737 
L 286.808508 102.1898 
L 292.054027 80.353833 
L 298.63041 27.894434 
L 311.053944 13.119221 
L 317.058194 81.88914 
L 322.190281 106.441194 
L 327.499397 116.948682 
L 332.584078 117.030332 
L 337.718907 118.184899 
L 342.209379 105.950045 
L 346.984758 105.224941 
L 351.994096 75.532109 
L 357.100687 29.2738 
L 367.722306 29.607308 
L 375.424621 104.350239 
L 379.286651 107.282616 
L 385.771545 117.478148 
L 390.432592 119.449182 
L 395.232969 99.676618 
L 401.513003 90.819081 
L 408.157356 131.503631 
" clip-path="url(#pf4eb2ef0f1)" style="fill: none; stroke-dasharray: 4.625,2; stroke-dashoffset: 0; stroke: #6c6c6c; stroke-width: 1.25"/>
   </g>
   <g id="line2d_16">
    <path d="M 60.177756 120.513096 
L 67.077068 119.357091 
L 72.33117 118.280502 
L 77.53974 122.980228 
L 82.581804 124.31006 
L 86.808617 114.816367 
L 92.226291 107.414116 
L 96.950363 109.205478 
L 102.094635 113.610131 
L 107.31045 82.805305 
L 119.467711 65.373589 
L 124.675052 112.05854 
L 129.811491 112.961223 
L 135.068889 108.962566 
L 139.708331 111.496526 
L 144.855275 124.165017 
L 149.804576 117.055589 
L 154.706879 107.901163 
L 159.638718 103.128477 
L 164.87791 114.122991 
L 171.374316 75.238544 
L 181.820084 56.444723 
L 188.230689 98.252536 
L 193.414853 113.086889 
L 199.349646 109.131758 
L 204.255699 105.257298 
L 209.092494 98.453392 
L 214.68462 82.960815 
L 219.579666 102.025537 
L 224.63286 111.311617 
L 230.36333 108.761369 
L 235.491641 64.562887 
L 247.650559 60.166492 
L 252.601242 109.522145 
L 258.334926 112.711461 
L 262.273393 104.302601 
L 267.644782 112.286445 
L 271.832627 123.31015 
L 276.828353 124.04554 
L 281.775762 117.268471 
L 286.808508 113.493942 
L 292.054027 113.395436 
L 298.63041 90.175367 
L 311.053944 60.684142 
L 317.058194 117.73724 
L 322.190281 117.265612 
L 327.499397 112.836954 
L 332.584078 117.827316 
L 337.718907 117.97837 
L 342.209379 110.927068 
L 346.984758 118.979117 
L 351.994096 111.478465 
L 357.100687 80.49914 
L 367.722306 71.125368 
L 375.424621 110.389368 
L 379.286651 112.9686 
L 385.771545 116.718917 
L 390.432592 125.085302 
L 395.232969 117.210972 
L 401.513003 117.18245 
L 408.157356 121.647855 
" clip-path="url(#pf4eb2ef0f1)" style="fill: none; stroke-dasharray: 4.995,2.16; stroke-dashoffset: 0; stroke: #4c78a8; stroke-width: 1.35"/>
   </g>
   <g id="line2d_17">
    <path d="M 60.177756 131.503631 
L 67.077068 131.503631 
L 72.33117 131.503631 
L 77.53974 109.671512 
L 82.581804 120.591154 
L 86.808617 131.503631 
L 92.226291 131.503631 
L 96.950363 120.493291 
L 102.094635 103.170045 
L 107.31045 131.503631 
L 119.467711 120.42302 
L 124.675052 82.995608 
L 129.811491 106.664951 
L 135.068889 120.717833 
L 139.708331 131.503631 
L 144.855275 131.503631 
L 149.804576 131.503631 
L 154.706879 131.503631 
L 159.638718 118.544566 
L 164.87791 73.319311 
L 171.374316 115.924835 
L 181.820084 100.256962 
L 188.230689 88.05018 
L 193.414853 97.765518 
L 199.349646 105.880353 
L 204.255699 110.207774 
L 209.092494 131.503631 
L 214.68462 120.917344 
L 219.579666 120.78566 
L 224.63286 107.31449 
L 230.36333 98.649654 
L 235.491641 120.414853 
L 247.650559 106.512717 
L 252.601242 84.742643 
L 258.334926 120.582353 
L 262.273393 116.161833 
L 267.644782 131.503631 
L 271.832627 131.503631 
L 276.828353 131.503631 
L 281.775762 120.662831 
L 286.808508 116.062218 
L 292.054027 115.917545 
L 298.63041 131.503631 
L 311.053944 117.740681 
L 317.058194 70.293498 
L 322.190281 102.905499 
L 327.499397 106.569135 
L 332.584078 131.503631 
L 337.718907 113.708533 
L 342.209379 131.503631 
L 346.984758 113.900167 
L 351.994096 93.509788 
L 357.100687 131.503631 
L 367.722306 119.85083 
L 375.424621 98.206498 
L 379.286651 103.299257 
L 385.771545 115.31361 
L 390.432592 131.503631 
L 395.232969 115.729117 
L 401.513003 117.958246 
L 408.157356 131.503631 
" clip-path="url(#pf4eb2ef0f1)" style="fill: none; stroke-dasharray: 4.995,2.16; stroke-dashoffset: 0; stroke: #4daf7c; stroke-width: 1.35"/>
   </g>
   <g id="patch_3">
    <path d="M 60.177756 137.422852 
L 60.177756 7.2 
" style="fill: none; stroke: #222222; stroke-width: 0.8; stroke-linejoin: miter; stroke-linecap: square"/>
   </g>
   <g id="patch_4">
    <path d="M 60.177756 137.422852 
L 408.157356 137.422852 
" style="fill: none; stroke: #222222; stroke-width: 0.8; stroke-linejoin: miter; stroke-linecap: square"/>
   </g>
   <g id="legend_1">
    <g id="patch_5">
     <path d="M 335.023762 32.777246 
L 404.657356 32.777246 
Q 405.657356 32.777246 405.657356 31.777246 
L 405.657356 10.7 
Q 405.657356 9.7 404.657356 9.7 
L 335.023762 9.7 
Q 334.023762 9.7 334.023762 10.7 
L 334.023762 31.777246 
Q 334.023762 32.777246 335.023762 32.777246 
z
" style="fill: #ffffff; opacity: 0.8; stroke: #cccccc; stroke-linejoin: miter"/>
    </g>
    <g id="line2d_18">
     <path d="M 336.023762 13.590137 
L 341.023762 13.590137 
L 346.023762 13.590137 
" style="fill: none; stroke-dasharray: 4.625,2; stroke-dashoffset: 0; stroke: #6c6c6c; stroke-width: 1.25"/>
    </g>
    <g id="text_17">
     <text style="font-size: 5px; font-family: 'Arial', 'Helvetica', 'DejaVu Sans', sans-serif; text-anchor: start" x="350.023762" y="15.340137" transform="rotate(-0 350.023762 15.340137)">Moving-average smooth</text>
    </g>
    <g id="line2d_19">
     <path d="M 336.023762 20.782617 
L 341.023762 20.782617 
L 346.023762 20.782617 
" style="fill: none; stroke-dasharray: 4.995,2.16; stroke-dashoffset: 0; stroke: #4c78a8; stroke-width: 1.35"/>
    </g>
    <g id="text_18">
     <text style="font-size: 5px; font-family: 'Arial', 'Helvetica', 'DejaVu Sans', sans-serif; text-anchor: start" x="350.023762" y="22.532617" transform="rotate(-0 350.023762 22.532617)">B-spline</text>
    </g>
    <g id="line2d_20">
     <path d="M 336.023762 27.975 
L 341.023762 27.975 
L 346.023762 27.975 
" style="fill: none; stroke-dasharray: 4.995,2.16; stroke-dashoffset: 0; stroke: #4daf7c; stroke-width: 1.35"/>
    </g>
    <g id="text_19">
     <text style="font-size: 5px; font-family: 'Arial', 'Helvetica', 'DejaVu Sans', sans-serif; text-anchor: start" x="350.023762" y="29.725" transform="rotate(-0 350.023762 29.725)">Geodesic optimized</text>
    </g>
   </g>
  </g>
 </g>
 <defs>
  <clipPath id="pf4eb2ef0f1">
   <rect x="60.177756" y="7.2" width="347.9796" height="130.222852"/>
  </clipPath>
 </defs>
</svg>
