<?xml version="1.0" encoding="utf-8" standalone="no"?>
<!DOCTYPE svg PUBLIC "-//W3C//DTD SVG 1.1//EN"
  "http://www.w3.org/Graphics/SVG/1.1/DTD/svg11.dtd">
<svg xmlns:xlink="http://www.w3.org/1999/xlink" width="420.861956pt" height="169.21321pt" viewBox="0 0 420.861956 169.21321" xmlns="http://www.w3.org/2000/svg" version="1.1">
 <metadata>
  <rdf:RDF xmlns:dc="http://purl.org/dc/elements/1.1/" xmlns:cc="http://creativecommons.org/ns#" xmlns:rdf="http://www.w3.org/1999/02/22-rdf-syntax-ns#">
   <cc:Work>
    <dc:type rdf:resource="http://purl.org/dc/dcmitype/StillImage"/>
    <dc:date>2026-06-23T12:37:47.819144</dc:date>
    <dc:format>image/svg+xml</dc:format>
    <dc:creator>
     <cc:Agent>
      <dc:title>Matplotlib v3.11.0, https://matplotlib.org/</dc:title>
     </cc:Agent>
    </dc:creator>
   </cc:Work>
  </rdf:RDF>
 </metadata>
 <defs>
  <style type="text/css">*{stroke-linejoin: round; stroke-linecap: butt}</style>
 </defs>
 <g id="figure_1">
  <g id="patch_1">
   <path d="M 0 169.21321 
L 420.861956 169.21321 
L 420.861956 0 
L 0 0 
z
" style="fill: #ffffff"/>
  </g>
  <g id="axes_1">
   <g id="patch_2">
    <path d="M 55.957356 137.435906 
L 408.796956 137.435906 
L 408.796956 8.420496 
L 55.957356 8.420496 
z
" style="fill: #ffffff"/>
   </g>
   <g id="matplotlib.axis_1">
    <g id="xtick_1">
     <g id="line2d_1">
      <defs>
       <path id="m2e40aef45c" d="M 0 0 
L 0 3 
" style="stroke: #222222; stroke-width: 0.8"/>
      </defs>
      <g>
       <use xlink:href="#m2e40aef45c" x="55.957356" y="137.435906" style="fill: #222222; stroke: #222222; stroke-width: 0.8"/>
      </g>
     </g>
     <g id="text_1">
      <text style="font-size: 7px; font-family: 'Arial', 'Helvetica', 'DejaVu Sans', sans-serif; text-anchor: middle; fill: #222222" x="55.957356" y="149.032097" transform="rotate(-0 55.957356 149.032097)">0.0</text>
     </g>
    </g>
    <g id="xtick_2">
     <g id="line2d_2">
      <g>
       <use xlink:href="#m2e40aef45c" x="126.525276" y="137.435906" style="fill: #222222; stroke: #222222; stroke-width: 0.8"/>
      </g>
     </g>
     <g id="text_2">
      <text style="font-size: 7px; font-family: 'Arial', 'Helvetica', 'DejaVu Sans', sans-serif; text-anchor: middle; fill: #222222" x="126.525276" y="149.032097" transform="rotate(-0 126.525276 149.032097)">0.2</text>
     </g>
    </g>
    <g id="xtick_3">
     <g id="line2d_3">
      <g>
       <use xlink:href="#m2e40aef45c" x="197.093196" y="137.435906" style="fill: #222222; stroke: #222222; stroke-width: 0.8"/>
      </g>
     </g>
     <g id="text_3">
      <text style="font-size: 7px; font-family: 'Arial', 'Helvetica', 'DejaVu Sans', sans-serif; text-anchor: middle; fill: #222222" x="197.093196" y="149.032097" transform="rotate(-0 197.093196 149.032097)">0.4</text>
     </g>
    </g>
    <g id="xtick_4">
     <g id="line2d_4">
      <g>
       <use xlink:href="#m2e40aef45c" x="267.661116" y="137.435906" style="fill: #222222; stroke: #222222; stroke-width: 0.8"/>
      </g>
     </g>
     <g id="text_4">
      <text style="font-size: 7px; font-family: 'Arial', 'Helvetica', 'DejaVu Sans', sans-serif; text-anchor: middle; fill: #222222" x="267.661116" y="149.032097" transform="rotate(-0 267.661116 149.032097)">0.6</text>
     </g>
    </g>
    <g id="xtick_5">
     <g id="line2d_5">
      <g>
       <use xlink:href="#m2e40aef45c" x="338.229036" y="137.435906" style="fill: #222222; stroke: #222222; stroke-width: 0.8"/>
      </g>
     </g>
     <g id="text_5">
      <text style="font-size: 7px; font-family: 'Arial', 'Helvetica', 'DejaVu Sans', sans-serif; text-anchor: middle; fill: #222222" x="338.229036" y="149.032097" transform="rotate(-0 338.229036 149.032097)">0.8</text>
     </g>
    </g>
    <g id="xtick_6">
     <g id="line2d_6">
      <g>
       <use xlink:href="#m2e40aef45c" x="408.796956" y="137.435906" style="fill: #222222; stroke: #222222; stroke-width: 0.8"/>
      </g>
     </g>
     <g id="text_6">
      <text style="font-size: 7px; font-family: 'Arial', 'Helvetica', 'DejaVu Sans', sans-serif; text-anchor: middle; fill: #222222" x="408.796956" y="149.032097" transform="rotate(-0 408.796956 149.032097)">1.0</text>
     </g>
    </g>
    <g id="text_7">
     <text style="font-size: 8px; font-family: 'Arial', 'Helvetica', 'DejaVu Sans', sans-serif; text-anchor: middle" x="232.377156" y="160.32946" transform="rotate(-0 232.377156 160.32946)">Normalized arc length</text>
    </g>
   </g>
   <g id="matplotlib.axis_2">
    <g id="ytick_1">
     <g id="line2d_7">
      <defs>
       <path id="m0e36d196f7" d="M 0 0 
L -3 0 
" style="stroke: #222222; stroke-width: 0.8"/>
      </defs>
      <g>
       <use xlink:href="#m0e36d196f7" x="55.957356" y="131.582822" style="fill: #222222; stroke: #222222; stroke-width: 0.8"/>
      </g>
     </g>
     <g id="text_8">
      <text style="font-size: 7px; font-family: 'Arial', 'Helvetica', 'DejaVu Sans', sans-serif; text-anchor: end; fill: #222222" x="49.457356" y="134.130917" transform="rotate(-0 49.457356 134.130917)">0</text>
     </g>
    </g>
    <g id="ytick_2">
     <g id="line2d_8">
      <g>
       <use xlink:href="#m0e36d196f7" x="55.957356" y="111.277034" style="fill: #222222; stroke: #222222; stroke-width: 0.8"/>
      </g>
     </g>
     <g id="text_9">
      <text style="font-size: 7px; font-family: 'Arial', 'Helvetica', 'DejaVu Sans', sans-serif; text-anchor: end; fill: #222222" x="49.457356" y="113.82513" transform="rotate(-0 49.457356 113.82513)">50</text>
     </g>
    </g>
    <g id="ytick_3">
     <g id="line2d_9">
      <g>
       <use xlink:href="#m0e36d196f7" x="55.957356" y="90.971246" style="fill: #222222; stroke: #222222; stroke-width: 0.8"/>
      </g>
     </g>
     <g id="text_10">
      <text style="font-size: 7px; font-family: 'Arial', 'Helvetica', 'DejaVu Sans', sans-serif; text-anchor: end; fill: #222222" x="49.457356" y="93.519342" transform="rotate(-0 49.457356 93.519342)">100</text>
     </g>
    </g>
    <g id="ytick_4">
     <g id="line2d_10">
      <g>
       <use xlink:href="#m0e36d196f7" x="55.957356" y="70.665459" style="fill: #222222; stroke: #222222; stroke-width: 0.8"/>
      </g>
     </g>
     <g id="text_11">
      <text style="font-size: 7px; font-family: 'Arial', 'Helvetica', 'DejaVu Sans', sans-serif; text-anchor: end; fill: #222222" x="49.457356" y="73.213554" transform="rotate(-0 49.457356 73.213554)">150</text>
     </g>
    </g>
    <g id="ytick_5">
     <g id="line2d_11">
      <g>
       <use xlink:href="#m0e36d196f7" x="55.957356" y="50.359671" style="fill: #222222; stroke: #222222; stroke-width: 0.8"/>
      </g>
     </g>
     <g id="text_12">
      <text style="font-size: 7px; font-family: 'Arial', 'Helvetica', 'DejaVu Sans', sans-serif; text-anchor: end; fill: #222222" x="49.457356" y="52.907767" transform="rotate(-0 49.457356 52.907767)">200</text>
     </g>
    </g>
    <g id="ytick_6">
     <g id="line2d_12">
      <g>
       <use xlink:href="#m0e36d196f7" x="55.957356" y="30.053883" style="fill: #222222; stroke: #222222; stroke-width: 0.8"/>
      </g>
     </g>
     <g id="text_13">
      <text style="font-size: 7px; font-family: 'Arial', 'Helvetica', 'DejaVu Sans', sans-serif; text-anchor: end; fill: #222222" x="49.457356" y="32.601979" transform="rotate(-0 49.457356 32.601979)">250</text>
     </g>
    </g>
    <g id="ytick_7">
     <g id="line2d_13">
      <g>
       <use xlink:href="#m0e36d196f7" x="55.957356" y="9.748096" style="fill: #222222; stroke: #222222; stroke-width: 0.8"/>
      </g>
     </g>
     <g id="text_14">
      <text style="font-size: 7px; font-family: 'Arial', 'Helvetica', 'DejaVu Sans', sans-serif; text-anchor: end; fill: #222222" x="49.457356" y="12.296191" transform="rotate(-0 49.457356 12.296191)">300</text>
     </g>
    </g>
    <g id="text_15">
     <!-- $|\kappa_g|$ -->
     <g transform="translate(7.2 69.028201)">
      <text>
       <tspan x="0" y="-0.25" style="font-size: 13px; font-family: 'cmsy10'">j</tspan>
       <tspan x="16.174172" y="-0.25" style="font-size: 13px; font-family: 'cmsy10'">j</tspan>
       <tspan x="3.599121" y="-0.25" style="font-size: 13px; font-family: 'cmmi10'">∙</tspan>
       <tspan x="11.089355" y="1.699995" style="font-size: 9.1px; font-family: 'cmmi10'">g</tspan>
      </text>
     </g>
    </g>
   </g>
   <g id="line2d_14">
    <path d="M 62.953026 126.419738 
L 68.280509 118.301917 
L 73.561823 127.38834 
L 78.674307 129.945022 
L 82.960153 122.956413 
L 88.453491 130.580578 
L 93.243542 129.220176 
L 98.45966 131.458356 
L 103.748321 78.289348 
L 116.075374 45.582211 
L 121.355443 131.570512 
L 126.563619 123.828903 
L 131.894444 122.309084 
L 136.598681 128.005004 
L 141.81751 123.884822 
L 146.835934 129.545064 
L 151.806704 131.571569 
L 156.807423 124.133301 
L 162.119788 124.762592 
L 168.706925 48.417401 
L 179.298582 62.867769 
L 185.798719 126.363472 
L 191.055287 128.522337 
L 197.072967 126.597194 
L 202.04754 129.777453 
L 206.951887 130.122384 
L 212.622115 122.124904 
L 217.585527 123.146291 
L 222.709296 124.995375 
L 228.519799 129.370437 
L 233.719734 48.930797 
L 246.048467 62.599612 
L 251.068294 124.469166 
L 256.882056 129.960899 
L 260.875529 120.566693 
L 266.321936 128.351187 
L 270.568271 129.795288 
L 275.633768 128.766364 
L 280.650275 127.756984 
L 285.753309 129.00578 
L 291.072088 129.937359 
L 297.74032 77.644641 
L 310.337365 37.778169 
L 316.425472 114.143001 
L 321.629235 120.027856 
L 327.0125 123.445933 
L 332.168196 126.971318 
L 337.37474 115.326855 
L 341.927928 102.852138 
L 346.770001 123.301293 
L 351.849301 122.78408 
L 357.027213 58.765912 
L 367.797177 63.366044 
L 375.607064 106.202648 
L 379.523033 112.57016 
L 386.098498 118.815147 
L 390.824642 119.49537 
L 395.692063 123.808298 
L 402.059806 128.512441 
" clip-path="url(#pf735e32f81)" style="fill: none; stroke: #c73e3a; stroke-width: 1.55; stroke-linecap: square"/>
   </g>
   <g id="line2d_15">
    <path d="M 69.477205 126.68445 
L 73.051102 130.902861 
L 80.652695 126.195937 
L 87.125531 129.55879 
L 94.232834 128.673326 
L 101.296659 126.982883 
L 107.8056 121.426676 
L 113.324127 106.977347 
L 117.604954 65.238497 
L 121.193865 30.859117 
L 124.683222 85.90388 
L 129.395241 115.222362 
L 135.329848 121.905291 
L 142.06397 124.732446 
L 149.202287 129.042071 
L 156.38214 129.141204 
L 163.391704 125.946748 
L 169.706352 119.471656 
L 174.894618 101.781027 
L 178.623598 33.225056 
L 181.849415 33.857011 
L 185.799784 102.074768 
L 191.228691 120.425284 
L 197.838371 126.422254 
L 205.05155 127.527689 
L 212.322683 130.921267 
L 219.497616 126.463079 
L 226.313349 124.063028 
L 232.409194 119.147328 
L 237.35277 94.502606 
L 240.956594 26.553956 
L 244.317715 44.377191 
L 248.149494 100.988121 
L 253.262991 120.528044 
L 259.378187 126.183473 
L 266.128777 127.045174 
L 272.987233 129.699531 
L 280.00608 124.705403 
L 286.961869 123.342251 
L 293.404245 118.718616 
L 298.867404 103.882857 
L 303.159167 58.872819 
L 306.857522 39.039545 
L 310.692408 97.18402 
L 315.817146 118.263369 
L 322.098546 125.157029 
L 329.082554 127.990347 
L 336.151131 123.770838 
L 342.721036 121.252013 
L 348.343829 112.089267 
L 352.78548 77.286598 
L 356.01003 14.284833 
L 359.485697 72.796378 
L 363.962193 112.523216 
L 369.75999 122.935728 
L 376.735881 127.477632 
L 383.485638 128.896664 
L 391.345335 130.710657 
L 395.04086 129.360086 
" clip-path="url(#pf735e32f81)" style="fill: none; stroke: #6c6c6c; stroke-width: 1.35; stroke-linecap: square"/>
   </g>
   <g id="line2d_16">
    <path d="M 64.065566 117.832638 
L 70.162739 123.629397 
L 76.744411 127.971669 
L 83.568228 130.44366 
L 89.40809 130.414338 
L 96.645861 128.45596 
L 102.347902 122.605627 
L 107.536785 109.606786 
L 111.618755 77.802064 
L 118.447077 71.267687 
L 121.939918 99.671525 
L 126.338712 114.354907 
L 132.128941 123.793639 
L 138.144408 128.014557 
L 145.393569 129.249328 
L 152.544103 131.382028 
L 159.373715 128.949643 
L 165.486887 123.14218 
L 170.605078 104.224304 
L 174.790202 53.240149 
L 180.18075 83.349628 
L 184.954606 113.438973 
L 189.838897 120.313736 
L 196.616505 126.287928 
L 202.992729 129.324345 
L 209.626717 131.165681 
L 217.2499 130.542235 
L 223.447584 127.762803 
L 228.967662 120.407881 
L 233.75537 94.025184 
L 236.825166 55.302625 
L 243.451435 85.163016 
L 247.277733 109.075204 
L 252.703015 115.964795 
L 257.159599 125.09129 
L 264.039523 129.800836 
L 269.761179 129.794072 
L 276.642292 127.483941 
L 283.288004 125.561216 
L 289.633764 124.564585 
L 295.420653 116.780985 
L 300.877633 58.490405 
L 307.424103 69.648557 
L 312.232388 113.445838 
L 317.514128 120.922681 
L 324.098906 127.328164 
L 331.056941 131.531997 
L 338.09422 127.376031 
L 343.77223 121.669119 
L 349.014616 117.617339 
L 353.58064 109.338619 
L 357.211963 50.89896 
L 362.231985 63.773251 
L 368.690904 120.018772 
L 373.12522 127.534067 
L 381.616779 129.204369 
L 388.004603 130.329648 
L 394.371311 131.313623 
L 401.858343 128.167864 
" clip-path="url(#pf735e32f81)" style="fill: none; stroke: #4c78a8; stroke-width: 1.35; stroke-linecap: square"/>
   </g>
   <g id="line2d_17">
    <path d="M 62.854635 126.419738 
L 68.107189 122.474855 
L 74.895915 131.460661 
L 79.120916 128.645656 
L 82.537969 124.884138 
L 87.954047 128.873735 
L 91.898947 131.49522 
L 99.906968 125.18626 
L 103.076434 87.319183 
L 115.945563 84.993257 
L 117.921229 114.85238 
L 126.302843 122.40907 
L 130.926193 124.690793 
L 136.343994 126.355949 
L 141.489422 123.884822 
L 146.437264 129.545064 
L 151.338123 128.406759 
L 155.498959 128.914578 
L 165.909329 98.02048 
L 168.202264 96.141472 
L 179.579395 89.074695 
L 182.375236 109.16022 
L 192.224127 128.997306 
L 194.804753 128.388049 
L 202.495154 127.155869 
L 205.774558 131.110397 
L 211.543032 130.076476 
L 216.438912 129.021957 
L 220.963237 130.920632 
L 227.653884 113.86296 
L 232.545178 85.307786 
L 247.392004 88.341287 
L 249.961165 120.267272 
L 258.479497 124.244825 
L 263.18988 127.307512 
L 267.574096 127.285439 
L 271.760708 129.795288 
L 276.754961 130.482039 
L 282.505604 129.520209 
L 287.443496 120.746988 
L 292.692998 121.593214 
L 298.821266 92.742451 
L 311.493314 85.278369 
L 315.380154 112.099994 
L 324.318751 125.421218 
L 330.809931 130.679851 
L 334.591427 120.171953 
L 340.660484 125.447847 
L 344.129821 129.678183 
L 349.622868 124.528845 
L 356.763377 111.578592 
L 359.245417 75.379179 
L 369.903723 89.542953 
L 378.523488 125.339728 
L 382.299092 120.564527 
L 387.796033 127.789027 
L 391.350151 128.463324 
L 395.247982 126.632579 
L 403.163089 126.540532 
" clip-path="url(#pf735e32f81)" style="fill: none; stroke: #4daf7c; stroke-width: 1.75; stroke-linecap: square"/>
   </g>
   <g id="patch_3">
    <path d="M 55.957356 137.435906 
L 55.957356 8.420496 
" style="fill: none; stroke: #222222; stroke-width: 0.8; stroke-linejoin: miter; stroke-linecap: square"/>
   </g>
   <g id="patch_4">
    <path d="M 55.957356 137.435906 
L 408.796956 137.435906 
" style="fill: none; stroke: #222222; stroke-width: 0.8; stroke-linejoin: miter; stroke-linecap: square"/>
   </g>
   <g id="legend_1">
    <g id="patch_5">
     <path d="M 335.663362 41.193055 
L 405.296956 41.193055 
Q 406.296956 41.193055 406.296956 40.193055 
L 406.296956 11.920496 
Q 406.296956 10.920496 405.296956 10.920496 
L 335.663362 10.920496 
Q 334.663362 10.920496 334.663362 11.920496 
L 334.663362 40.193055 
Q 334.663362 41.193055 335.663362 41.193055 
z
" style="fill: #ffffff; opacity: 0.8; stroke: #cccccc; stroke-linejoin: miter"/>
    </g>
    <g id="line2d_18">
     <path d="M 336.663362 14.813465 
L 341.663362 14.813465 
L 346.663362 14.813465 
" style="fill: none; stroke: #c73e3a; stroke-width: 1.55; stroke-linecap: square"/>
    </g>
    <g id="text_16">
     <text style="font-size: 5px; font-family: 'Arial', 'Helvetica', 'DejaVu Sans', sans-serif; text-anchor: start" x="350.663362" y="16.563465" transform="rotate(-0 350.663362 16.563465)">Original</text>
    </g>
    <g id="line2d_19">
     <path d="M 336.663362 22.005946 
L 341.663362 22.005946 
L 346.663362 22.005946 
" style="fill: none; stroke: #6c6c6c; stroke-width: 1.35; stroke-linecap: square"/>
    </g>
    <g id="text_17">
     <text style="font-size: 5px; font-family: 'Arial', 'Helvetica', 'DejaVu Sans', sans-serif; text-anchor: start" x="350.663362" y="23.755946" transform="rotate(-0 350.663362 23.755946)">Moving-average smooth</text>
    </g>
    <g id="line2d_20">
     <path d="M 336.663362 29.198426 
L 341.663362 29.198426 
L 346.663362 29.198426 
" style="fill: none; stroke: #4c78a8; stroke-width: 1.35; stroke-linecap: square"/>
    </g>
    <g id="text_18">
     <text style="font-size: 5px; font-family: 'Arial', 'Helvetica', 'DejaVu Sans', sans-serif; text-anchor: start" x="350.663362" y="30.948426" transform="rotate(-0 350.663362 30.948426)">B-spline</text>
    </g>
    <g id="line2d_21">
     <path d="M 336.663362 36.390809 
L 341.663362 36.390809 
L 346.663362 36.390809 
" style="fill: none; stroke: #4daf7c; stroke-width: 1.75; stroke-linecap: square"/>
    </g>
    <g id="text_19">
     <text style="font-size: 5px; font-family: 'Arial', 'Helvetica', 'DejaVu Sans', sans-serif; text-anchor: start" x="350.663362" y="38.140809" transform="rotate(-0 350.663362 38.140809)">Geodesic optimized</text>
    </g>
   </g>
  </g>
 </g>
 <defs>
  <clipPath id="pf735e32f81">
   <rect x="55.957356" y="8.420496" width="352.8396" height="129.015409"/>
  </clipPath>
 </defs>
</svg>
