<?xml version="1.0" encoding="utf-8" standalone="no"?>
<!DOCTYPE svg PUBLIC "-//W3C//DTD SVG 1.1//EN"
  "http://www.w3.org/Graphics/SVG/1.1/DTD/svg11.dtd">
<svg xmlns:xlink="http://www.w3.org/1999/xlink" width="420.881054pt" height="169.11643pt" viewBox="0 0 420.881054 169.11643" xmlns="http://www.w3.org/2000/svg" version="1.1">
 <metadata>
  <rdf:RDF xmlns:dc="http://purl.org/dc/elements/1.1/" xmlns:cc="http://creativecommons.org/ns#" xmlns:rdf="http://www.w3.org/1999/02/22-rdf-syntax-ns#">
   <cc:Work>
    <dc:type rdf:resource="http://purl.org/dc/dcmitype/StillImage"/>
    <dc:date>2026-06-15T20:39:37.671366</dc:date>
    <dc:format>image/svg+xml</dc:format>
    <dc:creator>
     <cc:Agent>
      <dc:title>Matplotlib v3.10.8, https://matplotlib.org/</dc:title>
     </cc:Agent>
    </dc:creator>
   </cc:Work>
  </rdf:RDF>
 </metadata>
 <defs>
  <style type="text/css">*{stroke-linejoin: round; stroke-linecap: butt}</style>
 </defs>
 <g id="figure_1">
  <g id="patch_1">
   <path d="M 0 169.11643 
L 420.881054 169.11643 
L 420.881054 0 
L 0 0 
z
" style="fill: #ffffff"/>
  </g>
  <g id="axes_1">
   <g id="patch_2">
    <path d="M 55.889771 136.899242 
L 408.11496 136.899242 
L 408.11496 8.539132 
L 55.889771 8.539132 
z
" style="fill: #ffffff"/>
   </g>
   <g id="matplotlib.axis_1">
    <g id="xtick_1">
     <g id="line2d_1">
      <defs>
       <path id="mf554ac8da5" d="M 0 0 
L 0 3 
" style="stroke: #222222; stroke-width: 0.8"/>
      </defs>
      <g>
       <use xlink:href="#mf554ac8da5" x="55.889771" y="136.899242" style="fill: #222222; stroke: #222222; stroke-width: 0.8"/>
      </g>
     </g>
     <g id="text_1">
      <text style="font-size: 7px; font-family: 'Arial', 'Helvetica', 'DejaVu Sans', sans-serif; text-anchor: middle; fill: #222222" x="55.889771" y="148.718149" transform="rotate(-0 55.889771 148.718149)">0.0</text>
     </g>
    </g>
    <g id="xtick_2">
     <g id="line2d_2">
      <g>
       <use xlink:href="#mf554ac8da5" x="126.334809" y="136.899242" style="fill: #222222; stroke: #222222; stroke-width: 0.8"/>
      </g>
     </g>
     <g id="text_2">
      <text style="font-size: 7px; font-family: 'Arial', 'Helvetica', 'DejaVu Sans', sans-serif; text-anchor: middle; fill: #222222" x="126.334809" y="148.718149" transform="rotate(-0 126.334809 148.718149)">0.2</text>
     </g>
    </g>
    <g id="xtick_3">
     <g id="line2d_3">
      <g>
       <use xlink:href="#mf554ac8da5" x="196.779846" y="136.899242" style="fill: #222222; stroke: #222222; stroke-width: 0.8"/>
      </g>
     </g>
     <g id="text_3">
      <text style="font-size: 7px; font-family: 'Arial', 'Helvetica', 'DejaVu Sans', sans-serif; text-anchor: middle; fill: #222222" x="196.779846" y="148.718149" transform="rotate(-0 196.779846 148.718149)">0.4</text>
     </g>
    </g>
    <g id="xtick_4">
     <g id="line2d_4">
      <g>
       <use xlink:href="#mf554ac8da5" x="267.224884" y="136.899242" style="fill: #222222; stroke: #222222; stroke-width: 0.8"/>
      </g>
     </g>
     <g id="text_4">
      <text style="font-size: 7px; font-family: 'Arial', 'Helvetica', 'DejaVu Sans', sans-serif; text-anchor: middle; fill: #222222" x="267.224884" y="148.718149" transform="rotate(-0 267.224884 148.718149)">0.6</text>
     </g>
    </g>
    <g id="xtick_5">
     <g id="line2d_5">
      <g>
       <use xlink:href="#mf554ac8da5" x="337.669922" y="136.899242" style="fill: #222222; stroke: #222222; stroke-width: 0.8"/>
      </g>
     </g>
     <g id="text_5">
      <text style="font-size: 7px; font-family: 'Arial', 'Helvetica', 'DejaVu Sans', sans-serif; text-anchor: middle; fill: #222222" x="337.669922" y="148.718149" transform="rotate(-0 337.669922 148.718149)">0.8</text>
     </g>
    </g>
    <g id="xtick_6">
     <g id="line2d_6">
      <g>
       <use xlink:href="#mf554ac8da5" x="408.11496" y="136.899242" style="fill: #222222; stroke: #222222; stroke-width: 0.8"/>
      </g>
     </g>
     <g id="text_6">
      <text style="font-size: 7px; font-family: 'Arial', 'Helvetica', 'DejaVu Sans', sans-serif; text-anchor: middle; fill: #222222" x="408.11496" y="148.718149" transform="rotate(-0 408.11496 148.718149)">1.0</text>
     </g>
    </g>
    <g id="text_7">
     <text style="font-size: 8px; font-family: 'Arial', 'Helvetica', 'DejaVu Sans', sans-serif; text-anchor: middle" x="232.002365" y="160.25268" transform="rotate(-0 232.002365 160.25268)">Normalized arc length</text>
    </g>
   </g>
   <g id="matplotlib.axis_2">
    <g id="ytick_1">
     <g id="line2d_7">
      <defs>
       <path id="m11c6379d8c" d="M 0 0 
L -3 0 
" style="stroke: #222222; stroke-width: 0.8"/>
      </defs>
      <g>
       <use xlink:href="#m11c6379d8c" x="55.889771" y="131.072142" style="fill: #222222; stroke: #222222; stroke-width: 0.8"/>
      </g>
     </g>
     <g id="text_8">
      <text style="font-size: 7px; font-family: 'Arial', 'Helvetica', 'DejaVu Sans', sans-serif; text-anchor: end; fill: #222222" x="49.389771" y="133.731595" transform="rotate(-0 49.389771 133.731595)">0</text>
     </g>
    </g>
    <g id="ytick_2">
     <g id="line2d_8">
      <g>
       <use xlink:href="#m11c6379d8c" x="55.889771" y="110.870027" style="fill: #222222; stroke: #222222; stroke-width: 0.8"/>
      </g>
     </g>
     <g id="text_9">
      <text style="font-size: 7px; font-family: 'Arial', 'Helvetica', 'DejaVu Sans', sans-serif; text-anchor: end; fill: #222222" x="49.389771" y="113.52948" transform="rotate(-0 49.389771 113.52948)">50</text>
     </g>
    </g>
    <g id="ytick_3">
     <g id="line2d_9">
      <g>
       <use xlink:href="#m11c6379d8c" x="55.889771" y="90.667912" style="fill: #222222; stroke: #222222; stroke-width: 0.8"/>
      </g>
     </g>
     <g id="text_10">
      <text style="font-size: 7px; font-family: 'Arial', 'Helvetica', 'DejaVu Sans', sans-serif; text-anchor: end; fill: #222222" x="49.389771" y="93.327365" transform="rotate(-0 49.389771 93.327365)">100</text>
     </g>
    </g>
    <g id="ytick_4">
     <g id="line2d_10">
      <g>
       <use xlink:href="#m11c6379d8c" x="55.889771" y="70.465798" style="fill: #222222; stroke: #222222; stroke-width: 0.8"/>
      </g>
     </g>
     <g id="text_11">
      <text style="font-size: 7px; font-family: 'Arial', 'Helvetica', 'DejaVu Sans', sans-serif; text-anchor: end; fill: #222222" x="49.389771" y="73.125251" transform="rotate(-0 49.389771 73.125251)">150</text>
     </g>
    </g>
    <g id="ytick_5">
     <g id="line2d_11">
      <g>
       <use xlink:href="#m11c6379d8c" x="55.889771" y="50.263683" style="fill: #222222; stroke: #222222; stroke-width: 0.8"/>
      </g>
     </g>
     <g id="text_12">
      <text style="font-size: 7px; font-family: 'Arial', 'Helvetica', 'DejaVu Sans', sans-serif; text-anchor: end; fill: #222222" x="49.389771" y="52.923136" transform="rotate(-0 49.389771 52.923136)">200</text>
     </g>
    </g>
    <g id="ytick_6">
     <g id="line2d_12">
      <g>
       <use xlink:href="#m11c6379d8c" x="55.889771" y="30.061568" style="fill: #222222; stroke: #222222; stroke-width: 0.8"/>
      </g>
     </g>
     <g id="text_13">
      <text style="font-size: 7px; font-family: 'Arial', 'Helvetica', 'DejaVu Sans', sans-serif; text-anchor: end; fill: #222222" x="49.389771" y="32.721021" transform="rotate(-0 49.389771 32.721021)">250</text>
     </g>
    </g>
    <g id="ytick_7">
     <g id="line2d_13">
      <g>
       <use xlink:href="#m11c6379d8c" x="55.889771" y="9.859453" style="fill: #222222; stroke: #222222; stroke-width: 0.8"/>
      </g>
     </g>
     <g id="text_14">
      <text style="font-size: 7px; font-family: 'Arial', 'Helvetica', 'DejaVu Sans', sans-serif; text-anchor: end; fill: #222222" x="49.389771" y="12.518906" transform="rotate(-0 49.389771 12.518906)">300</text>
     </g>
    </g>
    <g id="text_15">
     <!-- $|\kappa_g|$ -->
     <g transform="translate(7.2 68.559187)">
      <text>
       <tspan x="0" y="-0.25" style="font-size: 13px; font-family: 'cmsy10'">j</tspan>
       <tspan x="16.259572" y="-0.25" style="font-size: 13px; font-family: 'cmsy10'">j</tspan>
       <tspan x="3.599121" y="-0.25" style="font-size: 13px; font-family: 'cmmi10'">∙</tspan>
       <tspan x="11.089355" y="1.960812" style="font-size: 9.1px; font-family: 'cmmi10'">g</tspan>
      </text>
     </g>
    </g>
   </g>
   <g id="line2d_14">
    <path d="M 62.873317 125.939613 
L 68.191358 117.856984 
L 73.463562 126.079021 
L 78.56708 129.440272 
L 82.845239 122.490851 
L 88.328988 130.074501 
L 93.111286 129.064077 
L 98.318162 130.954459 
L 103.597437 78.05295 
L 115.903325 45.260353 
L 121.174576 131.037795 
L 126.373468 123.538799 
L 131.69478 121.782976 
L 136.391109 127.519986 
L 141.600536 123.418536 
L 146.610697 129.046174 
L 151.572331 131.064692 
L 156.564805 124.211216 
L 161.867553 122.87085 
L 168.443107 49.22429 
L 179.016353 62.36404 
L 185.505329 126.43078 
L 190.752768 128.798229 
L 196.759561 125.933263 
L 201.725735 129.217713 
L 206.621519 129.620671 
L 212.282141 125.098646 
L 217.236588 123.364485 
L 222.351336 124.456832 
L 228.151661 129.06521 
L 233.342305 49.033248 
L 245.64973 62.126455 
L 250.66066 124.010978 
L 256.464122 129.250185 
L 260.450581 120.507838 
L 265.887581 127.853249 
L 270.12661 129.299676 
L 275.18345 128.268779 
L 280.190677 127.148453 
L 285.284906 128.494238 
L 290.594768 129.10749 
L 297.250795 77.412002 
L 309.826323 37.839694 
L 315.904112 114.27032 
L 321.098687 119.601164 
L 326.47259 122.388997 
L 331.619366 126.481282 
L 336.816241 114.920879 
L 341.361549 102.485437 
L 346.195301 123.285664 
L 351.265781 122.725286 
L 356.435113 58.627251 
L 367.18672 63.204189 
L 374.982477 103.694303 
L 378.8917 112.137858 
L 385.4557 118.475532 
L 390.17375 119.044709 
L 395.032771 128.499453 
L 401.389378 128.196407 
" clip-path="url(#p1386b26f18)" style="fill: none; stroke: #c73e3a; stroke-width: 1.55; stroke-linecap: square"/>
   </g>
   <g id="line2d_15">
    <path d="M 69.386175 126.199403 
L 72.953833 130.395846 
L 80.542225 126.473917 
L 87.003798 129.107336 
L 94.098738 128.177646 
L 101.150313 126.495872 
L 107.647991 120.743808 
L 113.156927 106.221336 
L 117.430325 65.065781 
L 121.013043 30.602974 
L 124.496371 85.524848 
L 129.200223 114.374863 
L 135.124492 121.356014 
L 141.846903 124.256647 
L 148.9728 128.544373 
L 156.140164 128.643104 
L 163.137525 125.464788 
L 169.441218 119.575617 
L 174.620449 99.749579 
L 178.342959 35.634455 
L 181.563173 35.573125 
L 185.506643 102.552634 
L 190.926077 120.61578 
L 197.524219 125.577309 
L 204.72487 127.118365 
L 211.983387 130.414296 
L 219.145859 125.266514 
L 225.949688 123.358127 
L 232.034859 118.588633 
L 236.969762 93.505811 
L 240.567277 26.469504 
L 243.922605 44.618443 
L 247.747743 100.326903 
L 252.852331 119.968096 
L 258.956846 125.457717 
L 265.695649 126.556773 
L 272.542154 129.198734 
L 279.54875 124.229429 
L 286.492371 122.670016 
L 292.92346 118.312451 
L 298.377044 102.881935 
L 302.661287 58.731845 
L 306.353243 39.892818 
L 310.181477 94.548727 
L 315.297291 117.994011 
L 321.567697 124.887191 
L 328.539437 127.497563 
L 335.595591 123.159072 
L 342.153978 120.794126 
L 347.766969 111.209972 
L 352.200914 78.976917 
L 355.419897 14.373683 
L 358.889507 72.58425 
L 363.358132 112.208665 
L 369.145785 122.447342 
L 376.109514 126.985004 
L 382.847528 128.399528 
L 390.69357 130.305801 
L 394.382682 129.445021 
" clip-path="url(#p1386b26f18)" style="fill: none; stroke-dasharray: 4.995,2.16; stroke-dashoffset: 0; stroke: #6c6c6c; stroke-width: 1.35"/>
   </g>
   <g id="line2d_16">
    <path d="M 62.775121 125.939613 
L 68.018385 122.008674 
L 74.795192 130.945369 
L 79.013196 128.159936 
L 82.423925 124.406059 
L 87.830567 128.378483 
L 91.768783 130.986223 
L 99.763015 124.709144 
L 102.926953 87.03375 
L 115.774058 84.719896 
L 117.74605 114.434683 
L 126.112922 121.94906 
L 130.728398 124.220393 
L 136.136718 125.876096 
L 141.272896 123.418536 
L 146.212609 129.046174 
L 151.104477 127.917494 
L 155.258182 128.420024 
L 165.650543 97.681265 
L 167.939353 95.811181 
L 179.296524 88.781768 
L 182.08716 108.763271 
L 191.918921 128.497827 
L 194.494985 127.892546 
L 202.171716 126.670817 
L 205.445405 130.602274 
L 211.203919 129.576873 
L 216.091666 128.522207 
L 220.607961 130.416866 
L 227.286981 113.447241 
L 232.169887 85.031188 
L 246.990851 88.048874 
L 249.555371 119.817823 
L 258.059178 123.765012 
L 262.761267 126.827325 
L 267.137777 126.801108 
L 271.317201 129.299676 
L 276.302936 129.977707 
L 282.043523 129.019059 
L 286.972563 120.288491 
L 292.212996 121.137826 
L 298.330162 92.428765 
L 310.980373 85.002022 
L 314.860624 111.686516 
L 323.783618 124.945073 
L 330.263258 130.176729 
L 334.038501 119.728268 
L 340.097023 124.95996 
L 343.559745 129.182349 
L 349.043683 124.055101 
L 356.171472 111.17014 
L 358.649667 75.152488 
L 369.289186 89.24997 
L 377.894407 124.852625 
L 381.663288 120.096974 
L 387.150384 127.298877 
L 390.69843 127.967489 
L 394.589784 126.144104 
L 402.491159 126.056584 
" clip-path="url(#p1386b26f18)" style="fill: none; stroke: #1b8a3a; stroke-width: 1.75; stroke-linecap: square"/>
   </g>
   <g id="patch_3">
    <path d="M 55.889771 136.899242 
L 55.889771 8.539132 
" style="fill: none; stroke: #222222; stroke-width: 0.8; stroke-linejoin: miter; stroke-linecap: square"/>
   </g>
   <g id="patch_4">
    <path d="M 55.889771 136.899242 
L 408.11496 136.899242 
" style="fill: none; stroke: #222222; stroke-width: 0.8; stroke-linejoin: miter; stroke-linecap: square"/>
   </g>
   <g id="legend_1">
    <g id="patch_5">
     <path d="M 327.964179 34.55632 
L 404.61496 34.55632 
Q 405.61496 34.55632 405.61496 33.55632 
L 405.61496 12.039132 
Q 405.61496 11.039132 404.61496 11.039132 
L 327.964179 11.039132 
Q 326.964179 11.039132 326.964179 12.039132 
L 326.964179 33.55632 
Q 326.964179 34.55632 327.964179 34.55632 
z
" style="fill: #ffffff; opacity: 0.8; stroke: #cccccc; stroke-linejoin: miter"/>
    </g>
    <g id="line2d_17">
     <path d="M 328.964179 15.088351 
L 333.964179 15.088351 
L 338.964179 15.088351 
" style="fill: none; stroke: #c73e3a; stroke-width: 1.55; stroke-linecap: square"/>
    </g>
    <g id="text_16">
     <text style="font-size: 5px; font-family: 'Arial', 'Helvetica', 'DejaVu Sans', sans-serif; text-anchor: start" x="342.964179" y="16.838351" transform="rotate(-0 342.964179 16.838351)">Original</text>
    </g>
    <g id="line2d_18">
     <path d="M 328.964179 22.427413 
L 333.964179 22.427413 
L 338.964179 22.427413 
" style="fill: none; stroke-dasharray: 4.995,2.16; stroke-dashoffset: 0; stroke: #6c6c6c; stroke-width: 1.35"/>
    </g>
    <g id="text_17">
     <text style="font-size: 5px; font-family: 'Arial', 'Helvetica', 'DejaVu Sans', sans-serif; text-anchor: start" x="342.964179" y="24.177413" transform="rotate(-0 342.964179 24.177413)">Moving-average smooth</text>
    </g>
    <g id="line2d_19">
     <path d="M 328.964179 29.766476 
L 333.964179 29.766476 
L 338.964179 29.766476 
" style="fill: none; stroke: #1b8a3a; stroke-width: 1.75; stroke-linecap: square"/>
    </g>
    <g id="text_18">
     <text style="font-size: 5px; font-family: 'Arial', 'Helvetica', 'DejaVu Sans', sans-serif; text-anchor: start" x="342.964179" y="31.516476" transform="rotate(-0 342.964179 31.516476)">Geodesic optimized</text>
    </g>
   </g>
  </g>
 </g>
 <defs>
  <clipPath id="p1386b26f18">
   <rect x="55.889771" y="8.539132" width="352.225189" height="128.36011"/>
  </clipPath>
 </defs>
</svg>
