<?xml version="1.0" encoding="utf-8" standalone="no"?>
<!DOCTYPE svg PUBLIC "-//W3C//DTD SVG 1.1//EN"
  "http://www.w3.org/Graphics/SVG/1.1/DTD/svg11.dtd">
<svg xmlns:xlink="http://www.w3.org/1999/xlink" width="420.180072pt" height="169.317187pt" viewBox="0 0 420.180072 169.317187" xmlns="http://www.w3.org/2000/svg" version="1.1">
 <metadata>
  <rdf:RDF xmlns:dc="http://purl.org/dc/elements/1.1/" xmlns:cc="http://creativecommons.org/ns#" xmlns:rdf="http://www.w3.org/1999/02/22-rdf-syntax-ns#">
   <cc:Work>
    <dc:type rdf:resource="http://purl.org/dc/dcmitype/StillImage"/>
    <dc:date>2026-06-29T19:50:56.202421</dc:date>
    <dc:format>image/svg+xml</dc:format>
    <dc:creator>
     <cc:Agent>
      <dc:title>Matplotlib v3.10.8, https://matplotlib.org/</dc:title>
     </cc:Agent>
    </dc:creator>
   </cc:Work>
  </rdf:RDF>
 </metadata>
 <defs>
  <style type="text/css">*{stroke-linejoin: round; stroke-linecap: butt}</style>
 </defs>
 <g id="figure_1">
  <g id="patch_1">
   <path d="M 0 169.317187 
L 420.180072 169.317187 
L 420.180072 0 
L 0 0 
z
" style="fill: #ffffff"/>
  </g>
  <g id="axes_1">
   <g id="patch_2">
    <path d="M 60.104088 137.1 
L 407.413978 137.1 
L 407.413978 7.2 
L 60.104088 7.2 
z
" style="fill: #ffffff"/>
   </g>
   <g id="matplotlib.axis_1">
    <g id="xtick_1">
     <g id="line2d_1">
      <defs>
       <path id="m3ac5d8d84e" d="M 0 0 
L 0 3 
" style="stroke: #222222; stroke-width: 0.8"/>
      </defs>
      <g>
       <use xlink:href="#m3ac5d8d84e" x="60.104088" y="137.1" style="fill: #222222; stroke: #222222; stroke-width: 0.8"/>
      </g>
     </g>
     <g id="text_1">
      <text style="font-size: 7px; font-family: 'Arial', 'Helvetica', 'DejaVu Sans', sans-serif; text-anchor: middle; fill: #222222" x="60.104088" y="148.918906" transform="rotate(-0 60.104088 148.918906)">0.0</text>
     </g>
    </g>
    <g id="xtick_2">
     <g id="line2d_2">
      <g>
       <use xlink:href="#m3ac5d8d84e" x="129.566066" y="137.1" style="fill: #222222; stroke: #222222; stroke-width: 0.8"/>
      </g>
     </g>
     <g id="text_2">
      <text style="font-size: 7px; font-family: 'Arial', 'Helvetica', 'DejaVu Sans', sans-serif; text-anchor: middle; fill: #222222" x="129.566066" y="148.918906" transform="rotate(-0 129.566066 148.918906)">0.2</text>
     </g>
    </g>
    <g id="xtick_3">
     <g id="line2d_3">
      <g>
       <use xlink:href="#m3ac5d8d84e" x="199.028044" y="137.1" style="fill: #222222; stroke: #222222; stroke-width: 0.8"/>
      </g>
     </g>
     <g id="text_3">
      <text style="font-size: 7px; font-family: 'Arial', 'Helvetica', 'DejaVu Sans', sans-serif; text-anchor: middle; fill: #222222" x="199.028044" y="148.918906" transform="rotate(-0 199.028044 148.918906)">0.4</text>
     </g>
    </g>
    <g id="xtick_4">
     <g id="line2d_4">
      <g>
       <use xlink:href="#m3ac5d8d84e" x="268.490022" y="137.1" style="fill: #222222; stroke: #222222; stroke-width: 0.8"/>
      </g>
     </g>
     <g id="text_4">
      <text style="font-size: 7px; font-family: 'Arial', 'Helvetica', 'DejaVu Sans', sans-serif; text-anchor: middle; fill: #222222" x="268.490022" y="148.918906" transform="rotate(-0 268.490022 148.918906)">0.6</text>
     </g>
    </g>
    <g id="xtick_5">
     <g id="line2d_5">
      <g>
       <use xlink:href="#m3ac5d8d84e" x="337.952" y="137.1" style="fill: #222222; stroke: #222222; stroke-width: 0.8"/>
      </g>
     </g>
     <g id="text_5">
      <text style="font-size: 7px; font-family: 'Arial', 'Helvetica', 'DejaVu Sans', sans-serif; text-anchor: middle; fill: #222222" x="337.952" y="148.918906" transform="rotate(-0 337.952 148.918906)">0.8</text>
     </g>
    </g>
    <g id="xtick_6">
     <g id="line2d_6">
      <g>
       <use xlink:href="#m3ac5d8d84e" x="407.413978" y="137.1" style="fill: #222222; stroke: #222222; stroke-width: 0.8"/>
      </g>
     </g>
     <g id="text_6">
      <text style="font-size: 7px; font-family: 'Arial', 'Helvetica', 'DejaVu Sans', sans-serif; text-anchor: middle; fill: #222222" x="407.413978" y="148.918906" transform="rotate(-0 407.413978 148.918906)">1.0</text>
     </g>
    </g>
    <g id="text_7">
     <text style="font-size: 8px; font-family: 'Arial', 'Helvetica', 'DejaVu Sans', sans-serif; text-anchor: middle" x="233.759033" y="160.453437" transform="rotate(-0 233.759033 160.453437)">Normalized arc length</text>
    </g>
   </g>
   <g id="matplotlib.axis_2">
    <g id="ytick_1">
     <g id="line2d_7">
      <defs>
       <path id="mf1c530f356" d="M 0 0 
L -3 0 
" style="stroke: #222222; stroke-width: 0.8"/>
      </defs>
      <g>
       <use xlink:href="#mf1c530f356" x="60.104088" y="131.195455" style="fill: #222222; stroke: #222222; stroke-width: 0.8"/>
      </g>
     </g>
     <g id="text_8">
      <text style="font-size: 7px; font-family: 'Arial', 'Helvetica', 'DejaVu Sans', sans-serif; text-anchor: end; fill: #222222" x="53.604088" y="133.854908" transform="rotate(-0 53.604088 133.854908)">0</text>
     </g>
    </g>
    <g id="ytick_2">
     <g id="line2d_8">
      <g>
       <use xlink:href="#mf1c530f356" x="60.104088" y="113.993176" style="fill: #222222; stroke: #222222; stroke-width: 0.8"/>
      </g>
     </g>
     <g id="text_9">
      <text style="font-size: 7px; font-family: 'Arial', 'Helvetica', 'DejaVu Sans', sans-serif; text-anchor: end; fill: #222222" x="53.604088" y="116.65263" transform="rotate(-0 53.604088 116.65263)">2</text>
     </g>
    </g>
    <g id="ytick_3">
     <g id="line2d_9">
      <g>
       <use xlink:href="#mf1c530f356" x="60.104088" y="96.790898" style="fill: #222222; stroke: #222222; stroke-width: 0.8"/>
      </g>
     </g>
     <g id="text_10">
      <text style="font-size: 7px; font-family: 'Arial', 'Helvetica', 'DejaVu Sans', sans-serif; text-anchor: end; fill: #222222" x="53.604088" y="99.450351" transform="rotate(-0 53.604088 99.450351)">4</text>
     </g>
    </g>
    <g id="ytick_4">
     <g id="line2d_10">
      <g>
       <use xlink:href="#mf1c530f356" x="60.104088" y="79.58862" style="fill: #222222; stroke: #222222; stroke-width: 0.8"/>
      </g>
     </g>
     <g id="text_11">
      <text style="font-size: 7px; font-family: 'Arial', 'Helvetica', 'DejaVu Sans', sans-serif; text-anchor: end; fill: #222222" x="53.604088" y="82.248073" transform="rotate(-0 53.604088 82.248073)">6</text>
     </g>
    </g>
    <g id="ytick_5">
     <g id="line2d_11">
      <g>
       <use xlink:href="#mf1c530f356" x="60.104088" y="62.386342" style="fill: #222222; stroke: #222222; stroke-width: 0.8"/>
      </g>
     </g>
     <g id="text_12">
      <text style="font-size: 7px; font-family: 'Arial', 'Helvetica', 'DejaVu Sans', sans-serif; text-anchor: end; fill: #222222" x="53.604088" y="65.045795" transform="rotate(-0 53.604088 65.045795)">8</text>
     </g>
    </g>
    <g id="ytick_6">
     <g id="line2d_12">
      <g>
       <use xlink:href="#mf1c530f356" x="60.104088" y="45.184064" style="fill: #222222; stroke: #222222; stroke-width: 0.8"/>
      </g>
     </g>
     <g id="text_13">
      <text style="font-size: 7px; font-family: 'Arial', 'Helvetica', 'DejaVu Sans', sans-serif; text-anchor: end; fill: #222222" x="53.604088" y="47.843517" transform="rotate(-0 53.604088 47.843517)">10</text>
     </g>
    </g>
    <g id="ytick_7">
     <g id="line2d_13">
      <g>
       <use xlink:href="#mf1c530f356" x="60.104088" y="27.981786" style="fill: #222222; stroke: #222222; stroke-width: 0.8"/>
      </g>
     </g>
     <g id="text_14">
      <text style="font-size: 7px; font-family: 'Arial', 'Helvetica', 'DejaVu Sans', sans-serif; text-anchor: end; fill: #222222" x="53.604088" y="30.641239" transform="rotate(-0 53.604088 30.641239)">12</text>
     </g>
    </g>
    <g id="ytick_8">
     <g id="line2d_14">
      <g>
       <use xlink:href="#mf1c530f356" x="60.104088" y="10.779508" style="fill: #222222; stroke: #222222; stroke-width: 0.8"/>
      </g>
     </g>
     <g id="text_15">
      <text style="font-size: 7px; font-family: 'Arial', 'Helvetica', 'DejaVu Sans', sans-serif; text-anchor: end; fill: #222222" x="53.604088" y="13.438961" transform="rotate(-0 53.604088 13.438961)">14</text>
     </g>
    </g>
    <g id="text_16">
     <!-- $d$ -->
     <g transform="translate(18.72 55.712625)">
      <text>
       <tspan x="0" y="-0.671875" style="font-size: 12px; font-family: 'cmmi10'">d</tspan>
      </text>
     </g>
     <!-- $(\mathrm{mm})$ -->
     <g transform="translate(7.2 69.15)">
      <text>
       <tspan x="0" y="-0" style="font-size: 12px; font-family: 'cmr10'">(</tspan>
       <tspan x="4.658203" y="-0" style="font-size: 12px; font-family: 'cmr10'">m</tspan>
       <tspan x="14.654297" y="-0" style="font-size: 12px; font-family: 'cmr10'">m</tspan>
       <tspan x="24.650391" y="-0" style="font-size: 12px; font-family: 'cmr10'">)</tspan>
      </text>
     </g>
    </g>
   </g>
   <g id="line2d_15">
    <path d="M 60.104088 131.195455 
L 66.95453 87.42494 
L 73.913663 115.001001 
L 79.66927 116.994411 
L 84.964048 117.55685 
L 91.23631 103.968002 
L 96.221845 114.835008 
L 101.896998 119.363124 
L 107.601992 109.509089 
L 112.730259 84.974651 
L 119.611972 23.500084 
L 133.562291 26.018714 
L 140.717437 83.583684 
L 145.78998 105.469284 
L 152.066814 111.843048 
L 157.647755 113.285096 
L 162.781676 118.6899 
L 169.361033 109.145287 
L 174.534047 109.369688 
L 180.997031 106.638656 
L 187.84258 80.145744 
L 195.549988 14.806266 
L 208.958835 16.467184 
L 216.900097 83.526033 
L 223.450594 108.475523 
L 229.726938 112.34255 
L 234.884012 113.718041 
L 241.288352 116.239259 
L 246.392485 110.323781 
L 252.588946 115.910333 
L 258.186854 104.592002 
L 264.226321 77.204366 
L 269.857143 32.124654 
L 282.991527 30.119078 
L 288.644796 79.154125 
L 295.718423 114.150877 
L 300.648856 112.486586 
L 305.953513 116.226495 
L 311.257461 111.425648 
L 317.664987 115.863233 
L 322.869327 111.368545 
L 329.364617 102.091588 
L 335.078342 77.285457 
L 342.077542 18.592408 
L 356.905023 13.104545 
L 364.30893 77.991449 
L 371.236595 112.028578 
L 377.79051 105.162976 
L 384.129187 108.23567 
L 389.871714 114.87085 
L 395.597757 123.227492 
L 401.629152 88.581972 
L 407.413978 131.195455 
" clip-path="url(#p4dcb41f42c)" style="fill: none; stroke-dasharray: 4.625,2; stroke-dashoffset: 0; stroke: #6c6c6c; stroke-width: 1.25"/>
   </g>
   <g id="line2d_16">
    <path d="M 60.104088 110.816704 
L 66.95453 108.550755 
L 73.913663 105.324032 
L 79.66927 114.305488 
L 84.964048 126.55159 
L 91.23631 93.397414 
L 96.221845 94.927756 
L 101.896998 97.38571 
L 107.601992 112.3825 
L 112.730259 111.331924 
L 119.611972 45.161334 
L 133.562291 61.476048 
L 140.717437 114.893958 
L 145.78998 113.409714 
L 152.066814 103.1172 
L 157.647755 98.74579 
L 162.781676 106.782609 
L 169.361033 99.448509 
L 174.534047 103.944404 
L 180.997031 109.918237 
L 187.84258 109.924015 
L 195.549988 57.193487 
L 208.958835 78.791138 
L 216.900097 118.08961 
L 223.450594 110.446086 
L 229.726938 113.560083 
L 234.884012 112.281429 
L 241.288352 118.489087 
L 246.392485 114.877435 
L 252.588946 112.911812 
L 258.186854 107.342322 
L 264.226321 93.143394 
L 269.857143 65.506351 
L 282.991527 70.669025 
L 288.644796 94.992239 
L 295.718423 104.32535 
L 300.648856 106.252585 
L 305.953513 119.39191 
L 311.257461 123.069799 
L 317.664987 117.871624 
L 322.869327 112.626438 
L 329.364617 110.273227 
L 335.078342 114.411291 
L 342.077542 88.950575 
L 356.905023 61.572049 
L 364.30893 115.073369 
L 371.236595 110.15375 
L 377.79051 100.699411 
L 384.129187 118.139022 
L 389.871714 123.71418 
L 395.597757 113.145917 
L 401.629152 117.686086 
L 407.413978 119.155182 
" clip-path="url(#p4dcb41f42c)" style="fill: none; stroke-dasharray: 4.995,2.16; stroke-dashoffset: 0; stroke: #4c78a8; stroke-width: 1.35"/>
   </g>
   <g id="line2d_17">
    <path d="M 60.104088 131.195455 
L 66.95453 131.195455 
L 73.913663 117.543512 
L 79.66927 117.798237 
L 84.964048 131.195455 
L 91.23631 115.801352 
L 96.221845 131.195455 
L 101.896998 131.195455 
L 107.601992 102.816453 
L 112.730259 74.219877 
L 119.611972 131.195455 
L 133.562291 119.022731 
L 140.717437 72.83451 
L 145.78998 107.250914 
L 152.066814 131.195455 
L 157.647755 131.195455 
L 162.781676 107.389379 
L 169.361033 119.292417 
L 174.534047 131.195455 
L 180.997031 92.595487 
L 187.84258 61.733108 
L 195.549988 131.195455 
L 208.958835 131.195455 
L 216.900097 60.21855 
L 223.450594 104.808302 
L 229.726938 131.195455 
L 234.884012 131.195455 
L 241.288352 119.355003 
L 246.392485 131.195455 
L 252.588946 131.195455 
L 258.186854 95.486341 
L 264.226321 85.355478 
L 269.857143 119.129062 
L 282.991527 94.685609 
L 288.644796 87.794188 
L 295.718423 102.951915 
L 300.648856 131.195455 
L 305.953513 131.195455 
L 311.257461 131.195455 
L 317.664987 114.265712 
L 322.869327 131.195455 
L 329.364617 131.195455 
L 335.078342 93.622921 
L 342.077542 118.731134 
L 356.905023 117.287676 
L 364.30893 88.956536 
L 371.236595 109.462196 
L 377.79051 118.954353 
L 384.129187 104.339324 
L 389.871714 131.195455 
L 395.597757 131.195455 
L 401.629152 113.840598 
L 407.413978 131.195455 
" clip-path="url(#p4dcb41f42c)" style="fill: none; stroke-dasharray: 4.995,2.16; stroke-dashoffset: 0; stroke: #4daf7c; stroke-width: 1.35"/>
   </g>
   <g id="patch_3">
    <path d="M 60.104088 137.1 
L 60.104088 7.2 
" style="fill: none; stroke: #222222; stroke-width: 0.8; stroke-linejoin: miter; stroke-linecap: square"/>
   </g>
   <g id="patch_4">
    <path d="M 60.104088 137.1 
L 407.413978 137.1 
" style="fill: none; stroke: #222222; stroke-width: 0.8; stroke-linejoin: miter; stroke-linecap: square"/>
   </g>
   <g id="legend_1">
    <g id="patch_5">
     <path d="M 327.263197 33.217187 
L 403.913978 33.217187 
Q 404.913978 33.217187 404.913978 32.217187 
L 404.913978 10.7 
Q 404.913978 9.7 403.913978 9.7 
L 327.263197 9.7 
Q 326.263197 9.7 326.263197 10.7 
L 326.263197 32.217187 
Q 326.263197 33.217187 327.263197 33.217187 
z
" style="fill: #ffffff; opacity: 0.8; stroke: #cccccc; stroke-linejoin: miter"/>
    </g>
    <g id="line2d_18">
     <path d="M 328.263197 13.749219 
L 333.263197 13.749219 
L 338.263197 13.749219 
" style="fill: none; stroke-dasharray: 4.625,2; stroke-dashoffset: 0; stroke: #6c6c6c; stroke-width: 1.25"/>
    </g>
    <g id="text_17">
     <text style="font-size: 5px; font-family: 'Arial', 'Helvetica', 'DejaVu Sans', sans-serif; text-anchor: start" x="342.263197" y="15.499219" transform="rotate(-0 342.263197 15.499219)">Moving-average smooth</text>
    </g>
    <g id="line2d_19">
     <path d="M 328.263197 21.088281 
L 333.263197 21.088281 
L 338.263197 21.088281 
" style="fill: none; stroke-dasharray: 4.995,2.16; stroke-dashoffset: 0; stroke: #4c78a8; stroke-width: 1.35"/>
    </g>
    <g id="text_18">
     <text style="font-size: 5px; font-family: 'Arial', 'Helvetica', 'DejaVu Sans', sans-serif; text-anchor: start" x="342.263197" y="22.838281" transform="rotate(-0 342.263197 22.838281)">B-spline</text>
    </g>
    <g id="line2d_20">
     <path d="M 328.263197 28.427344 
L 333.263197 28.427344 
L 338.263197 28.427344 
" style="fill: none; stroke-dasharray: 4.995,2.16; stroke-dashoffset: 0; stroke: #4daf7c; stroke-width: 1.35"/>
    </g>
    <g id="text_19">
     <text style="font-size: 5px; font-family: 'Arial', 'Helvetica', 'DejaVu Sans', sans-serif; text-anchor: start" x="342.263197" y="30.177344" transform="rotate(-0 342.263197 30.177344)">Geodesic optimized</text>
    </g>
   </g>
  </g>
 </g>
 <defs>
  <clipPath id="p4dcb41f42c">
   <rect x="60.104088" y="7.2" width="347.30989" height="129.9"/>
  </clipPath>
 </defs>
</svg>
