<?xml version="1.0" encoding="utf-8" standalone="no"?>
<!DOCTYPE svg PUBLIC "-//W3C//DTD SVG 1.1//EN"
  "http://www.w3.org/Graphics/SVG/1.1/DTD/svg11.dtd">
<svg xmlns:xlink="http://www.w3.org/1999/xlink" width="232.976007pt" height="169.814672pt" viewBox="0 0 232.976007 169.814672" xmlns="http://www.w3.org/2000/svg" version="1.1">
 <metadata>
  <rdf:RDF xmlns:dc="http://purl.org/dc/elements/1.1/" xmlns:cc="http://creativecommons.org/ns#" xmlns:rdf="http://www.w3.org/1999/02/22-rdf-syntax-ns#">
   <cc:Work>
    <dc:type rdf:resource="http://purl.org/dc/dcmitype/StillImage"/>
    <dc:date>2026-07-09T18:27:33.752283</dc:date>
    <dc:format>image/svg+xml</dc:format>
    <dc:creator>
     <cc:Agent>
      <dc:title>Matplotlib v3.10.8, https://matplotlib.org/</dc:title>
     </cc:Agent>
    </dc:creator>
   </cc:Work>
  </rdf:RDF>
 </metadata>
 <defs>
  <style type="text/css">*{stroke-linejoin: round; stroke-linecap: butt}</style>
 </defs>
 <g id="figure_1">
  <g id="patch_1">
   <path d="M 0 169.814672 
L 232.976007 169.814672 
L 232.976007 0 
L 0 0 
z
" style="fill: #ffffff"/>
  </g>
  <g id="axes_1">
   <g id="patch_2">
    <path d="M 49.03583 127.750826 
L 225.776007 127.750826 
L 225.776007 36.634363 
L 49.03583 36.634363 
z
" style="fill: #ffffff"/>
   </g>
   <g id="matplotlib.axis_1">
    <g id="xtick_1">
     <g id="line2d_1">
      <defs>
       <path id="m83ecca4d5a" d="M 0 0 
L 0 3 
" style="stroke: #222222; stroke-width: 0.8"/>
      </defs>
      <g>
       <use xlink:href="#m83ecca4d5a" x="71.128352" y="127.750826" style="fill: #222222; stroke: #222222; stroke-width: 0.8"/>
      </g>
     </g>
     <g id="text_1">
      <text style="font-size: 7px; font-family: 'Arial', 'Helvetica', 'DejaVu Sans', sans-serif; fill: #222222" transform="translate(57.875591 151.347528) rotate(-25)">Original</text>
      <text style="font-size: 7px; font-family: 'Arial', 'Helvetica', 'DejaVu Sans', sans-serif; fill: #222222" transform="translate(59.687482 159.151422) rotate(-25)">(Clinical)</text>
     </g>
    </g>
    <g id="xtick_2">
     <g id="line2d_2">
      <g>
       <use xlink:href="#m83ecca4d5a" x="115.313397" y="127.750826" style="fill: #222222; stroke: #222222; stroke-width: 0.8"/>
      </g>
     </g>
     <g id="text_2">
      <text style="font-size: 7px; font-family: 'Arial', 'Helvetica', 'DejaVu Sans', sans-serif; fill: #222222" transform="translate(103.012754 150.471354) rotate(-25)">Moving</text>
      <text style="font-size: 7px; font-family: 'Arial', 'Helvetica', 'DejaVu Sans', sans-serif; fill: #222222" transform="translate(104.799368 158.287036) rotate(-25)">average</text>
     </g>
    </g>
    <g id="xtick_3">
     <g id="line2d_3">
      <g>
       <use xlink:href="#m83ecca4d5a" x="159.498441" y="127.750826" style="fill: #222222; stroke: #222222; stroke-width: 0.8"/>
      </g>
     </g>
     <g id="text_3">
      <text style="font-size: 7px; font-family: 'Arial', 'Helvetica', 'DejaVu Sans', sans-serif; fill: #222222" transform="translate(147.60315 150.926428) rotate(-25)">B-spline</text>
     </g>
    </g>
    <g id="xtick_4">
     <g id="line2d_4">
      <g>
       <use xlink:href="#m83ecca4d5a" x="203.683485" y="127.750826" style="fill: #222222; stroke: #222222; stroke-width: 0.8"/>
      </g>
     </g>
     <g id="text_4">
      <text style="font-weight: 700; font-size: 7px; font-family: 'Arial', 'Helvetica', 'DejaVu Sans', sans-serif; fill: #222222" transform="translate(186.63117 154.19122) rotate(-25)">Geodesic</text>
      <text style="font-weight: 700; font-size: 7px; font-family: 'Arial', 'Helvetica', 'DejaVu Sans', sans-serif; fill: #222222" transform="translate(194.849666 159.007666) rotate(-25)">(Ours)</text>
     </g>
    </g>
   </g>
   <g id="matplotlib.axis_2">
    <g id="ytick_1">
     <g id="line2d_5">
      <defs>
       <path id="maa2a087615" d="M 0 0 
L -3 0 
" style="stroke: #222222; stroke-width: 0.8"/>
      </defs>
      <g>
       <use xlink:href="#maa2a087615" x="49.03583" y="109.664685" style="fill: #222222; stroke: #222222; stroke-width: 0.8"/>
      </g>
     </g>
     <g id="text_5">
      <text style="font-size: 7px; font-family: 'Arial', 'Helvetica', 'DejaVu Sans', sans-serif; text-anchor: end; fill: #222222" x="42.53583" y="112.324138" transform="rotate(-0 42.53583 112.324138)">2</text>
     </g>
    </g>
    <g id="ytick_2">
     <g id="line2d_6">
      <g>
       <use xlink:href="#maa2a087615" x="49.03583" y="84.170359" style="fill: #222222; stroke: #222222; stroke-width: 0.8"/>
      </g>
     </g>
     <g id="text_6">
      <text style="font-size: 7px; font-family: 'Arial', 'Helvetica', 'DejaVu Sans', sans-serif; text-anchor: end; fill: #222222" x="42.53583" y="86.829812" transform="rotate(-0 42.53583 86.829812)">4</text>
     </g>
    </g>
    <g id="ytick_3">
     <g id="line2d_7">
      <g>
       <use xlink:href="#maa2a087615" x="49.03583" y="58.676033" style="fill: #222222; stroke: #222222; stroke-width: 0.8"/>
      </g>
     </g>
     <g id="text_7">
      <text style="font-size: 7px; font-family: 'Arial', 'Helvetica', 'DejaVu Sans', sans-serif; text-anchor: end; fill: #222222" x="42.53583" y="61.335486" transform="rotate(-0 42.53583 61.335486)">6</text>
     </g>
    </g>
    <g id="text_8">
     <!-- $\max$ -->
     <g transform="translate(10.62 57.804563)">
      <text>
       <tspan x="0" y="-0.96875" style="font-size: 9px; font-family: 'cmr10'">m</tspan>
       <tspan x="7.49707" y="-0.96875" style="font-size: 9px; font-family: 'cmr10'">a</tspan>
       <tspan x="11.99707" y="-0.96875" style="font-size: 9px; font-family: 'cmr10'">x</tspan>
      </text>
     </g>
     <!-- $|\kappa_g|$ -->
     <g transform="translate(12.105 67.882594)">
      <text>
       <tspan x="0" y="-0.25" style="font-size: 9px; font-family: 'cmsy10'">j</tspan>
       <tspan x="11.256627" y="-0.25" style="font-size: 9px; font-family: 'cmsy10'">j</tspan>
       <tspan x="2.491699" y="-0.25" style="font-size: 9px; font-family: 'cmmi10'">∙</tspan>
       <tspan x="7.677246" y="1.280563" style="font-size: 6.3px; font-family: 'cmmi10'">g</tspan>
      </text>
     </g>
     <!-- $(\mathrm{m}^{-1})$ -->
     <g transform="translate(7.2 79.942594)">
      <text>
       <tspan x="0" y="-0.356234" style="font-size: 9px; font-family: 'cmr10'">(</tspan>
       <tspan x="3.493652" y="-0.356234" style="font-size: 9px; font-family: 'cmr10'">m</tspan>
       <tspan x="20.010646" y="-0.356234" style="font-size: 9px; font-family: 'cmr10'">)</tspan>
       <tspan x="11.392495" y="-3.8" style="font-size: 6.3px; font-family: 'cmsy10'">¡</tspan>
       <tspan x="16.286685" y="-3.8" style="font-size: 6.3px; font-family: 'cmr10'">1</tspan>
      </text>
     </g>
    </g>
    <g id="text_9">
     <text style="font-size: 6.5px; font-family: 'Arial', 'Helvetica', 'DejaVu Sans', sans-serif; text-anchor: start; fill: #222222" x="49.03583" y="33.634363" transform="rotate(-0 49.03583 33.634363)">1e2</text>
    </g>
   </g>
   <g id="patch_3">
    <path d="M 55.663587 107.42046 
L 86.593118 107.42046 
L 86.593118 90.085668 
L 55.663587 90.085668 
L 55.663587 107.42046 
z
" clip-path="url(#pd393a5609d)" style="fill: #d95f5f; opacity: 0.45; stroke: #222222; stroke-width: 0.8; stroke-linejoin: miter"/>
   </g>
   <g id="line2d_8">
    <path d="M 71.128352 107.42046 
L 71.128352 109.882682 
" clip-path="url(#pd393a5609d)" style="fill: none; stroke: #222222; stroke-width: 0.8; stroke-linecap: square"/>
   </g>
   <g id="line2d_9">
    <path d="M 71.128352 90.085668 
L 71.128352 79.977517 
" clip-path="url(#pd393a5609d)" style="fill: none; stroke: #222222; stroke-width: 0.8; stroke-linecap: square"/>
   </g>
   <g id="line2d_10">
    <path d="M 63.39597 109.882682 
L 78.860735 109.882682 
" clip-path="url(#pd393a5609d)" style="fill: none; stroke: #222222; stroke-width: 0.8; stroke-linecap: square"/>
   </g>
   <g id="line2d_11">
    <path d="M 63.39597 79.977517 
L 78.860735 79.977517 
" clip-path="url(#pd393a5609d)" style="fill: none; stroke: #222222; stroke-width: 0.8; stroke-linecap: square"/>
   </g>
   <g id="patch_4">
    <path d="M 99.848631 101.722242 
L 130.778162 101.722242 
L 130.778162 95.653009 
L 99.848631 95.653009 
L 99.848631 101.722242 
z
" clip-path="url(#pd393a5609d)" style="fill: #8c8c8c; opacity: 0.45; stroke: #222222; stroke-width: 0.8; stroke-linejoin: miter"/>
   </g>
   <g id="line2d_12">
    <path d="M 115.313397 101.722242 
L 115.313397 103.548502 
" clip-path="url(#pd393a5609d)" style="fill: none; stroke: #222222; stroke-width: 0.8; stroke-linecap: square"/>
   </g>
   <g id="line2d_13">
    <path d="M 115.313397 95.653009 
L 115.313397 89.322724 
" clip-path="url(#pd393a5609d)" style="fill: none; stroke: #222222; stroke-width: 0.8; stroke-linecap: square"/>
   </g>
   <g id="line2d_14">
    <path d="M 107.581014 103.548502 
L 123.045779 103.548502 
" clip-path="url(#pd393a5609d)" style="fill: none; stroke: #222222; stroke-width: 0.8; stroke-linecap: square"/>
   </g>
   <g id="line2d_15">
    <path d="M 107.581014 89.322724 
L 123.045779 89.322724 
" clip-path="url(#pd393a5609d)" style="fill: none; stroke: #222222; stroke-width: 0.8; stroke-linecap: square"/>
   </g>
   <g id="patch_5">
    <path d="M 144.033675 92.542554 
L 174.963206 92.542554 
L 174.963206 74.715291 
L 144.033675 74.715291 
L 144.033675 92.542554 
z
" clip-path="url(#pd393a5609d)" style="fill: #4c78a8; opacity: 0.45; stroke: #222222; stroke-width: 0.8; stroke-linejoin: miter"/>
   </g>
   <g id="line2d_16">
    <path d="M 159.498441 92.542554 
L 159.498441 109.833957 
" clip-path="url(#pd393a5609d)" style="fill: none; stroke: #222222; stroke-width: 0.8; stroke-linecap: square"/>
   </g>
   <g id="line2d_17">
    <path d="M 159.498441 74.715291 
L 159.498441 69.843207 
" clip-path="url(#pd393a5609d)" style="fill: none; stroke: #222222; stroke-width: 0.8; stroke-linecap: square"/>
   </g>
   <g id="line2d_18">
    <path d="M 151.766058 109.833957 
L 167.230824 109.833957 
" clip-path="url(#pd393a5609d)" style="fill: none; stroke: #222222; stroke-width: 0.8; stroke-linecap: square"/>
   </g>
   <g id="line2d_19">
    <path d="M 151.766058 69.843207 
L 167.230824 69.843207 
" clip-path="url(#pd393a5609d)" style="fill: none; stroke: #222222; stroke-width: 0.8; stroke-linecap: square"/>
   </g>
   <g id="patch_6">
    <path d="M 188.21872 120.576907 
L 219.148251 120.576907 
L 219.148251 118.246371 
L 188.21872 118.246371 
L 188.21872 120.576907 
z
" clip-path="url(#pd393a5609d)" style="fill: #4daf7c; opacity: 0.45; stroke: #222222; stroke-width: 0.8; stroke-linejoin: miter"/>
   </g>
   <g id="line2d_20">
    <path d="M 203.683485 120.576907 
L 203.683485 123.609168 
" clip-path="url(#pd393a5609d)" style="fill: none; stroke: #222222; stroke-width: 0.8; stroke-linecap: square"/>
   </g>
   <g id="line2d_21">
    <path d="M 203.683485 118.246371 
L 203.683485 117.148732 
" clip-path="url(#pd393a5609d)" style="fill: none; stroke: #222222; stroke-width: 0.8; stroke-linecap: square"/>
   </g>
   <g id="line2d_22">
    <path d="M 195.951102 123.609168 
L 211.415868 123.609168 
" clip-path="url(#pd393a5609d)" style="fill: none; stroke: #222222; stroke-width: 0.8; stroke-linecap: square"/>
   </g>
   <g id="line2d_23">
    <path d="M 195.951102 117.148732 
L 211.415868 117.148732 
" clip-path="url(#pd393a5609d)" style="fill: none; stroke: #222222; stroke-width: 0.8; stroke-linecap: square"/>
   </g>
   <g id="line2d_24">
    <path d="M 71.128352 33.445287 
L 71.128352 31.167375 
L 203.683485 31.167375 
L 203.683485 33.445287 
" style="fill: none; stroke: #222222; stroke-width: 0.72; stroke-linecap: square"/>
   </g>
   <g id="line2d_25">
    <path d="M 115.313397 24.789223 
L 115.313397 22.511311 
L 203.683485 22.511311 
L 203.683485 24.789223 
" style="fill: none; stroke: #222222; stroke-width: 0.72; stroke-linecap: square"/>
   </g>
   <g id="line2d_26">
    <path d="M 159.498441 16.133159 
L 159.498441 13.855247 
L 203.683485 13.855247 
L 203.683485 16.133159 
" style="fill: none; stroke: #222222; stroke-width: 0.72; stroke-linecap: square"/>
   </g>
   <g id="line2d_27">
    <path d="M 55.663587 103.747512 
L 86.593118 103.747512 
" clip-path="url(#pd393a5609d)" style="fill: none; stroke: #222222"/>
   </g>
   <g id="line2d_28">
    <path d="M 99.848631 99.406085 
L 130.778162 99.406085 
" clip-path="url(#pd393a5609d)" style="fill: none; stroke: #222222"/>
   </g>
   <g id="line2d_29">
    <path d="M 144.033675 83.283423 
L 174.963206 83.283423 
" clip-path="url(#pd393a5609d)" style="fill: none; stroke: #222222"/>
   </g>
   <g id="line2d_30">
    <path d="M 188.21872 119.935196 
L 219.148251 119.935196 
" clip-path="url(#pd393a5609d)" style="fill: none; stroke: #222222"/>
   </g>
   <g id="patch_7">
    <path d="M 49.03583 127.750826 
L 49.03583 36.634363 
" style="fill: none; stroke: #222222; stroke-width: 0.8; stroke-linejoin: miter; stroke-linecap: square"/>
   </g>
   <g id="patch_8">
    <path d="M 49.03583 127.750826 
L 225.776007 127.750826 
" style="fill: none; stroke: #222222; stroke-width: 0.8; stroke-linejoin: miter; stroke-linecap: square"/>
   </g>
   <g id="PathCollection_1">
    <defs>
     <path id="me63e98e7cd" d="M 0 1.414214 
C 0.375054 1.414214 0.734797 1.265203 1 1 
C 1.265203 0.734797 1.414214 0.375054 1.414214 0 
C 1.414214 -0.375054 1.265203 -0.734797 1 -1 
C 0.734797 -1.265203 0.375054 -1.414214 0 -1.414214 
C -0.375054 -1.414214 -0.734797 -1.265203 -1 -1 
C -1.265203 -0.734797 -1.414214 -0.375054 -1.414214 0 
C -1.414214 0.375054 -1.265203 0.734797 -1 1 
C -0.734797 1.265203 -0.375054 1.414214 0 1.414214 
z
"/>
    </defs>
    <g clip-path="url(#pd393a5609d)">
     <use xlink:href="#me63e98e7cd" x="71.295014" y="108.45902" style="fill: #d95f5f; fill-opacity: 0.72"/>
     <use xlink:href="#me63e98e7cd" x="70.95324" y="108.650182" style="fill: #d95f5f; fill-opacity: 0.72"/>
     <use xlink:href="#me63e98e7cd" x="71.977265" y="104.454979" style="fill: #d95f5f; fill-opacity: 0.72"/>
     <use xlink:href="#me63e98e7cd" x="71.267403" y="106.685128" style="fill: #d95f5f; fill-opacity: 0.72"/>
     <use xlink:href="#me63e98e7cd" x="70.418295" y="87.233892" style="fill: #d95f5f; fill-opacity: 0.72"/>
     <use xlink:href="#me63e98e7cd" x="71.607665" y="103.747512" style="fill: #d95f5f; fill-opacity: 0.72"/>
     <use xlink:href="#me63e98e7cd" x="72.856871" y="92.937444" style="fill: #d95f5f; fill-opacity: 0.72"/>
     <use xlink:href="#me63e98e7cd" x="72.383757" y="54.856712" style="fill: #d95f5f; fill-opacity: 0.72"/>
     <use xlink:href="#me63e98e7cd" x="70.195515" y="109.882682" style="fill: #d95f5f; fill-opacity: 0.72"/>
     <use xlink:href="#me63e98e7cd" x="69.450971" y="103.71141" style="fill: #d95f5f; fill-opacity: 0.72"/>
     <use xlink:href="#me63e98e7cd" x="70.30217" y="51.792691" style="fill: #d95f5f; fill-opacity: 0.72"/>
     <use xlink:href="#me63e98e7cd" x="71.183132" y="105.74503" style="fill: #d95f5f; fill-opacity: 0.72"/>
     <use xlink:href="#me63e98e7cd" x="68.046405" y="109.872766" style="fill: #d95f5f; fill-opacity: 0.72"/>
     <use xlink:href="#me63e98e7cd" x="70.838333" y="108.155791" style="fill: #d95f5f; fill-opacity: 0.72"/>
     <use xlink:href="#me63e98e7cd" x="69.476833" y="104.977796" style="fill: #d95f5f; fill-opacity: 0.72"/>
     <use xlink:href="#me63e98e7cd" x="70.157694" y="79.977517" style="fill: #d95f5f; fill-opacity: 0.72"/>
     <use xlink:href="#me63e98e7cd" x="70.406909" y="99.423661" style="fill: #d95f5f; fill-opacity: 0.72"/>
     <use xlink:href="#me63e98e7cd" x="70.70908" y="94.714839" style="fill: #d95f5f; fill-opacity: 0.72"/>
     <use xlink:href="#me63e98e7cd" x="71.67399" y="60.035885" style="fill: #d95f5f; fill-opacity: 0.72"/>
    </g>
   </g>
   <g id="PathCollection_2">
    <defs>
     <path id="ma8b96189b4" d="M 0 1.414214 
C 0.375054 1.414214 0.734797 1.265203 1 1 
C 1.265203 0.734797 1.414214 0.375054 1.414214 0 
C 1.414214 -0.375054 1.265203 -0.734797 1 -1 
C 0.734797 -1.265203 0.375054 -1.414214 0 -1.414214 
C -0.375054 -1.414214 -0.734797 -1.265203 -1 -1 
C -1.265203 -0.734797 -1.414214 -0.375054 -1.414214 0 
C -1.414214 0.375054 -1.265203 0.734797 -1 1 
C -0.734797 1.265203 -0.375054 1.414214 0 1.414214 
z
"/>
    </defs>
    <g clip-path="url(#pd393a5609d)">
     <use xlink:href="#ma8b96189b4" x="116.695302" y="99.149371" style="fill: #8c8c8c; fill-opacity: 0.72"/>
     <use xlink:href="#ma8b96189b4" x="115.143017" y="101.933528" style="fill: #8c8c8c; fill-opacity: 0.72"/>
     <use xlink:href="#ma8b96189b4" x="117.124714" y="102.17989" style="fill: #8c8c8c; fill-opacity: 0.72"/>
     <use xlink:href="#ma8b96189b4" x="114.431647" y="102.328614" style="fill: #8c8c8c; fill-opacity: 0.72"/>
     <use xlink:href="#ma8b96189b4" x="115.779341" y="99.027051" style="fill: #8c8c8c; fill-opacity: 0.72"/>
     <use xlink:href="#ma8b96189b4" x="116.510993" y="99.406085" style="fill: #8c8c8c; fill-opacity: 0.72"/>
     <use xlink:href="#ma8b96189b4" x="115.438015" y="100.740816" style="fill: #8c8c8c; fill-opacity: 0.72"/>
     <use xlink:href="#ma8b96189b4" x="114.32785" y="101.587783" style="fill: #8c8c8c; fill-opacity: 0.72"/>
     <use xlink:href="#ma8b96189b4" x="114.091602" y="103.548502" style="fill: #8c8c8c; fill-opacity: 0.72"/>
     <use xlink:href="#ma8b96189b4" x="114.706657" y="101.856701" style="fill: #8c8c8c; fill-opacity: 0.72"/>
     <use xlink:href="#ma8b96189b4" x="115.605276" y="67.559982" style="fill: #8c8c8c; fill-opacity: 0.72"/>
     <use xlink:href="#ma8b96189b4" x="113.975096" y="98.34172" style="fill: #8c8c8c; fill-opacity: 0.72"/>
     <use xlink:href="#ma8b96189b4" x="115.036124" y="99.621611" style="fill: #8c8c8c; fill-opacity: 0.72"/>
     <use xlink:href="#ma8b96189b4" x="115.102336" y="101.29979" style="fill: #8c8c8c; fill-opacity: 0.72"/>
     <use xlink:href="#ma8b96189b4" x="116.030315" y="90.29501" style="fill: #8c8c8c; fill-opacity: 0.72"/>
     <use xlink:href="#ma8b96189b4" x="115.597938" y="94.334875" style="fill: #8c8c8c; fill-opacity: 0.72"/>
     <use xlink:href="#ma8b96189b4" x="115.784461" y="96.971143" style="fill: #8c8c8c; fill-opacity: 0.72"/>
     <use xlink:href="#ma8b96189b4" x="114.446713" y="89.322724" style="fill: #8c8c8c; fill-opacity: 0.72"/>
     <use xlink:href="#ma8b96189b4" x="115.141587" y="40.77602" style="fill: #8c8c8c; fill-opacity: 0.72"/>
    </g>
   </g>
   <g id="PathCollection_3">
    <defs>
     <path id="mf8518caabf" d="M 0 1.414214 
C 0.375054 1.414214 0.734797 1.265203 1 1 
C 1.265203 0.734797 1.414214 0.375054 1.414214 0 
C 1.414214 -0.375054 1.265203 -0.734797 1 -1 
C 0.734797 -1.265203 0.375054 -1.414214 0 -1.414214 
C -0.375054 -1.414214 -0.734797 -1.265203 -1 -1 
C -1.265203 -0.734797 -1.414214 -0.375054 -1.414214 0 
C -1.414214 0.375054 -1.265203 0.734797 -1 1 
C -0.734797 1.265203 -0.375054 1.414214 0 1.414214 
z
"/>
    </defs>
    <g clip-path="url(#pd393a5609d)">
     <use xlink:href="#mf8518caabf" x="160.537641" y="78.709369" style="fill: #4c78a8; fill-opacity: 0.72"/>
     <use xlink:href="#mf8518caabf" x="161.47806" y="99.347068" style="fill: #4c78a8; fill-opacity: 0.72"/>
     <use xlink:href="#mf8518caabf" x="157.829485" y="100.151764" style="fill: #4c78a8; fill-opacity: 0.72"/>
     <use xlink:href="#mf8518caabf" x="161.505225" y="76.822819" style="fill: #4c78a8; fill-opacity: 0.72"/>
     <use xlink:href="#mf8518caabf" x="161.282468" y="95.387777" style="fill: #4c78a8; fill-opacity: 0.72"/>
     <use xlink:href="#mf8518caabf" x="160.534109" y="71.039765" style="fill: #4c78a8; fill-opacity: 0.72"/>
     <use xlink:href="#mf8518caabf" x="159.84899" y="72.684962" style="fill: #4c78a8; fill-opacity: 0.72"/>
     <use xlink:href="#mf8518caabf" x="159.08232" y="83.283423" style="fill: #4c78a8; fill-opacity: 0.72"/>
     <use xlink:href="#mf8518caabf" x="161.431122" y="78.446234" style="fill: #4c78a8; fill-opacity: 0.72"/>
     <use xlink:href="#mf8518caabf" x="162.096864" y="69.843207" style="fill: #4c78a8; fill-opacity: 0.72"/>
     <use xlink:href="#mf8518caabf" x="161.8866" y="87.551887" style="fill: #4c78a8; fill-opacity: 0.72"/>
     <use xlink:href="#mf8518caabf" x="161.241678" y="109.833957" style="fill: #4c78a8; fill-opacity: 0.72"/>
     <use xlink:href="#mf8518caabf" x="159.972167" y="91.479452" style="fill: #4c78a8; fill-opacity: 0.72"/>
     <use xlink:href="#mf8518caabf" x="157.896752" y="91.864886" style="fill: #4c78a8; fill-opacity: 0.72"/>
     <use xlink:href="#mf8518caabf" x="159.492537" y="93.220221" style="fill: #4c78a8; fill-opacity: 0.72"/>
     <use xlink:href="#mf8518caabf" x="160.368632" y="88.248009" style="fill: #4c78a8; fill-opacity: 0.72"/>
     <use xlink:href="#mf8518caabf" x="157.790652" y="46.329656" style="fill: #4c78a8; fill-opacity: 0.72"/>
     <use xlink:href="#mf8518caabf" x="160.022195" y="46.314424" style="fill: #4c78a8; fill-opacity: 0.72"/>
     <use xlink:href="#mf8518caabf" x="160.068247" y="76.745621" style="fill: #4c78a8; fill-opacity: 0.72"/>
    </g>
   </g>
   <g id="PathCollection_4">
    <defs>
     <path id="mec49be93b2" d="M 0 1.414214 
C 0.375054 1.414214 0.734797 1.265203 1 1 
C 1.265203 0.734797 1.414214 0.375054 1.414214 0 
C 1.414214 -0.375054 1.265203 -0.734797 1 -1 
C 0.734797 -1.265203 0.375054 -1.414214 0 -1.414214 
C -0.375054 -1.414214 -0.734797 -1.265203 -1 -1 
C -1.265203 -0.734797 -1.414214 -0.375054 -1.414214 0 
C -1.414214 0.375054 -1.265203 0.734797 -1 1 
C -0.734797 1.265203 -0.375054 1.414214 0 1.414214 
z
"/>
    </defs>
    <g clip-path="url(#pd393a5609d)">
     <use xlink:href="#mec49be93b2" x="204.606125" y="119.935196" style="fill: #4daf7c; fill-opacity: 0.72"/>
     <use xlink:href="#mec49be93b2" x="202.113876" y="118.149718" style="fill: #4daf7c; fill-opacity: 0.72"/>
     <use xlink:href="#mec49be93b2" x="202.806364" y="118.020671" style="fill: #4daf7c; fill-opacity: 0.72"/>
     <use xlink:href="#mec49be93b2" x="203.104968" y="117.148732" style="fill: #4daf7c; fill-opacity: 0.72"/>
     <use xlink:href="#mec49be93b2" x="202.132853" y="118.343024" style="fill: #4daf7c; fill-opacity: 0.72"/>
     <use xlink:href="#mec49be93b2" x="205.989107" y="120.652402" style="fill: #4daf7c; fill-opacity: 0.72"/>
     <use xlink:href="#mec49be93b2" x="203.02613" y="119.865554" style="fill: #4daf7c; fill-opacity: 0.72"/>
     <use xlink:href="#mec49be93b2" x="204.119551" y="111.912245" style="fill: #4daf7c; fill-opacity: 0.72"/>
     <use xlink:href="#mec49be93b2" x="203.340734" y="120.432951" style="fill: #4daf7c; fill-opacity: 0.72"/>
     <use xlink:href="#mec49be93b2" x="205.78246" y="119.732882" style="fill: #4daf7c; fill-opacity: 0.72"/>
     <use xlink:href="#mec49be93b2" x="205.433691" y="120.406096" style="fill: #4daf7c; fill-opacity: 0.72"/>
     <use xlink:href="#mec49be93b2" x="204.523027" y="117.516874" style="fill: #4daf7c; fill-opacity: 0.72"/>
     <use xlink:href="#mec49be93b2" x="200.76262" y="119.232066" style="fill: #4daf7c; fill-opacity: 0.72"/>
     <use xlink:href="#mec49be93b2" x="203.752452" y="120.501413" style="fill: #4daf7c; fill-opacity: 0.72"/>
     <use xlink:href="#mec49be93b2" x="204.589746" y="120.21369" style="fill: #4daf7c; fill-opacity: 0.72"/>
     <use xlink:href="#mec49be93b2" x="205.014288" y="121.429969" style="fill: #4daf7c; fill-opacity: 0.72"/>
     <use xlink:href="#mec49be93b2" x="202.864418" y="123.609168" style="fill: #4daf7c; fill-opacity: 0.72"/>
     <use xlink:href="#mec49be93b2" x="206.098655" y="120.87745" style="fill: #4daf7c; fill-opacity: 0.72"/>
     <use xlink:href="#mec49be93b2" x="201.933186" y="120.757068" style="fill: #4daf7c; fill-opacity: 0.72"/>
    </g>
   </g>
   <g id="text_10">
    <text style="font-size: 6.5px; font-family: 'Arial', 'Helvetica', 'DejaVu Sans', sans-serif; text-anchor: middle; fill: #222222" x="137.405919" y="29.451112" transform="rotate(-0 137.405919 29.451112)">****</text>
   </g>
   <g id="text_11">
    <text style="font-size: 6.5px; font-family: 'Arial', 'Helvetica', 'DejaVu Sans', sans-serif; text-anchor: middle; fill: #222222" x="159.498441" y="20.795048" transform="rotate(-0 159.498441 20.795048)">****</text>
   </g>
   <g id="text_12">
    <text style="font-size: 6.5px; font-family: 'Arial', 'Helvetica', 'DejaVu Sans', sans-serif; text-anchor: middle; fill: #222222" x="181.590963" y="12.138984" transform="rotate(-0 181.590963 12.138984)">****</text>
   </g>
  </g>
 </g>
 <defs>
  <clipPath id="pd393a5609d">
   <rect x="49.03583" y="36.634363" width="176.740177" height="91.116463"/>
  </clipPath>
 </defs>
</svg>
