<?xml version="1.0" encoding="utf-8" standalone="no"?>
<!DOCTYPE svg PUBLIC "-//W3C//DTD SVG 1.1//EN"
  "http://www.w3.org/Graphics/SVG/1.1/DTD/svg11.dtd">
<svg xmlns:xlink="http://www.w3.org/1999/xlink" width="233.101876pt" height="176.724372pt" viewBox="0 0 233.101876 176.724372" xmlns="http://www.w3.org/2000/svg" version="1.1">
 <metadata>
  <rdf:RDF xmlns:dc="http://purl.org/dc/elements/1.1/" xmlns:cc="http://creativecommons.org/ns#" xmlns:rdf="http://www.w3.org/1999/02/22-rdf-syntax-ns#">
   <cc:Work>
    <dc:type rdf:resource="http://purl.org/dc/dcmitype/StillImage"/>
    <dc:date>2026-07-09T18:27:34.046070</dc:date>
    <dc:format>image/svg+xml</dc:format>
    <dc:creator>
     <cc:Agent>
      <dc:title>Matplotlib v3.10.8, https://matplotlib.org/</dc:title>
     </cc:Agent>
    </dc:creator>
   </cc:Work>
  </rdf:RDF>
 </metadata>
 <defs>
  <style type="text/css">*{stroke-linejoin: round; stroke-linecap: butt}</style>
 </defs>
 <g id="figure_1">
  <g id="patch_1">
   <path d="M 0 176.724372 
L 233.101876 176.724372 
L 233.101876 0 
L 0 0 
z
" style="fill: #ffffff"/>
  </g>
  <g id="axes_1">
   <g id="patch_2">
    <path d="M 48.400273 134.660526 
L 225.901876 134.660526 
L 225.901876 30.113723 
L 48.400273 30.113723 
z
" style="fill: #ffffff"/>
   </g>
   <g id="matplotlib.axis_1">
    <g id="xtick_1">
     <g id="line2d_1">
      <defs>
       <path id="m394aa78b99" d="M 0 0 
L 0 3 
" style="stroke: #222222; stroke-width: 0.8"/>
      </defs>
      <g>
       <use xlink:href="#m394aa78b99" x="77.983873" y="134.660526" style="fill: #222222; stroke: #222222; stroke-width: 0.8"/>
      </g>
     </g>
     <g id="text_1">
      <text style="font-size: 7px; font-family: 'Arial', 'Helvetica', 'DejaVu Sans', sans-serif; fill: #222222" transform="translate(65.683231 157.381054) rotate(-25)">Moving</text>
      <text style="font-size: 7px; font-family: 'Arial', 'Helvetica', 'DejaVu Sans', sans-serif; fill: #222222" transform="translate(67.469844 165.196736) rotate(-25)">average</text>
     </g>
    </g>
    <g id="xtick_2">
     <g id="line2d_2">
      <g>
       <use xlink:href="#m394aa78b99" x="137.151074" y="134.660526" style="fill: #222222; stroke: #222222; stroke-width: 0.8"/>
      </g>
     </g>
     <g id="text_2">
      <text style="font-size: 7px; font-family: 'Arial', 'Helvetica', 'DejaVu Sans', sans-serif; fill: #222222" transform="translate(125.255784 157.836128) rotate(-25)">B-spline</text>
     </g>
    </g>
    <g id="xtick_3">
     <g id="line2d_3">
      <g>
       <use xlink:href="#m394aa78b99" x="196.318276" y="134.660526" style="fill: #222222; stroke: #222222; stroke-width: 0.8"/>
      </g>
     </g>
     <g id="text_3">
      <text style="font-weight: 700; font-size: 7px; font-family: 'Arial', 'Helvetica', 'DejaVu Sans', sans-serif; fill: #222222" transform="translate(179.265961 161.100921) rotate(-25)">Geodesic</text>
      <text style="font-weight: 700; font-size: 7px; font-family: 'Arial', 'Helvetica', 'DejaVu Sans', sans-serif; fill: #222222" transform="translate(187.484456 165.917366) rotate(-25)">(Ours)</text>
     </g>
    </g>
   </g>
   <g id="matplotlib.axis_2">
    <g id="ytick_1">
     <g id="line2d_4">
      <defs>
       <path id="md1ccbc613f" d="M 0 0 
L -3 0 
" style="stroke: #222222; stroke-width: 0.8"/>
      </defs>
      <g>
       <use xlink:href="#md1ccbc613f" x="48.400273" y="120.399387" style="fill: #222222; stroke: #222222; stroke-width: 0.8"/>
      </g>
     </g>
     <g id="text_4">
      <text style="font-size: 7px; font-family: 'Arial', 'Helvetica', 'DejaVu Sans', sans-serif; text-anchor: end; fill: #222222" x="41.900273" y="123.05884" transform="rotate(-0 41.900273 123.05884)">2</text>
     </g>
    </g>
    <g id="ytick_2">
     <g id="line2d_5">
      <g>
       <use xlink:href="#md1ccbc613f" x="48.400273" y="100.833116" style="fill: #222222; stroke: #222222; stroke-width: 0.8"/>
      </g>
     </g>
     <g id="text_5">
      <text style="font-size: 7px; font-family: 'Arial', 'Helvetica', 'DejaVu Sans', sans-serif; text-anchor: end; fill: #222222" x="41.900273" y="103.492569" transform="rotate(-0 41.900273 103.492569)">3</text>
     </g>
    </g>
    <g id="ytick_3">
     <g id="line2d_6">
      <g>
       <use xlink:href="#md1ccbc613f" x="48.400273" y="81.266845" style="fill: #222222; stroke: #222222; stroke-width: 0.8"/>
      </g>
     </g>
     <g id="text_6">
      <text style="font-size: 7px; font-family: 'Arial', 'Helvetica', 'DejaVu Sans', sans-serif; text-anchor: end; fill: #222222" x="41.900273" y="83.926298" transform="rotate(-0 41.900273 83.926298)">4</text>
     </g>
    </g>
    <g id="ytick_4">
     <g id="line2d_7">
      <g>
       <use xlink:href="#md1ccbc613f" x="48.400273" y="61.700575" style="fill: #222222; stroke: #222222; stroke-width: 0.8"/>
      </g>
     </g>
     <g id="text_7">
      <text style="font-size: 7px; font-family: 'Arial', 'Helvetica', 'DejaVu Sans', sans-serif; text-anchor: end; fill: #222222" x="41.900273" y="64.360028" transform="rotate(-0 41.900273 64.360028)">5</text>
     </g>
    </g>
    <g id="ytick_5">
     <g id="line2d_8">
      <g>
       <use xlink:href="#md1ccbc613f" x="48.400273" y="42.134304" style="fill: #222222; stroke: #222222; stroke-width: 0.8"/>
      </g>
     </g>
     <g id="text_8">
      <text style="font-size: 7px; font-family: 'Arial', 'Helvetica', 'DejaVu Sans', sans-serif; text-anchor: end; fill: #222222" x="41.900273" y="44.793757" transform="rotate(-0 41.900273 44.793757)">6</text>
     </g>
    </g>
    <g id="text_9">
     <!-- $\bar{d}$ -->
     <g transform="translate(15.84 70.059093)">
      <text>
       <tspan x="0.545044" y="-2.6875" style="font-size: 9px; font-family: 'cmr10'">¹</tspan>
       <tspan x="0" y="-0.3125" style="font-size: 9px; font-family: 'cmmi10'">d</tspan>
      </text>
     </g>
     <!-- $(\mathrm{mm})$ -->
     <g transform="translate(7.2 80.137124)">
      <text>
       <tspan x="0" y="-0.25" style="font-size: 9px; font-family: 'cmr10'">(</tspan>
       <tspan x="3.493652" y="-0.25" style="font-size: 9px; font-family: 'cmr10'">m</tspan>
       <tspan x="10.990723" y="-0.25" style="font-size: 9px; font-family: 'cmr10'">m</tspan>
       <tspan x="18.487793" y="-0.25" style="font-size: 9px; font-family: 'cmr10'">)</tspan>
      </text>
     </g>
    </g>
   </g>
   <g id="patch_3">
    <path d="M 57.275353 74.434055 
L 98.692394 74.434055 
L 98.692394 69.306951 
L 57.275353 69.306951 
L 57.275353 74.434055 
z
" clip-path="url(#pcfca55e70e)" style="fill: #8c8c8c; opacity: 0.45; stroke: #222222; stroke-width: 0.8; stroke-linejoin: miter"/>
   </g>
   <g id="line2d_9">
    <path d="M 77.983873 74.434055 
L 77.983873 82.121554 
" clip-path="url(#pcfca55e70e)" style="fill: none; stroke: #222222; stroke-width: 0.8; stroke-linecap: square"/>
   </g>
   <g id="line2d_10">
    <path d="M 77.983873 69.306951 
L 77.983873 69.303763 
" clip-path="url(#pcfca55e70e)" style="fill: none; stroke: #222222; stroke-width: 0.8; stroke-linecap: square"/>
   </g>
   <g id="line2d_11">
    <path d="M 67.629613 82.121554 
L 88.338133 82.121554 
" clip-path="url(#pcfca55e70e)" style="fill: none; stroke: #222222; stroke-width: 0.8; stroke-linecap: square"/>
   </g>
   <g id="line2d_12">
    <path d="M 67.629613 69.303763 
L 88.338133 69.303763 
" clip-path="url(#pcfca55e70e)" style="fill: none; stroke: #222222; stroke-width: 0.8; stroke-linecap: square"/>
   </g>
   <g id="patch_4">
    <path d="M 116.442554 102.3968 
L 157.859595 102.3968 
L 157.859595 96.447948 
L 116.442554 96.447948 
L 116.442554 102.3968 
z
" clip-path="url(#pcfca55e70e)" style="fill: #4c78a8; opacity: 0.45; stroke: #222222; stroke-width: 0.8; stroke-linejoin: miter"/>
   </g>
   <g id="line2d_13">
    <path d="M 137.151074 102.3968 
L 137.151074 105.694803 
" clip-path="url(#pcfca55e70e)" style="fill: none; stroke: #222222; stroke-width: 0.8; stroke-linecap: square"/>
   </g>
   <g id="line2d_14">
    <path d="M 137.151074 96.447948 
L 137.151074 91.702707 
" clip-path="url(#pcfca55e70e)" style="fill: none; stroke: #222222; stroke-width: 0.8; stroke-linecap: square"/>
   </g>
   <g id="line2d_15">
    <path d="M 126.796814 105.694803 
L 147.505335 105.694803 
" clip-path="url(#pcfca55e70e)" style="fill: none; stroke: #222222; stroke-width: 0.8; stroke-linecap: square"/>
   </g>
   <g id="line2d_16">
    <path d="M 126.796814 91.702707 
L 147.505335 91.702707 
" clip-path="url(#pcfca55e70e)" style="fill: none; stroke: #222222; stroke-width: 0.8; stroke-linecap: square"/>
   </g>
   <g id="patch_5">
    <path d="M 175.609755 125.393326 
L 217.026796 125.393326 
L 217.026796 120.610865 
L 175.609755 120.610865 
L 175.609755 125.393326 
z
" clip-path="url(#pcfca55e70e)" style="fill: #4daf7c; opacity: 0.45; stroke: #222222; stroke-width: 0.8; stroke-linejoin: miter"/>
   </g>
   <g id="line2d_17">
    <path d="M 196.318276 125.393326 
L 196.318276 129.908398 
" clip-path="url(#pcfca55e70e)" style="fill: none; stroke: #222222; stroke-width: 0.8; stroke-linecap: square"/>
   </g>
   <g id="line2d_18">
    <path d="M 196.318276 120.610865 
L 196.318276 119.090894 
" clip-path="url(#pcfca55e70e)" style="fill: none; stroke: #222222; stroke-width: 0.8; stroke-linecap: square"/>
   </g>
   <g id="line2d_19">
    <path d="M 185.964015 129.908398 
L 206.672536 129.908398 
" clip-path="url(#pcfca55e70e)" style="fill: none; stroke: #222222; stroke-width: 0.8; stroke-linecap: square"/>
   </g>
   <g id="line2d_20">
    <path d="M 185.964015 119.090894 
L 206.672536 119.090894 
" clip-path="url(#pcfca55e70e)" style="fill: none; stroke: #222222; stroke-width: 0.8; stroke-linecap: square"/>
   </g>
   <g id="line2d_21">
    <path d="M 77.983873 26.454585 
L 77.983873 23.840915 
L 196.318276 23.840915 
L 196.318276 26.454585 
" style="fill: none; stroke: #222222; stroke-width: 0.72; stroke-linecap: square"/>
   </g>
   <g id="line2d_22">
    <path d="M 137.151074 16.522639 
L 137.151074 13.908968 
L 196.318276 13.908968 
L 196.318276 16.522639 
" style="fill: none; stroke: #222222; stroke-width: 0.72; stroke-linecap: square"/>
   </g>
   <g id="line2d_23">
    <path d="M 57.275353 73.080172 
L 98.692394 73.080172 
" clip-path="url(#pcfca55e70e)" style="fill: none; stroke: #222222"/>
   </g>
   <g id="line2d_24">
    <path d="M 116.442554 100.833116 
L 157.859595 100.833116 
" clip-path="url(#pcfca55e70e)" style="fill: none; stroke: #222222"/>
   </g>
   <g id="line2d_25">
    <path d="M 175.609755 122.451927 
L 217.026796 122.451927 
" clip-path="url(#pcfca55e70e)" style="fill: none; stroke: #222222"/>
   </g>
   <g id="patch_6">
    <path d="M 48.400273 134.660526 
L 48.400273 30.113723 
" style="fill: none; stroke: #222222; stroke-width: 0.8; stroke-linejoin: miter; stroke-linecap: square"/>
   </g>
   <g id="patch_7">
    <path d="M 48.400273 134.660526 
L 225.901876 134.660526 
" style="fill: none; stroke: #222222; stroke-width: 0.8; stroke-linejoin: miter; stroke-linecap: square"/>
   </g>
   <g id="PathCollection_1">
    <defs>
     <path id="m6e247944d6" d="M 0 1.414214 
C 0.375054 1.414214 0.734797 1.265203 1 1 
C 1.265203 0.734797 1.414214 0.375054 1.414214 0 
C 1.414214 -0.375054 1.265203 -0.734797 1 -1 
C 0.734797 -1.265203 0.375054 -1.414214 0 -1.414214 
C -0.375054 -1.414214 -0.734797 -1.265203 -1 -1 
C -1.265203 -0.734797 -1.414214 -0.375054 -1.414214 0 
C -1.414214 0.375054 -1.265203 0.734797 -1 1 
C -0.734797 1.265203 -0.375054 1.414214 0 1.414214 
z
"/>
    </defs>
    <g clip-path="url(#pcfca55e70e)">
     <use xlink:href="#m6e247944d6" x="78.207046" y="82.121554" style="fill: #8c8c8c; fill-opacity: 0.72"/>
     <use xlink:href="#m6e247944d6" x="77.749385" y="72.861904" style="fill: #8c8c8c; fill-opacity: 0.72"/>
     <use xlink:href="#m6e247944d6" x="79.120634" y="74.446471" style="fill: #8c8c8c; fill-opacity: 0.72"/>
     <use xlink:href="#m6e247944d6" x="78.170073" y="75.921012" style="fill: #8c8c8c; fill-opacity: 0.72"/>
     <use xlink:href="#m6e247944d6" x="77.033051" y="72.424609" style="fill: #8c8c8c; fill-opacity: 0.72"/>
     <use xlink:href="#m6e247944d6" x="78.62571" y="74.176251" style="fill: #8c8c8c; fill-opacity: 0.72"/>
     <use xlink:href="#m6e247944d6" x="80.298494" y="60.009932" style="fill: #8c8c8c; fill-opacity: 0.72"/>
     <use xlink:href="#m6e247944d6" x="79.664957" y="61.33746" style="fill: #8c8c8c; fill-opacity: 0.72"/>
     <use xlink:href="#m6e247944d6" x="76.734732" y="73.862311" style="fill: #8c8c8c; fill-opacity: 0.72"/>
     <use xlink:href="#m6e247944d6" x="75.73773" y="73.66092" style="fill: #8c8c8c; fill-opacity: 0.72"/>
     <use xlink:href="#m6e247944d6" x="76.877551" y="74.421638" style="fill: #8c8c8c; fill-opacity: 0.72"/>
     <use xlink:href="#m6e247944d6" x="78.057227" y="73.080172" style="fill: #8c8c8c; fill-opacity: 0.72"/>
     <use xlink:href="#m6e247944d6" x="73.856906" y="52.932792" style="fill: #8c8c8c; fill-opacity: 0.72"/>
     <use xlink:href="#m6e247944d6" x="77.595514" y="69.303763" style="fill: #8c8c8c; fill-opacity: 0.72"/>
     <use xlink:href="#m6e247944d6" x="75.772361" y="78.329899" style="fill: #8c8c8c; fill-opacity: 0.72"/>
     <use xlink:href="#m6e247944d6" x="76.684087" y="34.86585" style="fill: #8c8c8c; fill-opacity: 0.72"/>
     <use xlink:href="#m6e247944d6" x="77.017805" y="75.349894" style="fill: #8c8c8c; fill-opacity: 0.72"/>
     <use xlink:href="#m6e247944d6" x="77.422435" y="70.085977" style="fill: #8c8c8c; fill-opacity: 0.72"/>
     <use xlink:href="#m6e247944d6" x="78.714524" y="69.310139" style="fill: #8c8c8c; fill-opacity: 0.72"/>
    </g>
   </g>
   <g id="PathCollection_2">
    <defs>
     <path id="m0597bed325" d="M 0 1.414214 
C 0.375054 1.414214 0.734797 1.265203 1 1 
C 1.265203 0.734797 1.414214 0.375054 1.414214 0 
C 1.414214 -0.375054 1.265203 -0.734797 1 -1 
C 0.734797 -1.265203 0.375054 -1.414214 0 -1.414214 
C -0.375054 -1.414214 -0.734797 -1.265203 -1 -1 
C -1.265203 -0.734797 -1.414214 -0.375054 -1.414214 0 
C -1.414214 0.375054 -1.265203 0.734797 -1 1 
C -0.734797 1.265203 -0.375054 1.414214 0 1.414214 
z
"/>
    </defs>
    <g clip-path="url(#pcfca55e70e)">
     <use xlink:href="#m0597bed325" x="139.001552" y="100.62527" style="fill: #4c78a8; fill-opacity: 0.72"/>
     <use xlink:href="#m0597bed325" x="136.922923" y="100.833116" style="fill: #4c78a8; fill-opacity: 0.72"/>
     <use xlink:href="#m0597bed325" x="139.576569" y="99.81529" style="fill: #4c78a8; fill-opacity: 0.72"/>
     <use xlink:href="#m0597bed325" x="135.970343" y="96.169651" style="fill: #4c78a8; fill-opacity: 0.72"/>
     <use xlink:href="#m0597bed325" x="137.77501" y="102.185547" style="fill: #4c78a8; fill-opacity: 0.72"/>
     <use xlink:href="#m0597bed325" x="138.754748" y="96.31962" style="fill: #4c78a8; fill-opacity: 0.72"/>
     <use xlink:href="#m0597bed325" x="137.317948" y="100.926678" style="fill: #4c78a8; fill-opacity: 0.72"/>
     <use xlink:href="#m0597bed325" x="135.831351" y="105.694803" style="fill: #4c78a8; fill-opacity: 0.72"/>
     <use xlink:href="#m0597bed325" x="135.514997" y="96.576276" style="fill: #4c78a8; fill-opacity: 0.72"/>
     <use xlink:href="#m0597bed325" x="136.338604" y="95.533137" style="fill: #4c78a8; fill-opacity: 0.72"/>
     <use xlink:href="#m0597bed325" x="137.541924" y="103.867729" style="fill: #4c78a8; fill-opacity: 0.72"/>
     <use xlink:href="#m0597bed325" x="135.358986" y="102.063657" style="fill: #4c78a8; fill-opacity: 0.72"/>
     <use xlink:href="#m0597bed325" x="136.779784" y="102.933832" style="fill: #4c78a8; fill-opacity: 0.72"/>
     <use xlink:href="#m0597bed325" x="136.868447" y="102.237078" style="fill: #4c78a8; fill-opacity: 0.72"/>
     <use xlink:href="#m0597bed325" x="138.111084" y="102.556522" style="fill: #4c78a8; fill-opacity: 0.72"/>
     <use xlink:href="#m0597bed325" x="137.532098" y="103.392373" style="fill: #4c78a8; fill-opacity: 0.72"/>
     <use xlink:href="#m0597bed325" x="137.781867" y="91.702707" style="fill: #4c78a8; fill-opacity: 0.72"/>
     <use xlink:href="#m0597bed325" x="135.990518" y="91.976282" style="fill: #4c78a8; fill-opacity: 0.72"/>
     <use xlink:href="#m0597bed325" x="136.921008" y="99.249007" style="fill: #4c78a8; fill-opacity: 0.72"/>
    </g>
   </g>
   <g id="PathCollection_3">
    <defs>
     <path id="m0addfce55c" d="M 0 1.414214 
C 0.375054 1.414214 0.734797 1.265203 1 1 
C 1.265203 0.734797 1.414214 0.375054 1.414214 0 
C 1.414214 -0.375054 1.265203 -0.734797 1 -1 
C 0.734797 -1.265203 0.375054 -1.414214 0 -1.414214 
C -0.375054 -1.414214 -0.734797 -1.265203 -1 -1 
C -1.265203 -0.734797 -1.414214 -0.375054 -1.414214 0 
C -1.414214 0.375054 -1.265203 0.734797 -1 1 
C -0.734797 1.265203 -0.375054 1.414214 0 1.414214 
z
"/>
    </defs>
    <g clip-path="url(#pcfca55e70e)">
     <use xlink:href="#m0addfce55c" x="197.709845" y="125.666264" style="fill: #4daf7c; fill-opacity: 0.72"/>
     <use xlink:href="#m0addfce55c" x="198.96914" y="122.451927" style="fill: #4daf7c; fill-opacity: 0.72"/>
     <use xlink:href="#m0addfce55c" x="194.083414" y="125.153123" style="fill: #4daf7c; fill-opacity: 0.72"/>
     <use xlink:href="#m0addfce55c" x="199.005515" y="119.92317" style="fill: #4daf7c; fill-opacity: 0.72"/>
     <use xlink:href="#m0addfce55c" x="198.707226" y="119.090894" style="fill: #4daf7c; fill-opacity: 0.72"/>
     <use xlink:href="#m0addfce55c" x="197.705116" y="122.447872" style="fill: #4daf7c; fill-opacity: 0.72"/>
     <use xlink:href="#m0addfce55c" x="196.787689" y="121.975638" style="fill: #4daf7c; fill-opacity: 0.72"/>
     <use xlink:href="#m0addfce55c" x="195.761057" y="123.330567" style="fill: #4daf7c; fill-opacity: 0.72"/>
     <use xlink:href="#m0addfce55c" x="198.906286" y="121.832968" style="fill: #4daf7c; fill-opacity: 0.72"/>
     <use xlink:href="#m0addfce55c" x="199.797765" y="119.880403" style="fill: #4daf7c; fill-opacity: 0.72"/>
     <use xlink:href="#m0addfce55c" x="199.516206" y="113.048033" style="fill: #4daf7c; fill-opacity: 0.72"/>
     <use xlink:href="#m0addfce55c" x="198.652606" y="123.885413" style="fill: #4daf7c; fill-opacity: 0.72"/>
     <use xlink:href="#m0addfce55c" x="196.952631" y="129.908398" style="fill: #4daf7c; fill-opacity: 0.72"/>
     <use xlink:href="#m0addfce55c" x="194.173491" y="121.298561" style="fill: #4daf7c; fill-opacity: 0.72"/>
     <use xlink:href="#m0addfce55c" x="196.310369" y="119.644571" style="fill: #4daf7c; fill-opacity: 0.72"/>
     <use xlink:href="#m0addfce55c" x="197.483529" y="122.866431" style="fill: #4daf7c; fill-opacity: 0.72"/>
     <use xlink:href="#m0addfce55c" x="194.031413" y="125.633528" style="fill: #4daf7c; fill-opacity: 0.72"/>
     <use xlink:href="#m0addfce55c" x="197.019624" y="127.170926" style="fill: #4daf7c; fill-opacity: 0.72"/>
     <use xlink:href="#m0addfce55c" x="197.08129" y="129.904723" style="fill: #4daf7c; fill-opacity: 0.72"/>
    </g>
   </g>
   <g id="text_10">
    <text style="font-size: 6.5px; font-family: 'Arial', 'Helvetica', 'DejaVu Sans', sans-serif; text-anchor: middle; fill: #222222" x="137.151074" y="22.070931" transform="rotate(-0 137.151074 22.070931)">****</text>
   </g>
   <g id="text_11">
    <text style="font-size: 6.5px; font-family: 'Arial', 'Helvetica', 'DejaVu Sans', sans-serif; text-anchor: middle; fill: #222222" x="166.734675" y="12.138984" transform="rotate(-0 166.734675 12.138984)">****</text>
   </g>
  </g>
 </g>
 <defs>
  <clipPath id="pcfca55e70e">
   <rect x="48.400273" y="30.113723" width="177.501604" height="104.546803"/>
  </clipPath>
 </defs>
</svg>
