<?xml version="1.0" encoding="utf-8" standalone="no"?>
<!DOCTYPE svg PUBLIC "-//W3C//DTD SVG 1.1//EN"
  "http://www.w3.org/Graphics/SVG/1.1/DTD/svg11.dtd">
<svg xmlns:xlink="http://www.w3.org/1999/xlink" width="237.783534pt" height="185.730601pt" viewBox="0 0 237.783534 185.730601" xmlns="http://www.w3.org/2000/svg" version="1.1">
 <metadata>
  <rdf:RDF xmlns:dc="http://purl.org/dc/elements/1.1/" xmlns:cc="http://creativecommons.org/ns#" xmlns:rdf="http://www.w3.org/1999/02/22-rdf-syntax-ns#">
   <cc:Work>
    <dc:type rdf:resource="http://purl.org/dc/dcmitype/StillImage"/>
    <dc:date>2026-06-22T23:03:22.131452</dc:date>
    <dc:format>image/svg+xml</dc:format>
    <dc:creator>
     <cc:Agent>
      <dc:title>Matplotlib v3.11.0, https://matplotlib.org/</dc:title>
     </cc:Agent>
    </dc:creator>
   </cc:Work>
  </rdf:RDF>
 </metadata>
 <defs>
  <style type="text/css">*{stroke-linejoin: round; stroke-linecap: butt}</style>
 </defs>
 <g id="figure_1">
  <g id="patch_1">
   <path d="M 0 185.730601 
L 237.783534 185.730601 
L 237.783534 0 
L 0 0 
z
" style="fill: #ffffff"/>
  </g>
  <g id="axes_1">
   <g id="patch_2">
    <path d="M 44.281734 145.029059 
L 230.583534 145.029059 
L 230.583534 7.2 
L 44.281734 7.2 
z
" style="fill: #ffffff"/>
   </g>
   <g id="matplotlib.axis_1">
    <g id="xtick_1">
     <g id="line2d_1">
      <defs>
       <path id="m6f124a0931" d="M 0 0 
L 0 3 
" style="stroke: #222222; stroke-width: 0.8"/>
      </defs>
      <g>
       <use xlink:href="#m6f124a0931" x="75.332034" y="145.029059" style="fill: #222222; stroke: #222222; stroke-width: 0.8"/>
      </g>
     </g>
     <g id="text_1">
      <text style="font-size: 7px; font-family: 'Arial', 'Helvetica', 'DejaVu Sans', sans-serif; fill: #222222" transform="translate(29.572722 177.195355) rotate(-25)">Moving average</text>
     </g>
    </g>
    <g id="xtick_2">
     <g id="line2d_2">
      <g>
       <use xlink:href="#m6f124a0931" x="137.432634" y="145.029059" style="fill: #222222; stroke: #222222; stroke-width: 0.8"/>
      </g>
     </g>
     <g id="text_2">
      <text style="font-size: 7px; font-family: 'Arial', 'Helvetica', 'DejaVu Sans', sans-serif; fill: #222222" transform="translate(113.890807 166.835198) rotate(-25)">B-spline</text>
     </g>
    </g>
    <g id="xtick_3">
     <g id="line2d_3">
      <g>
       <use xlink:href="#m6f124a0931" x="199.533234" y="145.029059" style="fill: #222222; stroke: #222222; stroke-width: 0.8"/>
      </g>
     </g>
     <g id="text_3">
      <text style="font-size: 7px; font-family: 'Arial', 'Helvetica', 'DejaVu Sans', sans-serif; fill: #222222" transform="translate(172.110569 168.644863) rotate(-25)">Geodesic</text>
     </g>
    </g>
   </g>
   <g id="matplotlib.axis_2">
    <g id="ytick_1">
     <g id="line2d_4">
      <defs>
       <path id="m57e40ef9f7" d="M 0 0 
L -3 0 
" style="stroke: #222222; stroke-width: 0.8"/>
      </defs>
      <g>
       <use xlink:href="#m57e40ef9f7" x="44.281734" y="123.739122" style="fill: #222222; stroke: #222222; stroke-width: 0.8"/>
      </g>
     </g>
     <g id="text_4">
      <text style="font-size: 7px; font-family: 'Arial', 'Helvetica', 'DejaVu Sans', sans-serif; text-anchor: end; fill: #222222" x="37.781734" y="126.287218" transform="rotate(-0 37.781734 126.287218)">2</text>
     </g>
    </g>
    <g id="ytick_2">
     <g id="line2d_5">
      <g>
       <use xlink:href="#m57e40ef9f7" x="44.281734" y="98.513296" style="fill: #222222; stroke: #222222; stroke-width: 0.8"/>
      </g>
     </g>
     <g id="text_5">
      <text style="font-size: 7px; font-family: 'Arial', 'Helvetica', 'DejaVu Sans', sans-serif; text-anchor: end; fill: #222222" x="37.781734" y="101.061391" transform="rotate(-0 37.781734 101.061391)">3</text>
     </g>
    </g>
    <g id="ytick_3">
     <g id="line2d_6">
      <g>
       <use xlink:href="#m57e40ef9f7" x="44.281734" y="73.287469" style="fill: #222222; stroke: #222222; stroke-width: 0.8"/>
      </g>
     </g>
     <g id="text_6">
      <text style="font-size: 7px; font-family: 'Arial', 'Helvetica', 'DejaVu Sans', sans-serif; text-anchor: end; fill: #222222" x="37.781734" y="75.835565" transform="rotate(-0 37.781734 75.835565)">4</text>
     </g>
    </g>
    <g id="ytick_4">
     <g id="line2d_7">
      <g>
       <use xlink:href="#m57e40ef9f7" x="44.281734" y="48.061642" style="fill: #222222; stroke: #222222; stroke-width: 0.8"/>
      </g>
     </g>
     <g id="text_7">
      <text style="font-size: 7px; font-family: 'Arial', 'Helvetica', 'DejaVu Sans', sans-serif; text-anchor: end; fill: #222222" x="37.781734" y="50.609738" transform="rotate(-0 37.781734 50.609738)">5</text>
     </g>
    </g>
    <g id="ytick_5">
     <g id="line2d_8">
      <g>
       <use xlink:href="#m57e40ef9f7" x="44.281734" y="22.835815" style="fill: #222222; stroke: #222222; stroke-width: 0.8"/>
      </g>
     </g>
     <g id="text_8">
      <text style="font-size: 7px; font-family: 'Arial', 'Helvetica', 'DejaVu Sans', sans-serif; text-anchor: end; fill: #222222" x="37.781734" y="25.383911" transform="rotate(-0 37.781734 25.383911)">6</text>
     </g>
    </g>
    <g id="text_9">
     <!-- $\bar{d}$ -->
     <g transform="translate(17.28 61.043851)">
      <text>
       <tspan x="0.646301" y="-2.8125" style="font-size: 10.5px; font-family: 'cmr10'">¹</tspan>
       <tspan x="0" y="-0.046875" style="font-size: 10.5px; font-family: 'cmmi10'">d</tspan>
      </text>
     </g>
     <!-- $(\mathrm{mm})$ -->
     <g transform="translate(7.2 72.702542)">
      <text>
       <tspan x="0" y="-0.125" style="font-size: 10.5px; font-family: 'cmr10'">(</tspan>
       <tspan x="4.075928" y="-0.125" style="font-size: 10.5px; font-family: 'cmr10'">m</tspan>
       <tspan x="12.82251" y="-0.125" style="font-size: 10.5px; font-family: 'cmr10'">m</tspan>
       <tspan x="21.569092" y="-0.125" style="font-size: 10.5px; font-family: 'cmr10'">)</tspan>
      </text>
     </g>
    </g>
   </g>
   <g id="patch_3">
    <path d="M 59.185878 64.47829 
L 91.47819 64.47829 
L 91.47819 57.868168 
L 59.185878 57.868168 
L 59.185878 64.47829 
z
" clip-path="url(#p4247b24827)" style="fill: #8c8c8c; opacity: 0.45; stroke: #222222; stroke-width: 0.8; stroke-linejoin: miter"/>
   </g>
   <g id="line2d_9">
    <path d="M 75.332034 64.47829 
L 75.332034 74.389403 
" clip-path="url(#p4247b24827)" style="fill: none; stroke: #222222; stroke-width: 0.8; stroke-linecap: square"/>
   </g>
   <g id="line2d_10">
    <path d="M 75.332034 57.868168 
L 75.332034 57.864057 
" clip-path="url(#p4247b24827)" style="fill: none; stroke: #222222; stroke-width: 0.8; stroke-linecap: square"/>
   </g>
   <g id="line2d_11">
    <path d="M 67.258956 74.389403 
L 83.405112 74.389403 
" clip-path="url(#p4247b24827)" style="fill: none; stroke: #222222; stroke-width: 0.8; stroke-linecap: square"/>
   </g>
   <g id="line2d_12">
    <path d="M 67.258956 57.864057 
L 83.405112 57.864057 
" clip-path="url(#p4247b24827)" style="fill: none; stroke: #222222; stroke-width: 0.8; stroke-linecap: square"/>
   </g>
   <g id="patch_4">
    <path d="M 121.286478 131.164647 
L 153.57879 131.164647 
L 153.57879 125.568526 
L 121.286478 125.568526 
L 121.286478 131.164647 
z
" clip-path="url(#p4247b24827)" style="fill: #4c78a8; opacity: 0.45; stroke: #222222; stroke-width: 0.8; stroke-linejoin: miter"/>
   </g>
   <g id="line2d_13">
    <path d="M 137.432634 131.164647 
L 137.432634 138.764101 
" clip-path="url(#p4247b24827)" style="fill: none; stroke: #222222; stroke-width: 0.8; stroke-linecap: square"/>
   </g>
   <g id="line2d_14">
    <path d="M 137.432634 125.568526 
L 137.432634 119.956533 
" clip-path="url(#p4247b24827)" style="fill: none; stroke: #222222; stroke-width: 0.8; stroke-linecap: square"/>
   </g>
   <g id="line2d_15">
    <path d="M 129.359556 138.764101 
L 145.505712 138.764101 
" clip-path="url(#p4247b24827)" style="fill: none; stroke: #222222; stroke-width: 0.8; stroke-linecap: square"/>
   </g>
   <g id="line2d_16">
    <path d="M 129.359556 119.956533 
L 145.505712 119.956533 
" clip-path="url(#p4247b24827)" style="fill: none; stroke: #222222; stroke-width: 0.8; stroke-linecap: square"/>
   </g>
   <g id="patch_5">
    <path d="M 183.387078 130.177561 
L 215.67939 130.177561 
L 215.67939 124.011771 
L 183.387078 124.011771 
L 183.387078 130.177561 
z
" clip-path="url(#p4247b24827)" style="fill: #4daf7c; opacity: 0.45; stroke: #222222; stroke-width: 0.8; stroke-linejoin: miter"/>
   </g>
   <g id="line2d_17">
    <path d="M 199.533234 130.177561 
L 199.533234 135.998621 
" clip-path="url(#p4247b24827)" style="fill: none; stroke: #222222; stroke-width: 0.8; stroke-linecap: square"/>
   </g>
   <g id="line2d_18">
    <path d="M 199.533234 124.011771 
L 199.533234 122.052147 
" clip-path="url(#p4247b24827)" style="fill: none; stroke: #222222; stroke-width: 0.8; stroke-linecap: square"/>
   </g>
   <g id="line2d_19">
    <path d="M 191.460156 135.998621 
L 207.606312 135.998621 
" clip-path="url(#p4247b24827)" style="fill: none; stroke: #222222; stroke-width: 0.8; stroke-linecap: square"/>
   </g>
   <g id="line2d_20">
    <path d="M 191.460156 122.052147 
L 207.606312 122.052147 
" clip-path="url(#p4247b24827)" style="fill: none; stroke: #222222; stroke-width: 0.8; stroke-linecap: square"/>
   </g>
   <g id="line2d_21">
    <path d="M 59.185878 62.732796 
L 91.47819 62.732796 
" clip-path="url(#p4247b24827)" style="fill: none; stroke: #222222"/>
   </g>
   <g id="line2d_22">
    <path d="M 121.286478 130.052566 
L 153.57879 130.052566 
" clip-path="url(#p4247b24827)" style="fill: none; stroke: #222222"/>
   </g>
   <g id="line2d_23">
    <path d="M 183.387078 126.385361 
L 215.67939 126.385361 
" clip-path="url(#p4247b24827)" style="fill: none; stroke: #222222"/>
   </g>
   <g id="patch_6">
    <path d="M 44.281734 145.029059 
L 44.281734 7.2 
" style="fill: none; stroke: #222222; stroke-width: 0.8; stroke-linejoin: miter; stroke-linecap: square"/>
   </g>
   <g id="patch_7">
    <path d="M 44.281734 145.029059 
L 230.583534 145.029059 
" style="fill: none; stroke: #222222; stroke-width: 0.8; stroke-linejoin: miter; stroke-linecap: square"/>
   </g>
   <g id="PathCollection_1">
    <defs>
     <path id="ma4f25a6e3c" d="M 0 1.414214 
C 0.375054 1.414214 0.734797 1.265203 1 1 
C 1.265203 0.734797 1.414214 0.375054 1.414214 0 
C 1.414214 -0.375054 1.265203 -0.734797 1 -1 
C 0.734797 -1.265203 0.375054 -1.414214 0 -1.414214 
C -0.375054 -1.414214 -0.734797 -1.265203 -1 -1 
C -1.265203 -0.734797 -1.414214 -0.375054 -1.414214 0 
C -1.414214 0.375054 -1.265203 0.734797 -1 1 
C -0.734797 1.265203 -0.375054 1.414214 0 1.414214 
z
"/>
    </defs>
    <g clip-path="url(#p4247b24827)">
     <use xlink:href="#ma4f25a6e3c" x="75.605311" y="74.389403" style="fill: #8c8c8c; fill-opacity: 0.72"/>
     <use xlink:href="#ma4f25a6e3c" x="75.044901" y="62.451393" style="fill: #8c8c8c; fill-opacity: 0.72"/>
     <use xlink:href="#ma4f25a6e3c" x="76.724006" y="64.494297" style="fill: #8c8c8c; fill-opacity: 0.72"/>
     <use xlink:href="#ma4f25a6e3c" x="75.560037" y="66.39535" style="fill: #8c8c8c; fill-opacity: 0.72"/>
     <use xlink:href="#ma4f25a6e3c" x="74.167745" y="61.88761" style="fill: #8c8c8c; fill-opacity: 0.72"/>
     <use xlink:href="#ma4f25a6e3c" x="76.117968" y="64.145916" style="fill: #8c8c8c; fill-opacity: 0.72"/>
     <use xlink:href="#ma4f25a6e3c" x="78.166305" y="45.88198" style="fill: #8c8c8c; fill-opacity: 0.72"/>
     <use xlink:href="#ma4f25a6e3c" x="77.390534" y="47.593497" style="fill: #8c8c8c; fill-opacity: 0.72"/>
     <use xlink:href="#ma4f25a6e3c" x="73.802451" y="63.741169" style="fill: #8c8c8c; fill-opacity: 0.72"/>
     <use xlink:href="#ma4f25a6e3c" x="72.581614" y="63.481525" style="fill: #8c8c8c; fill-opacity: 0.72"/>
     <use xlink:href="#ma4f25a6e3c" x="73.977334" y="64.462282" style="fill: #8c8c8c; fill-opacity: 0.72"/>
     <use xlink:href="#ma4f25a6e3c" x="75.421857" y="62.732796" style="fill: #8c8c8c; fill-opacity: 0.72"/>
     <use xlink:href="#ma4f25a6e3c" x="70.278531" y="36.757773" style="fill: #8c8c8c; fill-opacity: 0.72"/>
     <use xlink:href="#ma4f25a6e3c" x="74.856486" y="57.864057" style="fill: #8c8c8c; fill-opacity: 0.72"/>
     <use xlink:href="#ma4f25a6e3c" x="72.62402" y="69.501009" style="fill: #8c8c8c; fill-opacity: 0.72"/>
     <use xlink:href="#ma4f25a6e3c" x="73.740436" y="13.464957" style="fill: #8c8c8c; fill-opacity: 0.72"/>
     <use xlink:href="#ma4f25a6e3c" x="74.149076" y="65.659036" style="fill: #8c8c8c; fill-opacity: 0.72"/>
     <use xlink:href="#ma4f25a6e3c" x="74.644549" y="58.872528" style="fill: #8c8c8c; fill-opacity: 0.72"/>
     <use xlink:href="#ma4f25a6e3c" x="76.226722" y="57.872278" style="fill: #8c8c8c; fill-opacity: 0.72"/>
    </g>
   </g>
   <g id="PathCollection_2">
    <defs>
     <path id="ma30c63cdc6" d="M 0 1.414214 
C 0.375054 1.414214 0.734797 1.265203 1 1 
C 1.265203 0.734797 1.414214 0.375054 1.414214 0 
C 1.414214 -0.375054 1.265203 -0.734797 1 -1 
C 0.734797 -1.265203 0.375054 -1.414214 0 -1.414214 
C -0.375054 -1.414214 -0.734797 -1.265203 -1 -1 
C -1.265203 -0.734797 -1.414214 -0.375054 -1.414214 0 
C -1.414214 0.375054 -1.265203 0.734797 -1 1 
C -0.734797 1.265203 -0.375054 1.414214 0 1.414214 
z
"/>
    </defs>
    <g clip-path="url(#p4247b24827)">
     <use xlink:href="#ma30c63cdc6" x="139.698559" y="129.342839" style="fill: #4c78a8; fill-opacity: 0.72"/>
     <use xlink:href="#ma30c63cdc6" x="137.153261" y="127.643048" style="fill: #4c78a8; fill-opacity: 0.72"/>
     <use xlink:href="#ma30c63cdc6" x="140.402671" y="122.562728" style="fill: #4c78a8; fill-opacity: 0.72"/>
     <use xlink:href="#ma30c63cdc6" x="135.986819" y="123.277839" style="fill: #4c78a8; fill-opacity: 0.72"/>
     <use xlink:href="#ma30c63cdc6" x="138.196649" y="130.812466" style="fill: #4c78a8; fill-opacity: 0.72"/>
     <use xlink:href="#ma30c63cdc6" x="139.396345" y="124.064595" style="fill: #4c78a8; fill-opacity: 0.72"/>
     <use xlink:href="#ma30c63cdc6" x="137.636972" y="130.17601" style="fill: #4c78a8; fill-opacity: 0.72"/>
     <use xlink:href="#ma30c63cdc6" x="135.816623" y="132.483094" style="fill: #4c78a8; fill-opacity: 0.72"/>
     <use xlink:href="#ma30c63cdc6" x="135.429245" y="125.198229" style="fill: #4c78a8; fill-opacity: 0.72"/>
     <use xlink:href="#ma30c63cdc6" x="136.437757" y="138.764101" style="fill: #4c78a8; fill-opacity: 0.72"/>
     <use xlink:href="#ma30c63cdc6" x="137.911233" y="130.78713" style="fill: #4c78a8; fill-opacity: 0.72"/>
     <use xlink:href="#ma30c63cdc6" x="135.238208" y="125.938822" style="fill: #4c78a8; fill-opacity: 0.72"/>
     <use xlink:href="#ma30c63cdc6" x="136.977986" y="130.052566" style="fill: #4c78a8; fill-opacity: 0.72"/>
     <use xlink:href="#ma30c63cdc6" x="137.086555" y="131.360296" style="fill: #4c78a8; fill-opacity: 0.72"/>
     <use xlink:href="#ma30c63cdc6" x="138.608173" y="136.553578" style="fill: #4c78a8; fill-opacity: 0.72"/>
     <use xlink:href="#ma30c63cdc6" x="137.8992" y="119.956533" style="fill: #4c78a8; fill-opacity: 0.72"/>
     <use xlink:href="#ma30c63cdc6" x="138.205044" y="126.821794" style="fill: #4c78a8; fill-opacity: 0.72"/>
     <use xlink:href="#ma30c63cdc6" x="136.011524" y="134.072548" style="fill: #4c78a8; fill-opacity: 0.72"/>
     <use xlink:href="#ma30c63cdc6" x="137.150916" y="130.968998" style="fill: #4c78a8; fill-opacity: 0.72"/>
    </g>
   </g>
   <g id="PathCollection_3">
    <defs>
     <path id="m9456512a95" d="M 0 1.414214 
C 0.375054 1.414214 0.734797 1.265203 1 1 
C 1.265203 0.734797 1.414214 0.375054 1.414214 0 
C 1.414214 -0.375054 1.265203 -0.734797 1 -1 
C 0.734797 -1.265203 0.375054 -1.414214 0 -1.414214 
C -0.375054 -1.414214 -0.734797 -1.265203 -1 -1 
C -1.265203 -0.734797 -1.414214 -0.375054 -1.414214 0 
C -1.414214 0.375054 -1.265203 0.734797 -1 1 
C -0.734797 1.265203 -0.375054 1.414214 0 1.414214 
z
"/>
    </defs>
    <g clip-path="url(#p4247b24827)">
     <use xlink:href="#m9456512a95" x="201.237221" y="130.529447" style="fill: #4daf7c; fill-opacity: 0.72"/>
     <use xlink:href="#m9456512a95" x="202.779238" y="126.385361" style="fill: #4daf7c; fill-opacity: 0.72"/>
     <use xlink:href="#m9456512a95" x="196.796629" y="129.86788" style="fill: #4daf7c; fill-opacity: 0.72"/>
     <use xlink:href="#m9456512a95" x="202.823779" y="123.12516" style="fill: #4daf7c; fill-opacity: 0.72"/>
     <use xlink:href="#m9456512a95" x="202.458522" y="122.052147" style="fill: #4daf7c; fill-opacity: 0.72"/>
     <use xlink:href="#m9456512a95" x="201.231431" y="126.380134" style="fill: #4daf7c; fill-opacity: 0.72"/>
     <use xlink:href="#m9456512a95" x="200.108034" y="125.771306" style="fill: #4daf7c; fill-opacity: 0.72"/>
     <use xlink:href="#m9456512a95" x="198.850916" y="127.518148" style="fill: #4daf7c; fill-opacity: 0.72"/>
     <use xlink:href="#m9456512a95" x="202.702273" y="125.587368" style="fill: #4daf7c; fill-opacity: 0.72"/>
     <use xlink:href="#m9456512a95" x="203.793897" y="123.070022" style="fill: #4daf7c; fill-opacity: 0.72"/>
     <use xlink:href="#m9456512a95" x="203.449125" y="114.261385" style="fill: #4daf7c; fill-opacity: 0.72"/>
     <use xlink:href="#m9456512a95" x="202.39164" y="128.233484" style="fill: #4daf7c; fill-opacity: 0.72"/>
     <use xlink:href="#m9456512a95" x="200.310008" y="135.998621" style="fill: #4daf7c; fill-opacity: 0.72"/>
     <use xlink:href="#m9456512a95" x="196.906928" y="124.898383" style="fill: #4daf7c; fill-opacity: 0.72"/>
     <use xlink:href="#m9456512a95" x="199.523553" y="122.765975" style="fill: #4daf7c; fill-opacity: 0.72"/>
     <use xlink:href="#m9456512a95" x="200.960096" y="126.91976" style="fill: #4daf7c; fill-opacity: 0.72"/>
     <use xlink:href="#m9456512a95" x="196.732953" y="130.487242" style="fill: #4daf7c; fill-opacity: 0.72"/>
     <use xlink:href="#m9456512a95" x="200.39204" y="132.469333" style="fill: #4daf7c; fill-opacity: 0.72"/>
     <use xlink:href="#m9456512a95" x="200.467552" y="135.993883" style="fill: #4daf7c; fill-opacity: 0.72"/>
    </g>
   </g>
  </g>
 </g>
 <defs>
  <clipPath id="p4247b24827">
   <rect x="44.281734" y="7.2" width="186.3018" height="137.829059"/>
  </clipPath>
 </defs>
</svg>
