<?xml version="1.0" encoding="utf-8" standalone="no"?>
<!DOCTYPE svg PUBLIC "-//W3C//DTD SVG 1.1//EN"
  "http://www.w3.org/Graphics/SVG/1.1/DTD/svg11.dtd">
<svg xmlns:xlink="http://www.w3.org/1999/xlink" width="251.539697pt" height="163.953281pt" viewBox="0 0 251.539697 163.953281" xmlns="http://www.w3.org/2000/svg" version="1.1">
 <metadata>
  <rdf:RDF xmlns:dc="http://purl.org/dc/elements/1.1/" xmlns:cc="http://creativecommons.org/ns#" xmlns:rdf="http://www.w3.org/1999/02/22-rdf-syntax-ns#">
   <cc:Work>
    <dc:type rdf:resource="http://purl.org/dc/dcmitype/StillImage"/>
    <dc:date>2026-06-15T20:14:45.929226</dc:date>
    <dc:format>image/svg+xml</dc:format>
    <dc:creator>
     <cc:Agent>
      <dc:title>Matplotlib v3.10.8, https://matplotlib.org/</dc:title>
     </cc:Agent>
    </dc:creator>
   </cc:Work>
  </rdf:RDF>
 </metadata>
 <defs>
  <style type="text/css">*{stroke-linejoin: round; stroke-linecap: butt}</style>
 </defs>
 <g id="figure_1">
  <g id="patch_1">
   <path d="M 0 163.953281 
L 251.539697 163.953281 
L 251.539697 0 
L 0 0 
z
" style="fill: #ffffff"/>
  </g>
  <g id="axes_1">
   <g id="patch_2">
    <path d="M 55.254926 132.22 
L 239.171182 132.22 
L 239.171182 7.2 
L 55.254926 7.2 
z
" style="fill: #ffffff"/>
   </g>
   <g id="FillBetweenPolyCollection_1">
    <defs>
     <path id="mb9c8cd5ec4" d="M 55.254926 -151.070554 
L 55.254926 -151.070554 
L 55.622759 -151.028315 
L 55.990591 -148.758308 
L 56.358424 -143.606518 
L 56.726256 -142.635378 
L 57.094089 -139.293728 
L 57.461921 -137.160188 
L 57.829754 -136.082682 
L 58.197586 -135.547065 
L 58.565419 -131.95401 
L 58.933251 -128.076876 
L 59.301084 -127.428666 
L 59.668916 -125.420001 
L 60.036749 -120.366049 
L 60.404581 -119.857731 
L 60.772414 -119.857731 
L 61.140246 -118.996414 
L 61.508079 -110.645698 
L 61.875911 -103.939422 
L 62.243744 -103.846245 
L 62.611576 -103.846245 
L 62.979409 -103.253086 
L 63.347241 -103.253086 
L 63.715074 -102.981354 
L 64.082906 -101.928679 
L 64.450739 -101.826951 
L 64.818571 -101.785792 
L 65.186404 -101.54744 
L 65.554236 -101.54744 
L 65.922069 -99.908312 
L 66.289901 -99.20288 
L 66.657734 -99.122433 
L 67.025566 -99.122433 
L 67.393399 -98.655346 
L 67.761231 -98.245947 
L 68.129064 -98.245947 
L 68.496896 -95.89093 
L 68.864729 -95.89093 
L 69.232561 -95.761251 
L 69.600394 -95.761251 
L 69.968226 -93.472836 
L 70.336059 -92.813512 
L 70.703891 -91.862135 
L 71.071724 -91.811257 
L 71.439556 -91.670824 
L 71.807389 -89.630636 
L 72.175221 -89.160166 
L 72.543054 -89.160166 
L 72.910887 -89.160166 
L 73.278719 -87.099804 
L 73.646552 -86.866482 
L 74.014384 -86.866482 
L 74.382217 -86.066234 
L 74.750049 -85.494792 
L 75.117882 -85.494792 
L 75.485714 -85.170806 
L 75.853547 -84.772743 
L 76.221379 -84.772743 
L 76.589212 -84.772743 
L 76.957044 -83.055132 
L 77.324877 -81.897819 
L 77.692709 -81.820087 
L 78.060542 -81.820087 
L 78.428374 -81.119033 
L 78.796207 -80.719254 
L 79.164039 -80.719254 
L 79.531872 -80.719254 
L 79.899704 -80.719254 
L 80.267537 -80.719254 
L 80.635369 -80.05252 
L 81.003202 -80.05252 
L 81.371034 -79.725297 
L 81.738867 -79.725297 
L 82.106699 -79.4195 
L 82.474532 -79.4195 
L 82.842364 -79.131317 
L 83.210197 -79.039991 
L 83.578029 -79.039991 
L 83.945862 -78.313224 
L 84.313694 -78.313224 
L 84.681527 -78.313224 
L 85.049359 -78.313224 
L 85.417192 -78.116752 
L 85.785024 -78.116752 
L 86.152857 -78.116752 
L 86.520689 -77.26878 
L 86.888522 -77.26878 
L 87.256354 -77.26878 
L 87.624187 -77.26878 
L 87.992019 -77.198123 
L 88.359852 -77.198123 
L 88.727684 -77.198123 
L 89.095517 -77.198123 
L 89.46335 -76.956735 
L 89.831182 -76.13555 
L 90.199015 -76.13555 
L 90.566847 -75.689077 
L 90.93468 -75.689077 
L 91.302512 -75.689077 
L 91.670345 -75.823661 
L 92.038177 -75.823661 
L 92.40601 -75.823661 
L 92.773842 -75.823661 
L 93.141675 -74.043703 
L 93.509507 -74.043703 
L 93.87734 -73.933645 
L 94.245172 -73.933645 
L 94.613005 -73.933645 
L 94.980837 -73.933645 
L 95.34867 -73.901847 
L 95.716502 -73.597479 
L 96.084335 -73.597479 
L 96.452167 -73.459651 
L 96.82 -73.40926 
L 97.187832 -73.40926 
L 97.555665 -73.340385 
L 97.923497 -73.340385 
L 98.29133 -73.219778 
L 98.659162 -73.219778 
L 99.026995 -72.690644 
L 99.394827 -72.690644 
L 99.76266 -72.690644 
L 100.130492 -72.601845 
L 100.498325 -72.601845 
L 100.866157 -72.601845 
L 101.23399 -72.20685 
L 101.601822 -72.20685 
L 101.969655 -72.233937 
L 102.337487 -72.147436 
L 102.70532 -72.147436 
L 103.073152 -72.147436 
L 103.440985 -72.147436 
L 103.808817 -72.147436 
L 104.17665 -72.147436 
L 104.544482 -72.016206 
L 104.912315 -72.016206 
L 105.280147 -72.016206 
L 105.64798 -72.016206 
L 106.015813 -72.016206 
L 106.383645 -71.661775 
L 106.751478 -71.524766 
L 107.11931 -71.524766 
L 107.487143 -71.524766 
L 107.854975 -69.82663 
L 108.222808 -69.82663 
L 108.59064 -65.522975 
L 108.958473 -65.522975 
L 109.326305 -65.366641 
L 109.694138 -65.366641 
L 110.06197 -65.350171 
L 110.429803 -65.350171 
L 110.797635 -65.350171 
L 111.165468 -65.09846 
L 111.5333 -64.97685 
L 111.901133 -64.97685 
L 112.268965 -64.97685 
L 112.636798 -64.97685 
L 113.00463 -64.97685 
L 113.372463 -64.95377 
L 113.740295 -64.867132 
L 114.108128 -64.841794 
L 114.47596 -64.841794 
L 114.843793 -64.841794 
L 115.211625 -63.930395 
L 115.579458 -63.930395 
L 115.94729 -63.930395 
L 116.315123 -63.930395 
L 116.682955 -63.160994 
L 117.050788 -63.160994 
L 117.41862 -63.160994 
L 117.786453 -63.160994 
L 118.154285 -62.864755 
L 118.522118 -62.864755 
L 118.88995 -62.864755 
L 119.257783 -62.864755 
L 119.625615 -62.864755 
L 119.993448 -62.86012 
L 120.36128 -62.783527 
L 120.729113 -62.783527 
L 121.096945 -62.783527 
L 121.464778 -62.699094 
L 121.83261 -62.725043 
L 122.200443 -62.725043 
L 122.568276 -62.725043 
L 122.936108 -62.553445 
L 123.303941 -62.553445 
L 123.671773 -62.553445 
L 124.039606 -62.553445 
L 124.407438 -62.553445 
L 124.775271 -62.553445 
L 125.143103 -62.553445 
L 125.510936 -62.140994 
L 125.878768 -62.140994 
L 126.246601 -62.140994 
L 126.614433 -61.958708 
L 126.982266 -61.958708 
L 127.350098 -61.958708 
L 127.717931 -61.71165 
L 128.085763 -61.71165 
L 128.453596 -61.71165 
L 128.821428 -61.71165 
L 129.189261 -61.71165 
L 129.557093 -61.71165 
L 129.924926 -61.096929 
L 130.292758 -61.096929 
L 130.660591 -61.096929 
L 131.028423 -61.096929 
L 131.396256 -61.096929 
L 131.764088 -61.096929 
L 132.131921 -61.096929 
L 132.499753 -61.096929 
L 132.867586 -60.348357 
L 133.235418 -60.348357 
L 133.603251 -60.348357 
L 133.971083 -60.060603 
L 134.338916 -60.070436 
L 134.706748 -59.747219 
L 135.074581 -59.341976 
L 135.442413 -59.341976 
L 135.810246 -59.341976 
L 136.178078 -59.341976 
L 136.545911 -59.341976 
L 136.913743 -59.359497 
L 137.281576 -59.359497 
L 137.649408 -59.359497 
L 138.017241 -59.507 
L 138.385073 -59.218807 
L 138.752906 -59.218807 
L 139.120739 -59.081403 
L 139.488571 -59.081403 
L 139.856404 -59.081403 
L 140.224236 -59.081403 
L 140.592069 -59.081403 
L 140.959901 -59.081403 
L 141.327734 -59.081403 
L 141.695566 -59.039236 
L 142.063399 -59.039236 
L 142.431231 -59.039236 
L 142.799064 -59.039236 
L 143.166896 -59.039236 
L 143.534729 -58.637962 
L 143.902561 -58.637962 
L 144.270394 -58.637962 
L 144.638226 -58.637962 
L 145.006059 -58.637962 
L 145.373891 -58.652343 
L 145.741724 -58.652343 
L 146.109556 -58.652343 
L 146.477389 -58.523871 
L 146.845221 -58.523871 
L 147.213054 -58.523871 
L 147.580886 -58.523871 
L 147.948719 -58.48539 
L 148.316551 -58.48539 
L 148.684384 -58.48539 
L 149.052216 -58.48539 
L 149.420049 -58.645062 
L 149.787881 -58.575087 
L 150.155714 -58.575087 
L 150.523546 -58.575087 
L 150.891379 -58.575087 
L 151.259211 -58.552908 
L 151.627044 -58.552908 
L 151.994876 -58.552908 
L 152.362709 -58.552908 
L 152.730541 -58.552908 
L 153.098374 -58.552908 
L 153.466206 -58.552908 
L 153.834039 -58.871241 
L 154.201871 -58.871241 
L 154.569704 -58.871241 
L 154.937536 -58.871241 
L 155.305369 -58.749269 
L 155.673202 -58.749269 
L 156.041034 -58.749269 
L 156.408867 -58.606509 
L 156.776699 -58.606509 
L 157.144532 -58.606509 
L 157.512364 -58.606509 
L 157.880197 -58.606509 
L 158.248029 -58.643384 
L 158.615862 -58.352931 
L 158.983694 -58.352931 
L 159.351527 -58.352931 
L 159.719359 -58.352931 
L 160.087192 -58.352931 
L 160.455024 -58.352931 
L 160.822857 -58.352931 
L 161.190689 -58.333205 
L 161.558522 -58.245353 
L 161.926354 -58.245353 
L 162.294187 -58.245353 
L 162.662019 -58.098127 
L 163.029852 -58.098127 
L 163.397684 -58.098127 
L 163.765517 -58.098127 
L 164.133349 -58.098127 
L 164.501182 -58.098127 
L 164.869014 -58.098127 
L 165.236847 -58.098127 
L 165.604679 -57.903168 
L 165.972512 -57.903168 
L 166.340344 -57.730477 
L 166.708177 -57.730477 
L 167.076009 -57.718144 
L 167.443842 -57.718144 
L 167.811674 -57.718144 
L 168.179507 -57.718144 
L 168.547339 -57.718144 
L 168.915172 -57.718144 
L 169.283004 -57.718144 
L 169.650837 -57.718086 
L 170.018669 -57.718086 
L 170.386502 -57.718086 
L 170.754334 -57.718086 
L 171.122167 -57.718086 
L 171.489999 -57.718086 
L 171.857832 -57.718086 
L 172.225664 -57.444489 
L 172.593497 -57.444489 
L 172.96133 -57.444489 
L 173.329162 -57.444489 
L 173.696995 -57.444489 
L 174.064827 -57.349868 
L 174.43266 -57.349868 
L 174.800492 -57.349868 
L 175.168325 -57.349868 
L 175.536157 -57.349868 
L 175.90399 -57.349868 
L 176.271822 -57.353704 
L 176.639655 -57.353704 
L 177.007487 -57.307695 
L 177.37532 -57.307695 
L 177.743152 -57.307695 
L 178.110985 -57.307695 
L 178.478817 -57.307695 
L 178.84665 -57.307695 
L 179.214482 -57.307695 
L 179.582315 -57.307695 
L 179.950147 -57.055771 
L 180.31798 -57.055771 
L 180.685812 -57.055771 
L 181.053645 -57.055771 
L 181.421477 -57.055771 
L 181.78931 -57.055771 
L 182.157142 -57.055771 
L 182.524975 -57.055771 
L 182.892807 -57.055771 
L 183.26064 -57.055771 
L 183.628472 -57.055771 
L 183.996305 -57.055771 
L 184.364137 -57.055771 
L 184.73197 -57.016835 
L 185.099802 -56.872102 
L 185.467635 -56.872102 
L 185.835467 -56.872102 
L 186.2033 -56.872102 
L 186.571132 -56.872102 
L 186.938965 -56.872102 
L 187.306797 -56.872102 
L 187.67463 -56.872102 
L 188.042462 -56.690552 
L 188.410295 -56.690552 
L 188.778127 -56.690552 
L 189.14596 -56.253818 
L 189.513793 -56.253818 
L 189.881625 -56.253818 
L 190.249458 -56.253818 
L 190.61729 -56.253818 
L 190.985123 -56.264395 
L 191.352955 -56.264395 
L 191.720788 -56.264395 
L 192.08862 -56.264395 
L 192.456453 -56.264395 
L 192.824285 -56.264395 
L 193.192118 -56.264395 
L 193.55995 -56.264395 
L 193.927783 -56.264395 
L 194.295615 -56.264395 
L 194.663448 -56.264395 
L 195.03128 -55.146597 
L 195.399113 -55.146597 
L 195.766945 -54.582284 
L 196.134778 -54.582284 
L 196.50261 -54.615231 
L 196.870443 -54.615231 
L 197.238275 -54.615231 
L 197.606108 -54.615231 
L 197.97394 -54.615231 
L 198.341773 -54.615231 
L 198.709605 -54.615231 
L 199.077438 -54.615231 
L 199.44527 -54.615231 
L 199.813103 -54.615231 
L 200.180935 -54.615231 
L 200.548768 -54.615231 
L 200.9166 -54.580536 
L 201.284433 -54.580536 
L 201.652265 -54.580536 
L 202.020098 -54.827209 
L 202.38793 -54.803788 
L 202.755763 -54.803788 
L 203.123595 -54.803788 
L 203.491428 -53.49801 
L 203.85926 -53.49801 
L 204.227093 -53.49801 
L 204.594925 -53.572332 
L 204.962758 -53.572332 
L 205.33059 -53.572332 
L 205.698423 -53.572332 
L 206.066256 -53.572332 
L 206.434088 -53.572332 
L 206.801921 -53.572332 
L 207.169753 -53.572332 
L 207.537586 -53.572332 
L 207.905418 -53.572332 
L 208.273251 -53.572332 
L 208.641083 -53.571165 
L 209.008916 -53.571165 
L 209.376748 -53.571165 
L 209.744581 -53.352755 
L 210.112413 -53.352755 
L 210.480246 -53.352755 
L 210.848078 -53.352755 
L 211.215911 -53.352755 
L 211.583743 -53.352755 
L 211.951576 -53.352755 
L 212.319408 -53.235559 
L 212.687241 -53.235559 
L 213.055073 -53.235559 
L 213.422906 -53.235559 
L 213.790738 -53.235559 
L 214.158571 -53.235559 
L 214.526403 -53.234947 
L 214.894236 -53.234947 
L 215.262068 -53.234947 
L 215.629901 -53.234947 
L 215.997733 -53.234947 
L 216.365566 -53.234947 
L 216.733398 -53.234947 
L 217.101231 -52.966686 
L 217.469063 -52.966686 
L 217.836896 -52.966686 
L 218.204728 -52.966686 
L 218.572561 -52.966686 
L 218.940393 -52.966686 
L 219.308226 -52.966686 
L 219.676058 -52.966686 
L 220.043891 -52.966686 
L 220.411723 -52.966686 
L 220.779556 -52.966686 
L 221.147388 -52.966686 
L 221.515221 -52.966686 
L 221.883053 -52.966686 
L 222.250886 -52.926705 
L 222.618719 -52.926705 
L 222.986551 -52.926705 
L 223.354384 -52.926705 
L 223.722216 -52.926705 
L 224.090049 -52.926705 
L 224.457881 -52.926705 
L 224.825714 -52.926705 
L 225.193546 -52.926705 
L 225.561379 -52.926705 
L 225.929211 -52.926705 
L 226.297044 -52.926705 
L 226.664876 -52.926705 
L 227.032709 -52.926705 
L 227.400541 -52.926705 
L 227.768374 -52.926705 
L 228.136206 -52.92841 
L 228.504039 -52.92841 
L 228.871871 -52.92841 
L 229.239704 -52.92841 
L 229.607536 -52.92841 
L 229.975369 -52.92841 
L 230.343201 -52.92841 
L 230.711034 -52.92841 
L 231.078866 -52.92841 
L 231.446699 -52.92841 
L 231.814531 -52.92841 
L 232.182364 -52.92841 
L 232.550196 -52.92841 
L 232.918029 -52.92841 
L 233.285861 -52.92841 
L 233.653694 -52.92841 
L 234.021526 -52.92841 
L 234.389359 -53.059925 
L 234.757191 -53.059925 
L 235.125024 -53.059925 
L 235.492856 -53.059925 
L 235.860689 -52.996297 
L 236.228521 -52.996297 
L 236.596354 -52.996297 
L 236.964186 -52.996297 
L 237.332019 -52.727816 
L 237.699851 -52.727816 
L 238.067684 -52.727816 
L 238.435516 -52.727816 
L 238.803349 -52.727816 
L 239.171182 -52.727816 
L 239.171182 -72.31598 
L 239.171182 -72.31598 
L 238.803349 -72.31598 
L 238.435516 -72.31598 
L 238.067684 -72.31598 
L 237.699851 -72.31598 
L 237.332019 -72.31598 
L 236.964186 -72.31598 
L 236.596354 -72.31598 
L 236.228521 -72.31598 
L 235.860689 -72.31598 
L 235.492856 -72.371967 
L 235.125024 -72.371967 
L 234.757191 -72.371967 
L 234.389359 -72.371967 
L 234.021526 -72.371967 
L 233.653694 -72.371967 
L 233.285861 -72.371967 
L 232.918029 -72.371967 
L 232.550196 -72.407516 
L 232.182364 -72.407516 
L 231.814531 -72.407516 
L 231.446699 -72.407516 
L 231.078866 -72.407516 
L 230.711034 -72.407516 
L 230.343201 -72.407516 
L 229.975369 -72.407516 
L 229.607536 -72.407516 
L 229.239704 -72.407516 
L 228.871871 -72.633261 
L 228.504039 -72.633261 
L 228.136206 -72.633261 
L 227.768374 -72.633261 
L 227.400541 -72.633261 
L 227.032709 -72.633261 
L 226.664876 -72.633261 
L 226.297044 -72.633261 
L 225.929211 -72.633261 
L 225.561379 -72.633261 
L 225.193546 -72.633261 
L 224.825714 -72.827013 
L 224.457881 -72.827013 
L 224.090049 -72.827013 
L 223.722216 -72.827013 
L 223.354384 -72.780889 
L 222.986551 -72.780889 
L 222.618719 -72.780889 
L 222.250886 -72.86102 
L 221.883053 -72.86102 
L 221.515221 -72.887486 
L 221.147388 -72.887486 
L 220.779556 -72.887486 
L 220.411723 -72.887486 
L 220.043891 -72.887486 
L 219.676058 -72.920484 
L 219.308226 -72.920484 
L 218.940393 -72.989716 
L 218.572561 -72.989716 
L 218.204728 -72.989716 
L 217.836896 -72.989716 
L 217.469063 -72.989716 
L 217.101231 -73.50303 
L 216.733398 -73.50303 
L 216.365566 -73.50303 
L 215.997733 -73.50303 
L 215.629901 -73.50303 
L 215.262068 -73.50303 
L 214.894236 -73.50303 
L 214.526403 -73.50303 
L 214.158571 -73.630717 
L 213.790738 -73.630717 
L 213.422906 -73.792868 
L 213.055073 -73.792868 
L 212.687241 -73.792868 
L 212.319408 -73.792868 
L 211.951576 -73.792868 
L 211.583743 -73.792868 
L 211.215911 -73.792868 
L 210.848078 -73.792868 
L 210.480246 -73.88014 
L 210.112413 -73.88014 
L 209.744581 -73.88014 
L 209.376748 -73.88014 
L 209.008916 -73.88014 
L 208.641083 -74.256111 
L 208.273251 -74.256111 
L 207.905418 -74.256111 
L 207.537586 -74.256111 
L 207.169753 -74.256111 
L 206.801921 -74.256111 
L 206.434088 -74.256111 
L 206.066256 -74.256111 
L 205.698423 -74.256111 
L 205.33059 -74.256111 
L 204.962758 -74.256111 
L 204.594925 -74.256111 
L 204.227093 -74.256111 
L 203.85926 -74.256111 
L 203.491428 -74.256111 
L 203.123595 -74.256111 
L 202.755763 -74.256111 
L 202.38793 -74.256111 
L 202.020098 -74.256111 
L 201.652265 -74.256111 
L 201.284433 -74.256111 
L 200.9166 -74.256111 
L 200.548768 -74.256111 
L 200.180935 -74.256111 
L 199.813103 -74.256111 
L 199.44527 -74.256111 
L 199.077438 -74.256111 
L 198.709605 -74.234284 
L 198.341773 -74.234284 
L 197.97394 -74.298975 
L 197.606108 -74.298975 
L 197.238275 -74.298975 
L 196.870443 -74.257093 
L 196.50261 -74.338547 
L 196.134778 -74.338547 
L 195.766945 -74.3594 
L 195.399113 -74.3594 
L 195.03128 -74.3594 
L 194.663448 -74.3594 
L 194.295615 -74.3594 
L 193.927783 -74.3594 
L 193.55995 -74.586095 
L 193.192118 -74.586095 
L 192.824285 -74.586095 
L 192.456453 -74.586095 
L 192.08862 -74.586095 
L 191.720788 -74.586095 
L 191.352955 -74.633794 
L 190.985123 -74.633794 
L 190.61729 -74.633794 
L 190.249458 -74.633794 
L 189.881625 -74.772874 
L 189.513793 -75.067196 
L 189.14596 -75.067196 
L 188.778127 -75.067196 
L 188.410295 -75.067196 
L 188.042462 -75.067196 
L 187.67463 -75.067196 
L 187.306797 -75.067196 
L 186.938965 -75.067196 
L 186.571132 -75.067196 
L 186.2033 -75.067196 
L 185.835467 -75.067196 
L 185.467635 -75.067196 
L 185.099802 -75.067196 
L 184.73197 -75.067196 
L 184.364137 -75.067196 
L 183.996305 -75.067196 
L 183.628472 -75.307791 
L 183.26064 -75.350849 
L 182.892807 -75.678583 
L 182.524975 -75.678583 
L 182.157142 -75.678583 
L 181.78931 -75.678583 
L 181.421477 -75.678583 
L 181.053645 -75.678583 
L 180.685812 -75.678583 
L 180.31798 -75.840175 
L 179.950147 -75.837129 
L 179.582315 -76.114024 
L 179.214482 -76.587456 
L 178.84665 -76.70186 
L 178.478817 -76.70186 
L 178.110985 -76.70186 
L 177.743152 -76.70186 
L 177.37532 -76.70186 
L 177.007487 -76.70186 
L 176.639655 -76.70186 
L 176.271822 -76.934691 
L 175.90399 -76.975599 
L 175.536157 -77.041831 
L 175.168325 -77.041831 
L 174.800492 -77.041831 
L 174.43266 -77.041831 
L 174.064827 -77.041831 
L 173.696995 -77.041831 
L 173.329162 -77.041831 
L 172.96133 -77.041831 
L 172.593497 -77.041831 
L 172.225664 -77.041831 
L 171.857832 -77.041831 
L 171.489999 -77.041831 
L 171.122167 -77.041831 
L 170.754334 -77.041831 
L 170.386502 -77.164867 
L 170.018669 -77.164867 
L 169.650837 -77.164867 
L 169.283004 -78.003732 
L 168.915172 -78.003732 
L 168.547339 -78.003732 
L 168.179507 -78.003732 
L 167.811674 -78.603824 
L 167.443842 -78.603824 
L 167.076009 -78.733809 
L 166.708177 -78.733809 
L 166.340344 -78.733809 
L 165.972512 -78.733809 
L 165.604679 -78.733809 
L 165.236847 -78.733809 
L 164.869014 -78.878742 
L 164.501182 -78.878742 
L 164.133349 -78.878742 
L 163.765517 -78.878742 
L 163.397684 -78.878742 
L 163.029852 -78.878742 
L 162.662019 -78.878742 
L 162.294187 -78.878742 
L 161.926354 -78.878742 
L 161.558522 -78.951493 
L 161.190689 -78.951493 
L 160.822857 -78.951493 
L 160.455024 -79.023774 
L 160.087192 -79.023774 
L 159.719359 -79.217664 
L 159.351527 -79.217664 
L 158.983694 -79.217664 
L 158.615862 -79.217664 
L 158.248029 -79.217664 
L 157.880197 -79.272703 
L 157.512364 -79.414397 
L 157.144532 -79.414397 
L 156.776699 -79.414397 
L 156.408867 -79.440421 
L 156.041034 -79.496512 
L 155.673202 -79.496512 
L 155.305369 -79.496512 
L 154.937536 -79.816952 
L 154.569704 -79.816952 
L 154.201871 -79.816952 
L 153.834039 -79.817576 
L 153.466206 -79.85376 
L 153.098374 -79.85376 
L 152.730541 -79.85376 
L 152.362709 -79.74955 
L 151.994876 -79.74955 
L 151.627044 -79.74955 
L 151.259211 -80.27869 
L 150.891379 -80.27869 
L 150.523546 -80.27869 
L 150.155714 -80.300016 
L 149.787881 -80.300016 
L 149.420049 -80.54425 
L 149.052216 -80.54425 
L 148.684384 -80.54425 
L 148.316551 -80.758009 
L 147.948719 -80.934381 
L 147.580886 -80.934381 
L 147.213054 -80.934381 
L 146.845221 -80.934381 
L 146.477389 -80.934381 
L 146.109556 -80.934381 
L 145.741724 -80.934381 
L 145.373891 -80.934381 
L 145.006059 -81.940412 
L 144.638226 -82.0361 
L 144.270394 -82.0361 
L 143.902561 -82.0361 
L 143.534729 -82.389287 
L 143.166896 -82.389287 
L 142.799064 -82.389287 
L 142.431231 -82.392564 
L 142.063399 -82.392564 
L 141.695566 -82.392564 
L 141.327734 -82.392564 
L 140.959901 -82.392564 
L 140.592069 -82.392564 
L 140.224236 -82.392564 
L 139.856404 -82.392564 
L 139.488571 -82.392564 
L 139.120739 -82.392564 
L 138.752906 -82.392564 
L 138.385073 -82.392564 
L 138.017241 -82.392564 
L 137.649408 -82.636782 
L 137.281576 -82.636782 
L 136.913743 -82.636782 
L 136.545911 -82.793095 
L 136.178078 -82.793095 
L 135.810246 -82.793095 
L 135.442413 -82.793095 
L 135.074581 -82.793095 
L 134.706748 -82.793095 
L 134.338916 -82.793095 
L 133.971083 -82.793095 
L 133.603251 -82.726484 
L 133.235418 -82.726484 
L 132.867586 -82.726484 
L 132.499753 -82.726484 
L 132.131921 -82.726484 
L 131.764088 -82.726484 
L 131.396256 -83.105706 
L 131.028423 -83.105706 
L 130.660591 -83.324 
L 130.292758 -83.324 
L 129.924926 -83.324 
L 129.557093 -83.324 
L 129.189261 -83.596121 
L 128.821428 -83.655677 
L 128.453596 -83.749693 
L 128.085763 -83.749693 
L 127.717931 -83.767677 
L 127.350098 -83.767677 
L 126.982266 -84.05583 
L 126.614433 -84.519599 
L 126.246601 -84.849913 
L 125.878768 -84.875411 
L 125.510936 -84.875411 
L 125.143103 -84.875411 
L 124.775271 -84.875411 
L 124.407438 -84.875411 
L 124.039606 -84.875411 
L 123.671773 -84.875411 
L 123.303941 -84.875411 
L 122.936108 -84.875411 
L 122.568276 -84.875411 
L 122.200443 -85.030187 
L 121.83261 -85.030187 
L 121.464778 -85.030187 
L 121.096945 -85.030187 
L 120.729113 -85.030187 
L 120.36128 -85.027386 
L 119.993448 -85.232915 
L 119.625615 -85.232915 
L 119.257783 -85.232915 
L 118.88995 -85.647466 
L 118.522118 -85.777858 
L 118.154285 -85.777858 
L 117.786453 -85.777858 
L 117.41862 -85.777858 
L 117.050788 -85.777858 
L 116.682955 -85.777858 
L 116.315123 -85.811903 
L 115.94729 -85.811903 
L 115.579458 -85.811903 
L 115.211625 -85.811903 
L 114.843793 -85.811903 
L 114.47596 -85.811903 
L 114.108128 -85.811903 
L 113.740295 -85.928825 
L 113.372463 -85.891482 
L 113.00463 -85.891482 
L 112.636798 -85.891482 
L 112.268965 -85.891482 
L 111.901133 -85.891482 
L 111.5333 -86.013337 
L 111.165468 -86.013337 
L 110.797635 -86.013337 
L 110.429803 -86.013337 
L 110.06197 -86.013337 
L 109.694138 -86.013337 
L 109.326305 -86.132228 
L 108.958473 -86.132228 
L 108.59064 -86.275024 
L 108.222808 -86.275024 
L 107.854975 -86.275024 
L 107.487143 -86.275024 
L 107.11931 -86.647723 
L 106.751478 -87.25234 
L 106.383645 -87.452855 
L 106.015813 -87.452855 
L 105.64798 -87.452855 
L 105.280147 -87.452855 
L 104.912315 -87.452855 
L 104.544482 -88.100741 
L 104.17665 -88.100741 
L 103.808817 -88.100741 
L 103.440985 -88.100741 
L 103.073152 -88.100741 
L 102.70532 -88.312429 
L 102.337487 -88.810476 
L 101.969655 -89.388512 
L 101.601822 -89.449356 
L 101.23399 -89.449356 
L 100.866157 -89.540672 
L 100.498325 -89.540672 
L 100.130492 -91.114637 
L 99.76266 -91.183087 
L 99.394827 -91.229626 
L 99.026995 -91.229626 
L 98.659162 -91.229626 
L 98.29133 -91.761749 
L 97.923497 -92.816871 
L 97.555665 -92.816871 
L 97.187832 -92.816871 
L 96.82 -92.862953 
L 96.452167 -92.862953 
L 96.084335 -92.862953 
L 95.716502 -92.862953 
L 95.34867 -92.941859 
L 94.980837 -92.941859 
L 94.613005 -92.941859 
L 94.245172 -92.941859 
L 93.87734 -92.941859 
L 93.509507 -94.5108 
L 93.141675 -94.5108 
L 92.773842 -94.784836 
L 92.40601 -94.784836 
L 92.038177 -94.864915 
L 91.670345 -95.642132 
L 91.302512 -96.984934 
L 90.93468 -97.086623 
L 90.566847 -97.169724 
L 90.199015 -98.183854 
L 89.831182 -98.183854 
L 89.46335 -98.183854 
L 89.095517 -98.29306 
L 88.727684 -98.318069 
L 88.359852 -98.433108 
L 87.992019 -98.433108 
L 87.624187 -98.433108 
L 87.256354 -98.433108 
L 86.888522 -98.433108 
L 86.520689 -98.755364 
L 86.152857 -98.755364 
L 85.785024 -98.755364 
L 85.417192 -98.755364 
L 85.049359 -99.82958 
L 84.681527 -99.82958 
L 84.313694 -100.25585 
L 83.945862 -100.25585 
L 83.578029 -100.25585 
L 83.210197 -100.25585 
L 82.842364 -100.25585 
L 82.474532 -103.1043 
L 82.106699 -103.1043 
L 81.738867 -103.1043 
L 81.371034 -103.1043 
L 81.003202 -103.267809 
L 80.635369 -104.961081 
L 80.267537 -106.127289 
L 79.899704 -106.284723 
L 79.531872 -106.284723 
L 79.164039 -106.495244 
L 78.796207 -106.495244 
L 78.428374 -106.495244 
L 78.060542 -106.495244 
L 77.692709 -106.495244 
L 77.324877 -106.495244 
L 76.957044 -106.495244 
L 76.589212 -106.495244 
L 76.221379 -106.495244 
L 75.853547 -106.495244 
L 75.485714 -106.909437 
L 75.117882 -106.978553 
L 74.750049 -106.978553 
L 74.382217 -107.078373 
L 74.014384 -107.078373 
L 73.646552 -107.078373 
L 73.278719 -107.277653 
L 72.910887 -107.277653 
L 72.543054 -107.277653 
L 72.175221 -107.516855 
L 71.807389 -107.516855 
L 71.439556 -107.516855 
L 71.071724 -108.883454 
L 70.703891 -113.300536 
L 70.336059 -113.300536 
L 69.968226 -113.300536 
L 69.600394 -113.300536 
L 69.232561 -113.950023 
L 68.864729 -113.950023 
L 68.496896 -116.936875 
L 68.129064 -116.936875 
L 67.761231 -117.113861 
L 67.393399 -117.741135 
L 67.025566 -118.208871 
L 66.657734 -118.345809 
L 66.289901 -118.345809 
L 65.922069 -119.251072 
L 65.554236 -121.570919 
L 65.186404 -121.97399 
L 64.818571 -123.80537 
L 64.450739 -123.80537 
L 64.082906 -123.80537 
L 63.715074 -125.968329 
L 63.347241 -127.407543 
L 62.979409 -130.589566 
L 62.611576 -130.589566 
L 62.243744 -131.604023 
L 61.875911 -132.635949 
L 61.508079 -132.635949 
L 61.140246 -135.675651 
L 60.772414 -135.649032 
L 60.404581 -135.649032 
L 60.036749 -135.798927 
L 59.668916 -138.230217 
L 59.301084 -138.230217 
L 58.933251 -138.643939 
L 58.565419 -141.481786 
L 58.197586 -142.166744 
L 57.829754 -143.727663 
L 57.461921 -145.895123 
L 57.094089 -149.183384 
L 56.726256 -150.280808 
L 56.358424 -151.028315 
L 55.990591 -151.070554 
L 55.622759 -151.070554 
L 55.254926 -151.070554 
z
"/>
    </defs>
    <g clip-path="url(#p8e891528e7)">
     <use xlink:href="#mb9c8cd5ec4" x="0" y="163.953281" style="fill: #f4a3a8; fill-opacity: 0.35"/>
    </g>
   </g>
   <g id="matplotlib.axis_1">
    <g id="xtick_1">
     <g id="line2d_1">
      <defs>
       <path id="m6e55881eb8" d="M 0 0 
L 0 3 
" style="stroke: #000000; stroke-width: 0.7"/>
      </defs>
      <g>
       <use xlink:href="#m6e55881eb8" x="55.254926" y="132.22" style="stroke: #000000; stroke-width: 0.7"/>
      </g>
     </g>
     <g id="text_1">
      <text style="font-size: 6.5px; font-family: 'Arial', 'Helvetica', 'DejaVu Sans', sans-serif; text-anchor: middle" x="55.254926" y="143.658984" transform="rotate(-0 55.254926 143.658984)">0.0</text>
     </g>
    </g>
    <g id="xtick_2">
     <g id="line2d_2">
      <g>
       <use xlink:href="#m6e55881eb8" x="92.038177" y="132.22" style="stroke: #000000; stroke-width: 0.7"/>
      </g>
     </g>
     <g id="text_2">
      <text style="font-size: 6.5px; font-family: 'Arial', 'Helvetica', 'DejaVu Sans', sans-serif; text-anchor: middle" x="92.038177" y="143.658984" transform="rotate(-0 92.038177 143.658984)">0.2</text>
     </g>
    </g>
    <g id="xtick_3">
     <g id="line2d_3">
      <g>
       <use xlink:href="#m6e55881eb8" x="128.821428" y="132.22" style="stroke: #000000; stroke-width: 0.7"/>
      </g>
     </g>
     <g id="text_3">
      <text style="font-size: 6.5px; font-family: 'Arial', 'Helvetica', 'DejaVu Sans', sans-serif; text-anchor: middle" x="128.821428" y="143.658984" transform="rotate(-0 128.821428 143.658984)">0.4</text>
     </g>
    </g>
    <g id="xtick_4">
     <g id="line2d_4">
      <g>
       <use xlink:href="#m6e55881eb8" x="165.604679" y="132.22" style="stroke: #000000; stroke-width: 0.7"/>
      </g>
     </g>
     <g id="text_4">
      <text style="font-size: 6.5px; font-family: 'Arial', 'Helvetica', 'DejaVu Sans', sans-serif; text-anchor: middle" x="165.604679" y="143.658984" transform="rotate(-0 165.604679 143.658984)">0.6</text>
     </g>
    </g>
    <g id="xtick_5">
     <g id="line2d_5">
      <g>
       <use xlink:href="#m6e55881eb8" x="202.38793" y="132.22" style="stroke: #000000; stroke-width: 0.7"/>
      </g>
     </g>
     <g id="text_5">
      <text style="font-size: 6.5px; font-family: 'Arial', 'Helvetica', 'DejaVu Sans', sans-serif; text-anchor: middle" x="202.38793" y="143.658984" transform="rotate(-0 202.38793 143.658984)">0.8</text>
     </g>
    </g>
    <g id="xtick_6">
     <g id="line2d_6">
      <g>
       <use xlink:href="#m6e55881eb8" x="239.171182" y="132.22" style="stroke: #000000; stroke-width: 0.7"/>
      </g>
     </g>
     <g id="text_6">
      <text style="font-size: 6.5px; font-family: 'Arial', 'Helvetica', 'DejaVu Sans', sans-serif; text-anchor: middle" x="239.171182" y="143.658984" transform="rotate(-0 239.171182 143.658984)">1.0</text>
     </g>
    </g>
    <g id="text_7">
     <text style="font-size: 8px; font-family: 'Arial', 'Helvetica', 'DejaVu Sans', sans-serif; text-anchor: middle" x="147.213054" y="155.089531" transform="rotate(-0 147.213054 155.089531)">Normalized optimization progress</text>
    </g>
   </g>
   <g id="matplotlib.axis_2">
    <g id="ytick_1">
     <g id="line2d_7">
      <defs>
       <path id="md6cfef0c43" d="M 0 0 
L -3 0 
" style="stroke: #000000; stroke-width: 0.7"/>
      </defs>
      <g>
       <use xlink:href="#md6cfef0c43" x="55.254926" y="117.927126" style="stroke: #000000; stroke-width: 0.7"/>
      </g>
     </g>
     <g id="text_8">
      <text style="font-size: 6.5px; font-family: 'Arial', 'Helvetica', 'DejaVu Sans', sans-serif; text-anchor: end" x="48.754926" y="120.396618" transform="rotate(-0 48.754926 120.396618)">0.2</text>
     </g>
    </g>
    <g id="ytick_2">
     <g id="line2d_8">
      <g>
       <use xlink:href="#md6cfef0c43" x="55.254926" y="91.666026" style="stroke: #000000; stroke-width: 0.7"/>
      </g>
     </g>
     <g id="text_9">
      <text style="font-size: 6.5px; font-family: 'Arial', 'Helvetica', 'DejaVu Sans', sans-serif; text-anchor: end" x="48.754926" y="94.135519" transform="rotate(-0 48.754926 94.135519)">0.4</text>
     </g>
    </g>
    <g id="ytick_3">
     <g id="line2d_9">
      <g>
       <use xlink:href="#md6cfef0c43" x="55.254926" y="65.404927" style="stroke: #000000; stroke-width: 0.7"/>
      </g>
     </g>
     <g id="text_10">
      <text style="font-size: 6.5px; font-family: 'Arial', 'Helvetica', 'DejaVu Sans', sans-serif; text-anchor: end" x="48.754926" y="67.874419" transform="rotate(-0 48.754926 67.874419)">0.6</text>
     </g>
    </g>
    <g id="ytick_4">
     <g id="line2d_10">
      <g>
       <use xlink:href="#md6cfef0c43" x="55.254926" y="39.143827" style="stroke: #000000; stroke-width: 0.7"/>
      </g>
     </g>
     <g id="text_11">
      <text style="font-size: 6.5px; font-family: 'Arial', 'Helvetica', 'DejaVu Sans', sans-serif; text-anchor: end" x="48.754926" y="41.613319" transform="rotate(-0 48.754926 41.613319)">0.8</text>
     </g>
    </g>
    <g id="ytick_5">
     <g id="line2d_11">
      <g>
       <use xlink:href="#md6cfef0c43" x="55.254926" y="12.882727" style="stroke: #000000; stroke-width: 0.7"/>
      </g>
     </g>
     <g id="text_12">
      <text style="font-size: 6.5px; font-family: 'Arial', 'Helvetica', 'DejaVu Sans', sans-serif; text-anchor: end" x="48.754926" y="15.352219" transform="rotate(-0 48.754926 15.352219)">1.0</text>
     </g>
    </g>
   </g>
   <g id="line2d_12">
    <path d="M 55.254926 12.882727 
L 57.461921 12.980593 
L 57.829754 14.409099 
L 58.197586 24.869884 
L 58.565419 24.869884 
L 58.933251 31.369833 
L 59.668916 31.369833 
L 60.036749 31.916371 
L 62.979409 31.916371 
L 63.715074 40.157691 
L 65.186404 40.235404 
L 65.554236 40.331091 
L 65.922069 44.970784 
L 66.289901 46.781311 
L 68.496896 46.781311 
L 68.864729 52.519732 
L 69.232561 52.519732 
L 69.600394 53.182337 
L 70.703891 53.182337 
L 71.071724 56.191984 
L 72.175221 56.191984 
L 72.543054 56.670388 
L 73.278719 56.670388 
L 73.646552 55.653079 
L 79.164039 55.653079 
L 79.531872 56.074122 
L 80.635369 56.074122 
L 81.003202 57.563412 
L 81.371034 57.563412 
L 81.738867 58.115979 
L 85.785024 58.115979 
L 86.152857 59.623184 
L 86.520689 60.446421 
L 87.624187 60.446421 
L 87.992019 60.804231 
L 88.359852 63.131536 
L 90.566847 63.131536 
L 90.93468 63.283933 
L 92.038177 63.283933 
L 92.40601 63.644994 
L 96.452167 63.644994 
L 96.82 64.214763 
L 99.76266 64.214763 
L 100.130492 64.648804 
L 101.601822 64.648804 
L 101.969655 65.756836 
L 102.337487 66.104254 
L 102.70532 66.104254 
L 103.073152 67.853627 
L 104.17665 67.853627 
L 104.544482 68.896235 
L 104.912315 68.896235 
L 105.280147 70.412893 
L 105.64798 70.412893 
L 106.015813 72.569892 
L 110.429803 72.569892 
L 110.797635 75.452711 
L 119.993448 75.54503 
L 120.36128 76.120072 
L 121.096945 76.120072 
L 121.464778 75.81655 
L 121.83261 76.675127 
L 125.510936 76.700476 
L 125.878768 77.074455 
L 131.764088 77.074455 
L 132.131921 78.734827 
L 145.373891 78.734827 
L 145.741724 79.51539 
L 148.316551 79.51539 
L 148.684384 79.848656 
L 152.730541 79.848656 
L 153.098374 80.204359 
L 153.466206 80.204359 
L 153.834039 82.019561 
L 155.673202 82.019561 
L 156.041034 82.642165 
L 156.776699 82.642165 
L 157.144532 83.027728 
L 167.811674 83.027728 
L 168.179507 83.332817 
L 171.122167 83.332817 
L 171.489999 83.759974 
L 171.857832 83.759974 
L 172.225664 85.159975 
L 183.26064 85.168825 
L 183.628472 85.335786 
L 188.778127 85.335786 
L 189.14596 85.561308 
L 214.526403 85.665611 
L 214.894236 85.932931 
L 239.171182 85.929969 
L 239.171182 85.929969 
" clip-path="url(#p8e891528e7)" style="fill: none; stroke: #b8b8b8; stroke-opacity: 0.28; stroke-width: 0.75; stroke-linecap: square"/>
   </g>
   <g id="line2d_13">
    <path d="M 55.254926 12.882727 
L 55.622759 12.882727 
L 55.990591 13.641856 
L 57.094089 31.873815 
L 57.461921 32.571343 
L 57.829754 34.338814 
L 59.301084 34.338814 
L 59.668916 34.697736 
L 60.036749 38.31909 
L 62.611576 38.426703 
L 62.979409 42.495597 
L 63.715074 42.495597 
L 64.082906 43.046712 
L 64.450739 43.046712 
L 64.818571 43.723179 
L 65.186404 43.723179 
L 65.554236 44.433634 
L 66.657734 44.433634 
L 67.025566 44.70751 
L 67.393399 45.642982 
L 68.129064 52.480124 
L 68.496896 52.480124 
L 68.864729 55.468151 
L 69.232561 56.680869 
L 73.278719 56.680869 
L 73.646552 58.096737 
L 74.382217 58.096737 
L 74.750049 58.296378 
L 75.117882 58.296378 
L 75.485714 58.434609 
L 75.853547 59.262994 
L 79.899704 59.262994 
L 80.267537 59.577862 
L 81.003202 59.523461 
L 81.371034 59.85048 
L 85.417192 59.85048 
L 85.785024 60.24362 
L 86.520689 60.340622 
L 91.302512 60.340622 
L 91.670345 60.71112 
L 92.038177 66.780562 
L 93.509507 66.780562 
L 93.87734 70.28897 
L 95.34867 70.28897 
L 95.716502 70.446783 
L 97.923497 70.538946 
L 98.29133 72.807109 
L 104.17665 72.722395 
L 104.544482 72.931678 
L 104.912315 72.931678 
L 105.280147 73.589171 
L 106.015813 73.53457 
L 106.383645 73.742773 
L 108.59064 73.742773 
L 108.958473 73.932543 
L 110.429803 73.932543 
L 110.797635 74.520813 
L 111.165468 74.717833 
L 111.901133 74.717833 
L 112.268965 74.030668 
L 115.94729 74.030668 
L 116.682955 75.282991 
L 117.050788 75.282991 
L 117.41862 75.942421 
L 117.786453 76.18987 
L 118.88995 76.18987 
L 119.257783 77.500174 
L 119.993448 77.500174 
L 120.36128 77.911232 
L 125.878768 77.905628 
L 126.982266 77.956625 
L 127.350098 77.956625 
L 127.717931 78.104551 
L 129.189261 78.104551 
L 129.557093 79.232253 
L 131.396256 79.232253 
L 131.764088 79.990697 
L 146.109556 79.990697 
L 146.477389 80.634021 
L 146.845221 81.053111 
L 149.420049 81.053111 
L 149.787881 81.200008 
L 154.937536 81.200008 
L 155.673202 81.313329 
L 158.248029 81.313329 
L 158.615862 81.530919 
L 166.708177 81.616972 
L 167.076009 82.835049 
L 169.283004 82.835049 
L 169.650837 83.181844 
L 172.96133 83.2608 
L 173.329162 83.497393 
L 179.214482 83.497393 
L 179.582315 83.755381 
L 186.938965 83.77874 
L 187.306797 83.51428 
L 190.61729 83.51428 
L 190.985123 83.782144 
L 195.03128 83.782144 
L 195.399113 84.802833 
L 210.480246 84.863923 
L 210.848078 85.137156 
L 211.215911 85.764496 
L 213.422906 85.764496 
L 213.790738 86.329975 
L 233.653694 86.393508 
L 234.389359 86.457617 
L 239.171182 86.457617 
L 239.171182 86.457617 
" clip-path="url(#p8e891528e7)" style="fill: none; stroke: #b8b8b8; stroke-opacity: 0.28; stroke-width: 0.75; stroke-linecap: square"/>
   </g>
   <g id="line2d_14">
    <path d="M 55.254926 12.882727 
L 55.622759 12.882727 
L 55.990591 13.323232 
L 56.358424 13.323232 
L 56.726256 19.562211 
L 57.094089 19.562211 
L 57.461921 20.616686 
L 57.829754 25.381696 
L 59.668916 25.381696 
L 60.036749 27.569172 
L 61.508079 27.62622 
L 61.875911 27.861697 
L 62.243744 28.685815 
L 63.715074 28.685815 
L 64.082906 33.380628 
L 64.818571 33.380628 
L 65.186404 47.078939 
L 66.289901 47.078939 
L 66.657734 46.897529 
L 67.761231 46.897529 
L 68.129064 47.251501 
L 68.496896 47.251501 
L 68.864729 47.486784 
L 69.232561 47.486784 
L 69.600394 48.123153 
L 70.703891 48.123153 
L 71.071724 53.947671 
L 72.175221 53.947671 
L 72.543054 54.261142 
L 79.164039 54.309288 
L 79.531872 55.185175 
L 89.46335 55.185175 
L 89.831182 56.198464 
L 91.302512 56.198464 
L 91.670345 57.303697 
L 92.40601 57.303697 
L 92.773842 59.931456 
L 96.82 59.938425 
L 97.187832 60.549606 
L 100.498325 60.549606 
L 100.866157 62.763814 
L 101.23399 63.545258 
L 103.808817 63.545258 
L 104.17665 63.908881 
L 106.015813 63.908881 
L 106.383645 63.627884 
L 107.11931 63.627884 
L 107.487143 67.108744 
L 107.854975 67.385456 
L 108.222808 67.910071 
L 109.694138 67.910071 
L 110.06197 69.23868 
L 111.165468 69.23868 
L 111.5333 70.137181 
L 111.901133 70.137181 
L 112.268965 73.175582 
L 112.636798 73.978602 
L 121.464778 73.972823 
L 121.83261 74.986262 
L 124.407438 74.986262 
L 124.775271 75.251821 
L 125.143103 75.251821 
L 125.510936 74.982477 
L 138.017241 75.028364 
L 138.752906 75.142789 
L 139.120739 75.142789 
L 139.488571 75.593311 
L 146.109556 75.488598 
L 146.477389 76.276234 
L 153.834039 76.204418 
L 154.201871 77.135524 
L 158.248029 77.135524 
L 158.615862 77.345519 
L 159.351527 77.345519 
L 159.719359 77.643271 
L 161.190689 77.643271 
L 161.558522 77.392852 
L 166.340344 77.392852 
L 166.708177 77.653557 
L 178.84665 77.653557 
L 179.214482 80.632172 
L 179.582315 80.803668 
L 180.31798 80.803668 
L 180.685812 81.122189 
L 202.020098 81.197844 
L 202.38793 82.411147 
L 216.365566 82.465747 
L 216.733398 83.052554 
L 217.101231 83.052554 
L 217.469063 83.198225 
L 222.986551 83.198225 
L 223.354384 83.68335 
L 225.193546 83.683737 
L 225.561379 84.39208 
L 233.285861 84.360012 
L 233.653694 84.586433 
L 234.757191 84.586433 
L 235.125024 86.073173 
L 239.171182 86.073173 
L 239.171182 86.073173 
" clip-path="url(#p8e891528e7)" style="fill: none; stroke: #b8b8b8; stroke-opacity: 0.28; stroke-width: 0.75; stroke-linecap: square"/>
   </g>
   <g id="line2d_15">
    <path d="M 55.254926 12.882727 
L 55.990591 12.882727 
L 56.358424 20.908173 
L 56.726256 20.908173 
L 57.094089 27.580675 
L 58.197586 27.580675 
L 58.565419 31.882139 
L 58.933251 31.882139 
L 59.301084 32.461326 
L 60.036749 32.520332 
L 60.772414 32.520332 
L 61.140246 36.572959 
L 61.875911 36.666564 
L 62.243744 36.970941 
L 62.611576 37.088289 
L 63.347241 37.088289 
L 63.715074 37.586941 
L 64.082906 40.138131 
L 68.129064 40.138131 
L 68.496896 41.257856 
L 71.807389 41.257856 
L 72.175221 41.542036 
L 73.278719 41.542036 
L 73.646552 45.276238 
L 75.485714 45.276238 
L 75.853547 45.89851 
L 76.589212 45.89851 
L 76.957044 49.256582 
L 78.428374 49.256582 
L 78.796207 52.218277 
L 80.267537 52.218277 
L 80.635369 53.514661 
L 81.003202 53.514661 
L 81.371034 53.986197 
L 81.738867 53.986197 
L 82.106699 54.123082 
L 82.842364 54.123082 
L 83.210197 54.512394 
L 84.681527 54.512394 
L 85.049359 57.937546 
L 86.152857 57.937546 
L 86.520689 58.67847 
L 86.888522 58.489868 
L 87.624187 58.489868 
L 87.992019 59.561455 
L 88.359852 62.190167 
L 88.727684 63.169825 
L 89.46335 63.169825 
L 89.831182 63.469286 
L 90.199015 63.469286 
L 90.566847 63.810419 
L 91.302512 63.810419 
L 91.670345 65.226129 
L 92.40601 65.226129 
L 92.773842 65.955663 
L 93.141675 67.151088 
L 93.509507 67.151088 
L 93.87734 67.658355 
L 94.245172 67.894545 
L 96.82 67.894545 
L 97.187832 70.298169 
L 97.923497 70.298169 
L 98.29133 71.742862 
L 99.76266 71.742862 
L 100.130492 72.531011 
L 101.601822 72.524051 
L 101.969655 72.928798 
L 102.337487 74.08487 
L 106.751478 74.08487 
L 107.11931 75.294104 
L 107.487143 76.039503 
L 108.59064 76.039503 
L 108.958473 76.325094 
L 118.522118 76.410287 
L 118.88995 76.671072 
L 120.36128 76.671072 
L 120.729113 77.178184 
L 121.83261 77.178184 
L 122.200443 77.297417 
L 125.143103 77.297417 
L 125.510936 77.706045 
L 126.982266 77.706045 
L 127.350098 78.532932 
L 128.821428 78.568899 
L 129.189261 78.68801 
L 137.281576 78.691615 
L 137.649408 79.275838 
L 138.752906 79.275838 
L 139.120739 79.81498 
L 142.431231 79.81498 
L 142.799064 80.309877 
L 144.638226 80.309877 
L 145.006059 80.501252 
L 145.373891 82.513314 
L 149.420049 82.513314 
L 149.787881 83.001781 
L 152.362709 83.044433 
L 152.730541 82.836014 
L 154.937536 82.837262 
L 155.305369 83.478143 
L 157.512364 83.478143 
L 157.880197 83.627606 
L 160.455024 83.627606 
L 160.822857 83.772169 
L 167.076009 83.772169 
L 167.443842 84.032139 
L 167.811674 84.032139 
L 168.179507 85.232322 
L 169.283004 85.232322 
L 169.650837 86.910052 
L 170.386502 86.910052 
L 170.754334 87.983167 
L 177.743152 87.983167 
L 178.110985 89.698016 
L 184.364137 89.698016 
L 184.73197 89.843166 
L 185.835467 89.843166 
L 186.2033 91.344384 
L 196.870443 91.344384 
L 197.238275 92.747482 
L 222.618719 92.810107 
L 222.986551 93.046393 
L 225.561379 93.046393 
L 225.929211 93.223973 
L 235.860689 93.185746 
L 236.228521 93.937652 
L 239.171182 93.937652 
L 239.171182 93.937652 
" clip-path="url(#p8e891528e7)" style="fill: none; stroke: #b8b8b8; stroke-opacity: 0.28; stroke-width: 0.75; stroke-linecap: square"/>
   </g>
   <g id="line2d_16">
    <path d="M 55.254926 12.882727 
L 55.990591 12.882727 
L 56.358424 33.496324 
L 57.094089 33.496324 
L 57.461921 38.254573 
L 57.829754 40.581051 
L 58.565419 40.581051 
L 58.933251 41.806503 
L 59.668916 41.806503 
L 60.036749 45.591644 
L 60.404581 46.683181 
L 61.140246 54.206803 
L 61.508079 54.206803 
L 61.875911 59.378322 
L 62.611576 59.378322 
L 62.979409 60.56464 
L 63.715074 60.56464 
L 64.082906 62.849473 
L 64.450739 62.849473 
L 64.818571 64.676739 
L 65.554236 64.676739 
L 65.922069 64.980253 
L 67.393399 64.980253 
L 67.761231 65.3288 
L 68.129064 65.3288 
L 68.496896 69.649577 
L 69.968226 69.649577 
L 70.336059 70.968224 
L 70.703891 71.030559 
L 71.071724 71.988374 
L 74.750049 71.988374 
L 75.117882 72.853162 
L 76.589212 72.853162 
L 76.957044 73.187999 
L 77.324877 74.463091 
L 77.692709 74.848719 
L 81.003202 74.848719 
L 81.371034 75.12323 
L 81.738867 76.046539 
L 82.474532 76.046539 
L 82.842364 77.194291 
L 83.210197 77.493217 
L 83.578029 77.493217 
L 83.945862 80.747742 
L 84.313694 80.747742 
L 84.681527 81.1466 
L 87.256354 81.231565 
L 87.992019 81.319256 
L 88.727684 81.319256 
L 89.095517 81.446547 
L 90.199015 81.446547 
L 90.93468 85.561285 
L 92.773842 85.561285 
L 93.141675 86.080324 
L 94.980837 86.080324 
L 95.716502 87.34064 
L 96.084335 87.34064 
L 96.452167 87.616298 
L 97.187832 87.616298 
L 97.555665 87.854829 
L 101.969655 87.854829 
L 102.337487 87.99772 
L 107.11931 88.033708 
L 107.487143 88.225957 
L 114.47596 88.30007 
L 114.843793 88.894705 
L 118.522118 88.894705 
L 118.88995 90.62418 
L 119.257783 91.394425 
L 119.625615 91.560945 
L 124.775271 91.560945 
L 125.143103 92.096132 
L 127.350098 92.096132 
L 127.717931 92.958304 
L 131.396256 92.958304 
L 131.764088 93.183555 
L 142.063399 93.183555 
L 142.431231 93.365448 
L 142.799064 94.189146 
L 149.787881 94.189146 
L 150.155714 94.460603 
L 155.305369 94.460603 
L 155.673202 95.096144 
L 158.983694 95.096144 
L 159.351527 95.433703 
L 161.190689 95.433703 
L 161.558522 95.727577 
L 166.708177 95.727577 
L 167.076009 95.906965 
L 167.443842 97.278935 
L 172.96133 97.278935 
L 173.329162 97.697335 
L 174.800492 97.697335 
L 175.168325 97.90504 
L 178.110985 97.90504 
L 178.478817 98.160775 
L 184.364137 98.160775 
L 184.73197 98.953551 
L 204.962758 99.029028 
L 205.33059 99.403627 
L 205.698423 99.403627 
L 206.066256 99.856329 
L 214.526403 99.856329 
L 214.894236 101.571733 
L 223.722216 101.571733 
L 224.090049 101.743716 
L 224.457881 101.743716 
L 225.193546 101.860197 
L 225.561379 101.860197 
L 225.929211 101.672281 
L 228.136206 101.672281 
L 228.504039 102.101633 
L 236.964186 102.101633 
L 237.332019 103.080791 
L 239.171182 103.080791 
L 239.171182 103.080791 
" clip-path="url(#p8e891528e7)" style="fill: none; stroke: #b8b8b8; stroke-opacity: 0.28; stroke-width: 0.75; stroke-linecap: square"/>
   </g>
   <g id="line2d_17">
    <path d="M 55.254926 12.882727 
L 55.622759 28.850486 
L 58.933251 28.850486 
L 59.301084 31.587509 
L 59.668916 31.763804 
L 60.404581 31.763804 
L 60.772414 32.1178 
L 61.140246 34.568669 
L 61.508079 34.568669 
L 61.875911 34.840766 
L 62.243744 36.675288 
L 62.611576 39.948606 
L 62.979409 40.970595 
L 63.347241 41.39273 
L 63.715074 44.779808 
L 64.082906 49.330629 
L 64.450739 49.849294 
L 64.818571 49.849294 
L 65.186404 50.725133 
L 65.554236 50.725133 
L 65.922069 51.50761 
L 67.761231 51.568638 
L 68.129064 62.395586 
L 68.496896 62.395586 
L 68.864729 62.742555 
L 69.968226 62.742555 
L 70.336059 62.935661 
L 70.703891 62.824229 
L 71.071724 62.973861 
L 72.910887 62.973861 
L 73.278719 64.76694 
L 73.646552 64.76694 
L 74.014384 67.744851 
L 74.382217 74.147729 
L 75.117882 74.147729 
L 75.485714 75.18575 
L 76.589212 75.18575 
L 76.957044 76.750645 
L 77.692709 76.750645 
L 78.060542 77.354024 
L 78.428374 77.354024 
L 78.796207 77.776954 
L 79.899704 77.776954 
L 80.267537 79.054999 
L 80.635369 79.054999 
L 81.003202 79.877204 
L 84.313694 79.877204 
L 84.681527 81.219892 
L 85.049359 81.219892 
L 85.417192 81.539543 
L 86.520689 81.539543 
L 86.888522 82.578538 
L 87.256354 82.578538 
L 87.624187 83.262892 
L 89.46335 83.262892 
L 89.831182 86.937478 
L 91.302512 86.937478 
L 91.670345 86.66831 
L 97.923497 86.66831 
L 98.29133 87.606984 
L 99.76266 87.606984 
L 100.130492 87.89622 
L 102.337487 87.89622 
L 102.70532 88.366942 
L 106.751478 88.366942 
L 107.11931 88.789387 
L 108.958473 88.789387 
L 109.326305 89.869287 
L 118.522118 89.869287 
L 118.88995 90.836546 
L 126.982266 90.889602 
L 127.350098 91.061518 
L 138.385073 91.163569 
L 138.752906 91.430871 
L 142.799064 91.430871 
L 143.166896 94.491553 
L 145.373891 94.491553 
L 145.741724 94.651502 
L 155.673202 94.651502 
L 156.041034 95.088112 
L 157.512364 95.052608 
L 160.455024 95.110613 
L 161.190689 95.167829 
L 167.443842 95.167829 
L 167.811674 94.829739 
L 197.238275 94.86407 
L 197.606108 95.28853 
L 237.699851 95.224362 
L 238.067684 96.034324 
L 239.171182 96.034324 
L 239.171182 96.034324 
" clip-path="url(#p8e891528e7)" style="fill: none; stroke: #b8b8b8; stroke-opacity: 0.28; stroke-width: 0.75; stroke-linecap: square"/>
   </g>
   <g id="line2d_18">
    <path d="M 55.254926 12.882727 
L 57.094089 12.882727 
L 57.461921 13.453124 
L 57.829754 13.453124 
L 58.197586 13.685252 
L 58.565419 13.685252 
L 58.933251 34.57209 
L 59.668916 34.596369 
L 60.036749 39.58846 
L 61.140246 39.58846 
L 61.508079 41.270446 
L 62.243744 41.270446 
L 62.611576 52.290748 
L 62.979409 56.270542 
L 64.082906 56.270542 
L 64.450739 61.403188 
L 65.554236 61.403188 
L 65.922069 64.681443 
L 67.025566 64.681443 
L 67.393399 65.615617 
L 67.761231 66.085868 
L 68.129064 66.085868 
L 68.496896 71.679816 
L 69.600394 71.679816 
L 69.968226 74.969915 
L 70.336059 75.484557 
L 71.071724 75.484557 
L 71.439556 76.376052 
L 74.014384 76.376052 
L 74.382217 76.787382 
L 75.485714 76.787382 
L 75.853547 77.560107 
L 76.957044 77.560107 
L 77.324877 77.887777 
L 79.164039 77.887777 
L 79.531872 78.252456 
L 81.371034 78.282038 
L 81.738867 79.517804 
L 82.474532 79.517804 
L 82.842364 79.867579 
L 83.945862 79.867579 
L 85.049359 80.118345 
L 85.417192 80.118345 
L 85.785024 80.58281 
L 86.152857 80.58281 
L 86.520689 80.708717 
L 88.359852 80.708717 
L 88.727684 83.404558 
L 89.095517 83.95876 
L 93.509507 83.95876 
L 93.87734 84.579011 
L 96.82 84.688727 
L 97.187832 85.201096 
L 98.29133 85.201096 
L 98.659162 86.402472 
L 99.394827 86.454244 
L 99.76266 86.686179 
L 101.969655 86.686179 
L 102.337487 88.68764 
L 102.70532 88.917453 
L 107.11931 88.917453 
L 107.487143 90.082958 
L 108.958473 90.082958 
L 109.326305 90.252396 
L 109.694138 90.252396 
L 110.06197 91.446992 
L 113.740295 91.405873 
L 114.108128 91.99854 
L 114.47596 91.99854 
L 114.843793 92.333148 
L 118.522118 92.321142 
L 118.88995 92.458562 
L 122.200443 92.458562 
L 122.568276 93.062695 
L 124.039606 93.098565 
L 124.407438 93.401075 
L 128.085763 93.460781 
L 128.453596 94.910113 
L 136.178078 94.910206 
L 136.545911 95.93338 
L 138.385073 95.93338 
L 138.752906 96.098112 
L 145.373891 96.095061 
L 145.741724 96.219081 
L 147.580886 96.219081 
L 147.948719 98.712826 
L 151.627044 98.712826 
L 151.994876 99.198825 
L 167.443842 99.279323 
L 167.811674 101.153612 
L 176.271822 101.258648 
L 176.639655 101.71059 
L 182.892807 101.81723 
L 183.26064 102.024616 
L 190.985123 102.080116 
L 191.352955 102.204679 
L 198.341773 102.259637 
L 198.709605 102.383149 
L 231.078866 102.383149 
L 231.446699 102.866257 
L 239.171182 102.866257 
L 239.171182 102.866257 
" clip-path="url(#p8e891528e7)" style="fill: none; stroke: #b8b8b8; stroke-opacity: 0.28; stroke-width: 0.75; stroke-linecap: square"/>
   </g>
   <g id="line2d_19">
    <path d="M 55.254926 12.882727 
L 57.094089 12.882727 
L 57.461921 21.976988 
L 57.829754 21.976988 
L 58.197586 22.518779 
L 59.668916 22.518779 
L 60.036749 25.456568 
L 60.404581 25.456568 
L 60.772414 26.893677 
L 62.611576 26.893677 
L 62.979409 27.271739 
L 63.347241 27.271739 
L 63.715074 27.131139 
L 65.186404 27.131139 
L 65.554236 31.155865 
L 65.922069 31.155865 
L 66.289901 32.080904 
L 67.393399 32.080904 
L 67.761231 36.140125 
L 68.496896 36.140125 
L 68.864729 36.454208 
L 69.232561 36.454208 
L 69.600394 38.488176 
L 72.175221 38.488176 
L 72.543054 38.78348 
L 73.646552 38.78348 
L 74.014384 40.093619 
L 76.221379 40.093619 
L 76.589212 40.483771 
L 77.324877 40.483771 
L 77.692709 41.308321 
L 79.531872 41.308321 
L 79.899704 41.542447 
L 80.267537 41.542447 
L 80.635369 41.857753 
L 81.003202 61.847483 
L 84.313694 61.847483 
L 84.681527 62.700022 
L 85.049359 62.700022 
L 85.417192 62.971738 
L 86.520689 62.971738 
L 86.888522 63.616251 
L 89.095517 63.666269 
L 89.46335 63.88468 
L 95.716502 63.994994 
L 96.084335 64.182859 
L 97.555665 64.182859 
L 97.923497 66.241094 
L 98.29133 66.241094 
L 98.659162 77.83003 
L 102.70532 77.83003 
L 103.073152 79.458336 
L 104.17665 79.458336 
L 104.544482 79.635592 
L 106.751478 79.635592 
L 107.11931 89.264585 
L 107.487143 89.264585 
L 107.854975 93.92705 
L 108.222808 93.92705 
L 108.59064 102.842793 
L 108.958473 102.842793 
L 109.326305 104.331269 
L 109.694138 104.888563 
L 111.901133 104.888563 
L 112.268965 105.110417 
L 117.786453 105.084531 
L 118.154285 105.677009 
L 119.993448 105.68628 
L 120.36128 105.839465 
L 121.096945 105.839465 
L 121.464778 106.008332 
L 122.568276 105.956433 
L 122.936108 106.299628 
L 125.143103 106.299628 
L 125.510936 108.006135 
L 125.878768 108.633062 
L 130.292758 108.657545 
L 130.660591 109.729596 
L 132.131921 109.729596 
L 132.499753 110.024468 
L 132.867586 110.160106 
L 133.235418 111.444373 
L 134.338916 111.536471 
L 136.178078 111.907901 
L 136.913743 111.907901 
L 137.281576 112.101747 
L 139.488571 112.101747 
L 139.856404 112.730016 
L 161.190689 112.79606 
L 161.926354 112.861428 
L 163.765517 112.861428 
L 164.133349 113.247235 
L 164.869014 113.313698 
L 179.950147 113.341061 
L 180.685812 113.434256 
L 181.78931 113.465299 
L 182.157142 113.743201 
L 221.883053 113.843747 
L 222.618719 113.92371 
L 235.492856 113.9203 
L 235.860689 114.047556 
L 239.171182 114.047556 
L 239.171182 114.047556 
" clip-path="url(#p8e891528e7)" style="fill: none; stroke: #b8b8b8; stroke-opacity: 0.28; stroke-width: 0.75; stroke-linecap: square"/>
   </g>
   <g id="line2d_20">
    <path d="M 55.254926 12.882727 
L 55.622759 21.727634 
L 57.461921 21.727634 
L 57.829754 25.547401 
L 58.197586 25.547401 
L 58.565419 28.136124 
L 59.301084 42.012075 
L 59.668916 42.012075 
L 60.036749 44.33905 
L 60.772414 44.33905 
L 61.140246 45.99117 
L 61.508079 59.446003 
L 61.875911 60.649396 
L 62.243744 61.379215 
L 66.657734 61.379215 
L 67.393399 63.213612 
L 69.232561 63.213612 
L 69.600394 66.421826 
L 69.968226 71.311314 
L 70.336059 71.311314 
L 70.703891 71.886616 
L 71.807389 71.886616 
L 72.175221 73.210179 
L 72.910887 73.210179 
L 73.278719 77.330903 
L 73.646552 77.797547 
L 74.014384 77.797547 
L 74.382217 80.777569 
L 77.324877 80.777569 
L 77.692709 80.933034 
L 78.060542 80.933034 
L 78.428374 82.335142 
L 78.796207 83.1347 
L 81.738867 83.1347 
L 82.106699 83.746294 
L 82.474532 83.746294 
L 82.842364 84.32266 
L 86.152857 84.32266 
L 86.520689 84.671018 
L 87.624187 84.671018 
L 87.992019 84.812332 
L 89.095517 84.812332 
L 89.46335 85.295107 
L 90.199015 85.295107 
L 90.566847 86.201357 
L 91.670345 86.201357 
L 92.038177 86.583643 
L 96.452167 86.583643 
L 96.82 87.71708 
L 98.659162 87.71708 
L 99.026995 88.913097 
L 100.866157 88.913097 
L 101.23399 89.703089 
L 101.969655 89.648914 
L 102.337487 89.821916 
L 106.015813 89.821916 
L 106.383645 90.530777 
L 107.854975 90.530777 
L 108.222808 91.435327 
L 111.901133 91.435327 
L 112.268965 91.62822 
L 118.522118 91.62822 
L 118.88995 91.914544 
L 119.993448 91.914544 
L 120.36128 92.532888 
L 121.096945 92.532888 
L 121.464778 92.948542 
L 122.936108 92.956527 
L 123.303941 93.172642 
L 134.706748 93.245905 
L 135.074581 93.975841 
L 141.695566 93.975841 
L 142.063399 94.412131 
L 147.580886 94.412131 
L 147.948719 95.105511 
L 173.329162 95.107657 
L 173.696995 95.353251 
L 186.2033 95.353251 
L 186.938965 95.570864 
L 239.171182 95.609169 
L 239.171182 95.609169 
" clip-path="url(#p8e891528e7)" style="fill: none; stroke: #b8b8b8; stroke-opacity: 0.28; stroke-width: 0.75; stroke-linecap: square"/>
   </g>
   <g id="line2d_21">
    <path d="M 55.254926 12.882727 
L 55.622759 15.37715 
L 55.990591 15.37715 
L 56.726256 27.961946 
L 58.197586 27.961946 
L 58.933251 36.825014 
L 59.301084 36.825014 
L 59.668916 37.632905 
L 60.772414 37.632905 
L 61.140246 39.109618 
L 61.508079 52.408364 
L 61.875911 52.408364 
L 62.243744 56.112975 
L 62.611576 56.579015 
L 62.979409 56.579015 
L 63.347241 58.399489 
L 63.715074 58.399489 
L 64.082906 58.627446 
L 64.450739 60.819183 
L 68.129064 60.819183 
L 68.496896 60.952621 
L 68.864729 61.427524 
L 69.232561 61.561735 
L 71.071724 61.561735 
L 71.439556 62.221505 
L 74.382217 62.221505 
L 74.750049 62.818219 
L 76.957044 62.818219 
L 77.324877 63.02696 
L 78.796207 63.02696 
L 79.164039 67.098495 
L 79.899704 67.098495 
L 80.267537 70.336639 
L 81.738867 70.436291 
L 82.106699 71.146143 
L 82.474532 71.146143 
L 82.842364 70.761831 
L 83.210197 71.652376 
L 83.578029 71.652376 
L 83.945862 71.944023 
L 88.727684 71.944023 
L 89.095517 73.594163 
L 96.084335 73.594163 
L 96.452167 74.597724 
L 96.82 74.728946 
L 97.187832 76.180473 
L 97.555665 76.180473 
L 97.923497 76.752707 
L 100.866157 76.752707 
L 101.601822 78.506292 
L 103.808817 78.506292 
L 104.17665 78.915982 
L 106.383645 78.915982 
L 106.751478 79.713312 
L 113.740295 79.638625 
L 114.108128 79.940559 
L 122.200443 79.940559 
L 122.568276 80.250112 
L 126.246601 80.250112 
L 126.614433 80.91074 
L 126.982266 82.058029 
L 127.350098 82.210089 
L 130.292758 82.210089 
L 130.660591 82.462897 
L 133.603251 82.462897 
L 133.971083 82.329676 
L 137.649408 82.329676 
L 138.017241 82.818112 
L 143.534729 82.818112 
L 143.902561 83.524486 
L 147.948719 83.524486 
L 148.684384 84.304749 
L 151.259211 84.304749 
L 151.627044 85.363029 
L 153.466206 85.363029 
L 153.834039 85.547578 
L 157.512364 85.599626 
L 157.880197 85.843627 
L 159.719359 85.843627 
L 160.087192 86.231408 
L 161.558522 86.231408 
L 161.926354 86.37691 
L 164.869014 86.37691 
L 165.236847 86.666776 
L 175.536157 86.666776 
L 175.90399 86.79924 
L 176.271822 86.79924 
L 176.639655 87.264901 
L 179.582315 87.264901 
L 179.950147 87.818692 
L 180.31798 87.812598 
L 180.685812 88.135782 
L 182.892807 88.135782 
L 183.26064 88.791251 
L 183.628472 88.877366 
L 183.996305 89.245108 
L 189.513793 89.245108 
L 189.881625 89.83375 
L 190.249458 90.11191 
L 193.55995 90.207308 
L 193.927783 90.660698 
L 196.50261 90.702404 
L 196.870443 90.865314 
L 197.97394 90.865314 
L 198.341773 90.994696 
L 214.158571 90.994696 
L 214.526403 91.250069 
L 217.101231 91.250069 
L 217.469063 92.276696 
L 218.940393 92.276696 
L 219.308226 92.534088 
L 222.250886 92.534088 
L 222.618719 92.69435 
L 239.171182 92.714078 
L 239.171182 92.714078 
" clip-path="url(#p8e891528e7)" style="fill: none; stroke: #b8b8b8; stroke-opacity: 0.28; stroke-width: 0.75; stroke-linecap: square"/>
   </g>
   <g id="line2d_22">
    <path d="M 55.254926 12.882727 
L 55.990591 12.967205 
L 56.358424 12.967205 
L 56.726256 14.364353 
L 57.094089 14.364353 
L 57.461921 26.005511 
L 60.404581 26.064434 
L 60.772414 26.368652 
L 61.140246 26.368652 
L 61.875911 74.831232 
L 62.243744 77.334031 
L 62.979409 77.334031 
L 63.347241 79.488461 
L 64.818571 79.488461 
L 65.186404 79.724517 
L 65.554236 79.724517 
L 65.922069 80.640775 
L 66.657734 80.640775 
L 67.025566 86.260641 
L 67.393399 87.165207 
L 69.600394 87.165207 
L 69.968226 88.454856 
L 70.336059 88.940521 
L 70.703891 88.940521 
L 71.071724 89.117842 
L 71.439556 89.815381 
L 71.807389 89.815381 
L 72.175221 91.045055 
L 72.910887 91.045055 
L 73.278719 91.287455 
L 76.589212 91.377938 
L 76.957044 91.734108 
L 80.635369 91.807173 
L 81.371034 93.421683 
L 82.106699 93.421683 
L 82.474532 94.09563 
L 84.313694 94.094679 
L 84.681527 95.152419 
L 85.785024 95.152419 
L 86.152857 95.514118 
L 87.624187 95.514118 
L 87.992019 95.969036 
L 88.359852 95.969036 
L 88.727684 96.25224 
L 89.095517 96.25224 
L 89.46335 97.423331 
L 94.613005 97.447229 
L 94.980837 97.537701 
L 95.34867 98.50476 
L 95.716502 100.766707 
L 96.084335 101.713516 
L 99.026995 101.690683 
L 99.394827 101.921084 
L 99.76266 102.435563 
L 100.498325 102.435563 
L 100.866157 104.113143 
L 101.23399 104.113143 
L 101.601822 104.274438 
L 104.544482 104.274438 
L 104.912315 105.553036 
L 106.383645 105.553036 
L 106.751478 105.76889 
L 107.487143 105.76889 
L 107.854975 106.323495 
L 109.326305 106.403309 
L 111.901133 106.755957 
L 112.268965 106.957752 
L 113.372463 107.005562 
L 114.843793 107.005562 
L 115.211625 107.200586 
L 115.579458 109.86164 
L 115.94729 110.273114 
L 116.315123 110.430912 
L 116.682955 110.430912 
L 117.41862 111.118728 
L 118.522118 111.118728 
L 118.88995 111.299851 
L 121.096945 111.299851 
L 121.464778 114.417264 
L 123.303941 114.417264 
L 123.671773 117.546628 
L 126.982266 117.628106 
L 127.350098 118.014018 
L 128.821428 118.014018 
L 129.189261 118.391634 
L 131.764088 118.391634 
L 132.131921 118.739738 
L 133.603251 118.739738 
L 133.971083 119.80561 
L 134.338916 119.946369 
L 141.327734 119.927394 
L 141.695566 120.306136 
L 142.431231 120.386738 
L 145.006059 120.386738 
L 145.373891 121.090995 
L 145.741724 121.090995 
L 146.109556 123.211497 
L 146.477389 123.584958 
L 147.213054 123.584958 
L 147.580886 124.289356 
L 151.259211 124.313725 
L 151.627044 124.606531 
L 176.639655 124.712513 
L 177.743152 124.749785 
L 180.685812 124.749785 
L 181.053645 124.884484 
L 188.778127 124.884484 
L 189.14596 125.041315 
L 199.813103 125.143854 
L 200.180935 125.45087 
L 229.607536 125.485038 
L 230.343201 125.574626 
L 239.171182 125.668275 
L 239.171182 125.668275 
" clip-path="url(#p8e891528e7)" style="fill: none; stroke: #b8b8b8; stroke-opacity: 0.28; stroke-width: 0.75; stroke-linecap: square"/>
   </g>
   <g id="line2d_23">
    <path d="M 55.254926 12.882727 
L 55.622759 12.882727 
L 55.990591 15.962908 
L 56.726256 15.962908 
L 57.094089 17.306442 
L 57.461921 17.306442 
L 57.829754 21.148862 
L 58.197586 21.148862 
L 58.565419 24.578547 
L 58.933251 29.425758 
L 59.301084 29.425758 
L 59.668916 30.730032 
L 60.036749 35.157438 
L 60.404581 35.424843 
L 60.772414 35.424843 
L 61.140246 36.235123 
L 61.508079 40.616514 
L 61.875911 42.415166 
L 62.243744 44.904433 
L 62.611576 44.658111 
L 62.979409 44.658111 
L 63.347241 48.469263 
L 63.715074 48.608227 
L 64.082906 51.124419 
L 64.450739 52.175251 
L 65.922069 52.175251 
L 66.289901 52.947343 
L 66.657734 52.947343 
L 67.025566 56.861059 
L 69.968226 56.861059 
L 70.336059 58.462789 
L 71.071724 58.462789 
L 71.439556 58.748056 
L 71.807389 60.331727 
L 75.117882 60.331727 
L 75.485714 61.793562 
L 76.221379 61.796649 
L 76.589212 62.47885 
L 78.428374 62.47885 
L 78.796207 62.87648 
L 79.164039 65.308641 
L 79.899704 65.308641 
L 80.267537 66.096642 
L 80.635369 69.709804 
L 81.371034 69.709804 
L 81.738867 70.130004 
L 82.106699 70.130004 
L 82.474532 70.409957 
L 89.46335 70.409957 
L 89.831182 71.134449 
L 90.93468 71.134449 
L 91.302512 71.39617 
L 92.038177 71.39617 
L 92.40601 71.556328 
L 92.773842 71.556328 
L 93.141675 71.733874 
L 99.394827 71.733874 
L 99.76266 72.733279 
L 100.130492 72.870179 
L 100.498325 76.01811 
L 100.866157 76.01811 
L 101.23399 76.200741 
L 102.337487 76.200741 
L 102.70532 77.196833 
L 103.073152 77.620211 
L 104.544482 77.620211 
L 104.912315 79.634747 
L 105.280147 79.275382 
L 109.326305 79.317013 
L 109.694138 79.554795 
L 111.5333 79.554795 
L 111.901133 79.872469 
L 116.315123 79.872469 
L 116.682955 80.853724 
L 117.050788 81.183648 
L 125.510936 81.270449 
L 125.878768 81.738443 
L 126.614433 81.838278 
L 128.453596 81.838278 
L 128.821428 82.02631 
L 130.660591 82.02631 
L 131.028423 83.069054 
L 132.131921 83.069054 
L 132.499753 83.546971 
L 134.338916 83.546971 
L 134.706748 83.675239 
L 135.442413 83.675239 
L 135.810246 84.041724 
L 141.327734 84.140888 
L 141.695566 84.605341 
L 143.166896 84.605341 
L 143.534729 85.059391 
L 145.373891 85.050343 
L 145.741724 85.266533 
L 149.420049 85.328118 
L 149.787881 85.467279 
L 156.041034 85.435396 
L 156.408867 85.733551 
L 157.880197 85.733551 
L 158.248029 86.882974 
L 159.351527 86.882974 
L 159.719359 87.109613 
L 175.90399 87.156124 
L 176.639655 87.237941 
L 178.84665 87.237941 
L 179.214482 87.466748 
L 179.582315 88.413614 
L 183.628472 88.413614 
L 184.364137 88.527064 
L 198.709605 88.443298 
L 199.813103 88.399644 
L 208.641083 88.399644 
L 209.008916 89.151587 
L 210.480246 89.151587 
L 210.848078 89.326131 
L 213.422906 89.326131 
L 213.790738 89.650433 
L 224.825714 89.650433 
L 225.193546 90.037936 
L 228.871871 90.037936 
L 229.239704 90.489426 
L 239.171182 90.560525 
L 239.171182 90.560525 
" clip-path="url(#p8e891528e7)" style="fill: none; stroke: #b8b8b8; stroke-opacity: 0.28; stroke-width: 0.75; stroke-linecap: square"/>
   </g>
   <g id="line2d_24">
    <path d="M 55.254926 12.882727 
L 55.622759 12.882727 
L 55.990591 15.012797 
L 56.358424 15.012797 
L 56.726256 15.390921 
L 57.094089 15.390921 
L 57.461921 15.706974 
L 57.829754 15.79857 
L 58.197586 20.124992 
L 58.933251 20.124992 
L 59.301084 21.793602 
L 60.036749 21.793602 
L 60.404581 25.049539 
L 60.772414 26.501054 
L 62.243744 26.501054 
L 62.611576 33.945286 
L 62.979409 33.945286 
L 63.347241 35.271439 
L 63.715074 35.545668 
L 64.818571 35.545668 
L 65.186404 35.902123 
L 65.554236 35.902123 
L 65.922069 37.827912 
L 66.289901 37.827912 
L 66.657734 38.387889 
L 67.025566 38.387889 
L 67.393399 41.219361 
L 68.496896 41.219361 
L 68.864729 41.653042 
L 69.232561 43.565241 
L 69.600394 43.565241 
L 69.968226 45.482232 
L 72.543054 45.482232 
L 72.910887 47.34539 
L 73.278719 47.34539 
L 73.646552 49.285248 
L 74.014384 49.285248 
L 74.382217 48.941518 
L 74.750049 49.337635 
L 75.117882 49.337635 
L 75.485714 50.018532 
L 77.692709 50.018532 
L 78.060542 50.157911 
L 79.899704 50.157911 
L 80.267537 51.422114 
L 80.635369 58.406538 
L 82.474532 58.406538 
L 82.842364 65.54738 
L 85.049359 65.54738 
L 85.417192 67.424096 
L 88.359852 67.424096 
L 88.727684 67.654174 
L 90.199015 67.654174 
L 90.566847 69.682434 
L 90.93468 69.738323 
L 91.302512 69.941701 
L 91.670345 71.904365 
L 92.40601 71.904365 
L 92.773842 72.213591 
L 94.613005 72.213591 
L 94.980837 72.715573 
L 101.969655 72.640202 
L 102.337487 73.105476 
L 104.544482 73.105476 
L 104.912315 73.396552 
L 107.854975 73.420207 
L 108.222808 74.177229 
L 117.050788 74.177229 
L 117.41862 74.491342 
L 119.257783 74.491342 
L 119.625615 74.650209 
L 120.729113 74.650209 
L 121.096945 75.338147 
L 122.200443 75.338147 
L 122.568276 75.726264 
L 122.936108 75.726264 
L 123.303941 75.917142 
L 127.350098 75.917142 
L 127.717931 77.015756 
L 128.085763 77.17395 
L 128.453596 77.959494 
L 136.545911 77.959494 
L 136.913743 80.303323 
L 146.109556 80.303323 
L 146.477389 80.92542 
L 153.098374 80.92542 
L 153.466206 81.402898 
L 155.673202 81.402898 
L 156.041034 82.371902 
L 164.133349 82.321083 
L 164.501182 82.682848 
L 164.869014 82.682848 
L 165.236847 82.805957 
L 166.340344 82.805957 
L 166.708177 83.026811 
L 167.076009 83.026811 
L 167.443842 82.744686 
L 177.37532 82.744686 
L 177.743152 83.170113 
L 185.467635 83.170113 
L 185.835467 83.601857 
L 186.2033 83.472445 
L 201.652265 83.472445 
L 202.020098 84.241297 
L 229.607536 84.322797 
L 229.975369 85.576705 
L 232.182364 85.670949 
L 232.918029 85.772273 
L 239.171182 85.772273 
L 239.171182 85.772273 
" clip-path="url(#p8e891528e7)" style="fill: none; stroke: #b8b8b8; stroke-opacity: 0.28; stroke-width: 0.75; stroke-linecap: square"/>
   </g>
   <g id="line2d_25">
    <path d="M 55.254926 12.882727 
L 57.094089 12.882727 
L 57.829754 25.236989 
L 58.933251 25.236989 
L 59.301084 26.575843 
L 59.668916 28.739538 
L 61.140246 28.739538 
L 61.508079 30.718294 
L 61.875911 30.718294 
L 62.243744 32.782145 
L 62.979409 32.782145 
L 63.347241 38.382964 
L 63.715074 38.382964 
L 64.082906 49.000438 
L 64.450739 53.091335 
L 67.393399 53.091335 
L 67.761231 53.418884 
L 68.129064 53.418884 
L 68.496896 56.160522 
L 68.864729 57.161807 
L 70.336059 57.161807 
L 70.703891 57.532777 
L 71.071724 57.732693 
L 71.439556 57.732693 
L 71.807389 65.165102 
L 73.278719 65.165102 
L 73.646552 66.150619 
L 74.382217 66.150619 
L 74.750049 67.095807 
L 75.117882 67.095807 
L 75.485714 68.214449 
L 76.589212 68.214449 
L 76.957044 68.522348 
L 78.060542 68.522348 
L 78.428374 68.638914 
L 78.796207 69.426487 
L 82.474532 69.460418 
L 82.842364 71.810959 
L 85.417192 71.810959 
L 85.785024 73.307852 
L 88.727684 73.307852 
L 89.095517 77.713378 
L 89.831182 77.713378 
L 90.199015 78.053344 
L 92.40601 78.053344 
L 93.141675 79.345805 
L 94.980837 79.345805 
L 95.34867 79.978745 
L 99.76266 79.978745 
L 100.130492 81.063781 
L 100.498325 81.063781 
L 100.866157 81.451561 
L 101.23399 82.021461 
L 101.601822 82.176881 
L 101.969655 82.176881 
L 102.337487 82.420289 
L 103.808817 82.420289 
L 104.17665 82.590567 
L 106.383645 82.488424 
L 106.751478 82.839539 
L 116.682955 82.839539 
L 117.050788 84.286934 
L 118.88995 84.286934 
L 119.257783 84.544958 
L 119.625615 85.066528 
L 120.36128 85.066528 
L 120.729113 85.417514 
L 123.303941 85.417514 
L 123.671773 85.731303 
L 130.292758 85.731303 
L 130.660591 88.048952 
L 135.074581 88.048952 
L 135.442413 88.45789 
L 138.752906 88.45789 
L 139.120739 89.374938 
L 140.592069 89.374938 
L 140.959901 89.646336 
L 144.638226 89.646336 
L 145.006059 90.151055 
L 149.052216 90.151055 
L 149.420049 90.010903 
L 151.627044 90.010903 
L 151.994876 90.545007 
L 152.730541 90.545007 
L 153.098374 90.903051 
L 167.076009 90.930188 
L 167.443842 90.410574 
L 167.811674 90.410574 
L 168.179507 90.889642 
L 172.593497 90.889642 
L 172.96133 91.687688 
L 177.007487 91.687688 
L 177.37532 91.846828 
L 194.663448 91.946561 
L 195.03128 92.074901 
L 201.284433 92.111812 
L 201.652265 92.409173 
L 221.515221 92.481157 
L 221.883053 93.002512 
L 239.171182 93.027916 
L 239.171182 93.027916 
" clip-path="url(#p8e891528e7)" style="fill: none; stroke: #b8b8b8; stroke-opacity: 0.28; stroke-width: 0.75; stroke-linecap: square"/>
   </g>
   <g id="line2d_26">
    <path d="M 55.254926 12.882727 
L 55.622759 18.234174 
L 55.990591 18.553951 
L 56.726256 18.553951 
L 57.094089 21.738432 
L 57.461921 21.738432 
L 57.829754 27.779252 
L 58.197586 42.689796 
L 58.933251 42.689796 
L 59.301084 58.100989 
L 59.668916 58.75961 
L 60.772414 58.75961 
L 61.140246 60.835751 
L 63.347241 60.835751 
L 64.082906 62.66999 
L 64.450739 62.931791 
L 64.818571 62.931791 
L 65.186404 63.408495 
L 65.922069 63.408495 
L 66.657734 66.038332 
L 67.025566 66.722118 
L 67.393399 66.722118 
L 67.761231 66.475125 
L 68.864729 66.475125 
L 69.232561 66.734484 
L 69.600394 66.734484 
L 69.968226 67.730691 
L 70.336059 69.980604 
L 70.703891 70.896937 
L 71.071724 70.896937 
L 71.439556 72.269239 
L 72.175221 72.269239 
L 72.543054 73.147533 
L 73.278719 73.147533 
L 73.646552 73.84179 
L 74.014384 73.84179 
L 74.382217 76.310895 
L 75.485714 76.310895 
L 75.853547 77.583508 
L 78.796207 77.676746 
L 79.164039 79.195929 
L 81.003202 79.195929 
L 81.371034 79.679521 
L 83.210197 79.679521 
L 83.578029 80.622276 
L 85.417192 80.622276 
L 85.785024 81.034198 
L 86.152857 81.810354 
L 86.888522 81.810354 
L 87.256354 81.965295 
L 89.095517 81.965295 
L 89.46335 82.115124 
L 100.130492 82.115124 
L 100.498325 84.215647 
L 101.969655 84.215647 
L 102.337487 84.387085 
L 103.073152 84.387085 
L 103.440985 85.642572 
L 105.280147 85.642572 
L 105.64798 87.919172 
L 112.636798 87.966256 
L 113.00463 88.681496 
L 114.108128 88.681496 
L 114.47596 88.824491 
L 115.94729 88.824491 
L 116.315123 89.580408 
L 116.682955 89.580408 
L 117.050788 90.172594 
L 117.41862 92.227855 
L 117.786453 92.550527 
L 119.257783 92.550527 
L 119.625615 92.987434 
L 122.200443 92.987434 
L 122.568276 93.307993 
L 125.510936 93.307993 
L 126.246601 95.043308 
L 126.982266 95.043308 
L 127.350098 95.513109 
L 127.717931 96.461573 
L 131.396256 96.481011 
L 131.764088 96.839289 
L 135.442413 96.839289 
L 135.810246 98.497716 
L 136.178078 98.497716 
L 136.545911 99.463618 
L 146.109556 99.49653 
L 146.477389 99.88647 
L 149.420049 99.88647 
L 149.787881 100.448755 
L 154.937536 100.448755 
L 155.305369 101.307544 
L 156.041034 101.307544 
L 156.408867 101.593065 
L 166.708177 101.609299 
L 167.076009 101.793434 
L 178.478817 101.793434 
L 178.84665 102.147066 
L 182.524975 102.246997 
L 182.892807 102.374667 
L 183.996305 102.374667 
L 184.364137 102.10093 
L 185.099802 102.10093 
L 185.467635 102.234433 
L 187.67463 102.234433 
L 188.042462 103.277772 
L 188.778127 103.277772 
L 189.14596 104.151241 
L 209.008916 104.05812 
L 209.376748 104.633755 
L 217.836896 104.633755 
L 218.204728 104.798005 
L 221.515221 104.798005 
L 221.883053 105.243812 
L 239.171182 105.243812 
L 239.171182 105.243812 
" clip-path="url(#p8e891528e7)" style="fill: none; stroke: #b8b8b8; stroke-opacity: 0.28; stroke-width: 0.75; stroke-linecap: square"/>
   </g>
   <g id="line2d_27">
    <path d="M 55.254926 12.882727 
L 56.358424 12.882727 
L 56.726256 19.302374 
L 58.197586 19.302374 
L 58.565419 19.140487 
L 58.933251 55.634323 
L 59.301084 56.698243 
L 59.668916 58.752753 
L 60.404581 58.752753 
L 60.772414 62.262792 
L 61.140246 64.306612 
L 62.979409 64.306612 
L 63.347241 80.212009 
L 65.186404 80.212009 
L 65.554236 80.535102 
L 66.657734 80.535102 
L 67.025566 83.475439 
L 67.393399 83.811467 
L 68.129064 83.811467 
L 68.496896 84.083726 
L 69.232561 84.083726 
L 69.600394 84.297403 
L 70.336059 84.297403 
L 70.703891 84.41935 
L 71.439556 84.41935 
L 71.807389 85.392542 
L 72.175221 85.990021 
L 72.543054 85.990021 
L 72.910887 88.95446 
L 74.750049 88.95446 
L 75.117882 90.075154 
L 76.589212 90.075154 
L 76.957044 91.278756 
L 77.324877 91.278756 
L 77.692709 91.705639 
L 80.635369 91.705639 
L 81.003202 91.885119 
L 82.106699 91.885119 
L 82.474532 92.124978 
L 84.681527 92.124978 
L 85.049359 93.612163 
L 86.520689 93.612163 
L 86.888522 94.268485 
L 87.256354 94.448321 
L 89.831182 94.546081 
L 90.199015 95.440605 
L 90.566847 97.867171 
L 98.29133 97.867171 
L 99.026995 97.753408 
L 99.394827 97.753408 
L 99.76266 98.602537 
L 100.498325 98.602537 
L 100.866157 99.653867 
L 101.23399 99.653867 
L 101.601822 101.340608 
L 101.969655 101.546042 
L 103.808817 101.546042 
L 104.17665 101.710748 
L 104.544482 101.710748 
L 104.912315 101.928351 
L 105.280147 102.428795 
L 106.751478 102.506779 
L 107.11931 103.037779 
L 113.372463 103.037779 
L 114.108128 103.261732 
L 114.843793 103.261732 
L 115.211625 105.847538 
L 117.050788 105.862682 
L 117.41862 106.657286 
L 118.88995 106.657286 
L 119.257783 106.864462 
L 122.200443 106.929706 
L 122.568276 107.124532 
L 126.246601 107.124532 
L 126.614433 107.489104 
L 133.603251 107.489104 
L 133.971083 108.064613 
L 134.338916 108.044945 
L 134.706748 108.69138 
L 138.752906 108.65634 
L 139.120739 108.931148 
L 145.006059 108.931148 
L 145.373891 109.218931 
L 146.109556 109.218931 
L 146.477389 109.475875 
L 149.420049 109.552837 
L 149.787881 109.692787 
L 153.466206 109.737144 
L 153.834039 109.10048 
L 158.248029 109.02673 
L 158.615862 109.607636 
L 162.294187 109.647088 
L 162.662019 109.941541 
L 165.236847 109.941541 
L 165.604679 110.331459 
L 165.972512 110.331459 
L 166.340344 110.67684 
L 173.696995 110.676958 
L 174.064827 110.8662 
L 184.73197 110.95822 
L 185.099802 111.247686 
L 203.123595 111.228633 
L 203.491428 117.458064 
L 203.85926 117.765277 
L 210.112413 117.790458 
L 211.215911 118.090472 
L 214.158571 118.090472 
L 214.526403 118.540098 
L 220.411723 118.540098 
L 220.779556 118.752628 
L 239.171182 118.813867 
L 239.171182 118.813867 
" clip-path="url(#p8e891528e7)" style="fill: none; stroke: #b8b8b8; stroke-opacity: 0.28; stroke-width: 0.75; stroke-linecap: square"/>
   </g>
   <g id="line2d_28">
    <path d="M 55.254926 12.882727 
L 56.726256 12.882727 
L 57.094089 19.361087 
L 57.461921 19.361087 
L 57.829754 32.985498 
L 58.197586 32.985498 
L 58.565419 36.040906 
L 58.933251 36.040906 
L 59.301084 36.224215 
L 59.668916 39.433655 
L 60.036749 44.268536 
L 60.772414 44.268536 
L 61.140246 51.326333 
L 61.508079 68.962211 
L 62.243744 68.962211 
L 62.611576 69.837379 
L 64.450739 69.837379 
L 64.818571 74.805659 
L 66.289901 74.872325 
L 66.657734 77.50287 
L 71.071724 77.50287 
L 71.807389 78.990309 
L 72.910887 78.990309 
L 73.278719 79.809131 
L 73.646552 81.15494 
L 74.014384 81.15494 
L 74.382217 81.990311 
L 76.221379 81.990311 
L 76.589212 84.265951 
L 77.692709 84.265951 
L 78.060542 91.870153 
L 78.428374 92.945398 
L 79.899704 92.945398 
L 80.267537 93.056604 
L 80.635369 93.322715 
L 81.003202 93.322715 
L 81.371034 94.459122 
L 82.474532 94.459122 
L 82.842364 95.108538 
L 83.945862 95.083224 
L 84.313694 95.451963 
L 85.417192 95.420502 
L 86.152857 95.500774 
L 88.359852 95.500774 
L 89.095517 97.43157 
L 91.670345 97.43157 
L 92.038177 99.203365 
L 94.245172 99.254302 
L 94.613005 100.713012 
L 95.716502 100.713012 
L 96.084335 101.782225 
L 97.555665 101.782225 
L 97.923497 102.29797 
L 107.487143 102.29797 
L 107.854975 102.534358 
L 110.797635 102.534358 
L 111.165468 106.346335 
L 114.108128 106.346335 
L 114.47596 107.655553 
L 115.211625 107.655553 
L 115.579458 109.807111 
L 116.682955 109.807111 
L 117.050788 110.203862 
L 117.786453 110.203862 
L 118.154285 109.834894 
L 119.993448 109.834894 
L 120.36128 110.413435 
L 126.982266 110.413435 
L 127.350098 110.906944 
L 133.235418 110.906944 
L 133.603251 111.172402 
L 136.545911 111.172402 
L 136.913743 111.365545 
L 139.856404 111.365545 
L 140.224236 115.449027 
L 140.959901 115.449027 
L 141.327734 113.408207 
L 142.431231 113.408207 
L 142.799064 113.646266 
L 150.523546 113.646266 
L 150.891379 114.195547 
L 151.627044 114.195547 
L 151.994876 114.363362 
L 159.719359 114.363362 
L 160.087192 114.638158 
L 160.822857 114.744828 
L 161.190689 115.297697 
L 162.294187 115.353461 
L 164.501182 115.353461 
L 164.869014 115.700478 
L 199.077438 115.705785 
L 199.44527 115.524089 
L 200.180935 115.524089 
L 200.548768 115.943711 
L 221.515221 115.988668 
L 222.250886 116.095745 
L 225.561379 116.095745 
L 225.929211 116.6646 
L 236.228521 116.6646 
L 236.596354 117.724358 
L 239.171182 117.724358 
L 239.171182 117.724358 
" clip-path="url(#p8e891528e7)" style="fill: none; stroke: #b8b8b8; stroke-opacity: 0.28; stroke-width: 0.75; stroke-linecap: square"/>
   </g>
   <g id="line2d_29">
    <path d="M 55.254926 12.882727 
L 55.622759 12.882727 
L 55.990591 13.987296 
L 56.358424 16.823881 
L 57.829754 16.823881 
L 58.197586 16.98943 
L 58.565419 16.98943 
L 58.933251 17.640698 
L 59.668916 17.640698 
L 60.036749 42.905929 
L 60.404581 43.922565 
L 61.508079 43.922565 
L 61.875911 44.73537 
L 63.715074 44.73537 
L 64.082906 45.725291 
L 64.818571 45.725291 
L 65.554236 47.081643 
L 67.761231 47.09038 
L 68.129064 53.181448 
L 68.496896 53.181448 
L 68.864729 54.731528 
L 69.232561 65.653232 
L 69.600394 65.653232 
L 69.968226 69.086231 
L 70.336059 69.086231 
L 70.703891 72.295675 
L 71.439556 72.295675 
L 71.807389 77.858514 
L 72.175221 77.858514 
L 72.543054 78.379306 
L 74.014384 78.379306 
L 74.382217 78.986714 
L 74.750049 80.129596 
L 75.117882 80.129596 
L 75.485714 81.018729 
L 76.957044 81.018729 
L 77.324877 83.333355 
L 80.267537 83.333355 
L 80.635369 84.666822 
L 81.003202 84.666822 
L 81.371034 85.321269 
L 82.842364 85.321269 
L 83.210197 85.50392 
L 83.578029 85.50392 
L 83.945862 86.957455 
L 85.049359 86.957455 
L 85.417192 87.350398 
L 86.152857 87.350398 
L 86.520689 88.697985 
L 90.199015 88.697985 
L 90.566847 89.59093 
L 92.773842 89.59093 
L 93.141675 93.150846 
L 93.509507 93.150846 
L 93.87734 93.370964 
L 97.923497 93.370964 
L 98.29133 93.612177 
L 99.76266 93.612177 
L 100.130492 93.789774 
L 104.17665 93.789774 
L 104.544482 94.052234 
L 106.383645 94.052234 
L 106.751478 94.326253 
L 108.958473 94.326253 
L 109.326305 94.638922 
L 111.165468 94.671863 
L 111.5333 94.915084 
L 116.315123 94.961243 
L 116.682955 96.500043 
L 127.350098 96.500043 
L 127.717931 96.994159 
L 129.557093 96.994159 
L 129.924926 98.2236 
L 132.499753 98.2236 
L 132.867586 99.720744 
L 134.706748 99.720744 
L 135.074581 100.531229 
L 137.649408 100.531229 
L 138.017241 100.236222 
L 138.385073 100.812609 
L 143.166896 100.896943 
L 143.534729 101.69949 
L 145.006059 101.69949 
L 145.373891 101.382945 
L 149.052216 101.382945 
L 149.420049 101.063601 
L 161.190689 101.063601 
L 161.558522 101.768768 
L 171.857832 101.768768 
L 172.225664 102.340627 
L 179.582315 102.332954 
L 179.950147 102.836802 
L 188.778127 102.865524 
L 189.14596 103.126242 
L 193.55995 103.126242 
L 193.927783 103.612027 
L 194.663448 103.612027 
L 195.03128 106.365682 
L 195.399113 106.365682 
L 195.766945 107.494309 
L 201.652265 107.563698 
L 202.020098 107.070353 
L 204.227093 107.070353 
L 204.594925 106.92171 
L 209.376748 106.92171 
L 209.744581 107.358531 
L 211.951576 107.358531 
L 212.319408 107.592922 
L 216.733398 107.592922 
L 217.101231 108.129443 
L 234.021526 108.129443 
L 234.389359 107.866413 
L 236.964186 107.866413 
L 237.332019 108.403374 
L 239.171182 108.403374 
L 239.171182 108.403374 
" clip-path="url(#p8e891528e7)" style="fill: none; stroke: #b8b8b8; stroke-opacity: 0.28; stroke-width: 0.75; stroke-linecap: square"/>
   </g>
   <g id="line2d_30">
    <path d="M 55.254926 12.882727 
L 55.622759 12.882727 
L 55.990591 13.165416 
L 56.358424 13.165416 
L 56.726256 15.175442 
L 57.094089 15.175442 
L 57.461921 21.959874 
L 57.829754 21.959874 
L 58.197586 22.424211 
L 58.565419 22.424211 
L 58.933251 23.572431 
L 59.301084 23.967271 
L 59.668916 24.192184 
L 60.404581 27.868961 
L 61.508079 27.815723 
L 61.875911 28.819784 
L 62.243744 29.318371 
L 64.082906 29.318371 
L 64.450739 30.059543 
L 66.657734 30.059543 
L 67.025566 31.017192 
L 68.496896 31.017192 
L 68.864729 31.653155 
L 69.232561 31.653155 
L 69.600394 32.470899 
L 70.703891 32.470899 
L 71.071724 33.682019 
L 71.439556 67.378816 
L 71.807389 67.378816 
L 72.175221 67.641105 
L 73.646552 67.641105 
L 74.014384 67.981007 
L 76.589212 67.981007 
L 76.957044 83.89358 
L 78.428374 83.89358 
L 78.796207 84.256685 
L 79.164039 84.256685 
L 79.531872 85.75638 
L 79.899704 85.75638 
L 80.267537 85.917325 
L 80.635369 91.469758 
L 82.106699 91.469758 
L 82.474532 92.017195 
L 84.681527 92.017195 
L 85.049359 94.222296 
L 89.095517 94.222296 
L 89.46335 94.612592 
L 90.93468 94.612592 
L 91.302512 95.130125 
L 92.40601 95.130125 
L 92.773842 95.54048 
L 95.34867 95.54048 
L 95.716502 95.728436 
L 96.084335 101.476949 
L 98.659162 101.491771 
L 99.026995 113.779581 
L 104.544482 113.779581 
L 104.912315 117.590121 
L 107.854975 117.587413 
L 108.222808 119.392775 
L 109.694138 119.501319 
L 110.06197 119.827405 
L 113.740295 119.791527 
L 114.108128 119.970613 
L 114.47596 119.970613 
L 114.843793 120.667989 
L 116.315123 120.667989 
L 116.682955 120.984458 
L 117.786453 120.984458 
L 118.154285 121.669019 
L 119.257783 121.669019 
L 119.625615 124.235152 
L 119.993448 124.482271 
L 126.614433 124.482271 
L 126.982266 124.944196 
L 128.453596 124.944196 
L 128.821428 125.564607 
L 129.189261 125.909634 
L 151.627044 125.955848 
L 151.994876 126.329925 
L 174.800492 126.401291 
L 175.536157 126.506529 
L 185.467635 126.537273 
L 185.835467 126.012796 
L 189.513793 126.012796 
L 189.881625 126.375373 
L 239.171182 126.375373 
L 239.171182 126.375373 
" clip-path="url(#p8e891528e7)" style="fill: none; stroke: #b8b8b8; stroke-opacity: 0.28; stroke-width: 0.75; stroke-linecap: square"/>
   </g>
   <g id="line2d_31">
    <path d="M 55.254926 12.882727 
L 55.622759 14.606044 
L 55.990591 15.03325 
L 56.358424 17.332208 
L 57.094089 20.112884 
L 58.197586 26.222297 
L 58.565419 27.136395 
L 58.933251 31.562505 
L 59.301084 33.125735 
L 59.668916 33.705607 
L 60.036749 36.707242 
L 60.404581 37.086301 
L 60.772414 37.696102 
L 61.140246 38.997474 
L 61.508079 43.048609 
L 61.875911 44.865146 
L 62.243744 45.652091 
L 62.611576 46.85999 
L 62.979409 47.41973 
L 63.347241 49.268539 
L 63.715074 49.748082 
L 64.082906 51.328086 
L 64.450739 52.064283 
L 64.818571 52.457547 
L 65.186404 53.322097 
L 65.554236 53.62762 
L 65.922069 54.255062 
L 66.657734 54.736462 
L 67.025566 55.544672 
L 67.761231 56.331301 
L 68.129064 57.43615 
L 69.232561 59.664607 
L 69.600394 60.063163 
L 69.968226 60.895554 
L 70.703891 61.50127 
L 71.071724 62.108111 
L 71.439556 64.123685 
L 71.807389 64.984043 
L 72.910887 65.563572 
L 74.014384 66.680211 
L 74.382217 67.383495 
L 76.589212 68.306135 
L 76.957044 69.518664 
L 78.796207 70.716471 
L 79.164039 71.138728 
L 79.531872 71.305112 
L 79.899704 71.32166 
L 80.267537 71.698261 
L 81.003202 73.938531 
L 81.738867 74.327962 
L 82.474532 74.496358 
L 82.842364 75.11901 
L 83.578029 75.259953 
L 83.945862 75.523096 
L 84.313694 75.5488 
L 84.681527 75.741902 
L 85.049359 76.120849 
L 86.888522 76.857008 
L 87.992019 77.026346 
L 88.727684 77.56364 
L 89.095517 77.971637 
L 89.46335 78.098605 
L 89.831182 78.399228 
L 90.199015 78.464201 
L 90.566847 78.936784 
L 91.670345 79.337678 
L 92.038177 79.770495 
L 92.40601 79.797928 
L 93.141675 80.370148 
L 93.509507 80.370148 
L 93.87734 80.62573 
L 94.980837 80.753516 
L 95.716502 81.03734 
L 96.084335 81.455887 
L 96.82 81.619763 
L 97.187832 81.886651 
L 97.555665 81.899205 
L 98.29133 82.323088 
L 99.026995 83.701473 
L 99.394827 83.7136 
L 100.130492 84.003385 
L 101.23399 84.731162 
L 103.440985 85.565851 
L 104.17665 85.624182 
L 104.544482 85.713214 
L 104.912315 86.113864 
L 106.751478 86.58871 
L 107.11931 87.210569 
L 108.59064 88.487719 
L 108.958473 88.512738 
L 110.06197 88.886833 
L 110.429803 88.886833 
L 111.5333 89.344513 
L 111.901133 89.37419 
L 112.636798 89.573281 
L 114.843793 89.833728 
L 117.786453 90.938898 
L 118.88995 91.174185 
L 120.36128 91.647363 
L 121.096945 91.731459 
L 121.83261 92.008911 
L 123.303941 92.157188 
L 123.671773 92.338407 
L 125.143103 92.398529 
L 129.189261 93.356977 
L 136.545911 94.585924 
L 136.913743 94.717605 
L 138.752906 94.830249 
L 139.488571 94.950124 
L 139.856404 94.983191 
L 140.224236 95.198111 
L 142.799064 95.266997 
L 143.534729 95.49222 
L 145.741724 95.776147 
L 146.845221 96.072907 
L 147.580886 96.106201 
L 147.948719 96.277995 
L 151.627044 96.513552 
L 152.362709 96.597898 
L 153.466206 96.647947 
L 154.569704 96.76876 
L 155.673202 96.891475 
L 156.408867 97.028503 
L 158.248029 97.133095 
L 159.351527 97.203939 
L 163.029852 97.379434 
L 166.340344 97.516697 
L 167.443842 97.673392 
L 168.547339 97.855117 
L 170.386502 97.96179 
L 171.489999 98.044907 
L 172.593497 98.154217 
L 174.064827 98.25435 
L 177.37532 98.34517 
L 178.84665 98.489889 
L 179.582315 98.735061 
L 180.685812 98.829085 
L 185.835467 99.022765 
L 186.571132 99.102212 
L 189.513793 99.228616 
L 190.61729 99.29332 
L 195.03128 99.52934 
L 196.50261 99.640813 
L 203.123595 99.8863 
L 203.491428 100.214165 
L 207.169753 100.270639 
L 210.480246 100.372775 
L 212.319408 100.453518 
L 214.526403 100.539977 
L 215.262068 100.642095 
L 217.101231 100.706798 
L 217.836896 100.768498 
L 236.228521 101.310679 
L 238.067684 101.491598 
L 239.171182 101.491598 
L 239.171182 101.491598 
" clip-path="url(#p8e891528e7)" style="fill: none; stroke: #b2182b; stroke-width: 2.2; stroke-linecap: square"/>
   </g>
   <g id="line2d_32">
    <path d="M 55.254926 12.882727 
L 239.171182 12.882727 
" clip-path="url(#p8e891528e7)" style="fill: none; stroke-dasharray: 2.96,1.28; stroke-dashoffset: 0; stroke: #555555; stroke-opacity: 0.7; stroke-width: 0.8"/>
   </g>
   <g id="patch_3">
    <path d="M 55.254926 132.22 
L 55.254926 7.2 
" style="fill: none; stroke: #222222; stroke-width: 0.8; stroke-linejoin: miter; stroke-linecap: square"/>
   </g>
   <g id="patch_4">
    <path d="M 55.254926 132.22 
L 239.171182 132.22 
" style="fill: none; stroke: #222222; stroke-width: 0.8; stroke-linejoin: miter; stroke-linecap: square"/>
   </g>
   <g id="text_13">
    <!-- $\frac{\sum_i \kappa_{g,i}^{2}}{\sum_i \kappa_{g,i,0}^{2}}$ -->
    <g transform="translate(7.2 32.2336)">
     <text>
      <tspan x="0" y="-0.841406" style="font-size: 8.05px; font-family: 'cmex10'">X</tspan>
      <tspan x="3" y="-21" style="font-size: 8.05px; font-family: 'cmex10'">X</tspan>
      <tspan x="5" y="15.662188" style="font-size: 5.635px; font-family: 'cmmi10'">i</tspan>
      <tspan x="8" y="-4.496406" style="font-size: 5.635px; font-family: 'cmmi10'">i</tspan>
      <tspan x="15.345996" y="9.528244" style="font-size: 5.635px; font-family: 'cmmi10'">g</tspan>
      <tspan x="18.034177" y="9.528244" style="font-size: 5.635px; font-family: 'cmmi10'">;</tspan>
      <tspan x="18.345996" y="-10.630349" style="font-size: 5.635px; font-family: 'cmmi10'">g</tspan>
      <tspan x="20.583685" y="9.528244" style="font-size: 5.635px; font-family: 'cmmi10'">i</tspan>
      <tspan x="21.034177" y="-10.630349" style="font-size: 5.635px; font-family: 'cmmi10'">;</tspan>
      <tspan x="22.523467" y="9.528244" style="font-size: 5.635px; font-family: 'cmmi10'">;</tspan>
      <tspan x="23.583685" y="-10.630349" style="font-size: 5.635px; font-family: 'cmmi10'">i</tspan>
      <tspan x="10.707812" y="7.47474" style="font-size: 8.05px; font-family: 'cmmi10'">∙</tspan>
      <tspan x="13.707812" y="-12.683854" style="font-size: 8.05px; font-family: 'cmmi10'">∙</tspan>
      <tspan x="15.852905" y="4.394483" style="font-size: 5.635px; font-family: 'cmr10'">2</tspan>
      <tspan x="18.852905" y="-15.764111" style="font-size: 5.635px; font-family: 'cmr10'">2</tspan>
      <tspan x="25.072975" y="9.528244" style="font-size: 5.635px; font-family: 'cmr10'">0</tspan>
     </text>
     <rect x="0" y="-2.560156" width="28.403851" height="0.71875"/>
    </g>
   </g>
  </g>
 </g>
 <defs>
  <clipPath id="p8e891528e7">
   <rect x="55.254926" y="7.2" width="183.916256" height="125.02"/>
  </clipPath>
 </defs>
</svg>
