<?xml version="1.0" encoding="utf-8" standalone="no"?>
<!DOCTYPE svg PUBLIC "-//W3C//DTD SVG 1.1//EN"
  "http://www.w3.org/Graphics/SVG/1.1/DTD/svg11.dtd">
<svg xmlns:xlink="http://www.w3.org/1999/xlink" width="254.900389pt" height="163.953281pt" viewBox="0 0 254.900389 163.953281" xmlns="http://www.w3.org/2000/svg" version="1.1">
 <metadata>
  <rdf:RDF xmlns:dc="http://purl.org/dc/elements/1.1/" xmlns:cc="http://creativecommons.org/ns#" xmlns:rdf="http://www.w3.org/1999/02/22-rdf-syntax-ns#">
   <cc:Work>
    <dc:type rdf:resource="http://purl.org/dc/dcmitype/StillImage"/>
    <dc:date>2026-06-15T20:14:45.580249</dc:date>
    <dc:format>image/svg+xml</dc:format>
    <dc:creator>
     <cc:Agent>
      <dc:title>Matplotlib v3.10.8, https://matplotlib.org/</dc:title>
     </cc:Agent>
    </dc:creator>
   </cc:Work>
  </rdf:RDF>
 </metadata>
 <defs>
  <style type="text/css">*{stroke-linejoin: round; stroke-linecap: butt}</style>
 </defs>
 <g id="figure_1">
  <g id="patch_1">
   <path d="M 0 163.953281 
L 254.900389 163.953281 
L 254.900389 0 
L 0 0 
z
" style="fill: #ffffff"/>
  </g>
  <g id="axes_1">
   <g id="patch_2">
    <path d="M 38.708772 132.22 
L 242.531873 132.22 
L 242.531873 7.2 
L 38.708772 7.2 
z
" style="fill: #ffffff"/>
   </g>
   <g id="FillBetweenPolyCollection_1">
    <defs>
     <path id="mf4c9c7a87b" d="M 38.708772 -151.070554 
L 38.708772 -151.070554 
L 39.116418 -151.033421 
L 39.524065 -149.212029 
L 39.931711 -144.620219 
L 40.339357 -142.556882 
L 40.747003 -139.483541 
L 41.154649 -137.104933 
L 41.562296 -136.540693 
L 41.969942 -135.616495 
L 42.377588 -132.617457 
L 42.785234 -129.008643 
L 43.19288 -128.552844 
L 43.600527 -127.205631 
L 44.008173 -121.888369 
L 44.415819 -121.888369 
L 44.823465 -121.888369 
L 45.231111 -120.900839 
L 45.638758 -111.386282 
L 46.046404 -106.072761 
L 46.45405 -105.853232 
L 46.861696 -105.853232 
L 47.269342 -105.30984 
L 47.676989 -105.30984 
L 48.084635 -105.30984 
L 48.492281 -104.491424 
L 48.899927 -102.449635 
L 49.307573 -102.449635 
L 49.71522 -102.208415 
L 50.122866 -102.208415 
L 50.530512 -100.784711 
L 50.938158 -100.17548 
L 51.345804 -100.0783 
L 51.753451 -99.742533 
L 52.161097 -99.742533 
L 52.568743 -99.477421 
L 52.976389 -99.477421 
L 53.384035 -97.413378 
L 53.791682 -97.413378 
L 54.199328 -97.18892 
L 54.606974 -97.18892 
L 55.01462 -96.02319 
L 55.422266 -95.149896 
L 55.829913 -94.70722 
L 56.237559 -94.256769 
L 56.645205 -93.561799 
L 57.052851 -91.472733 
L 57.460497 -91.472733 
L 57.868144 -90.949084 
L 58.27579 -90.949084 
L 58.683436 -90.106 
L 59.091082 -89.832362 
L 59.498728 -89.832362 
L 59.906375 -87.838544 
L 60.314021 -87.656784 
L 60.721667 -87.656784 
L 61.129313 -87.656784 
L 61.536959 -87.288654 
L 61.944606 -87.288654 
L 62.352252 -87.288654 
L 62.759898 -86.565917 
L 63.167544 -85.160448 
L 63.57519 -85.160448 
L 63.982837 -85.160448 
L 64.390483 -84.794462 
L 64.798129 -84.399327 
L 65.205775 -84.399327 
L 65.613421 -84.399327 
L 66.021068 -84.399327 
L 66.428714 -84.399327 
L 66.83636 -83.899134 
L 67.244006 -83.899134 
L 67.651652 -83.515818 
L 68.059299 -83.515818 
L 68.466945 -83.428328 
L 68.874591 -83.428328 
L 69.282237 -83.198767 
L 69.689883 -83.129315 
L 70.09753 -83.129315 
L 70.505176 -82.237969 
L 70.912822 -82.237969 
L 71.320468 -82.237969 
L 71.728114 -82.237969 
L 72.135761 -82.1646 
L 72.543407 -82.1646 
L 72.951053 -82.1646 
L 73.358699 -81.476746 
L 73.766345 -81.476746 
L 74.173992 -81.476746 
L 74.581638 -81.476746 
L 74.989284 -81.431968 
L 75.39693 -81.431968 
L 75.804577 -80.71604 
L 76.212223 -80.446977 
L 76.619869 -80.446977 
L 77.027515 -80.446977 
L 77.435161 -80.446977 
L 77.842808 -80.061451 
L 78.250454 -79.393226 
L 78.6581 -79.393226 
L 79.065746 -79.393226 
L 79.473392 -79.393226 
L 79.881039 -79.393226 
L 80.288685 -79.393226 
L 80.696331 -77.465376 
L 81.103977 -77.465376 
L 81.511623 -77.28552 
L 81.91927 -77.28552 
L 82.326916 -77.28552 
L 82.734562 -77.28552 
L 83.142208 -76.961844 
L 83.549854 -76.679597 
L 83.957501 -76.679597 
L 84.365147 -76.558216 
L 84.772793 -76.558216 
L 85.180439 -76.558216 
L 85.588085 -76.452057 
L 85.995732 -76.452057 
L 86.403378 -76.436597 
L 86.811024 -76.436597 
L 87.21867 -76.436597 
L 87.626316 -76.436597 
L 88.033963 -76.436597 
L 88.441609 -76.371242 
L 88.849255 -76.371242 
L 89.256901 -76.371242 
L 89.664547 -76.371242 
L 90.072194 -76.371242 
L 90.47984 -76.371242 
L 90.887486 -75.730636 
L 91.295132 -75.639399 
L 91.702778 -75.639399 
L 92.110425 -75.639399 
L 92.518071 -75.639399 
L 92.925717 -75.639399 
L 93.333363 -75.501894 
L 93.741009 -75.501894 
L 94.148656 -75.501894 
L 94.556302 -75.501894 
L 94.963948 -75.501894 
L 95.371594 -75.501894 
L 95.77924 -75.407477 
L 96.186887 -73.809347 
L 96.594533 -73.809347 
L 97.002179 -71.378508 
L 97.409825 -71.378508 
L 97.817471 -69.883296 
L 98.225118 -69.883296 
L 98.632764 -69.594081 
L 99.04041 -69.594081 
L 99.448056 -69.485516 
L 99.855702 -69.485516 
L 100.263349 -69.485516 
L 100.670995 -68.672408 
L 101.078641 -68.647624 
L 101.486287 -68.647624 
L 101.893933 -68.647624 
L 102.30158 -68.647624 
L 102.709226 -68.647624 
L 103.116872 -68.563014 
L 103.524518 -68.563014 
L 103.932164 -68.563014 
L 104.339811 -68.398747 
L 104.747457 -68.398747 
L 105.155103 -68.398747 
L 105.562749 -67.22073 
L 105.970395 -67.22073 
L 106.378042 -67.22073 
L 106.785688 -66.654629 
L 107.193334 -66.56493 
L 107.60098 -66.56493 
L 108.008626 -66.56493 
L 108.416273 -66.41278 
L 108.823919 -66.41278 
L 109.231565 -66.41278 
L 109.639211 -66.41278 
L 110.046857 -66.41278 
L 110.454504 -66.41278 
L 110.86215 -66.251591 
L 111.269796 -66.251591 
L 111.677442 -66.251591 
L 112.085088 -66.251591 
L 112.492735 -66.251591 
L 112.900381 -66.251591 
L 113.308027 -66.251591 
L 113.715673 -66.251591 
L 114.12332 -66.251591 
L 114.530966 -66.251591 
L 114.938612 -66.251591 
L 115.346258 -66.251591 
L 115.753904 -66.251591 
L 116.161551 -66.251591 
L 116.569197 -66.251591 
L 116.976843 -66.251591 
L 117.384489 -66.251591 
L 117.792135 -66.251591 
L 118.199782 -66.251591 
L 118.607428 -66.011529 
L 119.015074 -65.839802 
L 119.42272 -65.839802 
L 119.830366 -65.839802 
L 120.238013 -65.839802 
L 120.645659 -65.839802 
L 121.053305 -65.839802 
L 121.460951 -65.234844 
L 121.868597 -65.234844 
L 122.276244 -65.234844 
L 122.68389 -65.234844 
L 123.091536 -65.234844 
L 123.499182 -65.234844 
L 123.906828 -65.234844 
L 124.314475 -65.234844 
L 124.722121 -64.686005 
L 125.129767 -64.686005 
L 125.537413 -64.619302 
L 125.945059 -64.619302 
L 126.352706 -64.619302 
L 126.760352 -64.619302 
L 127.167998 -64.034341 
L 127.575644 -64.034341 
L 127.98329 -64.034341 
L 128.390937 -64.034341 
L 128.798583 -64.034341 
L 129.206229 -64.031715 
L 129.613875 -64.031715 
L 130.021521 -64.031715 
L 130.429168 -63.985275 
L 130.836814 -63.65709 
L 131.24446 -63.65709 
L 131.652106 -63.65709 
L 132.059752 -63.65709 
L 132.467399 -63.65709 
L 132.875045 -63.351585 
L 133.282691 -63.351585 
L 133.690337 -63.351585 
L 134.097983 -63.298332 
L 134.50563 -63.290236 
L 134.913276 -63.290236 
L 135.320922 -63.290236 
L 135.728568 -62.904499 
L 136.136214 -62.904499 
L 136.543861 -62.785724 
L 136.951507 -62.785724 
L 137.359153 -62.785724 
L 137.766799 -62.785724 
L 138.174445 -62.785724 
L 138.582092 -62.755561 
L 138.989738 -62.755561 
L 139.397384 -62.755561 
L 139.80503 -62.755561 
L 140.212676 -62.755561 
L 140.620323 -62.755561 
L 141.027969 -62.755561 
L 141.435615 -62.755561 
L 141.843261 -62.755561 
L 142.250907 -62.755561 
L 142.658554 -62.755561 
L 143.0662 -62.698964 
L 143.473846 -62.698964 
L 143.881492 -62.698964 
L 144.289138 -62.698964 
L 144.696785 -62.444174 
L 145.104431 -62.444174 
L 145.512077 -62.444174 
L 145.919723 -62.333062 
L 146.327369 -62.333062 
L 146.735016 -62.333062 
L 147.142662 -62.333062 
L 147.550308 -62.333062 
L 147.957954 -62.333062 
L 148.3656 -62.333062 
L 148.773247 -62.333062 
L 149.180893 -62.333062 
L 149.588539 -62.333062 
L 149.996185 -62.333062 
L 150.403831 -62.333062 
L 150.811478 -62.333062 
L 151.219124 -62.333062 
L 151.62677 -62.333062 
L 152.034416 -62.333062 
L 152.442062 -62.333062 
L 152.849709 -62.333062 
L 153.257355 -62.333062 
L 153.665001 -62.333062 
L 154.072647 -62.333062 
L 154.480294 -62.333062 
L 154.88794 -62.170067 
L 155.295586 -62.085776 
L 155.703232 -62.085776 
L 156.110878 -61.865804 
L 156.518525 -61.678937 
L 156.926171 -61.678937 
L 157.333817 -61.678937 
L 157.741463 -61.678937 
L 158.149109 -61.678937 
L 158.556756 -61.678937 
L 158.964402 -61.678937 
L 159.372048 -61.678937 
L 159.779694 -61.678937 
L 160.18734 -61.436777 
L 160.594987 -61.436777 
L 161.002633 -61.436777 
L 161.410279 -61.436777 
L 161.817925 -61.436777 
L 162.225571 -61.436777 
L 162.633218 -61.436777 
L 163.040864 -61.433966 
L 163.44851 -61.433966 
L 163.856156 -61.433966 
L 164.263802 -61.341864 
L 164.671449 -61.341864 
L 165.079095 -61.341864 
L 165.486741 -61.341864 
L 165.894387 -61.341864 
L 166.302033 -61.341864 
L 166.70968 -61.341864 
L 167.117326 -61.341864 
L 167.524972 -61.341864 
L 167.932618 -61.341864 
L 168.340264 -61.117692 
L 168.747911 -61.117692 
L 169.155557 -61.117692 
L 169.563203 -61.117692 
L 169.970849 -61.117692 
L 170.378495 -61.117692 
L 170.786142 -61.117692 
L 171.193788 -61.117692 
L 171.601434 -61.117692 
L 172.00908 -61.117692 
L 172.416726 -61.117692 
L 172.824373 -61.034151 
L 173.232019 -61.034151 
L 173.639665 -61.034151 
L 174.047311 -61.034151 
L 174.454957 -61.034151 
L 174.862604 -61.034151 
L 175.27025 -61.034151 
L 175.677896 -61.034151 
L 176.085542 -61.034151 
L 176.493188 -61.034151 
L 176.900835 -60.776348 
L 177.308481 -60.776348 
L 177.716127 -60.776348 
L 178.123773 -60.776348 
L 178.531419 -60.776348 
L 178.939066 -60.776348 
L 179.346712 -60.776348 
L 179.754358 -60.759879 
L 180.162004 -60.759879 
L 180.56965 -60.759879 
L 180.977297 -60.759879 
L 181.384943 -60.759879 
L 181.792589 -60.759879 
L 182.200235 -60.740473 
L 182.607881 -60.740473 
L 183.015528 -60.740473 
L 183.423174 -60.665492 
L 183.83082 -60.665492 
L 184.238466 -60.665492 
L 184.646112 -60.665492 
L 185.053759 -60.665492 
L 185.461405 -60.665492 
L 185.869051 -60.661668 
L 186.276697 -60.661668 
L 186.684343 -60.661668 
L 187.09199 -60.551319 
L 187.499636 -60.551319 
L 187.907282 -60.551319 
L 188.314928 -60.551319 
L 188.722574 -60.551319 
L 189.130221 -60.551319 
L 189.537867 -60.551319 
L 189.945513 -60.551319 
L 190.353159 -60.551319 
L 190.760805 -60.551319 
L 191.168452 -60.551319 
L 191.576098 -60.551319 
L 191.983744 -60.551319 
L 192.39139 -60.445314 
L 192.799036 -60.445314 
L 193.206683 -60.445314 
L 193.614329 -59.049124 
L 194.021975 -59.049124 
L 194.429621 -58.761255 
L 194.837268 -58.761255 
L 195.244914 -58.761255 
L 195.65256 -58.761255 
L 196.060206 -58.761255 
L 196.467852 -58.761255 
L 196.875499 -58.761255 
L 197.283145 -58.761255 
L 197.690791 -58.761255 
L 198.098437 -58.761255 
L 198.506083 -58.750481 
L 198.91373 -58.750481 
L 199.321376 -58.750481 
L 199.729022 -58.715519 
L 200.136668 -58.714993 
L 200.544314 -58.714993 
L 200.951961 -58.714993 
L 201.359607 -58.64693 
L 201.767253 -58.64693 
L 202.174899 -58.64693 
L 202.582545 -58.64693 
L 202.990192 -58.64693 
L 203.397838 -58.64693 
L 203.805484 -58.64693 
L 204.21313 -58.592155 
L 204.620776 -58.592155 
L 205.028423 -58.592155 
L 205.436069 -58.592155 
L 205.843715 -58.592155 
L 206.251361 -58.592155 
L 206.659007 -58.592155 
L 207.066654 -58.592155 
L 207.4743 -58.592155 
L 207.881946 -58.592155 
L 208.289592 -58.592155 
L 208.697238 -58.592155 
L 209.104885 -58.592155 
L 209.512531 -58.592155 
L 209.920177 -58.43866 
L 210.327823 -58.43866 
L 210.735469 -58.43866 
L 211.143116 -58.383405 
L 211.550762 -58.383405 
L 211.958408 -58.383405 
L 212.366054 -58.383405 
L 212.7737 -58.333966 
L 213.181347 -58.333966 
L 213.588993 -58.333966 
L 213.996639 -58.333966 
L 214.404285 -58.333966 
L 214.811931 -58.333966 
L 215.219578 -58.333966 
L 215.627224 -58.333966 
L 216.03487 -58.333966 
L 216.442516 -58.333966 
L 216.850162 -58.333966 
L 217.257809 -58.333966 
L 217.665455 -58.333966 
L 218.073101 -58.168073 
L 218.480747 -58.168073 
L 218.888393 -58.168073 
L 219.29604 -58.168073 
L 219.703686 -58.168073 
L 220.111332 -58.168073 
L 220.518978 -58.168073 
L 220.926624 -58.168073 
L 221.334271 -58.014877 
L 221.741917 -58.014877 
L 222.149563 -58.014877 
L 222.557209 -58.014877 
L 222.964855 -58.014877 
L 223.372502 -57.977105 
L 223.780148 -57.977105 
L 224.187794 -57.977105 
L 224.59544 -57.977105 
L 225.003086 -57.977105 
L 225.410733 -57.977105 
L 225.818379 -57.977105 
L 226.226025 -57.977105 
L 226.633671 -57.977105 
L 227.041317 -57.977105 
L 227.448964 -57.977105 
L 227.85661 -57.768097 
L 228.264256 -57.768097 
L 228.671902 -57.768097 
L 229.079548 -57.768097 
L 229.487195 -57.768097 
L 229.894841 -57.768097 
L 230.302487 -57.768097 
L 230.710133 -57.768097 
L 231.117779 -57.768097 
L 231.525426 -57.768097 
L 231.933072 -57.768097 
L 232.340718 -57.768097 
L 232.748364 -57.768097 
L 233.156011 -57.768097 
L 233.563657 -57.768097 
L 233.971303 -57.768097 
L 234.378949 -57.768097 
L 234.786595 -57.768097 
L 235.194242 -57.768097 
L 235.601888 -57.768097 
L 236.009534 -57.768097 
L 236.41718 -57.768097 
L 236.824826 -57.768097 
L 237.232473 -57.76619 
L 237.640119 -57.76619 
L 238.047765 -57.76619 
L 238.455411 -57.76619 
L 238.863057 -57.76619 
L 239.270704 -57.76619 
L 239.67835 -57.252755 
L 240.085996 -57.252755 
L 240.493642 -56.97411 
L 240.901288 -56.97411 
L 241.308935 -56.97411 
L 241.716581 -56.97411 
L 242.124227 -56.97411 
L 242.531873 -56.97411 
L 242.531873 -77.597351 
L 242.531873 -77.597351 
L 242.124227 -77.597351 
L 241.716581 -77.597351 
L 241.308935 -77.597351 
L 240.901288 -77.597351 
L 240.493642 -77.597351 
L 240.085996 -77.597351 
L 239.67835 -77.597351 
L 239.270704 -77.597351 
L 238.863057 -77.633809 
L 238.455411 -77.657598 
L 238.047765 -77.657598 
L 237.640119 -77.657598 
L 237.232473 -77.657598 
L 236.824826 -77.657598 
L 236.41718 -77.657598 
L 236.009534 -77.658468 
L 235.601888 -77.658468 
L 235.194242 -77.705391 
L 234.786595 -77.705391 
L 234.378949 -77.705391 
L 233.971303 -77.705391 
L 233.563657 -77.705391 
L 233.156011 -77.705391 
L 232.748364 -77.705391 
L 232.340718 -77.705391 
L 231.933072 -77.705391 
L 231.525426 -77.705391 
L 231.117779 -77.899007 
L 230.710133 -77.899007 
L 230.302487 -77.899007 
L 229.894841 -77.899007 
L 229.487195 -77.899007 
L 229.079548 -77.899007 
L 228.671902 -77.899007 
L 228.264256 -77.899007 
L 227.85661 -77.899007 
L 227.448964 -77.899007 
L 227.041317 -77.899007 
L 226.633671 -78.024996 
L 226.226025 -78.024996 
L 225.818379 -78.024996 
L 225.410733 -78.024996 
L 225.003086 -78.063358 
L 224.59544 -78.063358 
L 224.187794 -78.063358 
L 223.780148 -78.091343 
L 223.372502 -78.091343 
L 222.964855 -78.091343 
L 222.557209 -78.091343 
L 222.149563 -78.091343 
L 221.741917 -78.091343 
L 221.334271 -78.091343 
L 220.926624 -78.091343 
L 220.518978 -78.091343 
L 220.111332 -78.185754 
L 219.703686 -78.185754 
L 219.29604 -78.185754 
L 218.888393 -78.185754 
L 218.480747 -78.185754 
L 218.073101 -78.528683 
L 217.665455 -78.528683 
L 217.257809 -78.528683 
L 216.850162 -78.528683 
L 216.442516 -78.528683 
L 216.03487 -78.528683 
L 215.627224 -78.528683 
L 215.219578 -78.528683 
L 214.811931 -78.577628 
L 214.404285 -78.577628 
L 213.996639 -78.749014 
L 213.588993 -78.749014 
L 213.181347 -78.749014 
L 212.7737 -78.749014 
L 212.366054 -78.749014 
L 211.958408 -78.749014 
L 211.550762 -78.749014 
L 211.143116 -78.749014 
L 210.735469 -78.856219 
L 210.327823 -78.856219 
L 209.920177 -78.856219 
L 209.512531 -78.856219 
L 209.104885 -78.856219 
L 208.697238 -79.186007 
L 208.289592 -79.186007 
L 207.881946 -79.186007 
L 207.4743 -79.186007 
L 207.066654 -79.186007 
L 206.659007 -79.186007 
L 206.251361 -79.186007 
L 205.843715 -79.186007 
L 205.436069 -79.186007 
L 205.028423 -79.186007 
L 204.620776 -79.186007 
L 204.21313 -79.186007 
L 203.805484 -79.186007 
L 203.397838 -79.186007 
L 202.990192 -79.186007 
L 202.582545 -79.186007 
L 202.174899 -79.186007 
L 201.767253 -79.186007 
L 201.359607 -79.186007 
L 200.951961 -79.186007 
L 200.544314 -79.186007 
L 200.136668 -79.186007 
L 199.729022 -79.186007 
L 199.321376 -79.186007 
L 198.91373 -79.186007 
L 198.506083 -79.186007 
L 198.098437 -79.186007 
L 197.690791 -79.20905 
L 197.283145 -79.20905 
L 196.875499 -79.259407 
L 196.467852 -79.259407 
L 196.060206 -79.259407 
L 195.65256 -79.279353 
L 195.244914 -79.355767 
L 194.837268 -79.355767 
L 194.429621 -79.35712 
L 194.021975 -79.35712 
L 193.614329 -79.35712 
L 193.206683 -79.35712 
L 192.799036 -79.35712 
L 192.39139 -79.35712 
L 191.983744 -79.594625 
L 191.576098 -79.594625 
L 191.168452 -79.594625 
L 190.760805 -79.594625 
L 190.353159 -79.594625 
L 189.945513 -79.594625 
L 189.537867 -79.621165 
L 189.130221 -79.621165 
L 188.722574 -79.621165 
L 188.314928 -79.621165 
L 187.907282 -79.69709 
L 187.499636 -79.905347 
L 187.09199 -79.905347 
L 186.684343 -79.905347 
L 186.276697 -79.905347 
L 185.869051 -79.905347 
L 185.461405 -79.905347 
L 185.053759 -79.905347 
L 184.646112 -79.905347 
L 184.238466 -79.905347 
L 183.83082 -79.905347 
L 183.423174 -79.905347 
L 183.015528 -79.905347 
L 182.607881 -79.905347 
L 182.200235 -79.905347 
L 181.792589 -79.905347 
L 181.384943 -79.905347 
L 180.977297 -80.236988 
L 180.56965 -80.334437 
L 180.162004 -80.500156 
L 179.754358 -80.500156 
L 179.346712 -80.500156 
L 178.939066 -80.500156 
L 178.531419 -80.500156 
L 178.123773 -80.500156 
L 177.716127 -80.500156 
L 177.308481 -80.626932 
L 176.900835 -80.681946 
L 176.493188 -80.837267 
L 176.085542 -81.286373 
L 175.677896 -81.33456 
L 175.27025 -81.33456 
L 174.862604 -81.33456 
L 174.454957 -81.850685 
L 174.047311 -81.850685 
L 173.639665 -81.850685 
L 173.232019 -81.850685 
L 172.824373 -81.913878 
L 172.416726 -81.913878 
L 172.00908 -81.98179 
L 171.601434 -81.98179 
L 171.193788 -81.98179 
L 170.786142 -81.98179 
L 170.378495 -81.98179 
L 169.970849 -81.98179 
L 169.563203 -81.98179 
L 169.155557 -81.98179 
L 168.747911 -81.98179 
L 168.340264 -81.98179 
L 167.932618 -81.98179 
L 167.524972 -81.98179 
L 167.117326 -81.98179 
L 166.70968 -81.98179 
L 166.302033 -82.168822 
L 165.894387 -82.168822 
L 165.486741 -82.168822 
L 165.079095 -83.017508 
L 164.671449 -83.017508 
L 164.263802 -83.017508 
L 163.856156 -83.017508 
L 163.44851 -83.528922 
L 163.040864 -83.528922 
L 162.633218 -83.744623 
L 162.225571 -83.744623 
L 161.817925 -83.744623 
L 161.410279 -83.744623 
L 161.002633 -83.744623 
L 160.594987 -83.744623 
L 160.18734 -83.853325 
L 159.779694 -83.853325 
L 159.372048 -83.853325 
L 158.964402 -83.853325 
L 158.556756 -83.853325 
L 158.149109 -83.853325 
L 157.741463 -83.853325 
L 157.333817 -83.853325 
L 156.926171 -83.853325 
L 156.518525 -83.928698 
L 156.110878 -83.928698 
L 155.703232 -83.928698 
L 155.295586 -84.028215 
L 154.88794 -84.028215 
L 154.480294 -84.101153 
L 154.072647 -84.101153 
L 153.665001 -84.101153 
L 153.257355 -84.101153 
L 152.849709 -84.101153 
L 152.442062 -84.101153 
L 152.034416 -84.278792 
L 151.62677 -84.278792 
L 151.219124 -84.278792 
L 150.811478 -84.405972 
L 150.403831 -84.405972 
L 149.996185 -84.405972 
L 149.588539 -84.405972 
L 149.180893 -84.602839 
L 148.773247 -84.602839 
L 148.3656 -84.602839 
L 147.957954 -84.680992 
L 147.550308 -84.784733 
L 147.142662 -84.784733 
L 146.735016 -84.784733 
L 146.327369 -84.850613 
L 145.919723 -84.850613 
L 145.512077 -84.850613 
L 145.104431 -85.329186 
L 144.696785 -85.329186 
L 144.289138 -85.329186 
L 143.881492 -85.425016 
L 143.473846 -85.425016 
L 143.0662 -85.649637 
L 142.658554 -85.649637 
L 142.250907 -85.649637 
L 141.843261 -85.822427 
L 141.435615 -85.937443 
L 141.027969 -85.937443 
L 140.620323 -85.937443 
L 140.212676 -85.937443 
L 139.80503 -85.937443 
L 139.397384 -85.937443 
L 138.989738 -85.937443 
L 138.582092 -85.937443 
L 138.174445 -86.486541 
L 137.766799 -86.486541 
L 137.359153 -86.486541 
L 136.951507 -86.486541 
L 136.543861 -86.806225 
L 136.136214 -86.806225 
L 135.728568 -86.806225 
L 135.320922 -86.806225 
L 134.913276 -86.806225 
L 134.50563 -86.806225 
L 134.097983 -86.806225 
L 133.690337 -86.806225 
L 133.282691 -86.806225 
L 132.875045 -86.806225 
L 132.467399 -86.806225 
L 132.059752 -86.806225 
L 131.652106 -86.806225 
L 131.24446 -86.806225 
L 130.836814 -86.806225 
L 130.429168 -86.806225 
L 130.021521 -86.854531 
L 129.613875 -86.854531 
L 129.206229 -86.854531 
L 128.798583 -87.982225 
L 128.390937 -87.982225 
L 127.98329 -87.982225 
L 127.575644 -87.982225 
L 127.167998 -87.982225 
L 126.760352 -87.982225 
L 126.352706 -87.982225 
L 125.945059 -87.982225 
L 125.537413 -88.431997 
L 125.129767 -88.431997 
L 124.722121 -88.431997 
L 124.314475 -88.431997 
L 123.906828 -88.431997 
L 123.499182 -88.431997 
L 123.091536 -88.431997 
L 122.68389 -88.431997 
L 122.276244 -88.431997 
L 121.868597 -88.438685 
L 121.460951 -88.438685 
L 121.053305 -88.438685 
L 120.645659 -88.438685 
L 120.238013 -88.438685 
L 119.830366 -88.438685 
L 119.42272 -88.572293 
L 119.015074 -88.621084 
L 118.607428 -88.621084 
L 118.199782 -89.062977 
L 117.792135 -89.650645 
L 117.384489 -89.891518 
L 116.976843 -89.932725 
L 116.569197 -89.932725 
L 116.161551 -89.972831 
L 115.753904 -89.972831 
L 115.346258 -89.972831 
L 114.938612 -89.972831 
L 114.530966 -89.972831 
L 114.12332 -89.972831 
L 113.715673 -89.972831 
L 113.308027 -89.972831 
L 112.900381 -90.038684 
L 112.492735 -90.038684 
L 112.085088 -90.038684 
L 111.677442 -90.038684 
L 111.269796 -90.038684 
L 110.86215 -90.058739 
L 110.454504 -90.299143 
L 110.046857 -90.299143 
L 109.639211 -90.299143 
L 109.231565 -90.437111 
L 108.823919 -90.592999 
L 108.416273 -90.592999 
L 108.008626 -90.592999 
L 107.60098 -90.592999 
L 107.193334 -90.592999 
L 106.785688 -90.592999 
L 106.378042 -90.592999 
L 105.970395 -90.592999 
L 105.562749 -90.592999 
L 105.155103 -90.592999 
L 104.747457 -90.592999 
L 104.339811 -90.592999 
L 103.932164 -90.592999 
L 103.524518 -90.693365 
L 103.116872 -90.709489 
L 102.709226 -90.709489 
L 102.30158 -90.709489 
L 101.893933 -90.709489 
L 101.486287 -90.709489 
L 101.078641 -90.729926 
L 100.670995 -90.729926 
L 100.263349 -90.729926 
L 99.855702 -90.729926 
L 99.448056 -90.729926 
L 99.04041 -90.729926 
L 98.632764 -90.729926 
L 98.225118 -90.729926 
L 97.817471 -90.80451 
L 97.409825 -90.80451 
L 97.002179 -90.80451 
L 96.594533 -90.80451 
L 96.186887 -91.172324 
L 95.77924 -91.265118 
L 95.371594 -91.629162 
L 94.963948 -91.629162 
L 94.556302 -91.629162 
L 94.148656 -91.629162 
L 93.741009 -91.629162 
L 93.333363 -92.090113 
L 92.925717 -92.090113 
L 92.518071 -92.090113 
L 92.110425 -92.090113 
L 91.702778 -92.090113 
L 91.295132 -92.114599 
L 90.887486 -92.391415 
L 90.47984 -92.61041 
L 90.072194 -92.61041 
L 89.664547 -92.61041 
L 89.256901 -92.945905 
L 88.849255 -92.945905 
L 88.441609 -94.290714 
L 88.033963 -94.397913 
L 87.626316 -94.795809 
L 87.21867 -94.795809 
L 86.811024 -94.795809 
L 86.403378 -95.604285 
L 85.995732 -96.286751 
L 85.588085 -96.286751 
L 85.180439 -96.286751 
L 84.772793 -96.721654 
L 84.365147 -96.721654 
L 83.957501 -96.721654 
L 83.549854 -96.721654 
L 83.142208 -96.933522 
L 82.734562 -96.933522 
L 82.326916 -96.933522 
L 81.91927 -96.933522 
L 81.511623 -96.933522 
L 81.103977 -97.861401 
L 80.696331 -97.861401 
L 80.288685 -97.870128 
L 79.881039 -97.870128 
L 79.473392 -97.875228 
L 79.065746 -97.875228 
L 78.6581 -98.72244 
L 78.250454 -98.864226 
L 77.842808 -99.028855 
L 77.435161 -100.102016 
L 77.027515 -100.102016 
L 76.619869 -100.102016 
L 76.212223 -100.200791 
L 75.804577 -100.201362 
L 75.39693 -100.253933 
L 74.989284 -100.253933 
L 74.581638 -100.253933 
L 74.173992 -100.253933 
L 73.766345 -100.253933 
L 73.358699 -100.535104 
L 72.951053 -100.535104 
L 72.543407 -100.535104 
L 72.135761 -100.535104 
L 71.728114 -101.469903 
L 71.320468 -101.469903 
L 70.912822 -101.843682 
L 70.505176 -101.843682 
L 70.09753 -101.843682 
L 69.689883 -101.843682 
L 69.282237 -101.843682 
L 68.874591 -105.446776 
L 68.466945 -105.446776 
L 68.059299 -105.446776 
L 67.651652 -105.446776 
L 67.244006 -105.45054 
L 66.83636 -109.068602 
L 66.428714 -109.639736 
L 66.021068 -109.780626 
L 65.613421 -109.780626 
L 65.205775 -110.160071 
L 64.798129 -110.160071 
L 64.390483 -110.160071 
L 63.982837 -110.160071 
L 63.57519 -110.160071 
L 63.167544 -110.160071 
L 62.759898 -110.160071 
L 62.352252 -110.160071 
L 61.944606 -110.160071 
L 61.536959 -110.160071 
L 61.129313 -110.178687 
L 60.721667 -110.333803 
L 60.314021 -110.333803 
L 59.906375 -110.590072 
L 59.498728 -110.590072 
L 59.091082 -110.590072 
L 58.683436 -111.101185 
L 58.27579 -111.101185 
L 57.868144 -111.101185 
L 57.460497 -111.312919 
L 57.052851 -111.312919 
L 56.645205 -111.312919 
L 56.237559 -111.552007 
L 55.829913 -114.772224 
L 55.422266 -114.772224 
L 55.01462 -114.772224 
L 54.606974 -114.772224 
L 54.199328 -115.212354 
L 53.791682 -115.212354 
L 53.384035 -118.133023 
L 52.976389 -118.133023 
L 52.568743 -119.129042 
L 52.161097 -120.55717 
L 51.753451 -120.921958 
L 51.345804 -120.926301 
L 50.938158 -120.926301 
L 50.530512 -121.511636 
L 50.122866 -123.636137 
L 49.71522 -123.982605 
L 49.307573 -125.214157 
L 48.899927 -125.214157 
L 48.492281 -125.214157 
L 48.084635 -127.751062 
L 47.676989 -129.161776 
L 47.269342 -131.928058 
L 46.861696 -131.928058 
L 46.45405 -132.967304 
L 46.046404 -133.835395 
L 45.638758 -133.835395 
L 45.231111 -136.219967 
L 44.823465 -136.219967 
L 44.415819 -136.227997 
L 44.008173 -136.227997 
L 43.600527 -138.059632 
L 43.19288 -138.388892 
L 42.785234 -139.068893 
L 42.377588 -142.102671 
L 41.969942 -142.637181 
L 41.562296 -144.036488 
L 41.154649 -146.091388 
L 40.747003 -149.465583 
L 40.339357 -150.317198 
L 39.931711 -151.047495 
L 39.524065 -151.070554 
L 39.116418 -151.070554 
L 38.708772 -151.070554 
z
"/>
    </defs>
    <g clip-path="url(#p55ccd5e76d)">
     <use xlink:href="#mf4c9c7a87b" x="0" y="163.953281" style="fill: #f4a3a8; fill-opacity: 0.35"/>
    </g>
   </g>
   <g id="matplotlib.axis_1">
    <g id="xtick_1">
     <g id="line2d_1">
      <defs>
       <path id="me2ad939c68" d="M 0 0 
L 0 3 
" style="stroke: #000000; stroke-width: 0.7"/>
      </defs>
      <g>
       <use xlink:href="#me2ad939c68" x="38.708772" y="132.22" style="stroke: #000000; stroke-width: 0.7"/>
      </g>
     </g>
     <g id="text_1">
      <text style="font-size: 6.5px; font-family: 'Arial', 'Helvetica', 'DejaVu Sans', sans-serif; text-anchor: middle" x="38.708772" y="143.658984" transform="rotate(-0 38.708772 143.658984)">0.0</text>
     </g>
    </g>
    <g id="xtick_2">
     <g id="line2d_2">
      <g>
       <use xlink:href="#me2ad939c68" x="79.473392" y="132.22" style="stroke: #000000; stroke-width: 0.7"/>
      </g>
     </g>
     <g id="text_2">
      <text style="font-size: 6.5px; font-family: 'Arial', 'Helvetica', 'DejaVu Sans', sans-serif; text-anchor: middle" x="79.473392" y="143.658984" transform="rotate(-0 79.473392 143.658984)">0.2</text>
     </g>
    </g>
    <g id="xtick_3">
     <g id="line2d_3">
      <g>
       <use xlink:href="#me2ad939c68" x="120.238013" y="132.22" style="stroke: #000000; stroke-width: 0.7"/>
      </g>
     </g>
     <g id="text_3">
      <text style="font-size: 6.5px; font-family: 'Arial', 'Helvetica', 'DejaVu Sans', sans-serif; text-anchor: middle" x="120.238013" y="143.658984" transform="rotate(-0 120.238013 143.658984)">0.4</text>
     </g>
    </g>
    <g id="xtick_4">
     <g id="line2d_4">
      <g>
       <use xlink:href="#me2ad939c68" x="161.002633" y="132.22" style="stroke: #000000; stroke-width: 0.7"/>
      </g>
     </g>
     <g id="text_4">
      <text style="font-size: 6.5px; font-family: 'Arial', 'Helvetica', 'DejaVu Sans', sans-serif; text-anchor: middle" x="161.002633" y="143.658984" transform="rotate(-0 161.002633 143.658984)">0.6</text>
     </g>
    </g>
    <g id="xtick_5">
     <g id="line2d_5">
      <g>
       <use xlink:href="#me2ad939c68" x="201.767253" y="132.22" style="stroke: #000000; stroke-width: 0.7"/>
      </g>
     </g>
     <g id="text_5">
      <text style="font-size: 6.5px; font-family: 'Arial', 'Helvetica', 'DejaVu Sans', sans-serif; text-anchor: middle" x="201.767253" y="143.658984" transform="rotate(-0 201.767253 143.658984)">0.8</text>
     </g>
    </g>
    <g id="xtick_6">
     <g id="line2d_6">
      <g>
       <use xlink:href="#me2ad939c68" x="242.531873" y="132.22" style="stroke: #000000; stroke-width: 0.7"/>
      </g>
     </g>
     <g id="text_6">
      <text style="font-size: 6.5px; font-family: 'Arial', 'Helvetica', 'DejaVu Sans', sans-serif; text-anchor: middle" x="242.531873" y="143.658984" transform="rotate(-0 242.531873 143.658984)">1.0</text>
     </g>
    </g>
    <g id="text_7">
     <text style="font-size: 8px; font-family: 'Arial', 'Helvetica', 'DejaVu Sans', sans-serif; text-anchor: middle" x="140.620323" y="155.089531" transform="rotate(-0 140.620323 155.089531)">Normalized optimization progress</text>
    </g>
   </g>
   <g id="matplotlib.axis_2">
    <g id="ytick_1">
     <g id="line2d_7">
      <defs>
       <path id="m84ba19e39d" d="M 0 0 
L -3 0 
" style="stroke: #000000; stroke-width: 0.7"/>
      </defs>
      <g>
       <use xlink:href="#m84ba19e39d" x="38.708772" y="122.941716" style="stroke: #000000; stroke-width: 0.7"/>
      </g>
     </g>
     <g id="text_8">
      <text style="font-size: 6.5px; font-family: 'Arial', 'Helvetica', 'DejaVu Sans', sans-serif; text-anchor: end" x="32.208772" y="125.411208" transform="rotate(-0 32.208772 125.411208)">0.2</text>
     </g>
    </g>
    <g id="ytick_2">
     <g id="line2d_8">
      <g>
       <use xlink:href="#m84ba19e39d" x="38.708772" y="95.426969" style="stroke: #000000; stroke-width: 0.7"/>
      </g>
     </g>
     <g id="text_9">
      <text style="font-size: 6.5px; font-family: 'Arial', 'Helvetica', 'DejaVu Sans', sans-serif; text-anchor: end" x="32.208772" y="97.896461" transform="rotate(-0 32.208772 97.896461)">0.4</text>
     </g>
    </g>
    <g id="ytick_3">
     <g id="line2d_9">
      <g>
       <use xlink:href="#m84ba19e39d" x="38.708772" y="67.912222" style="stroke: #000000; stroke-width: 0.7"/>
      </g>
     </g>
     <g id="text_10">
      <text style="font-size: 6.5px; font-family: 'Arial', 'Helvetica', 'DejaVu Sans', sans-serif; text-anchor: end" x="32.208772" y="70.381714" transform="rotate(-0 32.208772 70.381714)">0.6</text>
     </g>
    </g>
    <g id="ytick_4">
     <g id="line2d_10">
      <g>
       <use xlink:href="#m84ba19e39d" x="38.708772" y="40.397474" style="stroke: #000000; stroke-width: 0.7"/>
      </g>
     </g>
     <g id="text_11">
      <text style="font-size: 6.5px; font-family: 'Arial', 'Helvetica', 'DejaVu Sans', sans-serif; text-anchor: end" x="32.208772" y="42.866967" transform="rotate(-0 32.208772 42.866967)">0.8</text>
     </g>
    </g>
    <g id="ytick_5">
     <g id="line2d_11">
      <g>
       <use xlink:href="#m84ba19e39d" x="38.708772" y="12.882727" style="stroke: #000000; stroke-width: 0.7"/>
      </g>
     </g>
     <g id="text_12">
      <text style="font-size: 6.5px; font-family: 'Arial', 'Helvetica', 'DejaVu Sans', sans-serif; text-anchor: end" x="32.208772" y="15.352219" transform="rotate(-0 32.208772 15.352219)">1.0</text>
     </g>
    </g>
   </g>
   <g id="line2d_12">
    <path d="M 38.708772 12.882727 
L 41.154649 12.928844 
L 41.562296 14.062277 
L 41.969942 24.655818 
L 42.377588 24.655818 
L 42.785234 30.141692 
L 43.600527 30.141692 
L 44.008173 30.332507 
L 47.269342 30.332507 
L 47.676989 34.080164 
L 48.084635 39.472824 
L 50.122866 39.514128 
L 50.530512 43.763131 
L 50.938158 44.9338 
L 53.384035 44.9338 
L 53.791682 50.571078 
L 54.199328 50.571078 
L 54.606974 50.980091 
L 55.829913 50.980091 
L 56.237559 52.417987 
L 57.460497 52.417987 
L 57.868144 52.76433 
L 65.205775 52.772625 
L 66.021068 52.880897 
L 66.83636 52.880897 
L 67.244006 54.306727 
L 67.651652 54.306727 
L 68.059299 54.658693 
L 72.543407 54.658693 
L 72.951053 56.1494 
L 73.358699 56.953054 
L 74.581638 56.953054 
L 74.989284 57.267927 
L 75.39693 59.294587 
L 79.473392 59.396968 
L 79.881039 59.610097 
L 84.365147 59.610097 
L 84.772793 60.477919 
L 88.033963 60.477919 
L 88.441609 60.630949 
L 90.072194 60.630949 
L 90.47984 61.335668 
L 90.887486 61.770487 
L 91.295132 61.770487 
L 91.702778 63.657476 
L 92.925717 63.657476 
L 93.333363 64.392006 
L 93.741009 64.392006 
L 94.148656 65.256143 
L 94.556302 65.256143 
L 94.963948 67.058708 
L 99.855702 67.058708 
L 100.263349 69.424037 
L 102.709226 69.424037 
L 103.116872 69.551135 
L 110.454504 69.597566 
L 110.86215 69.918519 
L 112.085088 70.014041 
L 112.492735 70.537159 
L 115.346258 70.537159 
L 115.753904 71.288641 
L 116.569197 71.288641 
L 116.976843 71.489939 
L 123.499182 71.489939 
L 123.906828 72.591086 
L 138.582092 72.591086 
L 138.989738 73.303117 
L 141.843261 73.303117 
L 142.250907 73.486478 
L 146.735016 73.486478 
L 147.142662 73.785861 
L 147.550308 73.785861 
L 147.957954 75.383392 
L 149.996185 75.383392 
L 150.403831 75.943101 
L 151.219124 75.943101 
L 151.62677 76.450898 
L 163.44851 76.450898 
L 163.856156 76.711777 
L 167.117326 76.711777 
L 167.524972 77.044616 
L 167.932618 77.044616 
L 168.340264 77.781925 
L 177.716127 77.781925 
L 178.123773 78.004837 
L 180.56965 78.03549 
L 181.384943 78.134022 
L 186.684343 78.134022 
L 187.09199 78.310222 
L 200.951961 78.310222 
L 201.359607 78.451411 
L 213.588993 78.451411 
L 213.996639 78.588295 
L 215.219578 78.588295 
L 215.627224 78.813057 
L 221.741917 78.813057 
L 222.149563 79.035936 
L 242.531873 79.035936 
L 242.531873 79.035936 
" clip-path="url(#p55ccd5e76d)" style="fill: none; stroke: #b8b8b8; stroke-opacity: 0.28; stroke-width: 0.75; stroke-linecap: square"/>
   </g>
   <g id="line2d_13">
    <path d="M 38.708772 12.882727 
L 39.116418 12.882727 
L 39.524065 13.178044 
L 40.339357 22.709478 
L 40.747003 29.82952 
L 41.154649 30.086319 
L 41.562296 31.844891 
L 43.19288 31.844891 
L 43.600527 32.139816 
L 44.008173 35.859423 
L 46.861696 35.900777 
L 47.269342 39.798029 
L 48.084635 39.798029 
L 48.492281 40.325876 
L 48.899927 40.325876 
L 49.307573 40.46591 
L 49.71522 40.46591 
L 50.122866 41.12016 
L 51.753451 41.128846 
L 52.161097 41.858421 
L 52.568743 44.714678 
L 52.976389 48.520916 
L 53.384035 48.520916 
L 53.791682 51.554434 
L 54.199328 52.384562 
L 58.683436 52.384562 
L 59.091082 53.697946 
L 59.906375 53.697946 
L 60.314021 54.210482 
L 66.021068 54.320975 
L 66.428714 54.602755 
L 66.83636 54.602755 
L 67.244006 54.991858 
L 67.651652 55.174132 
L 72.135761 55.174132 
L 72.543407 55.340697 
L 72.951053 55.876376 
L 78.6581 55.876376 
L 79.065746 56.27956 
L 79.473392 61.962349 
L 81.103977 61.962349 
L 81.511623 65.427818 
L 83.142208 65.427818 
L 83.549854 65.851554 
L 85.995732 65.902596 
L 86.403378 66.914554 
L 90.887486 66.914554 
L 91.295132 67.158547 
L 92.925717 67.158547 
L 93.333363 67.282168 
L 93.741009 67.282168 
L 94.148656 67.924606 
L 94.963948 67.933403 
L 95.371594 68.263263 
L 100.263349 68.359795 
L 100.670995 69.085269 
L 101.486287 69.085269 
L 101.893933 69.271331 
L 105.970395 69.271331 
L 106.785688 70.186191 
L 107.193334 70.186191 
L 108.008626 70.986132 
L 109.231565 70.986132 
L 109.639211 72.097805 
L 110.454504 72.097805 
L 110.86215 72.578614 
L 112.085088 72.618724 
L 116.976843 72.618724 
L 117.384489 72.78135 
L 120.645659 72.858667 
L 121.053305 73.341795 
L 123.091536 73.341795 
L 123.499182 73.74784 
L 139.397384 73.74784 
L 139.80503 74.798918 
L 140.212676 75.143742 
L 143.0662 75.143742 
L 143.473846 75.520651 
L 161.002633 75.604701 
L 162.225571 75.649828 
L 162.633218 76.608549 
L 165.079095 76.608549 
L 165.486741 76.732618 
L 176.085542 76.832662 
L 176.493188 77.007822 
L 188.722574 77.093035 
L 189.130221 77.303823 
L 193.614329 77.303823 
L 194.021975 78.228484 
L 204.620776 78.228484 
L 205.028423 78.385611 
L 210.735469 78.408301 
L 211.143116 78.646965 
L 211.550762 79.287034 
L 213.996639 79.287034 
L 214.404285 79.830438 
L 242.531873 79.919868 
L 242.531873 79.919868 
" clip-path="url(#p55ccd5e76d)" style="fill: none; stroke: #b8b8b8; stroke-opacity: 0.28; stroke-width: 0.75; stroke-linecap: square"/>
   </g>
   <g id="line2d_14">
    <path d="M 38.708772 12.882727 
L 39.116418 12.882727 
L 39.524065 13.299444 
L 39.931711 13.299444 
L 40.339357 19.408937 
L 40.747003 19.408937 
L 41.154649 19.552626 
L 41.562296 25.298876 
L 43.600527 25.298876 
L 44.008173 27.445452 
L 45.638758 27.461512 
L 46.45405 27.808222 
L 48.084635 27.808222 
L 48.492281 32.468055 
L 49.307573 32.468055 
L 49.71522 46.24236 
L 50.938158 46.24236 
L 51.345804 46.399299 
L 52.568743 46.399299 
L 52.976389 46.706716 
L 53.384035 46.706716 
L 53.791682 46.910778 
L 54.199328 46.910778 
L 54.606974 47.382023 
L 55.829913 47.382023 
L 56.237559 52.862738 
L 58.683436 52.939862 
L 59.498728 53.028474 
L 60.721667 53.028474 
L 61.129313 53.265445 
L 65.205775 53.265445 
L 65.613421 54.024336 
L 76.619869 54.024336 
L 77.027515 54.898152 
L 78.6581 54.898152 
L 79.065746 55.912843 
L 79.881039 55.912843 
L 80.288685 58.621736 
L 88.849255 58.675112 
L 89.256901 59.852611 
L 89.664547 60.173847 
L 92.518071 60.173847 
L 92.925717 60.73771 
L 94.963948 60.73771 
L 95.371594 60.914066 
L 96.186887 60.914066 
L 96.594533 64.325191 
L 97.002179 64.569758 
L 97.409825 64.986963 
L 99.04041 64.986963 
L 99.448056 65.221889 
L 101.486287 65.322546 
L 101.893933 68.257208 
L 102.30158 69.053 
L 109.231565 69.053 
L 109.639211 69.830631 
L 112.085088 69.844687 
L 112.492735 70.371256 
L 115.346258 70.371256 
L 115.753904 70.523024 
L 130.429168 70.617429 
L 131.24446 70.717412 
L 131.652106 70.717412 
L 132.059752 71.126901 
L 139.397384 71.167388 
L 139.80503 71.904284 
L 147.957954 71.969955 
L 148.3656 72.582435 
L 154.072647 72.612943 
L 154.480294 72.749211 
L 156.110878 72.749211 
L 156.518525 73.007972 
L 161.817925 73.007972 
L 162.225571 73.196406 
L 175.677896 73.196406 
L 176.085542 76.14328 
L 176.900835 76.204486 
L 177.308481 76.204486 
L 177.716127 76.49426 
L 201.359607 76.503217 
L 201.767253 77.149294 
L 217.257809 77.19205 
L 217.665455 77.514051 
L 218.073101 77.514051 
L 218.480747 77.655803 
L 224.59544 77.655803 
L 225.003086 77.943229 
L 227.041317 77.943618 
L 227.448964 78.144953 
L 236.009534 78.198731 
L 236.41718 78.393894 
L 237.640119 78.393894 
L 238.047765 80.320287 
L 242.531873 80.320287 
L 242.531873 80.320287 
" clip-path="url(#p55ccd5e76d)" style="fill: none; stroke: #b8b8b8; stroke-opacity: 0.28; stroke-width: 0.75; stroke-linecap: square"/>
   </g>
   <g id="line2d_15">
    <path d="M 38.708772 12.882727 
L 39.524065 12.882727 
L 39.931711 21.107098 
L 40.339357 21.107098 
L 40.747003 27.253781 
L 41.969942 27.253781 
L 42.377588 31.666974 
L 42.785234 31.666974 
L 43.19288 32.116826 
L 44.823465 32.130261 
L 45.231111 35.393821 
L 47.676989 35.502845 
L 48.084635 35.828621 
L 48.492281 38.005425 
L 52.976389 38.005425 
L 53.384035 39.084477 
L 57.052851 39.084477 
L 57.460497 39.406055 
L 58.683436 39.406055 
L 59.091082 43.223244 
L 61.129313 43.223244 
L 61.536959 43.823762 
L 62.352252 43.823762 
L 62.759898 47.009657 
L 64.390483 47.009657 
L 64.798129 50.235556 
L 66.428714 50.235556 
L 66.83636 51.543767 
L 67.244006 51.543767 
L 67.651652 52.103824 
L 69.282237 52.200932 
L 69.689883 52.842924 
L 71.320468 52.842924 
L 71.728114 55.130269 
L 72.951053 55.130269 
L 73.358699 55.789816 
L 73.766345 55.985831 
L 74.581638 55.985831 
L 74.989284 56.574026 
L 75.39693 59.037561 
L 75.804577 59.976704 
L 76.619869 59.976704 
L 77.027515 60.238277 
L 77.435161 60.238277 
L 77.842808 60.530285 
L 78.6581 60.530285 
L 79.065746 61.78205 
L 79.881039 61.78205 
L 80.696331 63.442867 
L 81.103977 63.442867 
L 81.91927 64.064097 
L 84.772793 64.064097 
L 85.180439 66.721359 
L 85.995732 66.721359 
L 86.403378 68.086292 
L 88.033963 68.086292 
L 88.441609 68.238821 
L 89.256901 68.238821 
L 89.664547 68.386466 
L 90.072194 68.386466 
L 90.47984 68.679178 
L 90.887486 69.611143 
L 95.77924 69.611143 
L 96.594533 71.320052 
L 97.817471 71.320052 
L 98.225118 71.46922 
L 108.823919 71.510094 
L 109.231565 71.821869 
L 110.86215 71.821869 
L 111.269796 72.282103 
L 112.492735 72.282103 
L 112.900381 72.407027 
L 116.161551 72.407027 
L 116.569197 72.698934 
L 118.199782 72.698934 
L 118.607428 73.470105 
L 120.238013 73.567686 
L 121.460951 73.617929 
L 129.613875 73.666727 
L 130.021521 74.066844 
L 131.24446 74.066844 
L 131.652106 74.567739 
L 135.320922 74.567739 
L 135.728568 74.851069 
L 138.174445 74.960561 
L 138.582092 77.188488 
L 143.0662 77.188488 
L 143.473846 77.637728 
L 143.881492 77.637728 
L 144.289138 77.829388 
L 146.327369 77.829388 
L 146.735016 77.96115 
L 147.957954 77.96115 
L 148.3656 78.117456 
L 149.180893 78.117456 
L 149.588539 78.511189 
L 152.034416 78.511189 
L 152.442062 78.719971 
L 155.295586 78.719971 
L 155.703232 78.919004 
L 162.633218 78.919004 
L 163.040864 79.350407 
L 163.44851 79.350407 
L 163.856156 80.373233 
L 165.079095 80.373233 
L 165.486741 82.070606 
L 166.302033 82.070606 
L 166.70968 82.44467 
L 174.454957 82.44467 
L 174.862604 84.65072 
L 183.423174 84.737182 
L 183.83082 85.876473 
L 221.334271 85.973298 
L 221.741917 86.111663 
L 224.187794 86.111663 
L 224.59544 86.289088 
L 227.448964 86.289088 
L 227.85661 86.501191 
L 238.863057 86.596777 
L 239.270704 87.251067 
L 242.531873 87.251067 
L 242.531873 87.251067 
" clip-path="url(#p55ccd5e76d)" style="fill: none; stroke: #b8b8b8; stroke-opacity: 0.28; stroke-width: 0.75; stroke-linecap: square"/>
   </g>
   <g id="line2d_16">
    <path d="M 38.708772 12.882727 
L 39.524065 12.882727 
L 39.931711 33.95644 
L 40.747003 33.95644 
L 41.154649 38.287975 
L 41.562296 40.945742 
L 42.377588 40.945742 
L 42.785234 41.447227 
L 43.600527 41.447227 
L 44.008173 44.893871 
L 44.415819 45.876733 
L 44.823465 50.274144 
L 45.231111 53.253815 
L 45.638758 53.253815 
L 46.046404 58.498828 
L 46.861696 58.498828 
L 47.269342 59.585613 
L 48.084635 59.585613 
L 48.492281 61.83596 
L 48.899927 61.83596 
L 49.307573 63.761648 
L 50.122866 63.761648 
L 50.530512 64.405582 
L 52.161097 64.405582 
L 52.568743 64.560825 
L 52.976389 64.560825 
L 53.384035 68.688909 
L 55.01462 68.688909 
L 55.422266 69.592317 
L 55.829913 69.608759 
L 56.237559 70.509661 
L 60.314021 70.509661 
L 60.721667 71.032507 
L 62.352252 71.032507 
L 62.759898 71.340202 
L 63.167544 72.362299 
L 63.57519 72.723216 
L 67.244006 72.723216 
L 67.651652 72.990336 
L 68.059299 73.77784 
L 68.874591 73.77784 
L 69.282237 74.826766 
L 69.689883 74.975752 
L 70.09753 74.975752 
L 70.505176 78.317452 
L 70.912822 78.317452 
L 71.320468 78.702345 
L 73.766345 78.702345 
L 74.989284 79.039029 
L 77.435161 79.079407 
L 77.842808 81.371577 
L 78.250454 82.833697 
L 80.288685 82.833697 
L 80.696331 83.213312 
L 82.734562 83.213312 
L 83.549854 84.425158 
L 83.957501 84.425158 
L 84.365147 84.66792 
L 85.180439 84.66792 
L 85.588085 84.880238 
L 95.371594 84.955912 
L 95.77924 85.336172 
L 96.186887 85.336172 
L 96.594533 85.513688 
L 104.339811 85.598392 
L 104.747457 86.05075 
L 108.823919 86.05075 
L 109.231565 87.817337 
L 109.639211 88.57978 
L 110.046857 88.714687 
L 115.753904 88.714687 
L 116.161551 89.150626 
L 118.607428 89.150626 
L 119.015074 89.773819 
L 123.091536 89.773819 
L 123.499182 89.99167 
L 134.913276 89.99167 
L 135.320922 90.13228 
L 135.728568 90.8962 
L 143.473846 90.8962 
L 143.881492 91.11983 
L 149.588539 91.11983 
L 149.996185 91.687192 
L 153.665001 91.687192 
L 154.072647 91.858537 
L 156.110878 91.858537 
L 156.518525 92.073718 
L 162.225571 92.073718 
L 162.633218 92.310931 
L 163.040864 93.339635 
L 169.155557 93.339635 
L 169.563203 93.744833 
L 171.193788 93.744833 
L 171.601434 93.903114 
L 174.862604 93.903114 
L 175.27025 94.056205 
L 181.792589 94.056205 
L 182.200235 94.793293 
L 204.620776 94.807348 
L 205.028423 95.087028 
L 205.436069 95.087028 
L 205.843715 95.398248 
L 215.219578 95.398248 
L 215.627224 97.058432 
L 227.448964 97.166005 
L 228.264256 97.263116 
L 230.302487 97.263116 
L 230.710133 97.671389 
L 240.085996 97.671389 
L 240.493642 98.464555 
L 242.531873 98.464555 
L 242.531873 98.464555 
" clip-path="url(#p55ccd5e76d)" style="fill: none; stroke: #b8b8b8; stroke-opacity: 0.28; stroke-width: 0.75; stroke-linecap: square"/>
   </g>
   <g id="line2d_17">
    <path d="M 38.708772 12.882727 
L 39.116418 29.102177 
L 42.785234 29.102177 
L 43.19288 31.552047 
L 43.600527 31.67818 
L 44.415819 31.67818 
L 44.823465 31.981068 
L 45.231111 33.715253 
L 46.046404 33.735538 
L 46.45405 35.109782 
L 46.861696 37.968451 
L 47.269342 38.771008 
L 47.676989 38.928004 
L 48.492281 46.172357 
L 48.899927 46.307937 
L 49.307573 46.307937 
L 49.71522 47.126015 
L 50.122866 47.126015 
L 50.530512 47.894705 
L 52.568743 47.996178 
L 52.976389 57.994932 
L 53.384035 57.994932 
L 53.791682 58.434456 
L 55.829913 58.459131 
L 56.645205 58.550057 
L 58.27579 58.550057 
L 58.683436 60.379492 
L 59.091082 60.379492 
L 59.498728 63.014987 
L 59.906375 69.585386 
L 60.721667 69.585386 
L 61.129313 70.355902 
L 62.352252 70.355902 
L 62.759898 72.239433 
L 63.57519 72.239433 
L 63.982837 72.811326 
L 64.390483 72.811326 
L 64.798129 73.194563 
L 66.021068 73.194563 
L 66.428714 73.899324 
L 66.83636 73.899324 
L 67.244006 74.527552 
L 70.912822 74.527552 
L 71.320468 75.227799 
L 71.728114 75.227799 
L 72.135761 75.511868 
L 73.358699 75.511868 
L 73.766345 76.731206 
L 74.173992 76.731206 
L 74.581638 77.188382 
L 76.619869 77.188382 
L 77.027515 79.33568 
L 78.6581 79.33568 
L 79.065746 79.49012 
L 85.995732 79.49012 
L 86.403378 79.880764 
L 88.033963 79.880764 
L 88.441609 79.998169 
L 90.887486 79.998169 
L 91.295132 80.704437 
L 95.77924 80.704437 
L 96.186887 81.098068 
L 98.225118 81.098068 
L 98.632764 82.037417 
L 108.823919 82.037417 
L 109.231565 83.003933 
L 111.677442 83.003933 
L 112.085088 83.327742 
L 118.199782 83.327742 
L 118.607428 83.567748 
L 130.836814 83.580424 
L 131.24446 83.724731 
L 135.728568 83.724731 
L 136.136214 86.373515 
L 149.996185 86.465358 
L 150.403831 86.832827 
L 152.849709 86.854411 
L 154.072647 86.854411 
L 154.480294 87.007933 
L 163.040864 87.067911 
L 163.856156 87.166665 
L 179.346712 87.273527 
L 180.162004 87.379131 
L 196.060206 87.384669 
L 196.467852 87.651877 
L 203.397838 87.651877 
L 203.805484 87.965905 
L 240.901288 88.059474 
L 241.308935 88.765188 
L 242.531873 88.765188 
L 242.531873 88.765188 
" clip-path="url(#p55ccd5e76d)" style="fill: none; stroke: #b8b8b8; stroke-opacity: 0.28; stroke-width: 0.75; stroke-linecap: square"/>
   </g>
   <g id="line2d_18">
    <path d="M 38.708772 12.882727 
L 40.747003 12.882727 
L 41.154649 13.456789 
L 41.562296 13.456789 
L 41.969942 13.589928 
L 42.377588 13.589928 
L 42.785234 35.25066 
L 43.600527 35.254961 
L 44.008173 39.92744 
L 45.231111 39.92744 
L 45.638758 41.600952 
L 46.45405 41.600952 
L 46.861696 52.759928 
L 47.269342 56.413533 
L 48.492281 56.413533 
L 48.899927 61.558174 
L 50.122866 61.558174 
L 50.530512 64.803883 
L 51.753451 64.803883 
L 52.161097 65.728482 
L 52.568743 66.175489 
L 52.976389 66.175489 
L 53.384035 71.516568 
L 54.606974 71.516568 
L 55.01462 74.761965 
L 55.422266 75.056955 
L 56.237559 75.056955 
L 56.645205 75.923169 
L 59.498728 75.923169 
L 59.906375 76.240974 
L 61.129313 76.240974 
L 61.536959 76.977234 
L 66.428714 77.040702 
L 67.651652 77.095261 
L 68.059299 78.127213 
L 68.874591 78.127213 
L 69.282237 78.392718 
L 72.135761 78.455941 
L 72.543407 78.605266 
L 75.39693 78.621021 
L 75.804577 80.959121 
L 76.212223 81.497247 
L 81.103977 81.497247 
L 81.511623 82.09435 
L 81.91927 82.09435 
L 82.326916 82.367611 
L 86.403378 82.403117 
L 86.811024 83.538802 
L 87.626316 83.560527 
L 88.033963 84.057606 
L 90.47984 84.057606 
L 90.887486 86.16145 
L 91.295132 86.343924 
L 96.186887 86.343924 
L 96.594533 86.993764 
L 99.04041 87.059826 
L 99.448056 88.265919 
L 102.30158 88.265919 
L 102.709226 88.414004 
L 103.524518 88.414004 
L 103.932164 88.790862 
L 104.339811 88.790862 
L 104.747457 89.01198 
L 112.900381 89.065327 
L 113.715673 89.181818 
L 114.938612 89.181818 
L 115.346258 89.456599 
L 118.199782 89.456599 
L 118.607428 89.625078 
L 119.42272 89.625078 
L 119.830366 91.267387 
L 130.836814 91.343394 
L 131.652106 91.558333 
L 138.582092 91.558333 
L 138.989738 91.72079 
L 141.027969 91.72079 
L 141.435615 92.519706 
L 145.512077 92.519706 
L 145.919723 93.142067 
L 152.442062 93.142067 
L 152.849709 93.294245 
L 163.040864 93.294245 
L 163.44851 95.206576 
L 172.824373 95.224348 
L 173.232019 95.518974 
L 180.162004 95.574931 
L 180.56965 96.429437 
L 197.283145 96.532815 
L 198.098437 96.641235 
L 233.563657 96.641235 
L 233.971303 97.06234 
L 242.531873 97.06234 
L 242.531873 97.06234 
" clip-path="url(#p55ccd5e76d)" style="fill: none; stroke: #b8b8b8; stroke-opacity: 0.28; stroke-width: 0.75; stroke-linecap: square"/>
   </g>
   <g id="line2d_19">
    <path d="M 38.708772 12.882727 
L 40.747003 12.882727 
L 41.154649 21.821387 
L 41.562296 21.821387 
L 41.969942 22.090407 
L 43.600527 22.090407 
L 44.008173 24.690541 
L 44.415819 24.690541 
L 44.823465 26.091967 
L 46.861696 26.091967 
L 47.269342 26.69418 
L 49.71522 26.780607 
L 50.122866 30.544988 
L 50.530512 30.544988 
L 50.938158 31.253693 
L 52.161097 31.253693 
L 52.568743 35.36534 
L 53.384035 35.36534 
L 53.791682 35.676099 
L 54.199328 35.676099 
L 54.606974 37.75234 
L 57.460497 37.75234 
L 57.868144 37.936311 
L 59.091082 37.936311 
L 59.498728 39.137824 
L 61.944606 39.137824 
L 62.352252 39.514377 
L 63.167544 39.514377 
L 63.57519 40.482705 
L 65.613421 40.482705 
L 66.021068 40.701038 
L 66.428714 40.701038 
L 66.83636 41.002908 
L 67.244006 61.838879 
L 70.912822 61.838879 
L 71.320468 62.586438 
L 71.728114 62.586438 
L 72.135761 62.739789 
L 73.358699 62.739789 
L 73.766345 63.302132 
L 76.212223 63.303274 
L 76.619869 63.500824 
L 83.549854 63.572058 
L 83.957501 63.722949 
L 85.588085 63.722949 
L 85.995732 65.479661 
L 86.403378 65.479661 
L 86.811024 77.330075 
L 91.295132 77.330075 
L 91.702778 78.990957 
L 92.925717 78.990957 
L 93.333363 79.164746 
L 95.77924 79.164746 
L 96.186887 89.540185 
L 96.594533 89.540185 
L 97.002179 94.401863 
L 97.409825 94.401863 
L 97.817471 103.055916 
L 98.225118 103.055916 
L 98.632764 104.324414 
L 99.04041 104.852438 
L 108.008626 104.957874 
L 108.416273 105.306563 
L 110.454504 105.324406 
L 110.86215 105.575427 
L 111.677442 105.575427 
L 112.492735 105.784949 
L 113.308027 105.784949 
L 113.715673 106.139623 
L 116.161551 106.139623 
L 116.569197 106.974942 
L 116.976843 107.24959 
L 118.607428 107.24959 
L 119.015074 107.391734 
L 121.868597 107.391734 
L 122.276244 107.908373 
L 123.906828 107.908373 
L 124.314475 108.081489 
L 124.722121 108.088289 
L 125.129767 108.983845 
L 126.352706 108.999022 
L 126.760352 109.194524 
L 127.167998 109.194524 
L 127.575644 109.378682 
L 128.798583 109.431712 
L 129.206229 109.431712 
L 130.021521 109.544278 
L 132.059752 109.544278 
L 132.467399 110.810847 
L 139.80503 110.810847 
L 140.212676 110.948452 
L 158.964402 110.973016 
L 159.372048 111.349952 
L 160.594987 111.387396 
L 176.900835 111.423246 
L 177.308481 111.565236 
L 178.939066 111.62018 
L 179.346712 111.888716 
L 191.983744 111.888716 
L 192.39139 112.022046 
L 214.811931 112.125208 
L 215.627224 112.210929 
L 223.372502 112.210929 
L 223.780148 112.3281 
L 242.531873 112.361006 
L 242.531873 112.361006 
" clip-path="url(#p55ccd5e76d)" style="fill: none; stroke: #b8b8b8; stroke-opacity: 0.28; stroke-width: 0.75; stroke-linecap: square"/>
   </g>
   <g id="line2d_20">
    <path d="M 38.708772 12.882727 
L 39.116418 21.6857 
L 41.154649 21.6857 
L 41.562296 24.996641 
L 41.969942 24.996641 
L 42.377588 27.282709 
L 43.19288 40.50051 
L 43.600527 40.50051 
L 44.008173 41.681234 
L 44.823465 41.681234 
L 45.231111 42.926579 
L 45.638758 55.860479 
L 46.046404 57.262212 
L 46.45405 57.70127 
L 51.345804 57.70127 
L 52.161097 59.47703 
L 54.199328 59.47703 
L 54.606974 62.229166 
L 55.01462 67.171273 
L 55.422266 67.171273 
L 55.829913 67.487137 
L 57.052851 67.487137 
L 57.460497 68.735104 
L 58.27579 68.735104 
L 58.683436 72.778786 
L 59.091082 73.326063 
L 59.498728 73.326063 
L 59.906375 76.352021 
L 63.167544 76.352021 
L 63.57519 76.475853 
L 63.982837 76.475853 
L 64.390483 77.711394 
L 64.798129 78.501665 
L 68.059299 78.501665 
L 68.466945 78.676645 
L 68.874591 78.676645 
L 69.282237 79.135767 
L 72.951053 79.135767 
L 73.358699 79.437709 
L 76.212223 79.527266 
L 76.619869 79.940722 
L 77.435161 79.940722 
L 77.842808 80.566976 
L 79.065746 80.566976 
L 79.473392 81.106907 
L 84.365147 81.106907 
L 84.772793 81.489867 
L 86.811024 81.489867 
L 87.21867 82.609254 
L 89.256901 82.609254 
L 89.664547 82.969656 
L 90.072194 82.969656 
L 90.887486 83.318303 
L 94.963948 83.318303 
L 95.371594 83.756225 
L 97.002179 83.756225 
L 97.409825 84.54492 
L 108.823919 84.623106 
L 109.639211 84.68168 
L 110.454504 84.68168 
L 110.86215 85.301807 
L 111.677442 85.301807 
L 112.085088 85.651538 
L 112.900381 85.651538 
L 113.308027 86.008897 
L 113.715673 86.008897 
L 114.12332 86.32149 
L 118.607428 86.32149 
L 119.015074 86.696066 
L 126.760352 86.696066 
L 127.167998 86.923136 
L 134.50563 86.923136 
L 134.913276 87.426876 
L 141.027969 87.426876 
L 141.435615 87.889076 
L 169.563203 87.937642 
L 170.378495 88.010204 
L 200.544314 88.121175 
L 202.174899 88.157747 
L 242.531873 88.25077 
L 242.531873 88.25077 
" clip-path="url(#p55ccd5e76d)" style="fill: none; stroke: #b8b8b8; stroke-opacity: 0.28; stroke-width: 0.75; stroke-linecap: square"/>
   </g>
   <g id="line2d_21">
    <path d="M 38.708772 12.882727 
L 39.116418 14.419674 
L 39.524065 14.419674 
L 40.339357 27.571395 
L 41.969942 27.571395 
L 42.377588 31.004676 
L 42.785234 35.545913 
L 43.19288 35.545913 
L 43.600527 36.045683 
L 44.823465 36.045683 
L 45.231111 36.391831 
L 45.638758 49.995227 
L 46.046404 49.995227 
L 46.45405 52.207553 
L 46.861696 52.977852 
L 47.269342 52.977852 
L 47.676989 53.850067 
L 48.084635 53.850067 
L 48.492281 54.04972 
L 48.899927 55.999055 
L 53.384035 56.100596 
L 53.791682 56.408375 
L 54.606974 56.510492 
L 56.237559 56.510492 
L 56.645205 56.969968 
L 59.906375 56.969968 
L 60.314021 57.560704 
L 62.759898 57.560704 
L 63.167544 57.938261 
L 64.798129 57.938261 
L 65.205775 61.620506 
L 66.021068 61.620506 
L 66.428714 64.900225 
L 67.651652 64.900225 
L 68.059299 65.206712 
L 68.466945 65.914219 
L 68.874591 65.914219 
L 69.282237 66.535982 
L 69.689883 67.38727 
L 70.09753 67.38727 
L 70.505176 67.553608 
L 75.804577 67.553608 
L 76.212223 69.224015 
L 83.957501 69.224015 
L 84.365147 70.448798 
L 84.772793 70.53765 
L 85.180439 71.888587 
L 85.588085 71.888587 
L 85.995732 72.311509 
L 89.256901 72.311509 
L 90.072194 73.881019 
L 92.518071 73.881019 
L 92.925717 74.249402 
L 95.371594 74.249402 
L 95.77924 74.977491 
L 103.524518 75.00974 
L 103.932164 75.210471 
L 112.900381 75.210471 
L 113.308027 75.342178 
L 117.384489 75.342178 
L 117.792135 75.823923 
L 118.199782 76.999259 
L 118.607428 77.19429 
L 125.537413 77.207664 
L 125.945059 78.107209 
L 136.543861 78.20382 
L 136.951507 78.843188 
L 141.435615 78.843188 
L 142.658554 79.418801 
L 145.104431 79.418801 
L 145.512077 80.375947 
L 147.550308 80.375947 
L 147.957954 80.583429 
L 150.811478 80.583429 
L 151.219124 80.837789 
L 152.034416 80.837789 
L 152.442062 80.984287 
L 154.480294 80.984287 
L 154.88794 81.130162 
L 156.518525 81.130162 
L 156.926171 81.280908 
L 160.18734 81.280908 
L 160.594987 81.498313 
L 172.00908 81.498313 
L 172.416726 81.634137 
L 172.824373 81.634137 
L 173.232019 81.760522 
L 176.493188 81.760522 
L 176.900835 82.071165 
L 177.308481 82.181193 
L 177.716127 82.434745 
L 180.162004 82.434745 
L 181.384943 83.536623 
L 187.499636 83.536623 
L 187.907282 83.953136 
L 188.314928 84.104987 
L 191.983744 84.158067 
L 192.39139 84.633078 
L 195.244914 84.635782 
L 195.65256 84.788611 
L 214.811931 84.889325 
L 215.627224 84.987215 
L 218.073101 84.987215 
L 218.480747 85.673074 
L 220.111332 85.673074 
L 220.518978 85.861895 
L 225.003086 85.917866 
L 225.818379 85.994589 
L 242.531873 86.042167 
L 242.531873 86.042167 
" clip-path="url(#p55ccd5e76d)" style="fill: none; stroke: #b8b8b8; stroke-opacity: 0.28; stroke-width: 0.75; stroke-linecap: square"/>
   </g>
   <g id="line2d_22">
    <path d="M 38.708772 12.882727 
L 39.524065 12.956993 
L 39.931711 12.956993 
L 40.339357 14.343323 
L 40.747003 14.343323 
L 41.154649 26.442915 
L 44.415819 26.488423 
L 44.823465 26.79072 
L 45.231111 26.79072 
L 46.046404 77.197551 
L 46.45405 79.520157 
L 47.269342 79.520157 
L 47.676989 81.692873 
L 49.307573 81.692873 
L 49.71522 81.911172 
L 50.122866 81.911172 
L 50.530512 82.753327 
L 51.345804 82.753327 
L 51.753451 88.18712 
L 52.161097 88.887364 
L 54.606974 88.887364 
L 55.01462 89.950858 
L 55.422266 90.444271 
L 56.237559 90.489103 
L 56.645205 91.160105 
L 57.052851 91.160105 
L 57.460497 92.018455 
L 58.27579 92.018455 
L 58.683436 92.255881 
L 62.352252 92.334913 
L 62.759898 92.568303 
L 66.83636 92.629714 
L 67.651652 93.922715 
L 68.466945 93.922715 
L 68.874591 94.501599 
L 70.912822 94.551595 
L 71.320468 95.440439 
L 72.543407 95.440439 
L 72.951053 95.753887 
L 74.581638 95.753887 
L 74.989284 95.92819 
L 75.39693 95.92819 
L 75.804577 96.17865 
L 76.212223 96.17865 
L 76.619869 97.39407 
L 81.511623 97.39407 
L 81.91927 97.762959 
L 82.734562 97.780699 
L 83.142208 98.676801 
L 83.549854 100.705491 
L 83.957501 101.797048 
L 87.21867 101.817776 
L 87.626316 102.158334 
L 88.033963 102.666546 
L 88.849255 102.666546 
L 89.256901 104.141875 
L 93.333363 104.17181 
L 93.741009 104.505797 
L 95.371594 104.505797 
L 95.77924 104.806358 
L 96.594533 104.806358 
L 97.002179 105.434428 
L 98.225118 105.434428 
L 98.632764 105.641775 
L 99.855702 105.781961 
L 101.078641 105.781961 
L 102.30158 106.26395 
L 104.747457 106.26395 
L 105.155103 106.420937 
L 105.562749 109.195358 
L 105.970395 109.567302 
L 106.378042 109.70534 
L 106.785688 109.70534 
L 107.193334 109.89495 
L 107.60098 110.209743 
L 108.823919 110.209743 
L 109.231565 110.369287 
L 111.677442 110.369287 
L 112.085088 112.558228 
L 114.12332 112.558228 
L 114.530966 115.678962 
L 116.569197 115.69545 
L 116.976843 115.858662 
L 118.199782 115.858662 
L 118.607428 116.183344 
L 120.238013 116.183344 
L 120.645659 116.796787 
L 123.499182 116.796787 
L 123.906828 117.138355 
L 134.097983 117.231339 
L 134.50563 117.598247 
L 135.320922 117.699922 
L 138.174445 117.699922 
L 138.582092 117.983467 
L 138.989738 117.983467 
L 139.397384 118.553196 
L 139.80503 118.893557 
L 140.620323 118.893557 
L 141.027969 119.523544 
L 145.104431 119.539673 
L 145.512077 119.672436 
L 157.741463 119.697481 
L 158.556756 119.865614 
L 177.716127 119.953934 
L 178.531419 120.064427 
L 186.684343 120.064427 
L 187.09199 120.210363 
L 195.65256 120.24281 
L 196.060206 120.47878 
L 198.91373 120.47878 
L 199.321376 120.721581 
L 231.933072 120.794165 
L 232.748364 120.872158 
L 242.531873 120.97031 
L 242.531873 120.97031 
" clip-path="url(#p55ccd5e76d)" style="fill: none; stroke: #b8b8b8; stroke-opacity: 0.28; stroke-width: 0.75; stroke-linecap: square"/>
   </g>
   <g id="line2d_23">
    <path d="M 38.708772 12.882727 
L 39.116418 12.882727 
L 39.524065 15.951495 
L 40.339357 15.951495 
L 40.747003 17.153051 
L 41.154649 17.153051 
L 41.562296 21.021387 
L 41.969942 21.021387 
L 42.785234 28.546623 
L 43.19288 28.546623 
L 43.600527 29.70892 
L 44.008173 33.42612 
L 44.415819 33.67592 
L 44.823465 33.67592 
L 45.231111 34.661836 
L 45.638758 38.171975 
L 46.45405 42.118421 
L 46.861696 42.26279 
L 47.269342 42.26279 
L 47.676989 46.224498 
L 48.084635 46.322989 
L 48.492281 48.779267 
L 48.899927 49.84908 
L 50.530512 49.84908 
L 50.938158 50.292524 
L 51.345804 50.292524 
L 51.753451 53.971459 
L 55.01462 53.971459 
L 55.422266 55.844781 
L 56.237559 55.844781 
L 56.645205 56.055833 
L 57.052851 57.566214 
L 60.721667 57.566214 
L 61.129313 58.264348 
L 61.536959 58.499755 
L 61.944606 58.499755 
L 62.352252 59.151104 
L 64.390483 59.151104 
L 64.798129 59.290585 
L 65.205775 62.021782 
L 66.021068 62.021782 
L 66.428714 62.788074 
L 66.83636 65.941992 
L 67.651652 65.941992 
L 68.059299 66.229683 
L 68.466945 66.229683 
L 68.874591 66.455702 
L 76.619869 66.455702 
L 77.027515 68.188972 
L 78.250454 68.188972 
L 78.6581 68.584049 
L 87.626316 68.611701 
L 88.033963 69.407493 
L 88.441609 69.621891 
L 88.849255 72.885732 
L 90.887486 72.9825 
L 91.295132 73.536132 
L 92.518071 73.585104 
L 93.333363 73.585104 
L 93.741009 75.013061 
L 94.148656 75.709479 
L 94.963948 75.709479 
L 95.371594 75.964692 
L 98.632764 75.964692 
L 99.04041 76.091448 
L 101.078641 76.091448 
L 101.486287 76.509143 
L 106.378042 76.509143 
L 106.785688 77.505717 
L 107.60098 77.583049 
L 112.492735 77.583049 
L 112.900381 77.732332 
L 116.569197 77.732332 
L 116.976843 77.877736 
L 117.384489 78.207328 
L 119.830366 78.207328 
L 120.238013 78.362903 
L 122.276244 78.362903 
L 122.68389 79.106755 
L 123.906828 79.106755 
L 124.314475 79.575754 
L 126.352706 79.575754 
L 126.760352 79.954535 
L 127.575644 79.954535 
L 127.98329 80.288943 
L 134.097983 80.360907 
L 134.50563 80.731093 
L 136.136214 80.731093 
L 136.543861 81.053775 
L 137.359153 81.053775 
L 137.766799 81.269519 
L 138.582092 81.269519 
L 138.989738 81.62306 
L 146.327369 81.719513 
L 148.3656 81.745434 
L 152.442062 81.853036 
L 152.849709 82.753348 
L 154.072647 82.753348 
L 154.480294 82.961901 
L 155.295586 82.961901 
L 155.703232 83.286441 
L 172.416726 83.296616 
L 172.824373 83.476919 
L 176.085542 83.573295 
L 176.493188 84.471505 
L 195.65256 84.559246 
L 196.875499 84.599137 
L 208.697238 84.645224 
L 209.104885 85.304799 
L 210.735469 85.304799 
L 211.143116 85.51921 
L 213.996639 85.51921 
L 214.404285 85.861981 
L 226.633671 85.861981 
L 227.041317 86.113959 
L 231.117779 86.113959 
L 231.525426 86.555432 
L 235.194242 86.555432 
L 236.009534 86.669695 
L 242.531873 86.669695 
L 242.531873 86.669695 
" clip-path="url(#p55ccd5e76d)" style="fill: none; stroke: #b8b8b8; stroke-opacity: 0.28; stroke-width: 0.75; stroke-linecap: square"/>
   </g>
   <g id="line2d_24">
    <path d="M 38.708772 12.882727 
L 39.116418 12.882727 
L 39.524065 15.062831 
L 39.931711 15.062831 
L 40.339357 15.411651 
L 40.747003 15.411651 
L 41.154649 15.680248 
L 41.562296 15.726724 
L 41.969942 19.964499 
L 42.785234 19.964499 
L 43.19288 21.29194 
L 44.008173 21.29194 
L 44.415819 24.520206 
L 44.823465 25.424666 
L 46.45405 25.424666 
L 46.861696 32.410999 
L 47.269342 32.410999 
L 47.676989 33.698026 
L 48.084635 33.885273 
L 49.307573 33.885273 
L 49.71522 34.875092 
L 50.122866 34.875092 
L 50.530512 35.927176 
L 50.938158 35.927176 
L 51.345804 36.463062 
L 51.753451 36.463062 
L 52.161097 38.993701 
L 53.384035 38.993701 
L 53.791682 39.35518 
L 54.199328 40.544803 
L 54.606974 40.544803 
L 55.01462 42.483189 
L 57.868144 42.483189 
L 58.27579 44.280019 
L 58.683436 44.280019 
L 59.091082 46.026727 
L 59.906375 46.061673 
L 60.314021 46.427452 
L 60.721667 46.427452 
L 61.129313 46.730829 
L 66.021068 46.780218 
L 66.428714 48.052861 
L 66.83636 55.166603 
L 68.874591 55.166603 
L 69.282237 62.380318 
L 71.728114 62.380318 
L 72.135761 64.096565 
L 77.435161 64.201707 
L 77.842808 66.348029 
L 78.6581 66.889625 
L 79.065746 68.812739 
L 82.326916 68.834547 
L 82.734562 69.308868 
L 83.142208 69.308868 
L 83.549854 69.703243 
L 90.47984 69.703243 
L 90.887486 70.141233 
L 93.333363 70.141233 
L 93.741009 70.398836 
L 97.002179 70.423632 
L 97.409825 71.165651 
L 107.193334 71.165651 
L 107.60098 71.38066 
L 111.269796 71.451201 
L 111.677442 72.017373 
L 112.900381 72.017373 
L 113.308027 72.439494 
L 113.715673 72.439494 
L 114.12332 72.590274 
L 118.607428 72.590274 
L 119.015074 73.170027 
L 119.42272 73.289389 
L 119.830366 73.834903 
L 128.798583 73.834903 
L 129.206229 76.090292 
L 139.397384 76.090292 
L 139.80503 76.694929 
L 149.996185 76.781253 
L 150.403831 77.845726 
L 159.372048 77.857325 
L 159.779694 78.043761 
L 161.817925 78.074834 
L 162.225571 78.468419 
L 174.047311 78.488072 
L 174.454957 78.780522 
L 183.015528 78.780522 
L 183.423174 78.987413 
L 184.238466 79.051289 
L 200.951961 79.051289 
L 201.359607 79.435145 
L 231.933072 79.471569 
L 232.340718 80.457771 
L 242.531873 80.562755 
L 242.531873 80.562755 
" clip-path="url(#p55ccd5e76d)" style="fill: none; stroke: #b8b8b8; stroke-opacity: 0.28; stroke-width: 0.75; stroke-linecap: square"/>
   </g>
   <g id="line2d_25">
    <path d="M 38.708772 12.882727 
L 40.747003 12.882727 
L 41.562296 24.469901 
L 42.785234 24.469901 
L 43.19288 25.829902 
L 43.600527 28.005116 
L 45.231111 28.005116 
L 45.638758 29.903265 
L 46.046404 29.903265 
L 46.45405 31.639447 
L 47.269342 31.639447 
L 47.676989 36.575817 
L 48.084635 36.575817 
L 48.492281 47.022103 
L 48.899927 51.201083 
L 52.161097 51.201083 
L 52.568743 51.492177 
L 52.976389 51.492177 
L 53.384035 53.812328 
L 53.791682 54.612362 
L 55.422266 54.612362 
L 56.237559 54.887451 
L 56.645205 54.887451 
L 57.052851 62.526639 
L 58.683436 62.526639 
L 59.091082 63.53404 
L 59.906375 63.53404 
L 60.314021 64.313948 
L 60.721667 64.313948 
L 61.129313 65.328021 
L 63.982837 65.328065 
L 64.390483 65.513967 
L 64.798129 66.286607 
L 68.874591 66.381811 
L 69.282237 68.352318 
L 72.135761 68.352318 
L 72.543407 69.749313 
L 75.804577 69.749313 
L 76.212223 74.256363 
L 77.027515 74.256363 
L 77.435161 74.531045 
L 79.881039 74.531045 
L 80.288685 75.191651 
L 80.696331 76.159371 
L 82.734562 76.159371 
L 83.142208 76.467903 
L 88.033963 76.467903 
L 88.441609 77.279585 
L 89.256901 77.386695 
L 89.664547 77.940408 
L 90.47984 78.036245 
L 92.110425 78.069018 
L 92.518071 78.069018 
L 92.925717 78.428847 
L 95.371594 78.484124 
L 95.77924 78.754874 
L 106.785688 78.754874 
L 107.193334 80.013261 
L 109.231565 80.013261 
L 109.639211 80.206859 
L 110.046857 80.710617 
L 110.86215 80.710617 
L 111.269796 80.911719 
L 114.12332 80.911719 
L 114.530966 81.197559 
L 121.868597 81.197559 
L 122.276244 83.387284 
L 127.167998 83.387284 
L 127.575644 83.54243 
L 131.24446 83.54243 
L 131.652106 83.776872 
L 133.282691 83.776872 
L 133.690337 83.980928 
L 137.766799 83.980928 
L 138.174445 84.283002 
L 142.658554 84.283002 
L 143.0662 84.636158 
L 145.512077 84.636158 
L 146.327369 84.749222 
L 146.735016 84.749222 
L 147.142662 85.043305 
L 162.633218 85.1243 
L 164.263802 85.209849 
L 168.747911 85.209849 
L 169.155557 85.919186 
L 193.206683 85.982445 
L 193.614329 86.161874 
L 198.91373 86.161874 
L 199.321376 86.312737 
L 200.544314 86.312737 
L 200.951961 86.430629 
L 219.703686 86.430629 
L 220.111332 86.626692 
L 222.964855 86.653157 
L 223.372502 86.818388 
L 235.194242 86.860704 
L 235.601888 87.236966 
L 242.531873 87.236966 
L 242.531873 87.236966 
" clip-path="url(#p55ccd5e76d)" style="fill: none; stroke: #b8b8b8; stroke-opacity: 0.28; stroke-width: 0.75; stroke-linecap: square"/>
   </g>
   <g id="line2d_26">
    <path d="M 38.708772 12.882727 
L 39.116418 17.91724 
L 40.339357 17.959518 
L 40.747003 20.822013 
L 41.154649 20.822013 
L 41.562296 26.699313 
L 41.969942 41.652721 
L 42.785234 41.652721 
L 43.19288 56.981066 
L 43.600527 57.582754 
L 44.823465 57.582754 
L 45.231111 59.712403 
L 47.676989 59.712403 
L 48.084635 60.330505 
L 48.492281 61.222444 
L 48.899927 61.44912 
L 49.307573 61.44912 
L 49.71522 61.93156 
L 50.530512 61.93156 
L 50.938158 63.150021 
L 51.345804 63.34438 
L 51.753451 64.015916 
L 52.161097 64.015916 
L 52.568743 64.390896 
L 53.791682 64.390896 
L 54.199328 64.839812 
L 54.606974 64.839812 
L 55.01462 65.771565 
L 55.422266 68.014453 
L 55.829913 68.883363 
L 56.237559 68.883363 
L 56.645205 70.273304 
L 57.460497 70.273304 
L 57.868144 71.092618 
L 58.683436 71.092618 
L 59.091082 71.280705 
L 59.498728 71.280705 
L 59.906375 71.664406 
L 61.129313 71.664406 
L 61.536959 72.482141 
L 64.390483 72.581705 
L 64.798129 72.678787 
L 65.205775 73.981336 
L 67.244006 73.981336 
L 67.651652 74.189074 
L 69.689883 74.189074 
L 70.09753 75.033348 
L 72.135761 75.033348 
L 72.543407 75.192042 
L 72.951053 75.927775 
L 76.212223 76.025254 
L 77.027515 76.089447 
L 88.441609 76.089447 
L 88.849255 77.245843 
L 90.47984 77.245843 
L 90.887486 77.391012 
L 91.702778 77.391012 
L 92.110425 78.319312 
L 94.148656 78.319312 
L 94.556302 80.16171 
L 102.30158 80.165235 
L 102.709226 80.862922 
L 103.932164 80.862922 
L 104.339811 81.093279 
L 105.970395 81.093279 
L 106.378042 81.6907 
L 106.785688 81.6907 
L 107.193334 82.090749 
L 107.60098 83.130935 
L 108.008626 83.258146 
L 109.639211 83.258146 
L 110.046857 83.769204 
L 112.900381 83.769204 
L 113.308027 84.051566 
L 116.569197 84.051566 
L 116.976843 84.162874 
L 117.384489 84.952553 
L 118.199782 84.952553 
L 118.607428 85.275608 
L 119.015074 86.030038 
L 127.575644 86.136783 
L 127.98329 87.404342 
L 128.390937 87.404342 
L 128.798583 88.412422 
L 136.951507 88.412422 
L 137.359153 88.568602 
L 139.397384 88.568602 
L 139.80503 88.687624 
L 149.180893 88.712035 
L 149.588539 89.552766 
L 150.403831 89.552766 
L 151.219124 89.666647 
L 159.779694 89.666647 
L 160.18734 90.034437 
L 162.225571 90.034437 
L 162.633218 90.165151 
L 175.27025 90.165151 
L 175.677896 90.856067 
L 179.754358 90.91142 
L 180.56965 90.991891 
L 182.607881 91.07426 
L 183.423174 91.161331 
L 185.461405 91.161331 
L 185.869051 91.866963 
L 186.684343 91.866963 
L 187.09199 92.815241 
L 188.722574 92.815241 
L 189.130221 93.013484 
L 209.104885 93.060048 
L 209.512531 93.502526 
L 218.888393 93.502526 
L 219.29604 93.630288 
L 222.964855 93.630288 
L 223.372502 93.90305 
L 242.531873 93.90305 
L 242.531873 93.90305 
" clip-path="url(#p55ccd5e76d)" style="fill: none; stroke: #b8b8b8; stroke-opacity: 0.28; stroke-width: 0.75; stroke-linecap: square"/>
   </g>
   <g id="line2d_27">
    <path d="M 38.708772 12.882727 
L 39.931711 12.882727 
L 40.339357 18.8122 
L 41.969942 18.8122 
L 42.377588 19.176922 
L 42.785234 57.076758 
L 43.19288 58.03128 
L 43.600527 60.130182 
L 44.415819 60.130182 
L 44.823465 63.74726 
L 45.231111 65.654922 
L 47.269342 65.654922 
L 47.676989 81.460027 
L 49.71522 81.460027 
L 50.122866 81.729121 
L 51.345804 81.729121 
L 51.753451 84.748554 
L 52.161097 85.022669 
L 52.976389 85.022669 
L 53.384035 85.188911 
L 54.199328 85.188911 
L 54.606974 85.330984 
L 56.645205 85.375557 
L 57.460497 86.725914 
L 57.868144 86.725914 
L 58.27579 89.787371 
L 60.314021 89.787371 
L 60.721667 90.88657 
L 62.352252 90.88657 
L 62.759898 91.811806 
L 63.167544 91.811806 
L 63.57519 92.227895 
L 68.466945 92.31862 
L 68.874591 92.456666 
L 71.320468 92.456666 
L 71.728114 93.324109 
L 73.358699 93.324109 
L 73.766345 93.980537 
L 74.173992 94.12369 
L 75.804577 94.12369 
L 76.212223 94.284943 
L 77.027515 94.284943 
L 77.435161 95.018072 
L 77.842808 97.065195 
L 86.403378 97.065195 
L 86.811024 97.53988 
L 87.626316 97.53988 
L 88.033963 98.286666 
L 88.849255 98.286666 
L 89.256901 99.149769 
L 89.664547 99.149769 
L 90.072194 100.478751 
L 90.47984 100.663583 
L 92.518071 100.663583 
L 92.925717 100.86966 
L 93.741009 100.967568 
L 94.148656 101.401191 
L 95.77924 101.452661 
L 96.186887 101.931795 
L 104.747457 102.026024 
L 105.155103 103.14745 
L 107.193334 103.170696 
L 107.60098 103.884497 
L 109.231565 103.884497 
L 109.639211 104.006012 
L 111.269796 104.006012 
L 112.085088 104.118279 
L 117.384489 104.144797 
L 117.792135 104.381111 
L 125.537413 104.381111 
L 125.945059 104.821522 
L 126.352706 104.905284 
L 126.760352 105.44868 
L 131.24446 105.450454 
L 131.652106 105.704873 
L 138.174445 105.704873 
L 138.582092 105.971586 
L 141.027969 106.080722 
L 142.250907 106.127685 
L 147.550308 106.180973 
L 147.957954 106.693521 
L 152.849709 106.735683 
L 153.257355 107.313966 
L 157.333817 107.359427 
L 157.741463 107.549231 
L 160.594987 107.549231 
L 161.002633 107.894813 
L 161.410279 107.894813 
L 161.817925 108.163063 
L 165.079095 108.163063 
L 165.486741 108.304725 
L 169.970849 108.304725 
L 170.378495 108.533869 
L 182.200235 108.639381 
L 183.015528 108.736638 
L 202.582545 108.834156 
L 202.990192 113.120894 
L 203.805484 113.182351 
L 204.21313 113.182351 
L 205.028423 113.296132 
L 210.327823 113.296132 
L 211.143116 113.61868 
L 214.811931 113.61868 
L 215.219578 113.879505 
L 235.601888 113.974561 
L 236.41718 114.063661 
L 242.531873 114.116544 
L 242.531873 114.116544 
" clip-path="url(#p55ccd5e76d)" style="fill: none; stroke: #b8b8b8; stroke-opacity: 0.28; stroke-width: 0.75; stroke-linecap: square"/>
   </g>
   <g id="line2d_28">
    <path d="M 38.708772 12.882727 
L 40.339357 12.882727 
L 40.747003 19.631278 
L 41.154649 19.631278 
L 41.562296 31.790904 
L 41.969942 31.790904 
L 42.377588 33.973269 
L 42.785234 33.973269 
L 43.19288 34.127253 
L 43.600527 37.449617 
L 44.008173 42.448591 
L 44.823465 42.448591 
L 45.231111 49.077281 
L 45.638758 67.712554 
L 46.45405 67.712554 
L 46.861696 68.51529 
L 48.899927 68.51529 
L 49.307573 73.415055 
L 50.938158 73.44801 
L 51.345804 76.026666 
L 56.237559 76.026666 
L 57.052851 77.190989 
L 58.27579 77.190989 
L 59.091082 78.894214 
L 59.498728 78.894214 
L 59.906375 79.706282 
L 61.944606 79.706282 
L 62.352252 81.211307 
L 63.57519 81.211307 
L 63.982837 88.895556 
L 64.390483 89.655188 
L 66.428714 89.736639 
L 66.83636 90.055741 
L 67.244006 90.055741 
L 67.651652 90.520029 
L 68.874591 90.520029 
L 69.282237 91.317681 
L 70.505176 91.317897 
L 70.912822 91.913914 
L 75.39693 91.9482 
L 75.804577 92.39516 
L 76.212223 93.502794 
L 79.065746 93.502794 
L 79.473392 94.833982 
L 81.91927 94.847063 
L 82.326916 96.062375 
L 83.549854 96.062375 
L 83.957501 96.347256 
L 85.588085 96.347256 
L 85.995732 97.104327 
L 96.594533 97.104327 
L 97.002179 97.392287 
L 100.263349 97.392287 
L 100.670995 99.018504 
L 103.932164 99.018504 
L 104.339811 99.347039 
L 105.155103 99.347039 
L 105.562749 101.703073 
L 106.785688 101.703073 
L 107.193334 101.882472 
L 108.008626 101.882472 
L 108.416273 102.186771 
L 110.454504 102.186771 
L 110.86215 102.50915 
L 118.199782 102.50915 
L 118.607428 102.989273 
L 125.129767 102.989273 
L 125.537413 103.122678 
L 132.467399 103.127929 
L 132.875045 103.738939 
L 135.320922 103.845445 
L 135.728568 104.616919 
L 144.289138 104.616919 
L 144.696785 105.126498 
L 145.512077 105.126498 
L 145.919723 105.348722 
L 154.480294 105.348722 
L 154.88794 105.674713 
L 155.295586 105.843294 
L 155.703232 105.843294 
L 156.110878 106.283238 
L 159.779694 106.295266 
L 160.18734 106.779586 
L 163.856156 106.785209 
L 164.263802 106.969414 
L 183.015528 107.002351 
L 183.423174 107.152314 
L 199.321376 107.199508 
L 200.136668 107.269432 
L 220.926624 107.379943 
L 221.334271 107.686335 
L 227.448964 107.761878 
L 227.85661 108.179895 
L 239.270704 108.179895 
L 239.67835 109.206765 
L 242.531873 109.206765 
L 242.531873 109.206765 
" clip-path="url(#p55ccd5e76d)" style="fill: none; stroke: #b8b8b8; stroke-opacity: 0.28; stroke-width: 0.75; stroke-linecap: square"/>
   </g>
   <g id="line2d_29">
    <path d="M 38.708772 12.882727 
L 39.524065 12.95751 
L 39.931711 15.855861 
L 42.377588 15.943945 
L 42.785234 16.380214 
L 43.600527 16.380214 
L 44.008173 42.456757 
L 44.415819 43.178306 
L 45.638758 43.178306 
L 46.046404 43.891029 
L 48.084635 43.891029 
L 48.492281 44.835287 
L 49.307573 44.835287 
L 49.71522 45.52187 
L 50.122866 45.98352 
L 50.530512 46.147478 
L 52.568743 46.147478 
L 52.976389 51.488762 
L 53.384035 51.488762 
L 53.791682 52.166656 
L 54.199328 62.503402 
L 54.606974 62.503402 
L 55.01462 65.998169 
L 55.422266 65.998169 
L 55.829913 68.816652 
L 56.645205 68.816652 
L 57.052851 74.451436 
L 57.460497 74.451436 
L 57.868144 74.915776 
L 59.498728 74.915776 
L 60.314021 77.051751 
L 60.721667 77.051751 
L 61.129313 77.797495 
L 62.759898 77.797495 
L 63.167544 80.606244 
L 66.428714 80.606244 
L 66.83636 81.606629 
L 67.244006 81.606629 
L 67.651652 82.373262 
L 69.282237 82.373262 
L 69.689883 82.512167 
L 70.09753 82.512167 
L 70.505176 84.294857 
L 71.728114 84.294857 
L 72.135761 84.441596 
L 72.951053 84.441596 
L 73.358699 85.515361 
L 77.435161 85.515361 
L 77.842808 86.286414 
L 80.288685 86.286414 
L 80.696331 89.762499 
L 81.103977 89.762499 
L 81.511623 90.122211 
L 88.033963 90.15313 
L 88.441609 90.28384 
L 92.925717 90.28384 
L 93.333363 90.558851 
L 95.371594 90.558851 
L 95.77924 90.747684 
L 98.225118 90.747684 
L 98.632764 91.326114 
L 99.04041 91.326114 
L 99.448056 91.543243 
L 102.709226 91.592811 
L 103.116872 91.76203 
L 106.378042 91.76203 
L 106.785688 92.894231 
L 118.607428 92.894231 
L 119.015074 93.237686 
L 121.053305 93.237686 
L 121.460951 94.447601 
L 124.314475 94.447601 
L 124.722121 95.54528 
L 126.760352 95.54528 
L 127.167998 96.715203 
L 130.429168 96.808084 
L 130.836814 97.464453 
L 136.136214 97.480646 
L 136.543861 97.718194 
L 142.658554 97.778522 
L 143.473846 97.891716 
L 156.110878 97.891716 
L 156.518525 98.253422 
L 167.932618 98.253422 
L 168.340264 98.701764 
L 172.416726 98.701764 
L 172.824373 98.868848 
L 176.493188 98.868848 
L 176.900835 99.384453 
L 186.684343 99.430913 
L 187.09199 99.651611 
L 191.983744 99.651611 
L 192.39139 99.86362 
L 193.206683 99.86362 
L 193.614329 102.656001 
L 194.021975 102.656001 
L 194.429621 103.206093 
L 200.951961 103.207145 
L 201.359607 103.343271 
L 209.512531 103.452821 
L 209.920177 103.75981 
L 217.665455 103.858687 
L 218.073101 104.190473 
L 240.085996 104.194288 
L 240.493642 104.751578 
L 242.531873 104.751578 
L 242.531873 104.751578 
" clip-path="url(#p55ccd5e76d)" style="fill: none; stroke: #b8b8b8; stroke-opacity: 0.28; stroke-width: 0.75; stroke-linecap: square"/>
   </g>
   <g id="line2d_30">
    <path d="M 38.708772 12.882727 
L 39.116418 12.882727 
L 39.524065 13.123437 
L 39.931711 13.123437 
L 40.339357 14.632073 
L 40.747003 14.632073 
L 41.154649 21.275225 
L 41.562296 21.275225 
L 41.969942 21.610813 
L 42.377588 21.610813 
L 42.785234 22.790376 
L 43.600527 23.248949 
L 44.008173 25.260509 
L 44.415819 26.631593 
L 45.638758 26.653253 
L 46.046404 27.394754 
L 46.45405 27.692772 
L 48.492281 27.692772 
L 48.899927 28.362385 
L 51.345804 28.362385 
L 51.753451 29.324551 
L 53.384035 29.324551 
L 53.791682 29.593732 
L 54.199328 29.593732 
L 54.606974 30.558552 
L 55.829913 30.558552 
L 56.237559 31.551758 
L 56.645205 66.332738 
L 59.091082 66.427144 
L 59.498728 66.763417 
L 62.352252 66.763417 
L 62.759898 82.794171 
L 64.390483 82.794171 
L 64.798129 83.135616 
L 65.205775 83.135616 
L 65.613421 84.654827 
L 66.021068 84.654827 
L 66.428714 84.778944 
L 66.83636 90.575609 
L 68.466945 90.575609 
L 68.874591 91.127413 
L 71.320468 91.127413 
L 71.728114 93.393402 
L 76.212223 93.393402 
L 76.619869 93.728205 
L 78.250454 93.728205 
L 78.6581 94.094943 
L 79.881039 94.094943 
L 80.288685 94.293121 
L 83.549854 94.378156 
L 83.957501 100.140263 
L 86.811024 100.151536 
L 87.21867 112.958023 
L 93.333363 112.958023 
L 93.741009 117.110516 
L 97.002179 117.163252 
L 97.409825 119.078831 
L 99.04041 119.129155 
L 99.448056 119.419641 
L 101.486287 119.419641 
L 101.893933 119.607004 
L 103.524518 119.607004 
L 103.932164 119.727267 
L 104.339811 119.727267 
L 104.747457 120.412716 
L 106.378042 120.412716 
L 106.785688 121.047937 
L 109.639211 121.157815 
L 110.046857 123.800079 
L 110.454504 124.103507 
L 117.792135 124.103507 
L 118.199782 124.526454 
L 119.830366 124.526454 
L 120.238013 125.2217 
L 120.645659 125.549307 
L 145.512077 125.642197 
L 145.919723 126.067078 
L 187.499636 126.176883 
L 187.907282 126.537273 
L 242.531873 126.537273 
L 242.531873 126.537273 
" clip-path="url(#p55ccd5e76d)" style="fill: none; stroke: #b8b8b8; stroke-opacity: 0.28; stroke-width: 0.75; stroke-linecap: square"/>
   </g>
   <g id="line2d_31">
    <path d="M 38.708772 12.882727 
L 39.116418 14.549472 
L 39.524065 14.882034 
L 39.931711 17.161558 
L 40.747003 19.844549 
L 41.969942 25.739944 
L 42.377588 26.593071 
L 42.785234 30.966854 
L 43.19288 32.447558 
L 43.600527 33.000722 
L 44.008173 35.882894 
L 44.415819 36.227818 
L 44.823465 36.805869 
L 45.231111 37.923895 
L 45.638758 41.994623 
L 46.046404 43.860919 
L 46.45405 44.427361 
L 46.861696 45.623287 
L 47.269342 46.151835 
L 47.676989 47.885509 
L 48.084635 48.415105 
L 48.492281 49.912156 
L 48.899927 50.616084 
L 49.307573 50.982689 
L 49.71522 51.875959 
L 50.122866 52.149015 
L 50.530512 52.727883 
L 51.345804 53.096679 
L 51.753451 53.869813 
L 52.568743 54.625478 
L 52.976389 55.649357 
L 54.199328 57.65384 
L 54.606974 58.012552 
L 55.01462 58.834442 
L 56.237559 59.840786 
L 56.645205 61.894981 
L 57.052851 62.740007 
L 58.27579 63.259174 
L 58.683436 63.619764 
L 59.091082 64.129212 
L 59.498728 64.353018 
L 59.906375 64.996049 
L 61.536959 65.585706 
L 61.944606 65.585706 
L 62.352252 65.719018 
L 62.759898 66.906731 
L 63.167544 67.133582 
L 63.57519 67.231959 
L 63.982837 67.669092 
L 64.390483 67.783885 
L 65.613421 68.624681 
L 66.021068 68.638244 
L 66.428714 68.980915 
L 67.244006 71.255479 
L 68.466945 71.610413 
L 68.874591 71.689084 
L 69.282237 72.340515 
L 70.09753 72.481339 
L 70.505176 72.759799 
L 70.912822 72.792716 
L 71.320468 72.937829 
L 71.728114 73.22336 
L 74.173992 73.914023 
L 74.989284 74.011041 
L 75.804577 74.462094 
L 76.212223 74.884514 
L 76.619869 75.001642 
L 77.027515 75.26564 
L 77.435161 75.318682 
L 77.842808 75.748942 
L 79.065746 76.153486 
L 79.473392 76.55106 
L 79.881039 76.562814 
L 80.696331 77.094617 
L 81.103977 77.094617 
L 81.511623 77.344494 
L 83.142208 77.581582 
L 83.549854 77.765599 
L 83.957501 78.149253 
L 84.772793 78.297 
L 85.180439 78.514938 
L 85.588085 78.526112 
L 86.403378 78.828556 
L 87.21867 80.272193 
L 87.626316 80.290117 
L 92.518071 81.794306 
L 93.333363 81.941943 
L 93.741009 82.27194 
L 94.963948 82.608631 
L 95.77924 82.770096 
L 96.186887 83.414637 
L 97.409825 84.199698 
L 97.817471 84.655174 
L 98.225118 84.66543 
L 98.632764 84.826466 
L 99.855702 84.973515 
L 100.670995 85.228913 
L 101.486287 85.26903 
L 101.893933 85.462564 
L 103.932164 85.615404 
L 105.155103 85.783699 
L 105.562749 86.054946 
L 106.378042 86.141304 
L 107.60098 86.562157 
L 108.823919 86.629775 
L 110.046857 87.16321 
L 111.269796 87.322792 
L 111.677442 87.358499 
L 112.492735 87.580458 
L 114.12332 87.70829 
L 114.530966 87.887583 
L 116.161551 87.973397 
L 118.607428 88.405591 
L 119.015074 88.557952 
L 119.830366 88.684519 
L 130.836814 89.89125 
L 132.467399 90.054251 
L 138.174445 90.524703 
L 138.989738 90.743565 
L 139.397384 90.773551 
L 139.80503 90.9294 
L 149.996185 91.66117 
L 150.811478 91.783049 
L 156.110878 92.061047 
L 157.333817 92.114149 
L 162.225571 92.288425 
L 164.671449 92.625921 
L 166.302033 92.731799 
L 173.639665 92.980448 
L 174.454957 92.996001 
L 175.27025 93.120167 
L 175.677896 93.156531 
L 176.493188 93.383587 
L 178.531419 93.490762 
L 180.977297 93.603392 
L 184.238466 93.789422 
L 186.684343 93.828657 
L 187.499636 93.907876 
L 189.130221 93.978286 
L 193.206683 94.02925 
L 194.021975 94.236036 
L 196.060206 94.300707 
L 202.582545 94.434149 
L 202.990192 94.659766 
L 210.735469 94.827292 
L 212.366054 94.898904 
L 215.219578 94.986275 
L 216.03487 95.085646 
L 220.926624 95.194024 
L 225.818379 95.306437 
L 231.117779 95.399024 
L 234.786595 95.506581 
L 237.640119 95.555914 
L 238.455411 95.658556 
L 240.085996 95.754888 
L 241.308935 95.864638 
L 242.531873 95.864638 
L 242.531873 95.864638 
" clip-path="url(#p55ccd5e76d)" style="fill: none; stroke: #b2182b; stroke-width: 2.2; stroke-linecap: square"/>
   </g>
   <g id="line2d_32">
    <path d="M 38.708772 12.882727 
L 242.531873 12.882727 
" clip-path="url(#p55ccd5e76d)" style="fill: none; stroke-dasharray: 2.96,1.28; stroke-dashoffset: 0; stroke: #555555; stroke-opacity: 0.7; stroke-width: 0.8"/>
   </g>
   <g id="patch_3">
    <path d="M 38.708772 132.22 
L 38.708772 7.2 
" style="fill: none; stroke: #222222; stroke-width: 0.8; stroke-linejoin: miter; stroke-linecap: square"/>
   </g>
   <g id="patch_4">
    <path d="M 38.708772 132.22 
L 242.531873 132.22 
" style="fill: none; stroke: #222222; stroke-width: 0.8; stroke-linejoin: miter; stroke-linecap: square"/>
   </g>
   <g id="text_13">
    <!-- $\frac{E}{E_0}$ -->
    <g transform="translate(7.2 32.0286)">
     <text>
      <tspan x="0" y="6.0375" style="font-size: 10.5px; font-family: 'cmmi10'">E</tspan>
      <tspan x="2" y="-5.825" style="font-size: 10.5px; font-family: 'cmmi10'">E</tspan>
      <tspan x="7.746826" y="7.823156" style="font-size: 7.35px; font-family: 'cmr10'">0</tspan>
     </text>
     <rect x="0" y="-3.075" width="12.091447" height="0.9375"/>
    </g>
   </g>
  </g>
 </g>
 <defs>
  <clipPath id="p55ccd5e76d">
   <rect x="38.708772" y="7.2" width="203.823101" height="125.02"/>
  </clipPath>
 </defs>
</svg>
