<?xml version="1.0" encoding="utf-8" standalone="no"?>
<!DOCTYPE svg PUBLIC "-//W3C//DTD SVG 1.1//EN"
  "http://www.w3.org/Graphics/SVG/1.1/DTD/svg11.dtd">
<svg xmlns:xlink="http://www.w3.org/1999/xlink" width="250.682211pt" height="163.953281pt" viewBox="0 0 250.682211 163.953281" xmlns="http://www.w3.org/2000/svg" version="1.1">
 <metadata>
  <rdf:RDF xmlns:dc="http://purl.org/dc/elements/1.1/" xmlns:cc="http://creativecommons.org/ns#" xmlns:rdf="http://www.w3.org/1999/02/22-rdf-syntax-ns#">
   <cc:Work>
    <dc:type rdf:resource="http://purl.org/dc/dcmitype/StillImage"/>
    <dc:date>2026-06-15T20:14:46.218371</dc:date>
    <dc:format>image/svg+xml</dc:format>
    <dc:creator>
     <cc:Agent>
      <dc:title>Matplotlib v3.10.8, https://matplotlib.org/</dc:title>
     </cc:Agent>
    </dc:creator>
   </cc:Work>
  </rdf:RDF>
 </metadata>
 <defs>
  <style type="text/css">*{stroke-linejoin: round; stroke-linecap: butt}</style>
 </defs>
 <g id="figure_1">
  <g id="patch_1">
   <path d="M 0 163.953281 
L 250.682211 163.953281 
L 250.682211 0 
L 0 0 
z
" style="fill: #ffffff"/>
  </g>
  <g id="axes_1">
   <g id="patch_2">
    <path d="M 59.314801 132.22 
L 238.313696 132.22 
L 238.313696 7.2 
L 59.314801 7.2 
z
" style="fill: #ffffff"/>
   </g>
   <g id="FillBetweenPolyCollection_1">
    <defs>
     <path id="m519b3a9f43" d="M 59.314801 -150.759499 
L 59.314801 -150.759499 
L 59.672799 -150.759499 
L 60.030797 -150.759499 
L 60.388794 -150.759499 
L 60.746792 -150.759499 
L 61.10479 -150.447921 
L 61.462788 -148.516204 
L 61.820786 -147.997062 
L 62.178783 -146.008308 
L 62.536781 -142.449842 
L 62.894779 -133.725948 
L 63.252777 -133.294693 
L 63.610774 -133.294693 
L 63.968772 -128.445346 
L 64.32677 -128.445346 
L 64.684768 -128.445346 
L 65.042766 -118.599869 
L 65.400763 -112.040885 
L 65.758761 -112.040885 
L 66.116759 -112.040885 
L 66.474757 -108.298288 
L 66.832755 -108.298288 
L 67.190752 -108.298288 
L 67.54875 -108.298288 
L 67.906748 -108.298288 
L 68.264746 -108.298288 
L 68.622744 -106.186711 
L 68.980741 -106.113918 
L 69.338739 -106.113918 
L 69.696737 -106.113918 
L 70.054735 -106.113918 
L 70.412732 -106.113918 
L 70.77073 -106.113918 
L 71.128728 -106.113918 
L 71.486726 -106.113918 
L 71.844724 -106.113918 
L 72.202721 -106.113918 
L 72.560719 -106.113918 
L 72.918717 -105.573706 
L 73.276715 -105.573706 
L 73.634713 -105.573706 
L 73.99271 -105.573706 
L 74.350708 -105.573706 
L 74.708706 -105.573706 
L 75.066704 -104.057881 
L 75.424702 -97.820366 
L 75.782699 -97.820366 
L 76.140697 -97.820366 
L 76.498695 -97.820366 
L 76.856693 -94.301574 
L 77.21469 -94.301574 
L 77.572688 -94.301574 
L 77.930686 -94.258933 
L 78.288684 -90.465449 
L 78.646682 -90.465449 
L 79.004679 -90.465449 
L 79.362677 -90.465449 
L 79.720675 -90.465449 
L 80.078673 -90.465449 
L 80.436671 -87.055803 
L 80.794668 -87.055803 
L 81.152666 -87.055803 
L 81.510664 -82.52567 
L 81.868662 -85.49234 
L 82.22666 -85.49234 
L 82.584657 -85.49234 
L 82.942655 -85.49234 
L 83.300653 -85.49234 
L 83.658651 -85.49234 
L 84.016648 -82.521632 
L 84.374646 -82.521632 
L 84.732644 -82.521632 
L 85.090642 -82.521632 
L 85.44864 -82.521632 
L 85.806637 -82.521632 
L 86.164635 -82.521632 
L 86.522633 -82.521632 
L 86.880631 -82.521632 
L 87.238629 -82.521632 
L 87.596626 -82.521632 
L 87.954624 -82.521632 
L 88.312622 -82.521632 
L 88.67062 -82.521632 
L 89.028618 -82.521632 
L 89.386615 -82.521632 
L 89.744613 -78.377097 
L 90.102611 -78.377097 
L 90.460609 -78.377097 
L 90.818606 -78.377097 
L 91.176604 -78.377097 
L 91.534602 -78.377097 
L 91.8926 -76.790029 
L 92.250598 -76.790029 
L 92.608595 -76.790029 
L 92.966593 -76.790029 
L 93.324591 -76.790029 
L 93.682589 -76.790029 
L 94.040587 -76.790029 
L 94.398584 -76.790029 
L 94.756582 -76.790029 
L 95.11458 -73.877113 
L 95.472578 -73.877113 
L 95.830576 -73.877113 
L 96.188573 -72.007229 
L 96.546571 -72.007229 
L 96.904569 -72.007229 
L 97.262567 -72.007229 
L 97.620564 -72.007229 
L 97.978562 -72.007229 
L 98.33656 -72.007229 
L 98.694558 -72.007229 
L 99.052556 -71.236562 
L 99.410553 -71.236562 
L 99.768551 -71.236562 
L 100.126549 -71.236562 
L 100.484547 -71.236562 
L 100.842545 -71.236562 
L 101.200542 -71.236562 
L 101.55854 -71.236562 
L 101.916538 -69.233699 
L 102.274536 -69.233699 
L 102.632534 -69.233699 
L 102.990531 -69.233699 
L 103.348529 -69.233699 
L 103.706527 -69.233699 
L 104.064525 -69.233699 
L 104.422522 -69.233699 
L 104.78052 -69.233699 
L 105.138518 -69.233699 
L 105.496516 -69.233699 
L 105.854514 -69.233699 
L 106.212511 -69.233699 
L 106.570509 -69.233699 
L 106.928507 -69.233699 
L 107.286505 -69.233699 
L 107.644503 -69.233699 
L 108.0025 -69.233699 
L 108.360498 -69.233699 
L 108.718496 -69.233699 
L 109.076494 -69.233699 
L 109.434491 -69.233699 
L 109.792489 -69.233699 
L 110.150487 -69.233699 
L 110.508485 -70.802829 
L 110.866483 -70.802829 
L 111.22448 -67.751944 
L 111.582478 -67.751944 
L 111.940476 -67.751944 
L 112.298474 -67.751944 
L 112.656472 -65.862637 
L 113.014469 -65.862637 
L 113.372467 -65.862637 
L 113.730465 -65.862637 
L 114.088463 -65.862637 
L 114.446461 -65.862637 
L 114.804458 -65.862637 
L 115.162456 -65.862637 
L 115.520454 -65.862637 
L 115.878452 -65.862637 
L 116.236449 -65.862637 
L 116.594447 -65.862637 
L 116.952445 -65.862637 
L 117.310443 -65.862637 
L 117.668441 -65.862637 
L 118.026438 -63.456073 
L 118.384436 -63.456073 
L 118.742434 -63.456073 
L 119.100432 -63.456073 
L 119.45843 -63.456073 
L 119.816427 -63.456073 
L 120.174425 -63.456073 
L 120.532423 -63.456073 
L 120.890421 -63.456073 
L 121.248419 -63.456073 
L 121.606416 -63.456073 
L 121.964414 -63.456073 
L 122.322412 -63.456073 
L 122.68041 -63.456073 
L 123.038407 -63.456073 
L 123.396405 -63.456073 
L 123.754403 -63.456073 
L 124.112401 -63.456073 
L 124.470399 -63.456073 
L 124.828396 -62.902429 
L 125.186394 -62.902429 
L 125.544392 -62.902429 
L 125.90239 -62.902429 
L 126.260388 -62.902429 
L 126.618385 -62.828505 
L 126.976383 -62.828505 
L 127.334381 -62.828505 
L 127.692379 -62.828505 
L 128.050377 -62.828505 
L 128.408374 -62.828505 
L 128.766372 -62.828505 
L 129.12437 -62.828505 
L 129.482368 -62.828505 
L 129.840365 -62.828505 
L 130.198363 -62.828505 
L 130.556361 -62.828505 
L 130.914359 -62.828505 
L 131.272357 -62.828505 
L 131.630354 -62.828505 
L 131.988352 -62.828505 
L 132.34635 -62.828505 
L 132.704348 -61.88481 
L 133.062346 -61.88481 
L 133.420343 -61.88481 
L 133.778341 -61.88481 
L 134.136339 -61.88481 
L 134.494337 -61.88481 
L 134.852335 -61.88481 
L 135.210332 -61.88481 
L 135.56833 -61.88481 
L 135.926328 -61.88481 
L 136.284326 -61.88481 
L 136.642323 -61.88481 
L 137.000321 -61.88481 
L 137.358319 -61.88481 
L 137.716317 -61.88481 
L 138.074315 -61.88481 
L 138.432312 -61.88481 
L 138.79031 -61.88481 
L 139.148308 -61.88481 
L 139.506306 -61.88481 
L 139.864304 -61.88481 
L 140.222301 -61.88481 
L 140.580299 -61.88481 
L 140.938297 -61.88481 
L 141.296295 -61.88481 
L 141.654293 -61.88481 
L 142.01229 -61.249381 
L 142.370288 -61.249381 
L 142.728286 -61.249381 
L 143.086284 -63.650279 
L 143.444281 -62.924604 
L 143.802279 -62.924604 
L 144.160277 -62.924604 
L 144.518275 -62.924604 
L 144.876273 -62.924604 
L 145.23427 -62.924604 
L 145.592268 -62.924604 
L 145.950266 -62.924604 
L 146.308264 -62.924604 
L 146.666262 -62.924604 
L 147.024259 -62.924604 
L 147.382257 -62.924604 
L 147.740255 -62.924604 
L 148.098253 -62.924604 
L 148.456251 -62.924604 
L 148.814248 -62.924604 
L 149.172246 -62.924604 
L 149.530244 -64.594473 
L 149.888242 -64.594473 
L 150.246239 -64.594473 
L 150.604237 -64.594473 
L 150.962235 -64.594473 
L 151.320233 -64.594473 
L 151.678231 -64.594473 
L 152.036228 -64.594473 
L 152.394226 -64.594473 
L 152.752224 -64.594473 
L 153.110222 -64.594473 
L 153.46822 -64.594473 
L 153.826217 -64.594473 
L 154.184215 -64.594473 
L 154.542213 -64.594473 
L 154.900211 -64.594473 
L 155.258208 -64.594473 
L 155.616206 -64.594473 
L 155.974204 -64.594473 
L 156.332202 -64.594473 
L 156.6902 -64.594473 
L 157.048197 -64.594473 
L 157.406195 -64.594473 
L 157.764193 -64.594473 
L 158.122191 -64.594473 
L 158.480189 -64.594473 
L 158.838186 -64.594473 
L 159.196184 -64.594473 
L 159.554182 -64.594473 
L 159.91218 -64.594473 
L 160.270178 -64.594473 
L 160.628175 -64.594473 
L 160.986173 -64.594473 
L 161.344171 -62.193575 
L 161.702169 -62.193575 
L 162.060166 -62.193575 
L 162.418164 -62.193575 
L 162.776162 -62.193575 
L 163.13416 -62.193575 
L 163.492158 -62.193575 
L 163.850155 -62.193575 
L 164.208153 -62.193575 
L 164.566151 -62.193575 
L 164.924149 -62.193575 
L 165.282147 -62.193575 
L 165.640144 -62.193575 
L 165.998142 -62.193575 
L 166.35614 -62.193575 
L 166.714138 -62.193575 
L 167.072136 -62.193575 
L 167.430133 -62.193575 
L 167.788131 -62.193575 
L 168.146129 -62.193575 
L 168.504127 -61.848275 
L 168.862124 -61.848275 
L 169.220122 -61.848275 
L 169.57812 -61.848275 
L 169.936118 -61.848275 
L 170.294116 -61.848275 
L 170.652113 -61.848275 
L 171.010111 -61.848275 
L 171.368109 -61.848275 
L 171.726107 -61.848275 
L 172.084105 -61.848275 
L 172.442102 -61.848275 
L 172.8001 -61.848275 
L 173.158098 -61.848275 
L 173.516096 -61.848275 
L 173.874094 -61.848275 
L 174.232091 -61.848275 
L 174.590089 -61.848275 
L 174.948087 -61.848275 
L 175.306085 -61.848275 
L 175.664082 -61.848275 
L 176.02208 -61.848275 
L 176.380078 -61.848275 
L 176.738076 -61.848275 
L 177.096074 -61.848275 
L 177.454071 -61.848275 
L 177.812069 -61.848275 
L 178.170067 -61.848275 
L 178.528065 -61.848275 
L 178.886063 -61.848275 
L 179.24406 -61.848275 
L 179.602058 -61.848275 
L 179.960056 -61.848275 
L 180.318054 -61.848275 
L 180.676052 -61.848275 
L 181.034049 -61.848275 
L 181.392047 -61.848275 
L 181.750045 -61.848275 
L 182.108043 -61.848275 
L 182.46604 -61.848275 
L 182.824038 -61.848275 
L 183.182036 -61.848275 
L 183.540034 -61.848275 
L 183.898032 -61.848275 
L 184.256029 -61.848275 
L 184.614027 -61.848275 
L 184.972025 -61.848275 
L 185.330023 -60.863072 
L 185.688021 -60.863072 
L 186.046018 -60.863072 
L 186.404016 -60.863072 
L 186.762014 -60.863072 
L 187.120012 -60.863072 
L 187.47801 -60.863072 
L 187.836007 -60.863072 
L 188.194005 -60.863072 
L 188.552003 -60.863072 
L 188.910001 -60.863072 
L 189.267998 -60.863072 
L 189.625996 -60.863072 
L 189.983994 -60.863072 
L 190.341992 -60.863072 
L 190.69999 -60.863072 
L 191.057987 -60.863072 
L 191.415985 -60.863072 
L 191.773983 -60.863072 
L 192.131981 -60.863072 
L 192.489979 -60.863072 
L 192.847976 -60.863072 
L 193.205974 -60.863072 
L 193.563972 -60.863072 
L 193.92197 -60.863072 
L 194.279968 -60.863072 
L 194.637965 -60.863072 
L 194.995963 -60.863072 
L 195.353961 -60.863072 
L 195.711959 -60.863072 
L 196.069956 -60.863072 
L 196.427954 -60.863072 
L 196.785952 -60.863072 
L 197.14395 -60.863072 
L 197.501948 -60.863072 
L 197.859945 -60.863072 
L 198.217943 -60.863072 
L 198.575941 -60.863072 
L 198.933939 -60.863072 
L 199.291937 -60.863072 
L 199.649934 -60.863072 
L 200.007932 -60.863072 
L 200.36593 -60.863072 
L 200.723928 -60.863072 
L 201.081926 -60.863072 
L 201.439923 -60.863072 
L 201.797921 -60.863072 
L 202.155919 -60.863072 
L 202.513917 -60.863072 
L 202.871914 -60.863072 
L 203.229912 -60.863072 
L 203.58791 -60.011528 
L 203.945908 -60.011528 
L 204.303906 -60.011528 
L 204.661903 -60.011528 
L 205.019901 -60.011528 
L 205.377899 -60.011528 
L 205.735897 -60.011528 
L 206.093895 -60.011528 
L 206.451892 -60.011528 
L 206.80989 -60.011528 
L 207.167888 -60.011528 
L 207.525886 -60.011528 
L 207.883883 -60.011528 
L 208.241881 -60.011528 
L 208.599879 -60.011528 
L 208.957877 -60.011528 
L 209.315875 -60.011528 
L 209.673872 -60.011528 
L 210.03187 -60.011528 
L 210.389868 -60.011528 
L 210.747866 -60.011528 
L 211.105864 -60.011528 
L 211.463861 -60.011528 
L 211.821859 -60.011528 
L 212.179857 -60.011528 
L 212.537855 -60.011528 
L 212.895853 -60.011528 
L 213.25385 -60.011528 
L 213.611848 -60.011528 
L 213.969846 -60.011528 
L 214.327844 -60.011528 
L 214.685841 -60.011528 
L 215.043839 -60.011528 
L 215.401837 -60.011528 
L 215.759835 -60.011528 
L 216.117833 -60.011528 
L 216.47583 -60.011528 
L 216.833828 -60.011528 
L 217.191826 -60.011528 
L 217.549824 -60.011528 
L 217.907822 -60.011528 
L 218.265819 -60.011528 
L 218.623817 -60.011528 
L 218.981815 -60.011528 
L 219.339813 -60.011528 
L 219.697811 -60.011528 
L 220.055808 -60.011528 
L 220.413806 -60.011528 
L 220.771804 -60.011528 
L 221.129802 -60.011528 
L 221.487799 -60.011528 
L 221.845797 -60.011528 
L 222.203795 -60.011528 
L 222.561793 -60.011528 
L 222.919791 -60.011528 
L 223.277788 -60.011528 
L 223.635786 -60.011528 
L 223.993784 -60.011528 
L 224.351782 -60.700381 
L 224.70978 -60.700381 
L 225.067777 -60.700381 
L 225.425775 -60.700381 
L 225.783773 -60.700381 
L 226.141771 -60.700381 
L 226.499769 -60.700381 
L 226.857766 -60.700381 
L 227.215764 -60.700381 
L 227.573762 -60.700381 
L 227.93176 -60.700381 
L 228.289757 -60.700381 
L 228.647755 -60.700381 
L 229.005753 -60.700381 
L 229.363751 -60.700381 
L 229.721749 -60.700381 
L 230.079746 -60.700381 
L 230.437744 -60.700381 
L 230.795742 -60.700381 
L 231.15374 -60.700381 
L 231.511738 -60.700381 
L 231.869735 -60.700381 
L 232.227733 -60.700381 
L 232.585731 -60.700381 
L 232.943729 -60.700381 
L 233.301727 -60.700381 
L 233.659724 -60.700381 
L 234.017722 -60.700381 
L 234.37572 -60.700381 
L 234.733718 -60.700381 
L 235.091715 -60.700381 
L 235.449713 -60.700381 
L 235.807711 -60.700381 
L 236.165709 -60.700381 
L 236.523707 -60.700381 
L 236.881704 -60.700381 
L 237.239702 -60.700381 
L 237.5977 -60.700381 
L 237.955698 -60.700381 
L 238.313696 -60.700381 
L 238.313696 -91.55612 
L 238.313696 -91.55612 
L 237.955698 -91.55612 
L 237.5977 -91.55612 
L 237.239702 -91.55612 
L 236.881704 -91.55612 
L 236.523707 -91.55612 
L 236.165709 -91.55612 
L 235.807711 -91.55612 
L 235.449713 -91.55612 
L 235.091715 -91.55612 
L 234.733718 -91.55612 
L 234.37572 -91.55612 
L 234.017722 -91.55612 
L 233.659724 -91.55612 
L 233.301727 -91.55612 
L 232.943729 -91.55612 
L 232.585731 -91.55612 
L 232.227733 -91.55612 
L 231.869735 -91.55612 
L 231.511738 -91.55612 
L 231.15374 -91.55612 
L 230.795742 -91.55612 
L 230.437744 -91.55612 
L 230.079746 -91.55612 
L 229.721749 -91.55612 
L 229.363751 -91.55612 
L 229.005753 -91.55612 
L 228.647755 -91.55612 
L 228.289757 -91.55612 
L 227.93176 -91.55612 
L 227.573762 -91.55612 
L 227.215764 -91.55612 
L 226.857766 -91.55612 
L 226.499769 -91.55612 
L 226.141771 -91.55612 
L 225.783773 -91.55612 
L 225.425775 -91.55612 
L 225.067777 -91.55612 
L 224.70978 -91.55612 
L 224.351782 -91.55612 
L 223.993784 -91.55612 
L 223.635786 -91.55612 
L 223.277788 -91.55612 
L 222.919791 -91.55612 
L 222.561793 -91.55612 
L 222.203795 -91.55612 
L 221.845797 -91.55612 
L 221.487799 -91.55612 
L 221.129802 -91.55612 
L 220.771804 -91.55612 
L 220.413806 -91.55612 
L 220.055808 -91.55612 
L 219.697811 -91.55612 
L 219.339813 -91.55612 
L 218.981815 -91.55612 
L 218.623817 -91.55612 
L 218.265819 -91.55612 
L 217.907822 -91.55612 
L 217.549824 -91.55612 
L 217.191826 -91.55612 
L 216.833828 -91.55612 
L 216.47583 -91.55612 
L 216.117833 -91.55612 
L 215.759835 -91.55612 
L 215.401837 -91.55612 
L 215.043839 -91.55612 
L 214.685841 -91.55612 
L 214.327844 -91.55612 
L 213.969846 -91.55612 
L 213.611848 -91.55612 
L 213.25385 -91.55612 
L 212.895853 -91.55612 
L 212.537855 -91.55612 
L 212.179857 -91.55612 
L 211.821859 -91.55612 
L 211.463861 -91.55612 
L 211.105864 -91.55612 
L 210.747866 -91.55612 
L 210.389868 -91.55612 
L 210.03187 -91.55612 
L 209.673872 -91.55612 
L 209.315875 -91.55612 
L 208.957877 -91.55612 
L 208.599879 -91.55612 
L 208.241881 -91.55612 
L 207.883883 -91.55612 
L 207.525886 -91.55612 
L 207.167888 -91.55612 
L 206.80989 -91.55612 
L 206.451892 -91.55612 
L 206.093895 -91.55612 
L 205.735897 -91.55612 
L 205.377899 -91.55612 
L 205.019901 -91.55612 
L 204.661903 -91.55612 
L 204.303906 -91.55612 
L 203.945908 -91.55612 
L 203.58791 -91.55612 
L 203.229912 -91.55612 
L 202.871914 -91.55612 
L 202.513917 -91.55612 
L 202.155919 -91.55612 
L 201.797921 -91.55612 
L 201.439923 -91.55612 
L 201.081926 -91.55612 
L 200.723928 -91.55612 
L 200.36593 -91.55612 
L 200.007932 -91.55612 
L 199.649934 -91.55612 
L 199.291937 -91.55612 
L 198.933939 -91.55612 
L 198.575941 -91.55612 
L 198.217943 -91.55612 
L 197.859945 -91.55612 
L 197.501948 -91.55612 
L 197.14395 -91.55612 
L 196.785952 -91.55612 
L 196.427954 -91.55612 
L 196.069956 -91.55612 
L 195.711959 -91.55612 
L 195.353961 -91.55612 
L 194.995963 -91.55612 
L 194.637965 -91.55612 
L 194.279968 -91.55612 
L 193.92197 -91.55612 
L 193.563972 -91.55612 
L 193.205974 -91.55612 
L 192.847976 -91.55612 
L 192.489979 -91.55612 
L 192.131981 -91.55612 
L 191.773983 -91.55612 
L 191.415985 -91.55612 
L 191.057987 -91.55612 
L 190.69999 -91.55612 
L 190.341992 -91.55612 
L 189.983994 -91.55612 
L 189.625996 -91.55612 
L 189.267998 -91.55612 
L 188.910001 -91.55612 
L 188.552003 -91.55612 
L 188.194005 -91.55612 
L 187.836007 -91.55612 
L 187.47801 -91.55612 
L 187.120012 -91.55612 
L 186.762014 -91.55612 
L 186.404016 -91.55612 
L 186.046018 -91.55612 
L 185.688021 -91.55612 
L 185.330023 -91.55612 
L 184.972025 -91.55612 
L 184.614027 -91.55612 
L 184.256029 -91.55612 
L 183.898032 -91.55612 
L 183.540034 -91.55612 
L 183.182036 -91.55612 
L 182.824038 -91.55612 
L 182.46604 -91.55612 
L 182.108043 -91.55612 
L 181.750045 -91.55612 
L 181.392047 -91.55612 
L 181.034049 -90.511519 
L 180.676052 -90.511519 
L 180.318054 -90.57565 
L 179.960056 -90.57565 
L 179.602058 -93.216051 
L 179.24406 -93.216051 
L 178.886063 -93.216051 
L 178.528065 -95.229914 
L 178.170067 -95.229914 
L 177.812069 -95.229914 
L 177.454071 -95.229914 
L 177.096074 -95.229914 
L 176.738076 -95.229914 
L 176.380078 -95.229914 
L 176.02208 -95.229914 
L 175.664082 -95.229914 
L 175.306085 -95.229914 
L 174.948087 -95.229914 
L 174.590089 -95.229914 
L 174.232091 -95.229914 
L 173.874094 -95.229914 
L 173.516096 -95.229914 
L 173.158098 -95.229914 
L 172.8001 -95.229914 
L 172.442102 -95.229914 
L 172.084105 -95.229914 
L 171.726107 -95.229914 
L 171.368109 -95.229914 
L 171.010111 -95.229914 
L 170.652113 -95.229914 
L 170.294116 -95.229914 
L 169.936118 -95.229914 
L 169.57812 -95.229914 
L 169.220122 -95.229914 
L 168.862124 -95.229914 
L 168.504127 -95.229914 
L 168.146129 -95.229914 
L 167.788131 -95.229914 
L 167.430133 -95.229914 
L 167.072136 -95.229914 
L 166.714138 -95.229914 
L 166.35614 -95.229914 
L 165.998142 -95.229914 
L 165.640144 -95.229914 
L 165.282147 -95.229914 
L 164.924149 -95.229914 
L 164.566151 -95.229914 
L 164.208153 -95.229914 
L 163.850155 -95.229914 
L 163.492158 -95.229914 
L 163.13416 -95.229914 
L 162.776162 -95.229914 
L 162.418164 -95.229914 
L 162.060166 -95.229914 
L 161.702169 -95.229914 
L 161.344171 -95.229914 
L 160.986173 -95.229914 
L 160.628175 -95.229914 
L 160.270178 -95.229914 
L 159.91218 -95.229914 
L 159.554182 -95.229914 
L 159.196184 -95.229914 
L 158.838186 -95.229914 
L 158.480189 -95.229914 
L 158.122191 -95.229914 
L 157.764193 -95.229914 
L 157.406195 -95.229914 
L 157.048197 -95.229914 
L 156.6902 -95.229914 
L 156.332202 -95.229914 
L 155.974204 -95.229914 
L 155.616206 -95.229914 
L 155.258208 -95.229914 
L 154.900211 -95.229914 
L 154.542213 -95.229914 
L 154.184215 -95.229914 
L 153.826217 -95.229914 
L 153.46822 -95.229914 
L 153.110222 -95.229914 
L 152.752224 -95.229914 
L 152.394226 -95.229914 
L 152.036228 -95.229914 
L 151.678231 -95.229914 
L 151.320233 -95.229914 
L 150.962235 -95.229914 
L 150.604237 -95.229914 
L 150.246239 -95.229914 
L 149.888242 -95.229914 
L 149.530244 -95.229914 
L 149.172246 -95.229914 
L 148.814248 -95.229914 
L 148.456251 -95.229914 
L 148.098253 -95.229914 
L 147.740255 -95.229914 
L 147.382257 -95.229914 
L 147.024259 -95.229914 
L 146.666262 -95.229914 
L 146.308264 -95.229914 
L 145.950266 -95.229914 
L 145.592268 -95.229914 
L 145.23427 -95.229914 
L 144.876273 -95.229914 
L 144.518275 -95.229914 
L 144.160277 -95.229914 
L 143.802279 -95.229914 
L 143.444281 -95.229914 
L 143.086284 -95.229914 
L 142.728286 -95.229914 
L 142.370288 -95.229914 
L 142.01229 -95.229914 
L 141.654293 -95.229914 
L 141.296295 -95.229914 
L 140.938297 -95.229914 
L 140.580299 -95.229914 
L 140.222301 -95.229914 
L 139.864304 -95.229914 
L 139.506306 -95.229914 
L 139.148308 -95.229914 
L 138.79031 -95.229914 
L 138.432312 -95.229914 
L 138.074315 -95.229914 
L 137.716317 -95.229914 
L 137.358319 -95.229914 
L 137.000321 -95.229914 
L 136.642323 -96.195755 
L 136.284326 -96.195755 
L 135.926328 -96.195755 
L 135.56833 -96.195755 
L 135.210332 -96.195755 
L 134.852335 -96.195755 
L 134.494337 -96.195755 
L 134.136339 -96.195755 
L 133.778341 -96.195755 
L 133.420343 -96.195755 
L 133.062346 -96.195755 
L 132.704348 -96.627325 
L 132.34635 -96.627325 
L 131.988352 -96.627325 
L 131.630354 -96.627325 
L 131.272357 -96.627325 
L 130.914359 -96.627325 
L 130.556361 -96.627325 
L 130.198363 -96.627325 
L 129.840365 -96.627325 
L 129.482368 -96.627325 
L 129.12437 -96.627325 
L 128.766372 -96.627325 
L 128.408374 -96.627325 
L 128.050377 -96.627325 
L 127.692379 -96.627325 
L 127.334381 -96.627325 
L 126.976383 -96.627325 
L 126.618385 -96.627325 
L 126.260388 -96.627325 
L 125.90239 -96.627325 
L 125.544392 -96.627325 
L 125.186394 -96.627325 
L 124.828396 -96.627325 
L 124.470399 -96.627325 
L 124.112401 -96.627325 
L 123.754403 -96.627325 
L 123.396405 -96.653353 
L 123.038407 -96.653353 
L 122.68041 -96.653353 
L 122.322412 -96.653353 
L 121.964414 -96.653353 
L 121.606416 -96.653353 
L 121.248419 -96.653353 
L 120.890421 -96.653353 
L 120.532423 -96.653353 
L 120.174425 -96.653353 
L 119.816427 -96.653353 
L 119.45843 -96.653353 
L 119.100432 -96.671458 
L 118.742434 -96.671458 
L 118.384436 -96.671458 
L 118.026438 -96.671458 
L 117.668441 -96.671458 
L 117.310443 -96.671458 
L 116.952445 -96.671458 
L 116.594447 -96.671458 
L 116.236449 -97.395441 
L 115.878452 -97.395441 
L 115.520454 -97.395441 
L 115.162456 -97.395441 
L 114.804458 -97.395441 
L 114.446461 -97.395441 
L 114.088463 -97.395441 
L 113.730465 -97.395441 
L 113.372467 -97.395441 
L 113.014469 -97.986407 
L 112.656472 -97.986407 
L 112.298474 -97.986407 
L 111.940476 -97.986407 
L 111.582478 -97.986407 
L 111.22448 -97.986407 
L 110.866483 -97.986407 
L 110.508485 -97.986407 
L 110.150487 -100.914426 
L 109.792489 -101.501522 
L 109.434491 -101.501522 
L 109.076494 -101.501522 
L 108.718496 -101.501522 
L 108.360498 -101.501522 
L 108.0025 -101.501522 
L 107.644503 -101.501522 
L 107.286505 -101.501522 
L 106.928507 -101.501522 
L 106.570509 -101.501522 
L 106.212511 -101.501522 
L 105.854514 -101.501522 
L 105.496516 -101.501522 
L 105.138518 -101.501522 
L 104.78052 -104.483434 
L 104.422522 -104.483434 
L 104.064525 -104.483434 
L 103.706527 -104.483434 
L 103.348529 -104.483434 
L 102.990531 -104.483434 
L 102.632534 -104.483434 
L 102.274536 -104.483434 
L 101.916538 -104.483434 
L 101.55854 -104.483434 
L 101.200542 -106.737934 
L 100.842545 -106.737934 
L 100.484547 -106.737934 
L 100.126549 -106.737934 
L 99.768551 -106.737934 
L 99.410553 -106.737934 
L 99.052556 -106.737934 
L 98.694558 -106.737934 
L 98.33656 -106.737934 
L 97.978562 -106.737934 
L 97.620564 -106.737934 
L 97.262567 -106.737934 
L 96.904569 -106.737934 
L 96.546571 -106.737934 
L 96.188573 -106.737934 
L 95.830576 -106.737934 
L 95.472578 -106.879799 
L 95.11458 -106.879799 
L 94.756582 -110.755666 
L 94.398584 -110.755666 
L 94.040587 -110.755666 
L 93.682589 -110.755666 
L 93.324591 -110.755666 
L 92.966593 -110.755666 
L 92.608595 -110.755666 
L 92.250598 -110.755666 
L 91.8926 -112.466146 
L 91.534602 -112.466146 
L 91.176604 -112.714309 
L 90.818606 -114.188646 
L 90.460609 -114.188646 
L 90.102611 -114.188646 
L 89.744613 -114.188646 
L 89.386615 -114.188646 
L 89.028618 -114.188646 
L 88.67062 -114.188646 
L 88.312622 -114.188646 
L 87.954624 -114.188646 
L 87.596626 -114.188646 
L 87.238629 -114.188646 
L 86.880631 -114.188646 
L 86.522633 -114.188646 
L 86.164635 -114.188646 
L 85.806637 -118.642849 
L 85.44864 -118.642849 
L 85.090642 -118.642849 
L 84.732644 -118.642849 
L 84.374646 -118.642849 
L 84.016648 -118.642849 
L 83.658651 -121.623266 
L 83.300653 -121.623266 
L 82.942655 -121.623266 
L 82.584657 -121.623266 
L 82.22666 -121.623266 
L 81.868662 -121.623266 
L 81.510664 -121.623266 
L 81.152666 -121.623266 
L 80.794668 -121.623266 
L 80.436671 -121.623266 
L 80.078673 -121.623266 
L 79.720675 -121.623266 
L 79.362677 -121.623266 
L 79.004679 -121.623266 
L 78.646682 -121.623266 
L 78.288684 -121.623266 
L 77.930686 -121.623266 
L 77.572688 -124.053173 
L 77.21469 -124.053173 
L 76.856693 -124.053173 
L 76.498695 -124.053173 
L 76.140697 -124.053173 
L 75.782699 -124.053173 
L 75.424702 -124.053173 
L 75.066704 -124.053173 
L 74.708706 -126.32275 
L 74.350708 -126.32275 
L 73.99271 -126.995051 
L 73.634713 -126.995051 
L 73.276715 -130.961087 
L 72.918717 -136.72397 
L 72.560719 -136.72397 
L 72.202721 -139.535292 
L 71.844724 -139.535292 
L 71.486726 -139.535292 
L 71.128728 -139.535292 
L 70.77073 -139.535292 
L 70.412732 -139.535292 
L 70.054735 -139.535292 
L 69.696737 -139.535292 
L 69.338739 -139.535292 
L 68.980741 -139.535292 
L 68.622744 -145.928917 
L 68.264746 -145.928917 
L 67.906748 -145.928917 
L 67.54875 -147.883741 
L 67.190752 -147.883741 
L 66.832755 -147.883741 
L 66.474757 -147.883741 
L 66.116759 -147.883741 
L 65.758761 -147.883741 
L 65.400763 -147.883741 
L 65.042766 -150.759499 
L 64.684768 -150.759499 
L 64.32677 -150.759499 
L 63.968772 -150.759499 
L 63.610774 -150.759499 
L 63.252777 -150.759499 
L 62.894779 -150.759499 
L 62.536781 -150.759499 
L 62.178783 -150.759499 
L 61.820786 -150.759499 
L 61.462788 -150.759499 
L 61.10479 -150.759499 
L 60.746792 -150.759499 
L 60.388794 -150.759499 
L 60.030797 -150.759499 
L 59.672799 -150.759499 
L 59.314801 -150.759499 
z
"/>
    </defs>
    <g clip-path="url(#p0f32198eed)">
     <use xlink:href="#m519b3a9f43" x="0" y="163.953281" style="fill: #f4a3a8; fill-opacity: 0.35"/>
    </g>
   </g>
   <g id="matplotlib.axis_1">
    <g id="xtick_1">
     <g id="line2d_1">
      <defs>
       <path id="m52615bbd80" d="M 0 0 
L 0 3 
" style="stroke: #000000; stroke-width: 0.7"/>
      </defs>
      <g>
       <use xlink:href="#m52615bbd80" x="59.314801" y="132.22" style="stroke: #000000; stroke-width: 0.7"/>
      </g>
     </g>
     <g id="text_1">
      <text style="font-size: 6.5px; font-family: 'Arial', 'Helvetica', 'DejaVu Sans', sans-serif; text-anchor: middle" x="59.314801" y="143.658984" transform="rotate(-0 59.314801 143.658984)">0.0</text>
     </g>
    </g>
    <g id="xtick_2">
     <g id="line2d_2">
      <g>
       <use xlink:href="#m52615bbd80" x="95.11458" y="132.22" style="stroke: #000000; stroke-width: 0.7"/>
      </g>
     </g>
     <g id="text_2">
      <text style="font-size: 6.5px; font-family: 'Arial', 'Helvetica', 'DejaVu Sans', sans-serif; text-anchor: middle" x="95.11458" y="143.658984" transform="rotate(-0 95.11458 143.658984)">0.2</text>
     </g>
    </g>
    <g id="xtick_3">
     <g id="line2d_3">
      <g>
       <use xlink:href="#m52615bbd80" x="130.914359" y="132.22" style="stroke: #000000; stroke-width: 0.7"/>
      </g>
     </g>
     <g id="text_3">
      <text style="font-size: 6.5px; font-family: 'Arial', 'Helvetica', 'DejaVu Sans', sans-serif; text-anchor: middle" x="130.914359" y="143.658984" transform="rotate(-0 130.914359 143.658984)">0.4</text>
     </g>
    </g>
    <g id="xtick_4">
     <g id="line2d_4">
      <g>
       <use xlink:href="#m52615bbd80" x="166.714138" y="132.22" style="stroke: #000000; stroke-width: 0.7"/>
      </g>
     </g>
     <g id="text_4">
      <text style="font-size: 6.5px; font-family: 'Arial', 'Helvetica', 'DejaVu Sans', sans-serif; text-anchor: middle" x="166.714138" y="143.658984" transform="rotate(-0 166.714138 143.658984)">0.6</text>
     </g>
    </g>
    <g id="xtick_5">
     <g id="line2d_5">
      <g>
       <use xlink:href="#m52615bbd80" x="202.513917" y="132.22" style="stroke: #000000; stroke-width: 0.7"/>
      </g>
     </g>
     <g id="text_5">
      <text style="font-size: 6.5px; font-family: 'Arial', 'Helvetica', 'DejaVu Sans', sans-serif; text-anchor: middle" x="202.513917" y="143.658984" transform="rotate(-0 202.513917 143.658984)">0.8</text>
     </g>
    </g>
    <g id="xtick_6">
     <g id="line2d_6">
      <g>
       <use xlink:href="#m52615bbd80" x="238.313696" y="132.22" style="stroke: #000000; stroke-width: 0.7"/>
      </g>
     </g>
     <g id="text_6">
      <text style="font-size: 6.5px; font-family: 'Arial', 'Helvetica', 'DejaVu Sans', sans-serif; text-anchor: middle" x="238.313696" y="143.658984" transform="rotate(-0 238.313696 143.658984)">1.0</text>
     </g>
    </g>
    <g id="text_7">
     <text style="font-size: 8px; font-family: 'Arial', 'Helvetica', 'DejaVu Sans', sans-serif; text-anchor: middle" x="148.814248" y="155.089531" transform="rotate(-0 148.814248 155.089531)">Normalized optimization progress</text>
    </g>
   </g>
   <g id="matplotlib.axis_2">
    <g id="ytick_1">
     <g id="line2d_7">
      <defs>
       <path id="m3887bbbd42" d="M 0 0 
L -3 0 
" style="stroke: #000000; stroke-width: 0.7"/>
      </defs>
      <g>
       <use xlink:href="#m3887bbbd42" x="59.314801" y="121.867244" style="stroke: #000000; stroke-width: 0.7"/>
      </g>
     </g>
     <g id="text_8">
      <text style="font-size: 6.5px; font-family: 'Arial', 'Helvetica', 'DejaVu Sans', sans-serif; text-anchor: end" x="52.814801" y="124.336736" transform="rotate(-0 52.814801 124.336736)">0.2</text>
     </g>
    </g>
    <g id="ytick_2">
     <g id="line2d_8">
      <g>
       <use xlink:href="#m3887bbbd42" x="59.314801" y="94.698878" style="stroke: #000000; stroke-width: 0.7"/>
      </g>
     </g>
     <g id="text_9">
      <text style="font-size: 6.5px; font-family: 'Arial', 'Helvetica', 'DejaVu Sans', sans-serif; text-anchor: end" x="52.814801" y="97.168371" transform="rotate(-0 52.814801 97.168371)">0.4</text>
     </g>
    </g>
    <g id="ytick_3">
     <g id="line2d_9">
      <g>
       <use xlink:href="#m3887bbbd42" x="59.314801" y="67.530513" style="stroke: #000000; stroke-width: 0.7"/>
      </g>
     </g>
     <g id="text_10">
      <text style="font-size: 6.5px; font-family: 'Arial', 'Helvetica', 'DejaVu Sans', sans-serif; text-anchor: end" x="52.814801" y="70.000005" transform="rotate(-0 52.814801 70.000005)">0.6</text>
     </g>
    </g>
    <g id="ytick_4">
     <g id="line2d_10">
      <g>
       <use xlink:href="#m3887bbbd42" x="59.314801" y="40.362148" style="stroke: #000000; stroke-width: 0.7"/>
      </g>
     </g>
     <g id="text_11">
      <text style="font-size: 6.5px; font-family: 'Arial', 'Helvetica', 'DejaVu Sans', sans-serif; text-anchor: end" x="52.814801" y="42.83164" transform="rotate(-0 52.814801 42.83164)">0.8</text>
     </g>
    </g>
    <g id="ytick_5">
     <g id="line2d_11">
      <g>
       <use xlink:href="#m3887bbbd42" x="59.314801" y="13.193783" style="stroke: #000000; stroke-width: 0.7"/>
      </g>
     </g>
     <g id="text_12">
      <text style="font-size: 6.5px; font-family: 'Arial', 'Helvetica', 'DejaVu Sans', sans-serif; text-anchor: end" x="52.814801" y="15.663275" transform="rotate(-0 52.814801 15.663275)">1.0</text>
     </g>
    </g>
   </g>
   <g id="line2d_12">
    <path d="M 59.314801 13.193783 
L 61.462788 13.193783 
L 61.820786 14.855223 
L 62.178783 18.83273 
L 62.536781 18.83273 
L 62.894779 29.890681 
L 72.202721 29.890681 
L 72.560719 48.19537 
L 90.818606 48.19537 
L 91.176604 51.144043 
L 108.360498 51.144043 
L 108.718496 52.433228 
L 113.014469 52.433228 
L 113.372467 67.906511 
L 123.396405 67.906511 
L 123.754403 71.584213 
L 238.313696 71.584213 
L 238.313696 71.584213 
" clip-path="url(#p0f32198eed)" style="fill: none; stroke: #b8b8b8; stroke-opacity: 0.28; stroke-width: 0.75; stroke-linecap: square"/>
   </g>
   <g id="line2d_13">
    <path d="M 59.314801 13.193783 
L 60.746792 13.193783 
L 61.10479 22.844505 
L 61.462788 22.844505 
L 61.820786 30.753192 
L 66.474757 30.753192 
L 66.832755 39.271864 
L 72.202721 39.271864 
L 72.560719 45.708569 
L 94.756582 45.708569 
L 95.11458 59.392105 
L 213.25385 59.392105 
L 213.611848 61.870089 
L 238.313696 61.870089 
L 238.313696 61.870089 
" clip-path="url(#p0f32198eed)" style="fill: none; stroke: #b8b8b8; stroke-opacity: 0.28; stroke-width: 0.75; stroke-linecap: square"/>
   </g>
   <g id="line2d_14">
    <path d="M 59.314801 13.193783 
L 68.622744 13.193783 
L 68.980741 42.251857 
L 74.350708 42.251857 
L 74.708706 44.912295 
L 109.792489 44.912295 
L 110.150487 60.566296 
L 110.508485 66.422334 
L 144.160277 66.422334 
L 144.518275 56.97798 
L 179.602058 56.97798 
L 179.960056 82.907889 
L 181.034049 82.907889 
L 181.392047 73.21011 
L 238.313696 73.21011 
L 238.313696 73.21011 
" clip-path="url(#p0f32198eed)" style="fill: none; stroke: #b8b8b8; stroke-opacity: 0.28; stroke-width: 0.75; stroke-linecap: square"/>
   </g>
   <g id="line2d_15">
    <path d="M 59.314801 13.193783 
L 64.684768 13.193783 
L 65.042766 41.866769 
L 65.400763 41.866769 
L 65.758761 39.747737 
L 91.176604 39.747737 
L 91.534602 51.640369 
L 95.472578 51.640369 
L 95.830576 55.038591 
L 170.294116 55.038591 
L 170.652113 66.288004 
L 178.528065 66.288004 
L 178.886063 75.518747 
L 197.14395 75.518747 
L 197.501948 73.85955 
L 238.313696 73.85955 
L 238.313696 73.85955 
" clip-path="url(#p0f32198eed)" style="fill: none; stroke: #b8b8b8; stroke-opacity: 0.28; stroke-width: 0.75; stroke-linecap: square"/>
   </g>
   <g id="line2d_16">
    <path d="M 59.314801 13.193783 
L 60.030797 13.193783 
L 60.388794 76.134342 
L 65.400763 76.134342 
L 65.758761 80.066942 
L 67.54875 80.066942 
L 67.906748 81.683971 
L 80.436671 81.683971 
L 80.794668 97.801295 
L 81.152666 98.087194 
L 86.880631 98.087194 
L 87.238629 94.838185 
L 97.978562 94.838185 
L 98.33656 98.087194 
L 121.248419 98.087194 
L 121.606416 98.633133 
L 168.146129 98.633133 
L 168.504127 100.775084 
L 184.972025 100.775084 
L 185.330023 102.74549 
L 223.993784 102.74549 
L 224.351782 101.367783 
L 238.313696 101.367783 
L 238.313696 101.367783 
" clip-path="url(#p0f32198eed)" style="fill: none; stroke: #b8b8b8; stroke-opacity: 0.28; stroke-width: 0.75; stroke-linecap: square"/>
   </g>
   <g id="line2d_17">
    <path d="M 59.314801 13.193783 
L 59.672799 30.563985 
L 71.486726 30.563985 
L 71.844724 40.052479 
L 77.572688 40.052479 
L 77.930686 68.123304 
L 84.016648 68.123304 
L 84.374646 72.316188 
L 144.518275 72.316188 
L 144.876273 89.748727 
L 236.881704 89.748727 
L 237.239702 81.446583 
L 238.313696 81.446583 
L 238.313696 81.446583 
" clip-path="url(#p0f32198eed)" style="fill: none; stroke: #b8b8b8; stroke-opacity: 0.28; stroke-width: 0.75; stroke-linecap: square"/>
   </g>
   <g id="line2d_18">
    <path d="M 59.314801 13.193783 
L 62.536781 13.193783 
L 62.894779 40.262678 
L 66.116759 40.262678 
L 66.474757 67.849812 
L 71.128728 67.849812 
L 71.486726 69.210999 
L 73.276715 69.210999 
L 73.634713 73.622778 
L 74.708706 73.622778 
L 75.066704 80.055176 
L 77.572688 80.055176 
L 77.930686 84.010938 
L 112.298474 84.010938 
L 112.656472 100.717736 
L 124.470399 100.717736 
L 124.828396 101.825022 
L 126.260388 101.825022 
L 126.618385 101.972871 
L 149.172246 101.972871 
L 149.530244 98.494823 
L 168.504127 98.494823 
L 168.862124 99.838446 
L 238.313696 99.838446 
L 238.313696 99.838446 
" clip-path="url(#p0f32198eed)" style="fill: none; stroke: #b8b8b8; stroke-opacity: 0.28; stroke-width: 0.75; stroke-linecap: square"/>
   </g>
   <g id="line2d_19">
    <path d="M 59.314801 13.193783 
L 84.016648 13.193783 
L 84.374646 38.695533 
L 101.200542 38.695533 
L 101.55854 79.651788 
L 110.866483 79.651788 
L 111.22448 100.276681 
L 132.34635 100.276681 
L 132.704348 109.711554 
L 238.313696 109.711554 
L 238.313696 109.711554 
" clip-path="url(#p0f32198eed)" style="fill: none; stroke: #b8b8b8; stroke-opacity: 0.28; stroke-width: 0.75; stroke-linecap: square"/>
   </g>
   <g id="line2d_20">
    <path d="M 59.314801 13.193783 
L 59.672799 13.816938 
L 65.042766 13.816938 
L 65.400763 18.945298 
L 72.918717 18.945298 
L 73.276715 30.471063 
L 73.634713 38.403136 
L 73.99271 38.403136 
L 74.350708 50.250922 
L 77.572688 50.250922 
L 77.930686 67.958566 
L 81.868662 67.958566 
L 82.22666 63.461888 
L 85.806637 63.461888 
L 86.164635 67.824711 
L 89.386615 67.824711 
L 89.744613 63.582217 
L 99.410553 63.582217 
L 99.768551 67.824711 
L 101.55854 67.824711 
L 101.916538 67.958566 
L 136.642323 67.958566 
L 137.000321 69.890248 
L 238.313696 69.890248 
L 238.313696 69.890248 
" clip-path="url(#p0f32198eed)" style="fill: none; stroke: #b8b8b8; stroke-opacity: 0.28; stroke-width: 0.75; stroke-linecap: square"/>
   </g>
   <g id="line2d_21">
    <path d="M 59.314801 13.193783 
L 65.042766 13.193783 
L 65.400763 49.29209 
L 83.300653 49.29209 
L 83.658651 62.474002 
L 85.090642 62.474002 
L 85.44864 63.79389 
L 86.164635 63.79389 
L 86.522633 65.511414 
L 116.236449 65.511414 
L 116.594447 68.683097 
L 124.470399 68.683097 
L 124.828396 71.225339 
L 152.752224 71.225339 
L 153.110222 76.236992 
L 177.096074 76.236992 
L 177.454071 75.17105 
L 180.318054 75.17105 
L 180.676052 76.045948 
L 181.034049 76.045948 
L 181.392047 76.236992 
L 213.969846 76.236992 
L 214.327844 87.883343 
L 218.623817 87.883343 
L 218.981815 90.714458 
L 238.313696 90.714458 
L 238.313696 90.714458 
" clip-path="url(#p0f32198eed)" style="fill: none; stroke: #b8b8b8; stroke-opacity: 0.28; stroke-width: 0.75; stroke-linecap: square"/>
   </g>
   <g id="line2d_22">
    <path d="M 59.314801 13.193783 
L 61.10479 13.193783 
L 61.462788 24.174148 
L 65.042766 24.174148 
L 65.400763 76.929377 
L 65.758761 98.094094 
L 117.668441 98.094094 
L 118.026438 103.655861 
L 123.396405 103.655861 
L 123.754403 106.067343 
L 125.544392 106.067343 
L 125.90239 122.959535 
L 127.692379 122.959535 
L 128.050377 118.98721 
L 146.666262 118.98721 
L 147.024259 126.537273 
L 197.14395 126.537273 
L 197.501948 125.369624 
L 200.007932 125.369624 
L 200.36593 125.498355 
L 238.313696 125.498355 
L 238.313696 125.498355 
" clip-path="url(#p0f32198eed)" style="fill: none; stroke: #b8b8b8; stroke-opacity: 0.28; stroke-width: 0.75; stroke-linecap: square"/>
   </g>
   <g id="line2d_23">
    <path d="M 59.314801 13.193783 
L 62.536781 13.193783 
L 62.894779 29.769826 
L 66.832755 29.769826 
L 67.190752 35.513326 
L 83.658651 35.513326 
L 84.016648 59.874632 
L 102.990531 59.874632 
L 103.348529 66.693346 
L 132.704348 66.693346 
L 133.062346 67.556487 
L 238.313696 67.556487 
L 238.313696 67.556487 
" clip-path="url(#p0f32198eed)" style="fill: none; stroke: #b8b8b8; stroke-opacity: 0.28; stroke-width: 0.75; stroke-linecap: square"/>
   </g>
   <g id="line2d_24">
    <path d="M 59.314801 13.193783 
L 61.462788 13.193783 
L 61.820786 12.882727 
L 76.140697 12.882727 
L 76.498695 21.098449 
L 85.806637 21.098449 
L 86.164635 54.754861 
L 104.78052 54.754861 
L 105.138518 47.120692 
L 125.186394 47.120692 
L 125.544392 52.854746 
L 130.198363 52.854746 
L 130.556361 54.329104 
L 157.048197 54.329104 
L 157.406195 64.995909 
L 167.430133 64.995909 
L 167.788131 63.493002 
L 238.313696 63.493002 
L 238.313696 63.493002 
" clip-path="url(#p0f32198eed)" style="fill: none; stroke: #b8b8b8; stroke-opacity: 0.28; stroke-width: 0.75; stroke-linecap: square"/>
   </g>
   <g id="line2d_25">
    <path d="M 59.314801 13.193783 
L 67.54875 13.193783 
L 67.906748 17.103432 
L 75.066704 17.103432 
L 75.424702 38.553058 
L 85.806637 38.553058 
L 86.164635 51.333901 
L 91.8926 51.333901 
L 92.250598 67.8703 
L 119.100432 67.8703 
L 119.45843 68.967161 
L 132.34635 68.967161 
L 132.704348 71.847759 
L 140.580299 71.847759 
L 140.938297 75.71939 
L 173.516096 75.71939 
L 173.874094 75.29931 
L 194.995963 75.29931 
L 195.353961 74.843114 
L 221.129802 74.843114 
L 221.487799 75.29931 
L 238.313696 75.29931 
L 238.313696 75.29931 
" clip-path="url(#p0f32198eed)" style="fill: none; stroke: #b8b8b8; stroke-opacity: 0.28; stroke-width: 0.75; stroke-linecap: square"/>
   </g>
   <g id="line2d_26">
    <path d="M 59.314801 13.193783 
L 62.894779 13.193783 
L 63.252777 48.840056 
L 74.708706 48.840056 
L 75.066704 58.790362 
L 86.522633 58.790362 
L 86.880631 68.818481 
L 90.102611 68.818481 
L 90.460609 59.54759 
L 104.78052 59.54759 
L 105.138518 68.088606 
L 108.0025 68.088606 
L 108.360498 70.079867 
L 119.45843 70.079867 
L 119.816427 75.658316 
L 129.482368 75.658316 
L 129.840365 86.288542 
L 133.420343 86.288542 
L 133.778341 87.160482 
L 138.074315 87.160482 
L 138.432312 89.378811 
L 238.313696 89.378811 
L 238.313696 89.378811 
" clip-path="url(#p0f32198eed)" style="fill: none; stroke: #b8b8b8; stroke-opacity: 0.28; stroke-width: 0.75; stroke-linecap: square"/>
   </g>
   <g id="line2d_27">
    <path d="M 59.314801 13.193783 
L 62.536781 13.193783 
L 62.894779 57.5371 
L 66.832755 57.5371 
L 67.190752 90.414767 
L 70.412732 90.414767 
L 70.77073 96.598236 
L 93.324591 96.598236 
L 93.682589 100.267088 
L 104.064525 100.267088 
L 104.422522 103.694004 
L 107.644503 103.694004 
L 108.0025 103.434929 
L 203.229912 103.434929 
L 203.58791 115.235636 
L 238.313696 115.235636 
L 238.313696 115.235636 
" clip-path="url(#p0f32198eed)" style="fill: none; stroke: #b8b8b8; stroke-opacity: 0.28; stroke-width: 0.75; stroke-linecap: square"/>
   </g>
   <g id="line2d_28">
    <path d="M 59.314801 13.193783 
L 60.746792 13.193783 
L 61.10479 17.057216 
L 62.178783 17.057216 
L 62.536781 27.598619 
L 64.684768 27.598619 
L 65.042766 56.777284 
L 68.264746 56.777284 
L 68.622744 61.000439 
L 76.498695 61.000439 
L 76.856693 68.038024 
L 81.152666 68.038024 
L 81.510664 84.002862 
L 81.868662 78.069523 
L 91.534602 78.069523 
L 91.8926 87.185074 
L 94.756582 87.185074 
L 95.11458 97.17439 
L 95.830576 97.17439 
L 96.188573 91.906678 
L 98.694558 91.906678 
L 99.052556 97.453739 
L 110.150487 97.453739 
L 110.508485 94.315479 
L 116.594447 94.315479 
L 116.952445 96.826257 
L 117.668441 96.826257 
L 118.026438 102.164072 
L 141.654293 102.164072 
L 142.01229 107.358706 
L 142.728286 107.358706 
L 143.086284 95.592818 
L 160.986173 95.592818 
L 161.344171 105.138017 
L 238.313696 105.138017 
L 238.313696 105.138017 
" clip-path="url(#p0f32198eed)" style="fill: none; stroke: #b8b8b8; stroke-opacity: 0.28; stroke-width: 0.75; stroke-linecap: square"/>
   </g>
   <g id="line2d_29">
    <path d="M 59.314801 13.193783 
L 63.610774 13.193783 
L 63.968772 54.532702 
L 68.622744 54.532702 
L 68.980741 54.678288 
L 72.560719 54.678288 
L 72.918717 55.758713 
L 75.066704 55.758713 
L 75.424702 71.265391 
L 77.930686 71.265391 
L 78.288684 78.85236 
L 89.386615 78.85236 
L 89.744613 87.141431 
L 95.830576 87.141431 
L 96.188573 91.985425 
L 118.742434 91.985425 
L 119.100432 92.145827 
L 134.494337 92.145827 
L 134.852335 95.408154 
L 139.864304 95.408154 
L 140.222301 95.830049 
L 143.086284 95.830049 
L 143.444281 100.084484 
L 194.995963 100.084664 
L 195.353961 101.208763 
L 211.821859 101.208763 
L 212.179857 96.569491 
L 216.47583 96.569491 
L 216.833828 100.586613 
L 236.165709 100.586613 
L 236.523707 101.065815 
L 238.313696 101.065815 
L 238.313696 101.065815 
" clip-path="url(#p0f32198eed)" style="fill: none; stroke: #b8b8b8; stroke-opacity: 0.28; stroke-width: 0.75; stroke-linecap: square"/>
   </g>
   <g id="line2d_30">
    <path d="M 59.314801 13.193783 
L 74.708706 13.193783 
L 75.066704 53.893909 
L 80.078673 53.893909 
L 80.436671 74.942595 
L 83.658651 74.942595 
L 84.016648 88.004408 
L 87.954624 88.004408 
L 88.312622 98.01507 
L 94.040587 98.01507 
L 94.398584 93.010906 
L 98.694558 93.010906 
L 99.052556 93.448013 
L 101.55854 93.448013 
L 101.916538 121.228134 
L 120.174425 121.228134 
L 120.532423 121.029011 
L 238.313696 121.029011 
L 238.313696 121.029011 
" clip-path="url(#p0f32198eed)" style="fill: none; stroke: #b8b8b8; stroke-opacity: 0.28; stroke-width: 0.75; stroke-linecap: square"/>
   </g>
   <g id="line2d_31">
    <path d="M 59.314801 13.193783 
L 59.672799 14.140802 
L 60.030797 14.140802 
L 60.388794 17.453463 
L 60.746792 17.453463 
L 61.462788 18.742648 
L 61.820786 19.229967 
L 62.178783 19.43931 
L 62.536781 19.994121 
L 62.894779 25.207079 
L 63.252777 27.083198 
L 63.610774 27.083198 
L 63.968772 29.258931 
L 64.684768 29.258931 
L 65.042766 32.303755 
L 65.400763 37.25017 
L 65.758761 38.459554 
L 66.116759 38.459554 
L 66.474757 39.911508 
L 66.832755 40.359859 
L 67.190752 42.392552 
L 67.54875 42.392552 
L 67.906748 42.68343 
L 68.264746 42.68343 
L 68.622744 42.905701 
L 68.980741 44.442736 
L 70.412732 44.442736 
L 70.77073 44.768182 
L 71.486726 44.839823 
L 71.844724 45.339218 
L 72.202721 45.339218 
L 72.560719 46.641396 
L 72.918717 46.698261 
L 73.634713 47.954557 
L 73.99271 47.954557 
L 74.350708 48.578124 
L 74.708706 48.718147 
L 75.066704 51.722507 
L 75.424702 53.667575 
L 76.140697 53.667575 
L 76.856693 54.470381 
L 77.572688 54.470381 
L 77.930686 57.087972 
L 78.288684 57.487286 
L 80.078673 57.487286 
L 80.794668 59.443392 
L 81.152666 59.458439 
L 81.510664 60.298694 
L 82.22666 59.749746 
L 83.300653 59.749746 
L 83.658651 60.443531 
L 84.374646 63.976044 
L 85.806637 64.045512 
L 86.164635 66.7192 
L 86.522633 66.809596 
L 86.880631 67.337392 
L 87.238629 67.166391 
L 87.954624 67.166391 
L 88.312622 67.693268 
L 89.386615 67.693268 
L 89.744613 67.906246 
L 90.102611 67.906246 
L 90.460609 67.418304 
L 90.818606 67.418304 
L 91.176604 67.573498 
L 92.250598 69.549528 
L 93.324591 69.549528 
L 93.682589 69.742626 
L 94.040587 69.742626 
L 94.398584 69.479249 
L 94.756582 69.479249 
L 95.11458 70.725188 
L 95.472578 70.725188 
L 95.830576 70.904042 
L 97.620564 70.881741 
L 97.978562 70.881741 
L 98.33656 71.052742 
L 98.694558 71.052742 
L 99.052556 71.367698 
L 99.410553 71.367698 
L 99.768551 71.590987 
L 101.200542 71.590987 
L 101.55854 73.746579 
L 101.916538 75.215736 
L 102.990531 75.215736 
L 103.348529 75.574616 
L 104.064525 75.574616 
L 104.422522 75.75498 
L 108.0025 75.789073 
L 108.718496 75.961728 
L 109.792489 75.961728 
L 110.150487 76.785623 
L 110.508485 76.928664 
L 110.866483 76.928664 
L 111.22448 78.014185 
L 112.298474 78.014185 
L 112.656472 78.89349 
L 113.014469 78.89349 
L 113.372467 79.707873 
L 116.236449 79.707873 
L 116.952445 80.00695 
L 117.668441 80.00695 
L 118.026438 80.580612 
L 119.45843 80.646784 
L 119.816427 80.940386 
L 123.396405 80.95864 
L 123.754403 81.279123 
L 124.470399 81.279123 
L 124.828396 81.471204 
L 125.186394 81.471204 
L 125.544392 81.772996 
L 125.90239 82.662059 
L 127.692379 82.66984 
L 128.050377 82.460771 
L 129.482368 82.460771 
L 129.840365 83.020256 
L 132.34635 83.097854 
L 132.704348 83.746037 
L 134.136339 83.837357 
L 134.494337 83.837357 
L 134.852335 84.009058 
L 138.074315 84.110725 
L 138.79031 84.22748 
L 140.580299 84.249685 
L 140.938297 84.453455 
L 141.654293 84.453455 
L 142.01229 84.726856 
L 142.728286 84.726856 
L 143.086284 84.107599 
L 143.444281 84.331517 
L 144.160277 84.331517 
L 144.518275 83.834446 
L 144.876273 84.751948 
L 146.666262 84.751948 
L 147.024259 85.149319 
L 149.172246 85.149319 
L 149.530244 84.966264 
L 152.752224 84.966264 
L 153.110222 85.230035 
L 157.048197 85.230035 
L 157.406195 85.791446 
L 160.986173 85.791446 
L 161.344171 86.293825 
L 170.294116 86.398176 
L 170.652113 86.99025 
L 178.528065 86.912039 
L 178.886063 87.397867 
L 179.602058 87.397867 
L 179.960056 88.762599 
L 181.034049 88.808656 
L 181.392047 88.308302 
L 194.995963 88.412007 
L 196.427954 88.44716 
L 197.14395 88.44716 
L 197.501948 88.298379 
L 203.229912 88.305154 
L 203.58791 88.926244 
L 211.821859 88.926244 
L 212.179857 88.682072 
L 213.25385 88.682072 
L 213.611848 88.812492 
L 213.969846 88.812492 
L 214.327844 89.425458 
L 216.47583 89.425458 
L 216.833828 89.636885 
L 218.623817 89.636885 
L 218.981815 89.785891 
L 236.881704 89.762612 
L 237.239702 89.325657 
L 238.313696 89.325657 
L 238.313696 89.325657 
" clip-path="url(#p0f32198eed)" style="fill: none; stroke: #b2182b; stroke-width: 2.2; stroke-linecap: square"/>
   </g>
   <g id="line2d_32">
    <path d="M 59.314801 13.193783 
L 238.313696 13.193783 
" clip-path="url(#p0f32198eed)" style="fill: none; stroke-dasharray: 2.96,1.28; stroke-dashoffset: 0; stroke: #555555; stroke-opacity: 0.7; stroke-width: 0.8"/>
   </g>
   <g id="patch_3">
    <path d="M 59.314801 132.22 
L 59.314801 7.2 
" style="fill: none; stroke: #222222; stroke-width: 0.8; stroke-linejoin: miter; stroke-linecap: square"/>
   </g>
   <g id="patch_4">
    <path d="M 59.314801 132.22 
L 238.313696 132.22 
" style="fill: none; stroke: #222222; stroke-width: 0.8; stroke-linejoin: miter; stroke-linecap: square"/>
   </g>
   <g id="text_13">
    <!-- $\frac{\max_i |\kappa_{g,i}|}{\max_i |\kappa_{g,i,0}|}$ -->
    <g transform="translate(7.2 32.1761)">
     <text>
      <tspan x="0" y="5.055469" style="font-size: 8.05px; font-family: 'cmr10'">m</tspan>
      <tspan x="3" y="-9.9625" style="font-size: 8.05px; font-family: 'cmr10'">m</tspan>
      <tspan x="6.705713" y="5.055469" style="font-size: 8.05px; font-family: 'cmr10'">a</tspan>
      <tspan x="9.705713" y="-9.9625" style="font-size: 8.05px; font-family: 'cmr10'">a</tspan>
      <tspan x="10.730713" y="5.055469" style="font-size: 8.05px; font-family: 'cmr10'">x</tspan>
      <tspan x="13.730713" y="-9.9625" style="font-size: 8.05px; font-family: 'cmr10'">x</tspan>
      <tspan x="7" y="10.380938" style="font-size: 5.635px; font-family: 'cmmi10'">i</tspan>
      <tspan x="10" y="-4.637031" style="font-size: 5.635px; font-family: 'cmmi10'">i</tspan>
      <tspan x="21.83877" y="6.424472" style="font-size: 5.635px; font-family: 'cmmi10'">g</tspan>
      <tspan x="24.526951" y="6.424472" style="font-size: 5.635px; font-family: 'cmmi10'">;</tspan>
      <tspan x="24.83877" y="-8.593497" style="font-size: 5.635px; font-family: 'cmmi10'">g</tspan>
      <tspan x="27.076458" y="6.424472" style="font-size: 5.635px; font-family: 'cmmi10'">i</tspan>
      <tspan x="27.526951" y="-8.593497" style="font-size: 5.635px; font-family: 'cmmi10'">;</tspan>
      <tspan x="29.016241" y="6.424472" style="font-size: 5.635px; font-family: 'cmmi10'">;</tspan>
      <tspan x="30.076458" y="-8.593497" style="font-size: 5.635px; font-family: 'cmmi10'">i</tspan>
      <tspan x="14.971899" y="5.055469" style="font-size: 8.05px; font-family: 'cmsy10'">j</tspan>
      <tspan x="17.971899" y="-9.9625" style="font-size: 8.05px; font-family: 'cmsy10'">j</tspan>
      <tspan x="33.707529" y="-9.9625" style="font-size: 8.05px; font-family: 'cmsy10'">j</tspan>
      <tspan x="36.074537" y="5.055469" style="font-size: 8.05px; font-family: 'cmsy10'">j</tspan>
      <tspan x="17.200586" y="5.055469" style="font-size: 8.05px; font-family: 'cmmi10'">∙</tspan>
      <tspan x="20.200586" y="-9.9625" style="font-size: 8.05px; font-family: 'cmmi10'">∙</tspan>
      <tspan x="31.565748" y="6.424472" style="font-size: 5.635px; font-family: 'cmr10'">0</tspan>
     </text>
     <rect x="0" y="-2.700781" width="38.303223" height="0.71875"/>
    </g>
   </g>
  </g>
 </g>
 <defs>
  <clipPath id="p0f32198eed">
   <rect x="59.314801" y="7.2" width="178.998895" height="125.02"/>
  </clipPath>
 </defs>
</svg>
