<?xml version="1.0" encoding="utf-8" standalone="no"?>
<!DOCTYPE svg PUBLIC "-//W3C//DTD SVG 1.1//EN"
  "http://www.w3.org/Graphics/SVG/1.1/DTD/svg11.dtd">
<svg xmlns:xlink="http://www.w3.org/1999/xlink" width="251.81792pt" height="163.908509pt" viewBox="0 0 251.81792 163.908509" xmlns="http://www.w3.org/2000/svg" version="1.1">
 <metadata>
  <rdf:RDF xmlns:dc="http://purl.org/dc/elements/1.1/" xmlns:cc="http://creativecommons.org/ns#" xmlns:rdf="http://www.w3.org/1999/02/22-rdf-syntax-ns#">
   <cc:Work>
    <dc:type rdf:resource="http://purl.org/dc/dcmitype/StillImage"/>
    <dc:date>2026-06-15T20:14:46.522789</dc:date>
    <dc:format>image/svg+xml</dc:format>
    <dc:creator>
     <cc:Agent>
      <dc:title>Matplotlib v3.10.8, https://matplotlib.org/</dc:title>
     </cc:Agent>
    </dc:creator>
   </cc:Work>
  </rdf:RDF>
 </metadata>
 <defs>
  <style type="text/css">*{stroke-linejoin: round; stroke-linecap: butt}</style>
 </defs>
 <g id="figure_1">
  <g id="patch_1">
   <path d="M 0 163.908509 
L 251.81792 163.908509 
L 251.81792 0 
L 0 0 
z
" style="fill: #ffffff"/>
  </g>
  <g id="axes_1">
   <g id="patch_2">
    <path d="M 53.009231 132.175227 
L 239.449404 132.175227 
L 239.449404 9.289396 
L 53.009231 9.289396 
z
" style="fill: #ffffff"/>
   </g>
   <g id="FillBetweenPolyCollection_1">
    <defs>
     <path id="m8a7f62af18" d="M 53.009231 -37.319001 
L 53.009231 -37.319001 
L 53.382111 -37.319001 
L 53.754992 -37.319001 
L 54.127872 -37.752384 
L 54.500753 -38.960745 
L 54.873633 -39.006012 
L 55.246513 -41.286452 
L 55.619394 -42.964956 
L 55.992274 -44.357977 
L 56.365154 -44.357977 
L 56.738035 -45.020284 
L 57.110915 -47.672548 
L 57.483795 -47.998738 
L 57.856676 -48.322342 
L 58.229556 -49.278808 
L 58.602436 -49.669839 
L 58.975317 -50.425454 
L 59.348197 -51.546494 
L 59.721077 -53.009632 
L 60.093958 -54.422914 
L 60.466838 -54.422914 
L 60.839718 -57.065123 
L 61.212599 -59.914873 
L 61.585479 -59.060003 
L 61.958359 -59.060003 
L 62.33124 -60.473578 
L 62.70412 -60.473578 
L 63.077 -59.018431 
L 63.449881 -61.238957 
L 63.822761 -63.013785 
L 64.195642 -63.566101 
L 64.568522 -64.100042 
L 64.941402 -64.893711 
L 65.314283 -66.300035 
L 65.687163 -66.777529 
L 66.060043 -67.848824 
L 66.432924 -69.463927 
L 66.805804 -69.53102 
L 67.178684 -70.1559 
L 67.551565 -71.115288 
L 67.924445 -71.957522 
L 68.297325 -72.64884 
L 68.670206 -72.64884 
L 69.043086 -73.710406 
L 69.415966 -74.150622 
L 69.788847 -74.150622 
L 70.161727 -74.077792 
L 70.534607 -74.077792 
L 70.907488 -74.274817 
L 71.280368 -74.274817 
L 71.653248 -75.552238 
L 72.026129 -75.552238 
L 72.399009 -75.646319 
L 72.771889 -75.999495 
L 73.14477 -75.999495 
L 73.51765 -77.06483 
L 73.890531 -77.857928 
L 74.263411 -77.857928 
L 74.636291 -77.857928 
L 75.009172 -78.50532 
L 75.382052 -79.356698 
L 75.754932 -79.356698 
L 76.127813 -79.864696 
L 76.500693 -79.864696 
L 76.873573 -79.667703 
L 77.246454 -79.667703 
L 77.619334 -80.669995 
L 77.992214 -80.669995 
L 78.365095 -81.209617 
L 78.737975 -81.462565 
L 79.110855 -82.094633 
L 79.483736 -82.094633 
L 79.856616 -83.550224 
L 80.229496 -83.550224 
L 80.602377 -83.853553 
L 80.975257 -84.77637 
L 81.348137 -84.77637 
L 81.721018 -84.77637 
L 82.093898 -84.77637 
L 82.466778 -84.77637 
L 82.839659 -84.77637 
L 83.212539 -86.267794 
L 83.58542 -87.14238 
L 83.9583 -87.14238 
L 84.33118 -87.14238 
L 84.704061 -87.604848 
L 85.076941 -88.118157 
L 85.449821 -88.736201 
L 85.822702 -88.736201 
L 86.195582 -89.342728 
L 86.568462 -91.730562 
L 86.941343 -92.561976 
L 87.314223 -92.561976 
L 87.687103 -92.561976 
L 88.059984 -93.204843 
L 88.432864 -93.204843 
L 88.805744 -94.846382 
L 89.178625 -94.846382 
L 89.551505 -94.806616 
L 89.924385 -94.806616 
L 90.297266 -94.806616 
L 90.670146 -95.871096 
L 91.043026 -95.871096 
L 91.415907 -95.871096 
L 91.788787 -95.871096 
L 92.161667 -96.5437 
L 92.534548 -96.5437 
L 92.907428 -96.149773 
L 93.280308 -96.149773 
L 93.653189 -96.149773 
L 94.026069 -96.149773 
L 94.39895 -96.149773 
L 94.77183 -96.149773 
L 95.14471 -95.472809 
L 95.517591 -96.568619 
L 95.890471 -96.568619 
L 96.263351 -97.157611 
L 96.636232 -97.157611 
L 97.009112 -98.788656 
L 97.381992 -98.788656 
L 97.754873 -98.788656 
L 98.127753 -99.321974 
L 98.500633 -99.002106 
L 98.873514 -99.064274 
L 99.246394 -99.064274 
L 99.619274 -99.504079 
L 99.992155 -99.504079 
L 100.365035 -99.696572 
L 100.737915 -99.478835 
L 101.110796 -99.782141 
L 101.483676 -100.59037 
L 101.856556 -100.59037 
L 102.229437 -100.59037 
L 102.602317 -100.59037 
L 102.975197 -100.682498 
L 103.348078 -100.682498 
L 103.720958 -101.436554 
L 104.093839 -101.436554 
L 104.466719 -101.920366 
L 104.839599 -101.920366 
L 105.21248 -101.920366 
L 105.58536 -101.920366 
L 105.95824 -103.554722 
L 106.331121 -103.554722 
L 106.704001 -103.554722 
L 107.076881 -103.554722 
L 107.449762 -103.554722 
L 107.822642 -104.166168 
L 108.195522 -105.592841 
L 108.568403 -105.515516 
L 108.941283 -105.515516 
L 109.314163 -106.090882 
L 109.687044 -106.090882 
L 110.059924 -106.624964 
L 110.432804 -106.455738 
L 110.805685 -105.90531 
L 111.178565 -105.90531 
L 111.551445 -105.90531 
L 111.924326 -105.333943 
L 112.297206 -105.333943 
L 112.670086 -105.883219 
L 113.042967 -105.883219 
L 113.415847 -105.88437 
L 113.788728 -105.542137 
L 114.161608 -105.504116 
L 114.534488 -105.504116 
L 114.907369 -105.504116 
L 115.280249 -106.341884 
L 115.653129 -106.857375 
L 116.02601 -106.857375 
L 116.39889 -106.857375 
L 116.77177 -108.917091 
L 117.144651 -108.917091 
L 117.517531 -108.917091 
L 117.890411 -108.917091 
L 118.263292 -109.15351 
L 118.636172 -108.893082 
L 119.009052 -109.199948 
L 119.381933 -109.199948 
L 119.754813 -109.199948 
L 120.127693 -108.936203 
L 120.500574 -109.199948 
L 120.873454 -109.199948 
L 121.246334 -109.199948 
L 121.619215 -109.199948 
L 121.992095 -109.199948 
L 122.364975 -109.199948 
L 122.737856 -109.199948 
L 123.110736 -109.199948 
L 123.483617 -108.337527 
L 123.856497 -108.337527 
L 124.229377 -109.199948 
L 124.602258 -109.199948 
L 124.975138 -109.199948 
L 125.348018 -109.199948 
L 125.720899 -109.709662 
L 126.093779 -109.709662 
L 126.466659 -110.046208 
L 126.83954 -110.046208 
L 127.21242 -110.046208 
L 127.5853 -109.447406 
L 127.958181 -109.458726 
L 128.331061 -109.458726 
L 128.703941 -109.877726 
L 129.076822 -109.877726 
L 129.449702 -109.877726 
L 129.822582 -109.877726 
L 130.195463 -109.877726 
L 130.568343 -109.877726 
L 130.941223 -110.721721 
L 131.314104 -110.721721 
L 131.686984 -111.744413 
L 132.059864 -111.744413 
L 132.432745 -111.744413 
L 132.805625 -111.574736 
L 133.178506 -111.258807 
L 133.551386 -112.16486 
L 133.924266 -111.456997 
L 134.297147 -111.456997 
L 134.670027 -111.456997 
L 135.042907 -111.456997 
L 135.415788 -111.456997 
L 135.788668 -111.045922 
L 136.161548 -111.045922 
L 136.534429 -111.045922 
L 136.907309 -110.847731 
L 137.280189 -110.847731 
L 137.65307 -110.847731 
L 138.02595 -111.379472 
L 138.39883 -111.379472 
L 138.771711 -111.379472 
L 139.144591 -111.379472 
L 139.517471 -111.379472 
L 139.890352 -111.379472 
L 140.263232 -111.379472 
L 140.636112 -111.379472 
L 141.008993 -111.379472 
L 141.381873 -111.379472 
L 141.754753 -111.379472 
L 142.127634 -111.379472 
L 142.500514 -112.633686 
L 142.873395 -112.633686 
L 143.246275 -112.633686 
L 143.619155 -112.633686 
L 143.992036 -112.633686 
L 144.364916 -112.33395 
L 144.737796 -112.726691 
L 145.110677 -112.726691 
L 145.483557 -113.071472 
L 145.856437 -113.239159 
L 146.229318 -113.239159 
L 146.602198 -113.239159 
L 146.975078 -113.868775 
L 147.347959 -113.868775 
L 147.720839 -114.438769 
L 148.093719 -114.438769 
L 148.4666 -114.438769 
L 148.83948 -113.212506 
L 149.21236 -113.212506 
L 149.585241 -113.212506 
L 149.958121 -113.212506 
L 150.331001 -113.212506 
L 150.703882 -113.212506 
L 151.076762 -113.212506 
L 151.449642 -113.212506 
L 151.822523 -113.212506 
L 152.195403 -113.420793 
L 152.568284 -113.420793 
L 152.941164 -114.416629 
L 153.314044 -114.416629 
L 153.686925 -114.416629 
L 154.059805 -114.416629 
L 154.432685 -115.25834 
L 154.805566 -115.25834 
L 155.178446 -115.476498 
L 155.551326 -115.476498 
L 155.924207 -115.476498 
L 156.297087 -115.083501 
L 156.669967 -115.083501 
L 157.042848 -115.083501 
L 157.415728 -114.905515 
L 157.788608 -115.352151 
L 158.161489 -115.352151 
L 158.534369 -115.352151 
L 158.907249 -115.352151 
L 159.28013 -115.352151 
L 159.65301 -115.352151 
L 160.02589 -115.352151 
L 160.398771 -115.337194 
L 160.771651 -115.337194 
L 161.144531 -115.337194 
L 161.517412 -115.337194 
L 161.890292 -115.615642 
L 162.263172 -115.615642 
L 162.636053 -115.615642 
L 163.008933 -115.615642 
L 163.381814 -115.615642 
L 163.754694 -115.615642 
L 164.127574 -115.615642 
L 164.500455 -115.615642 
L 164.873335 -115.615642 
L 165.246215 -116.105557 
L 165.619096 -116.166711 
L 165.991976 -116.166711 
L 166.364856 -116.43021 
L 166.737737 -116.43021 
L 167.110617 -116.618844 
L 167.483497 -116.867292 
L 167.856378 -116.867292 
L 168.229258 -116.867292 
L 168.602138 -116.867292 
L 168.975019 -116.192544 
L 169.347899 -116.192544 
L 169.720779 -116.192544 
L 170.09366 -116.192544 
L 170.46654 -116.192544 
L 170.83942 -117.031056 
L 171.212301 -117.031056 
L 171.585181 -117.590346 
L 171.958061 -117.590346 
L 172.330942 -117.590346 
L 172.703822 -117.590346 
L 173.076703 -117.590346 
L 173.449583 -117.079988 
L 173.822463 -117.079988 
L 174.195344 -117.079988 
L 174.568224 -117.079988 
L 174.941104 -117.079988 
L 175.313985 -117.079988 
L 175.686865 -117.079988 
L 176.059745 -117.079988 
L 176.432626 -117.014599 
L 176.805506 -117.014599 
L 177.178386 -117.014599 
L 177.551267 -117.014599 
L 177.924147 -117.014599 
L 178.297027 -117.014599 
L 178.669908 -117.014599 
L 179.042788 -117.014599 
L 179.415668 -117.014599 
L 179.788549 -117.014599 
L 180.161429 -117.014599 
L 180.534309 -116.501661 
L 180.90719 -116.501661 
L 181.28007 -116.41483 
L 181.65295 -116.41483 
L 182.025831 -116.41483 
L 182.398711 -116.41483 
L 182.771592 -116.41483 
L 183.144472 -116.687596 
L 183.517352 -116.687596 
L 183.890233 -116.687596 
L 184.263113 -116.687596 
L 184.635993 -118.00612 
L 185.008874 -118.00612 
L 185.381754 -117.754029 
L 185.754634 -117.754029 
L 186.127515 -117.754029 
L 186.500395 -117.754029 
L 186.873275 -117.754029 
L 187.246156 -117.754029 
L 187.619036 -117.754029 
L 187.991916 -117.754029 
L 188.364797 -117.754029 
L 188.737677 -117.801014 
L 189.110557 -117.801014 
L 189.483438 -117.801014 
L 189.856318 -117.801014 
L 190.229198 -117.801014 
L 190.602079 -117.801014 
L 190.974959 -117.801014 
L 191.347839 -117.801014 
L 191.72072 -117.801014 
L 192.0936 -117.801014 
L 192.466481 -117.801014 
L 192.839361 -117.801014 
L 193.212241 -117.801014 
L 193.585122 -117.801014 
L 193.958002 -117.801014 
L 194.330882 -117.801014 
L 194.703763 -117.801014 
L 195.076643 -117.801014 
L 195.449523 -118.072434 
L 195.822404 -118.072434 
L 196.195284 -117.453308 
L 196.568164 -117.453308 
L 196.941045 -117.453308 
L 197.313925 -117.453308 
L 197.686805 -117.453308 
L 198.059686 -117.453308 
L 198.432566 -117.453308 
L 198.805446 -117.453308 
L 199.178327 -117.453308 
L 199.551207 -117.453308 
L 199.924087 -117.453308 
L 200.296968 -117.958203 
L 200.669848 -118.356757 
L 201.042728 -118.356757 
L 201.415609 -118.356757 
L 201.788489 -117.319748 
L 202.16137 -117.827712 
L 202.53425 -117.827712 
L 202.90713 -117.827712 
L 203.280011 -118.106055 
L 203.652891 -118.106055 
L 204.025771 -118.106055 
L 204.398652 -118.106055 
L 204.771532 -118.106055 
L 205.144412 -118.106055 
L 205.517293 -118.106055 
L 205.890173 -118.106055 
L 206.263053 -118.106055 
L 206.635934 -118.106055 
L 207.008814 -118.106055 
L 207.381694 -118.106055 
L 207.754575 -118.106055 
L 208.127455 -118.106055 
L 208.500335 -118.106055 
L 208.873216 -118.106055 
L 209.246096 -118.106055 
L 209.618976 -118.106055 
L 209.991857 -118.106055 
L 210.364737 -118.106055 
L 210.737617 -117.943866 
L 211.110498 -117.943866 
L 211.483378 -117.943866 
L 211.856259 -117.943866 
L 212.229139 -117.943866 
L 212.602019 -117.943866 
L 212.9749 -117.943866 
L 213.34778 -118.030892 
L 213.72066 -118.030892 
L 214.093541 -118.030892 
L 214.466421 -118.030892 
L 214.839301 -118.613191 
L 215.212182 -118.613191 
L 215.585062 -118.613191 
L 215.957942 -118.613191 
L 216.330823 -118.613191 
L 216.703703 -118.613191 
L 217.076583 -118.613191 
L 217.449464 -118.613191 
L 217.822344 -118.613191 
L 218.195224 -118.613191 
L 218.568105 -118.613191 
L 218.940985 -118.613191 
L 219.313865 -118.613191 
L 219.686746 -118.613191 
L 220.059626 -118.207277 
L 220.432506 -118.207277 
L 220.805387 -117.477185 
L 221.178267 -117.477185 
L 221.551148 -117.477185 
L 221.924028 -117.477185 
L 222.296908 -117.477185 
L 222.669789 -117.477185 
L 223.042669 -117.477185 
L 223.415549 -118.275034 
L 223.78843 -118.275113 
L 224.16131 -118.275113 
L 224.53419 -118.275113 
L 224.907071 -118.275113 
L 225.279951 -118.275113 
L 225.652831 -119.135435 
L 226.025712 -119.135435 
L 226.398592 -119.135435 
L 226.771472 -119.135435 
L 227.144353 -119.135435 
L 227.517233 -119.135435 
L 227.890113 -119.135435 
L 228.262994 -119.135435 
L 228.635874 -119.135435 
L 229.008754 -119.135435 
L 229.381635 -119.135435 
L 229.754515 -118.591897 
L 230.127395 -118.591897 
L 230.500276 -118.591897 
L 230.873156 -118.591897 
L 231.246036 -118.591897 
L 231.618917 -118.591897 
L 231.991797 -119.138354 
L 232.364678 -119.138354 
L 232.737558 -119.138354 
L 233.110438 -119.138354 
L 233.483319 -119.138354 
L 233.856199 -119.26379 
L 234.229079 -119.26379 
L 234.60196 -119.26379 
L 234.97484 -119.26379 
L 235.34772 -118.879197 
L 235.720601 -118.879197 
L 236.093481 -118.879197 
L 236.466361 -118.879197 
L 236.839242 -118.918321 
L 237.212122 -118.918321 
L 237.585002 -118.918321 
L 237.957883 -118.918321 
L 238.330763 -118.918321 
L 238.703643 -118.918321 
L 239.076524 -118.918321 
L 239.449404 -118.918321 
L 239.449404 -130.34953 
L 239.449404 -130.34953 
L 239.076524 -130.34953 
L 238.703643 -130.34953 
L 238.330763 -130.34953 
L 237.957883 -130.34953 
L 237.585002 -130.34953 
L 237.212122 -130.34953 
L 236.839242 -130.34953 
L 236.466361 -130.34953 
L 236.093481 -129.814607 
L 235.720601 -129.626047 
L 235.34772 -129.626047 
L 234.97484 -129.626047 
L 234.60196 -129.626047 
L 234.229079 -129.626047 
L 233.856199 -129.626047 
L 233.483319 -129.626047 
L 233.110438 -129.626047 
L 232.737558 -130.338617 
L 232.364678 -130.338617 
L 231.991797 -130.338617 
L 231.618917 -130.338617 
L 231.246036 -130.338617 
L 230.873156 -130.338617 
L 230.500276 -130.338617 
L 230.127395 -130.338617 
L 229.754515 -130.338617 
L 229.381635 -130.338617 
L 229.008754 -130.338617 
L 228.635874 -130.338617 
L 228.262994 -130.338617 
L 227.890113 -130.338617 
L 227.517233 -130.338617 
L 227.144353 -130.338617 
L 226.771472 -130.338617 
L 226.398592 -130.338617 
L 226.025712 -130.338617 
L 225.652831 -130.338617 
L 225.279951 -130.681643 
L 224.907071 -130.681643 
L 224.53419 -130.681643 
L 224.16131 -130.681643 
L 223.78843 -130.681643 
L 223.415549 -131.2126 
L 223.042669 -131.2126 
L 222.669789 -130.778619 
L 222.296908 -130.778619 
L 221.924028 -130.778619 
L 221.551148 -129.928071 
L 221.178267 -129.928071 
L 220.805387 -129.928071 
L 220.432506 -129.928071 
L 220.059626 -129.928071 
L 219.686746 -129.374549 
L 219.313865 -129.374549 
L 218.940985 -129.374549 
L 218.568105 -130.028845 
L 218.195224 -130.028845 
L 217.822344 -129.818927 
L 217.449464 -129.818927 
L 217.076583 -129.790793 
L 216.703703 -129.790793 
L 216.330823 -129.790793 
L 215.957942 -129.790793 
L 215.585062 -129.790793 
L 215.212182 -129.790793 
L 214.839301 -129.790793 
L 214.466421 -129.790793 
L 214.093541 -129.217338 
L 213.72066 -129.217338 
L 213.34778 -129.217338 
L 212.9749 -129.217338 
L 212.602019 -129.217338 
L 212.229139 -129.217338 
L 211.856259 -129.217338 
L 211.483378 -129.217338 
L 211.110498 -129.217338 
L 210.737617 -129.217338 
L 210.364737 -129.217338 
L 209.991857 -129.217338 
L 209.618976 -129.217338 
L 209.246096 -129.217338 
L 208.873216 -128.869985 
L 208.500335 -128.869985 
L 208.127455 -128.869985 
L 207.754575 -128.869985 
L 207.381694 -128.869985 
L 207.008814 -128.869985 
L 206.635934 -128.869985 
L 206.263053 -128.869985 
L 205.890173 -128.869985 
L 205.517293 -128.869985 
L 205.144412 -128.869985 
L 204.771532 -128.869985 
L 204.398652 -128.869985 
L 204.025771 -128.869985 
L 203.652891 -128.869985 
L 203.280011 -128.869985 
L 202.90713 -128.869985 
L 202.53425 -128.869985 
L 202.16137 -128.869985 
L 201.788489 -128.869985 
L 201.415609 -128.869985 
L 201.042728 -128.869985 
L 200.669848 -128.869985 
L 200.296968 -128.869985 
L 199.924087 -128.872352 
L 199.551207 -129.000163 
L 199.178327 -129.000163 
L 198.805446 -129.000163 
L 198.432566 -129.000163 
L 198.059686 -129.000163 
L 197.686805 -128.87169 
L 197.313925 -128.87169 
L 196.941045 -128.642185 
L 196.568164 -127.938425 
L 196.195284 -127.907889 
L 195.822404 -127.907889 
L 195.449523 -127.907889 
L 195.076643 -127.907889 
L 194.703763 -127.907889 
L 194.330882 -127.907889 
L 193.958002 -127.907889 
L 193.585122 -127.907889 
L 193.212241 -127.907889 
L 192.839361 -127.907889 
L 192.466481 -127.907889 
L 192.0936 -127.907889 
L 191.72072 -127.907889 
L 191.347839 -127.907889 
L 190.974959 -127.907889 
L 190.602079 -127.907889 
L 190.229198 -127.907889 
L 189.856318 -127.907889 
L 189.483438 -127.907889 
L 189.110557 -127.907889 
L 188.737677 -127.907889 
L 188.364797 -127.684725 
L 187.991916 -127.684725 
L 187.619036 -127.684725 
L 187.246156 -127.684725 
L 186.873275 -127.684725 
L 186.500395 -127.684725 
L 186.127515 -127.622043 
L 185.754634 -127.533695 
L 185.381754 -126.846189 
L 185.008874 -126.846189 
L 184.635993 -126.846189 
L 184.263113 -126.846189 
L 183.890233 -126.525618 
L 183.517352 -126.525618 
L 183.144472 -126.525618 
L 182.771592 -126.216606 
L 182.398711 -126.216606 
L 182.025831 -126.216606 
L 181.65295 -126.525618 
L 181.28007 -126.525618 
L 180.90719 -126.525618 
L 180.534309 -126.525618 
L 180.161429 -126.525618 
L 179.788549 -126.525618 
L 179.415668 -127.033917 
L 179.042788 -127.033917 
L 178.669908 -127.033917 
L 178.297027 -127.033917 
L 177.924147 -127.033917 
L 177.551267 -126.814912 
L 177.178386 -126.814912 
L 176.805506 -126.814912 
L 176.432626 -126.814912 
L 176.059745 -126.814912 
L 175.686865 -126.814912 
L 175.313985 -126.814912 
L 174.941104 -126.814912 
L 174.568224 -126.814912 
L 174.195344 -126.814912 
L 173.822463 -126.814912 
L 173.449583 -126.814912 
L 173.076703 -126.814912 
L 172.703822 -126.736762 
L 172.330942 -126.736762 
L 171.958061 -126.733424 
L 171.585181 -126.733424 
L 171.212301 -126.733424 
L 170.83942 -126.733424 
L 170.46654 -126.733424 
L 170.09366 -126.733424 
L 169.720779 -125.590297 
L 169.347899 -125.590297 
L 168.975019 -125.590297 
L 168.602138 -125.734838 
L 168.229258 -125.734838 
L 167.856378 -125.734838 
L 167.483497 -125.734838 
L 167.110617 -124.648475 
L 166.737737 -124.648475 
L 166.364856 -125.426458 
L 165.991976 -125.426458 
L 165.619096 -125.426458 
L 165.246215 -125.426458 
L 164.873335 -125.426458 
L 164.500455 -125.426458 
L 164.127574 -125.426458 
L 163.754694 -125.426458 
L 163.381814 -125.091935 
L 163.008933 -124.463631 
L 162.636053 -124.463631 
L 162.263172 -124.463631 
L 161.890292 -124.463631 
L 161.517412 -124.463631 
L 161.144531 -124.463631 
L 160.771651 -124.463631 
L 160.398771 -123.547886 
L 160.02589 -123.547886 
L 159.65301 -123.547886 
L 159.28013 -123.547886 
L 158.907249 -123.547886 
L 158.534369 -123.547886 
L 158.161489 -123.547886 
L 157.788608 -123.547886 
L 157.415728 -123.547886 
L 157.042848 -123.547886 
L 156.669967 -124.171925 
L 156.297087 -124.171925 
L 155.924207 -124.171925 
L 155.551326 -124.171925 
L 155.178446 -124.171925 
L 154.805566 -124.171925 
L 154.432685 -124.171925 
L 154.059805 -123.620875 
L 153.686925 -123.620875 
L 153.314044 -123.620875 
L 152.941164 -124.168569 
L 152.568284 -124.168569 
L 152.195403 -124.168569 
L 151.822523 -124.168569 
L 151.449642 -124.772588 
L 151.076762 -124.772588 
L 150.703882 -124.200388 
L 150.331001 -124.200388 
L 149.958121 -124.200388 
L 149.585241 -124.200388 
L 149.21236 -124.200388 
L 148.83948 -124.200388 
L 148.4666 -124.200388 
L 148.093719 -124.592575 
L 147.720839 -124.592575 
L 147.347959 -124.592575 
L 146.975078 -124.592575 
L 146.602198 -124.08389 
L 146.229318 -124.08389 
L 145.856437 -124.08389 
L 145.483557 -124.08389 
L 145.110677 -123.7617 
L 144.737796 -123.7617 
L 144.364916 -123.7617 
L 143.992036 -123.7617 
L 143.619155 -123.7617 
L 143.246275 -123.7617 
L 142.873395 -124.056076 
L 142.500514 -124.056076 
L 142.127634 -124.056076 
L 141.754753 -124.056076 
L 141.381873 -123.728866 
L 141.008993 -123.728866 
L 140.636112 -123.87356 
L 140.263232 -123.87356 
L 139.890352 -124.649171 
L 139.517471 -123.889948 
L 139.144591 -123.889948 
L 138.771711 -123.441547 
L 138.39883 -123.889948 
L 138.02595 -123.889948 
L 137.65307 -123.161703 
L 137.280189 -123.161703 
L 136.907309 -123.161703 
L 136.534429 -123.161703 
L 136.161548 -122.414716 
L 135.788668 -122.414716 
L 135.415788 -122.414716 
L 135.042907 -122.414716 
L 134.670027 -122.414716 
L 134.297147 -121.48759 
L 133.924266 -121.48759 
L 133.551386 -121.48759 
L 133.178506 -121.48759 
L 132.805625 -121.48759 
L 132.432745 -121.48759 
L 132.059864 -121.48759 
L 131.686984 -121.431677 
L 131.314104 -120.441064 
L 130.941223 -120.441064 
L 130.568343 -120.441064 
L 130.195463 -119.980664 
L 129.822582 -119.980664 
L 129.449702 -119.980664 
L 129.076822 -118.635426 
L 128.703941 -118.635426 
L 128.331061 -118.635426 
L 127.958181 -118.635426 
L 127.5853 -118.574771 
L 127.21242 -118.574771 
L 126.83954 -118.574771 
L 126.466659 -119.167616 
L 126.093779 -118.623531 
L 125.720899 -118.002161 
L 125.348018 -118.002161 
L 124.975138 -118.002161 
L 124.602258 -117.37103 
L 124.229377 -116.767297 
L 123.856497 -116.767297 
L 123.483617 -116.767297 
L 123.110736 -116.767297 
L 122.737856 -116.767297 
L 122.364975 -116.767297 
L 121.992095 -116.212175 
L 121.619215 -116.212175 
L 121.246334 -116.212175 
L 120.873454 -115.637032 
L 120.500574 -115.637032 
L 120.127693 -115.637032 
L 119.754813 -115.637032 
L 119.381933 -115.637032 
L 119.009052 -115.246687 
L 118.636172 -115.246687 
L 118.263292 -115.246687 
L 117.890411 -115.267014 
L 117.517531 -114.919292 
L 117.144651 -114.919292 
L 116.77177 -114.919292 
L 116.39889 -116.2229 
L 116.02601 -115.514136 
L 115.653129 -114.426278 
L 115.280249 -113.46617 
L 114.907369 -113.46617 
L 114.534488 -113.38676 
L 114.161608 -113.38676 
L 113.788728 -113.936146 
L 113.415847 -113.936146 
L 113.042967 -113.936146 
L 112.670086 -112.83794 
L 112.297206 -112.83794 
L 111.924326 -112.83794 
L 111.551445 -112.83794 
L 111.178565 -112.414933 
L 110.805685 -112.414933 
L 110.432804 -112.414933 
L 110.059924 -112.414933 
L 109.687044 -112.414933 
L 109.314163 -111.186767 
L 108.941283 -111.186767 
L 108.568403 -111.186767 
L 108.195522 -111.186767 
L 107.822642 -111.186767 
L 107.449762 -111.186767 
L 107.076881 -111.186767 
L 106.704001 -111.186767 
L 106.331121 -111.186767 
L 105.95824 -110.853862 
L 105.58536 -110.853862 
L 105.21248 -110.853862 
L 104.839599 -110.374662 
L 104.466719 -110.374662 
L 104.093839 -110.374662 
L 103.720958 -110.374662 
L 103.348078 -110.752396 
L 102.975197 -110.374662 
L 102.602317 -110.374662 
L 102.229437 -110.081712 
L 101.856556 -110.081712 
L 101.483676 -110.081712 
L 101.110796 -110.081712 
L 100.737915 -110.081712 
L 100.365035 -109.231898 
L 99.992155 -109.053151 
L 99.619274 -109.053151 
L 99.246394 -109.450933 
L 98.873514 -109.450933 
L 98.500633 -109.450933 
L 98.127753 -109.053151 
L 97.754873 -109.053151 
L 97.381992 -109.053151 
L 97.009112 -108.958269 
L 96.636232 -108.958269 
L 96.263351 -108.958269 
L 95.890471 -108.920749 
L 95.517591 -108.360013 
L 95.14471 -108.360013 
L 94.77183 -108.360013 
L 94.39895 -107.739435 
L 94.026069 -107.354889 
L 93.653189 -105.376543 
L 93.280308 -104.83296 
L 92.907428 -104.294145 
L 92.534548 -104.294145 
L 92.161667 -105.160761 
L 91.788787 -104.60751 
L 91.415907 -104.60751 
L 91.043026 -103.578551 
L 90.670146 -103.578551 
L 90.297266 -103.578551 
L 89.924385 -103.035254 
L 89.551505 -103.035254 
L 89.178625 -103.035254 
L 88.805744 -103.035254 
L 88.432864 -102.442473 
L 88.059984 -102.442473 
L 87.687103 -102.442473 
L 87.314223 -101.704232 
L 86.941343 -101.514653 
L 86.568462 -101.514653 
L 86.195582 -101.514653 
L 85.822702 -101.514653 
L 85.449821 -101.514653 
L 85.076941 -101.514653 
L 84.704061 -101.514653 
L 84.33118 -101.514653 
L 83.9583 -101.132465 
L 83.58542 -100.752697 
L 83.212539 -100.752697 
L 82.839659 -100.382031 
L 82.466778 -99.585919 
L 82.093898 -99.585919 
L 81.721018 -99.141801 
L 81.348137 -99.141801 
L 80.975257 -98.659857 
L 80.602377 -99.585919 
L 80.229496 -98.339648 
L 79.856616 -98.339648 
L 79.483736 -97.975844 
L 79.110855 -97.864214 
L 78.737975 -98.480818 
L 78.365095 -98.151713 
L 77.992214 -96.828108 
L 77.619334 -96.828108 
L 77.246454 -96.012577 
L 76.873573 -94.929962 
L 76.500693 -94.774 
L 76.127813 -94.774 
L 75.754932 -94.774 
L 75.382052 -94.774 
L 75.009172 -96.257781 
L 74.636291 -96.257781 
L 74.263411 -95.336898 
L 73.890531 -95.336898 
L 73.51765 -92.959129 
L 73.14477 -92.264433 
L 72.771889 -92.264433 
L 72.399009 -92.152529 
L 72.026129 -92.756168 
L 71.653248 -92.353269 
L 71.280368 -91.220747 
L 70.907488 -91.220747 
L 70.534607 -91.220747 
L 70.161727 -91.220747 
L 69.788847 -89.702841 
L 69.415966 -89.682992 
L 69.043086 -87.662856 
L 68.670206 -87.662856 
L 68.297325 -85.452274 
L 67.924445 -85.660677 
L 67.551565 -84.665129 
L 67.178684 -84.665129 
L 66.805804 -82.025407 
L 66.432924 -82.025407 
L 66.060043 -82.025407 
L 65.687163 -82.025407 
L 65.314283 -81.220197 
L 64.941402 -79.920384 
L 64.568522 -77.955091 
L 64.195642 -77.200819 
L 63.822761 -76.279439 
L 63.449881 -76.279439 
L 63.077 -76.033644 
L 62.70412 -76.033644 
L 62.33124 -75.184418 
L 61.958359 -73.971849 
L 61.585479 -72.412973 
L 61.212599 -71.81141 
L 60.839718 -71.509338 
L 60.466838 -70.624265 
L 60.093958 -70.769309 
L 59.721077 -69.422763 
L 59.348197 -67.205238 
L 58.975317 -65.606454 
L 58.602436 -63.375603 
L 58.229556 -62.175547 
L 57.856676 -60.706717 
L 57.483795 -59.127965 
L 57.110915 -56.892335 
L 56.738035 -55.432819 
L 56.365154 -52.621461 
L 55.992274 -50.0964 
L 55.619394 -47.794263 
L 55.246513 -47.593266 
L 54.873633 -44.739423 
L 54.500753 -43.614681 
L 54.127872 -41.443825 
L 53.754992 -41.091046 
L 53.382111 -37.752384 
L 53.009231 -37.319001 
z
"/>
    </defs>
    <g clip-path="url(#p49ad4e29d4)">
     <use xlink:href="#m8a7f62af18" x="0" y="163.908509" style="fill: #f4a3a8; fill-opacity: 0.35"/>
    </g>
   </g>
   <g id="matplotlib.axis_1">
    <g id="xtick_1">
     <g id="line2d_1">
      <defs>
       <path id="m928b33388a" d="M 0 0 
L 0 3 
" style="stroke: #000000; stroke-width: 0.7"/>
      </defs>
      <g>
       <use xlink:href="#m928b33388a" x="53.009231" y="132.175227" style="stroke: #000000; stroke-width: 0.7"/>
      </g>
     </g>
     <g id="text_1">
      <text style="font-size: 6.5px; font-family: 'Arial', 'Helvetica', 'DejaVu Sans', sans-serif; text-anchor: middle" x="53.009231" y="143.614212" transform="rotate(-0 53.009231 143.614212)">0.0</text>
     </g>
    </g>
    <g id="xtick_2">
     <g id="line2d_2">
      <g>
       <use xlink:href="#m928b33388a" x="90.297266" y="132.175227" style="stroke: #000000; stroke-width: 0.7"/>
      </g>
     </g>
     <g id="text_2">
      <text style="font-size: 6.5px; font-family: 'Arial', 'Helvetica', 'DejaVu Sans', sans-serif; text-anchor: middle" x="90.297266" y="143.614212" transform="rotate(-0 90.297266 143.614212)">0.2</text>
     </g>
    </g>
    <g id="xtick_3">
     <g id="line2d_3">
      <g>
       <use xlink:href="#m928b33388a" x="127.5853" y="132.175227" style="stroke: #000000; stroke-width: 0.7"/>
      </g>
     </g>
     <g id="text_3">
      <text style="font-size: 6.5px; font-family: 'Arial', 'Helvetica', 'DejaVu Sans', sans-serif; text-anchor: middle" x="127.5853" y="143.614212" transform="rotate(-0 127.5853 143.614212)">0.4</text>
     </g>
    </g>
    <g id="xtick_4">
     <g id="line2d_4">
      <g>
       <use xlink:href="#m928b33388a" x="164.873335" y="132.175227" style="stroke: #000000; stroke-width: 0.7"/>
      </g>
     </g>
     <g id="text_4">
      <text style="font-size: 6.5px; font-family: 'Arial', 'Helvetica', 'DejaVu Sans', sans-serif; text-anchor: middle" x="164.873335" y="143.614212" transform="rotate(-0 164.873335 143.614212)">0.6</text>
     </g>
    </g>
    <g id="xtick_5">
     <g id="line2d_5">
      <g>
       <use xlink:href="#m928b33388a" x="202.16137" y="132.175227" style="stroke: #000000; stroke-width: 0.7"/>
      </g>
     </g>
     <g id="text_5">
      <text style="font-size: 6.5px; font-family: 'Arial', 'Helvetica', 'DejaVu Sans', sans-serif; text-anchor: middle" x="202.16137" y="143.614212" transform="rotate(-0 202.16137 143.614212)">0.8</text>
     </g>
    </g>
    <g id="xtick_6">
     <g id="line2d_6">
      <g>
       <use xlink:href="#m928b33388a" x="239.449404" y="132.175227" style="stroke: #000000; stroke-width: 0.7"/>
      </g>
     </g>
     <g id="text_6">
      <text style="font-size: 6.5px; font-family: 'Arial', 'Helvetica', 'DejaVu Sans', sans-serif; text-anchor: middle" x="239.449404" y="143.614212" transform="rotate(-0 239.449404 143.614212)">1.0</text>
     </g>
    </g>
    <g id="text_7">
     <text style="font-size: 8px; font-family: 'Arial', 'Helvetica', 'DejaVu Sans', sans-serif; text-anchor: middle" x="146.229318" y="155.044759" transform="rotate(-0 146.229318 155.044759)">Normalized optimization progress</text>
    </g>
   </g>
   <g id="matplotlib.axis_2">
    <g id="ytick_1">
     <g id="line2d_7">
      <defs>
       <path id="mc1b73fbf8f" d="M 0 0 
L -3 0 
" style="stroke: #000000; stroke-width: 0.7"/>
      </defs>
      <g>
       <use xlink:href="#mc1b73fbf8f" x="53.009231" y="126.589508" style="stroke: #000000; stroke-width: 0.7"/>
      </g>
     </g>
     <g id="text_8">
      <text style="font-size: 6.5px; font-family: 'Arial', 'Helvetica', 'DejaVu Sans', sans-serif; text-anchor: end" x="46.509231" y="129.059" transform="rotate(-0 46.509231 129.059)">0.0</text>
     </g>
    </g>
    <g id="ytick_2">
     <g id="line2d_8">
      <g>
       <use xlink:href="#mc1b73fbf8f" x="53.009231" y="103.205505" style="stroke: #000000; stroke-width: 0.7"/>
      </g>
     </g>
     <g id="text_9">
      <text style="font-size: 6.5px; font-family: 'Arial', 'Helvetica', 'DejaVu Sans', sans-serif; text-anchor: end" x="46.509231" y="105.674997" transform="rotate(-0 46.509231 105.674997)">0.5</text>
     </g>
    </g>
    <g id="ytick_3">
     <g id="line2d_9">
      <g>
       <use xlink:href="#mc1b73fbf8f" x="53.009231" y="79.821501" style="stroke: #000000; stroke-width: 0.7"/>
      </g>
     </g>
     <g id="text_10">
      <text style="font-size: 6.5px; font-family: 'Arial', 'Helvetica', 'DejaVu Sans', sans-serif; text-anchor: end" x="46.509231" y="82.290994" transform="rotate(-0 46.509231 82.290994)">1.0</text>
     </g>
    </g>
    <g id="ytick_4">
     <g id="line2d_10">
      <g>
       <use xlink:href="#mc1b73fbf8f" x="53.009231" y="56.437498" style="stroke: #000000; stroke-width: 0.7"/>
      </g>
     </g>
     <g id="text_11">
      <text style="font-size: 6.5px; font-family: 'Arial', 'Helvetica', 'DejaVu Sans', sans-serif; text-anchor: end" x="46.509231" y="58.906991" transform="rotate(-0 46.509231 58.906991)">1.5</text>
     </g>
    </g>
    <g id="ytick_5">
     <g id="line2d_11">
      <g>
       <use xlink:href="#mc1b73fbf8f" x="53.009231" y="33.053495" style="stroke: #000000; stroke-width: 0.7"/>
      </g>
     </g>
     <g id="text_12">
      <text style="font-size: 6.5px; font-family: 'Arial', 'Helvetica', 'DejaVu Sans', sans-serif; text-anchor: end" x="46.509231" y="35.522987" transform="rotate(-0 46.509231 35.522987)">2.0</text>
     </g>
    </g>
    <g id="ytick_6">
     <g id="line2d_12">
      <g>
       <use xlink:href="#mc1b73fbf8f" x="53.009231" y="9.669492" style="stroke: #000000; stroke-width: 0.7"/>
      </g>
     </g>
     <g id="text_13">
      <text style="font-size: 6.5px; font-family: 'Arial', 'Helvetica', 'DejaVu Sans', sans-serif; text-anchor: end" x="46.509231" y="12.138984" transform="rotate(-0 46.509231 12.138984)">2.5</text>
     </g>
    </g>
   </g>
   <g id="line2d_13">
    <path d="M 53.009231 126.589508 
L 53.754992 126.589508 
L 54.127872 125.413371 
L 55.246513 125.413371 
L 55.992274 119.430927 
L 56.365154 119.430927 
L 56.738035 114.130603 
L 57.483795 114.130603 
L 57.856676 109.92982 
L 60.839718 109.92982 
L 61.212599 106.310633 
L 61.585479 109.051639 
L 62.70412 109.051639 
L 63.449881 106.433027 
L 63.822761 104.209711 
L 64.195642 99.989913 
L 66.432924 99.989913 
L 66.805804 96.957413 
L 67.178684 96.957413 
L 67.551565 93.402185 
L 68.670206 93.402185 
L 69.043086 84.835883 
L 70.161727 84.835883 
L 70.534607 82.887111 
L 71.280368 82.887111 
L 71.653248 85.854442 
L 77.246454 85.854442 
L 77.619334 82.997681 
L 78.737975 82.997681 
L 79.110855 81.181377 
L 79.483736 81.181377 
L 79.856616 78.822362 
L 83.9583 78.822362 
L 84.704061 76.148255 
L 85.822702 76.148255 
L 86.195582 74.935201 
L 86.568462 71.757954 
L 88.805744 71.757954 
L 89.178625 70.572779 
L 90.297266 70.572779 
L 90.670146 68.560444 
L 94.77183 68.560444 
L 95.14471 70.070366 
L 98.127753 70.070366 
L 98.500633 67.350506 
L 99.992155 67.350506 
L 100.365035 66.041857 
L 100.737915 66.473979 
L 101.110796 66.473979 
L 101.483676 66.701207 
L 102.602317 66.701207 
L 102.975197 65.449879 
L 103.348078 65.449879 
L 103.720958 63.118015 
L 104.093839 63.118015 
L 104.466719 62.150391 
L 108.941283 62.150391 
L 109.314163 58.142702 
L 111.551445 58.142702 
L 111.924326 59.316166 
L 114.907369 59.316166 
L 115.653129 56.820854 
L 118.636172 56.820854 
L 119.009052 54.19357 
L 119.754813 54.19357 
L 120.127693 55.767573 
L 120.500574 53.88069 
L 123.110736 53.88069 
L 123.483617 56.212554 
L 124.229377 56.212554 
L 124.602258 55.441795 
L 130.568343 55.441795 
L 130.941223 53.396955 
L 144.364916 53.396955 
L 144.737796 51.786423 
L 147.347959 51.786423 
L 147.720839 50.646435 
L 151.822523 50.646435 
L 152.195403 50.229861 
L 152.568284 50.229861 
L 152.941164 48.238188 
L 154.805566 48.238188 
L 155.178446 47.801873 
L 155.924207 47.801873 
L 156.297087 48.587867 
L 167.110617 48.587867 
L 167.483497 48.090971 
L 170.46654 48.090971 
L 170.83942 46.413948 
L 171.212301 46.413948 
L 171.585181 43.968201 
L 180.161429 43.968201 
L 180.534309 46.321243 
L 180.90719 46.321243 
L 181.28007 46.494905 
L 182.771592 46.494905 
L 183.144472 45.949374 
L 188.364797 45.949374 
L 188.737677 44.735618 
L 201.415609 44.735618 
L 201.788489 45.521042 
L 212.9749 45.521042 
L 213.34778 45.34699 
L 214.466421 45.34699 
L 214.839301 44.182391 
L 220.432506 44.182391 
L 220.805387 45.642576 
L 239.449404 45.642576 
L 239.449404 45.642576 
" clip-path="url(#p49ad4e29d4)" style="fill: none; stroke: #b8b8b8; stroke-opacity: 0.28; stroke-width: 0.75; stroke-linecap: square"/>
   </g>
   <g id="line2d_14">
    <path d="M 53.009231 126.589508 
L 53.382111 126.589508 
L 53.754992 122.91696 
L 54.127872 113.969025 
L 54.500753 111.552863 
L 54.873633 105.492316 
L 55.246513 101.916608 
L 55.619394 100.330468 
L 57.110915 100.330468 
L 57.856676 97.432459 
L 58.229556 97.432459 
L 58.602436 96.044759 
L 60.466838 96.044759 
L 60.839718 92.980442 
L 61.585479 92.980442 
L 61.958359 91.824063 
L 62.33124 91.824063 
L 62.70412 87.907438 
L 63.077 87.907438 
L 63.449881 87.415847 
L 64.568522 87.415847 
L 65.687163 79.090344 
L 66.060043 77.519438 
L 66.432924 77.519438 
L 66.805804 75.900672 
L 67.178684 71.393388 
L 71.280368 71.393388 
L 71.653248 69.329671 
L 72.399009 69.329671 
L 72.771889 71.118105 
L 73.14477 71.118105 
L 73.51765 69.728714 
L 73.890531 66.769785 
L 77.992214 66.769785 
L 78.365095 65.630544 
L 78.737975 65.630544 
L 79.110855 67.728513 
L 79.483736 67.163946 
L 83.58542 67.163946 
L 83.9583 64.591496 
L 84.33118 66.929771 
L 89.551505 66.929771 
L 89.924385 67.064292 
L 90.297266 64.094129 
L 91.788787 64.094129 
L 92.161667 61.711776 
L 93.653189 61.711776 
L 94.026069 62.554525 
L 95.14471 62.554525 
L 95.517591 61.446455 
L 96.263351 61.446455 
L 96.636232 56.173985 
L 100.737915 56.173985 
L 101.110796 57.103992 
L 102.602317 57.103992 
L 102.975197 56.776205 
L 103.348078 56.776205 
L 103.720958 55.656979 
L 104.093839 55.656979 
L 104.466719 56.991252 
L 104.839599 57.37693 
L 107.076881 57.37693 
L 107.449762 56.297127 
L 108.941283 56.297127 
L 109.314163 53.353608 
L 109.687044 55.833355 
L 110.432804 55.833355 
L 110.805685 59.285438 
L 114.534488 59.285438 
L 114.907369 59.019373 
L 115.280249 56.134294 
L 115.653129 56.134294 
L 116.02601 53.365439 
L 116.39889 54.089164 
L 117.517531 54.089164 
L 117.890411 52.255638 
L 118.636172 52.255638 
L 119.381933 52.975919 
L 124.602258 52.975919 
L 124.975138 52.445888 
L 126.093779 52.445888 
L 126.466659 50.998488 
L 127.958181 50.998488 
L 128.331061 48.865774 
L 130.195463 48.865774 
L 130.568343 47.845465 
L 145.110677 47.845465 
L 145.483557 49.887651 
L 145.856437 48.293045 
L 148.4666 48.293045 
L 148.83948 50.745571 
L 154.059805 50.745571 
L 154.432685 49.062149 
L 157.415728 49.062149 
L 157.788608 47.997866 
L 164.873335 47.997866 
L 165.246215 46.895729 
L 165.991976 46.895729 
L 166.364856 45.278796 
L 168.602138 45.278796 
L 168.975019 44.274934 
L 170.46654 44.274934 
L 170.83942 43.141576 
L 172.330942 43.141576 
L 172.703822 40.920202 
L 178.669908 40.920202 
L 179.042788 40.431695 
L 180.534309 40.431695 
L 180.90719 40.660212 
L 186.500395 40.660212 
L 186.873275 41.650723 
L 190.229198 41.650723 
L 190.602079 40.277999 
L 194.703763 40.277999 
L 195.076643 39.827966 
L 204.771532 39.827966 
L 205.144412 40.939034 
L 208.873216 40.939034 
L 209.246096 40.744438 
L 210.364737 40.744438 
L 210.737617 39.611198 
L 211.110498 39.47074 
L 213.34778 39.47074 
L 213.72066 38.320293 
L 214.466421 38.320293 
L 214.839301 39.453652 
L 216.330823 39.453652 
L 216.703703 38.340392 
L 233.856199 38.340392 
L 234.229079 37.959552 
L 239.449404 37.959552 
L 239.449404 37.959552 
" clip-path="url(#p49ad4e29d4)" style="fill: none; stroke: #b8b8b8; stroke-opacity: 0.28; stroke-width: 0.75; stroke-linecap: square"/>
   </g>
   <g id="line2d_15">
    <path d="M 53.009231 126.589508 
L 53.382111 126.589508 
L 53.754992 125.491451 
L 54.127872 125.491451 
L 54.500753 121.737133 
L 54.873633 121.737133 
L 55.246513 115.276019 
L 55.619394 118.39709 
L 57.483795 118.39709 
L 57.856676 116.419778 
L 58.229556 116.419778 
L 58.602436 115.335329 
L 59.348197 115.335329 
L 59.721077 114.267302 
L 60.093958 111.238581 
L 61.585479 111.238581 
L 61.958359 108.551032 
L 62.70412 108.551032 
L 63.077 104.607868 
L 64.195642 104.607868 
L 64.568522 105.731247 
L 65.687163 105.731247 
L 66.060043 104.424679 
L 66.432924 104.424679 
L 66.805804 104.191713 
L 67.178684 104.191713 
L 67.551565 101.898308 
L 68.670206 101.898308 
L 69.043086 96.255273 
L 70.161727 96.255273 
L 70.534607 92.804531 
L 71.280368 92.804531 
L 71.653248 93.799033 
L 73.14477 93.799033 
L 73.51765 94.704315 
L 77.246454 94.704315 
L 77.619334 91.785814 
L 87.687103 91.785814 
L 88.059984 89.537768 
L 89.551505 89.537768 
L 89.924385 87.574253 
L 90.670146 87.574253 
L 91.043026 87.178117 
L 95.14471 87.178114 
L 95.517591 85.221687 
L 98.873514 85.221687 
L 99.246394 77.383297 
L 99.619274 74.799928 
L 102.229437 74.799928 
L 102.602317 75.605325 
L 104.466719 75.605325 
L 104.839599 78.014741 
L 105.58536 78.014741 
L 105.95824 74.666405 
L 106.704001 72.666355 
L 108.195522 72.666355 
L 108.568403 69.777318 
L 109.687044 69.777318 
L 110.059924 65.021386 
L 110.432804 65.021386 
L 110.805685 64.526999 
L 111.178565 63.419843 
L 117.517531 63.419843 
L 117.890411 66.850504 
L 119.009052 66.850504 
L 119.381933 66.981117 
L 120.127693 66.981117 
L 120.500574 64.858129 
L 123.110736 64.858129 
L 123.483617 63.793418 
L 123.856497 63.793418 
L 124.229377 64.896318 
L 136.534429 64.896318 
L 136.907309 63.839967 
L 137.280189 63.651362 
L 138.02595 63.651362 
L 138.39883 63.053127 
L 141.381873 63.053127 
L 141.754753 64.254057 
L 145.110677 64.254057 
L 145.483557 62.71242 
L 146.229318 62.71242 
L 146.602198 63.836826 
L 152.941164 63.836826 
L 153.314044 62.586636 
L 157.415728 62.586636 
L 157.788608 60.328637 
L 158.534369 60.328637 
L 158.907249 58.154487 
L 160.398771 58.154487 
L 160.771651 60.133547 
L 165.619096 60.133547 
L 165.991976 58.623847 
L 178.297027 58.623847 
L 178.669908 57.287097 
L 179.042788 55.501747 
L 179.788549 55.501747 
L 180.161429 54.414328 
L 183.144472 54.414328 
L 183.517352 53.038981 
L 201.788489 53.038981 
L 202.16137 50.577599 
L 205.144412 50.577599 
L 205.517293 50.442862 
L 216.330823 50.442862 
L 216.703703 49.201587 
L 217.076583 49.201587 
L 217.449464 48.061966 
L 223.042669 48.061966 
L 223.415549 45.624373 
L 225.279951 45.624216 
L 225.652831 43.903571 
L 229.381635 43.903571 
L 229.754515 44.990648 
L 231.618917 44.990648 
L 231.991797 43.897734 
L 233.483319 43.897734 
L 233.856199 43.646862 
L 234.97484 43.646862 
L 235.34772 44.416047 
L 239.449404 44.416047 
L 239.449404 44.416047 
" clip-path="url(#p49ad4e29d4)" style="fill: none; stroke: #b8b8b8; stroke-opacity: 0.28; stroke-width: 0.75; stroke-linecap: square"/>
   </g>
   <g id="line2d_16">
    <path d="M 53.009231 126.589508 
L 53.754992 126.589508 
L 54.127872 124.173921 
L 54.500753 124.173921 
L 54.873633 116.864846 
L 55.992274 116.864846 
L 56.365154 115.142749 
L 56.738035 115.142749 
L 57.110915 111.997559 
L 57.483795 110.759474 
L 58.602436 110.759474 
L 58.975317 105.180434 
L 59.348197 105.180434 
L 59.721077 103.72192 
L 60.466838 98.989191 
L 61.212599 98.989191 
L 61.585479 96.493058 
L 61.958359 92.528422 
L 66.060043 92.528422 
L 66.432924 90.801619 
L 69.788847 90.801619 
L 70.161727 91.036147 
L 71.280368 91.036147 
L 71.653248 88.691464 
L 73.51765 88.691464 
L 73.890531 88.466973 
L 74.636291 88.466973 
L 75.009172 83.935941 
L 76.500693 83.935941 
L 76.873573 84.329926 
L 78.365095 84.329926 
L 78.737975 83.070618 
L 79.110855 83.070618 
L 79.483736 83.738387 
L 79.856616 83.738387 
L 80.229496 82.52714 
L 80.975257 82.52714 
L 81.348137 83.702158 
L 82.839659 83.702158 
L 83.212539 79.257745 
L 84.33118 79.257745 
L 84.704061 77.334611 
L 85.076941 79.747506 
L 85.822702 79.747506 
L 86.568462 72.597939 
L 86.941343 70.935111 
L 87.687103 70.935111 
L 88.059984 69.649377 
L 88.432864 69.649377 
L 88.805744 68.209881 
L 89.551505 68.209881 
L 89.924385 65.501631 
L 90.670146 65.501631 
L 91.043026 64.135871 
L 91.415907 61.16347 
L 91.788787 61.16347 
L 92.161667 58.608237 
L 92.534548 59.846322 
L 95.14471 59.846322 
L 95.517591 60.841513 
L 96.263351 60.841513 
L 96.636232 59.792847 
L 98.127753 59.792847 
L 98.500633 54.122874 
L 99.246394 54.122874 
L 99.619274 55.230877 
L 99.992155 55.230877 
L 100.365035 54.560944 
L 100.737915 52.189316 
L 105.21248 52.189316 
L 105.58536 49.139147 
L 105.95824 48.642053 
L 107.076881 48.642053 
L 107.449762 47.383527 
L 110.059924 47.383527 
L 110.432804 46.145442 
L 117.144651 46.145442 
L 117.517531 46.485799 
L 119.009052 46.485799 
L 119.381933 44.985145 
L 123.856497 44.985145 
L 124.229377 43.905374 
L 125.720899 43.905374 
L 126.093779 42.168852 
L 126.466659 42.168852 
L 126.83954 43.546344 
L 127.5853 43.546344 
L 127.958181 42.009526 
L 130.195463 42.009526 
L 130.568343 42.504235 
L 136.161548 42.504235 
L 136.534429 41.010261 
L 137.65307 41.010261 
L 138.02595 39.586547 
L 141.381873 39.586547 
L 141.754753 38.697008 
L 143.619155 38.697008 
L 143.992036 36.998952 
L 144.364916 37.417766 
L 148.4666 37.417766 
L 148.83948 37.103442 
L 149.21236 37.103442 
L 149.585241 38.228795 
L 151.449642 38.228795 
L 151.822523 39.724512 
L 152.941164 39.724512 
L 153.314044 40.8199 
L 154.059805 40.8199 
L 154.432685 39.7178 
L 156.669967 39.7178 
L 157.042848 41.003535 
L 159.65301 41.003535 
L 160.02589 41.511828 
L 166.364856 41.511828 
L 166.737737 42.845779 
L 167.110617 42.845779 
L 167.483497 41.867229 
L 168.602138 41.867229 
L 168.975019 41.246403 
L 169.720779 41.246403 
L 170.09366 37.758196 
L 177.178386 37.758196 
L 177.551267 40.064254 
L 183.890233 40.064254 
L 184.263113 38.622484 
L 185.381754 38.622484 
L 185.754634 36.220682 
L 196.568164 36.220682 
L 196.941045 32.754704 
L 220.059626 32.754704 
L 220.432506 33.168238 
L 222.669789 33.168238 
L 223.042669 31.677607 
L 225.652831 31.677607 
L 226.025712 31.940984 
L 232.737558 31.940984 
L 233.110438 32.495983 
L 233.483319 32.495983 
L 233.856199 32.98507 
L 236.093481 32.98507 
L 236.466361 31.915225 
L 239.449404 31.915225 
L 239.449404 31.915225 
" clip-path="url(#p49ad4e29d4)" style="fill: none; stroke: #b8b8b8; stroke-opacity: 0.28; stroke-width: 0.75; stroke-linecap: square"/>
   </g>
   <g id="line2d_17">
    <path d="M 53.009231 126.589508 
L 53.754992 126.589508 
L 54.127872 122.403219 
L 54.873633 122.403219 
L 55.246513 115.814869 
L 55.619394 116.096615 
L 56.365154 116.096615 
L 56.738035 108.862878 
L 57.483795 108.862878 
L 58.229556 101.42482 
L 58.975317 96.436658 
L 59.348197 96.436658 
L 59.721077 93.210227 
L 60.466838 93.210227 
L 60.839718 90.924714 
L 61.585479 90.924714 
L 61.958359 88.733384 
L 63.449881 88.784537 
L 63.822761 90.900764 
L 65.314283 90.900764 
L 65.687163 88.250789 
L 66.060043 88.250789 
L 66.432924 86.621189 
L 67.924445 86.621189 
L 68.297325 85.234781 
L 68.670206 84.918259 
L 69.043086 82.334618 
L 72.771889 82.334618 
L 73.14477 80.107635 
L 74.636291 80.107635 
L 75.009172 79.689521 
L 75.382052 76.449389 
L 75.754932 75.248424 
L 79.110855 75.248424 
L 79.483736 75.036347 
L 79.856616 72.583417 
L 80.602377 72.583417 
L 81.348137 68.132921 
L 81.721018 68.132921 
L 82.093898 67.798237 
L 82.466778 67.798237 
L 82.839659 66.747527 
L 85.076941 66.747527 
L 85.449821 67.103161 
L 85.822702 68.09109 
L 86.941343 68.09109 
L 87.314223 66.32746 
L 88.432864 66.32746 
L 88.805744 63.705327 
L 89.178625 62.151482 
L 91.043026 62.151482 
L 91.415907 59.807896 
L 93.280308 59.807896 
L 93.653189 58.72073 
L 94.026069 57.154905 
L 94.39895 57.154905 
L 94.77183 55.91375 
L 95.517591 55.91375 
L 95.890471 54.792277 
L 100.365035 54.792277 
L 100.737915 54.123678 
L 104.839599 54.123678 
L 105.21248 56.607042 
L 105.58536 56.607042 
L 105.95824 56.318408 
L 113.042967 56.424387 
L 113.415847 54.03514 
L 117.144651 54.03514 
L 118.263292 50.430798 
L 123.483617 50.430798 
L 123.856497 49.408217 
L 126.093779 49.408217 
L 126.466659 47.948048 
L 141.008993 47.871709 
L 141.754753 46.649139 
L 148.83948 46.649139 
L 149.21236 45.935597 
L 154.432685 45.935597 
L 154.805566 44.120302 
L 158.161489 44.120302 
L 158.534369 41.650737 
L 160.398771 41.650737 
L 160.771651 40.927218 
L 165.991976 40.927218 
L 166.364856 41.458944 
L 166.737737 40.475763 
L 172.330942 40.475763 
L 172.703822 39.422345 
L 174.195344 39.422345 
L 174.568224 38.050774 
L 177.551267 38.050774 
L 177.924147 37.163886 
L 183.890233 37.163886 
L 184.263113 36.226885 
L 188.364797 36.226885 
L 188.737677 34.752089 
L 204.771532 34.752089 
L 205.144412 33.630616 
L 205.517293 33.630616 
L 205.890173 32.602166 
L 214.466421 32.602166 
L 214.839301 32.300276 
L 223.78843 32.300276 
L 224.16131 31.679212 
L 224.53419 31.679212 
L 224.907071 30.736273 
L 225.652831 30.736273 
L 226.025712 32.159041 
L 228.262994 32.159041 
L 228.635874 30.97977 
L 237.212122 30.97977 
L 237.585002 29.925889 
L 239.449404 29.925889 
L 239.449404 29.925889 
" clip-path="url(#p49ad4e29d4)" style="fill: none; stroke: #b8b8b8; stroke-opacity: 0.28; stroke-width: 0.75; stroke-linecap: square"/>
   </g>
   <g id="line2d_18">
    <path d="M 53.009231 126.589508 
L 53.382111 122.526149 
L 56.738035 122.526149 
L 57.110915 118.850394 
L 57.483795 117.474076 
L 58.229556 117.474076 
L 58.602436 115.991092 
L 58.975317 113.461241 
L 59.348197 113.461241 
L 59.721077 110.534966 
L 60.466838 100.365552 
L 61.585479 91.870965 
L 61.958359 86.544502 
L 62.33124 82.912859 
L 62.70412 82.912859 
L 63.077 81.118443 
L 63.449881 81.118443 
L 63.822761 79.832458 
L 65.314283 79.832458 
L 65.687163 80.210446 
L 66.060043 72.473821 
L 66.432924 72.473821 
L 66.805804 72.879371 
L 67.924445 72.879371 
L 68.297325 70.424334 
L 68.670206 71.025475 
L 69.043086 69.566218 
L 70.907488 69.566218 
L 71.280368 68.304322 
L 71.653248 68.304322 
L 72.026129 64.345775 
L 72.399009 62.232223 
L 73.14477 62.232223 
L 73.51765 60.967823 
L 74.636291 60.967823 
L 75.009172 60.753449 
L 75.754932 60.753449 
L 76.127813 59.357148 
L 76.500693 59.357148 
L 76.873573 57.96557 
L 77.992214 57.96557 
L 78.365095 55.393832 
L 78.737975 55.393832 
L 79.110855 54.041956 
L 82.466778 54.041956 
L 82.839659 49.015574 
L 83.212539 49.015574 
L 83.58542 47.733344 
L 84.704061 47.733344 
L 85.076941 48.522071 
L 85.449821 48.522071 
L 85.822702 45.623291 
L 87.687103 45.623291 
L 88.059984 39.271134 
L 89.551505 39.271134 
L 89.924385 41.979118 
L 96.263351 41.979118 
L 96.636232 39.61624 
L 98.127753 39.61624 
L 98.500633 37.16611 
L 100.737915 37.16611 
L 101.110796 38.269905 
L 105.21248 38.269905 
L 105.58536 37.01137 
L 107.449762 37.01137 
L 107.822642 35.540504 
L 117.144651 35.540504 
L 117.517531 34.30876 
L 119.754813 34.30876 
L 120.127693 37.25387 
L 125.720899 37.25387 
L 126.093779 38.645448 
L 130.195463 38.645448 
L 130.568343 38.142541 
L 132.059864 38.142541 
L 132.432745 36.917235 
L 137.280189 36.917235 
L 137.65307 35.958132 
L 141.754753 35.958132 
L 142.127634 33.941409 
L 144.364916 33.941409 
L 144.737796 33.456985 
L 154.805566 33.456985 
L 155.178446 32.973914 
L 155.551326 33.330007 
L 158.534369 33.330007 
L 158.907249 34.046973 
L 166.737737 34.047359 
L 167.110617 36.029149 
L 178.669908 36.029149 
L 179.042788 36.568895 
L 181.65295 36.568895 
L 182.025831 37.781911 
L 182.771592 37.781911 
L 183.144472 36.522743 
L 196.941045 36.522743 
L 197.313925 35.321548 
L 203.652891 35.321548 
L 204.025771 36.63563 
L 204.398652 36.63563 
L 204.771532 37.678993 
L 208.127455 37.678993 
L 208.500335 37.85289 
L 214.093541 37.85289 
L 214.466421 38.328073 
L 237.957883 38.328073 
L 238.330763 37.94986 
L 239.449404 37.94986 
L 239.449404 37.94986 
" clip-path="url(#p49ad4e29d4)" style="fill: none; stroke: #b8b8b8; stroke-opacity: 0.28; stroke-width: 0.75; stroke-linecap: square"/>
   </g>
   <g id="line2d_19">
    <path d="M 53.009231 126.589508 
L 54.873633 126.589508 
L 55.246513 125.690474 
L 55.619394 125.690474 
L 55.992274 123.747445 
L 56.365154 123.747445 
L 56.738035 120.980562 
L 57.110915 120.12908 
L 57.483795 120.12908 
L 57.856676 115.754531 
L 58.975317 115.754531 
L 59.348197 114.009613 
L 60.093958 114.009613 
L 60.466838 110.364329 
L 60.839718 104.524724 
L 61.958359 104.524724 
L 62.33124 101.697575 
L 63.449881 101.697575 
L 63.822761 100.896264 
L 64.941402 100.896264 
L 65.687163 97.762721 
L 66.060043 97.762721 
L 66.432924 93.539823 
L 67.551565 93.539823 
L 67.924445 92.488838 
L 68.297325 89.594586 
L 69.043086 89.594586 
L 69.415966 88.714154 
L 72.026129 88.714154 
L 72.399009 87.832915 
L 73.51765 87.832915 
L 73.890531 86.246719 
L 75.009172 86.246719 
L 75.382052 84.151685 
L 77.246454 84.151685 
L 77.619334 80.834511 
L 78.365095 80.834511 
L 78.737975 81.733544 
L 79.483736 81.733544 
L 79.856616 78.731172 
L 80.602377 78.731172 
L 80.975257 76.870213 
L 82.093898 76.870213 
L 82.839659 75.275311 
L 83.212539 73.596594 
L 83.58542 73.596594 
L 83.9583 71.429691 
L 84.33118 71.429691 
L 84.704061 69.433604 
L 86.568462 69.433604 
L 86.941343 67.781346 
L 87.314223 67.514382 
L 91.788787 67.514382 
L 92.161667 66.169173 
L 92.534548 66.169173 
L 92.907428 66.957027 
L 95.14471 66.957027 
L 95.517591 64.765407 
L 96.636232 64.765407 
L 97.009112 62.711068 
L 97.381992 61.654968 
L 97.754873 61.654968 
L 98.127753 62.382016 
L 100.737915 62.432505 
L 101.110796 61.825894 
L 105.58536 61.825894 
L 105.95824 58.557182 
L 107.449762 58.557182 
L 107.822642 56.601872 
L 108.195522 56.601872 
L 108.568403 55.352205 
L 111.178565 55.352205 
L 111.551445 56.470064 
L 112.297206 56.470064 
L 112.670086 54.927693 
L 113.042967 54.927693 
L 113.415847 52.820435 
L 114.534488 52.820435 
L 114.907369 53.709694 
L 117.144651 53.709694 
L 117.517531 51.847428 
L 120.873454 51.847428 
L 121.246334 50.129946 
L 121.619215 49.246404 
L 122.737856 49.246404 
L 123.110736 48.043731 
L 125.720899 48.043731 
L 126.093779 49.252416 
L 126.83954 49.252416 
L 127.21242 50.29058 
L 135.042907 50.291331 
L 135.415788 47.960502 
L 137.65307 47.889566 
L 138.02595 48.496177 
L 144.364916 48.496177 
L 144.737796 49.552277 
L 146.602198 49.552277 
L 146.975078 44.607059 
L 150.703882 44.607059 
L 151.076762 45.488297 
L 157.042848 45.488297 
L 157.415728 46.368729 
L 166.737737 46.368729 
L 167.110617 45.040527 
L 170.83942 45.040527 
L 171.212301 43.261442 
L 175.686865 43.261442 
L 176.059745 42.180379 
L 178.297027 42.180379 
L 178.669908 41.097282 
L 181.28007 41.097282 
L 181.65295 40.237082 
L 182.398711 40.237082 
L 182.771592 41.588342 
L 183.517352 41.588342 
L 183.890233 40.488679 
L 190.602079 40.488679 
L 190.974959 38.675932 
L 195.076643 38.675932 
L 195.449523 38.505119 
L 198.059686 38.505119 
L 198.432566 37.656666 
L 231.246036 37.656666 
L 231.618917 36.821108 
L 239.449404 36.821108 
L 239.449404 36.821108 
" clip-path="url(#p49ad4e29d4)" style="fill: none; stroke: #b8b8b8; stroke-opacity: 0.28; stroke-width: 0.75; stroke-linecap: square"/>
   </g>
   <g id="line2d_20">
    <path d="M 53.009231 126.589508 
L 54.873633 126.589508 
L 55.246513 116.815616 
L 55.619394 116.815616 
L 55.992274 111.527603 
L 57.483795 111.527603 
L 57.856676 104.271598 
L 58.229556 104.271598 
L 58.602436 101.81503 
L 60.466838 101.81503 
L 60.839718 103.462547 
L 61.212599 103.462547 
L 61.585479 106.01012 
L 63.077 106.01012 
L 63.449881 100.893183 
L 63.822761 100.893183 
L 64.195642 97.010696 
L 65.314283 97.010696 
L 65.687163 94.099581 
L 66.432924 94.099581 
L 66.805804 93.965393 
L 67.178684 93.965393 
L 67.551565 92.184256 
L 70.161727 92.184256 
L 70.534607 90.99488 
L 71.653248 90.99488 
L 72.026129 89.540141 
L 74.263411 89.540141 
L 74.636291 88.174615 
L 75.382052 88.174615 
L 75.754932 89.620108 
L 77.619334 89.620108 
L 77.992214 88.370858 
L 78.365095 88.370858 
L 78.737975 87.086923 
L 79.110855 84.586729 
L 82.466778 84.586729 
L 82.839659 81.716122 
L 83.212539 81.716122 
L 83.58542 78.959332 
L 84.704061 78.959332 
L 85.076941 77.914769 
L 86.941343 77.914769 
L 87.314223 77.039389 
L 87.687103 76.778519 
L 88.805744 76.778519 
L 89.178625 75.176614 
L 94.026069 75.176614 
L 94.39895 73.546125 
L 95.890471 73.546125 
L 96.263351 68.736387 
L 96.636232 68.736387 
L 97.009112 66.426842 
L 101.110796 66.426842 
L 101.483676 64.810384 
L 102.602317 64.810384 
L 102.975197 64.626126 
L 105.21248 64.626126 
L 105.58536 67.377728 
L 105.95824 67.377728 
L 106.331121 67.007307 
L 106.704001 67.007307 
L 107.076881 63.885757 
L 107.449762 63.885757 
L 107.822642 61.091549 
L 108.195522 59.293435 
L 110.432804 59.293435 
L 110.805685 56.567901 
L 113.415847 56.567901 
L 113.788728 57.851836 
L 116.39889 57.851836 
L 116.77177 55.022285 
L 118.636172 55.101444 
L 119.009052 56.291582 
L 119.754813 56.291582 
L 120.127693 55.015202 
L 120.500574 56.55659 
L 123.856497 56.449888 
L 124.602258 49.120254 
L 126.093779 49.120254 
L 126.466659 50.019757 
L 129.076822 50.019757 
L 129.449702 48.051232 
L 130.941223 48.051232 
L 132.059864 40.246725 
L 132.805625 40.246725 
L 133.178506 39.597768 
L 133.551386 41.147042 
L 133.924266 41.147042 
L 134.297147 40.959719 
L 134.670027 39.190167 
L 135.788668 39.190167 
L 136.161548 38.075619 
L 138.39883 38.075619 
L 138.771711 41.349877 
L 145.483557 41.349877 
L 145.856437 42.249814 
L 150.703882 42.249814 
L 151.076762 40.965879 
L 160.398771 40.965879 
L 160.771651 39.134388 
L 163.008933 39.134388 
L 163.754694 36.512929 
L 179.415668 36.585297 
L 179.788549 38.187202 
L 180.90719 38.187202 
L 181.28007 38.593936 
L 181.65295 38.17765 
L 193.212241 38.17765 
L 193.585122 38.689939 
L 208.127455 38.689939 
L 208.500335 40.157669 
L 214.093541 40.157669 
L 214.466421 40.902981 
L 221.924028 40.902981 
L 222.296908 41.418412 
L 227.890113 41.418412 
L 228.262994 42.801495 
L 235.720601 42.801495 
L 236.093481 40.059708 
L 239.449404 40.059708 
L 239.449404 40.059708 
" clip-path="url(#p49ad4e29d4)" style="fill: none; stroke: #b8b8b8; stroke-opacity: 0.28; stroke-width: 0.75; stroke-linecap: square"/>
   </g>
   <g id="line2d_21">
    <path d="M 53.009231 126.589508 
L 53.382111 122.717964 
L 55.246513 122.717964 
L 55.619394 116.131877 
L 55.992274 116.131877 
L 56.738035 108.088501 
L 57.110915 101.691042 
L 57.483795 101.691042 
L 57.856676 95.364833 
L 58.602436 95.364833 
L 58.975317 91.404753 
L 59.348197 82.737508 
L 59.721077 83.274774 
L 60.093958 80.032211 
L 64.568522 80.032211 
L 65.314283 77.005259 
L 67.178684 77.005259 
L 67.551565 72.576293 
L 67.924445 70.366751 
L 68.297325 70.366751 
L 68.670206 67.322981 
L 69.788847 67.322981 
L 70.161727 65.206038 
L 70.907488 65.206038 
L 71.280368 63.519802 
L 71.653248 63.82719 
L 72.026129 63.82719 
L 72.399009 63.452685 
L 75.382052 63.452685 
L 75.754932 63.040802 
L 76.127813 63.040802 
L 76.500693 60.294876 
L 76.873573 59.056951 
L 79.856616 59.056951 
L 80.229496 55.178577 
L 80.602377 55.178577 
L 80.975257 53.930597 
L 84.33118 53.930597 
L 84.704061 52.503758 
L 85.822702 52.503758 
L 86.195582 51.1293 
L 87.314223 51.1293 
L 87.687103 49.402265 
L 88.432864 49.402265 
L 88.805744 47.465801 
L 89.924385 47.465801 
L 90.297266 48.19147 
L 94.77183 48.19147 
L 95.14471 44.681426 
L 97.009112 44.681426 
L 97.381992 44.039713 
L 99.246394 44.039713 
L 99.619274 42.562195 
L 99.992155 42.562195 
L 100.365035 43.925007 
L 100.737915 42.710261 
L 104.466719 42.710261 
L 104.839599 41.999813 
L 106.331121 41.999813 
L 106.704001 41.015628 
L 110.432804 41.015628 
L 110.805685 40.155102 
L 117.144651 40.155102 
L 117.517531 38.906267 
L 118.636172 38.906267 
L 119.009052 38.747367 
L 119.754813 38.747367 
L 120.127693 37.083178 
L 120.873454 37.083178 
L 121.246334 39.213819 
L 121.619215 39.213819 
L 121.992095 39.070158 
L 126.093779 39.070158 
L 126.466659 42.171287 
L 133.551386 42.171287 
L 133.924266 40.48335 
L 140.636112 40.48335 
L 141.008993 40.772737 
L 146.602198 40.772737 
L 146.975078 39.755367 
L 168.602138 39.755367 
L 168.975019 40.044448 
L 172.703822 40.044448 
L 173.076703 37.601896 
L 185.754634 37.601896 
L 186.127515 36.346046 
L 186.500395 35.780558 
L 201.042728 35.780558 
L 201.415609 35.258707 
L 214.093541 35.258707 
L 214.466421 36.480093 
L 239.449404 36.480093 
L 239.449404 36.480093 
" clip-path="url(#p49ad4e29d4)" style="fill: none; stroke: #b8b8b8; stroke-opacity: 0.28; stroke-width: 0.75; stroke-linecap: square"/>
   </g>
   <g id="line2d_22">
    <path d="M 53.009231 126.589508 
L 53.382111 120.502926 
L 53.754992 120.502926 
L 54.127872 118.816764 
L 54.500753 118.956246 
L 55.992274 118.956246 
L 56.365154 111.046492 
L 56.738035 107.372972 
L 57.110915 107.372972 
L 57.483795 103.918951 
L 58.602436 103.918951 
L 58.975317 97.490035 
L 59.348197 94.119138 
L 59.721077 94.119138 
L 60.093958 83.72861 
L 60.466838 85.595354 
L 60.839718 85.595354 
L 61.212599 81.079477 
L 61.585479 81.079477 
L 61.958359 79.918245 
L 62.33124 76.462514 
L 66.060043 76.462514 
L 66.432924 75.314984 
L 66.805804 72.759352 
L 67.178684 71.608308 
L 69.043086 71.608308 
L 69.415966 68.784063 
L 72.399009 68.784063 
L 72.771889 67.695057 
L 75.009172 67.695057 
L 75.382052 68.935015 
L 76.873573 68.935015 
L 77.246454 64.453403 
L 77.992214 64.453403 
L 78.365095 62.481396 
L 79.483736 62.481396 
L 79.856616 63.515893 
L 80.229496 62.399284 
L 80.602377 62.399284 
L 80.975257 66.362739 
L 81.348137 64.685273 
L 81.721018 64.685273 
L 82.093898 62.496386 
L 86.941343 62.496386 
L 87.314223 62.117228 
L 94.39895 62.117228 
L 94.77183 63.12868 
L 95.14471 61.835003 
L 95.517591 59.417145 
L 95.890471 59.417145 
L 96.263351 56.95175 
L 99.246394 56.95175 
L 99.619274 55.302913 
L 99.992155 54.985005 
L 102.229437 54.985005 
L 102.602317 53.537778 
L 104.839599 53.537778 
L 105.21248 52.579378 
L 111.924326 52.579378 
L 112.297206 53.03752 
L 112.670086 51.885628 
L 120.873454 51.885628 
L 121.246334 50.734284 
L 124.975138 50.734284 
L 125.348018 49.53454 
L 125.720899 49.186621 
L 126.093779 49.36066 
L 129.076822 49.36066 
L 129.449702 47.966057 
L 132.432745 47.966057 
L 132.805625 51.902449 
L 136.534429 51.902449 
L 136.907309 49.437875 
L 142.500514 49.437875 
L 142.873395 47.576104 
L 146.975078 47.576104 
L 147.347959 45.384702 
L 147.720839 44.522592 
L 150.331001 44.522592 
L 150.703882 43.365871 
L 152.568284 43.365871 
L 152.941164 43.527489 
L 155.551326 43.527489 
L 155.924207 45.269672 
L 156.669967 45.269672 
L 157.042848 44.621585 
L 158.907249 44.621585 
L 159.28013 43.333381 
L 164.127574 43.324704 
L 164.500455 42.979006 
L 175.686865 42.955833 
L 176.059745 41.731474 
L 179.042788 41.731474 
L 179.415668 40.58043 
L 179.788549 41.546955 
L 180.161429 41.239426 
L 182.398711 41.239426 
L 182.771592 40.122065 
L 183.517352 42.020098 
L 189.110557 42.020098 
L 189.483438 39.395159 
L 189.856318 38.040464 
L 190.974959 38.040464 
L 191.347839 36.770432 
L 195.449523 36.770096 
L 195.822404 36.247711 
L 197.686805 36.159609 
L 198.059686 35.064602 
L 214.093541 35.064602 
L 214.466421 33.917693 
L 217.076583 33.917693 
L 217.449464 31.961497 
L 218.940985 31.961497 
L 219.313865 31.57225 
L 222.296908 31.57225 
L 222.669789 30.919622 
L 223.415549 30.919622 
L 223.78843 33.362191 
L 235.720601 33.362191 
L 236.093481 31.813002 
L 239.449404 31.813002 
L 239.449404 31.813002 
" clip-path="url(#p49ad4e29d4)" style="fill: none; stroke: #b8b8b8; stroke-opacity: 0.28; stroke-width: 0.75; stroke-linecap: square"/>
   </g>
   <g id="line2d_23">
    <path d="M 53.009231 126.589508 
L 53.382111 125.722741 
L 54.127872 125.722741 
L 54.500753 123.700804 
L 54.873633 123.700804 
L 55.246513 121.435589 
L 56.365154 121.435589 
L 56.738035 120.510458 
L 58.229556 120.510458 
L 58.602436 119.579198 
L 58.975317 119.579198 
L 59.348197 115.685182 
L 59.721077 115.742314 
L 60.093958 110.724547 
L 60.839718 110.724547 
L 61.212599 108.612696 
L 62.70412 108.612696 
L 63.077 107.37542 
L 63.449881 107.37542 
L 63.822761 103.297796 
L 64.568522 103.297796 
L 65.314283 94.789583 
L 67.551565 94.789583 
L 67.924445 90.894102 
L 68.297325 89.991808 
L 68.670206 89.991808 
L 69.043086 87.265251 
L 69.415966 85.488789 
L 69.788847 85.488789 
L 70.161727 80.726417 
L 70.907488 80.726417 
L 71.280368 79.79228 
L 71.653248 79.79228 
L 72.026129 78.880263 
L 74.636291 78.880263 
L 75.009172 75.052801 
L 76.500693 75.052801 
L 76.873573 74.159136 
L 78.737975 74.159136 
L 79.110855 72.720888 
L 79.483736 67.01378 
L 80.229496 67.01378 
L 80.602377 65.64916 
L 81.348137 65.64916 
L 81.721018 66.457311 
L 82.466778 66.457311 
L 82.839659 63.055701 
L 83.9583 63.055701 
L 84.33118 61.898993 
L 85.822702 61.898993 
L 86.195582 57.905823 
L 86.568462 57.905823 
L 86.941343 57.004203 
L 87.314223 57.004203 
L 87.687103 56.790368 
L 92.161667 56.790368 
L 92.534548 59.42083 
L 92.907428 59.42083 
L 93.280308 57.40495 
L 93.653189 54.182245 
L 94.026069 49.939922 
L 94.39895 50.61196 
L 97.009112 50.61196 
L 97.381992 52.146529 
L 97.754873 52.866228 
L 98.127753 51.062993 
L 98.873514 51.062993 
L 99.246394 47.204144 
L 99.619274 47.204144 
L 99.992155 44.495963 
L 102.975197 44.495963 
L 103.348078 40.616077 
L 104.839599 40.616077 
L 105.21248 41.438722 
L 105.95824 41.438722 
L 106.331121 42.191841 
L 107.449762 42.191841 
L 107.822642 44.000605 
L 108.195522 44.931865 
L 108.568403 42.915985 
L 110.059924 42.915985 
L 110.432804 42.544332 
L 110.805685 41.989767 
L 111.178565 42.747067 
L 113.415847 42.747067 
L 113.788728 41.834559 
L 114.161608 41.759771 
L 114.534488 41.232836 
L 114.907369 40.033065 
L 115.280249 40.033065 
L 116.02601 38.372615 
L 117.144651 38.372615 
L 117.517531 37.110058 
L 119.754813 37.110058 
L 120.127693 32.999605 
L 121.992095 32.999605 
L 122.364975 30.186989 
L 124.229377 30.23673 
L 124.602258 31.187583 
L 125.720899 31.187583 
L 126.093779 29.853176 
L 127.5853 29.853176 
L 127.958181 32.214511 
L 130.568343 32.214511 
L 130.941223 31.78316 
L 132.432745 31.78316 
L 132.805625 27.259242 
L 133.178506 26.129581 
L 133.924266 26.129581 
L 134.297147 26.644165 
L 140.263232 26.644165 
L 140.636112 25.388106 
L 141.008993 25.600868 
L 143.992036 25.600868 
L 144.364916 22.36343 
L 144.737796 22.36343 
L 145.110677 18.386742 
L 145.483557 17.576198 
L 146.229318 17.576198 
L 146.602198 17.065163 
L 147.720839 17.065163 
L 148.4666 16.950834 
L 150.331001 16.950834 
L 150.703882 15.892927 
L 153.686925 15.892927 
L 154.059805 14.875116 
L 161.890292 14.875116 
L 162.263172 16.41219 
L 162.636053 16.18834 
L 171.958061 16.18834 
L 172.330942 17.122477 
L 176.059745 17.122477 
L 176.432626 17.432927 
L 180.161429 17.432927 
L 180.534309 16.161792 
L 188.364797 16.161792 
L 188.737677 15.97801 
L 194.330882 15.97801 
L 194.703763 16.463293 
L 196.568164 16.463293 
L 196.941045 16.78508 
L 199.551207 16.78508 
L 199.924087 15.873062 
L 226.771472 15.873062 
L 227.144353 16.396557 
L 229.754515 16.396557 
L 230.127395 15.481609 
L 239.449404 15.482024 
L 239.449404 15.482024 
" clip-path="url(#p49ad4e29d4)" style="fill: none; stroke: #b8b8b8; stroke-opacity: 0.28; stroke-width: 0.75; stroke-linecap: square"/>
   </g>
   <g id="line2d_24">
    <path d="M 53.009231 126.589508 
L 53.382111 126.589508 
L 53.754992 123.635088 
L 54.500753 123.635088 
L 54.873633 121.118444 
L 55.246513 121.118444 
L 55.619394 118.918441 
L 55.992274 118.918441 
L 56.365154 116.941111 
L 56.738035 109.675937 
L 57.110915 109.675937 
L 57.856676 104.913453 
L 58.229556 103.947421 
L 58.602436 103.947421 
L 58.975317 105.014704 
L 59.348197 96.969882 
L 59.721077 94.533735 
L 60.093958 90.825882 
L 60.466838 93.35826 
L 60.839718 93.35826 
L 61.585479 91.173172 
L 61.958359 88.821161 
L 62.33124 87.842292 
L 63.822761 87.842292 
L 64.195642 84.490989 
L 64.568522 84.490989 
L 64.941402 80.46619 
L 67.924445 80.46619 
L 68.297325 80.882996 
L 69.043086 80.882996 
L 69.788847 77.101209 
L 73.14477 77.101209 
L 73.51765 74.281171 
L 73.890531 75.608351 
L 74.263411 75.608351 
L 74.636291 74.212384 
L 76.500693 74.212384 
L 76.873573 71.29423 
L 77.246454 72.511034 
L 77.992214 72.511034 
L 78.365095 71.160869 
L 78.737975 67.172932 
L 79.483736 67.172932 
L 79.856616 66.286172 
L 80.229496 66.286172 
L 80.602377 64.848143 
L 87.687103 64.848143 
L 88.059984 67.491316 
L 89.178625 67.491316 
L 89.551505 68.289413 
L 90.297266 68.289413 
L 90.670146 66.088773 
L 91.043026 66.088773 
L 91.415907 63.812864 
L 97.754873 63.812864 
L 98.127753 62.746226 
L 98.500633 63.385963 
L 98.873514 63.261628 
L 99.246394 63.261628 
L 99.619274 62.277427 
L 100.737915 62.277427 
L 101.483676 55.762483 
L 102.975197 55.762483 
L 103.348078 52.782309 
L 103.720958 57.169687 
L 104.466719 57.169687 
L 104.839599 58.174214 
L 107.822642 58.174214 
L 108.195522 56.235043 
L 110.059924 56.235043 
L 110.432804 56.762838 
L 114.907369 56.762838 
L 115.280249 55.778637 
L 115.653129 52.907124 
L 120.500574 52.907124 
L 120.873454 53.59797 
L 124.229377 53.59797 
L 124.602258 50.342361 
L 124.975138 51.152877 
L 127.21242 51.152877 
L 127.5853 50.639035 
L 129.449702 50.639035 
L 129.822582 49.543309 
L 130.941223 49.543309 
L 131.314104 48.555852 
L 133.178506 48.555852 
L 133.551386 49.889524 
L 134.297147 49.889524 
L 134.670027 49.296386 
L 138.02595 49.296386 
L 138.39883 48.305798 
L 140.263232 48.305798 
L 140.636112 46.414259 
L 142.127634 46.414259 
L 142.500514 44.245688 
L 143.246275 44.245688 
L 143.619155 45.966152 
L 144.364916 45.966152 
L 144.737796 47.197525 
L 148.093719 47.197525 
L 148.83948 45.540139 
L 151.449642 45.540139 
L 151.822523 46.890303 
L 155.178446 46.890303 
L 155.551326 45.295517 
L 157.042848 45.295517 
L 157.415728 42.092525 
L 158.534369 42.092525 
L 158.907249 41.84893 
L 159.65301 41.84893 
L 160.02589 44.164244 
L 164.500455 44.164244 
L 164.873335 43.201344 
L 175.313985 43.201344 
L 175.686865 44.185545 
L 178.297027 44.185545 
L 179.042788 42.747597 
L 183.144472 42.747597 
L 183.517352 41.769637 
L 196.568164 41.769637 
L 196.941045 42.526036 
L 198.432566 42.526036 
L 198.805446 43.32307 
L 208.500335 43.32307 
L 208.873216 42.096283 
L 210.364737 42.096283 
L 210.737617 43.080658 
L 224.907071 43.113938 
L 225.279951 42.140729 
L 229.008754 42.140729 
L 229.381635 41.155803 
L 232.737558 41.155803 
L 233.110438 41.385922 
L 239.449404 41.385922 
L 239.449404 41.385922 
" clip-path="url(#p49ad4e29d4)" style="fill: none; stroke: #b8b8b8; stroke-opacity: 0.28; stroke-width: 0.75; stroke-linecap: square"/>
   </g>
   <g id="line2d_25">
    <path d="M 53.009231 126.589508 
L 53.382111 126.589508 
L 53.754992 125.512966 
L 54.127872 125.512966 
L 54.500753 124.482157 
L 54.873633 124.482157 
L 55.619394 122.24371 
L 55.992274 119.670135 
L 56.738035 119.670135 
L 57.110915 115.417801 
L 57.856676 115.417801 
L 58.229556 112.636019 
L 58.602436 108.917195 
L 60.093958 108.917195 
L 60.466838 104.645402 
L 60.839718 104.645402 
L 61.585479 101.630867 
L 62.70412 101.630867 
L 63.077 105.34969 
L 63.449881 105.34969 
L 63.822761 100.694902 
L 64.195642 100.694902 
L 64.568522 99.62702 
L 64.941402 99.62702 
L 65.314283 96.499237 
L 66.432924 96.499237 
L 66.805804 96.280457 
L 67.178684 92.007116 
L 67.551565 92.007116 
L 67.924445 91.717718 
L 70.534607 91.717718 
L 70.907488 90.553229 
L 71.280368 90.553229 
L 71.653248 88.021077 
L 72.026129 88.021077 
L 72.399009 89.036315 
L 72.771889 87.985112 
L 73.14477 87.985112 
L 73.51765 84.951935 
L 75.754932 84.951935 
L 76.127813 83.479347 
L 77.992214 83.479347 
L 78.365095 82.400102 
L 78.737975 81.894206 
L 80.602377 81.894206 
L 80.975257 79.441915 
L 83.212539 79.441915 
L 83.58542 77.07319 
L 86.568462 77.07319 
L 86.941343 76.147574 
L 88.805744 76.250393 
L 89.178625 77.358066 
L 89.551505 77.896998 
L 89.924385 76.167921 
L 90.670146 76.167921 
L 91.043026 75.371464 
L 92.907428 75.371464 
L 93.280308 74.925732 
L 93.653189 74.925732 
L 94.026069 76.25695 
L 100.365035 76.25695 
L 100.737915 75.203108 
L 102.975197 75.203108 
L 103.348078 74.172158 
L 106.331121 74.172299 
L 106.704001 73.101073 
L 115.653129 73.101073 
L 116.02601 72.316267 
L 117.890411 72.316267 
L 118.263292 70.849283 
L 119.381933 70.849283 
L 119.754813 69.957253 
L 120.873454 69.957253 
L 121.246334 70.112237 
L 121.619215 70.112237 
L 121.992095 69.06143 
L 126.093779 69.06143 
L 126.466659 67.499805 
L 127.21242 65.433211 
L 135.415788 65.433211 
L 135.788668 64.415443 
L 145.110677 64.415443 
L 145.483557 63.386799 
L 152.195403 63.386799 
L 152.568284 62.477841 
L 154.805566 62.477841 
L 155.178446 63.528648 
L 158.534369 63.528648 
L 158.907249 64.734878 
L 163.381814 64.734878 
L 163.754694 62.656042 
L 164.127574 62.656042 
L 164.500455 61.173819 
L 165.619096 61.173819 
L 165.991976 62.521997 
L 166.364856 62.521997 
L 166.737737 64.096873 
L 176.805506 64.096873 
L 177.178386 63.026377 
L 185.008874 63.026377 
L 185.381754 60.679521 
L 185.754634 61.787194 
L 201.415609 61.787194 
L 201.788489 60.993472 
L 223.042669 60.993472 
L 223.415549 59.94528 
L 229.754515 59.94528 
L 230.127395 57.234208 
L 231.991797 57.234208 
L 232.364678 56.982598 
L 232.737558 55.782278 
L 239.449404 55.782278 
L 239.449404 55.782278 
" clip-path="url(#p49ad4e29d4)" style="fill: none; stroke: #b8b8b8; stroke-opacity: 0.28; stroke-width: 0.75; stroke-linecap: square"/>
   </g>
   <g id="line2d_26">
    <path d="M 53.009231 126.589508 
L 54.873633 126.589508 
L 55.619394 116.236321 
L 56.738035 116.236321 
L 57.110915 115.128171 
L 57.483795 113.504869 
L 58.975317 113.504869 
L 59.348197 111.262788 
L 59.721077 111.262788 
L 60.093958 109.041369 
L 60.839718 109.041369 
L 61.212599 103.01007 
L 61.585479 103.01007 
L 61.958359 98.597661 
L 62.33124 96.843145 
L 65.314283 96.843145 
L 65.687163 95.620132 
L 66.060043 95.620132 
L 66.432924 90.089772 
L 66.805804 87.415595 
L 68.297325 87.415595 
L 68.670206 84.869661 
L 69.043086 83.198044 
L 69.415966 83.198044 
L 69.788847 81.467044 
L 71.280368 81.467044 
L 71.653248 81.348931 
L 72.399009 81.348931 
L 72.771889 78.807693 
L 73.14477 78.807693 
L 73.51765 75.874479 
L 74.636291 75.874479 
L 75.009172 74.849309 
L 76.127813 74.849309 
L 76.500693 75.306253 
L 76.873573 74.928689 
L 77.619334 74.928689 
L 77.992214 73.794993 
L 78.365095 73.794993 
L 78.737975 74.148932 
L 80.602377 74.148932 
L 80.975257 69.17812 
L 83.58542 69.17812 
L 83.9583 66.959938 
L 86.941343 66.959938 
L 87.314223 65.379062 
L 88.059984 65.379062 
L 88.432864 63.849172 
L 90.670146 63.849172 
L 91.043026 63.164177 
L 91.415907 65.293056 
L 93.280308 65.293056 
L 93.653189 62.102029 
L 98.127753 62.102029 
L 98.500633 59.046473 
L 98.873514 59.046473 
L 99.619274 56.478623 
L 99.992155 55.852397 
L 100.365035 55.852397 
L 100.737915 54.540024 
L 102.229437 54.540024 
L 102.975197 54.428242 
L 103.348078 54.428242 
L 103.720958 55.207281 
L 104.839599 55.207281 
L 105.21248 53.53728 
L 115.280249 53.53728 
L 115.653129 50.814933 
L 117.517531 50.814933 
L 117.890411 50.119489 
L 118.263292 49.012066 
L 119.009052 49.012066 
L 119.381933 48.231376 
L 121.992095 48.231376 
L 122.364975 47.121131 
L 129.076822 47.121131 
L 129.449702 44.430655 
L 133.924266 44.430655 
L 134.297147 43.075568 
L 137.65307 43.075568 
L 138.02595 40.450574 
L 139.517471 40.450574 
L 139.890352 38.932128 
L 143.619155 38.932128 
L 143.992036 38.060351 
L 148.093719 38.060351 
L 148.4666 39.660875 
L 150.703882 39.660875 
L 151.076762 38.516475 
L 151.822523 38.516475 
L 152.195403 36.990903 
L 155.178446 36.990903 
L 155.551326 37.208733 
L 166.364856 37.208733 
L 166.737737 38.764701 
L 167.110617 38.764701 
L 167.483497 36.591974 
L 171.958061 36.591974 
L 172.330942 35.490549 
L 176.432626 35.490549 
L 176.805506 34.424013 
L 191.72072 34.424013 
L 192.0936 33.296196 
L 194.330882 33.296196 
L 194.703763 34.432448 
L 199.551207 34.432448 
L 199.924087 35.00771 
L 201.042728 35.00771 
L 201.415609 34.317739 
L 218.568105 34.317739 
L 218.940985 35.62633 
L 219.686746 35.62633 
L 220.059626 34.519287 
L 221.551148 34.519287 
L 221.924028 33.091541 
L 225.279951 33.091541 
L 225.652831 33.777592 
L 232.737558 33.777592 
L 233.110438 35.202733 
L 239.449404 35.202733 
L 239.449404 35.202733 
" clip-path="url(#p49ad4e29d4)" style="fill: none; stroke: #b8b8b8; stroke-opacity: 0.28; stroke-width: 0.75; stroke-linecap: square"/>
   </g>
   <g id="line2d_27">
    <path d="M 53.009231 126.589508 
L 53.754992 120.136139 
L 54.500753 120.136139 
L 54.873633 115.42939 
L 55.246513 115.42939 
L 55.992274 108.018862 
L 56.738035 108.018862 
L 57.110915 103.519504 
L 57.483795 102.041103 
L 58.602436 102.041103 
L 58.975317 100.979106 
L 61.212599 100.979106 
L 61.958359 96.46821 
L 62.33124 95.382944 
L 63.822761 95.320566 
L 64.195642 92.785957 
L 64.568522 87.611026 
L 64.941402 86.557328 
L 65.314283 86.557328 
L 65.687163 88.399746 
L 66.805804 88.399746 
L 67.178684 89.139241 
L 67.551565 89.139241 
L 67.924445 86.790656 
L 68.297325 86.218324 
L 68.670206 84.716738 
L 69.043086 84.716738 
L 69.415966 83.628636 
L 70.161727 83.628636 
L 70.534607 81.395404 
L 71.280368 81.395404 
L 71.653248 77.743248 
L 72.026129 77.743248 
L 72.399009 73.019232 
L 73.51765 73.019232 
L 73.890531 69.448163 
L 76.500693 69.46613 
L 76.873573 69.937036 
L 77.246454 69.202311 
L 79.110855 69.202311 
L 79.483736 68.038051 
L 81.348137 68.038051 
L 81.721018 66.950685 
L 83.58542 66.950685 
L 83.9583 64.352771 
L 84.33118 64.041464 
L 85.076941 64.041464 
L 85.449821 62.774946 
L 87.314223 62.774946 
L 87.687103 61.260068 
L 98.500633 61.260068 
L 98.873514 58.817961 
L 100.365035 58.817961 
L 100.737915 58.517264 
L 101.483676 58.517264 
L 101.856556 55.423032 
L 103.720958 55.423032 
L 104.093839 53.928484 
L 105.95824 53.928484 
L 106.331121 52.864104 
L 111.178565 52.864104 
L 111.551445 51.733364 
L 112.670086 51.733364 
L 113.042967 52.425548 
L 114.534488 52.425548 
L 114.907369 51.726806 
L 115.280249 51.726806 
L 115.653129 50.756744 
L 116.02601 48.581028 
L 116.39889 47.163501 
L 117.890411 47.163501 
L 118.263292 48.311576 
L 120.873454 48.311576 
L 121.246334 47.161292 
L 124.229377 47.161292 
L 124.975138 44.691563 
L 125.720899 44.691563 
L 126.466659 42.360655 
L 127.21242 42.360655 
L 127.5853 43.425034 
L 130.195463 43.425034 
L 130.568343 42.337602 
L 134.297147 42.337602 
L 134.670027 38.928063 
L 142.873395 38.907058 
L 143.246275 39.52088 
L 145.110677 39.52088 
L 145.483557 38.8765 
L 148.4666 38.8765 
L 148.83948 36.358835 
L 154.059805 36.358835 
L 154.432685 35.729251 
L 155.178446 35.729251 
L 155.551326 33.588674 
L 163.754694 33.588674 
L 164.127574 35.081485 
L 165.991976 35.081485 
L 166.364856 33.841095 
L 177.924147 33.841095 
L 178.297027 35.483901 
L 181.65295 35.483901 
L 182.398711 33.231079 
L 183.517352 33.231079 
L 183.890233 34.898955 
L 184.635993 34.898955 
L 185.008874 33.756167 
L 187.246156 33.756167 
L 187.619036 32.076895 
L 188.364797 32.076895 
L 188.737677 33.353792 
L 190.229198 33.353792 
L 190.602079 34.323854 
L 199.924087 34.323854 
L 200.296968 35.012445 
L 208.873216 35.012445 
L 209.246096 33.861424 
L 217.822344 33.861424 
L 218.195224 33.441589 
L 221.551148 33.441589 
L 221.924028 31.249307 
L 239.449404 31.249307 
L 239.449404 31.249307 
" clip-path="url(#p49ad4e29d4)" style="fill: none; stroke: #b8b8b8; stroke-opacity: 0.28; stroke-width: 0.75; stroke-linecap: square"/>
   </g>
   <g id="line2d_28">
    <path d="M 53.009231 126.589508 
L 54.127872 126.589508 
L 54.500753 120.451515 
L 55.992274 120.451515 
L 56.365154 122.747667 
L 56.738035 119.379358 
L 57.110915 117.054119 
L 57.483795 116.401741 
L 58.229556 116.401741 
L 58.975317 113.955082 
L 60.839718 113.955082 
L 61.212599 105.172287 
L 63.077 105.172287 
L 63.449881 103.641528 
L 64.568522 103.641528 
L 65.314283 100.581384 
L 66.060043 100.581384 
L 66.432924 98.577121 
L 67.178684 98.577121 
L 67.551565 96.915472 
L 68.297325 96.915472 
L 68.670206 95.239735 
L 69.415966 95.239735 
L 69.788847 92.010762 
L 70.161727 90.947279 
L 70.534607 90.947279 
L 70.907488 90.644087 
L 72.771889 90.644087 
L 73.14477 90.220911 
L 74.636291 90.220911 
L 75.009172 86.85417 
L 75.382052 86.85417 
L 75.754932 85.828414 
L 78.737975 85.828414 
L 79.110855 84.015978 
L 80.229496 84.015978 
L 80.602377 81.287549 
L 82.839659 81.287549 
L 83.212539 76.459067 
L 84.704061 76.459067 
L 85.449821 74.196361 
L 86.941343 74.196361 
L 87.314223 74.868894 
L 88.059984 74.868894 
L 88.432864 72.816375 
L 88.805744 69.914372 
L 96.636232 69.914372 
L 97.009112 72.93476 
L 97.754873 72.93476 
L 98.127753 72.273034 
L 98.873514 72.273034 
L 99.246394 71.438098 
L 99.619274 71.438098 
L 99.992155 69.053305 
L 100.365035 68.040202 
L 102.229437 68.040202 
L 102.602317 69.103684 
L 102.975197 69.103684 
L 103.348078 67.906964 
L 103.720958 67.339768 
L 104.093839 67.339768 
L 104.466719 66.329549 
L 105.21248 66.329549 
L 105.58536 65.674453 
L 111.924326 65.674453 
L 112.297206 63.884862 
L 112.670086 62.645204 
L 113.415847 62.645204 
L 113.788728 58.880907 
L 114.534488 58.956948 
L 115.653129 58.956948 
L 116.02601 57.967614 
L 117.517531 57.967614 
L 117.890411 57.498436 
L 119.381933 57.498436 
L 119.754813 58.066395 
L 120.873454 58.066395 
L 121.246334 57.324893 
L 124.975138 57.324893 
L 125.348018 55.107584 
L 132.432745 55.107584 
L 132.805625 52.765095 
L 133.178506 53.710738 
L 133.551386 51.584847 
L 135.415788 51.584847 
L 135.788668 52.7246 
L 137.65307 52.7246 
L 138.02595 51.661118 
L 143.992036 51.661118 
L 144.364916 50.577212 
L 145.110677 50.577212 
L 145.483557 48.252787 
L 146.602198 48.252787 
L 146.975078 47.186686 
L 148.4666 47.186686 
L 148.83948 46.341581 
L 149.958121 46.341581 
L 150.331001 45.20089 
L 152.568284 45.20089 
L 152.941164 47.783016 
L 157.042848 47.783016 
L 157.415728 48.943839 
L 157.788608 48.524849 
L 161.517412 48.554761 
L 161.890292 47.399227 
L 164.500455 47.399227 
L 164.873335 47.018036 
L 165.246215 47.018036 
L 165.619096 45.991462 
L 168.602138 45.991462 
L 168.975019 47.340957 
L 173.076703 47.340957 
L 173.449583 48.361673 
L 176.059745 48.361673 
L 176.432626 48.492452 
L 184.263113 48.492452 
L 184.635993 45.855404 
L 195.822404 45.855404 
L 196.195284 47.093655 
L 201.788489 47.093655 
L 202.16137 46.077727 
L 202.90713 46.077727 
L 203.280011 41.399558 
L 203.652891 40.496134 
L 204.398652 40.496134 
L 204.771532 41.311098 
L 209.991857 41.311098 
L 210.364737 41.815618 
L 210.737617 41.403322 
L 214.093541 41.403322 
L 214.466421 40.256276 
L 220.432506 40.256276 
L 220.805387 38.180818 
L 233.110438 38.180818 
L 233.483319 38.730317 
L 235.34772 38.730317 
L 235.720601 39.140691 
L 237.957883 39.140691 
L 238.330763 38.950313 
L 239.449404 38.950313 
L 239.449404 38.950313 
" clip-path="url(#p49ad4e29d4)" style="fill: none; stroke: #b8b8b8; stroke-opacity: 0.28; stroke-width: 0.75; stroke-linecap: square"/>
   </g>
   <g id="line2d_29">
    <path d="M 53.009231 126.589508 
L 54.500753 126.589508 
L 54.873633 125.322837 
L 55.246513 125.322837 
L 55.619394 109.910962 
L 55.992274 109.910962 
L 56.365154 103.442569 
L 56.738035 103.442569 
L 57.483795 100.905926 
L 57.856676 99.25078 
L 58.602436 99.25078 
L 58.975317 92.547273 
L 59.348197 93.068173 
L 60.093958 93.068173 
L 60.466838 91.817899 
L 62.33124 91.817899 
L 62.70412 87.230396 
L 63.449881 87.230396 
L 63.822761 85.999532 
L 64.195642 85.999532 
L 64.568522 83.300012 
L 69.043086 83.300012 
L 69.415966 81.547914 
L 69.788847 77.926532 
L 70.907488 77.926532 
L 71.280368 76.659719 
L 71.653248 73.780808 
L 72.026129 73.780808 
L 72.399009 72.170046 
L 74.263411 72.170046 
L 74.636291 67.268165 
L 75.754932 67.268165 
L 76.500693 65.138551 
L 77.992214 65.138551 
L 78.365095 63.93862 
L 78.737975 65.224837 
L 79.110855 65.224837 
L 79.483736 59.763378 
L 80.602377 59.763378 
L 80.975257 61.030191 
L 81.348137 61.030191 
L 81.721018 61.241857 
L 82.093898 61.241857 
L 82.466778 61.98925 
L 82.839659 63.255921 
L 83.58542 63.255921 
L 83.9583 61.74047 
L 86.568462 61.74047 
L 86.941343 60.019062 
L 87.314223 61.672004 
L 89.924385 61.672004 
L 90.297266 60.173475 
L 91.043026 60.173475 
L 91.415907 58.887258 
L 92.534548 58.887258 
L 92.907428 55.301952 
L 94.026069 55.301952 
L 94.39895 52.995239 
L 95.890471 52.995239 
L 96.263351 53.529915 
L 105.95824 53.529915 
L 106.331121 54.816132 
L 109.314163 54.816132 
L 109.687044 50.407774 
L 112.670086 50.407774 
L 113.042967 48.059097 
L 113.788728 48.059097 
L 114.161608 49.15787 
L 115.280249 49.15787 
L 115.653129 48.207717 
L 116.39889 48.207717 
L 116.77177 52.462034 
L 118.636172 52.462034 
L 119.009052 50.048355 
L 125.720899 50.048355 
L 126.093779 48.816631 
L 132.059864 48.816631 
L 132.432745 46.378805 
L 135.415788 46.378805 
L 135.788668 43.533774 
L 138.771711 43.533774 
L 139.144591 37.441087 
L 139.890352 37.441087 
L 140.263232 41.567762 
L 141.381873 41.567762 
L 141.754753 44.201773 
L 149.585241 44.201773 
L 149.958121 43.378209 
L 150.703882 43.378209 
L 151.076762 43.910691 
L 158.907249 43.910691 
L 159.28013 45.161117 
L 159.65301 45.623879 
L 160.02589 45.623879 
L 160.398771 44.194346 
L 160.771651 43.661864 
L 163.754694 43.661864 
L 164.127574 44.718614 
L 166.364856 44.718614 
L 166.737737 42.881119 
L 167.483497 42.881119 
L 167.856378 45.295368 
L 185.008874 45.395284 
L 185.381754 46.359584 
L 195.076643 46.359584 
L 195.449523 47.4173 
L 198.805446 47.4173 
L 199.178327 48.938565 
L 199.924087 48.938565 
L 200.296968 46.083866 
L 210.364737 46.083866 
L 210.737617 46.408244 
L 219.686746 46.408244 
L 220.059626 48.939722 
L 221.551148 48.939722 
L 221.924028 47.713027 
L 225.652831 47.713027 
L 226.025712 46.37223 
L 236.466361 46.37223 
L 236.839242 45.564328 
L 239.449404 45.564328 
L 239.449404 45.564328 
" clip-path="url(#p49ad4e29d4)" style="fill: none; stroke: #b8b8b8; stroke-opacity: 0.28; stroke-width: 0.75; stroke-linecap: square"/>
   </g>
   <g id="line2d_30">
    <path d="M 53.009231 126.589508 
L 53.382111 126.589508 
L 53.754992 120.106672 
L 54.127872 118.415748 
L 55.619394 118.415748 
L 55.992274 116.595227 
L 56.365154 116.595227 
L 56.738035 113.504268 
L 57.483795 113.504268 
L 57.856676 109.589253 
L 58.229556 104.431146 
L 59.348197 104.431146 
L 59.721077 103.249585 
L 61.585479 103.249585 
L 61.958359 101.35025 
L 62.70412 101.35025 
L 63.077 99.92304 
L 63.449881 96.997837 
L 63.822761 98.206251 
L 65.687163 98.206251 
L 66.060043 91.850291 
L 66.432924 91.850291 
L 67.178684 78.020568 
L 67.551565 78.020568 
L 67.924445 76.029473 
L 68.297325 76.029473 
L 68.670206 71.433087 
L 69.415966 71.433087 
L 69.788847 70.568553 
L 70.161727 70.568553 
L 70.534607 68.791793 
L 72.026129 68.791793 
L 72.399009 71.341913 
L 72.771889 68.140822 
L 73.14477 68.140822 
L 73.51765 67.606398 
L 75.009172 67.606398 
L 75.382052 69.334003 
L 78.365095 69.334003 
L 78.737975 66.863752 
L 79.110855 66.863752 
L 79.483736 67.235282 
L 80.975257 67.235282 
L 81.348137 65.808072 
L 81.721018 65.808072 
L 82.093898 67.184 
L 83.212539 67.184 
L 83.58542 63.976693 
L 84.33118 63.976693 
L 84.704061 62.758544 
L 88.432864 62.758544 
L 88.805744 60.486441 
L 91.043026 60.486441 
L 91.415907 59.714739 
L 91.788787 59.714739 
L 92.161667 60.143332 
L 96.263351 60.143332 
L 96.636232 57.208809 
L 98.127753 57.208809 
L 98.500633 56.856292 
L 104.839599 56.856505 
L 105.21248 54.903283 
L 107.449762 54.903283 
L 107.822642 55.846823 
L 108.195522 55.846823 
L 108.568403 57.49255 
L 109.687044 57.49255 
L 110.059924 54.669594 
L 111.551445 54.669594 
L 111.924326 55.747159 
L 114.907369 55.747159 
L 115.280249 54.487713 
L 126.093779 54.487713 
L 126.466659 53.814621 
L 128.331061 53.814621 
L 128.703941 52.97662 
L 131.314104 52.97662 
L 131.686984 50.931237 
L 133.551386 50.931237 
L 133.924266 53.000573 
L 136.534429 53.000573 
L 137.280189 55.804563 
L 140.263232 55.804563 
L 140.636112 54.130702 
L 142.127634 54.130702 
L 142.500514 50.888526 
L 143.992036 50.888526 
L 144.364916 52.571905 
L 148.093719 52.571905 
L 148.4666 54.642483 
L 160.398771 54.642483 
L 160.771651 52.299617 
L 171.212301 52.299617 
L 171.585181 51.480119 
L 175.313985 51.480119 
L 175.686865 53.068343 
L 179.042788 53.068343 
L 179.415668 52.931361 
L 183.890233 52.931361 
L 184.263113 51.642646 
L 187.246156 51.642646 
L 187.619036 52.169621 
L 188.364797 52.169621 
L 188.737677 50.742411 
L 193.212241 50.742411 
L 193.585122 49.49133 
L 194.330882 49.49133 
L 194.703763 49.270185 
L 195.076643 49.270185 
L 195.449523 45.816746 
L 200.296968 45.816746 
L 200.669848 45.019637 
L 201.415609 45.019637 
L 201.788489 48.706844 
L 204.025771 48.706844 
L 204.398652 50.146907 
L 209.246096 50.146907 
L 209.618976 48.998977 
L 211.856259 48.998977 
L 212.229139 48.211973 
L 216.703703 48.211973 
L 217.076583 47.220072 
L 234.229079 47.220072 
L 234.60196 49.295062 
L 239.449404 49.239072 
L 239.449404 49.239072 
" clip-path="url(#p49ad4e29d4)" style="fill: none; stroke: #b8b8b8; stroke-opacity: 0.28; stroke-width: 0.75; stroke-linecap: square"/>
   </g>
   <g id="line2d_31">
    <path d="M 53.009231 126.589508 
L 53.382111 126.589508 
L 53.754992 124.906067 
L 54.127872 124.906067 
L 54.500753 119.381925 
L 54.873633 119.381925 
L 55.246513 113.612388 
L 55.619394 113.612388 
L 55.992274 110.70575 
L 56.365154 110.70575 
L 56.738035 109.610775 
L 57.110915 106.659376 
L 57.483795 105.642136 
L 57.856676 102.484632 
L 58.229556 97.888585 
L 58.602436 97.888585 
L 58.975317 99.114074 
L 59.348197 99.114074 
L 60.093958 91.052159 
L 61.958359 91.052159 
L 62.33124 88.714797 
L 64.568522 88.714797 
L 64.941402 87.264048 
L 66.432924 87.264048 
L 66.805804 85.079176 
L 67.178684 85.079176 
L 67.551565 85.947103 
L 68.670206 85.947103 
L 69.043086 82.193964 
L 69.415966 77.017946 
L 69.788847 77.017946 
L 70.161727 73.982135 
L 71.653248 73.982135 
L 72.026129 72.97501 
L 74.636291 72.97501 
L 75.009172 70.43348 
L 76.500693 70.43348 
L 76.873573 69.022078 
L 77.246454 69.022078 
L 77.619334 67.391015 
L 77.992214 67.391015 
L 78.365095 65.883047 
L 78.737975 64.851548 
L 80.229496 64.851548 
L 80.602377 63.797035 
L 82.839659 63.797035 
L 83.212539 62.291326 
L 87.314223 62.291326 
L 87.687103 60.345362 
L 89.178625 60.345362 
L 89.551505 59.784851 
L 90.670146 59.784851 
L 91.043026 58.3432 
L 93.653189 58.3432 
L 94.026069 55.952335 
L 94.39895 55.183242 
L 97.009112 55.108201 
L 97.381992 54.918438 
L 102.975197 54.918438 
L 103.348078 56.934466 
L 105.58536 56.934466 
L 105.95824 57.906926 
L 106.331121 57.906926 
L 106.704001 58.393133 
L 107.822642 58.393133 
L 108.195522 57.337901 
L 108.568403 55.721147 
L 110.432804 55.721147 
L 110.805685 57.863694 
L 112.297206 57.863694 
L 112.670086 56.765141 
L 113.042967 56.765141 
L 113.415847 55.245257 
L 114.907369 55.245257 
L 115.280249 57.281412 
L 116.39889 57.281412 
L 116.77177 54.96055 
L 117.890411 54.96055 
L 118.263292 53.42144 
L 118.636172 54.929409 
L 125.348018 54.929409 
L 125.720899 53.90998 
L 127.21242 53.90998 
L 127.5853 55.429864 
L 127.958181 55.084945 
L 133.924266 55.084945 
L 134.297147 54.083959 
L 142.127634 54.083959 
L 142.500514 54.951644 
L 150.703882 54.951644 
L 151.076762 55.277485 
L 164.873335 55.277485 
L 165.246215 53.332864 
L 174.195344 53.332864 
L 174.568224 52.690958 
L 180.534309 52.690958 
L 180.90719 51.693296 
L 185.008874 51.693296 
L 185.381754 56.00907 
L 189.110557 56.00907 
L 189.483438 55.773494 
L 239.449404 55.773494 
L 239.449404 55.773494 
" clip-path="url(#p49ad4e29d4)" style="fill: none; stroke: #b8b8b8; stroke-opacity: 0.28; stroke-width: 0.75; stroke-linecap: square"/>
   </g>
   <g id="line2d_32">
    <path d="M 53.009231 126.589508 
L 54.500753 122.423278 
L 54.873633 121.272768 
L 55.619394 117.239441 
L 56.365154 115.076878 
L 57.110915 111.418498 
L 57.483795 110.570581 
L 57.856676 108.428168 
L 58.602436 106.760396 
L 59.348197 103.865903 
L 59.721077 103.003857 
L 60.093958 100.91775 
L 60.839718 99.680076 
L 61.212599 98.069738 
L 61.585479 97.819954 
L 61.958359 96.381133 
L 62.33124 95.535316 
L 63.822761 93.596845 
L 64.195642 92.860624 
L 64.568522 92.4491 
L 65.314283 90.819907 
L 65.687163 90.329359 
L 67.551565 86.047664 
L 68.670206 84.328854 
L 69.043086 82.939194 
L 69.788847 81.532613 
L 70.534607 80.409299 
L 70.907488 80.332052 
L 71.280368 80.061048 
L 72.026129 79.184578 
L 72.771889 78.540745 
L 73.14477 78.401263 
L 73.51765 77.818665 
L 73.890531 77.449533 
L 74.263411 77.449533 
L 74.636291 77.046198 
L 75.009172 76.20807 
L 76.500693 75.638058 
L 76.873573 75.250406 
L 77.246454 75.039904 
L 77.619334 74.475509 
L 77.992214 74.350091 
L 78.737975 73.359568 
L 79.110855 73.000563 
L 79.483736 72.365291 
L 80.975257 70.898606 
L 81.348137 70.673695 
L 82.466778 70.610239 
L 83.9583 68.237452 
L 84.33118 68.20575 
L 84.704061 67.797028 
L 85.076941 67.856525 
L 85.822702 67.642955 
L 86.195582 67.08002 
L 86.941343 66.391838 
L 87.314223 66.258126 
L 88.432864 65.39035 
L 88.805744 64.807751 
L 89.178625 64.637579 
L 89.551505 64.678449 
L 91.043026 63.825852 
L 91.415907 63.430013 
L 91.788787 63.430013 
L 92.161667 63.121898 
L 92.534548 63.325505 
L 93.280308 63.048712 
L 94.026069 62.336821 
L 94.39895 62.124491 
L 94.77183 62.112402 
L 95.14471 61.939044 
L 95.517591 61.587529 
L 95.890471 61.528504 
L 96.263351 61.169793 
L 96.636232 60.558292 
L 97.381992 60.469002 
L 97.754873 60.506881 
L 98.127753 60.359273 
L 98.500633 59.643047 
L 98.873514 59.507971 
L 99.246394 58.771982 
L 99.992155 58.101494 
L 100.365035 58.015764 
L 100.737915 57.676855 
L 101.110796 57.592352 
L 101.856556 57.173107 
L 102.975197 57.096618 
L 103.348078 56.724423 
L 103.720958 56.784851 
L 104.466719 56.672318 
L 104.839599 56.834906 
L 105.58536 56.651345 
L 105.95824 56.312907 
L 106.704001 56.156869 
L 108.195522 55.483753 
L 108.568403 55.161352 
L 108.941283 55.161352 
L 109.314163 54.801077 
L 109.687044 54.699571 
L 110.059924 54.300682 
L 110.805685 54.294244 
L 111.551445 54.275153 
L 111.924326 54.393628 
L 112.297206 54.323551 
L 112.670086 54.058684 
L 113.042967 53.971501 
L 113.788728 53.476276 
L 114.534488 53.506439 
L 114.907369 53.439317 
L 115.280249 53.20716 
L 116.02601 52.308732 
L 117.144651 52.225053 
L 117.517531 51.883052 
L 117.890411 51.841552 
L 118.263292 51.624931 
L 118.636172 51.708464 
L 119.381933 51.422139 
L 119.754813 51.405083 
L 120.500574 51.141904 
L 120.873454 51.178265 
L 121.619215 50.995884 
L 121.992095 50.933017 
L 122.364975 50.726551 
L 123.856497 50.678742 
L 124.229377 50.457575 
L 124.602258 50.06877 
L 124.975138 50.017097 
L 125.720899 49.765287 
L 126.466659 49.50208 
L 128.331061 49.542416 
L 129.076822 49.49831 
L 129.449702 49.1797 
L 130.941223 48.876321 
L 132.805625 47.958926 
L 133.551386 47.954931 
L 133.924266 47.975004 
L 134.297147 47.868225 
L 134.670027 47.564423 
L 135.042907 47.564463 
L 136.907309 47.047223 
L 137.280189 47.112413 
L 137.65307 47.0582 
L 138.02595 46.821065 
L 138.39883 46.737442 
L 138.771711 46.909772 
L 139.144591 46.589104 
L 139.890352 46.509186 
L 140.263232 46.726379 
L 140.636112 46.472618 
L 142.127634 46.483579 
L 142.500514 46.244471 
L 142.873395 46.146483 
L 143.992036 46.134086 
L 144.364916 46.017288 
L 144.737796 46.027421 
L 145.483557 45.591414 
L 146.602198 45.587135 
L 146.975078 45.217204 
L 147.720839 44.996493 
L 148.093719 44.990476 
L 148.4666 45.13327 
L 149.21236 44.994455 
L 149.958121 45.010339 
L 151.449642 44.797492 
L 151.822523 44.947275 
L 152.568284 44.797217 
L 153.686925 44.828652 
L 154.059805 44.775083 
L 154.805566 44.499799 
L 155.178446 44.506716 
L 155.551326 44.340324 
L 156.297087 44.473386 
L 157.415728 44.445803 
L 157.788608 44.248894 
L 158.161489 44.248894 
L 158.907249 44.092888 
L 159.65301 44.115255 
L 160.02589 44.263886 
L 161.890292 43.947301 
L 162.636053 44.016418 
L 163.381814 43.95028 
L 163.754694 43.769034 
L 164.127574 43.903221 
L 166.364856 43.390986 
L 167.110617 43.511918 
L 167.483497 43.319909 
L 167.856378 43.450784 
L 169.720779 43.451515 
L 170.09366 43.267925 
L 170.46654 43.267925 
L 171.585181 42.854519 
L 172.330942 42.845714 
L 173.076703 42.544801 
L 174.195344 42.598523 
L 174.941104 42.492551 
L 175.313985 42.491331 
L 175.686865 42.626722 
L 176.059745 42.505384 
L 176.805506 42.472473 
L 177.178386 42.416131 
L 177.551267 42.537503 
L 177.924147 42.490824 
L 178.297027 42.577288 
L 179.042788 42.282977 
L 179.415668 42.215186 
L 179.788549 42.350367 
L 180.161429 42.276948 
L 180.90719 42.293409 
L 181.65295 42.256773 
L 182.771592 42.219616 
L 183.890233 42.130576 
L 184.635993 41.798758 
L 185.008874 41.738611 
L 185.381754 41.892991 
L 186.500395 41.729019 
L 187.246156 41.781152 
L 187.991916 41.720504 
L 188.364797 41.720504 
L 188.737677 41.561418 
L 189.110557 41.561418 
L 189.856318 41.339565 
L 190.602079 41.318372 
L 191.347839 41.15612 
L 195.076643 41.107879 
L 195.822404 40.945304 
L 196.568164 41.005838 
L 197.313925 40.816944 
L 199.924087 40.818948 
L 200.669848 40.66299 
L 201.415609 40.59921 
L 201.788489 40.792836 
L 202.16137 40.60982 
L 202.90713 40.60982 
L 203.280011 40.363601 
L 203.652891 40.316052 
L 205.517293 40.551175 
L 206.635934 40.497046 
L 211.856259 40.394339 
L 212.9749 40.352918 
L 216.703703 40.151288 
L 218.568105 39.914049 
L 219.313865 39.962435 
L 221.551148 40.026788 
L 221.924028 39.771697 
L 222.669789 39.764476 
L 223.78843 39.631107 
L 226.771472 39.461294 
L 228.635874 39.499573 
L 229.754515 39.504949 
L 230.127395 39.314106 
L 231.991797 39.212608 
L 233.110438 39.25252 
L 235.720601 39.445226 
L 236.093481 39.219385 
L 237.585002 39.062164 
L 239.449404 39.032238 
L 239.449404 39.032238 
" clip-path="url(#p49ad4e29d4)" style="fill: none; stroke: #b2182b; stroke-width: 2.2; stroke-linecap: square"/>
   </g>
   <g id="line2d_33">
    <path d="M 53.009231 126.589508 
L 239.449404 126.589508 
" clip-path="url(#p49ad4e29d4)" style="fill: none; stroke-dasharray: 2.96,1.28; stroke-dashoffset: 0; stroke: #555555; stroke-opacity: 0.7; stroke-width: 0.8"/>
   </g>
   <g id="patch_3">
    <path d="M 53.009231 132.175227 
L 53.009231 9.289396 
" style="fill: none; stroke: #222222; stroke-width: 0.8; stroke-linejoin: miter; stroke-linecap: square"/>
   </g>
   <g id="patch_4">
    <path d="M 53.009231 132.175227 
L 239.449404 132.175227 
" style="fill: none; stroke: #222222; stroke-width: 0.8; stroke-linejoin: miter; stroke-linecap: square"/>
   </g>
   <g id="text_14">
    <!-- $\bar{d}$ -->
    <g transform="translate(16.8 28.359158)">
     <text>
      <tspan x="0.612549" y="-3.09375" style="font-size: 10px; font-family: 'cmr10'">¹</tspan>
      <tspan x="0" y="-0.453125" style="font-size: 10px; font-family: 'cmmi10'">d</tspan>
     </text>
    </g>
    <!-- $(\mathrm{mm})$ -->
    <g transform="translate(7.2 39.556971)">
     <text>
      <tspan x="0" y="-0.5" style="font-size: 10px; font-family: 'cmr10'">(</tspan>
      <tspan x="3.881836" y="-0.5" style="font-size: 10px; font-family: 'cmr10'">m</tspan>
      <tspan x="12.211914" y="-0.5" style="font-size: 10px; font-family: 'cmr10'">m</tspan>
      <tspan x="20.541992" y="-0.5" style="font-size: 10px; font-family: 'cmr10'">)</tspan>
     </text>
    </g>
   </g>
  </g>
 </g>
 <defs>
  <clipPath id="p49ad4e29d4">
   <rect x="53.009231" y="9.289396" width="186.440173" height="122.885831"/>
  </clipPath>
 </defs>
</svg>
