<?xml version="1.0" encoding="utf-8" standalone="no"?>
<!DOCTYPE svg PUBLIC "-//W3C//DTD SVG 1.1//EN"
  "http://www.w3.org/Graphics/SVG/1.1/DTD/svg11.dtd">
<svg xmlns:xlink="http://www.w3.org/1999/xlink" width="420.881054pt" height="169.317187pt" viewBox="0 0 420.881054 169.317187" xmlns="http://www.w3.org/2000/svg" version="1.1">
 <metadata>
  <rdf:RDF xmlns:dc="http://purl.org/dc/elements/1.1/" xmlns:cc="http://creativecommons.org/ns#" xmlns:rdf="http://www.w3.org/1999/02/22-rdf-syntax-ns#">
   <cc:Work>
    <dc:type rdf:resource="http://purl.org/dc/dcmitype/StillImage"/>
    <dc:date>2026-06-15T20:39:32.350930</dc:date>
    <dc:format>image/svg+xml</dc:format>
    <dc:creator>
     <cc:Agent>
      <dc:title>Matplotlib v3.10.8, https://matplotlib.org/</dc:title>
     </cc:Agent>
    </dc:creator>
   </cc:Work>
  </rdf:RDF>
 </metadata>
 <defs>
  <style type="text/css">*{stroke-linejoin: round; stroke-linecap: butt}</style>
 </defs>
 <g id="figure_1">
  <g id="patch_1">
   <path d="M 0 169.317187 
L 420.881054 169.317187 
L 420.881054 0 
L 0 0 
z
" style="fill: #ffffff"/>
  </g>
  <g id="axes_1">
   <g id="patch_2">
    <path d="M 55.889771 137.1 
L 408.11496 137.1 
L 408.11496 7.2 
L 55.889771 7.2 
z
" style="fill: #ffffff"/>
   </g>
   <g id="matplotlib.axis_1">
    <g id="xtick_1">
     <g id="line2d_1">
      <defs>
       <path id="m44dec2387c" d="M 0 0 
L 0 3 
" style="stroke: #222222; stroke-width: 0.8"/>
      </defs>
      <g>
       <use xlink:href="#m44dec2387c" x="55.889771" y="137.1" style="fill: #222222; stroke: #222222; stroke-width: 0.8"/>
      </g>
     </g>
     <g id="text_1">
      <text style="font-size: 7px; font-family: 'Arial', 'Helvetica', 'DejaVu Sans', sans-serif; text-anchor: middle; fill: #222222" x="55.889771" y="148.918906" transform="rotate(-0 55.889771 148.918906)">0.0</text>
     </g>
    </g>
    <g id="xtick_2">
     <g id="line2d_2">
      <g>
       <use xlink:href="#m44dec2387c" x="126.334809" y="137.1" style="fill: #222222; stroke: #222222; stroke-width: 0.8"/>
      </g>
     </g>
     <g id="text_2">
      <text style="font-size: 7px; font-family: 'Arial', 'Helvetica', 'DejaVu Sans', sans-serif; text-anchor: middle; fill: #222222" x="126.334809" y="148.918906" transform="rotate(-0 126.334809 148.918906)">0.2</text>
     </g>
    </g>
    <g id="xtick_3">
     <g id="line2d_3">
      <g>
       <use xlink:href="#m44dec2387c" x="196.779846" y="137.1" style="fill: #222222; stroke: #222222; stroke-width: 0.8"/>
      </g>
     </g>
     <g id="text_3">
      <text style="font-size: 7px; font-family: 'Arial', 'Helvetica', 'DejaVu Sans', sans-serif; text-anchor: middle; fill: #222222" x="196.779846" y="148.918906" transform="rotate(-0 196.779846 148.918906)">0.4</text>
     </g>
    </g>
    <g id="xtick_4">
     <g id="line2d_4">
      <g>
       <use xlink:href="#m44dec2387c" x="267.224884" y="137.1" style="fill: #222222; stroke: #222222; stroke-width: 0.8"/>
      </g>
     </g>
     <g id="text_4">
      <text style="font-size: 7px; font-family: 'Arial', 'Helvetica', 'DejaVu Sans', sans-serif; text-anchor: middle; fill: #222222" x="267.224884" y="148.918906" transform="rotate(-0 267.224884 148.918906)">0.6</text>
     </g>
    </g>
    <g id="xtick_5">
     <g id="line2d_5">
      <g>
       <use xlink:href="#m44dec2387c" x="337.669922" y="137.1" style="fill: #222222; stroke: #222222; stroke-width: 0.8"/>
      </g>
     </g>
     <g id="text_5">
      <text style="font-size: 7px; font-family: 'Arial', 'Helvetica', 'DejaVu Sans', sans-serif; text-anchor: middle; fill: #222222" x="337.669922" y="148.918906" transform="rotate(-0 337.669922 148.918906)">0.8</text>
     </g>
    </g>
    <g id="xtick_6">
     <g id="line2d_6">
      <g>
       <use xlink:href="#m44dec2387c" x="408.11496" y="137.1" style="fill: #222222; stroke: #222222; stroke-width: 0.8"/>
      </g>
     </g>
     <g id="text_6">
      <text style="font-size: 7px; font-family: 'Arial', 'Helvetica', 'DejaVu Sans', sans-serif; text-anchor: middle; fill: #222222" x="408.11496" y="148.918906" transform="rotate(-0 408.11496 148.918906)">1.0</text>
     </g>
    </g>
    <g id="text_7">
     <text style="font-size: 8px; font-family: 'Arial', 'Helvetica', 'DejaVu Sans', sans-serif; text-anchor: middle" x="232.002365" y="160.453437" transform="rotate(-0 232.002365 160.453437)">Normalized arc length</text>
    </g>
   </g>
   <g id="matplotlib.axis_2">
    <g id="ytick_1">
     <g id="line2d_7">
      <defs>
       <path id="m27724e12fb" d="M 0 0 
L -3 0 
" style="stroke: #222222; stroke-width: 0.8"/>
      </defs>
      <g>
       <use xlink:href="#m27724e12fb" x="55.889771" y="131.213627" style="fill: #222222; stroke: #222222; stroke-width: 0.8"/>
      </g>
     </g>
     <g id="text_8">
      <text style="font-size: 7px; font-family: 'Arial', 'Helvetica', 'DejaVu Sans', sans-serif; text-anchor: end; fill: #222222" x="49.389771" y="133.87308" transform="rotate(-0 49.389771 133.87308)">0</text>
     </g>
    </g>
    <g id="ytick_2">
     <g id="line2d_8">
      <g>
       <use xlink:href="#m27724e12fb" x="55.889771" y="108.284332" style="fill: #222222; stroke: #222222; stroke-width: 0.8"/>
      </g>
     </g>
     <g id="text_9">
      <text style="font-size: 7px; font-family: 'Arial', 'Helvetica', 'DejaVu Sans', sans-serif; text-anchor: end; fill: #222222" x="49.389771" y="110.943785" transform="rotate(-0 49.389771 110.943785)">50</text>
     </g>
    </g>
    <g id="ytick_3">
     <g id="line2d_9">
      <g>
       <use xlink:href="#m27724e12fb" x="55.889771" y="85.355037" style="fill: #222222; stroke: #222222; stroke-width: 0.8"/>
      </g>
     </g>
     <g id="text_10">
      <text style="font-size: 7px; font-family: 'Arial', 'Helvetica', 'DejaVu Sans', sans-serif; text-anchor: end; fill: #222222" x="49.389771" y="88.01449" transform="rotate(-0 49.389771 88.01449)">100</text>
     </g>
    </g>
    <g id="ytick_4">
     <g id="line2d_10">
      <g>
       <use xlink:href="#m27724e12fb" x="55.889771" y="62.425742" style="fill: #222222; stroke: #222222; stroke-width: 0.8"/>
      </g>
     </g>
     <g id="text_11">
      <text style="font-size: 7px; font-family: 'Arial', 'Helvetica', 'DejaVu Sans', sans-serif; text-anchor: end; fill: #222222" x="49.389771" y="65.085195" transform="rotate(-0 49.389771 65.085195)">150</text>
     </g>
    </g>
    <g id="ytick_5">
     <g id="line2d_11">
      <g>
       <use xlink:href="#m27724e12fb" x="55.889771" y="39.496447" style="fill: #222222; stroke: #222222; stroke-width: 0.8"/>
      </g>
     </g>
     <g id="text_12">
      <text style="font-size: 7px; font-family: 'Arial', 'Helvetica', 'DejaVu Sans', sans-serif; text-anchor: end; fill: #222222" x="49.389771" y="42.1559" transform="rotate(-0 49.389771 42.1559)">200</text>
     </g>
    </g>
    <g id="ytick_6">
     <g id="line2d_12">
      <g>
       <use xlink:href="#m27724e12fb" x="55.889771" y="16.567152" style="fill: #222222; stroke: #222222; stroke-width: 0.8"/>
      </g>
     </g>
     <g id="text_13">
      <text style="font-size: 7px; font-family: 'Arial', 'Helvetica', 'DejaVu Sans', sans-serif; text-anchor: end; fill: #222222" x="49.389771" y="19.226605" transform="rotate(-0 49.389771 19.226605)">250</text>
     </g>
    </g>
    <g id="text_14">
     <!-- $|\kappa_g|$ -->
     <g transform="translate(7.2 67.99)">
      <text>
       <tspan x="0" y="-0.25" style="font-size: 13px; font-family: 'cmsy10'">j</tspan>
       <tspan x="16.259572" y="-0.25" style="font-size: 13px; font-family: 'cmsy10'">j</tspan>
       <tspan x="3.599121" y="-0.25" style="font-size: 13px; font-family: 'cmmi10'">∙</tspan>
       <tspan x="11.089355" y="1.960812" style="font-size: 9.1px; font-family: 'cmmi10'">g</tspan>
      </text>
     </g>
    </g>
   </g>
   <g id="line2d_13">
    <path d="M 64.347 116.609409 
L 70.359761 113.091591 
L 76.345478 107.99313 
L 82.274054 122.359409 
L 87.887448 125.668598 
L 94.531521 102.606092 
L 99.882813 121.298907 
L 106.324005 123.990152 
L 114.335967 39.368041 
L 128.625921 70.262755 
L 134.890727 119.683363 
L 141.706504 127.05826 
L 147.638866 115.946965 
L 152.843182 105.018439 
L 159.306704 122.392901 
L 164.884899 126.691699 
L 170.770085 118.319063 
L 176.63441 126.150265 
L 184.131824 124.68642 
L 190.53028 28.777335 
L 204.989523 72.543483 
L 211.285055 125.208079 
L 218.397147 124.466259 
L 224.168585 123.289997 
L 230.911321 125.229575 
L 236.265401 118.192955 
L 242.05866 120.485258 
L 247.600063 120.250566 
L 254.077079 123.270937 
L 260.859096 128.62596 
L 266.810142 47.325154 
L 279.390502 45.217389 
L 286.469914 126.902286 
L 291.405858 124.689162 
L 297.882834 123.266213 
L 303.69595 113.722574 
L 309.350651 121.853567 
L 315.710156 118.186959 
L 321.402296 121.818047 
L 326.932316 130.480209 
L 333.732482 127.644102 
L 340.005662 51.11973 
L 354.065122 50.415863 
L 360.37512 124.145 
L 367.223631 130.796054 
L 372.799949 128.223224 
L 379.554507 124.552957 
L 385.00011 126.227807 
L 390.890266 116.702076 
L 396.825283 124.484862 
L 403.419664 130.36726 
" clip-path="url(#p6dd4e808fa)" style="fill: none; stroke: #c73e3a; stroke-width: 1.55; stroke-linecap: square"/>
   </g>
   <g id="line2d_14">
    <path d="M 71.323571 128.490965 
L 75.446167 130.757518 
L 84.206429 126.497123 
L 91.656136 128.535829 
L 99.908128 128.599321 
L 107.997788 126.177867 
L 115.362748 120.073815 
L 121.565224 100.669866 
L 126.308355 43.642219 
L 130.485534 31.052182 
L 134.8394 87.797249 
L 140.554255 112.981193 
L 147.491775 120.541592 
L 155.169844 121.167239 
L 163.192636 127.472654 
L 171.256169 128.498297 
L 179.105946 125.276903 
L 186.18989 117.88922 
L 191.943751 86.015146 
L 196.079651 13.104545 
L 200.051553 44.962512 
L 204.831742 100.528159 
L 211.155877 118.642299 
L 218.659515 122.829908 
L 226.779537 124.39742 
L 234.934138 128.877348 
L 243.042627 126.593552 
L 250.936113 124.347671 
L 258.106831 117.468899 
L 264.024205 95.667318 
L 268.361712 24.786247 
L 272.052303 18.716801 
L 276.232837 92.096775 
L 281.900588 117.230843 
L 288.940722 124.485827 
L 296.723415 127.70872 
L 304.780198 129.326589 
L 312.879509 123.800425 
L 320.704168 122.954261 
L 327.701894 115.255244 
L 333.407585 89.573767 
L 337.608425 21.823324 
L 341.551595 43.182491 
L 346.149232 100.355194 
L 352.313885 120.10608 
L 359.725208 125.714521 
L 367.881115 127.949668 
L 376.078914 128.926353 
L 383.4521 128.239685 
L 391.488381 131.195413 
L 395.367439 128.987662 
" clip-path="url(#p6dd4e808fa)" style="fill: none; stroke-dasharray: 4.995,2.16; stroke-dashoffset: 0; stroke: #6c6c6c; stroke-width: 1.35"/>
   </g>
   <g id="line2d_15">
    <path d="M 64.094918 128.218187 
L 68.751524 130.920376 
L 74.360184 126.621693 
L 83.186565 125.82783 
L 87.57852 125.869423 
L 90.947035 128.322601 
L 95.502152 118.301364 
L 109.482884 94.720429 
L 112.952364 96.722342 
L 127.253906 93.905338 
L 130.194295 95.284987 
L 141.661619 130.248007 
L 147.756087 125.363884 
L 153.19752 130.653202 
L 157.469803 126.701722 
L 163.772586 129.465494 
L 169.482558 122.377211 
L 173.051417 114.473319 
L 184.707642 114.219852 
L 188.416227 83.964445 
L 206.833813 94.329278 
L 211.625014 105.325571 
L 225.438025 124.258985 
L 228.959949 123.66487 
L 234.27457 129.429675 
L 239.469247 123.345556 
L 246.043872 127.933179 
L 251.694606 125.92304 
L 256.716797 127.975322 
L 269.502631 109.409024 
L 271.903808 79.255076 
L 287.149389 79.220694 
L 291.838167 113.201586 
L 298.961773 125.957978 
L 306.54029 127.68782 
L 309.948794 125.663321 
L 316.392112 131.143896 
L 323.791301 130.774902 
L 328.023906 131.195455 
L 332.280056 122.574869 
L 342.097756 127.343446 
L 344.624246 66.420702 
L 359.5608 83.949706 
L 363.922648 115.275044 
L 368.431633 125.949157 
L 373.841931 126.285985 
L 381.385478 129.409996 
L 385.657761 128.705546 
L 391.372555 121.54103 
L 395.839318 128.762534 
L 403.559454 126.351203 
" clip-path="url(#p6dd4e808fa)" style="fill: none; stroke: #1b8a3a; stroke-width: 1.75; stroke-linecap: square"/>
   </g>
   <g id="patch_3">
    <path d="M 55.889771 137.1 
L 55.889771 7.2 
" style="fill: none; stroke: #222222; stroke-width: 0.8; stroke-linejoin: miter; stroke-linecap: square"/>
   </g>
   <g id="patch_4">
    <path d="M 55.889771 137.1 
L 408.11496 137.1 
" style="fill: none; stroke: #222222; stroke-width: 0.8; stroke-linejoin: miter; stroke-linecap: square"/>
   </g>
   <g id="legend_1">
    <g id="patch_5">
     <path d="M 327.964179 33.217187 
L 404.61496 33.217187 
Q 405.61496 33.217187 405.61496 32.217187 
L 405.61496 10.7 
Q 405.61496 9.7 404.61496 9.7 
L 327.964179 9.7 
Q 326.964179 9.7 326.964179 10.7 
L 326.964179 32.217187 
Q 326.964179 33.217187 327.964179 33.217187 
z
" style="fill: #ffffff; opacity: 0.8; stroke: #cccccc; stroke-linejoin: miter"/>
    </g>
    <g id="line2d_16">
     <path d="M 328.964179 13.749219 
L 333.964179 13.749219 
L 338.964179 13.749219 
" style="fill: none; stroke: #c73e3a; stroke-width: 1.55; stroke-linecap: square"/>
    </g>
    <g id="text_15">
     <text style="font-size: 5px; font-family: 'Arial', 'Helvetica', 'DejaVu Sans', sans-serif; text-anchor: start" x="342.964179" y="15.499219" transform="rotate(-0 342.964179 15.499219)">Original</text>
    </g>
    <g id="line2d_17">
     <path d="M 328.964179 21.088281 
L 333.964179 21.088281 
L 338.964179 21.088281 
" style="fill: none; stroke-dasharray: 4.995,2.16; stroke-dashoffset: 0; stroke: #6c6c6c; stroke-width: 1.35"/>
    </g>
    <g id="text_16">
     <text style="font-size: 5px; font-family: 'Arial', 'Helvetica', 'DejaVu Sans', sans-serif; text-anchor: start" x="342.964179" y="22.838281" transform="rotate(-0 342.964179 22.838281)">Moving-average smooth</text>
    </g>
    <g id="line2d_18">
     <path d="M 328.964179 28.427344 
L 333.964179 28.427344 
L 338.964179 28.427344 
" style="fill: none; stroke: #1b8a3a; stroke-width: 1.75; stroke-linecap: square"/>
    </g>
    <g id="text_17">
     <text style="font-size: 5px; font-family: 'Arial', 'Helvetica', 'DejaVu Sans', sans-serif; text-anchor: start" x="342.964179" y="30.177344" transform="rotate(-0 342.964179 30.177344)">Geodesic optimized</text>
    </g>
   </g>
  </g>
 </g>
 <defs>
  <clipPath id="p6dd4e808fa">
   <rect x="55.889771" y="7.2" width="352.225189" height="129.9"/>
  </clipPath>
 </defs>
</svg>
