<?xml version="1.0" encoding="utf-8" standalone="no"?>
<!DOCTYPE svg PUBLIC "-//W3C//DTD SVG 1.1//EN"
  "http://www.w3.org/Graphics/SVG/1.1/DTD/svg11.dtd">
<svg xmlns:xlink="http://www.w3.org/1999/xlink" width="420.222356pt" height="169.200156pt" viewBox="0 0 420.222356 169.200156" xmlns="http://www.w3.org/2000/svg" version="1.1">
 <metadata>
  <rdf:RDF xmlns:dc="http://purl.org/dc/elements/1.1/" xmlns:cc="http://creativecommons.org/ns#" xmlns:rdf="http://www.w3.org/1999/02/22-rdf-syntax-ns#">
   <cc:Work>
    <dc:type rdf:resource="http://purl.org/dc/dcmitype/StillImage"/>
    <dc:date>2026-06-23T12:37:51.213143</dc:date>
    <dc:format>image/svg+xml</dc:format>
    <dc:creator>
     <cc:Agent>
      <dc:title>Matplotlib v3.11.0, https://matplotlib.org/</dc:title>
     </cc:Agent>
    </dc:creator>
   </cc:Work>
  </rdf:RDF>
 </metadata>
 <defs>
  <style type="text/css">*{stroke-linejoin: round; stroke-linecap: butt}</style>
 </defs>
 <g id="figure_1">
  <g id="patch_1">
   <path d="M 0 169.200156 
L 420.222356 169.200156 
L 420.222356 0 
L 0 0 
z
" style="fill: #ffffff"/>
  </g>
  <g id="axes_1">
   <g id="patch_2">
    <path d="M 60.177756 137.422852 
L 408.157356 137.422852 
L 408.157356 7.2 
L 60.177756 7.2 
z
" style="fill: #ffffff"/>
   </g>
   <g id="matplotlib.axis_1">
    <g id="xtick_1">
     <g id="line2d_1">
      <defs>
       <path id="m5938181b3b" d="M 0 0 
L 0 3 
" style="stroke: #222222; stroke-width: 0.8"/>
      </defs>
      <g>
       <use xlink:href="#m5938181b3b" x="60.177756" y="137.422852" style="fill: #222222; stroke: #222222; stroke-width: 0.8"/>
      </g>
     </g>
     <g id="text_1">
      <text style="font-size: 7px; font-family: 'Arial', 'Helvetica', 'DejaVu Sans', sans-serif; text-anchor: middle; fill: #222222" x="60.177756" y="149.019043" transform="rotate(-0 60.177756 149.019043)">0.0</text>
     </g>
    </g>
    <g id="xtick_2">
     <g id="line2d_2">
      <g>
       <use xlink:href="#m5938181b3b" x="129.773676" y="137.422852" style="fill: #222222; stroke: #222222; stroke-width: 0.8"/>
      </g>
     </g>
     <g id="text_2">
      <text style="font-size: 7px; font-family: 'Arial', 'Helvetica', 'DejaVu Sans', sans-serif; text-anchor: middle; fill: #222222" x="129.773676" y="149.019043" transform="rotate(-0 129.773676 149.019043)">0.2</text>
     </g>
    </g>
    <g id="xtick_3">
     <g id="line2d_3">
      <g>
       <use xlink:href="#m5938181b3b" x="199.369596" y="137.422852" style="fill: #222222; stroke: #222222; stroke-width: 0.8"/>
      </g>
     </g>
     <g id="text_3">
      <text style="font-size: 7px; font-family: 'Arial', 'Helvetica', 'DejaVu Sans', sans-serif; text-anchor: middle; fill: #222222" x="199.369596" y="149.019043" transform="rotate(-0 199.369596 149.019043)">0.4</text>
     </g>
    </g>
    <g id="xtick_4">
     <g id="line2d_4">
      <g>
       <use xlink:href="#m5938181b3b" x="268.965516" y="137.422852" style="fill: #222222; stroke: #222222; stroke-width: 0.8"/>
      </g>
     </g>
     <g id="text_4">
      <text style="font-size: 7px; font-family: 'Arial', 'Helvetica', 'DejaVu Sans', sans-serif; text-anchor: middle; fill: #222222" x="268.965516" y="149.019043" transform="rotate(-0 268.965516 149.019043)">0.6</text>
     </g>
    </g>
    <g id="xtick_5">
     <g id="line2d_5">
      <g>
       <use xlink:href="#m5938181b3b" x="338.561436" y="137.422852" style="fill: #222222; stroke: #222222; stroke-width: 0.8"/>
      </g>
     </g>
     <g id="text_5">
      <text style="font-size: 7px; font-family: 'Arial', 'Helvetica', 'DejaVu Sans', sans-serif; text-anchor: middle; fill: #222222" x="338.561436" y="149.019043" transform="rotate(-0 338.561436 149.019043)">0.8</text>
     </g>
    </g>
    <g id="xtick_6">
     <g id="line2d_6">
      <g>
       <use xlink:href="#m5938181b3b" x="408.157356" y="137.422852" style="fill: #222222; stroke: #222222; stroke-width: 0.8"/>
      </g>
     </g>
     <g id="text_6">
      <text style="font-size: 7px; font-family: 'Arial', 'Helvetica', 'DejaVu Sans', sans-serif; text-anchor: middle; fill: #222222" x="408.157356" y="149.019043" transform="rotate(-0 408.157356 149.019043)">1.0</text>
     </g>
    </g>
    <g id="text_7">
     <text style="font-size: 8px; font-family: 'Arial', 'Helvetica', 'DejaVu Sans', sans-serif; text-anchor: middle" x="234.167556" y="160.316406" transform="rotate(-0 234.167556 160.316406)">Normalized arc length</text>
    </g>
   </g>
   <g id="matplotlib.axis_2">
    <g id="ytick_1">
     <g id="line2d_7">
      <defs>
       <path id="m1afc9f2d7e" d="M 0 0 
L -3 0 
" style="stroke: #222222; stroke-width: 0.8"/>
      </defs>
      <g>
       <use xlink:href="#m1afc9f2d7e" x="60.177756" y="131.503631" style="fill: #222222; stroke: #222222; stroke-width: 0.8"/>
      </g>
     </g>
     <g id="text_8">
      <text style="font-size: 7px; font-family: 'Arial', 'Helvetica', 'DejaVu Sans', sans-serif; text-anchor: end; fill: #222222" x="53.677756" y="134.051727" transform="rotate(-0 53.677756 134.051727)">0</text>
     </g>
    </g>
    <g id="ytick_2">
     <g id="line2d_8">
      <g>
       <use xlink:href="#m1afc9f2d7e" x="60.177756" y="105.208931" style="fill: #222222; stroke: #222222; stroke-width: 0.8"/>
      </g>
     </g>
     <g id="text_9">
      <text style="font-size: 7px; font-family: 'Arial', 'Helvetica', 'DejaVu Sans', sans-serif; text-anchor: end; fill: #222222" x="53.677756" y="107.757026" transform="rotate(-0 53.677756 107.757026)">5</text>
     </g>
    </g>
    <g id="ytick_3">
     <g id="line2d_9">
      <g>
       <use xlink:href="#m1afc9f2d7e" x="60.177756" y="78.91423" style="fill: #222222; stroke: #222222; stroke-width: 0.8"/>
      </g>
     </g>
     <g id="text_10">
      <text style="font-size: 7px; font-family: 'Arial', 'Helvetica', 'DejaVu Sans', sans-serif; text-anchor: end; fill: #222222" x="53.677756" y="81.462326" transform="rotate(-0 53.677756 81.462326)">10</text>
     </g>
    </g>
    <g id="ytick_4">
     <g id="line2d_10">
      <g>
       <use xlink:href="#m1afc9f2d7e" x="60.177756" y="52.61953" style="fill: #222222; stroke: #222222; stroke-width: 0.8"/>
      </g>
     </g>
     <g id="text_11">
      <text style="font-size: 7px; font-family: 'Arial', 'Helvetica', 'DejaVu Sans', sans-serif; text-anchor: end; fill: #222222" x="53.677756" y="55.167626" transform="rotate(-0 53.677756 55.167626)">15</text>
     </g>
    </g>
    <g id="ytick_5">
     <g id="line2d_11">
      <g>
       <use xlink:href="#m1afc9f2d7e" x="60.177756" y="26.32483" style="fill: #222222; stroke: #222222; stroke-width: 0.8"/>
      </g>
     </g>
     <g id="text_12">
      <text style="font-size: 7px; font-family: 'Arial', 'Helvetica', 'DejaVu Sans', sans-serif; text-anchor: end; fill: #222222" x="53.677756" y="28.872925" transform="rotate(-0 53.677756 28.872925)">20</text>
     </g>
    </g>
    <g id="text_13">
     <!-- $d$ -->
     <g transform="translate(18.72 55.087793)">
      <text>
       <tspan x="0" y="-0.671875" style="font-size: 12px; font-family: 'cmmi10'">d</tspan>
      </text>
     </g>
     <!-- $(\mathrm{mm})$ -->
     <g transform="translate(7.2 68.412012)">
      <text>
       <tspan x="0" y="-0" style="font-size: 12px; font-family: 'cmr10'">(</tspan>
       <tspan x="4.658203" y="-0" style="font-size: 12px; font-family: 'cmr10'">m</tspan>
       <tspan x="14.654297" y="-0" style="font-size: 12px; font-family: 'cmr10'">m</tspan>
       <tspan x="24.650391" y="-0" style="font-size: 12px; font-family: 'cmr10'">)</tspan>
      </text>
     </g>
    </g>
   </g>
   <g id="line2d_12">
    <path d="M 60.177756 131.503631 
L 67.630053 108.991898 
L 73.025948 118.41475 
L 79.037942 117.316402 
L 83.725963 115.968541 
L 88.813852 116.042373 
L 93.59031 115.374234 
L 98.781101 111.26076 
L 104.047408 103.727604 
L 111.044904 100.869796 
L 132.143953 13.119221 
L 136.665329 58.757813 
L 144.147978 104.394016 
L 150.067893 122.052572 
L 156.275272 121.030626 
L 161.575268 123.265677 
L 166.788586 120.127554 
L 172.550913 111.052224 
L 176.84163 115.246226 
L 181.832047 117.909353 
L 186.91864 116.506775 
L 192.935606 98.118415 
L 198.65877 68.411945 
L 210.197574 67.167827 
L 215.411268 95.835361 
L 221.514192 118.060952 
L 226.820396 115.310422 
L 231.941226 113.943665 
L 236.662012 107.379768 
L 242.674486 124.14814 
L 248.944689 125.44618 
L 253.398256 124.776229 
L 259.660286 122.227731 
L 265.476558 119.24153 
L 272.11005 101.689201 
L 278.257591 70.25636 
L 289.284964 63.760453 
L 294.905307 99.121727 
L 299.941857 115.71948 
L 305.588086 125.119413 
L 310.186281 127.314887 
L 315.261098 128.75728 
L 320.428705 123.219508 
L 325.355473 119.84085 
L 330.414786 122.103072 
L 335.111801 119.758591 
L 339.651633 109.190492 
L 345.187053 86.295763 
L 349.493768 48.133561 
L 358.692645 87.751867 
L 374.503522 85.775547 
L 376.607582 105.392164 
L 380.784683 118.460813 
L 386.77079 118.396932 
L 392.365956 123.873077 
L 398.305738 120.274103 
L 403.071559 106.034474 
L 408.157356 131.503631 
" clip-path="url(#p7db92783d5)" style="fill: none; stroke-dasharray: 4.625,2; stroke-dashoffset: 0; stroke: #6c6c6c; stroke-width: 1.25"/>
   </g>
   <g id="line2d_13">
    <path d="M 60.177756 121.84548 
L 67.630053 122.253605 
L 73.025948 120.706788 
L 79.037942 123.533944 
L 83.725963 129.29969 
L 88.813852 125.708876 
L 93.59031 124.045216 
L 98.781101 121.717228 
L 104.047408 118.309363 
L 111.044904 115.189405 
L 132.143953 77.819952 
L 136.665329 111.619544 
L 144.147978 117.019259 
L 150.067893 111.054564 
L 156.275272 115.730715 
L 161.575268 121.783407 
L 166.788586 126.736347 
L 172.550913 113.439072 
L 176.84163 112.267711 
L 181.832047 112.975665 
L 186.91864 116.924236 
L 192.935606 116.835855 
L 198.65877 92.420153 
L 210.197574 83.213572 
L 215.411268 107.526746 
L 221.514192 123.934343 
L 226.820396 113.731664 
L 231.941226 111.64407 
L 236.662012 108.380458 
L 242.674486 121.516 
L 248.944689 123.814356 
L 253.398256 119.553425 
L 259.660286 118.218502 
L 265.476558 118.269761 
L 272.11005 110.306472 
L 278.257591 90.866518 
L 289.284964 95.620766 
L 294.905307 113.112709 
L 299.941857 112.482614 
L 305.588086 114.665329 
L 310.186281 120.302952 
L 315.261098 127.240144 
L 320.428705 122.038443 
L 325.355473 118.186223 
L 330.414786 116.680468 
L 335.111801 118.290205 
L 339.651633 125.71434 
L 345.187053 117.05466 
L 349.493768 90.828129 
L 358.692645 113.850272 
L 374.503522 116.762303 
L 376.607582 116.204161 
L 380.784683 123.629686 
L 386.77079 114.174007 
L 392.365956 119.908842 
L 398.305738 120.469211 
L 403.071559 126.217568 
L 408.157356 123.815358 
" clip-path="url(#p7db92783d5)" style="fill: none; stroke-dasharray: 4.995,2.16; stroke-dashoffset: 0; stroke: #4c78a8; stroke-width: 1.35"/>
   </g>
   <g id="line2d_14">
    <path d="M 60.177756 131.503631 
L 67.630053 124.99693 
L 73.025948 131.503631 
L 79.037942 131.503631 
L 83.725963 125.154487 
L 88.813852 125.157894 
L 93.59031 131.503631 
L 98.781101 131.503631 
L 104.047408 131.503631 
L 111.044904 117.704539 
L 132.143953 131.503631 
L 136.665329 131.503631 
L 144.147978 131.503631 
L 150.067893 131.503631 
L 156.275272 124.972879 
L 161.575268 131.503631 
L 166.788586 131.503631 
L 172.550913 131.503631 
L 176.84163 131.503631 
L 181.832047 118.820913 
L 186.91864 120.959241 
L 192.935606 122.244984 
L 198.65877 116.948509 
L 210.197574 118.05305 
L 215.411268 80.338923 
L 221.514192 112.25476 
L 226.820396 120.865926 
L 231.941226 122.041919 
L 236.662012 120.999432 
L 242.674486 121.809126 
L 248.944689 131.503631 
L 253.398256 131.503631 
L 259.660286 131.503631 
L 265.476558 124.62615 
L 272.11005 114.009935 
L 278.257591 124.36226 
L 289.284964 124.262735 
L 294.905307 100.384406 
L 299.941857 111.535447 
L 305.588086 121.569532 
L 310.186281 116.0907 
L 315.261098 131.503631 
L 320.428705 131.503631 
L 325.355473 131.503631 
L 330.414786 131.503631 
L 335.111801 124.85266 
L 339.651633 118.20583 
L 345.187053 71.260948 
L 349.493768 124.776252 
L 358.692645 131.503631 
L 374.503522 131.503631 
L 376.607582 121.465631 
L 380.784683 131.503631 
L 386.77079 113.300264 
L 392.365956 131.503631 
L 398.305738 110.727904 
L 403.071559 131.503631 
L 408.157356 131.503631 
" clip-path="url(#p7db92783d5)" style="fill: none; stroke-dasharray: 4.995,2.16; stroke-dashoffset: 0; stroke: #4daf7c; stroke-width: 1.35"/>
   </g>
   <g id="patch_3">
    <path d="M 60.177756 137.422852 
L 60.177756 7.2 
" style="fill: none; stroke: #222222; stroke-width: 0.8; stroke-linejoin: miter; stroke-linecap: square"/>
   </g>
   <g id="patch_4">
    <path d="M 60.177756 137.422852 
L 408.157356 137.422852 
" style="fill: none; stroke: #222222; stroke-width: 0.8; stroke-linejoin: miter; stroke-linecap: square"/>
   </g>
   <g id="legend_1">
    <g id="patch_5">
     <path d="M 335.023762 32.777246 
L 404.657356 32.777246 
Q 405.657356 32.777246 405.657356 31.777246 
L 405.657356 10.7 
Q 405.657356 9.7 404.657356 9.7 
L 335.023762 9.7 
Q 334.023762 9.7 334.023762 10.7 
L 334.023762 31.777246 
Q 334.023762 32.777246 335.023762 32.777246 
z
" style="fill: #ffffff; opacity: 0.8; stroke: #cccccc; stroke-linejoin: miter"/>
    </g>
    <g id="line2d_15">
     <path d="M 336.023762 13.590137 
L 341.023762 13.590137 
L 346.023762 13.590137 
" style="fill: none; stroke-dasharray: 4.625,2; stroke-dashoffset: 0; stroke: #6c6c6c; stroke-width: 1.25"/>
    </g>
    <g id="text_14">
     <text style="font-size: 5px; font-family: 'Arial', 'Helvetica', 'DejaVu Sans', sans-serif; text-anchor: start" x="350.023762" y="15.340137" transform="rotate(-0 350.023762 15.340137)">Moving-average smooth</text>
    </g>
    <g id="line2d_16">
     <path d="M 336.023762 20.782617 
L 341.023762 20.782617 
L 346.023762 20.782617 
" style="fill: none; stroke-dasharray: 4.995,2.16; stroke-dashoffset: 0; stroke: #4c78a8; stroke-width: 1.35"/>
    </g>
    <g id="text_15">
     <text style="font-size: 5px; font-family: 'Arial', 'Helvetica', 'DejaVu Sans', sans-serif; text-anchor: start" x="350.023762" y="22.532617" transform="rotate(-0 350.023762 22.532617)">B-spline</text>
    </g>
    <g id="line2d_17">
     <path d="M 336.023762 27.975 
L 341.023762 27.975 
L 346.023762 27.975 
" style="fill: none; stroke-dasharray: 4.995,2.16; stroke-dashoffset: 0; stroke: #4daf7c; stroke-width: 1.35"/>
    </g>
    <g id="text_16">
     <text style="font-size: 5px; font-family: 'Arial', 'Helvetica', 'DejaVu Sans', sans-serif; text-anchor: start" x="350.023762" y="29.725" transform="rotate(-0 350.023762 29.725)">Geodesic optimized</text>
    </g>
   </g>
  </g>
 </g>
 <defs>
  <clipPath id="p7db92783d5">
   <rect x="60.177756" y="7.2" width="347.9796" height="130.222852"/>
  </clipPath>
 </defs>
</svg>
