<?xml version="1.0" encoding="utf-8" standalone="no"?>
<!DOCTYPE svg PUBLIC "-//W3C//DTD SVG 1.1//EN"
  "http://www.w3.org/Graphics/SVG/1.1/DTD/svg11.dtd">
<svg xmlns:xlink="http://www.w3.org/1999/xlink" width="420.881054pt" height="169.116432pt" viewBox="0 0 420.881054 169.116432" xmlns="http://www.w3.org/2000/svg" version="1.1">
 <metadata>
  <rdf:RDF xmlns:dc="http://purl.org/dc/elements/1.1/" xmlns:cc="http://creativecommons.org/ns#" xmlns:rdf="http://www.w3.org/1999/02/22-rdf-syntax-ns#">
   <cc:Work>
    <dc:type rdf:resource="http://purl.org/dc/dcmitype/StillImage"/>
    <dc:date>2026-06-29T19:50:57.927076</dc:date>
    <dc:format>image/svg+xml</dc:format>
    <dc:creator>
     <cc:Agent>
      <dc:title>Matplotlib v3.10.8, https://matplotlib.org/</dc:title>
     </cc:Agent>
    </dc:creator>
   </cc:Work>
  </rdf:RDF>
 </metadata>
 <defs>
  <style type="text/css">*{stroke-linejoin: round; stroke-linecap: butt}</style>
 </defs>
 <g id="figure_1">
  <g id="patch_1">
   <path d="M 0 169.116432 
L 420.881054 169.116432 
L 420.881054 0 
L 0 0 
z
" style="fill: #ffffff"/>
  </g>
  <g id="axes_1">
   <g id="patch_2">
    <path d="M 55.889771 136.899245 
L 408.11496 136.899245 
L 408.11496 8.538591 
L 55.889771 8.538591 
z
" style="fill: #ffffff"/>
   </g>
   <g id="matplotlib.axis_1">
    <g id="xtick_1">
     <g id="line2d_1">
      <defs>
       <path id="mfbf67128b6" d="M 0 0 
L 0 3 
" style="stroke: #222222; stroke-width: 0.8"/>
      </defs>
      <g>
       <use xlink:href="#mfbf67128b6" x="55.889771" y="136.899245" style="fill: #222222; stroke: #222222; stroke-width: 0.8"/>
      </g>
     </g>
     <g id="text_1">
      <text style="font-size: 7px; font-family: 'Arial', 'Helvetica', 'DejaVu Sans', sans-serif; text-anchor: middle; fill: #222222" x="55.889771" y="148.718151" transform="rotate(-0 55.889771 148.718151)">0.0</text>
     </g>
    </g>
    <g id="xtick_2">
     <g id="line2d_2">
      <g>
       <use xlink:href="#mfbf67128b6" x="126.334809" y="136.899245" style="fill: #222222; stroke: #222222; stroke-width: 0.8"/>
      </g>
     </g>
     <g id="text_2">
      <text style="font-size: 7px; font-family: 'Arial', 'Helvetica', 'DejaVu Sans', sans-serif; text-anchor: middle; fill: #222222" x="126.334809" y="148.718151" transform="rotate(-0 126.334809 148.718151)">0.2</text>
     </g>
    </g>
    <g id="xtick_3">
     <g id="line2d_3">
      <g>
       <use xlink:href="#mfbf67128b6" x="196.779846" y="136.899245" style="fill: #222222; stroke: #222222; stroke-width: 0.8"/>
      </g>
     </g>
     <g id="text_3">
      <text style="font-size: 7px; font-family: 'Arial', 'Helvetica', 'DejaVu Sans', sans-serif; text-anchor: middle; fill: #222222" x="196.779846" y="148.718151" transform="rotate(-0 196.779846 148.718151)">0.4</text>
     </g>
    </g>
    <g id="xtick_4">
     <g id="line2d_4">
      <g>
       <use xlink:href="#mfbf67128b6" x="267.224884" y="136.899245" style="fill: #222222; stroke: #222222; stroke-width: 0.8"/>
      </g>
     </g>
     <g id="text_4">
      <text style="font-size: 7px; font-family: 'Arial', 'Helvetica', 'DejaVu Sans', sans-serif; text-anchor: middle; fill: #222222" x="267.224884" y="148.718151" transform="rotate(-0 267.224884 148.718151)">0.6</text>
     </g>
    </g>
    <g id="xtick_5">
     <g id="line2d_5">
      <g>
       <use xlink:href="#mfbf67128b6" x="337.669922" y="136.899245" style="fill: #222222; stroke: #222222; stroke-width: 0.8"/>
      </g>
     </g>
     <g id="text_5">
      <text style="font-size: 7px; font-family: 'Arial', 'Helvetica', 'DejaVu Sans', sans-serif; text-anchor: middle; fill: #222222" x="337.669922" y="148.718151" transform="rotate(-0 337.669922 148.718151)">0.8</text>
     </g>
    </g>
    <g id="xtick_6">
     <g id="line2d_6">
      <g>
       <use xlink:href="#mfbf67128b6" x="408.11496" y="136.899245" style="fill: #222222; stroke: #222222; stroke-width: 0.8"/>
      </g>
     </g>
     <g id="text_6">
      <text style="font-size: 7px; font-family: 'Arial', 'Helvetica', 'DejaVu Sans', sans-serif; text-anchor: middle; fill: #222222" x="408.11496" y="148.718151" transform="rotate(-0 408.11496 148.718151)">1.0</text>
     </g>
    </g>
    <g id="text_7">
     <text style="font-size: 8px; font-family: 'Arial', 'Helvetica', 'DejaVu Sans', sans-serif; text-anchor: middle" x="232.002365" y="160.252682" transform="rotate(-0 232.002365 160.252682)">Normalized arc length</text>
    </g>
   </g>
   <g id="matplotlib.axis_2">
    <g id="ytick_1">
     <g id="line2d_7">
      <defs>
       <path id="m2fa9afab9a" d="M 0 0 
L -3 0 
" style="stroke: #222222; stroke-width: 0.8"/>
      </defs>
      <g>
       <use xlink:href="#m2fa9afab9a" x="55.889771" y="131.075865" style="fill: #222222; stroke: #222222; stroke-width: 0.8"/>
      </g>
     </g>
     <g id="text_8">
      <text style="font-size: 7px; font-family: 'Arial', 'Helvetica', 'DejaVu Sans', sans-serif; text-anchor: end; fill: #222222" x="49.389771" y="133.735319" transform="rotate(-0 49.389771 133.735319)">0</text>
     </g>
    </g>
    <g id="ytick_2">
     <g id="line2d_8">
      <g>
       <use xlink:href="#m2fa9afab9a" x="55.889771" y="110.87313" style="fill: #222222; stroke: #222222; stroke-width: 0.8"/>
      </g>
     </g>
     <g id="text_9">
      <text style="font-size: 7px; font-family: 'Arial', 'Helvetica', 'DejaVu Sans', sans-serif; text-anchor: end; fill: #222222" x="49.389771" y="113.532583" transform="rotate(-0 49.389771 113.532583)">50</text>
     </g>
    </g>
    <g id="ytick_3">
     <g id="line2d_9">
      <g>
       <use xlink:href="#m2fa9afab9a" x="55.889771" y="90.670395" style="fill: #222222; stroke: #222222; stroke-width: 0.8"/>
      </g>
     </g>
     <g id="text_10">
      <text style="font-size: 7px; font-family: 'Arial', 'Helvetica', 'DejaVu Sans', sans-serif; text-anchor: end; fill: #222222" x="49.389771" y="93.329848" transform="rotate(-0 49.389771 93.329848)">100</text>
     </g>
    </g>
    <g id="ytick_4">
     <g id="line2d_10">
      <g>
       <use xlink:href="#m2fa9afab9a" x="55.889771" y="70.467659" style="fill: #222222; stroke: #222222; stroke-width: 0.8"/>
      </g>
     </g>
     <g id="text_11">
      <text style="font-size: 7px; font-family: 'Arial', 'Helvetica', 'DejaVu Sans', sans-serif; text-anchor: end; fill: #222222" x="49.389771" y="73.127112" transform="rotate(-0 49.389771 73.127112)">150</text>
     </g>
    </g>
    <g id="ytick_5">
     <g id="line2d_11">
      <g>
       <use xlink:href="#m2fa9afab9a" x="55.889771" y="50.264924" style="fill: #222222; stroke: #222222; stroke-width: 0.8"/>
      </g>
     </g>
     <g id="text_12">
      <text style="font-size: 7px; font-family: 'Arial', 'Helvetica', 'DejaVu Sans', sans-serif; text-anchor: end; fill: #222222" x="49.389771" y="52.924377" transform="rotate(-0 49.389771 52.924377)">200</text>
     </g>
    </g>
    <g id="ytick_6">
     <g id="line2d_12">
      <g>
       <use xlink:href="#m2fa9afab9a" x="55.889771" y="30.062189" style="fill: #222222; stroke: #222222; stroke-width: 0.8"/>
      </g>
     </g>
     <g id="text_13">
      <text style="font-size: 7px; font-family: 'Arial', 'Helvetica', 'DejaVu Sans', sans-serif; text-anchor: end; fill: #222222" x="49.389771" y="32.721642" transform="rotate(-0 49.389771 32.721642)">250</text>
     </g>
    </g>
    <g id="ytick_7">
     <g id="line2d_13">
      <g>
       <use xlink:href="#m2fa9afab9a" x="55.889771" y="9.859453" style="fill: #222222; stroke: #222222; stroke-width: 0.8"/>
      </g>
     </g>
     <g id="text_14">
      <text style="font-size: 7px; font-family: 'Arial', 'Helvetica', 'DejaVu Sans', sans-serif; text-anchor: end; fill: #222222" x="49.389771" y="12.518906" transform="rotate(-0 49.389771 12.518906)">300</text>
     </g>
    </g>
    <g id="text_15">
     <!-- $|\kappa_g|$ -->
     <g transform="translate(7.2 68.558918)">
      <text>
       <tspan x="0" y="-0.25" style="font-size: 13px; font-family: 'cmsy10'">j</tspan>
       <tspan x="16.259572" y="-0.25" style="font-size: 13px; font-family: 'cmsy10'">j</tspan>
       <tspan x="3.599121" y="-0.25" style="font-size: 13px; font-family: 'cmmi10'">∙</tspan>
       <tspan x="11.089355" y="1.960812" style="font-size: 9.1px; font-family: 'cmmi10'">g</tspan>
      </text>
     </g>
    </g>
   </g>
   <g id="line2d_14">
    <path d="M 62.873259 125.938984 
L 68.191465 117.862362 
L 73.463582 126.902671 
L 78.567164 129.446378 
L 82.845547 122.493236 
L 88.32932 130.078708 
L 93.111029 128.72521 
L 98.318064 130.952031 
L 103.597516 78.052857 
L 115.903103 45.51171 
L 121.173978 131.063618 
L 126.373085 123.361298 
L 131.694627 121.849192 
L 136.390673 127.516205 
L 141.600413 123.416934 
L 146.610099 129.04845 
L 151.572213 131.06467 
L 156.564224 123.664151 
L 161.867339 124.290248 
L 168.443005 48.332511 
L 179.016218 62.709543 
L 185.505037 125.883004 
L 190.752451 128.030913 
L 196.759653 126.115539 
L 201.725563 129.279659 
L 206.621371 129.622839 
L 212.281724 121.665947 
L 217.236494 122.68215 
L 222.35134 124.52185 
L 228.151725 128.874708 
L 233.342605 48.843302 
L 245.64987 62.442747 
L 250.660955 123.998312 
L 256.464594 129.462174 
L 260.451113 120.115643 
L 265.888036 127.860631 
L 270.126976 129.297404 
L 275.183653 128.273702 
L 280.191424 127.269444 
L 285.285573 128.511902 
L 290.59509 129.438754 
L 297.251711 77.411422 
L 309.826819 37.747273 
L 315.904326 113.724552 
L 321.099027 119.579542 
L 326.472918 122.980272 
L 331.619636 126.487766 
L 336.817114 114.902398 
L 341.362373 102.490991 
L 346.196014 122.836366 
L 351.26647 122.321778 
L 356.435365 58.628503 
L 367.186575 63.20529 
L 374.982863 105.824497 
L 378.892013 112.159694 
L 385.456027 118.372987 
L 390.173942 119.049758 
L 395.032887 123.340798 
L 401.389542 128.021067 
" clip-path="url(#p9f1e0a0898)" style="fill: none; stroke: #c73e3a; stroke-width: 1.55; stroke-linecap: square"/>
   </g>
   <g id="line2d_15">
    <path d="M 69.386077 126.202353 
L 72.953751 130.399356 
L 80.542107 125.71632 
L 87.003672 129.062106 
L 94.098598 128.181136 
L 101.150123 126.499272 
L 107.64773 120.971262 
L 113.156647 106.595264 
L 117.43002 65.06824 
L 121.012681 30.863336 
L 124.495962 85.628745 
L 129.199776 114.798436 
L 135.124049 121.447448 
L 141.846444 124.260255 
L 148.972331 128.548009 
L 156.139682 128.646639 
L 163.13704 125.468395 
L 169.440692 119.026164 
L 174.619923 101.425316 
L 178.34241 33.217267 
L 181.56261 33.846015 
L 185.5061 101.717566 
L 190.925553 119.974953 
L 197.523724 125.941488 
L 204.724343 127.041313 
L 211.982813 130.417668 
L 219.145253 125.982105 
L 225.949117 123.594235 
L 232.034347 118.703482 
L 236.969315 94.183833 
L 240.566864 26.580024 
L 243.922132 44.312805 
L 247.747239 100.636433 
L 252.851831 120.077191 
L 258.956378 125.703919 
L 265.695214 126.561246 
L 272.541727 129.202132 
L 279.548352 124.233349 
L 286.492029 122.877115 
L 292.923186 118.276946 
L 298.376832 103.516479 
L 302.661121 58.734867 
L 306.353036 39.002248 
L 310.181244 96.851638 
L 315.297059 117.824009 
L 321.567521 124.682684 
L 328.539367 127.501623 
L 335.595635 123.303527 
L 342.1541 120.797486 
L 347.767102 111.681241 
L 352.201019 77.055196 
L 355.419953 14.373167 
L 358.889568 72.587764 
L 363.358269 112.112988 
L 369.14597 122.472656 
L 376.109714 126.99151 
L 382.847717 128.40334 
L 390.693728 130.208127 
L 394.382817 128.86441 
" clip-path="url(#p9f1e0a0898)" style="fill: none; stroke: #6c6c6c; stroke-width: 1.35; stroke-linecap: square"/>
   </g>
   <g id="line2d_16">
    <path d="M 63.983862 117.395464 
L 70.070418 123.162805 
L 76.640628 127.48304 
L 83.452563 129.942485 
L 89.282255 129.913312 
L 96.507423 127.964872 
L 102.199535 122.14423 
L 107.379383 109.211359 
L 111.454244 77.568046 
L 118.270677 71.066831 
L 121.757436 99.326519 
L 126.148569 113.935383 
L 131.928716 123.326212 
L 137.933707 127.525709 
L 145.170246 128.754214 
L 152.308329 130.87609 
L 159.126048 128.45605 
L 165.228575 122.67806 
L 170.337853 103.856193 
L 174.515689 53.130783 
L 179.896851 83.087456 
L 184.662394 113.024097 
L 189.538179 119.863971 
L 196.303986 125.807843 
L 202.669106 128.828851 
L 209.291542 130.660842 
L 216.901451 130.040559 
L 223.088343 127.275234 
L 228.598808 119.957638 
L 233.378179 93.708833 
L 236.44263 55.182792 
L 243.05736 84.891641 
L 246.876996 108.682475 
L 252.29283 115.5371 
L 256.741653 124.617279 
L 263.609597 129.302924 
L 269.32129 129.296194 
L 276.190421 126.997787 
L 282.824561 125.08482 
L 289.15927 124.093247 
L 294.936083 116.349148 
L 300.38356 58.354394 
L 306.918631 69.455918 
L 311.718542 113.030927 
L 316.991085 120.469825 
L 323.564398 126.8428 
L 330.510316 131.025298 
L 337.535341 126.890424 
L 343.203463 121.212475 
L 348.436721 117.181258 
L 352.994794 108.944553 
L 356.619793 50.801476 
L 361.631074 63.610429 
L 368.078746 119.570503 
L 372.50534 127.047658 
L 380.982113 128.709484 
L 387.358814 129.829052 
L 393.714434 130.808033 
L 401.188429 127.678239 
" clip-path="url(#p9f1e0a0898)" style="fill: none; stroke: #4c78a8; stroke-width: 1.35; stroke-linecap: square"/>
   </g>
   <g id="line2d_17">
    <path d="M 62.77504 125.938984 
L 68.018447 122.014122 
L 74.795352 130.954325 
L 79.012996 128.153606 
L 82.424098 124.411177 
L 87.830745 128.380527 
L 91.768776 130.988709 
L 99.762852 124.711766 
L 102.926799 87.036865 
L 115.773518 84.722743 
L 117.745744 114.430331 
L 126.112763 121.948671 
L 130.728063 124.218814 
L 136.136429 125.875519 
L 141.272897 123.416934 
L 146.212124 129.04845 
L 151.104448 127.915922 
L 155.258039 128.421163 
L 165.65028 97.683853 
L 167.939224 95.814381 
L 179.296543 88.783468 
L 182.087516 108.767059 
L 191.919256 128.503471 
L 194.495388 127.897306 
L 202.172398 126.67138 
L 205.446091 130.605838 
L 211.20452 129.577165 
L 216.091875 128.527997 
L 220.608322 130.417037 
L 227.287318 113.445933 
L 232.170095 85.035676 
L 246.991067 88.053782 
L 249.555754 119.817743 
L 258.059254 123.775109 
L 262.761434 126.822253 
L 267.138016 126.800292 
L 271.317337 129.297404 
L 276.302894 129.980669 
L 282.043523 129.02372 
L 286.972816 120.295023 
L 292.213177 121.136955 
L 298.330774 92.43261 
L 310.980756 85.006409 
L 314.860827 111.691913 
L 323.783859 124.945532 
L 330.263736 130.177478 
L 334.038647 119.722907 
L 340.097137 124.972026 
L 343.560432 129.180893 
L 349.043913 124.057688 
L 356.171988 111.173157 
L 358.649706 75.157457 
L 369.289452 89.249349 
L 377.894208 124.864455 
L 381.663238 120.113489 
L 387.150607 127.301324 
L 390.698536 127.972199 
L 394.589579 126.150746 
L 402.490904 126.059166 
" clip-path="url(#p9f1e0a0898)" style="fill: none; stroke: #4daf7c; stroke-width: 1.75; stroke-linecap: square"/>
   </g>
   <g id="patch_3">
    <path d="M 55.889771 136.899245 
L 55.889771 8.538591 
" style="fill: none; stroke: #222222; stroke-width: 0.8; stroke-linejoin: miter; stroke-linecap: square"/>
   </g>
   <g id="patch_4">
    <path d="M 55.889771 136.899245 
L 408.11496 136.899245 
" style="fill: none; stroke: #222222; stroke-width: 0.8; stroke-linejoin: miter; stroke-linecap: square"/>
   </g>
   <g id="legend_1">
    <g id="patch_5">
     <path d="M 327.964179 41.894841 
L 404.61496 41.894841 
Q 405.61496 41.894841 405.61496 40.894841 
L 405.61496 12.038591 
Q 405.61496 11.038591 404.61496 11.038591 
L 327.964179 11.038591 
Q 326.964179 11.038591 326.964179 12.038591 
L 326.964179 40.894841 
Q 326.964179 41.894841 327.964179 41.894841 
z
" style="fill: #ffffff; opacity: 0.8; stroke: #cccccc; stroke-linejoin: miter"/>
    </g>
    <g id="line2d_18">
     <path d="M 328.964179 15.08781 
L 333.964179 15.08781 
L 338.964179 15.08781 
" style="fill: none; stroke: #c73e3a; stroke-width: 1.55; stroke-linecap: square"/>
    </g>
    <g id="text_16">
     <text style="font-size: 5px; font-family: 'Arial', 'Helvetica', 'DejaVu Sans', sans-serif; text-anchor: start" x="342.964179" y="16.83781" transform="rotate(-0 342.964179 16.83781)">Original</text>
    </g>
    <g id="line2d_19">
     <path d="M 328.964179 22.426873 
L 333.964179 22.426873 
L 338.964179 22.426873 
" style="fill: none; stroke: #6c6c6c; stroke-width: 1.35; stroke-linecap: square"/>
    </g>
    <g id="text_17">
     <text style="font-size: 5px; font-family: 'Arial', 'Helvetica', 'DejaVu Sans', sans-serif; text-anchor: start" x="342.964179" y="24.176873" transform="rotate(-0 342.964179 24.176873)">Moving-average smooth</text>
    </g>
    <g id="line2d_20">
     <path d="M 328.964179 29.765935 
L 333.964179 29.765935 
L 338.964179 29.765935 
" style="fill: none; stroke: #4c78a8; stroke-width: 1.35; stroke-linecap: square"/>
    </g>
    <g id="text_18">
     <text style="font-size: 5px; font-family: 'Arial', 'Helvetica', 'DejaVu Sans', sans-serif; text-anchor: start" x="342.964179" y="31.515935" transform="rotate(-0 342.964179 31.515935)">B-spline</text>
    </g>
    <g id="line2d_21">
     <path d="M 328.964179 37.104998 
L 333.964179 37.104998 
L 338.964179 37.104998 
" style="fill: none; stroke: #4daf7c; stroke-width: 1.75; stroke-linecap: square"/>
    </g>
    <g id="text_19">
     <text style="font-size: 5px; font-family: 'Arial', 'Helvetica', 'DejaVu Sans', sans-serif; text-anchor: start" x="342.964179" y="38.854998" transform="rotate(-0 342.964179 38.854998)">Geodesic optimized</text>
    </g>
   </g>
  </g>
 </g>
 <defs>
  <clipPath id="p9f1e0a0898">
   <rect x="55.889771" y="8.538591" width="352.225189" height="128.360653"/>
  </clipPath>
 </defs>
</svg>
