<?xml version="1.0" encoding="utf-8" standalone="no"?>
<!DOCTYPE svg PUBLIC "-//W3C//DTD SVG 1.1//EN"
  "http://www.w3.org/Graphics/SVG/1.1/DTD/svg11.dtd">
<svg xmlns:xlink="http://www.w3.org/1999/xlink" width="420.222356pt" height="169.200156pt" viewBox="0 0 420.222356 169.200156" xmlns="http://www.w3.org/2000/svg" version="1.1">
 <metadata>
  <rdf:RDF xmlns:dc="http://purl.org/dc/elements/1.1/" xmlns:cc="http://creativecommons.org/ns#" xmlns:rdf="http://www.w3.org/1999/02/22-rdf-syntax-ns#">
   <cc:Work>
    <dc:type rdf:resource="http://purl.org/dc/dcmitype/StillImage"/>
    <dc:date>2026-06-23T12:37:48.961998</dc:date>
    <dc:format>image/svg+xml</dc:format>
    <dc:creator>
     <cc:Agent>
      <dc:title>Matplotlib v3.11.0, https://matplotlib.org/</dc:title>
     </cc:Agent>
    </dc:creator>
   </cc:Work>
  </rdf:RDF>
 </metadata>
 <defs>
  <style type="text/css">*{stroke-linejoin: round; stroke-linecap: butt}</style>
 </defs>
 <g id="figure_1">
  <g id="patch_1">
   <path d="M 0 169.200156 
L 420.222356 169.200156 
L 420.222356 0 
L 0 0 
z
" style="fill: #ffffff"/>
  </g>
  <g id="axes_1">
   <g id="patch_2">
    <path d="M 60.177756 137.422852 
L 408.157356 137.422852 
L 408.157356 7.2 
L 60.177756 7.2 
z
" style="fill: #ffffff"/>
   </g>
   <g id="matplotlib.axis_1">
    <g id="xtick_1">
     <g id="line2d_1">
      <defs>
       <path id="m2b5953f322" d="M 0 0 
L 0 3 
" style="stroke: #222222; stroke-width: 0.8"/>
      </defs>
      <g>
       <use xlink:href="#m2b5953f322" x="60.177756" y="137.422852" style="fill: #222222; stroke: #222222; stroke-width: 0.8"/>
      </g>
     </g>
     <g id="text_1">
      <text style="font-size: 7px; font-family: 'Arial', 'Helvetica', 'DejaVu Sans', sans-serif; text-anchor: middle; fill: #222222" x="60.177756" y="149.019043" transform="rotate(-0 60.177756 149.019043)">0.0</text>
     </g>
    </g>
    <g id="xtick_2">
     <g id="line2d_2">
      <g>
       <use xlink:href="#m2b5953f322" x="129.773676" y="137.422852" style="fill: #222222; stroke: #222222; stroke-width: 0.8"/>
      </g>
     </g>
     <g id="text_2">
      <text style="font-size: 7px; font-family: 'Arial', 'Helvetica', 'DejaVu Sans', sans-serif; text-anchor: middle; fill: #222222" x="129.773676" y="149.019043" transform="rotate(-0 129.773676 149.019043)">0.2</text>
     </g>
    </g>
    <g id="xtick_3">
     <g id="line2d_3">
      <g>
       <use xlink:href="#m2b5953f322" x="199.369596" y="137.422852" style="fill: #222222; stroke: #222222; stroke-width: 0.8"/>
      </g>
     </g>
     <g id="text_3">
      <text style="font-size: 7px; font-family: 'Arial', 'Helvetica', 'DejaVu Sans', sans-serif; text-anchor: middle; fill: #222222" x="199.369596" y="149.019043" transform="rotate(-0 199.369596 149.019043)">0.4</text>
     </g>
    </g>
    <g id="xtick_4">
     <g id="line2d_4">
      <g>
       <use xlink:href="#m2b5953f322" x="268.965516" y="137.422852" style="fill: #222222; stroke: #222222; stroke-width: 0.8"/>
      </g>
     </g>
     <g id="text_4">
      <text style="font-size: 7px; font-family: 'Arial', 'Helvetica', 'DejaVu Sans', sans-serif; text-anchor: middle; fill: #222222" x="268.965516" y="149.019043" transform="rotate(-0 268.965516 149.019043)">0.6</text>
     </g>
    </g>
    <g id="xtick_5">
     <g id="line2d_5">
      <g>
       <use xlink:href="#m2b5953f322" x="338.561436" y="137.422852" style="fill: #222222; stroke: #222222; stroke-width: 0.8"/>
      </g>
     </g>
     <g id="text_5">
      <text style="font-size: 7px; font-family: 'Arial', 'Helvetica', 'DejaVu Sans', sans-serif; text-anchor: middle; fill: #222222" x="338.561436" y="149.019043" transform="rotate(-0 338.561436 149.019043)">0.8</text>
     </g>
    </g>
    <g id="xtick_6">
     <g id="line2d_6">
      <g>
       <use xlink:href="#m2b5953f322" x="408.157356" y="137.422852" style="fill: #222222; stroke: #222222; stroke-width: 0.8"/>
      </g>
     </g>
     <g id="text_6">
      <text style="font-size: 7px; font-family: 'Arial', 'Helvetica', 'DejaVu Sans', sans-serif; text-anchor: middle; fill: #222222" x="408.157356" y="149.019043" transform="rotate(-0 408.157356 149.019043)">1.0</text>
     </g>
    </g>
    <g id="text_7">
     <text style="font-size: 8px; font-family: 'Arial', 'Helvetica', 'DejaVu Sans', sans-serif; text-anchor: middle" x="234.167556" y="160.316406" transform="rotate(-0 234.167556 160.316406)">Normalized arc length</text>
    </g>
   </g>
   <g id="matplotlib.axis_2">
    <g id="ytick_1">
     <g id="line2d_7">
      <defs>
       <path id="m918842096f" d="M 0 0 
L -3 0 
" style="stroke: #222222; stroke-width: 0.8"/>
      </defs>
      <g>
       <use xlink:href="#m918842096f" x="60.177756" y="131.503631" style="fill: #222222; stroke: #222222; stroke-width: 0.8"/>
      </g>
     </g>
     <g id="text_8">
      <text style="font-size: 7px; font-family: 'Arial', 'Helvetica', 'DejaVu Sans', sans-serif; text-anchor: end; fill: #222222" x="53.677756" y="134.051727" transform="rotate(-0 53.677756 134.051727)">0</text>
     </g>
    </g>
    <g id="ytick_2">
     <g id="line2d_8">
      <g>
       <use xlink:href="#m918842096f" x="60.177756" y="114.178429" style="fill: #222222; stroke: #222222; stroke-width: 0.8"/>
      </g>
     </g>
     <g id="text_9">
      <text style="font-size: 7px; font-family: 'Arial', 'Helvetica', 'DejaVu Sans', sans-serif; text-anchor: end; fill: #222222" x="53.677756" y="116.726525" transform="rotate(-0 53.677756 116.726525)">2</text>
     </g>
    </g>
    <g id="ytick_3">
     <g id="line2d_9">
      <g>
       <use xlink:href="#m918842096f" x="60.177756" y="96.853228" style="fill: #222222; stroke: #222222; stroke-width: 0.8"/>
      </g>
     </g>
     <g id="text_10">
      <text style="font-size: 7px; font-family: 'Arial', 'Helvetica', 'DejaVu Sans', sans-serif; text-anchor: end; fill: #222222" x="53.677756" y="99.401324" transform="rotate(-0 53.677756 99.401324)">4</text>
     </g>
    </g>
    <g id="ytick_4">
     <g id="line2d_10">
      <g>
       <use xlink:href="#m918842096f" x="60.177756" y="79.528026" style="fill: #222222; stroke: #222222; stroke-width: 0.8"/>
      </g>
     </g>
     <g id="text_11">
      <text style="font-size: 7px; font-family: 'Arial', 'Helvetica', 'DejaVu Sans', sans-serif; text-anchor: end; fill: #222222" x="53.677756" y="82.076122" transform="rotate(-0 53.677756 82.076122)">6</text>
     </g>
    </g>
    <g id="ytick_5">
     <g id="line2d_11">
      <g>
       <use xlink:href="#m918842096f" x="60.177756" y="62.202825" style="fill: #222222; stroke: #222222; stroke-width: 0.8"/>
      </g>
     </g>
     <g id="text_12">
      <text style="font-size: 7px; font-family: 'Arial', 'Helvetica', 'DejaVu Sans', sans-serif; text-anchor: end; fill: #222222" x="53.677756" y="64.750921" transform="rotate(-0 53.677756 64.750921)">8</text>
     </g>
    </g>
    <g id="ytick_6">
     <g id="line2d_12">
      <g>
       <use xlink:href="#m918842096f" x="60.177756" y="44.877623" style="fill: #222222; stroke: #222222; stroke-width: 0.8"/>
      </g>
     </g>
     <g id="text_13">
      <text style="font-size: 7px; font-family: 'Arial', 'Helvetica', 'DejaVu Sans', sans-serif; text-anchor: end; fill: #222222" x="53.677756" y="47.425719" transform="rotate(-0 53.677756 47.425719)">10</text>
     </g>
    </g>
    <g id="ytick_7">
     <g id="line2d_13">
      <g>
       <use xlink:href="#m918842096f" x="60.177756" y="27.552422" style="fill: #222222; stroke: #222222; stroke-width: 0.8"/>
      </g>
     </g>
     <g id="text_14">
      <text style="font-size: 7px; font-family: 'Arial', 'Helvetica', 'DejaVu Sans', sans-serif; text-anchor: end; fill: #222222" x="53.677756" y="30.100517" transform="rotate(-0 53.677756 30.100517)">12</text>
     </g>
    </g>
    <g id="ytick_8">
     <g id="line2d_14">
      <g>
       <use xlink:href="#m918842096f" x="60.177756" y="10.22722" style="fill: #222222; stroke: #222222; stroke-width: 0.8"/>
      </g>
     </g>
     <g id="text_15">
      <text style="font-size: 7px; font-family: 'Arial', 'Helvetica', 'DejaVu Sans', sans-serif; text-anchor: end; fill: #222222" x="53.677756" y="12.775316" transform="rotate(-0 53.677756 12.775316)">14</text>
     </g>
    </g>
    <g id="text_16">
     <!-- $d$ -->
     <g transform="translate(18.72 55.087793)">
      <text>
       <tspan x="0" y="-0.671875" style="font-size: 12px; font-family: 'cmmi10'">d</tspan>
      </text>
     </g>
     <!-- $(\mathrm{mm})$ -->
     <g transform="translate(7.2 68.412012)">
      <text>
       <tspan x="0" y="-0" style="font-size: 12px; font-family: 'cmr10'">(</tspan>
       <tspan x="4.658203" y="-0" style="font-size: 12px; font-family: 'cmr10'">m</tspan>
       <tspan x="14.654297" y="-0" style="font-size: 12px; font-family: 'cmr10'">m</tspan>
       <tspan x="24.650391" y="-0" style="font-size: 12px; font-family: 'cmr10'">)</tspan>
      </text>
     </g>
    </g>
   </g>
   <g id="line2d_15">
    <path d="M 60.177756 131.503631 
L 65.520352 89.934851 
L 70.59095 124.449664 
L 75.658282 114.676963 
L 80.487164 111.274651 
L 85.269656 99.595158 
L 90.53867 114.939944 
L 94.946822 109.802444 
L 99.7523 74.751403 
L 105.033317 13.119221 
L 117.976379 33.014088 
L 122.754387 76.786243 
L 127.477736 98.266561 
L 132.415881 115.485637 
L 137.329908 114.815467 
L 141.155585 114.007693 
L 145.821698 112.74343 
L 150.544927 114.729472 
L 155.51187 107.037431 
L 160.696897 76.937443 
L 165.967868 23.522582 
L 176.629856 27.018264 
L 182.476944 82.861338 
L 187.259998 103.322054 
L 193.596487 104.591825 
L 198.235804 107.507619 
L 202.815138 109.76085 
L 207.460035 111.371417 
L 212.558545 121.265574 
L 217.704835 107.66893 
L 221.714382 84.600404 
L 227.709472 27.605552 
L 237.958829 34.370598 
L 242.685569 81.736801 
L 247.857596 116.14981 
L 252.356858 114.268307 
L 257.180463 114.43235 
L 261.812849 112.405699 
L 266.379362 110.087839 
L 271.824486 111.452793 
L 276.65032 105.159249 
L 281.765199 84.708206 
L 288.144981 22.097707 
L 299.620011 18.005661 
L 305.170389 82.25727 
L 310.147714 109.180919 
L 315.234821 110.087828 
L 319.768782 115.583233 
L 324.39929 116.93855 
L 329.093576 119.007155 
L 333.077206 119.381141 
L 337.981525 102.356067 
L 342.006522 74.940109 
L 346.363643 30.932491 
L 359.795383 15.838523 
L 365.303976 82.827685 
L 370.55402 107.150129 
L 375.257903 110.693579 
L 380.037853 104.110683 
L 384.752893 102.109113 
L 389.36363 68.340593 
L 395.86227 80.996676 
L 408.157356 131.503631 
" clip-path="url(#p8d16408f91)" style="fill: none; stroke-dasharray: 4.625,2; stroke-dashoffset: 0; stroke: #6c6c6c; stroke-width: 1.25"/>
   </g>
   <g id="line2d_16">
    <path d="M 60.177756 111.877436 
L 65.520352 113.354639 
L 70.59095 101.737075 
L 75.658282 120.178417 
L 80.487164 119.119047 
L 85.269656 96.774363 
L 90.53867 101.007641 
L 94.946822 110.79166 
L 99.7523 111.470019 
L 105.033317 59.026178 
L 117.976379 79.796847 
L 122.754387 114.208628 
L 127.477736 117.225382 
L 132.415881 112.782113 
L 137.329908 116.368953 
L 141.155585 120.323506 
L 145.821698 118.219564 
L 150.544927 112.208032 
L 155.51187 106.604358 
L 160.696897 102.896368 
L 165.967868 78.058866 
L 176.629856 63.288394 
L 182.476944 102.511565 
L 187.259998 100.959585 
L 193.596487 116.110802 
L 198.235804 113.507981 
L 202.815138 108.920055 
L 207.460035 104.473533 
L 212.558545 107.070055 
L 217.704835 110.564631 
L 221.714382 113.259326 
L 227.709472 79.557767 
L 237.958829 61.323623 
L 242.685569 102.426311 
L 247.857596 117.548966 
L 252.356858 114.329521 
L 257.180463 112.288463 
L 261.812849 114.108436 
L 266.379362 113.250599 
L 271.824486 115.849532 
L 276.65032 117.576507 
L 281.765199 115.124491 
L 288.144981 68.373947 
L 299.620011 73.371716 
L 305.170389 111.746189 
L 310.147714 110.573387 
L 315.234821 109.052439 
L 319.768782 122.34424 
L 324.39929 121.737498 
L 329.093576 115.39056 
L 333.077206 112.771953 
L 337.981525 119.585738 
L 342.006522 113.756325 
L 346.363643 81.572261 
L 359.795383 60.030929 
L 365.303976 122.987354 
L 370.55402 114.415722 
L 375.257903 104.323227 
L 380.037853 113.448027 
L 384.752893 127.474681 
L 389.36363 121.102396 
L 395.86227 108.2418 
L 408.157356 126.276998 
" clip-path="url(#p8d16408f91)" style="fill: none; stroke-dasharray: 4.995,2.16; stroke-dashoffset: 0; stroke: #4c78a8; stroke-width: 1.35"/>
   </g>
   <g id="line2d_17">
    <path d="M 60.177756 131.503631 
L 65.520352 131.503631 
L 70.59095 131.503631 
L 75.658282 111.997252 
L 80.487164 118.274336 
L 85.269656 109.924541 
L 90.53867 103.853476 
L 94.946822 94.266994 
L 99.7523 89.384579 
L 105.033317 131.503631 
L 117.976379 118.381564 
L 122.754387 118.478118 
L 127.477736 118.585346 
L 132.415881 131.503631 
L 137.329908 131.503631 
L 141.155585 131.503631 
L 145.821698 131.503631 
L 150.544927 118.547991 
L 155.51187 91.188181 
L 160.696897 74.372974 
L 165.967868 131.503631 
L 176.629856 131.503631 
L 182.476944 80.45343 
L 187.259998 83.604141 
L 193.596487 131.503631 
L 198.235804 131.503631 
L 202.815138 131.503631 
L 207.460035 131.503631 
L 212.558545 131.503631 
L 217.704835 105.99167 
L 221.714382 97.052373 
L 227.709472 102.599252 
L 237.958829 105.789293 
L 242.685569 91.492894 
L 247.857596 110.726616 
L 252.356858 113.651089 
L 257.180463 114.840702 
L 261.812849 113.70147 
L 266.379362 113.784623 
L 271.824486 113.509122 
L 276.65032 82.843421 
L 281.765199 77.61265 
L 288.144981 118.342942 
L 299.620011 131.503631 
L 305.170389 78.464533 
L 310.147714 102.186898 
L 315.234821 108.978647 
L 319.768782 131.503631 
L 324.39929 131.503631 
L 329.093576 131.503631 
L 333.077206 131.503631 
L 337.981525 131.503631 
L 342.006522 99.736099 
L 346.363643 118.580926 
L 359.795383 131.503631 
L 365.303976 84.144651 
L 370.55402 110.942177 
L 375.257903 101.146801 
L 380.037853 131.503631 
L 384.752893 101.794698 
L 389.36363 131.503631 
L 395.86227 131.503631 
L 408.157356 131.503631 
" clip-path="url(#p8d16408f91)" style="fill: none; stroke-dasharray: 4.995,2.16; stroke-dashoffset: 0; stroke: #4daf7c; stroke-width: 1.35"/>
   </g>
   <g id="patch_3">
    <path d="M 60.177756 137.422852 
L 60.177756 7.2 
" style="fill: none; stroke: #222222; stroke-width: 0.8; stroke-linejoin: miter; stroke-linecap: square"/>
   </g>
   <g id="patch_4">
    <path d="M 60.177756 137.422852 
L 408.157356 137.422852 
" style="fill: none; stroke: #222222; stroke-width: 0.8; stroke-linejoin: miter; stroke-linecap: square"/>
   </g>
   <g id="legend_1">
    <g id="patch_5">
     <path d="M 335.023762 32.777246 
L 404.657356 32.777246 
Q 405.657356 32.777246 405.657356 31.777246 
L 405.657356 10.7 
Q 405.657356 9.7 404.657356 9.7 
L 335.023762 9.7 
Q 334.023762 9.7 334.023762 10.7 
L 334.023762 31.777246 
Q 334.023762 32.777246 335.023762 32.777246 
z
" style="fill: #ffffff; opacity: 0.8; stroke: #cccccc; stroke-linejoin: miter"/>
    </g>
    <g id="line2d_18">
     <path d="M 336.023762 13.590137 
L 341.023762 13.590137 
L 346.023762 13.590137 
" style="fill: none; stroke-dasharray: 4.625,2; stroke-dashoffset: 0; stroke: #6c6c6c; stroke-width: 1.25"/>
    </g>
    <g id="text_17">
     <text style="font-size: 5px; font-family: 'Arial', 'Helvetica', 'DejaVu Sans', sans-serif; text-anchor: start" x="350.023762" y="15.340137" transform="rotate(-0 350.023762 15.340137)">Moving-average smooth</text>
    </g>
    <g id="line2d_19">
     <path d="M 336.023762 20.782617 
L 341.023762 20.782617 
L 346.023762 20.782617 
" style="fill: none; stroke-dasharray: 4.995,2.16; stroke-dashoffset: 0; stroke: #4c78a8; stroke-width: 1.35"/>
    </g>
    <g id="text_18">
     <text style="font-size: 5px; font-family: 'Arial', 'Helvetica', 'DejaVu Sans', sans-serif; text-anchor: start" x="350.023762" y="22.532617" transform="rotate(-0 350.023762 22.532617)">B-spline</text>
    </g>
    <g id="line2d_20">
     <path d="M 336.023762 27.975 
L 341.023762 27.975 
L 346.023762 27.975 
" style="fill: none; stroke-dasharray: 4.995,2.16; stroke-dashoffset: 0; stroke: #4daf7c; stroke-width: 1.35"/>
    </g>
    <g id="text_19">
     <text style="font-size: 5px; font-family: 'Arial', 'Helvetica', 'DejaVu Sans', sans-serif; text-anchor: start" x="350.023762" y="29.725" transform="rotate(-0 350.023762 29.725)">Geodesic optimized</text>
    </g>
   </g>
  </g>
 </g>
 <defs>
  <clipPath id="p8d16408f91">
   <rect x="60.177756" y="7.2" width="347.9796" height="130.222852"/>
  </clipPath>
 </defs>
</svg>
