<?xml version="1.0" encoding="utf-8" standalone="no"?>
<!DOCTYPE svg PUBLIC "-//W3C//DTD SVG 1.1//EN"
  "http://www.w3.org/Graphics/SVG/1.1/DTD/svg11.dtd">
<svg xmlns:xlink="http://www.w3.org/1999/xlink" width="420.222356pt" height="169.200156pt" viewBox="0 0 420.222356 169.200156" xmlns="http://www.w3.org/2000/svg" version="1.1">
 <metadata>
  <rdf:RDF xmlns:dc="http://purl.org/dc/elements/1.1/" xmlns:cc="http://creativecommons.org/ns#" xmlns:rdf="http://www.w3.org/1999/02/22-rdf-syntax-ns#">
   <cc:Work>
    <dc:type rdf:resource="http://purl.org/dc/dcmitype/StillImage"/>
    <dc:date>2026-06-23T12:37:43.105209</dc:date>
    <dc:format>image/svg+xml</dc:format>
    <dc:creator>
     <cc:Agent>
      <dc:title>Matplotlib v3.11.0, https://matplotlib.org/</dc:title>
     </cc:Agent>
    </dc:creator>
   </cc:Work>
  </rdf:RDF>
 </metadata>
 <defs>
  <style type="text/css">*{stroke-linejoin: round; stroke-linecap: butt}</style>
 </defs>
 <g id="figure_1">
  <g id="patch_1">
   <path d="M 0 169.200156 
L 420.222356 169.200156 
L 420.222356 0 
L 0 0 
z
" style="fill: #ffffff"/>
  </g>
  <g id="axes_1">
   <g id="patch_2">
    <path d="M 60.177756 137.422852 
L 408.157356 137.422852 
L 408.157356 7.2 
L 60.177756 7.2 
z
" style="fill: #ffffff"/>
   </g>
   <g id="matplotlib.axis_1">
    <g id="xtick_1">
     <g id="line2d_1">
      <defs>
       <path id="m0e3438b4ad" d="M 0 0 
L 0 3 
" style="stroke: #222222; stroke-width: 0.8"/>
      </defs>
      <g>
       <use xlink:href="#m0e3438b4ad" x="60.177756" y="137.422852" style="fill: #222222; stroke: #222222; stroke-width: 0.8"/>
      </g>
     </g>
     <g id="text_1">
      <text style="font-size: 7px; font-family: 'Arial', 'Helvetica', 'DejaVu Sans', sans-serif; text-anchor: middle; fill: #222222" x="60.177756" y="149.019043" transform="rotate(-0 60.177756 149.019043)">0.0</text>
     </g>
    </g>
    <g id="xtick_2">
     <g id="line2d_2">
      <g>
       <use xlink:href="#m0e3438b4ad" x="129.773676" y="137.422852" style="fill: #222222; stroke: #222222; stroke-width: 0.8"/>
      </g>
     </g>
     <g id="text_2">
      <text style="font-size: 7px; font-family: 'Arial', 'Helvetica', 'DejaVu Sans', sans-serif; text-anchor: middle; fill: #222222" x="129.773676" y="149.019043" transform="rotate(-0 129.773676 149.019043)">0.2</text>
     </g>
    </g>
    <g id="xtick_3">
     <g id="line2d_3">
      <g>
       <use xlink:href="#m0e3438b4ad" x="199.369596" y="137.422852" style="fill: #222222; stroke: #222222; stroke-width: 0.8"/>
      </g>
     </g>
     <g id="text_3">
      <text style="font-size: 7px; font-family: 'Arial', 'Helvetica', 'DejaVu Sans', sans-serif; text-anchor: middle; fill: #222222" x="199.369596" y="149.019043" transform="rotate(-0 199.369596 149.019043)">0.4</text>
     </g>
    </g>
    <g id="xtick_4">
     <g id="line2d_4">
      <g>
       <use xlink:href="#m0e3438b4ad" x="268.965516" y="137.422852" style="fill: #222222; stroke: #222222; stroke-width: 0.8"/>
      </g>
     </g>
     <g id="text_4">
      <text style="font-size: 7px; font-family: 'Arial', 'Helvetica', 'DejaVu Sans', sans-serif; text-anchor: middle; fill: #222222" x="268.965516" y="149.019043" transform="rotate(-0 268.965516 149.019043)">0.6</text>
     </g>
    </g>
    <g id="xtick_5">
     <g id="line2d_5">
      <g>
       <use xlink:href="#m0e3438b4ad" x="338.561436" y="137.422852" style="fill: #222222; stroke: #222222; stroke-width: 0.8"/>
      </g>
     </g>
     <g id="text_5">
      <text style="font-size: 7px; font-family: 'Arial', 'Helvetica', 'DejaVu Sans', sans-serif; text-anchor: middle; fill: #222222" x="338.561436" y="149.019043" transform="rotate(-0 338.561436 149.019043)">0.8</text>
     </g>
    </g>
    <g id="xtick_6">
     <g id="line2d_6">
      <g>
       <use xlink:href="#m0e3438b4ad" x="408.157356" y="137.422852" style="fill: #222222; stroke: #222222; stroke-width: 0.8"/>
      </g>
     </g>
     <g id="text_6">
      <text style="font-size: 7px; font-family: 'Arial', 'Helvetica', 'DejaVu Sans', sans-serif; text-anchor: middle; fill: #222222" x="408.157356" y="149.019043" transform="rotate(-0 408.157356 149.019043)">1.0</text>
     </g>
    </g>
    <g id="text_7">
     <text style="font-size: 8px; font-family: 'Arial', 'Helvetica', 'DejaVu Sans', sans-serif; text-anchor: middle" x="234.167556" y="160.316406" transform="rotate(-0 234.167556 160.316406)">Normalized arc length</text>
    </g>
   </g>
   <g id="matplotlib.axis_2">
    <g id="ytick_1">
     <g id="line2d_7">
      <defs>
       <path id="m365b8a80b9" d="M 0 0 
L -3 0 
" style="stroke: #222222; stroke-width: 0.8"/>
      </defs>
      <g>
       <use xlink:href="#m365b8a80b9" x="60.177756" y="131.503631" style="fill: #222222; stroke: #222222; stroke-width: 0.8"/>
      </g>
     </g>
     <g id="text_8">
      <text style="font-size: 7px; font-family: 'Arial', 'Helvetica', 'DejaVu Sans', sans-serif; text-anchor: end; fill: #222222" x="53.677756" y="134.051727" transform="rotate(-0 53.677756 134.051727)">0</text>
     </g>
    </g>
    <g id="ytick_2">
     <g id="line2d_8">
      <g>
       <use xlink:href="#m365b8a80b9" x="60.177756" y="113.333187" style="fill: #222222; stroke: #222222; stroke-width: 0.8"/>
      </g>
     </g>
     <g id="text_9">
      <text style="font-size: 7px; font-family: 'Arial', 'Helvetica', 'DejaVu Sans', sans-serif; text-anchor: end; fill: #222222" x="53.677756" y="115.881283" transform="rotate(-0 53.677756 115.881283)">2</text>
     </g>
    </g>
    <g id="ytick_3">
     <g id="line2d_9">
      <g>
       <use xlink:href="#m365b8a80b9" x="60.177756" y="95.162743" style="fill: #222222; stroke: #222222; stroke-width: 0.8"/>
      </g>
     </g>
     <g id="text_10">
      <text style="font-size: 7px; font-family: 'Arial', 'Helvetica', 'DejaVu Sans', sans-serif; text-anchor: end; fill: #222222" x="53.677756" y="97.710839" transform="rotate(-0 53.677756 97.710839)">4</text>
     </g>
    </g>
    <g id="ytick_4">
     <g id="line2d_10">
      <g>
       <use xlink:href="#m365b8a80b9" x="60.177756" y="76.9923" style="fill: #222222; stroke: #222222; stroke-width: 0.8"/>
      </g>
     </g>
     <g id="text_11">
      <text style="font-size: 7px; font-family: 'Arial', 'Helvetica', 'DejaVu Sans', sans-serif; text-anchor: end; fill: #222222" x="53.677756" y="79.540395" transform="rotate(-0 53.677756 79.540395)">6</text>
     </g>
    </g>
    <g id="ytick_5">
     <g id="line2d_11">
      <g>
       <use xlink:href="#m365b8a80b9" x="60.177756" y="58.821856" style="fill: #222222; stroke: #222222; stroke-width: 0.8"/>
      </g>
     </g>
     <g id="text_12">
      <text style="font-size: 7px; font-family: 'Arial', 'Helvetica', 'DejaVu Sans', sans-serif; text-anchor: end; fill: #222222" x="53.677756" y="61.369952" transform="rotate(-0 53.677756 61.369952)">8</text>
     </g>
    </g>
    <g id="ytick_6">
     <g id="line2d_12">
      <g>
       <use xlink:href="#m365b8a80b9" x="60.177756" y="40.651412" style="fill: #222222; stroke: #222222; stroke-width: 0.8"/>
      </g>
     </g>
     <g id="text_13">
      <text style="font-size: 7px; font-family: 'Arial', 'Helvetica', 'DejaVu Sans', sans-serif; text-anchor: end; fill: #222222" x="53.677756" y="43.199508" transform="rotate(-0 53.677756 43.199508)">10</text>
     </g>
    </g>
    <g id="ytick_7">
     <g id="line2d_13">
      <g>
       <use xlink:href="#m365b8a80b9" x="60.177756" y="22.480968" style="fill: #222222; stroke: #222222; stroke-width: 0.8"/>
      </g>
     </g>
     <g id="text_14">
      <text style="font-size: 7px; font-family: 'Arial', 'Helvetica', 'DejaVu Sans', sans-serif; text-anchor: end; fill: #222222" x="53.677756" y="25.029064" transform="rotate(-0 53.677756 25.029064)">12</text>
     </g>
    </g>
    <g id="text_15">
     <!-- $d$ -->
     <g transform="translate(18.72 55.087793)">
      <text>
       <tspan x="0" y="-0.671875" style="font-size: 12px; font-family: 'cmmi10'">d</tspan>
      </text>
     </g>
     <!-- $(\mathrm{mm})$ -->
     <g transform="translate(7.2 68.412012)">
      <text>
       <tspan x="0" y="-0" style="font-size: 12px; font-family: 'cmr10'">(</tspan>
       <tspan x="4.658203" y="-0" style="font-size: 12px; font-family: 'cmr10'">m</tspan>
       <tspan x="14.654297" y="-0" style="font-size: 12px; font-family: 'cmr10'">m</tspan>
       <tspan x="24.650391" y="-0" style="font-size: 12px; font-family: 'cmr10'">)</tspan>
      </text>
     </g>
    </g>
   </g>
   <g id="line2d_14">
    <path d="M 60.177756 131.503631 
L 65.667473 84.972568 
L 71.371358 112.328819 
L 76.864317 113.805204 
L 81.665778 121.103906 
L 87.139983 124.752296 
L 91.490781 113.379702 
L 96.950754 105.440503 
L 102.286764 110.770397 
L 108.664839 74.347638 
L 113.186685 29.003949 
L 126.601016 13.119221 
L 133.606988 73.512447 
L 138.567808 103.017408 
L 143.878834 111.757681 
L 149.45961 120.645956 
L 153.996207 120.236729 
L 159.524973 112.656737 
L 165.122238 115.058356 
L 169.425275 113.789835 
L 174.830421 105.958972 
L 181.020498 75.509927 
L 187.30435 23.677923 
L 199.41666 18.247071 
L 205.368852 71.793251 
L 211.539816 109.382376 
L 216.920413 119.159864 
L 222.247586 116.595907 
L 227.495849 114.687506 
L 233.024725 104.58795 
L 237.810695 112.157451 
L 243.995923 120.195109 
L 248.883643 110.875217 
L 254.97689 77.197934 
L 261.988287 21.384403 
L 274.482609 14.140613 
L 280.427866 74.291908 
L 286.294973 111.140657 
L 291.893507 113.172238 
L 297.760333 113.305298 
L 302.287493 113.986783 
L 307.879294 123.714006 
L 313.398635 112.935084 
L 318.700347 106.51105 
L 324.24877 100.966613 
L 329.874308 71.961507 
L 336.506195 24.225267 
L 348.747717 18.02858 
L 355.098033 82.839461 
L 360.643655 113.193759 
L 366.135157 119.04388 
L 370.514991 120.158787 
L 375.897878 116.141121 
L 380.490043 120.623789 
L 386.257061 112.26729 
L 390.886831 109.533039 
L 397.270792 122.742029 
L 402.739298 84.976822 
L 408.157356 131.503631 
" clip-path="url(#pd2c27840bc)" style="fill: none; stroke-dasharray: 4.625,2; stroke-dashoffset: 0; stroke: #6c6c6c; stroke-width: 1.25"/>
   </g>
   <g id="line2d_15">
    <path d="M 60.177756 121.349831 
L 65.667473 124.380112 
L 71.371358 116.73862 
L 76.864317 118.552823 
L 81.665778 122.574906 
L 87.139983 122.86458 
L 91.490781 107.264351 
L 96.950754 92.698936 
L 102.286764 107.034167 
L 108.664839 102.873925 
L 113.186685 64.469583 
L 126.601016 66.813043 
L 133.606988 112.502109 
L 138.567808 111.168566 
L 143.878834 108.995233 
L 149.45961 111.603349 
L 153.996207 120.646952 
L 159.524973 117.590568 
L 165.122238 109.161941 
L 169.425275 100.900636 
L 174.830421 94.613225 
L 181.020498 89.961066 
L 187.30435 71.925783 
L 199.41666 48.854368 
L 205.368852 81.231344 
L 211.539816 113.227335 
L 216.920413 115.646771 
L 222.247586 116.182807 
L 227.495849 117.637258 
L 233.024725 104.351213 
L 237.810695 109.579406 
L 243.995923 109.306679 
L 248.883643 107.436663 
L 254.97689 114.242199 
L 261.988287 75.910339 
L 274.482609 49.350946 
L 280.427866 99.964612 
L 286.294973 112.571557 
L 291.893507 105.331053 
L 297.760333 102.290132 
L 302.287493 104.299068 
L 307.879294 116.426585 
L 313.398635 104.419965 
L 318.700347 105.707145 
L 324.24877 113.929818 
L 329.874308 108.67678 
L 336.506195 68.481575 
L 348.747717 60.482497 
L 355.098033 115.827472 
L 360.643655 110.59683 
L 366.135157 106.250681 
L 370.514991 109.195394 
L 375.897878 115.353629 
L 380.490043 129.081033 
L 386.257061 124.316063 
L 390.886831 126.749679 
L 397.270792 104.449819 
L 402.739298 112.959882 
L 408.157356 107.933015 
" clip-path="url(#pd2c27840bc)" style="fill: none; stroke-dasharray: 4.995,2.16; stroke-dashoffset: 0; stroke: #4c78a8; stroke-width: 1.35"/>
   </g>
   <g id="line2d_16">
    <path d="M 60.177756 131.503631 
L 65.667473 117.562835 
L 71.371358 131.503631 
L 76.864317 112.037418 
L 81.665778 131.503631 
L 87.139983 131.503631 
L 91.490781 131.503631 
L 96.950754 117.778786 
L 102.286764 95.087853 
L 108.664839 101.661414 
L 113.186685 131.503631 
L 126.601016 114.625614 
L 133.606988 80.075884 
L 138.567808 108.700424 
L 143.878834 131.503631 
L 149.45961 131.503631 
L 153.996207 118.023421 
L 159.524973 131.503631 
L 165.122238 131.503631 
L 169.425275 131.503631 
L 174.830421 103.957415 
L 181.020498 75.023601 
L 187.30435 131.503631 
L 199.41666 131.503631 
L 205.368852 75.914416 
L 211.539816 104.465959 
L 216.920413 116.392796 
L 222.247586 131.503631 
L 227.495849 118.155671 
L 233.024725 131.503631 
L 237.810695 118.127006 
L 243.995923 108.726442 
L 248.883643 92.353951 
L 254.97689 83.138724 
L 261.988287 117.592255 
L 274.482609 131.503631 
L 280.427866 72.854919 
L 286.294973 99.178848 
L 291.893507 104.393382 
L 297.760333 118.014631 
L 302.287493 131.503631 
L 307.879294 131.503631 
L 313.398635 101.486869 
L 318.700347 131.503631 
L 324.24877 112.282561 
L 329.874308 75.578368 
L 336.506195 131.503631 
L 348.747717 117.421804 
L 355.098033 84.152444 
L 360.643655 104.480485 
L 366.135157 131.503631 
L 370.514991 131.503631 
L 375.897878 113.37342 
L 380.490043 131.503631 
L 386.257061 131.503631 
L 390.886831 131.503631 
L 397.270792 111.784836 
L 402.739298 117.448015 
L 408.157356 131.503631 
" clip-path="url(#pd2c27840bc)" style="fill: none; stroke-dasharray: 4.995,2.16; stroke-dashoffset: 0; stroke: #4daf7c; stroke-width: 1.35"/>
   </g>
   <g id="patch_3">
    <path d="M 60.177756 137.422852 
L 60.177756 7.2 
" style="fill: none; stroke: #222222; stroke-width: 0.8; stroke-linejoin: miter; stroke-linecap: square"/>
   </g>
   <g id="patch_4">
    <path d="M 60.177756 137.422852 
L 408.157356 137.422852 
" style="fill: none; stroke: #222222; stroke-width: 0.8; stroke-linejoin: miter; stroke-linecap: square"/>
   </g>
   <g id="legend_1">
    <g id="patch_5">
     <path d="M 335.023762 32.777246 
L 404.657356 32.777246 
Q 405.657356 32.777246 405.657356 31.777246 
L 405.657356 10.7 
Q 405.657356 9.7 404.657356 9.7 
L 335.023762 9.7 
Q 334.023762 9.7 334.023762 10.7 
L 334.023762 31.777246 
Q 334.023762 32.777246 335.023762 32.777246 
z
" style="fill: #ffffff; opacity: 0.8; stroke: #cccccc; stroke-linejoin: miter"/>
    </g>
    <g id="line2d_17">
     <path d="M 336.023762 13.590137 
L 341.023762 13.590137 
L 346.023762 13.590137 
" style="fill: none; stroke-dasharray: 4.625,2; stroke-dashoffset: 0; stroke: #6c6c6c; stroke-width: 1.25"/>
    </g>
    <g id="text_16">
     <text style="font-size: 5px; font-family: 'Arial', 'Helvetica', 'DejaVu Sans', sans-serif; text-anchor: start" x="350.023762" y="15.340137" transform="rotate(-0 350.023762 15.340137)">Moving-average smooth</text>
    </g>
    <g id="line2d_18">
     <path d="M 336.023762 20.782617 
L 341.023762 20.782617 
L 346.023762 20.782617 
" style="fill: none; stroke-dasharray: 4.995,2.16; stroke-dashoffset: 0; stroke: #4c78a8; stroke-width: 1.35"/>
    </g>
    <g id="text_17">
     <text style="font-size: 5px; font-family: 'Arial', 'Helvetica', 'DejaVu Sans', sans-serif; text-anchor: start" x="350.023762" y="22.532617" transform="rotate(-0 350.023762 22.532617)">B-spline</text>
    </g>
    <g id="line2d_19">
     <path d="M 336.023762 27.975 
L 341.023762 27.975 
L 346.023762 27.975 
" style="fill: none; stroke-dasharray: 4.995,2.16; stroke-dashoffset: 0; stroke: #4daf7c; stroke-width: 1.35"/>
    </g>
    <g id="text_18">
     <text style="font-size: 5px; font-family: 'Arial', 'Helvetica', 'DejaVu Sans', sans-serif; text-anchor: start" x="350.023762" y="29.725" transform="rotate(-0 350.023762 29.725)">Geodesic optimized</text>
    </g>
   </g>
  </g>
 </g>
 <defs>
  <clipPath id="pd2c27840bc">
   <rect x="60.177756" y="7.2" width="347.9796" height="130.222852"/>
  </clipPath>
 </defs>
</svg>
