<?xml version="1.0" encoding="utf-8" standalone="no"?>
<!DOCTYPE svg PUBLIC "-//W3C//DTD SVG 1.1//EN"
  "http://www.w3.org/Graphics/SVG/1.1/DTD/svg11.dtd">
<svg xmlns:xlink="http://www.w3.org/1999/xlink" width="420.861956pt" height="169.200156pt" viewBox="0 0 420.861956 169.200156" xmlns="http://www.w3.org/2000/svg" version="1.1">
 <metadata>
  <rdf:RDF xmlns:dc="http://purl.org/dc/elements/1.1/" xmlns:cc="http://creativecommons.org/ns#" xmlns:rdf="http://www.w3.org/1999/02/22-rdf-syntax-ns#">
   <cc:Work>
    <dc:type rdf:resource="http://purl.org/dc/dcmitype/StillImage"/>
    <dc:date>2026-06-23T12:37:42.878042</dc:date>
    <dc:format>image/svg+xml</dc:format>
    <dc:creator>
     <cc:Agent>
      <dc:title>Matplotlib v3.11.0, https://matplotlib.org/</dc:title>
     </cc:Agent>
    </dc:creator>
   </cc:Work>
  </rdf:RDF>
 </metadata>
 <defs>
  <style type="text/css">*{stroke-linejoin: round; stroke-linecap: butt}</style>
 </defs>
 <g id="figure_1">
  <g id="patch_1">
   <path d="M 0 169.200156 
L 420.861956 169.200156 
L 420.861956 0 
L 0 0 
z
" style="fill: #ffffff"/>
  </g>
  <g id="axes_1">
   <g id="patch_2">
    <path d="M 55.957356 137.422852 
L 408.796956 137.422852 
L 408.796956 7.2 
L 55.957356 7.2 
z
" style="fill: #ffffff"/>
   </g>
   <g id="matplotlib.axis_1">
    <g id="xtick_1">
     <g id="line2d_1">
      <defs>
       <path id="md362bfbac6" d="M 0 0 
L 0 3 
" style="stroke: #222222; stroke-width: 0.8"/>
      </defs>
      <g>
       <use xlink:href="#md362bfbac6" x="55.957356" y="137.422852" style="fill: #222222; stroke: #222222; stroke-width: 0.8"/>
      </g>
     </g>
     <g id="text_1">
      <text style="font-size: 7px; font-family: 'Arial', 'Helvetica', 'DejaVu Sans', sans-serif; text-anchor: middle; fill: #222222" x="55.957356" y="149.019043" transform="rotate(-0 55.957356 149.019043)">0.0</text>
     </g>
    </g>
    <g id="xtick_2">
     <g id="line2d_2">
      <g>
       <use xlink:href="#md362bfbac6" x="126.525276" y="137.422852" style="fill: #222222; stroke: #222222; stroke-width: 0.8"/>
      </g>
     </g>
     <g id="text_2">
      <text style="font-size: 7px; font-family: 'Arial', 'Helvetica', 'DejaVu Sans', sans-serif; text-anchor: middle; fill: #222222" x="126.525276" y="149.019043" transform="rotate(-0 126.525276 149.019043)">0.2</text>
     </g>
    </g>
    <g id="xtick_3">
     <g id="line2d_3">
      <g>
       <use xlink:href="#md362bfbac6" x="197.093196" y="137.422852" style="fill: #222222; stroke: #222222; stroke-width: 0.8"/>
      </g>
     </g>
     <g id="text_3">
      <text style="font-size: 7px; font-family: 'Arial', 'Helvetica', 'DejaVu Sans', sans-serif; text-anchor: middle; fill: #222222" x="197.093196" y="149.019043" transform="rotate(-0 197.093196 149.019043)">0.4</text>
     </g>
    </g>
    <g id="xtick_4">
     <g id="line2d_4">
      <g>
       <use xlink:href="#md362bfbac6" x="267.661116" y="137.422852" style="fill: #222222; stroke: #222222; stroke-width: 0.8"/>
      </g>
     </g>
     <g id="text_4">
      <text style="font-size: 7px; font-family: 'Arial', 'Helvetica', 'DejaVu Sans', sans-serif; text-anchor: middle; fill: #222222" x="267.661116" y="149.019043" transform="rotate(-0 267.661116 149.019043)">0.6</text>
     </g>
    </g>
    <g id="xtick_5">
     <g id="line2d_5">
      <g>
       <use xlink:href="#md362bfbac6" x="338.229036" y="137.422852" style="fill: #222222; stroke: #222222; stroke-width: 0.8"/>
      </g>
     </g>
     <g id="text_5">
      <text style="font-size: 7px; font-family: 'Arial', 'Helvetica', 'DejaVu Sans', sans-serif; text-anchor: middle; fill: #222222" x="338.229036" y="149.019043" transform="rotate(-0 338.229036 149.019043)">0.8</text>
     </g>
    </g>
    <g id="xtick_6">
     <g id="line2d_6">
      <g>
       <use xlink:href="#md362bfbac6" x="408.796956" y="137.422852" style="fill: #222222; stroke: #222222; stroke-width: 0.8"/>
      </g>
     </g>
     <g id="text_6">
      <text style="font-size: 7px; font-family: 'Arial', 'Helvetica', 'DejaVu Sans', sans-serif; text-anchor: middle; fill: #222222" x="408.796956" y="149.019043" transform="rotate(-0 408.796956 149.019043)">1.0</text>
     </g>
    </g>
    <g id="text_7">
     <text style="font-size: 8px; font-family: 'Arial', 'Helvetica', 'DejaVu Sans', sans-serif; text-anchor: middle" x="232.377156" y="160.316406" transform="rotate(-0 232.377156 160.316406)">Normalized arc length</text>
    </g>
   </g>
   <g id="matplotlib.axis_2">
    <g id="ytick_1">
     <g id="line2d_7">
      <defs>
       <path id="m3422459bef" d="M 0 0 
L -3 0 
" style="stroke: #222222; stroke-width: 0.8"/>
      </defs>
      <g>
       <use xlink:href="#m3422459bef" x="55.957356" y="131.510409" style="fill: #222222; stroke: #222222; stroke-width: 0.8"/>
      </g>
     </g>
     <g id="text_8">
      <text style="font-size: 7px; font-family: 'Arial', 'Helvetica', 'DejaVu Sans', sans-serif; text-anchor: end; fill: #222222" x="49.457356" y="134.058505" transform="rotate(-0 49.457356 134.058505)">0</text>
     </g>
    </g>
    <g id="ytick_2">
     <g id="line2d_8">
      <g>
       <use xlink:href="#m3422459bef" x="55.957356" y="104.77593" style="fill: #222222; stroke: #222222; stroke-width: 0.8"/>
      </g>
     </g>
     <g id="text_9">
      <text style="font-size: 7px; font-family: 'Arial', 'Helvetica', 'DejaVu Sans', sans-serif; text-anchor: end; fill: #222222" x="49.457356" y="107.324026" transform="rotate(-0 49.457356 107.324026)">100</text>
     </g>
    </g>
    <g id="ytick_3">
     <g id="line2d_9">
      <g>
       <use xlink:href="#m3422459bef" x="55.957356" y="78.041451" style="fill: #222222; stroke: #222222; stroke-width: 0.8"/>
      </g>
     </g>
     <g id="text_10">
      <text style="font-size: 7px; font-family: 'Arial', 'Helvetica', 'DejaVu Sans', sans-serif; text-anchor: end; fill: #222222" x="49.457356" y="80.589547" transform="rotate(-0 49.457356 80.589547)">200</text>
     </g>
    </g>
    <g id="ytick_4">
     <g id="line2d_10">
      <g>
       <use xlink:href="#m3422459bef" x="55.957356" y="51.306972" style="fill: #222222; stroke: #222222; stroke-width: 0.8"/>
      </g>
     </g>
     <g id="text_11">
      <text style="font-size: 7px; font-family: 'Arial', 'Helvetica', 'DejaVu Sans', sans-serif; text-anchor: end; fill: #222222" x="49.457356" y="53.855067" transform="rotate(-0 49.457356 53.855067)">300</text>
     </g>
    </g>
    <g id="ytick_5">
     <g id="line2d_11">
      <g>
       <use xlink:href="#m3422459bef" x="55.957356" y="24.572492" style="fill: #222222; stroke: #222222; stroke-width: 0.8"/>
      </g>
     </g>
     <g id="text_12">
      <text style="font-size: 7px; font-family: 'Arial', 'Helvetica', 'DejaVu Sans', sans-serif; text-anchor: end; fill: #222222" x="49.457356" y="27.120588" transform="rotate(-0 49.457356 27.120588)">400</text>
     </g>
    </g>
    <g id="text_13">
     <!-- $|\kappa_g|$ -->
     <g transform="translate(7.2 68.411426)">
      <text>
       <tspan x="0" y="-0.25" style="font-size: 13px; font-family: 'cmsy10'">j</tspan>
       <tspan x="16.174172" y="-0.25" style="font-size: 13px; font-family: 'cmsy10'">j</tspan>
       <tspan x="3.599121" y="-0.25" style="font-size: 13px; font-family: 'cmmi10'">∙</tspan>
       <tspan x="11.089355" y="1.699995" style="font-size: 9.1px; font-family: 'cmmi10'">g</tspan>
      </text>
     </g>
    </g>
   </g>
   <g id="line2d_12">
    <path d="M 61.523745 127.339971 
L 67.307291 129.843934 
L 72.876967 118.3965 
L 77.745487 123.141229 
L 83.296147 129.781898 
L 87.707709 130.231008 
L 93.243938 123.327177 
L 98.654472 128.651248 
L 105.121626 131.312342 
L 109.706625 91.772837 
L 123.308305 80.977154 
L 130.412125 129.287365 
L 135.442229 130.538081 
L 140.827431 127.716269 
L 146.48615 129.611216 
L 151.086107 129.551159 
L 156.69209 127.231802 
L 162.367528 126.182994 
L 166.730663 128.406094 
L 172.211298 128.874275 
L 178.487828 125.663738 
L 184.859442 89.537792 
L 197.140918 82.39444 
L 203.176239 126.244934 
L 209.43339 124.879505 
L 214.889133 131.497271 
L 220.290708 130.871826 
L 225.61227 124.98565 
L 231.218364 122.950614 
L 236.071176 129.939611 
L 242.34279 129.889553 
L 247.298773 125.794989 
L 253.47712 126.35618 
L 260.586441 89.852524 
L 273.255263 75.511358 
L 279.283553 131.440509 
L 285.232602 124.342005 
L 290.909328 126.310139 
L 296.858091 128.430434 
L 301.448479 120.98257 
L 307.118377 121.135689 
L 312.714802 126.581239 
L 318.09056 128.601642 
L 323.716474 131.465263 
L 329.420581 124.41996 
L 336.145091 93.82458 
L 348.557582 75.946024 
L 354.996589 123.617356 
L 360.619663 131.447831 
L 366.187861 130.639747 
L 370.628865 129.114276 
L 376.086932 126.304408 
L 380.743232 123.399254 
L 386.590794 123.506358 
L 391.285225 120.262189 
L 397.758347 128.137835 
L 403.303227 122.550771 
" clip-path="url(#p7329ef8562)" style="fill: none; stroke: #c73e3a; stroke-width: 1.55; stroke-linecap: square"/>
   </g>
   <g id="line2d_13">
    <path d="M 67.976584 128.030308 
L 71.365174 130.805064 
L 78.504021 128.52394 
L 84.801335 130.280482 
L 91.778249 129.339606 
L 98.699046 129.296666 
L 105.611047 127.974022 
L 111.954019 124.421486 
L 117.308191 111.773548 
L 121.379054 81.321274 
L 124.970064 67.116899 
L 128.682337 105.787903 
L 133.600582 121.097093 
L 139.715819 125.699812 
L 146.531915 126.924439 
L 153.615311 130.050546 
L 160.648818 131.029667 
L 167.738643 129.070861 
L 174.685603 127.972916 
L 181.060853 124.237964 
L 186.376795 111.286575 
L 190.348035 71.83937 
L 193.716041 64.061719 
L 197.494147 107.454117 
L 202.704121 123.560888 
L 209.095783 127.1969 
L 216.191223 128.502696 
L 223.446225 131.378239 
L 230.63585 130.464823 
L 237.892908 127.973458 
L 245.150177 127.309932 
L 251.799724 124.820861 
L 257.375318 113.254067 
L 261.597179 73.639087 
L 265.006441 55.986327 
L 268.660554 107.367799 
L 273.765727 123.51567 
L 280.16943 127.353528 
L 287.334476 129.597316 
L 294.630133 129.650314 
L 301.899012 130.080435 
L 309.215762 126.320929 
L 316.301237 125.959167 
L 322.697561 122.758953 
L 327.997552 108.691759 
L 332.036935 75.644603 
L 335.683351 75.445988 
L 339.683747 111.723902 
L 344.938728 123.648288 
L 351.261616 127.400181 
L 358.147591 129.748645 
L 365.141378 129.220905 
L 372.097621 129.988965 
L 379.159844 129.749951 
L 385.58189 129.734488 
L 392.969509 131.097627 
L 396.479125 131.456916 
" clip-path="url(#p7329ef8562)" style="fill: none; stroke: #6c6c6c; stroke-width: 1.35; stroke-linecap: square"/>
   </g>
   <g id="line2d_14">
    <path d="M 62.752252 122.041659 
L 69.329893 125.372345 
L 75.940591 128.319462 
L 82.07379 129.717724 
L 89.305753 131.257744 
L 95.025144 130.054391 
L 101.841205 127.721731 
L 107.788981 123.218615 
L 113.71291 118.692655 
L 117.159774 100.523772 
L 124.115594 73.977526 
L 128.464524 110.485023 
L 132.948082 124.971185 
L 138.899696 129.1227 
L 145.954573 130.720804 
L 152.045337 130.714585 
L 159.730737 131.317825 
L 167.510059 131.177627 
L 173.229558 130.621843 
L 179.734871 128.862229 
L 185.7349 122.106706 
L 189.67781 13.119221 
L 193.86625 86.415633 
L 198.11081 125.237459 
L 203.896738 128.217799 
L 209.811259 129.160211 
L 216.220925 129.459198 
L 222.890147 129.482822 
L 230.169108 129.920097 
L 236.625349 130.844638 
L 244.788885 130.311502 
L 250.619355 126.349983 
L 256.466333 112.644164 
L 260.999741 74.866249 
L 267.31385 95.175037 
L 271.523432 116.174338 
L 276.730564 122.015551 
L 282.84081 127.51217 
L 290.285252 130.045619 
L 296.48602 131.35801 
L 304.299422 130.617386 
L 311.749382 128.936452 
L 318.264591 126.329693 
L 324.094955 121.09561 
L 328.949328 113.974095 
L 333.673029 99.87531 
L 340.824046 92.574515 
L 345.410274 112.794795 
L 350.767822 125.030802 
L 357.208781 129.00611 
L 362.790173 130.702593 
L 369.763372 131.369889 
L 375.67214 130.216339 
L 382.915052 129.074794 
L 388.528828 126.890569 
L 395.977816 126.104367 
L 402.274604 125.0169 
" clip-path="url(#p7329ef8562)" style="fill: none; stroke: #4c78a8; stroke-width: 1.35; stroke-linecap: square"/>
   </g>
   <g id="line2d_15">
    <path d="M 62.295342 128.064443 
L 67.03379 125.704827 
L 73.811625 128.334478 
L 77.208095 127.033858 
L 82.684277 129.781898 
L 87.036646 128.25563 
L 91.453495 124.176733 
L 95.065054 127.540875 
L 106.412162 121.851001 
L 108.889548 104.188608 
L 123.324389 102.580804 
L 126.236702 117.942776 
L 136.403069 129.042552 
L 140.19312 127.623481 
L 145.775911 131.501258 
L 151.332022 129.536611 
L 155.844983 128.761233 
L 161.444269 126.182994 
L 165.748859 128.903745 
L 169.080432 124.926731 
L 181.643348 111.323497 
L 184.444398 108.448686 
L 196.561082 108.099716 
L 198.985443 109.361326 
L 211.127824 128.786437 
L 215.724327 130.560264 
L 219.995473 131.503631 
L 224.244064 129.059191 
L 230.741376 127.375692 
L 234.573117 128.742728 
L 240.656167 129.561835 
L 244.20626 128.241549 
L 255.549044 117.344979 
L 260.612429 105.423248 
L 274.15587 110.957587 
L 276.740484 109.212763 
L 288.511887 128.397018 
L 294.350594 124.565292 
L 299.211627 126.391483 
L 302.737765 121.657157 
L 308.331584 126.429961 
L 311.659145 125.67757 
L 319.098759 130.690068 
L 323.547917 127.902852 
L 334.664605 107.660089 
L 337.993176 111.426764 
L 350.71272 99.582064 
L 352.937542 123.199537 
L 359.875803 128.384995 
L 367.009212 123.932683 
L 371.390627 125.432855 
L 377.907462 126.181427 
L 381.294677 129.419945 
L 387.063777 123.506358 
L 391.695219 126.466883 
L 399.180415 130.231989 
L 403.687585 129.30768 
" clip-path="url(#p7329ef8562)" style="fill: none; stroke: #4daf7c; stroke-width: 1.75; stroke-linecap: square"/>
   </g>
   <g id="patch_3">
    <path d="M 55.957356 137.422852 
L 55.957356 7.2 
" style="fill: none; stroke: #222222; stroke-width: 0.8; stroke-linejoin: miter; stroke-linecap: square"/>
   </g>
   <g id="patch_4">
    <path d="M 55.957356 137.422852 
L 408.796956 137.422852 
" style="fill: none; stroke: #222222; stroke-width: 0.8; stroke-linejoin: miter; stroke-linecap: square"/>
   </g>
   <g id="legend_1">
    <g id="patch_5">
     <path d="M 335.663362 39.972559 
L 405.296956 39.972559 
Q 406.296956 39.972559 406.296956 38.972559 
L 406.296956 10.7 
Q 406.296956 9.7 405.296956 9.7 
L 335.663362 9.7 
Q 334.663362 9.7 334.663362 10.7 
L 334.663362 38.972559 
Q 334.663362 39.972559 335.663362 39.972559 
z
" style="fill: #ffffff; opacity: 0.8; stroke: #cccccc; stroke-linejoin: miter"/>
    </g>
    <g id="line2d_16">
     <path d="M 336.663362 13.592969 
L 341.663362 13.592969 
L 346.663362 13.592969 
" style="fill: none; stroke: #c73e3a; stroke-width: 1.55; stroke-linecap: square"/>
    </g>
    <g id="text_14">
     <text style="font-size: 5px; font-family: 'Arial', 'Helvetica', 'DejaVu Sans', sans-serif; text-anchor: start" x="350.663362" y="15.342969" transform="rotate(-0 350.663362 15.342969)">Original</text>
    </g>
    <g id="line2d_17">
     <path d="M 336.663362 20.785449 
L 341.663362 20.785449 
L 346.663362 20.785449 
" style="fill: none; stroke: #6c6c6c; stroke-width: 1.35; stroke-linecap: square"/>
    </g>
    <g id="text_15">
     <text style="font-size: 5px; font-family: 'Arial', 'Helvetica', 'DejaVu Sans', sans-serif; text-anchor: start" x="350.663362" y="22.535449" transform="rotate(-0 350.663362 22.535449)">Moving-average smooth</text>
    </g>
    <g id="line2d_18">
     <path d="M 336.663362 27.97793 
L 341.663362 27.97793 
L 346.663362 27.97793 
" style="fill: none; stroke: #4c78a8; stroke-width: 1.35; stroke-linecap: square"/>
    </g>
    <g id="text_16">
     <text style="font-size: 5px; font-family: 'Arial', 'Helvetica', 'DejaVu Sans', sans-serif; text-anchor: start" x="350.663362" y="29.72793" transform="rotate(-0 350.663362 29.72793)">B-spline</text>
    </g>
    <g id="line2d_19">
     <path d="M 336.663362 35.170313 
L 341.663362 35.170313 
L 346.663362 35.170313 
" style="fill: none; stroke: #4daf7c; stroke-width: 1.75; stroke-linecap: square"/>
    </g>
    <g id="text_17">
     <text style="font-size: 5px; font-family: 'Arial', 'Helvetica', 'DejaVu Sans', sans-serif; text-anchor: start" x="350.663362" y="36.920313" transform="rotate(-0 350.663362 36.920313)">Geodesic optimized</text>
    </g>
   </g>
  </g>
 </g>
 <defs>
  <clipPath id="p7329ef8562">
   <rect x="55.957356" y="7.2" width="352.8396" height="130.222852"/>
  </clipPath>
 </defs>
</svg>
