<?xml version="1.0" encoding="utf-8" standalone="no"?>
<!DOCTYPE svg PUBLIC "-//W3C//DTD SVG 1.1//EN"
  "http://www.w3.org/Graphics/SVG/1.1/DTD/svg11.dtd">
<svg xmlns:xlink="http://www.w3.org/1999/xlink" width="420.881054pt" height="169.317187pt" viewBox="0 0 420.881054 169.317187" xmlns="http://www.w3.org/2000/svg" version="1.1">
 <metadata>
  <rdf:RDF xmlns:dc="http://purl.org/dc/elements/1.1/" xmlns:cc="http://creativecommons.org/ns#" xmlns:rdf="http://www.w3.org/1999/02/22-rdf-syntax-ns#">
   <cc:Work>
    <dc:type rdf:resource="http://purl.org/dc/dcmitype/StillImage"/>
    <dc:date>2026-06-15T20:39:37.011400</dc:date>
    <dc:format>image/svg+xml</dc:format>
    <dc:creator>
     <cc:Agent>
      <dc:title>Matplotlib v3.10.8, https://matplotlib.org/</dc:title>
     </cc:Agent>
    </dc:creator>
   </cc:Work>
  </rdf:RDF>
 </metadata>
 <defs>
  <style type="text/css">*{stroke-linejoin: round; stroke-linecap: butt}</style>
 </defs>
 <g id="figure_1">
  <g id="patch_1">
   <path d="M 0 169.317187 
L 420.881054 169.317187 
L 420.881054 0 
L 0 0 
z
" style="fill: #ffffff"/>
  </g>
  <g id="axes_1">
   <g id="patch_2">
    <path d="M 55.889771 137.1 
L 408.11496 137.1 
L 408.11496 7.2 
L 55.889771 7.2 
z
" style="fill: #ffffff"/>
   </g>
   <g id="matplotlib.axis_1">
    <g id="xtick_1">
     <g id="line2d_1">
      <defs>
       <path id="m6808200f56" d="M 0 0 
L 0 3 
" style="stroke: #222222; stroke-width: 0.8"/>
      </defs>
      <g>
       <use xlink:href="#m6808200f56" x="55.889771" y="137.1" style="fill: #222222; stroke: #222222; stroke-width: 0.8"/>
      </g>
     </g>
     <g id="text_1">
      <text style="font-size: 7px; font-family: 'Arial', 'Helvetica', 'DejaVu Sans', sans-serif; text-anchor: middle; fill: #222222" x="55.889771" y="148.918906" transform="rotate(-0 55.889771 148.918906)">0.0</text>
     </g>
    </g>
    <g id="xtick_2">
     <g id="line2d_2">
      <g>
       <use xlink:href="#m6808200f56" x="126.334809" y="137.1" style="fill: #222222; stroke: #222222; stroke-width: 0.8"/>
      </g>
     </g>
     <g id="text_2">
      <text style="font-size: 7px; font-family: 'Arial', 'Helvetica', 'DejaVu Sans', sans-serif; text-anchor: middle; fill: #222222" x="126.334809" y="148.918906" transform="rotate(-0 126.334809 148.918906)">0.2</text>
     </g>
    </g>
    <g id="xtick_3">
     <g id="line2d_3">
      <g>
       <use xlink:href="#m6808200f56" x="196.779846" y="137.1" style="fill: #222222; stroke: #222222; stroke-width: 0.8"/>
      </g>
     </g>
     <g id="text_3">
      <text style="font-size: 7px; font-family: 'Arial', 'Helvetica', 'DejaVu Sans', sans-serif; text-anchor: middle; fill: #222222" x="196.779846" y="148.918906" transform="rotate(-0 196.779846 148.918906)">0.4</text>
     </g>
    </g>
    <g id="xtick_4">
     <g id="line2d_4">
      <g>
       <use xlink:href="#m6808200f56" x="267.224884" y="137.1" style="fill: #222222; stroke: #222222; stroke-width: 0.8"/>
      </g>
     </g>
     <g id="text_4">
      <text style="font-size: 7px; font-family: 'Arial', 'Helvetica', 'DejaVu Sans', sans-serif; text-anchor: middle; fill: #222222" x="267.224884" y="148.918906" transform="rotate(-0 267.224884 148.918906)">0.6</text>
     </g>
    </g>
    <g id="xtick_5">
     <g id="line2d_5">
      <g>
       <use xlink:href="#m6808200f56" x="337.669922" y="137.1" style="fill: #222222; stroke: #222222; stroke-width: 0.8"/>
      </g>
     </g>
     <g id="text_5">
      <text style="font-size: 7px; font-family: 'Arial', 'Helvetica', 'DejaVu Sans', sans-serif; text-anchor: middle; fill: #222222" x="337.669922" y="148.918906" transform="rotate(-0 337.669922 148.918906)">0.8</text>
     </g>
    </g>
    <g id="xtick_6">
     <g id="line2d_6">
      <g>
       <use xlink:href="#m6808200f56" x="408.11496" y="137.1" style="fill: #222222; stroke: #222222; stroke-width: 0.8"/>
      </g>
     </g>
     <g id="text_6">
      <text style="font-size: 7px; font-family: 'Arial', 'Helvetica', 'DejaVu Sans', sans-serif; text-anchor: middle; fill: #222222" x="408.11496" y="148.918906" transform="rotate(-0 408.11496 148.918906)">1.0</text>
     </g>
    </g>
    <g id="text_7">
     <text style="font-size: 8px; font-family: 'Arial', 'Helvetica', 'DejaVu Sans', sans-serif; text-anchor: middle" x="232.002365" y="160.453437" transform="rotate(-0 232.002365 160.453437)">Normalized arc length</text>
    </g>
   </g>
   <g id="matplotlib.axis_2">
    <g id="ytick_1">
     <g id="line2d_7">
      <defs>
       <path id="mdee8b26d4a" d="M 0 0 
L -3 0 
" style="stroke: #222222; stroke-width: 0.8"/>
      </defs>
      <g>
       <use xlink:href="#mdee8b26d4a" x="55.889771" y="131.195455" style="fill: #222222; stroke: #222222; stroke-width: 0.8"/>
      </g>
     </g>
     <g id="text_8">
      <text style="font-size: 7px; font-family: 'Arial', 'Helvetica', 'DejaVu Sans', sans-serif; text-anchor: end; fill: #222222" x="49.389771" y="133.854908" transform="rotate(-0 49.389771 133.854908)">0</text>
     </g>
    </g>
    <g id="ytick_2">
     <g id="line2d_8">
      <g>
       <use xlink:href="#mdee8b26d4a" x="55.889771" y="113.138713" style="fill: #222222; stroke: #222222; stroke-width: 0.8"/>
      </g>
     </g>
     <g id="text_9">
      <text style="font-size: 7px; font-family: 'Arial', 'Helvetica', 'DejaVu Sans', sans-serif; text-anchor: end; fill: #222222" x="49.389771" y="115.798166" transform="rotate(-0 49.389771 115.798166)">100</text>
     </g>
    </g>
    <g id="ytick_3">
     <g id="line2d_9">
      <g>
       <use xlink:href="#mdee8b26d4a" x="55.889771" y="95.081972" style="fill: #222222; stroke: #222222; stroke-width: 0.8"/>
      </g>
     </g>
     <g id="text_10">
      <text style="font-size: 7px; font-family: 'Arial', 'Helvetica', 'DejaVu Sans', sans-serif; text-anchor: end; fill: #222222" x="49.389771" y="97.741425" transform="rotate(-0 49.389771 97.741425)">200</text>
     </g>
    </g>
    <g id="ytick_4">
     <g id="line2d_10">
      <g>
       <use xlink:href="#mdee8b26d4a" x="55.889771" y="77.025231" style="fill: #222222; stroke: #222222; stroke-width: 0.8"/>
      </g>
     </g>
     <g id="text_11">
      <text style="font-size: 7px; font-family: 'Arial', 'Helvetica', 'DejaVu Sans', sans-serif; text-anchor: end; fill: #222222" x="49.389771" y="79.684684" transform="rotate(-0 49.389771 79.684684)">300</text>
     </g>
    </g>
    <g id="ytick_5">
     <g id="line2d_11">
      <g>
       <use xlink:href="#mdee8b26d4a" x="55.889771" y="58.968489" style="fill: #222222; stroke: #222222; stroke-width: 0.8"/>
      </g>
     </g>
     <g id="text_12">
      <text style="font-size: 7px; font-family: 'Arial', 'Helvetica', 'DejaVu Sans', sans-serif; text-anchor: end; fill: #222222" x="49.389771" y="61.627942" transform="rotate(-0 49.389771 61.627942)">400</text>
     </g>
    </g>
    <g id="ytick_6">
     <g id="line2d_12">
      <g>
       <use xlink:href="#mdee8b26d4a" x="55.889771" y="40.911748" style="fill: #222222; stroke: #222222; stroke-width: 0.8"/>
      </g>
     </g>
     <g id="text_13">
      <text style="font-size: 7px; font-family: 'Arial', 'Helvetica', 'DejaVu Sans', sans-serif; text-anchor: end; fill: #222222" x="49.389771" y="43.571201" transform="rotate(-0 49.389771 43.571201)">500</text>
     </g>
    </g>
    <g id="ytick_7">
     <g id="line2d_13">
      <g>
       <use xlink:href="#mdee8b26d4a" x="55.889771" y="22.855007" style="fill: #222222; stroke: #222222; stroke-width: 0.8"/>
      </g>
     </g>
     <g id="text_14">
      <text style="font-size: 7px; font-family: 'Arial', 'Helvetica', 'DejaVu Sans', sans-serif; text-anchor: end; fill: #222222" x="49.389771" y="25.51446" transform="rotate(-0 49.389771 25.51446)">600</text>
     </g>
    </g>
    <g id="text_15">
     <!-- $|\kappa_g|$ -->
     <g transform="translate(7.2 67.99)">
      <text>
       <tspan x="0" y="-0.25" style="font-size: 13px; font-family: 'cmsy10'">j</tspan>
       <tspan x="16.259572" y="-0.25" style="font-size: 13px; font-family: 'cmsy10'">j</tspan>
       <tspan x="3.599121" y="-0.25" style="font-size: 13px; font-family: 'cmmi10'">∙</tspan>
       <tspan x="11.089355" y="1.960812" style="font-size: 9.1px; font-family: 'cmmi10'">g</tspan>
      </text>
     </g>
    </g>
   </g>
   <g id="line2d_14">
    <path d="M 61.308312 130.564071 
L 67.511025 120.225785 
L 71.652606 126.368096 
L 76.33054 126.423287 
L 80.472121 127.835882 
L 85.316175 121.788513 
L 89.950537 125.361272 
L 94.728687 125.235935 
L 99.949376 109.994903 
L 112.171133 90.817638 
L 117.258784 128.365054 
L 122.92039 126.583194 
L 126.589673 128.293352 
L 131.124691 127.957071 
L 135.743668 127.302355 
L 139.946137 126.014849 
L 143.773894 128.294953 
L 148.521726 127.349825 
L 152.319262 129.413681 
L 157.056089 128.553749 
L 162.274114 98.394076 
L 172.627654 103.100025 
L 177.409825 127.604748 
L 182.51227 125.453524 
L 187.72128 129.925161 
L 192.183463 125.504802 
L 196.314891 130.283688 
L 201.026309 131.171358 
L 205.806279 131.164452 
L 210.654968 127.78884 
L 216.266887 127.725292 
L 221.479986 130.626561 
L 226.309913 94.868098 
L 236.26367 99.266932 
L 242.192481 130.041839 
L 246.93509 131.08901 
L 251.607568 131.103021 
L 256.472715 131.13527 
L 261.269215 130.187245 
L 265.698533 129.871346 
L 270.250792 126.175786 
L 274.942956 127.740616 
L 279.464723 130.190072 
L 284.064773 130.003911 
L 288.858703 101.698134 
L 300.002833 99.249288 
L 304.868419 129.433813 
L 309.543663 128.096169 
L 314.388601 123.955724 
L 319.024643 130.092788 
L 323.993058 130.440745 
L 328.267555 126.929233 
L 333.137577 130.412038 
L 337.390297 129.733404 
L 342.111415 120.7535 
L 346.916456 13.104545 
L 355.812362 124.738462 
L 359.281685 125.02409 
L 360.398655 117.783345 
L 366.248325 126.741512 
L 370.774266 106.962899 
L 373.34865 124.719567 
L 379.348003 115.533034 
L 385.662549 117.675711 
L 390.409231 127.785181 
" clip-path="url(#pf44ff67d70)" style="fill: none; stroke: #c73e3a; stroke-width: 1.55; stroke-linecap: square"/>
   </g>
   <g id="line2d_15">
    <path d="M 67.506798 128.563838 
L 70.631581 131.034229 
L 77.163692 128.693701 
L 82.775492 129.822245 
L 88.95713 130.546906 
L 95.287248 130.013321 
L 101.292957 127.502602 
L 106.551062 123.661762 
L 110.749688 108.632237 
L 114.149241 82.565584 
L 116.966618 104.468314 
L 120.812891 121.630725 
L 125.648095 126.773085 
L 131.30242 127.755345 
L 137.30971 130.854615 
L 143.179997 130.383586 
L 149.018913 129.388781 
L 154.735495 128.423452 
L 159.834434 125.219962 
L 164.015542 114.074912 
L 167.140034 89.04795 
L 170.121933 95.617331 
L 173.615099 117.8649 
L 178.214679 126.569052 
L 183.760623 128.109537 
L 189.809983 128.240142 
L 196.03735 129.947335 
L 202.400519 131.150635 
L 208.966871 129.184088 
L 215.482348 128.61376 
L 221.419807 126.566882 
L 226.194528 117.149665 
L 229.52989 82.670221 
L 232.320405 88.955264 
L 235.741151 118.8666 
L 240.498483 126.815195 
L 246.302327 128.882116 
L 252.687004 129.482834 
L 259.143813 131.01658 
L 265.436078 130.563287 
L 271.693571 127.975843 
L 277.713838 127.537929 
L 283.079616 124.868616 
L 287.461286 114.951233 
L 290.734416 89.86062 
L 293.775613 92.659836 
L 297.221199 118.093891 
L 301.836333 126.052204 
L 307.461128 129.129086 
L 313.673248 129.848981 
L 320.0216 130.350912 
L 326.326337 129.107764 
L 332.049954 128.431454 
L 336.766764 125.340763 
L 340.2636 103.556869 
L 342.260435 35.439389 
L 344.549724 104.183545 
L 347.769769 121.439691 
L 351.959949 127.883704 
L 357.198409 129.418095 
L 362.918427 131.142474 
L 368.871018 130.675205 
L 374.767547 127.914404 
L 383.631125 130.063942 
L 387.494206 130.227165 
" clip-path="url(#pf44ff67d70)" style="fill: none; stroke-dasharray: 4.995,2.16; stroke-dashoffset: 0; stroke: #6c6c6c; stroke-width: 1.35"/>
   </g>
   <g id="line2d_16">
    <path d="M 61.402878 123.750536 
L 65.885653 129.502033 
L 69.680872 130.215818 
L 74.238862 130.32318 
L 81.147373 125.624675 
L 84.663979 126.585687 
L 86.913183 130.652213 
L 93.363557 126.319354 
L 97.716354 118.253476 
L 109.714898 113.749285 
L 112.083868 128.579529 
L 124.871599 129.390132 
L 128.4468 131.181767 
L 131.987144 130.644934 
L 137.991475 130.360161 
L 140.489077 130.163579 
L 145.115173 131.195455 
L 149.741268 127.349825 
L 153.441434 126.887541 
L 161.047596 130.159977 
L 162.848605 110.684186 
L 176.19917 114.307664 
L 179.236031 125.903219 
L 185.453136 128.508938 
L 190.294243 126.462322 
L 193.315723 129.317551 
L 198.017065 129.033585 
L 202.60768 129.400446 
L 208.155211 130.348298 
L 212.245203 129.885895 
L 214.970272 130.340958 
L 224.022523 116.330897 
L 228.168588 119.800307 
L 235.654757 126.861574 
L 237.630316 110.297505 
L 250.506217 129.826642 
L 253.419701 129.529281 
L 258.160103 131.13527 
L 262.833619 130.187245 
L 267.149368 130.008442 
L 272.458082 131.105347 
L 276.130988 125.837361 
L 279.013135 129.337406 
L 287.888568 123.400451 
L 289.63013 111.439729 
L 302.033615 111.268598 
L 304.432292 127.859806 
L 309.996183 129.466874 
L 314.678254 128.251222 
L 319.131804 129.961485 
L 321.480219 129.303884 
L 325.62828 122.973319 
L 331.281903 128.630079 
L 336.456517 123.964669 
L 344.699156 119.175283 
L 347.140093 125.82384 
L 357.174547 123.519552 
L 360.554916 124.758378 
L 363.474737 129.462723 
L 367.300382 124.200541 
L 371.178265 129.60118 
L 373.756242 128.227415 
L 380.338929 128.611143 
L 385.830802 128.38376 
L 390.825284 128.253197 
" clip-path="url(#pf44ff67d70)" style="fill: none; stroke: #1b8a3a; stroke-width: 1.75; stroke-linecap: square"/>
   </g>
   <g id="patch_3">
    <path d="M 55.889771 137.1 
L 55.889771 7.2 
" style="fill: none; stroke: #222222; stroke-width: 0.8; stroke-linejoin: miter; stroke-linecap: square"/>
   </g>
   <g id="patch_4">
    <path d="M 55.889771 137.1 
L 408.11496 137.1 
" style="fill: none; stroke: #222222; stroke-width: 0.8; stroke-linejoin: miter; stroke-linecap: square"/>
   </g>
   <g id="legend_1">
    <g id="patch_5">
     <path d="M 327.964179 33.217187 
L 404.61496 33.217187 
Q 405.61496 33.217187 405.61496 32.217187 
L 405.61496 10.7 
Q 405.61496 9.7 404.61496 9.7 
L 327.964179 9.7 
Q 326.964179 9.7 326.964179 10.7 
L 326.964179 32.217187 
Q 326.964179 33.217187 327.964179 33.217187 
z
" style="fill: #ffffff; opacity: 0.8; stroke: #cccccc; stroke-linejoin: miter"/>
    </g>
    <g id="line2d_17">
     <path d="M 328.964179 13.749219 
L 333.964179 13.749219 
L 338.964179 13.749219 
" style="fill: none; stroke: #c73e3a; stroke-width: 1.55; stroke-linecap: square"/>
    </g>
    <g id="text_16">
     <text style="font-size: 5px; font-family: 'Arial', 'Helvetica', 'DejaVu Sans', sans-serif; text-anchor: start" x="342.964179" y="15.499219" transform="rotate(-0 342.964179 15.499219)">Original</text>
    </g>
    <g id="line2d_18">
     <path d="M 328.964179 21.088281 
L 333.964179 21.088281 
L 338.964179 21.088281 
" style="fill: none; stroke-dasharray: 4.995,2.16; stroke-dashoffset: 0; stroke: #6c6c6c; stroke-width: 1.35"/>
    </g>
    <g id="text_17">
     <text style="font-size: 5px; font-family: 'Arial', 'Helvetica', 'DejaVu Sans', sans-serif; text-anchor: start" x="342.964179" y="22.838281" transform="rotate(-0 342.964179 22.838281)">Moving-average smooth</text>
    </g>
    <g id="line2d_19">
     <path d="M 328.964179 28.427344 
L 333.964179 28.427344 
L 338.964179 28.427344 
" style="fill: none; stroke: #1b8a3a; stroke-width: 1.75; stroke-linecap: square"/>
    </g>
    <g id="text_18">
     <text style="font-size: 5px; font-family: 'Arial', 'Helvetica', 'DejaVu Sans', sans-serif; text-anchor: start" x="342.964179" y="30.177344" transform="rotate(-0 342.964179 30.177344)">Geodesic optimized</text>
    </g>
   </g>
  </g>
 </g>
 <defs>
  <clipPath id="pf44ff67d70">
   <rect x="55.889771" y="7.2" width="352.225189" height="129.9"/>
  </clipPath>
 </defs>
</svg>
