<?xml version="1.0" encoding="utf-8" standalone="no"?>
<!DOCTYPE svg PUBLIC "-//W3C//DTD SVG 1.1//EN"
  "http://www.w3.org/Graphics/SVG/1.1/DTD/svg11.dtd">
<svg xmlns:xlink="http://www.w3.org/1999/xlink" width="420.222356pt" height="169.200156pt" viewBox="0 0 420.222356 169.200156" xmlns="http://www.w3.org/2000/svg" version="1.1">
 <metadata>
  <rdf:RDF xmlns:dc="http://purl.org/dc/elements/1.1/" xmlns:cc="http://creativecommons.org/ns#" xmlns:rdf="http://www.w3.org/1999/02/22-rdf-syntax-ns#">
   <cc:Work>
    <dc:type rdf:resource="http://purl.org/dc/dcmitype/StillImage"/>
    <dc:date>2026-06-23T12:37:49.463498</dc:date>
    <dc:format>image/svg+xml</dc:format>
    <dc:creator>
     <cc:Agent>
      <dc:title>Matplotlib v3.11.0, https://matplotlib.org/</dc:title>
     </cc:Agent>
    </dc:creator>
   </cc:Work>
  </rdf:RDF>
 </metadata>
 <defs>
  <style type="text/css">*{stroke-linejoin: round; stroke-linecap: butt}</style>
 </defs>
 <g id="figure_1">
  <g id="patch_1">
   <path d="M 0 169.200156 
L 420.222356 169.200156 
L 420.222356 0 
L 0 0 
z
" style="fill: #ffffff"/>
  </g>
  <g id="axes_1">
   <g id="patch_2">
    <path d="M 60.177756 137.422852 
L 408.157356 137.422852 
L 408.157356 7.2 
L 60.177756 7.2 
z
" style="fill: #ffffff"/>
   </g>
   <g id="matplotlib.axis_1">
    <g id="xtick_1">
     <g id="line2d_1">
      <defs>
       <path id="m9a51b5167d" d="M 0 0 
L 0 3 
" style="stroke: #222222; stroke-width: 0.8"/>
      </defs>
      <g>
       <use xlink:href="#m9a51b5167d" x="60.177756" y="137.422852" style="fill: #222222; stroke: #222222; stroke-width: 0.8"/>
      </g>
     </g>
     <g id="text_1">
      <text style="font-size: 7px; font-family: 'Arial', 'Helvetica', 'DejaVu Sans', sans-serif; text-anchor: middle; fill: #222222" x="60.177756" y="149.019043" transform="rotate(-0 60.177756 149.019043)">0.0</text>
     </g>
    </g>
    <g id="xtick_2">
     <g id="line2d_2">
      <g>
       <use xlink:href="#m9a51b5167d" x="129.773676" y="137.422852" style="fill: #222222; stroke: #222222; stroke-width: 0.8"/>
      </g>
     </g>
     <g id="text_2">
      <text style="font-size: 7px; font-family: 'Arial', 'Helvetica', 'DejaVu Sans', sans-serif; text-anchor: middle; fill: #222222" x="129.773676" y="149.019043" transform="rotate(-0 129.773676 149.019043)">0.2</text>
     </g>
    </g>
    <g id="xtick_3">
     <g id="line2d_3">
      <g>
       <use xlink:href="#m9a51b5167d" x="199.369596" y="137.422852" style="fill: #222222; stroke: #222222; stroke-width: 0.8"/>
      </g>
     </g>
     <g id="text_3">
      <text style="font-size: 7px; font-family: 'Arial', 'Helvetica', 'DejaVu Sans', sans-serif; text-anchor: middle; fill: #222222" x="199.369596" y="149.019043" transform="rotate(-0 199.369596 149.019043)">0.4</text>
     </g>
    </g>
    <g id="xtick_4">
     <g id="line2d_4">
      <g>
       <use xlink:href="#m9a51b5167d" x="268.965516" y="137.422852" style="fill: #222222; stroke: #222222; stroke-width: 0.8"/>
      </g>
     </g>
     <g id="text_4">
      <text style="font-size: 7px; font-family: 'Arial', 'Helvetica', 'DejaVu Sans', sans-serif; text-anchor: middle; fill: #222222" x="268.965516" y="149.019043" transform="rotate(-0 268.965516 149.019043)">0.6</text>
     </g>
    </g>
    <g id="xtick_5">
     <g id="line2d_5">
      <g>
       <use xlink:href="#m9a51b5167d" x="338.561436" y="137.422852" style="fill: #222222; stroke: #222222; stroke-width: 0.8"/>
      </g>
     </g>
     <g id="text_5">
      <text style="font-size: 7px; font-family: 'Arial', 'Helvetica', 'DejaVu Sans', sans-serif; text-anchor: middle; fill: #222222" x="338.561436" y="149.019043" transform="rotate(-0 338.561436 149.019043)">0.8</text>
     </g>
    </g>
    <g id="xtick_6">
     <g id="line2d_6">
      <g>
       <use xlink:href="#m9a51b5167d" x="408.157356" y="137.422852" style="fill: #222222; stroke: #222222; stroke-width: 0.8"/>
      </g>
     </g>
     <g id="text_6">
      <text style="font-size: 7px; font-family: 'Arial', 'Helvetica', 'DejaVu Sans', sans-serif; text-anchor: middle; fill: #222222" x="408.157356" y="149.019043" transform="rotate(-0 408.157356 149.019043)">1.0</text>
     </g>
    </g>
    <g id="text_7">
     <text style="font-size: 8px; font-family: 'Arial', 'Helvetica', 'DejaVu Sans', sans-serif; text-anchor: middle" x="234.167556" y="160.316406" transform="rotate(-0 234.167556 160.316406)">Normalized arc length</text>
    </g>
   </g>
   <g id="matplotlib.axis_2">
    <g id="ytick_1">
     <g id="line2d_7">
      <defs>
       <path id="m02d92bd426" d="M 0 0 
L -3 0 
" style="stroke: #222222; stroke-width: 0.8"/>
      </defs>
      <g>
       <use xlink:href="#m02d92bd426" x="60.177756" y="131.503631" style="fill: #222222; stroke: #222222; stroke-width: 0.8"/>
      </g>
     </g>
     <g id="text_8">
      <text style="font-size: 7px; font-family: 'Arial', 'Helvetica', 'DejaVu Sans', sans-serif; text-anchor: end; fill: #222222" x="53.677756" y="134.051727" transform="rotate(-0 53.677756 134.051727)">0</text>
     </g>
    </g>
    <g id="ytick_2">
     <g id="line2d_8">
      <g>
       <use xlink:href="#m02d92bd426" x="60.177756" y="116.873887" style="fill: #222222; stroke: #222222; stroke-width: 0.8"/>
      </g>
     </g>
     <g id="text_9">
      <text style="font-size: 7px; font-family: 'Arial', 'Helvetica', 'DejaVu Sans', sans-serif; text-anchor: end; fill: #222222" x="53.677756" y="119.421983" transform="rotate(-0 53.677756 119.421983)">2</text>
     </g>
    </g>
    <g id="ytick_3">
     <g id="line2d_9">
      <g>
       <use xlink:href="#m02d92bd426" x="60.177756" y="102.244144" style="fill: #222222; stroke: #222222; stroke-width: 0.8"/>
      </g>
     </g>
     <g id="text_10">
      <text style="font-size: 7px; font-family: 'Arial', 'Helvetica', 'DejaVu Sans', sans-serif; text-anchor: end; fill: #222222" x="53.677756" y="104.79224" transform="rotate(-0 53.677756 104.79224)">4</text>
     </g>
    </g>
    <g id="ytick_4">
     <g id="line2d_10">
      <g>
       <use xlink:href="#m02d92bd426" x="60.177756" y="87.6144" style="fill: #222222; stroke: #222222; stroke-width: 0.8"/>
      </g>
     </g>
     <g id="text_11">
      <text style="font-size: 7px; font-family: 'Arial', 'Helvetica', 'DejaVu Sans', sans-serif; text-anchor: end; fill: #222222" x="53.677756" y="90.162496" transform="rotate(-0 53.677756 90.162496)">6</text>
     </g>
    </g>
    <g id="ytick_5">
     <g id="line2d_11">
      <g>
       <use xlink:href="#m02d92bd426" x="60.177756" y="72.984657" style="fill: #222222; stroke: #222222; stroke-width: 0.8"/>
      </g>
     </g>
     <g id="text_12">
      <text style="font-size: 7px; font-family: 'Arial', 'Helvetica', 'DejaVu Sans', sans-serif; text-anchor: end; fill: #222222" x="53.677756" y="75.532752" transform="rotate(-0 53.677756 75.532752)">8</text>
     </g>
    </g>
    <g id="ytick_6">
     <g id="line2d_12">
      <g>
       <use xlink:href="#m02d92bd426" x="60.177756" y="58.354913" style="fill: #222222; stroke: #222222; stroke-width: 0.8"/>
      </g>
     </g>
     <g id="text_13">
      <text style="font-size: 7px; font-family: 'Arial', 'Helvetica', 'DejaVu Sans', sans-serif; text-anchor: end; fill: #222222" x="53.677756" y="60.903009" transform="rotate(-0 53.677756 60.903009)">10</text>
     </g>
    </g>
    <g id="ytick_7">
     <g id="line2d_13">
      <g>
       <use xlink:href="#m02d92bd426" x="60.177756" y="43.72517" style="fill: #222222; stroke: #222222; stroke-width: 0.8"/>
      </g>
     </g>
     <g id="text_14">
      <text style="font-size: 7px; font-family: 'Arial', 'Helvetica', 'DejaVu Sans', sans-serif; text-anchor: end; fill: #222222" x="53.677756" y="46.273265" transform="rotate(-0 53.677756 46.273265)">12</text>
     </g>
    </g>
    <g id="ytick_8">
     <g id="line2d_14">
      <g>
       <use xlink:href="#m02d92bd426" x="60.177756" y="29.095426" style="fill: #222222; stroke: #222222; stroke-width: 0.8"/>
      </g>
     </g>
     <g id="text_15">
      <text style="font-size: 7px; font-family: 'Arial', 'Helvetica', 'DejaVu Sans', sans-serif; text-anchor: end; fill: #222222" x="53.677756" y="31.643522" transform="rotate(-0 53.677756 31.643522)">14</text>
     </g>
    </g>
    <g id="ytick_9">
     <g id="line2d_15">
      <g>
       <use xlink:href="#m02d92bd426" x="60.177756" y="14.465683" style="fill: #222222; stroke: #222222; stroke-width: 0.8"/>
      </g>
     </g>
     <g id="text_16">
      <text style="font-size: 7px; font-family: 'Arial', 'Helvetica', 'DejaVu Sans', sans-serif; text-anchor: end; fill: #222222" x="53.677756" y="17.013778" transform="rotate(-0 53.677756 17.013778)">16</text>
     </g>
    </g>
    <g id="text_17">
     <!-- $d$ -->
     <g transform="translate(18.72 55.087793)">
      <text>
       <tspan x="0" y="-0.671875" style="font-size: 12px; font-family: 'cmmi10'">d</tspan>
      </text>
     </g>
     <!-- $(\mathrm{mm})$ -->
     <g transform="translate(7.2 68.412012)">
      <text>
       <tspan x="0" y="-0" style="font-size: 12px; font-family: 'cmr10'">(</tspan>
       <tspan x="4.658203" y="-0" style="font-size: 12px; font-family: 'cmr10'">m</tspan>
       <tspan x="14.654297" y="-0" style="font-size: 12px; font-family: 'cmr10'">m</tspan>
       <tspan x="24.650391" y="-0" style="font-size: 12px; font-family: 'cmr10'">)</tspan>
      </text>
     </g>
    </g>
   </g>
   <g id="line2d_16">
    <path d="M 60.177756 131.503631 
L 65.163569 95.029421 
L 69.8617 116.591079 
L 75.437079 110.426853 
L 79.862085 104.526704 
L 85.084934 120.768878 
L 89.770334 116.809398 
L 95.467865 125.080488 
L 99.982338 123.717097 
L 105.411113 118.788308 
L 111.763997 82.131028 
L 116.90336 43.671083 
L 127.543523 29.72191 
L 133.685485 85.775269 
L 139.233849 110.26825 
L 144.231029 124.179969 
L 150.384865 118.823009 
L 154.818133 120.89008 
L 160.040286 118.280847 
L 164.861533 114.48055 
L 169.472886 111.964762 
L 173.804576 113.635923 
L 178.268076 109.017716 
L 183.080444 90.067579 
L 187.974401 46.156047 
L 198.818887 40.55398 
L 204.352838 86.080379 
L 209.742957 111.150058 
L 214.404437 115.561682 
L 218.725435 106.868046 
L 223.839612 96.94895 
L 228.153007 102.83016 
L 234.11292 115.019991 
L 240.635773 124.002578 
L 246.580727 128.054245 
L 252.075527 115.148409 
L 258.153605 88.194456 
L 264.32373 42.197375 
L 276.629674 13.119221 
L 282.671512 70.367205 
L 289.327285 110.211851 
L 294.426125 128.176971 
L 300.384173 121.652006 
L 305.763933 117.102564 
L 310.617861 112.501734 
L 315.527831 114.990327 
L 320.366107 108.727259 
L 324.830889 115.040818 
L 329.199586 103.581678 
L 333.646161 76.930689 
L 338.52185 33.226794 
L 350.414174 62.383205 
L 355.092146 100.701353 
L 359.771392 114.722735 
L 364.308394 115.374527 
L 369.299197 117.760172 
L 373.211227 104.538264 
L 378.59633 111.669151 
L 385.318247 121.476718 
L 391.213493 121.651649 
L 396.859873 120.065509 
L 403.71434 69.81607 
L 408.157356 131.503631 
" clip-path="url(#p8ee5433e3c)" style="fill: none; stroke-dasharray: 4.625,2; stroke-dashoffset: 0; stroke: #6c6c6c; stroke-width: 1.25"/>
   </g>
   <g id="line2d_17">
    <path d="M 60.177756 122.211805 
L 65.163569 124.74979 
L 69.8617 121.552818 
L 75.437079 121.723404 
L 79.862085 122.826526 
L 85.084934 125.809973 
L 89.770334 117.988785 
L 95.467865 117.864735 
L 99.982338 116.174427 
L 105.411113 120.961657 
L 111.763997 104.459765 
L 116.90336 79.475282 
L 127.543523 86.75185 
L 133.685485 114.873473 
L 139.233849 108.236305 
L 144.231029 106.067905 
L 150.384865 110.564612 
L 154.818133 117.732221 
L 160.040286 123.470093 
L 164.861533 110.875579 
L 169.472886 101.082129 
L 173.804576 102.264053 
L 178.268076 107.131291 
L 183.080444 118.873766 
L 187.974401 84.055598 
L 198.818887 58.319765 
L 204.352838 105.283507 
L 209.742957 123.101652 
L 214.404437 107.476782 
L 218.725435 103.989482 
L 223.839612 107.721271 
L 228.153007 121.989423 
L 234.11292 121.723716 
L 240.635773 114.339669 
L 246.580727 103.377114 
L 252.075527 111.298231 
L 258.153605 116.618436 
L 264.32373 79.178235 
L 276.629674 70.423631 
L 282.671512 118.333385 
L 289.327285 108.572469 
L 294.426125 103.600914 
L 300.384173 111.912968 
L 305.763933 117.868587 
L 310.617861 111.730392 
L 315.527831 108.267057 
L 320.366107 110.682716 
L 324.830889 111.936117 
L 329.199586 121.429133 
L 333.646161 103.329536 
L 338.52185 69.234435 
L 350.414174 98.744186 
L 355.092146 109.576821 
L 359.771392 114.978829 
L 364.308394 118.958124 
L 369.299197 127.348769 
L 373.211227 118.479325 
L 378.59633 120.319421 
L 385.318247 126.464897 
L 391.213493 121.562388 
L 396.859873 127.923961 
L 403.71434 112.471508 
L 408.157356 116.464012 
" clip-path="url(#p8ee5433e3c)" style="fill: none; stroke-dasharray: 4.995,2.16; stroke-dashoffset: 0; stroke: #4c78a8; stroke-width: 1.35"/>
   </g>
   <g id="line2d_18">
    <path d="M 60.177756 131.503631 
L 65.163569 131.503631 
L 69.8617 131.503631 
L 75.437079 120.809771 
L 79.862085 119.158795 
L 85.084934 131.503631 
L 89.770334 109.268149 
L 95.467865 120.617819 
L 99.982338 131.503631 
L 105.411113 91.768239 
L 111.763997 94.12888 
L 116.90336 120.190861 
L 127.543523 120.242964 
L 133.685485 73.579149 
L 139.233849 94.480613 
L 144.231029 109.629089 
L 150.384865 131.503631 
L 154.818133 131.503631 
L 160.040286 120.980352 
L 164.861533 131.503631 
L 169.472886 131.503631 
L 173.804576 116.707484 
L 178.268076 131.503631 
L 183.080444 119.281224 
L 187.974401 88.629592 
L 198.818887 116.060792 
L 204.352838 58.440339 
L 209.742957 108.586515 
L 214.404437 121.120836 
L 218.725435 131.503631 
L 223.839612 131.503631 
L 228.153007 131.503631 
L 234.11292 131.503631 
L 240.635773 120.810845 
L 246.580727 131.503631 
L 252.075527 110.226143 
L 258.153605 113.313554 
L 264.32373 108.827301 
L 276.629674 131.503631 
L 282.671512 67.360697 
L 289.327285 95.111529 
L 294.426125 131.503631 
L 300.384173 131.503631 
L 305.763933 131.503631 
L 310.617861 131.503631 
L 315.527831 112.75017 
L 320.366107 131.503631 
L 324.830889 110.41107 
L 329.199586 108.597409 
L 333.646161 37.006718 
L 338.52185 119.065688 
L 350.414174 131.503631 
L 355.092146 110.36976 
L 359.771392 116.569355 
L 364.308394 109.901584 
L 369.299197 116.935943 
L 373.211227 131.503631 
L 378.59633 131.503631 
L 385.318247 131.503631 
L 391.213493 131.503631 
L 396.859873 115.832618 
L 403.71434 97.90713 
L 408.157356 131.503631 
" clip-path="url(#p8ee5433e3c)" style="fill: none; stroke-dasharray: 4.995,2.16; stroke-dashoffset: 0; stroke: #4daf7c; stroke-width: 1.35"/>
   </g>
   <g id="patch_3">
    <path d="M 60.177756 137.422852 
L 60.177756 7.2 
" style="fill: none; stroke: #222222; stroke-width: 0.8; stroke-linejoin: miter; stroke-linecap: square"/>
   </g>
   <g id="patch_4">
    <path d="M 60.177756 137.422852 
L 408.157356 137.422852 
" style="fill: none; stroke: #222222; stroke-width: 0.8; stroke-linejoin: miter; stroke-linecap: square"/>
   </g>
   <g id="legend_1">
    <g id="patch_5">
     <path d="M 335.023762 32.777246 
L 404.657356 32.777246 
Q 405.657356 32.777246 405.657356 31.777246 
L 405.657356 10.7 
Q 405.657356 9.7 404.657356 9.7 
L 335.023762 9.7 
Q 334.023762 9.7 334.023762 10.7 
L 334.023762 31.777246 
Q 334.023762 32.777246 335.023762 32.777246 
z
" style="fill: #ffffff; opacity: 0.8; stroke: #cccccc; stroke-linejoin: miter"/>
    </g>
    <g id="line2d_19">
     <path d="M 336.023762 13.590137 
L 341.023762 13.590137 
L 346.023762 13.590137 
" style="fill: none; stroke-dasharray: 4.625,2; stroke-dashoffset: 0; stroke: #6c6c6c; stroke-width: 1.25"/>
    </g>
    <g id="text_18">
     <text style="font-size: 5px; font-family: 'Arial', 'Helvetica', 'DejaVu Sans', sans-serif; text-anchor: start" x="350.023762" y="15.340137" transform="rotate(-0 350.023762 15.340137)">Moving-average smooth</text>
    </g>
    <g id="line2d_20">
     <path d="M 336.023762 20.782617 
L 341.023762 20.782617 
L 346.023762 20.782617 
" style="fill: none; stroke-dasharray: 4.995,2.16; stroke-dashoffset: 0; stroke: #4c78a8; stroke-width: 1.35"/>
    </g>
    <g id="text_19">
     <text style="font-size: 5px; font-family: 'Arial', 'Helvetica', 'DejaVu Sans', sans-serif; text-anchor: start" x="350.023762" y="22.532617" transform="rotate(-0 350.023762 22.532617)">B-spline</text>
    </g>
    <g id="line2d_21">
     <path d="M 336.023762 27.975 
L 341.023762 27.975 
L 346.023762 27.975 
" style="fill: none; stroke-dasharray: 4.995,2.16; stroke-dashoffset: 0; stroke: #4daf7c; stroke-width: 1.35"/>
    </g>
    <g id="text_20">
     <text style="font-size: 5px; font-family: 'Arial', 'Helvetica', 'DejaVu Sans', sans-serif; text-anchor: start" x="350.023762" y="29.725" transform="rotate(-0 350.023762 29.725)">Geodesic optimized</text>
    </g>
   </g>
  </g>
 </g>
 <defs>
  <clipPath id="p8ee5433e3c">
   <rect x="60.177756" y="7.2" width="347.9796" height="130.222852"/>
  </clipPath>
 </defs>
</svg>
