<?xml version="1.0" encoding="utf-8" standalone="no"?>
<!DOCTYPE svg PUBLIC "-//W3C//DTD SVG 1.1//EN"
  "http://www.w3.org/Graphics/SVG/1.1/DTD/svg11.dtd">
<svg xmlns:xlink="http://www.w3.org/1999/xlink" width="420.861956pt" height="169.200156pt" viewBox="0 0 420.861956 169.200156" xmlns="http://www.w3.org/2000/svg" version="1.1">
 <metadata>
  <rdf:RDF xmlns:dc="http://purl.org/dc/elements/1.1/" xmlns:cc="http://creativecommons.org/ns#" xmlns:rdf="http://www.w3.org/1999/02/22-rdf-syntax-ns#">
   <cc:Work>
    <dc:type rdf:resource="http://purl.org/dc/dcmitype/StillImage"/>
    <dc:date>2026-06-23T12:37:49.217520</dc:date>
    <dc:format>image/svg+xml</dc:format>
    <dc:creator>
     <cc:Agent>
      <dc:title>Matplotlib v3.11.0, https://matplotlib.org/</dc:title>
     </cc:Agent>
    </dc:creator>
   </cc:Work>
  </rdf:RDF>
 </metadata>
 <defs>
  <style type="text/css">*{stroke-linejoin: round; stroke-linecap: butt}</style>
 </defs>
 <g id="figure_1">
  <g id="patch_1">
   <path d="M 0 169.200156 
L 420.861956 169.200156 
L 420.861956 0 
L 0 0 
z
" style="fill: #ffffff"/>
  </g>
  <g id="axes_1">
   <g id="patch_2">
    <path d="M 55.957356 137.422852 
L 408.796956 137.422852 
L 408.796956 7.2 
L 55.957356 7.2 
z
" style="fill: #ffffff"/>
   </g>
   <g id="matplotlib.axis_1">
    <g id="xtick_1">
     <g id="line2d_1">
      <defs>
       <path id="m922e7c69b3" d="M 0 0 
L 0 3 
" style="stroke: #222222; stroke-width: 0.8"/>
      </defs>
      <g>
       <use xlink:href="#m922e7c69b3" x="55.957356" y="137.422852" style="fill: #222222; stroke: #222222; stroke-width: 0.8"/>
      </g>
     </g>
     <g id="text_1">
      <text style="font-size: 7px; font-family: 'Arial', 'Helvetica', 'DejaVu Sans', sans-serif; text-anchor: middle; fill: #222222" x="55.957356" y="149.019043" transform="rotate(-0 55.957356 149.019043)">0.0</text>
     </g>
    </g>
    <g id="xtick_2">
     <g id="line2d_2">
      <g>
       <use xlink:href="#m922e7c69b3" x="126.525276" y="137.422852" style="fill: #222222; stroke: #222222; stroke-width: 0.8"/>
      </g>
     </g>
     <g id="text_2">
      <text style="font-size: 7px; font-family: 'Arial', 'Helvetica', 'DejaVu Sans', sans-serif; text-anchor: middle; fill: #222222" x="126.525276" y="149.019043" transform="rotate(-0 126.525276 149.019043)">0.2</text>
     </g>
    </g>
    <g id="xtick_3">
     <g id="line2d_3">
      <g>
       <use xlink:href="#m922e7c69b3" x="197.093196" y="137.422852" style="fill: #222222; stroke: #222222; stroke-width: 0.8"/>
      </g>
     </g>
     <g id="text_3">
      <text style="font-size: 7px; font-family: 'Arial', 'Helvetica', 'DejaVu Sans', sans-serif; text-anchor: middle; fill: #222222" x="197.093196" y="149.019043" transform="rotate(-0 197.093196 149.019043)">0.4</text>
     </g>
    </g>
    <g id="xtick_4">
     <g id="line2d_4">
      <g>
       <use xlink:href="#m922e7c69b3" x="267.661116" y="137.422852" style="fill: #222222; stroke: #222222; stroke-width: 0.8"/>
      </g>
     </g>
     <g id="text_4">
      <text style="font-size: 7px; font-family: 'Arial', 'Helvetica', 'DejaVu Sans', sans-serif; text-anchor: middle; fill: #222222" x="267.661116" y="149.019043" transform="rotate(-0 267.661116 149.019043)">0.6</text>
     </g>
    </g>
    <g id="xtick_5">
     <g id="line2d_5">
      <g>
       <use xlink:href="#m922e7c69b3" x="338.229036" y="137.422852" style="fill: #222222; stroke: #222222; stroke-width: 0.8"/>
      </g>
     </g>
     <g id="text_5">
      <text style="font-size: 7px; font-family: 'Arial', 'Helvetica', 'DejaVu Sans', sans-serif; text-anchor: middle; fill: #222222" x="338.229036" y="149.019043" transform="rotate(-0 338.229036 149.019043)">0.8</text>
     </g>
    </g>
    <g id="xtick_6">
     <g id="line2d_6">
      <g>
       <use xlink:href="#m922e7c69b3" x="408.796956" y="137.422852" style="fill: #222222; stroke: #222222; stroke-width: 0.8"/>
      </g>
     </g>
     <g id="text_6">
      <text style="font-size: 7px; font-family: 'Arial', 'Helvetica', 'DejaVu Sans', sans-serif; text-anchor: middle; fill: #222222" x="408.796956" y="149.019043" transform="rotate(-0 408.796956 149.019043)">1.0</text>
     </g>
    </g>
    <g id="text_7">
     <text style="font-size: 8px; font-family: 'Arial', 'Helvetica', 'DejaVu Sans', sans-serif; text-anchor: middle" x="232.377156" y="160.316406" transform="rotate(-0 232.377156 160.316406)">Normalized arc length</text>
    </g>
   </g>
   <g id="matplotlib.axis_2">
    <g id="ytick_1">
     <g id="line2d_7">
      <defs>
       <path id="m3abd7ad6c3" d="M 0 0 
L -3 0 
" style="stroke: #222222; stroke-width: 0.8"/>
      </defs>
      <g>
       <use xlink:href="#m3abd7ad6c3" x="55.957356" y="131.541789" style="fill: #222222; stroke: #222222; stroke-width: 0.8"/>
      </g>
     </g>
     <g id="text_8">
      <text style="font-size: 7px; font-family: 'Arial', 'Helvetica', 'DejaVu Sans', sans-serif; text-anchor: end; fill: #222222" x="49.457356" y="134.089885" transform="rotate(-0 49.457356 134.089885)">0</text>
     </g>
    </g>
    <g id="ytick_2">
     <g id="line2d_8">
      <g>
       <use xlink:href="#m3abd7ad6c3" x="55.957356" y="114.718166" style="fill: #222222; stroke: #222222; stroke-width: 0.8"/>
      </g>
     </g>
     <g id="text_9">
      <text style="font-size: 7px; font-family: 'Arial', 'Helvetica', 'DejaVu Sans', sans-serif; text-anchor: end; fill: #222222" x="49.457356" y="117.266262" transform="rotate(-0 49.457356 117.266262)">50</text>
     </g>
    </g>
    <g id="ytick_3">
     <g id="line2d_9">
      <g>
       <use xlink:href="#m3abd7ad6c3" x="55.957356" y="97.894543" style="fill: #222222; stroke: #222222; stroke-width: 0.8"/>
      </g>
     </g>
     <g id="text_10">
      <text style="font-size: 7px; font-family: 'Arial', 'Helvetica', 'DejaVu Sans', sans-serif; text-anchor: end; fill: #222222" x="49.457356" y="100.442638" transform="rotate(-0 49.457356 100.442638)">100</text>
     </g>
    </g>
    <g id="ytick_4">
     <g id="line2d_10">
      <g>
       <use xlink:href="#m3abd7ad6c3" x="55.957356" y="81.07092" style="fill: #222222; stroke: #222222; stroke-width: 0.8"/>
      </g>
     </g>
     <g id="text_11">
      <text style="font-size: 7px; font-family: 'Arial', 'Helvetica', 'DejaVu Sans', sans-serif; text-anchor: end; fill: #222222" x="49.457356" y="83.619015" transform="rotate(-0 49.457356 83.619015)">150</text>
     </g>
    </g>
    <g id="ytick_5">
     <g id="line2d_11">
      <g>
       <use xlink:href="#m3abd7ad6c3" x="55.957356" y="64.247296" style="fill: #222222; stroke: #222222; stroke-width: 0.8"/>
      </g>
     </g>
     <g id="text_12">
      <text style="font-size: 7px; font-family: 'Arial', 'Helvetica', 'DejaVu Sans', sans-serif; text-anchor: end; fill: #222222" x="49.457356" y="66.795392" transform="rotate(-0 49.457356 66.795392)">200</text>
     </g>
    </g>
    <g id="ytick_6">
     <g id="line2d_12">
      <g>
       <use xlink:href="#m3abd7ad6c3" x="55.957356" y="47.423673" style="fill: #222222; stroke: #222222; stroke-width: 0.8"/>
      </g>
     </g>
     <g id="text_13">
      <text style="font-size: 7px; font-family: 'Arial', 'Helvetica', 'DejaVu Sans', sans-serif; text-anchor: end; fill: #222222" x="49.457356" y="49.971769" transform="rotate(-0 49.457356 49.971769)">250</text>
     </g>
    </g>
    <g id="ytick_7">
     <g id="line2d_13">
      <g>
       <use xlink:href="#m3abd7ad6c3" x="55.957356" y="30.60005" style="fill: #222222; stroke: #222222; stroke-width: 0.8"/>
      </g>
     </g>
     <g id="text_14">
      <text style="font-size: 7px; font-family: 'Arial', 'Helvetica', 'DejaVu Sans', sans-serif; text-anchor: end; fill: #222222" x="49.457356" y="33.148146" transform="rotate(-0 49.457356 33.148146)">300</text>
     </g>
    </g>
    <g id="ytick_8">
     <g id="line2d_14">
      <g>
       <use xlink:href="#m3abd7ad6c3" x="55.957356" y="13.776427" style="fill: #222222; stroke: #222222; stroke-width: 0.8"/>
      </g>
     </g>
     <g id="text_15">
      <text style="font-size: 7px; font-family: 'Arial', 'Helvetica', 'DejaVu Sans', sans-serif; text-anchor: end; fill: #222222" x="49.457356" y="16.324523" transform="rotate(-0 49.457356 16.324523)">350</text>
     </g>
    </g>
    <g id="text_16">
     <!-- $|\kappa_g|$ -->
     <g transform="translate(7.2 68.411426)">
      <text>
       <tspan x="0" y="-0.25" style="font-size: 13px; font-family: 'cmsy10'">j</tspan>
       <tspan x="16.174172" y="-0.25" style="font-size: 13px; font-family: 'cmsy10'">j</tspan>
       <tspan x="3.599121" y="-0.25" style="font-size: 13px; font-family: 'cmmi10'">∙</tspan>
       <tspan x="11.089355" y="1.699995" style="font-size: 9.1px; font-family: 'cmmi10'">g</tspan>
      </text>
     </g>
    </g>
   </g>
   <g id="line2d_15">
    <path d="M 61.012803 128.880772 
L 65.776549 125.14573 
L 71.429796 130.22432 
L 75.916603 112.833966 
L 81.212396 120.729709 
L 85.963234 119.427877 
L 91.740339 125.973411 
L 96.317862 130.517516 
L 101.822457 125.081482 
L 108.264067 126.546331 
L 113.475209 82.172325 
L 124.263976 51.637715 
L 130.491719 125.431616 
L 136.117573 125.057554 
L 141.184545 126.22208 
L 147.424327 125.677314 
L 151.919512 125.186405 
L 157.2146 123.929472 
L 162.103182 125.686887 
L 166.778938 120.539089 
L 171.171127 122.84889 
L 175.696965 120.389218 
L 180.576544 131.501551 
L 185.538852 71.789892 
L 196.534796 64.150696 
L 202.146035 126.933204 
L 207.611435 122.839825 
L 212.338019 120.601849 
L 216.719365 129.328254 
L 221.904969 129.691211 
L 226.278606 128.684179 
L 232.321757 130.976502 
L 238.935711 126.521267 
L 244.963693 125.071666 
L 250.535236 130.811275 
L 256.698202 131.375389 
L 262.954501 92.798249 
L 275.432314 52.064621 
L 281.558535 130.790177 
L 288.307264 128.970196 
L 293.477316 128.616359 
L 299.518576 130.194572 
L 304.973472 129.591501 
L 309.895192 125.272747 
L 314.873736 124.372208 
L 319.779585 110.847735 
L 324.306724 123.412051 
L 328.736435 127.363559 
L 333.245112 124.95487 
L 338.188897 66.792584 
L 350.247314 90.798811 
L 354.990619 112.793172 
L 359.735217 127.560108 
L 364.335585 130.213118 
L 369.396091 126.232171 
L 373.362758 113.814539 
L 378.823071 131.211888 
L 385.638869 127.53451 
L 391.616449 124.946589 
L 397.341688 124.062103 
L 404.291887 95.036345 
" clip-path="url(#pcfe37dcd76)" style="fill: none; stroke: #c73e3a; stroke-width: 1.55; stroke-linecap: square"/>
   </g>
   <g id="line2d_16">
    <path d="M 66.720455 126.476981 
L 69.759652 131.492039 
L 76.173392 126.56813 
L 81.886029 128.846959 
L 88.287781 129.084572 
L 94.881786 129.313879 
L 101.714538 129.69472 
L 108.526482 127.768944 
L 114.804746 124.179196 
L 119.97982 110.633577 
L 123.693293 54.976318 
L 126.608058 40.108084 
L 129.947112 106.316618 
L 134.780294 122.803761 
L 140.840421 127.053648 
L 147.613882 127.955344 
L 154.426725 131.207639 
L 160.988619 130.198999 
L 167.285077 129.712767 
L 173.37203 128.748129 
L 179.143122 126.638872 
L 184.339896 122.074768 
L 188.560183 102.825287 
L 191.695118 51.776933 
L 194.546043 56.113615 
L 197.873712 108.122671 
L 202.32905 122.050294 
L 207.680506 127.675229 
L 213.617154 128.972725 
L 219.853893 129.73227 
L 226.356002 130.566848 
L 233.346127 130.927633 
L 240.838154 128.067131 
L 248.536032 128.26966 
L 255.713439 125.694824 
L 261.726082 116.820925 
L 266.123465 76.648949 
L 269.266892 13.119221 
L 272.372005 97.484118 
L 277.106377 122.247885 
L 283.20162 127.463701 
L 290.160228 129.197281 
L 297.246293 129.778353 
L 303.950691 129.08836 
L 310.321205 128.518785 
L 316.446237 122.576688 
L 321.947315 120.541064 
L 326.598413 109.809388 
L 330.237722 85.59745 
L 333.180766 67.563702 
L 336.78035 97.608568 
L 340.995328 117.535271 
L 346.174431 124.906831 
L 352.130986 128.787075 
L 358.541482 130.830818 
L 365.073581 128.033075 
L 372.094169 130.360691 
L 379.447624 130.350479 
L 386.262417 130.088312 
L 393.677833 129.330153 
L 397.354704 126.939132 
" clip-path="url(#pcfe37dcd76)" style="fill: none; stroke: #6c6c6c; stroke-width: 1.35; stroke-linecap: square"/>
   </g>
   <g id="line2d_17">
    <path d="M 62.055281 120.319464 
L 67.362973 121.529715 
L 73.608845 124.603951 
L 78.725641 127.355267 
L 84.97802 129.915982 
L 90.720968 131.503631 
L 97.725696 129.959054 
L 103.190682 126.9962 
L 109.532587 126.170394 
L 116.163962 123.396016 
L 120.433123 92.339239 
L 125.151462 20.840702 
L 129.428098 120.712862 
L 135.273379 128.233135 
L 141.536747 129.42437 
L 149.738819 130.106015 
L 155.655429 129.743275 
L 162.576312 130.348031 
L 168.826205 130.946963 
L 174.506062 130.602883 
L 179.392643 128.983937 
L 183.77775 124.558051 
L 187.559783 109.359565 
L 190.304936 48.70034 
L 195.223603 93.948166 
L 199.138517 118.611097 
L 203.816731 120.770582 
L 208.464226 123.083849 
L 213.223424 127.041382 
L 219.230429 130.71275 
L 224.467665 130.26596 
L 231.992219 129.741196 
L 240.596743 128.577165 
L 248.315071 127.124321 
L 254.832319 123.647147 
L 260.954466 120.042717 
L 265.9528 103.403801 
L 272.280306 57.535757 
L 275.451177 103.097612 
L 280.928494 124.119126 
L 286.559551 129.577934 
L 294.213435 131.245418 
L 301.618027 130.740458 
L 308.297275 129.379825 
L 314.712862 127.130597 
L 320.437842 122.934391 
L 325.086889 116.921253 
L 329.14195 115.287654 
L 332.88148 116.057026 
L 336.512636 93.973657 
L 343.440292 87.564465 
L 347.550951 121.312662 
L 352.798332 128.479377 
L 358.487066 131.259593 
L 364.796609 128.672732 
L 369.497579 128.406715 
L 375.753935 129.454386 
L 383.499155 130.244261 
L 390.280301 130.89659 
L 396.669382 131.153016 
L 404.134725 130.426562 
" clip-path="url(#pcfe37dcd76)" style="fill: none; stroke: #4c78a8; stroke-width: 1.35; stroke-linecap: square"/>
   </g>
   <g id="line2d_18">
    <path d="M 60.946924 128.880772 
L 65.648593 125.137962 
L 70.411507 123.991915 
L 75.877737 130.95262 
L 80.769562 126.011747 
L 86.917943 128.347331 
L 90.175234 130.530894 
L 95.541025 130.555419 
L 97.636937 126.027421 
L 110.354253 108.246618 
L 113.280934 108.333443 
L 122.109541 104.994923 
L 125.321207 104.497638 
L 136.947848 120.98794 
L 140.865783 128.248378 
L 146.716794 125.484319 
L 151.153401 130.988639 
L 156.351811 125.648348 
L 161.222523 130.221401 
L 165.837349 128.476644 
L 171.134529 123.63036 
L 174.625187 129.232837 
L 178.421085 111.534484 
L 185.60753 98.347113 
L 192.071987 111.468306 
L 194.092641 96.555914 
L 206.844865 124.667736 
L 209.79572 121.971809 
L 214.256758 120.761816 
L 219.374786 129.691211 
L 223.691429 128.684179 
L 229.65583 126.428867 
L 236.222054 126.940257 
L 242.131163 126.718277 
L 245.926675 129.690157 
L 255.076316 114.871962 
L 260.561417 110.261626 
L 271.126372 121.793661 
L 273.683779 101.474308 
L 288.399112 128.530897 
L 290.525632 130.562045 
L 296.488167 130.194572 
L 301.871978 129.591501 
L 306.729561 129.322187 
L 312.772912 118.567966 
L 316.552793 119.803952 
L 319.34225 130.965125 
L 323.817334 129.298758 
L 337.852718 121.571083 
L 340.016264 102.293486 
L 352.082505 108.043772 
L 356.649732 128.10013 
L 361.201911 124.04347 
L 367.572482 129.282339 
L 369.742313 121.981721 
L 374.767398 120.568397 
L 380.156555 131.211888 
L 386.883534 127.53451 
L 392.783219 126.10178 
L 399.735666 127.510752 
L 402.888523 128.189906 
" clip-path="url(#pcfe37dcd76)" style="fill: none; stroke: #4daf7c; stroke-width: 1.75; stroke-linecap: square"/>
   </g>
   <g id="patch_3">
    <path d="M 55.957356 137.422852 
L 55.957356 7.2 
" style="fill: none; stroke: #222222; stroke-width: 0.8; stroke-linejoin: miter; stroke-linecap: square"/>
   </g>
   <g id="patch_4">
    <path d="M 55.957356 137.422852 
L 408.796956 137.422852 
" style="fill: none; stroke: #222222; stroke-width: 0.8; stroke-linejoin: miter; stroke-linecap: square"/>
   </g>
   <g id="legend_1">
    <g id="patch_5">
     <path d="M 335.663362 39.972559 
L 405.296956 39.972559 
Q 406.296956 39.972559 406.296956 38.972559 
L 406.296956 10.7 
Q 406.296956 9.7 405.296956 9.7 
L 335.663362 9.7 
Q 334.663362 9.7 334.663362 10.7 
L 334.663362 38.972559 
Q 334.663362 39.972559 335.663362 39.972559 
z
" style="fill: #ffffff; opacity: 0.8; stroke: #cccccc; stroke-linejoin: miter"/>
    </g>
    <g id="line2d_19">
     <path d="M 336.663362 13.592969 
L 341.663362 13.592969 
L 346.663362 13.592969 
" style="fill: none; stroke: #c73e3a; stroke-width: 1.55; stroke-linecap: square"/>
    </g>
    <g id="text_17">
     <text style="font-size: 5px; font-family: 'Arial', 'Helvetica', 'DejaVu Sans', sans-serif; text-anchor: start" x="350.663362" y="15.342969" transform="rotate(-0 350.663362 15.342969)">Original</text>
    </g>
    <g id="line2d_20">
     <path d="M 336.663362 20.785449 
L 341.663362 20.785449 
L 346.663362 20.785449 
" style="fill: none; stroke: #6c6c6c; stroke-width: 1.35; stroke-linecap: square"/>
    </g>
    <g id="text_18">
     <text style="font-size: 5px; font-family: 'Arial', 'Helvetica', 'DejaVu Sans', sans-serif; text-anchor: start" x="350.663362" y="22.535449" transform="rotate(-0 350.663362 22.535449)">Moving-average smooth</text>
    </g>
    <g id="line2d_21">
     <path d="M 336.663362 27.97793 
L 341.663362 27.97793 
L 346.663362 27.97793 
" style="fill: none; stroke: #4c78a8; stroke-width: 1.35; stroke-linecap: square"/>
    </g>
    <g id="text_19">
     <text style="font-size: 5px; font-family: 'Arial', 'Helvetica', 'DejaVu Sans', sans-serif; text-anchor: start" x="350.663362" y="29.72793" transform="rotate(-0 350.663362 29.72793)">B-spline</text>
    </g>
    <g id="line2d_22">
     <path d="M 336.663362 35.170313 
L 341.663362 35.170313 
L 346.663362 35.170313 
" style="fill: none; stroke: #4daf7c; stroke-width: 1.75; stroke-linecap: square"/>
    </g>
    <g id="text_20">
     <text style="font-size: 5px; font-family: 'Arial', 'Helvetica', 'DejaVu Sans', sans-serif; text-anchor: start" x="350.663362" y="36.920313" transform="rotate(-0 350.663362 36.920313)">Geodesic optimized</text>
    </g>
   </g>
  </g>
 </g>
 <defs>
  <clipPath id="pcfe37dcd76">
   <rect x="55.957356" y="7.2" width="352.8396" height="130.222852"/>
  </clipPath>
 </defs>
</svg>
