<?xml version="1.0" encoding="utf-8" standalone="no"?>
<!DOCTYPE svg PUBLIC "-//W3C//DTD SVG 1.1//EN"
  "http://www.w3.org/Graphics/SVG/1.1/DTD/svg11.dtd">
<svg xmlns:xlink="http://www.w3.org/1999/xlink" width="420.222356pt" height="169.200156pt" viewBox="0 0 420.222356 169.200156" xmlns="http://www.w3.org/2000/svg" version="1.1">
 <metadata>
  <rdf:RDF xmlns:dc="http://purl.org/dc/elements/1.1/" xmlns:cc="http://creativecommons.org/ns#" xmlns:rdf="http://www.w3.org/1999/02/22-rdf-syntax-ns#">
   <cc:Work>
    <dc:type rdf:resource="http://purl.org/dc/dcmitype/StillImage"/>
    <dc:date>2026-06-23T12:37:46.269168</dc:date>
    <dc:format>image/svg+xml</dc:format>
    <dc:creator>
     <cc:Agent>
      <dc:title>Matplotlib v3.11.0, https://matplotlib.org/</dc:title>
     </cc:Agent>
    </dc:creator>
   </cc:Work>
  </rdf:RDF>
 </metadata>
 <defs>
  <style type="text/css">*{stroke-linejoin: round; stroke-linecap: butt}</style>
 </defs>
 <g id="figure_1">
  <g id="patch_1">
   <path d="M 0 169.200156 
L 420.222356 169.200156 
L 420.222356 0 
L 0 0 
z
" style="fill: #ffffff"/>
  </g>
  <g id="axes_1">
   <g id="patch_2">
    <path d="M 60.177756 137.422852 
L 408.157356 137.422852 
L 408.157356 7.2 
L 60.177756 7.2 
z
" style="fill: #ffffff"/>
   </g>
   <g id="matplotlib.axis_1">
    <g id="xtick_1">
     <g id="line2d_1">
      <defs>
       <path id="m2ddd95a703" d="M 0 0 
L 0 3 
" style="stroke: #222222; stroke-width: 0.8"/>
      </defs>
      <g>
       <use xlink:href="#m2ddd95a703" x="60.177756" y="137.422852" style="fill: #222222; stroke: #222222; stroke-width: 0.8"/>
      </g>
     </g>
     <g id="text_1">
      <text style="font-size: 7px; font-family: 'Arial', 'Helvetica', 'DejaVu Sans', sans-serif; text-anchor: middle; fill: #222222" x="60.177756" y="149.019043" transform="rotate(-0 60.177756 149.019043)">0.0</text>
     </g>
    </g>
    <g id="xtick_2">
     <g id="line2d_2">
      <g>
       <use xlink:href="#m2ddd95a703" x="129.773676" y="137.422852" style="fill: #222222; stroke: #222222; stroke-width: 0.8"/>
      </g>
     </g>
     <g id="text_2">
      <text style="font-size: 7px; font-family: 'Arial', 'Helvetica', 'DejaVu Sans', sans-serif; text-anchor: middle; fill: #222222" x="129.773676" y="149.019043" transform="rotate(-0 129.773676 149.019043)">0.2</text>
     </g>
    </g>
    <g id="xtick_3">
     <g id="line2d_3">
      <g>
       <use xlink:href="#m2ddd95a703" x="199.369596" y="137.422852" style="fill: #222222; stroke: #222222; stroke-width: 0.8"/>
      </g>
     </g>
     <g id="text_3">
      <text style="font-size: 7px; font-family: 'Arial', 'Helvetica', 'DejaVu Sans', sans-serif; text-anchor: middle; fill: #222222" x="199.369596" y="149.019043" transform="rotate(-0 199.369596 149.019043)">0.4</text>
     </g>
    </g>
    <g id="xtick_4">
     <g id="line2d_4">
      <g>
       <use xlink:href="#m2ddd95a703" x="268.965516" y="137.422852" style="fill: #222222; stroke: #222222; stroke-width: 0.8"/>
      </g>
     </g>
     <g id="text_4">
      <text style="font-size: 7px; font-family: 'Arial', 'Helvetica', 'DejaVu Sans', sans-serif; text-anchor: middle; fill: #222222" x="268.965516" y="149.019043" transform="rotate(-0 268.965516 149.019043)">0.6</text>
     </g>
    </g>
    <g id="xtick_5">
     <g id="line2d_5">
      <g>
       <use xlink:href="#m2ddd95a703" x="338.561436" y="137.422852" style="fill: #222222; stroke: #222222; stroke-width: 0.8"/>
      </g>
     </g>
     <g id="text_5">
      <text style="font-size: 7px; font-family: 'Arial', 'Helvetica', 'DejaVu Sans', sans-serif; text-anchor: middle; fill: #222222" x="338.561436" y="149.019043" transform="rotate(-0 338.561436 149.019043)">0.8</text>
     </g>
    </g>
    <g id="xtick_6">
     <g id="line2d_6">
      <g>
       <use xlink:href="#m2ddd95a703" x="408.157356" y="137.422852" style="fill: #222222; stroke: #222222; stroke-width: 0.8"/>
      </g>
     </g>
     <g id="text_6">
      <text style="font-size: 7px; font-family: 'Arial', 'Helvetica', 'DejaVu Sans', sans-serif; text-anchor: middle; fill: #222222" x="408.157356" y="149.019043" transform="rotate(-0 408.157356 149.019043)">1.0</text>
     </g>
    </g>
    <g id="text_7">
     <text style="font-size: 8px; font-family: 'Arial', 'Helvetica', 'DejaVu Sans', sans-serif; text-anchor: middle" x="234.167556" y="160.316406" transform="rotate(-0 234.167556 160.316406)">Normalized arc length</text>
    </g>
   </g>
   <g id="matplotlib.axis_2">
    <g id="ytick_1">
     <g id="line2d_7">
      <defs>
       <path id="m3bb40cc1b1" d="M 0 0 
L -3 0 
" style="stroke: #222222; stroke-width: 0.8"/>
      </defs>
      <g>
       <use xlink:href="#m3bb40cc1b1" x="60.177756" y="131.503631" style="fill: #222222; stroke: #222222; stroke-width: 0.8"/>
      </g>
     </g>
     <g id="text_8">
      <text style="font-size: 7px; font-family: 'Arial', 'Helvetica', 'DejaVu Sans', sans-serif; text-anchor: end; fill: #222222" x="53.677756" y="134.051727" transform="rotate(-0 53.677756 134.051727)">0</text>
     </g>
    </g>
    <g id="ytick_2">
     <g id="line2d_8">
      <g>
       <use xlink:href="#m3bb40cc1b1" x="60.177756" y="115.182293" style="fill: #222222; stroke: #222222; stroke-width: 0.8"/>
      </g>
     </g>
     <g id="text_9">
      <text style="font-size: 7px; font-family: 'Arial', 'Helvetica', 'DejaVu Sans', sans-serif; text-anchor: end; fill: #222222" x="53.677756" y="117.730389" transform="rotate(-0 53.677756 117.730389)">5</text>
     </g>
    </g>
    <g id="ytick_3">
     <g id="line2d_9">
      <g>
       <use xlink:href="#m3bb40cc1b1" x="60.177756" y="98.860955" style="fill: #222222; stroke: #222222; stroke-width: 0.8"/>
      </g>
     </g>
     <g id="text_10">
      <text style="font-size: 7px; font-family: 'Arial', 'Helvetica', 'DejaVu Sans', sans-serif; text-anchor: end; fill: #222222" x="53.677756" y="101.409051" transform="rotate(-0 53.677756 101.409051)">10</text>
     </g>
    </g>
    <g id="ytick_4">
     <g id="line2d_10">
      <g>
       <use xlink:href="#m3bb40cc1b1" x="60.177756" y="82.539617" style="fill: #222222; stroke: #222222; stroke-width: 0.8"/>
      </g>
     </g>
     <g id="text_11">
      <text style="font-size: 7px; font-family: 'Arial', 'Helvetica', 'DejaVu Sans', sans-serif; text-anchor: end; fill: #222222" x="53.677756" y="85.087712" transform="rotate(-0 53.677756 85.087712)">15</text>
     </g>
    </g>
    <g id="ytick_5">
     <g id="line2d_11">
      <g>
       <use xlink:href="#m3bb40cc1b1" x="60.177756" y="66.218279" style="fill: #222222; stroke: #222222; stroke-width: 0.8"/>
      </g>
     </g>
     <g id="text_12">
      <text style="font-size: 7px; font-family: 'Arial', 'Helvetica', 'DejaVu Sans', sans-serif; text-anchor: end; fill: #222222" x="53.677756" y="68.766374" transform="rotate(-0 53.677756 68.766374)">20</text>
     </g>
    </g>
    <g id="ytick_6">
     <g id="line2d_12">
      <g>
       <use xlink:href="#m3bb40cc1b1" x="60.177756" y="49.89694" style="fill: #222222; stroke: #222222; stroke-width: 0.8"/>
      </g>
     </g>
     <g id="text_13">
      <text style="font-size: 7px; font-family: 'Arial', 'Helvetica', 'DejaVu Sans', sans-serif; text-anchor: end; fill: #222222" x="53.677756" y="52.445036" transform="rotate(-0 53.677756 52.445036)">25</text>
     </g>
    </g>
    <g id="ytick_7">
     <g id="line2d_13">
      <g>
       <use xlink:href="#m3bb40cc1b1" x="60.177756" y="33.575602" style="fill: #222222; stroke: #222222; stroke-width: 0.8"/>
      </g>
     </g>
     <g id="text_14">
      <text style="font-size: 7px; font-family: 'Arial', 'Helvetica', 'DejaVu Sans', sans-serif; text-anchor: end; fill: #222222" x="53.677756" y="36.123698" transform="rotate(-0 53.677756 36.123698)">30</text>
     </g>
    </g>
    <g id="ytick_8">
     <g id="line2d_14">
      <g>
       <use xlink:href="#m3bb40cc1b1" x="60.177756" y="17.254264" style="fill: #222222; stroke: #222222; stroke-width: 0.8"/>
      </g>
     </g>
     <g id="text_15">
      <text style="font-size: 7px; font-family: 'Arial', 'Helvetica', 'DejaVu Sans', sans-serif; text-anchor: end; fill: #222222" x="53.677756" y="19.80236" transform="rotate(-0 53.677756 19.80236)">35</text>
     </g>
    </g>
    <g id="text_16">
     <!-- $d$ -->
     <g transform="translate(18.72 55.087793)">
      <text>
       <tspan x="0" y="-0.671875" style="font-size: 12px; font-family: 'cmmi10'">d</tspan>
      </text>
     </g>
     <!-- $(\mathrm{mm})$ -->
     <g transform="translate(7.2 68.412012)">
      <text>
       <tspan x="0" y="-0" style="font-size: 12px; font-family: 'cmr10'">(</tspan>
       <tspan x="4.658203" y="-0" style="font-size: 12px; font-family: 'cmr10'">m</tspan>
       <tspan x="14.654297" y="-0" style="font-size: 12px; font-family: 'cmr10'">m</tspan>
       <tspan x="24.650391" y="-0" style="font-size: 12px; font-family: 'cmr10'">)</tspan>
      </text>
     </g>
    </g>
   </g>
   <g id="line2d_15">
    <path d="M 60.177756 131.503631 
L 65.24488 112.97322 
L 70.97138 123.97059 
L 75.405301 118.8599 
L 79.397843 123.775715 
L 84.281885 122.835938 
L 88.146788 123.369193 
L 92.718726 123.220948 
L 96.455698 111.91295 
L 101.051214 95.456577 
L 110.988733 88.942451 
L 115.474848 109.548612 
L 120.356166 119.340458 
L 123.211635 125.968665 
L 127.452915 125.514972 
L 131.360524 126.426499 
L 135.151096 123.924542 
L 139.088909 126.217357 
L 143.059745 126.424635 
L 147.218907 122.836561 
L 151.415731 113.097983 
L 155.940398 90.630064 
L 165.574112 88.980484 
L 171.616351 115.239658 
L 175.776801 121.007446 
L 179.742186 126.260632 
L 183.618874 122.952786 
L 187.492099 126.314585 
L 191.365312 126.181763 
L 195.275818 128.038988 
L 199.290338 126.261606 
L 202.642941 121.584241 
L 206.851709 113.638108 
L 210.568284 95.911176 
L 220.50058 88.296948 
L 225.414877 112.693897 
L 230.270359 123.498455 
L 234.288704 126.319086 
L 238.290522 125.790146 
L 242.193245 121.920993 
L 246.964765 125.347481 
L 250.899075 125.084567 
L 255.688477 118.416656 
L 259.853187 110.548422 
L 266.026213 87.078728 
L 276.502343 88.142698 
L 281.32231 110.810073 
L 286.020971 124.81051 
L 289.809941 127.529824 
L 293.932676 124.726036 
L 297.672579 125.28765 
L 301.551015 122.336413 
L 305.584445 117.119209 
L 310.433254 117.212205 
L 314.693794 109.073542 
L 318.121131 93.806453 
L 343.040878 13.119221 
L 365.569565 110.630865 
L 369.204823 119.413336 
L 373.070364 121.983915 
L 378.381378 118.037261 
L 381.292608 115.46528 
L 387.091667 124.585596 
L 390.990825 113.804161 
L 394.885281 104.516943 
L 408.157356 131.503631 
" clip-path="url(#p4f5eec7987)" style="fill: none; stroke-dasharray: 4.625,2; stroke-dashoffset: 0; stroke: #6c6c6c; stroke-width: 1.25"/>
   </g>
   <g id="line2d_16">
    <path d="M 60.177756 126.81851 
L 65.24488 125.725822 
L 70.97138 124.765657 
L 75.405301 127.27632 
L 79.397843 128.275195 
L 84.281885 126.630711 
L 88.146788 122.21824 
L 92.718726 124.641531 
L 96.455698 120.433248 
L 101.051214 113.31102 
L 110.988733 106.060173 
L 115.474848 123.62097 
L 120.356166 126.577187 
L 123.211635 123.905963 
L 127.452915 124.5241 
L 131.360524 127.267472 
L 135.151096 128.149743 
L 139.088909 127.528678 
L 143.059745 124.147151 
L 147.218907 123.435481 
L 151.415731 123.888132 
L 155.940398 111.62522 
L 165.574112 104.302388 
L 171.616351 122.59854 
L 175.776801 124.661781 
L 179.742186 124.400327 
L 183.618874 125.723239 
L 187.492099 126.408728 
L 191.365312 123.828739 
L 195.275818 123.965104 
L 199.290338 122.024686 
L 202.642941 122.575252 
L 206.851709 127.510821 
L 210.568284 116.105536 
L 220.50058 98.188164 
L 225.414877 121.521046 
L 230.270359 125.961681 
L 234.288704 123.285215 
L 238.290522 124.722015 
L 242.193245 122.990075 
L 246.964765 126.610256 
L 250.899075 123.155268 
L 255.688477 127.159145 
L 259.853187 126.713704 
L 266.026213 107.929329 
L 276.502343 110.851563 
L 281.32231 121.979639 
L 286.020971 122.34998 
L 289.809941 127.095787 
L 293.932676 126.381134 
L 297.672579 130.031866 
L 301.551015 128.538728 
L 305.584445 127.756538 
L 310.433254 124.246915 
L 314.693794 128.916835 
L 318.121131 117.588083 
L 343.040878 114.112751 
L 365.569565 105.078678 
L 369.204823 127.172235 
L 373.070364 113.616639 
L 378.381378 128.679929 
L 381.292608 128.601678 
L 387.091667 122.08735 
L 390.990825 128.729302 
L 394.885281 119.959574 
L 408.157356 129.503299 
" clip-path="url(#p4f5eec7987)" style="fill: none; stroke-dasharray: 4.995,2.16; stroke-dashoffset: 0; stroke: #4c78a8; stroke-width: 1.35"/>
   </g>
   <g id="line2d_17">
    <path d="M 60.177756 131.503631 
L 65.24488 131.503631 
L 70.97138 125.062932 
L 75.405301 131.503631 
L 79.397843 125.09929 
L 84.281885 125.094091 
L 88.146788 131.503631 
L 92.718726 131.503631 
L 96.455698 131.503631 
L 101.051214 131.503631 
L 110.988733 131.503631 
L 115.474848 91.721087 
L 120.356166 125.213194 
L 123.211635 131.503631 
L 127.452915 131.503631 
L 131.360524 131.503631 
L 135.151096 131.503631 
L 139.088909 131.503631 
L 143.059745 118.873306 
L 147.218907 131.503631 
L 151.415731 116.314314 
L 155.940398 131.503631 
L 165.574112 131.503631 
L 171.616351 107.931931 
L 175.776801 125.714939 
L 179.742186 123.352009 
L 183.618874 131.503631 
L 187.492099 131.503631 
L 191.365312 131.503631 
L 195.275818 131.503631 
L 199.290338 131.503631 
L 202.642941 131.503631 
L 206.851709 122.449837 
L 210.568284 131.503631 
L 220.50058 131.503631 
L 225.414877 112.470511 
L 230.270359 125.748835 
L 234.288704 118.80419 
L 238.290522 131.503631 
L 242.193245 118.948178 
L 246.964765 131.503631 
L 250.899075 125.738234 
L 255.688477 123.29864 
L 259.853187 118.443368 
L 266.026213 131.503631 
L 276.502343 131.503631 
L 281.32231 113.307798 
L 286.020971 117.146056 
L 289.809941 125.24035 
L 293.932676 131.503631 
L 297.672579 124.056592 
L 301.551015 125.72554 
L 305.584445 131.503631 
L 310.433254 131.503631 
L 314.693794 123.992614 
L 318.121131 131.503631 
L 343.040878 131.503631 
L 365.569565 85.89911 
L 369.204823 114.283297 
L 373.070364 107.94351 
L 378.381378 131.503631 
L 381.292608 125.58905 
L 387.091667 114.917147 
L 390.990825 118.120498 
L 394.885281 131.503631 
L 408.157356 131.503631 
" clip-path="url(#p4f5eec7987)" style="fill: none; stroke-dasharray: 4.995,2.16; stroke-dashoffset: 0; stroke: #4daf7c; stroke-width: 1.35"/>
   </g>
   <g id="patch_3">
    <path d="M 60.177756 137.422852 
L 60.177756 7.2 
" style="fill: none; stroke: #222222; stroke-width: 0.8; stroke-linejoin: miter; stroke-linecap: square"/>
   </g>
   <g id="patch_4">
    <path d="M 60.177756 137.422852 
L 408.157356 137.422852 
" style="fill: none; stroke: #222222; stroke-width: 0.8; stroke-linejoin: miter; stroke-linecap: square"/>
   </g>
   <g id="legend_1">
    <g id="patch_5">
     <path d="M 335.023762 32.777246 
L 404.657356 32.777246 
Q 405.657356 32.777246 405.657356 31.777246 
L 405.657356 10.7 
Q 405.657356 9.7 404.657356 9.7 
L 335.023762 9.7 
Q 334.023762 9.7 334.023762 10.7 
L 334.023762 31.777246 
Q 334.023762 32.777246 335.023762 32.777246 
z
" style="fill: #ffffff; opacity: 0.8; stroke: #cccccc; stroke-linejoin: miter"/>
    </g>
    <g id="line2d_18">
     <path d="M 336.023762 13.590137 
L 341.023762 13.590137 
L 346.023762 13.590137 
" style="fill: none; stroke-dasharray: 4.625,2; stroke-dashoffset: 0; stroke: #6c6c6c; stroke-width: 1.25"/>
    </g>
    <g id="text_17">
     <text style="font-size: 5px; font-family: 'Arial', 'Helvetica', 'DejaVu Sans', sans-serif; text-anchor: start" x="350.023762" y="15.340137" transform="rotate(-0 350.023762 15.340137)">Moving-average smooth</text>
    </g>
    <g id="line2d_19">
     <path d="M 336.023762 20.782617 
L 341.023762 20.782617 
L 346.023762 20.782617 
" style="fill: none; stroke-dasharray: 4.995,2.16; stroke-dashoffset: 0; stroke: #4c78a8; stroke-width: 1.35"/>
    </g>
    <g id="text_18">
     <text style="font-size: 5px; font-family: 'Arial', 'Helvetica', 'DejaVu Sans', sans-serif; text-anchor: start" x="350.023762" y="22.532617" transform="rotate(-0 350.023762 22.532617)">B-spline</text>
    </g>
    <g id="line2d_20">
     <path d="M 336.023762 27.975 
L 341.023762 27.975 
L 346.023762 27.975 
" style="fill: none; stroke-dasharray: 4.995,2.16; stroke-dashoffset: 0; stroke: #4daf7c; stroke-width: 1.35"/>
    </g>
    <g id="text_19">
     <text style="font-size: 5px; font-family: 'Arial', 'Helvetica', 'DejaVu Sans', sans-serif; text-anchor: start" x="350.023762" y="29.725" transform="rotate(-0 350.023762 29.725)">Geodesic optimized</text>
    </g>
   </g>
  </g>
 </g>
 <defs>
  <clipPath id="p4f5eec7987">
   <rect x="60.177756" y="7.2" width="347.9796" height="130.222852"/>
  </clipPath>
 </defs>
</svg>
