<?xml version="1.0" encoding="utf-8" standalone="no"?>
<!DOCTYPE svg PUBLIC "-//W3C//DTD SVG 1.1//EN"
  "http://www.w3.org/Graphics/SVG/1.1/DTD/svg11.dtd">
<svg xmlns:xlink="http://www.w3.org/1999/xlink" width="420.222356pt" height="169.200156pt" viewBox="0 0 420.222356 169.200156" xmlns="http://www.w3.org/2000/svg" version="1.1">
 <metadata>
  <rdf:RDF xmlns:dc="http://purl.org/dc/elements/1.1/" xmlns:cc="http://creativecommons.org/ns#" xmlns:rdf="http://www.w3.org/1999/02/22-rdf-syntax-ns#">
   <cc:Work>
    <dc:type rdf:resource="http://purl.org/dc/dcmitype/StillImage"/>
    <dc:date>2026-06-23T12:37:47.578603</dc:date>
    <dc:format>image/svg+xml</dc:format>
    <dc:creator>
     <cc:Agent>
      <dc:title>Matplotlib v3.11.0, https://matplotlib.org/</dc:title>
     </cc:Agent>
    </dc:creator>
   </cc:Work>
  </rdf:RDF>
 </metadata>
 <defs>
  <style type="text/css">*{stroke-linejoin: round; stroke-linecap: butt}</style>
 </defs>
 <g id="figure_1">
  <g id="patch_1">
   <path d="M 0 169.200156 
L 420.222356 169.200156 
L 420.222356 0 
L 0 0 
z
" style="fill: #ffffff"/>
  </g>
  <g id="axes_1">
   <g id="patch_2">
    <path d="M 60.177756 137.422852 
L 408.157356 137.422852 
L 408.157356 7.2 
L 60.177756 7.2 
z
" style="fill: #ffffff"/>
   </g>
   <g id="matplotlib.axis_1">
    <g id="xtick_1">
     <g id="line2d_1">
      <defs>
       <path id="m3088f68c21" d="M 0 0 
L 0 3 
" style="stroke: #222222; stroke-width: 0.8"/>
      </defs>
      <g>
       <use xlink:href="#m3088f68c21" x="60.177756" y="137.422852" style="fill: #222222; stroke: #222222; stroke-width: 0.8"/>
      </g>
     </g>
     <g id="text_1">
      <text style="font-size: 7px; font-family: 'Arial', 'Helvetica', 'DejaVu Sans', sans-serif; text-anchor: middle; fill: #222222" x="60.177756" y="149.019043" transform="rotate(-0 60.177756 149.019043)">0.0</text>
     </g>
    </g>
    <g id="xtick_2">
     <g id="line2d_2">
      <g>
       <use xlink:href="#m3088f68c21" x="129.773676" y="137.422852" style="fill: #222222; stroke: #222222; stroke-width: 0.8"/>
      </g>
     </g>
     <g id="text_2">
      <text style="font-size: 7px; font-family: 'Arial', 'Helvetica', 'DejaVu Sans', sans-serif; text-anchor: middle; fill: #222222" x="129.773676" y="149.019043" transform="rotate(-0 129.773676 149.019043)">0.2</text>
     </g>
    </g>
    <g id="xtick_3">
     <g id="line2d_3">
      <g>
       <use xlink:href="#m3088f68c21" x="199.369596" y="137.422852" style="fill: #222222; stroke: #222222; stroke-width: 0.8"/>
      </g>
     </g>
     <g id="text_3">
      <text style="font-size: 7px; font-family: 'Arial', 'Helvetica', 'DejaVu Sans', sans-serif; text-anchor: middle; fill: #222222" x="199.369596" y="149.019043" transform="rotate(-0 199.369596 149.019043)">0.4</text>
     </g>
    </g>
    <g id="xtick_4">
     <g id="line2d_4">
      <g>
       <use xlink:href="#m3088f68c21" x="268.965516" y="137.422852" style="fill: #222222; stroke: #222222; stroke-width: 0.8"/>
      </g>
     </g>
     <g id="text_4">
      <text style="font-size: 7px; font-family: 'Arial', 'Helvetica', 'DejaVu Sans', sans-serif; text-anchor: middle; fill: #222222" x="268.965516" y="149.019043" transform="rotate(-0 268.965516 149.019043)">0.6</text>
     </g>
    </g>
    <g id="xtick_5">
     <g id="line2d_5">
      <g>
       <use xlink:href="#m3088f68c21" x="338.561436" y="137.422852" style="fill: #222222; stroke: #222222; stroke-width: 0.8"/>
      </g>
     </g>
     <g id="text_5">
      <text style="font-size: 7px; font-family: 'Arial', 'Helvetica', 'DejaVu Sans', sans-serif; text-anchor: middle; fill: #222222" x="338.561436" y="149.019043" transform="rotate(-0 338.561436 149.019043)">0.8</text>
     </g>
    </g>
    <g id="xtick_6">
     <g id="line2d_6">
      <g>
       <use xlink:href="#m3088f68c21" x="408.157356" y="137.422852" style="fill: #222222; stroke: #222222; stroke-width: 0.8"/>
      </g>
     </g>
     <g id="text_6">
      <text style="font-size: 7px; font-family: 'Arial', 'Helvetica', 'DejaVu Sans', sans-serif; text-anchor: middle; fill: #222222" x="408.157356" y="149.019043" transform="rotate(-0 408.157356 149.019043)">1.0</text>
     </g>
    </g>
    <g id="text_7">
     <text style="font-size: 8px; font-family: 'Arial', 'Helvetica', 'DejaVu Sans', sans-serif; text-anchor: middle" x="234.167556" y="160.316406" transform="rotate(-0 234.167556 160.316406)">Normalized arc length</text>
    </g>
   </g>
   <g id="matplotlib.axis_2">
    <g id="ytick_1">
     <g id="line2d_7">
      <defs>
       <path id="mea11e6b23f" d="M 0 0 
L -3 0 
" style="stroke: #222222; stroke-width: 0.8"/>
      </defs>
      <g>
       <use xlink:href="#mea11e6b23f" x="60.177756" y="131.503631" style="fill: #222222; stroke: #222222; stroke-width: 0.8"/>
      </g>
     </g>
     <g id="text_8">
      <text style="font-size: 7px; font-family: 'Arial', 'Helvetica', 'DejaVu Sans', sans-serif; text-anchor: end; fill: #222222" x="53.677756" y="134.051727" transform="rotate(-0 53.677756 134.051727)">0.0</text>
     </g>
    </g>
    <g id="ytick_2">
     <g id="line2d_8">
      <g>
       <use xlink:href="#mea11e6b23f" x="60.177756" y="115.542497" style="fill: #222222; stroke: #222222; stroke-width: 0.8"/>
      </g>
     </g>
     <g id="text_9">
      <text style="font-size: 7px; font-family: 'Arial', 'Helvetica', 'DejaVu Sans', sans-serif; text-anchor: end; fill: #222222" x="53.677756" y="118.090592" transform="rotate(-0 53.677756 118.090592)">2.5</text>
     </g>
    </g>
    <g id="ytick_3">
     <g id="line2d_9">
      <g>
       <use xlink:href="#mea11e6b23f" x="60.177756" y="99.581362" style="fill: #222222; stroke: #222222; stroke-width: 0.8"/>
      </g>
     </g>
     <g id="text_10">
      <text style="font-size: 7px; font-family: 'Arial', 'Helvetica', 'DejaVu Sans', sans-serif; text-anchor: end; fill: #222222" x="53.677756" y="102.129458" transform="rotate(-0 53.677756 102.129458)">5.0</text>
     </g>
    </g>
    <g id="ytick_4">
     <g id="line2d_10">
      <g>
       <use xlink:href="#mea11e6b23f" x="60.177756" y="83.620228" style="fill: #222222; stroke: #222222; stroke-width: 0.8"/>
      </g>
     </g>
     <g id="text_11">
      <text style="font-size: 7px; font-family: 'Arial', 'Helvetica', 'DejaVu Sans', sans-serif; text-anchor: end; fill: #222222" x="53.677756" y="86.168324" transform="rotate(-0 53.677756 86.168324)">7.5</text>
     </g>
    </g>
    <g id="ytick_5">
     <g id="line2d_11">
      <g>
       <use xlink:href="#mea11e6b23f" x="60.177756" y="67.659094" style="fill: #222222; stroke: #222222; stroke-width: 0.8"/>
      </g>
     </g>
     <g id="text_12">
      <text style="font-size: 7px; font-family: 'Arial', 'Helvetica', 'DejaVu Sans', sans-serif; text-anchor: end; fill: #222222" x="53.677756" y="70.20719" transform="rotate(-0 53.677756 70.20719)">10.0</text>
     </g>
    </g>
    <g id="ytick_6">
     <g id="line2d_12">
      <g>
       <use xlink:href="#mea11e6b23f" x="60.177756" y="51.69796" style="fill: #222222; stroke: #222222; stroke-width: 0.8"/>
      </g>
     </g>
     <g id="text_13">
      <text style="font-size: 7px; font-family: 'Arial', 'Helvetica', 'DejaVu Sans', sans-serif; text-anchor: end; fill: #222222" x="53.677756" y="54.246055" transform="rotate(-0 53.677756 54.246055)">12.5</text>
     </g>
    </g>
    <g id="ytick_7">
     <g id="line2d_13">
      <g>
       <use xlink:href="#mea11e6b23f" x="60.177756" y="35.736825" style="fill: #222222; stroke: #222222; stroke-width: 0.8"/>
      </g>
     </g>
     <g id="text_14">
      <text style="font-size: 7px; font-family: 'Arial', 'Helvetica', 'DejaVu Sans', sans-serif; text-anchor: end; fill: #222222" x="53.677756" y="38.284921" transform="rotate(-0 53.677756 38.284921)">15.0</text>
     </g>
    </g>
    <g id="ytick_8">
     <g id="line2d_14">
      <g>
       <use xlink:href="#mea11e6b23f" x="60.177756" y="19.775691" style="fill: #222222; stroke: #222222; stroke-width: 0.8"/>
      </g>
     </g>
     <g id="text_15">
      <text style="font-size: 7px; font-family: 'Arial', 'Helvetica', 'DejaVu Sans', sans-serif; text-anchor: end; fill: #222222" x="53.677756" y="22.323787" transform="rotate(-0 53.677756 22.323787)">17.5</text>
     </g>
    </g>
    <g id="text_16">
     <!-- $d$ -->
     <g transform="translate(18.72 55.087793)">
      <text>
       <tspan x="0" y="-0.671875" style="font-size: 12px; font-family: 'cmmi10'">d</tspan>
      </text>
     </g>
     <!-- $(\mathrm{mm})$ -->
     <g transform="translate(7.2 68.412012)">
      <text>
       <tspan x="0" y="-0" style="font-size: 12px; font-family: 'cmr10'">(</tspan>
       <tspan x="4.658203" y="-0" style="font-size: 12px; font-family: 'cmr10'">m</tspan>
       <tspan x="14.654297" y="-0" style="font-size: 12px; font-family: 'cmr10'">m</tspan>
       <tspan x="24.650391" y="-0" style="font-size: 12px; font-family: 'cmr10'">)</tspan>
      </text>
     </g>
    </g>
   </g>
   <g id="line2d_15">
    <path d="M 60.177756 131.503631 
L 65.531338 99.198743 
L 71.659199 105.447859 
L 75.751193 117.429102 
L 80.372678 119.691236 
L 84.464044 117.527763 
L 89.249877 115.674569 
L 93.828182 116.234977 
L 98.54871 102.948882 
L 103.706713 63.619208 
L 115.78106 36.184994 
L 120.807999 84.016852 
L 126.401309 108.279122 
L 130.02644 119.783474 
L 134.506709 126.028884 
L 139.070234 119.766674 
L 143.222151 120.611559 
L 147.003593 121.716735 
L 151.694231 119.496662 
L 155.445735 114.280875 
L 160.125335 92.247482 
L 165.280785 53.047896 
L 175.509297 57.304402 
L 180.234193 91.229669 
L 185.274938 112.858131 
L 190.421486 118.618364 
L 194.829854 110.16124 
L 198.911114 113.329306 
L 203.566123 121.406941 
L 208.287896 123.424514 
L 213.078775 119.456723 
L 218.622541 116.217977 
L 223.773233 90.835627 
L 228.544524 52.565191 
L 238.378523 51.768253 
L 244.235755 98.121459 
L 248.920988 117.33219 
L 253.537055 122.778348 
L 258.344018 123.781269 
L 263.082278 119.201419 
L 267.458709 115.293085 
L 271.955586 118.846068 
L 276.591356 121.722335 
L 281.05882 111.450554 
L 285.603676 90.29829 
L 290.339353 54.52373 
L 301.348859 53.462895 
L 306.155693 92.288648 
L 310.774532 112.828892 
L 315.561267 119.253129 
L 320.141214 118.777279 
L 325.050203 120.412274 
L 329.272668 119.018035 
L 334.084448 121.342944 
L 338.285668 114.210061 
L 342.94947 90.117404 
L 347.696655 45.166744 
L 356.48504 109.28153 
L 359.912648 117.448349 
L 361.016202 108.621866 
L 366.795531 117.246527 
L 371.266939 119.627243 
L 373.810214 107.719552 
L 379.737159 93.74161 
L 385.97598 86.192923 
L 390.665051 74.535762 
L 408.157356 131.503631 
" clip-path="url(#pd81dc3b3c4)" style="fill: none; stroke-dasharray: 4.625,2; stroke-dashoffset: 0; stroke: #6c6c6c; stroke-width: 1.25"/>
   </g>
   <g id="line2d_16">
    <path d="M 60.177756 118.187555 
L 65.531338 117.953513 
L 71.659199 123.541726 
L 75.751193 120.900846 
L 80.372678 123.673988 
L 84.464044 124.308476 
L 89.249877 111.978653 
L 93.828182 114.053875 
L 98.54871 116.71154 
L 103.706713 98.878978 
L 115.78106 75.791598 
L 120.807999 115.941195 
L 126.401309 121.410594 
L 130.02644 114.455002 
L 134.506709 115.541526 
L 139.070234 122.664249 
L 143.222151 125.832453 
L 147.003593 123.291596 
L 151.694231 116.388647 
L 155.445735 113.931266 
L 160.125335 109.819696 
L 165.280785 93.236934 
L 175.509297 85.12915 
L 180.234193 103.214091 
L 185.274938 120.195076 
L 190.421486 115.328531 
L 194.829854 119.087973 
L 198.911114 118.432651 
L 203.566123 120.384964 
L 208.287896 114.715208 
L 213.078775 108.825559 
L 218.622541 112.904267 
L 223.773233 122.023297 
L 228.544524 97.595212 
L 238.378523 72.951582 
L 244.235755 110.810376 
L 248.920988 121.262922 
L 253.537055 115.560761 
L 258.344018 113.353778 
L 263.082278 118.16687 
L 267.458709 119.179797 
L 271.955586 119.420833 
L 276.591356 114.014395 
L 281.05882 123.348564 
L 285.603676 117.973975 
L 290.339353 89.008216 
L 301.348859 95.151157 
L 306.155693 116.227162 
L 310.774532 115.368552 
L 315.561267 114.665113 
L 320.141214 123.554285 
L 325.050203 121.723769 
L 329.272668 113.100013 
L 334.084448 110.404557 
L 338.285668 118.256792 
L 342.94947 115.549023 
L 347.696655 70.562358 
L 356.48504 122.392221 
L 359.912648 122.688794 
L 361.016202 119.531482 
L 366.795531 111.188532 
L 371.266939 116.834119 
L 373.810214 122.102638 
L 379.737159 110.551126 
L 385.97598 112.41953 
L 390.665051 122.629922 
L 408.157356 127.527791 
" clip-path="url(#pd81dc3b3c4)" style="fill: none; stroke-dasharray: 4.995,2.16; stroke-dashoffset: 0; stroke: #4c78a8; stroke-width: 1.35"/>
   </g>
   <g id="line2d_17">
    <path d="M 60.177756 131.503631 
L 65.531338 116.948636 
L 71.659199 114.566873 
L 75.751193 113.0694 
L 80.372678 117.504194 
L 84.464044 113.068802 
L 89.249877 131.503631 
L 93.828182 106.565478 
L 98.54871 112.004353 
L 103.706713 119.424241 
L 115.78106 131.503631 
L 120.807999 51.243091 
L 126.401309 131.503631 
L 130.02644 131.503631 
L 134.506709 119.980465 
L 139.070234 131.503631 
L 143.222151 120.117592 
L 147.003593 131.503631 
L 151.694231 131.503631 
L 155.445735 131.503631 
L 160.125335 55.580533 
L 165.280785 106.757902 
L 175.509297 121.684433 
L 180.234193 112.641939 
L 185.274938 120.187022 
L 190.421486 131.503631 
L 194.829854 123.575841 
L 198.911114 131.503631 
L 203.566123 131.503631 
L 208.287896 131.503631 
L 213.078775 131.503631 
L 218.622541 95.442643 
L 223.773233 96.666175 
L 228.544524 131.503631 
L 238.378523 131.503631 
L 244.235755 101.56319 
L 248.920988 106.53943 
L 253.537055 123.277209 
L 258.344018 131.503631 
L 263.082278 131.503631 
L 267.458709 131.503631 
L 271.955586 120.154769 
L 276.591356 131.503631 
L 281.05882 113.451302 
L 285.603676 95.801525 
L 290.339353 113.17322 
L 301.348859 106.474141 
L 306.155693 119.898536 
L 310.774532 119.87733 
L 315.561267 119.955792 
L 320.141214 131.503631 
L 325.050203 131.503631 
L 329.272668 120.015227 
L 334.084448 112.949826 
L 338.285668 78.175304 
L 342.94947 13.119221 
L 347.696655 131.503631 
L 356.48504 131.503631 
L 359.912648 131.503631 
L 361.016202 110.349122 
L 366.795531 123.135163 
L 371.266939 111.142127 
L 373.810214 100.391185 
L 379.737159 123.18203 
L 385.97598 95.874049 
L 390.665051 109.887243 
L 408.157356 131.503631 
" clip-path="url(#pd81dc3b3c4)" style="fill: none; stroke-dasharray: 4.995,2.16; stroke-dashoffset: 0; stroke: #4daf7c; stroke-width: 1.35"/>
   </g>
   <g id="patch_3">
    <path d="M 60.177756 137.422852 
L 60.177756 7.2 
" style="fill: none; stroke: #222222; stroke-width: 0.8; stroke-linejoin: miter; stroke-linecap: square"/>
   </g>
   <g id="patch_4">
    <path d="M 60.177756 137.422852 
L 408.157356 137.422852 
" style="fill: none; stroke: #222222; stroke-width: 0.8; stroke-linejoin: miter; stroke-linecap: square"/>
   </g>
   <g id="legend_1">
    <g id="patch_5">
     <path d="M 335.023762 32.777246 
L 404.657356 32.777246 
Q 405.657356 32.777246 405.657356 31.777246 
L 405.657356 10.7 
Q 405.657356 9.7 404.657356 9.7 
L 335.023762 9.7 
Q 334.023762 9.7 334.023762 10.7 
L 334.023762 31.777246 
Q 334.023762 32.777246 335.023762 32.777246 
z
" style="fill: #ffffff; opacity: 0.8; stroke: #cccccc; stroke-linejoin: miter"/>
    </g>
    <g id="line2d_18">
     <path d="M 336.023762 13.590137 
L 341.023762 13.590137 
L 346.023762 13.590137 
" style="fill: none; stroke-dasharray: 4.625,2; stroke-dashoffset: 0; stroke: #6c6c6c; stroke-width: 1.25"/>
    </g>
    <g id="text_17">
     <text style="font-size: 5px; font-family: 'Arial', 'Helvetica', 'DejaVu Sans', sans-serif; text-anchor: start" x="350.023762" y="15.340137" transform="rotate(-0 350.023762 15.340137)">Moving-average smooth</text>
    </g>
    <g id="line2d_19">
     <path d="M 336.023762 20.782617 
L 341.023762 20.782617 
L 346.023762 20.782617 
" style="fill: none; stroke-dasharray: 4.995,2.16; stroke-dashoffset: 0; stroke: #4c78a8; stroke-width: 1.35"/>
    </g>
    <g id="text_18">
     <text style="font-size: 5px; font-family: 'Arial', 'Helvetica', 'DejaVu Sans', sans-serif; text-anchor: start" x="350.023762" y="22.532617" transform="rotate(-0 350.023762 22.532617)">B-spline</text>
    </g>
    <g id="line2d_20">
     <path d="M 336.023762 27.975 
L 341.023762 27.975 
L 346.023762 27.975 
" style="fill: none; stroke-dasharray: 4.995,2.16; stroke-dashoffset: 0; stroke: #4daf7c; stroke-width: 1.35"/>
    </g>
    <g id="text_19">
     <text style="font-size: 5px; font-family: 'Arial', 'Helvetica', 'DejaVu Sans', sans-serif; text-anchor: start" x="350.023762" y="29.725" transform="rotate(-0 350.023762 29.725)">Geodesic optimized</text>
    </g>
   </g>
  </g>
 </g>
 <defs>
  <clipPath id="pd81dc3b3c4">
   <rect x="60.177756" y="7.2" width="347.9796" height="130.222852"/>
  </clipPath>
 </defs>
</svg>
