<?xml version="1.0" encoding="utf-8" standalone="no"?>
<!DOCTYPE svg PUBLIC "-//W3C//DTD SVG 1.1//EN"
  "http://www.w3.org/Graphics/SVG/1.1/DTD/svg11.dtd">
<svg xmlns:xlink="http://www.w3.org/1999/xlink" width="420.861956pt" height="169.200156pt" viewBox="0 0 420.861956 169.200156" xmlns="http://www.w3.org/2000/svg" version="1.1">
 <metadata>
  <rdf:RDF xmlns:dc="http://purl.org/dc/elements/1.1/" xmlns:cc="http://creativecommons.org/ns#" xmlns:rdf="http://www.w3.org/1999/02/22-rdf-syntax-ns#">
   <cc:Work>
    <dc:type rdf:resource="http://purl.org/dc/dcmitype/StillImage"/>
    <dc:date>2026-06-23T12:37:47.380231</dc:date>
    <dc:format>image/svg+xml</dc:format>
    <dc:creator>
     <cc:Agent>
      <dc:title>Matplotlib v3.11.0, https://matplotlib.org/</dc:title>
     </cc:Agent>
    </dc:creator>
   </cc:Work>
  </rdf:RDF>
 </metadata>
 <defs>
  <style type="text/css">*{stroke-linejoin: round; stroke-linecap: butt}</style>
 </defs>
 <g id="figure_1">
  <g id="patch_1">
   <path d="M 0 169.200156 
L 420.861956 169.200156 
L 420.861956 0 
L 0 0 
z
" style="fill: #ffffff"/>
  </g>
  <g id="axes_1">
   <g id="patch_2">
    <path d="M 55.957356 137.422852 
L 408.796956 137.422852 
L 408.796956 7.2 
L 55.957356 7.2 
z
" style="fill: #ffffff"/>
   </g>
   <g id="matplotlib.axis_1">
    <g id="xtick_1">
     <g id="line2d_1">
      <defs>
       <path id="ma60655ff8c" d="M 0 0 
L 0 3 
" style="stroke: #222222; stroke-width: 0.8"/>
      </defs>
      <g>
       <use xlink:href="#ma60655ff8c" x="55.957356" y="137.422852" style="fill: #222222; stroke: #222222; stroke-width: 0.8"/>
      </g>
     </g>
     <g id="text_1">
      <text style="font-size: 7px; font-family: 'Arial', 'Helvetica', 'DejaVu Sans', sans-serif; text-anchor: middle; fill: #222222" x="55.957356" y="149.019043" transform="rotate(-0 55.957356 149.019043)">0.0</text>
     </g>
    </g>
    <g id="xtick_2">
     <g id="line2d_2">
      <g>
       <use xlink:href="#ma60655ff8c" x="126.525276" y="137.422852" style="fill: #222222; stroke: #222222; stroke-width: 0.8"/>
      </g>
     </g>
     <g id="text_2">
      <text style="font-size: 7px; font-family: 'Arial', 'Helvetica', 'DejaVu Sans', sans-serif; text-anchor: middle; fill: #222222" x="126.525276" y="149.019043" transform="rotate(-0 126.525276 149.019043)">0.2</text>
     </g>
    </g>
    <g id="xtick_3">
     <g id="line2d_3">
      <g>
       <use xlink:href="#ma60655ff8c" x="197.093196" y="137.422852" style="fill: #222222; stroke: #222222; stroke-width: 0.8"/>
      </g>
     </g>
     <g id="text_3">
      <text style="font-size: 7px; font-family: 'Arial', 'Helvetica', 'DejaVu Sans', sans-serif; text-anchor: middle; fill: #222222" x="197.093196" y="149.019043" transform="rotate(-0 197.093196 149.019043)">0.4</text>
     </g>
    </g>
    <g id="xtick_4">
     <g id="line2d_4">
      <g>
       <use xlink:href="#ma60655ff8c" x="267.661116" y="137.422852" style="fill: #222222; stroke: #222222; stroke-width: 0.8"/>
      </g>
     </g>
     <g id="text_4">
      <text style="font-size: 7px; font-family: 'Arial', 'Helvetica', 'DejaVu Sans', sans-serif; text-anchor: middle; fill: #222222" x="267.661116" y="149.019043" transform="rotate(-0 267.661116 149.019043)">0.6</text>
     </g>
    </g>
    <g id="xtick_5">
     <g id="line2d_5">
      <g>
       <use xlink:href="#ma60655ff8c" x="338.229036" y="137.422852" style="fill: #222222; stroke: #222222; stroke-width: 0.8"/>
      </g>
     </g>
     <g id="text_5">
      <text style="font-size: 7px; font-family: 'Arial', 'Helvetica', 'DejaVu Sans', sans-serif; text-anchor: middle; fill: #222222" x="338.229036" y="149.019043" transform="rotate(-0 338.229036 149.019043)">0.8</text>
     </g>
    </g>
    <g id="xtick_6">
     <g id="line2d_6">
      <g>
       <use xlink:href="#ma60655ff8c" x="408.796956" y="137.422852" style="fill: #222222; stroke: #222222; stroke-width: 0.8"/>
      </g>
     </g>
     <g id="text_6">
      <text style="font-size: 7px; font-family: 'Arial', 'Helvetica', 'DejaVu Sans', sans-serif; text-anchor: middle; fill: #222222" x="408.796956" y="149.019043" transform="rotate(-0 408.796956 149.019043)">1.0</text>
     </g>
    </g>
    <g id="text_7">
     <text style="font-size: 8px; font-family: 'Arial', 'Helvetica', 'DejaVu Sans', sans-serif; text-anchor: middle" x="232.377156" y="160.316406" transform="rotate(-0 232.377156 160.316406)">Normalized arc length</text>
    </g>
   </g>
   <g id="matplotlib.axis_2">
    <g id="ytick_1">
     <g id="line2d_7">
      <defs>
       <path id="m9b56663605" d="M 0 0 
L -3 0 
" style="stroke: #222222; stroke-width: 0.8"/>
      </defs>
      <g>
       <use xlink:href="#m9b56663605" x="55.957356" y="131.507369" style="fill: #222222; stroke: #222222; stroke-width: 0.8"/>
      </g>
     </g>
     <g id="text_8">
      <text style="font-size: 7px; font-family: 'Arial', 'Helvetica', 'DejaVu Sans', sans-serif; text-anchor: end; fill: #222222" x="49.457356" y="134.055465" transform="rotate(-0 49.457356 134.055465)">0</text>
     </g>
    </g>
    <g id="ytick_2">
     <g id="line2d_8">
      <g>
       <use xlink:href="#m9b56663605" x="55.957356" y="113.406855" style="fill: #222222; stroke: #222222; stroke-width: 0.8"/>
      </g>
     </g>
     <g id="text_9">
      <text style="font-size: 7px; font-family: 'Arial', 'Helvetica', 'DejaVu Sans', sans-serif; text-anchor: end; fill: #222222" x="49.457356" y="115.954951" transform="rotate(-0 49.457356 115.954951)">100</text>
     </g>
    </g>
    <g id="ytick_3">
     <g id="line2d_9">
      <g>
       <use xlink:href="#m9b56663605" x="55.957356" y="95.306341" style="fill: #222222; stroke: #222222; stroke-width: 0.8"/>
      </g>
     </g>
     <g id="text_10">
      <text style="font-size: 7px; font-family: 'Arial', 'Helvetica', 'DejaVu Sans', sans-serif; text-anchor: end; fill: #222222" x="49.457356" y="97.854436" transform="rotate(-0 49.457356 97.854436)">200</text>
     </g>
    </g>
    <g id="ytick_4">
     <g id="line2d_10">
      <g>
       <use xlink:href="#m9b56663605" x="55.957356" y="77.205826" style="fill: #222222; stroke: #222222; stroke-width: 0.8"/>
      </g>
     </g>
     <g id="text_11">
      <text style="font-size: 7px; font-family: 'Arial', 'Helvetica', 'DejaVu Sans', sans-serif; text-anchor: end; fill: #222222" x="49.457356" y="79.753922" transform="rotate(-0 49.457356 79.753922)">300</text>
     </g>
    </g>
    <g id="ytick_5">
     <g id="line2d_11">
      <g>
       <use xlink:href="#m9b56663605" x="55.957356" y="59.105312" style="fill: #222222; stroke: #222222; stroke-width: 0.8"/>
      </g>
     </g>
     <g id="text_12">
      <text style="font-size: 7px; font-family: 'Arial', 'Helvetica', 'DejaVu Sans', sans-serif; text-anchor: end; fill: #222222" x="49.457356" y="61.653408" transform="rotate(-0 49.457356 61.653408)">400</text>
     </g>
    </g>
    <g id="ytick_6">
     <g id="line2d_12">
      <g>
       <use xlink:href="#m9b56663605" x="55.957356" y="41.004798" style="fill: #222222; stroke: #222222; stroke-width: 0.8"/>
      </g>
     </g>
     <g id="text_13">
      <text style="font-size: 7px; font-family: 'Arial', 'Helvetica', 'DejaVu Sans', sans-serif; text-anchor: end; fill: #222222" x="49.457356" y="43.552893" transform="rotate(-0 49.457356 43.552893)">500</text>
     </g>
    </g>
    <g id="ytick_7">
     <g id="line2d_13">
      <g>
       <use xlink:href="#m9b56663605" x="55.957356" y="22.904283" style="fill: #222222; stroke: #222222; stroke-width: 0.8"/>
      </g>
     </g>
     <g id="text_14">
      <text style="font-size: 7px; font-family: 'Arial', 'Helvetica', 'DejaVu Sans', sans-serif; text-anchor: end; fill: #222222" x="49.457356" y="25.452379" transform="rotate(-0 49.457356 25.452379)">600</text>
     </g>
    </g>
    <g id="text_15">
     <!-- $|\kappa_g|$ -->
     <g transform="translate(7.2 68.411426)">
      <text>
       <tspan x="0" y="-0.25" style="font-size: 13px; font-family: 'cmsy10'">j</tspan>
       <tspan x="16.174172" y="-0.25" style="font-size: 13px; font-family: 'cmsy10'">j</tspan>
       <tspan x="3.599121" y="-0.25" style="font-size: 13px; font-family: 'cmmi10'">∙</tspan>
       <tspan x="11.089355" y="1.699995" style="font-size: 9.1px; font-family: 'cmmi10'">g</tspan>
      </text>
     </g>
    </g>
   </g>
   <g id="line2d_14">
    <path d="M 61.385708 130.879745 
L 67.599153 119.876805 
L 71.748297 126.802474 
L 76.434327 126.722449 
L 80.582834 127.800997 
L 85.435508 122.078784 
L 90.077756 125.715476 
L 94.864212 125.458965 
L 100.094253 110.262252 
L 112.337235 91.027171 
L 117.434381 128.773961 
L 123.105809 126.883157 
L 126.78157 128.600888 
L 131.324412 128.020517 
L 135.951673 127.604292 
L 140.161577 126.191831 
L 143.995832 128.603314 
L 148.751981 127.657608 
L 152.55588 129.717246 
L 157.300836 129.060968 
L 162.528289 99.682346 
L 172.899656 103.063662 
L 177.690541 127.873045 
L 182.801687 125.406802 
L 188.020113 130.232737 
L 192.490051 126.252588 
L 196.628311 130.593699 
L 201.348333 131.479476 
L 206.136052 131.478303 
L 210.993842 128.092166 
L 216.615034 127.99513 
L 221.837662 131.02418 
L 226.67559 95.094221 
L 236.646935 99.499227 
L 242.585971 130.328329 
L 247.336639 131.381306 
L 252.017176 131.304878 
L 256.891274 131.445747 
L 261.69571 130.495136 
L 266.133264 130.176545 
L 270.692946 126.461075 
L 275.393461 128.041328 
L 279.923319 130.423644 
L 284.53165 130.47463 
L 289.333467 102.094996 
L 300.496736 99.552053 
L 305.370704 129.821443 
L 310.054051 128.273154 
L 314.907639 124.112692 
L 319.551551 130.404781 
L 324.5291 130.7463 
L 328.810538 127.39076 
L 333.689521 130.997547 
L 337.949417 130.016965 
L 342.678355 122.4292 
L 347.491841 13.119221 
L 356.402967 125.032131 
L 359.878446 125.323114 
L 360.997413 118.29386 
L 366.857458 126.686621 
L 371.391315 107.255094 
L 373.97011 125.08342 
L 379.979833 115.895802 
L 386.305787 118.0965 
L 391.060348 127.726519 
" clip-path="url(#p3d274fd0be)" style="fill: none; stroke: #c73e3a; stroke-width: 1.55; stroke-linecap: square"/>
   </g>
   <g id="line2d_15">
    <path d="M 67.594982 128.908235 
L 70.725252 131.342818 
L 77.268852 128.750998 
L 82.890448 130.142308 
L 89.082863 130.616805 
L 95.424036 130.322407 
L 101.440197 127.753884 
L 106.707452 124.150644 
L 110.9134 108.890919 
L 114.318862 82.758231 
L 117.141179 105.366262 
L 120.994202 121.919646 
L 125.837891 127.074319 
L 131.502128 128.17597 
L 137.519937 131.165667 
L 143.400444 130.56708 
L 149.24951 129.696308 
L 154.97603 128.728376 
L 160.083826 125.517619 
L 164.272205 116.290698 
L 167.40215 91.129704 
L 170.389216 95.207329 
L 173.88847 118.345833 
L 178.496059 126.927672 
L 184.051688 128.413995 
L 190.111622 128.661937 
L 196.349847 130.256362 
L 202.724119 131.462371 
L 209.301883 129.490958 
L 215.828705 128.919325 
L 221.776465 126.933319 
L 226.559512 117.620767 
L 229.900696 82.865684 
L 232.696133 89.164429 
L 236.12284 118.90809 
L 240.88845 127.275619 
L 246.702397 129.213107 
L 253.098197 129.790486 
L 259.566248 131.327969 
L 265.869509 130.873625 
L 272.137886 128.269587 
L 278.168648 127.841181 
L 283.543787 125.118986 
L 287.933134 115.518611 
L 291.211963 89.850757 
L 294.258435 92.550129 
L 297.710013 118.542039 
L 302.333181 126.233982 
L 307.967785 129.561766 
L 314.190727 130.157692 
L 320.550164 130.660962 
L 326.865865 129.474909 
L 332.599461 128.438209 
L 337.324462 125.550252 
L 340.827345 105.667749 
L 342.827608 35.51703 
L 345.120862 104.429093 
L 348.346521 121.728314 
L 352.544006 128.277689 
L 357.791616 129.776941 
L 363.5216 131.468948 
L 369.484574 130.955389 
L 375.391378 128.16615 
L 384.270442 130.524426 
L 388.140254 130.282025 
" clip-path="url(#p3d274fd0be)" style="fill: none; stroke: #6c6c6c; stroke-width: 1.35; stroke-linecap: square"/>
   </g>
   <g id="line2d_16">
    <path d="M 62.853865 124.791316 
L 69.698799 126.380882 
L 74.508366 129.248445 
L 80.345459 130.504562 
L 85.760162 131.411378 
L 92.094936 130.980721 
L 97.798065 129.704823 
L 102.917398 126.302984 
L 107.244959 105.424503 
L 113.561458 102.712239 
L 116.971684 119.966397 
L 121.725569 123.472188 
L 125.44324 126.287799 
L 130.777618 129.181558 
L 136.826073 131.041488 
L 142.541942 131.139536 
L 147.697373 130.673885 
L 153.848634 129.854317 
L 158.401826 128.586724 
L 163.220695 123.982552 
L 166.882202 74.725384 
L 171.747501 110.206948 
L 175.612933 126.907606 
L 180.593229 129.274971 
L 186.311669 129.40795 
L 191.671896 129.621455 
L 197.006708 129.929077 
L 203.36708 131.12809 
L 209.840538 131.34477 
L 216.074813 130.705309 
L 222.362954 128.88214 
L 226.833897 120.613544 
L 229.529197 63.906961 
L 233.824145 112.209146 
L 238.448415 126.059127 
L 243.080445 127.714126 
L 248.248649 127.688628 
L 254.126652 128.230047 
L 260.348193 129.952155 
L 266.268884 130.910934 
L 272.191072 128.67428 
L 277.811117 125.749019 
L 282.685405 125.022513 
L 287.134798 123.850422 
L 291.118102 111.101941 
L 297.184718 90.124776 
L 300.747696 123.084575 
L 305.503138 128.547271 
L 311.469456 130.755044 
L 317.768332 131.381992 
L 324.782931 131.009917 
L 330.651373 130.458117 
L 336.579482 128.726996 
L 340.603261 121.311368 
L 343.498368 94.952909 
L 345.313301 85.217876 
L 349.675401 115.687881 
L 352.377578 124.591516 
L 353.363169 127.905306 
L 359.313835 129.496674 
L 364.596818 130.709723 
L 367.749058 131.386825 
L 375.176144 131.043125 
L 382.635381 130.016181 
L 387.799705 128.955619 
" clip-path="url(#p3d274fd0be)" style="fill: none; stroke: #4c78a8; stroke-width: 1.35; stroke-linecap: square"/>
   </g>
   <g id="line2d_17">
    <path d="M 62.143041 128.294368 
L 65.391487 128.864271 
L 71.831421 128.723122 
L 74.075411 129.927655 
L 80.098401 126.787834 
L 83.459427 126.892389 
L 85.608664 129.722395 
L 92.44536 123.514297 
L 96.213578 119.185865 
L 108.173589 114.135615 
L 110.437199 128.889578 
L 122.65819 129.69802 
L 126.074976 131.494563 
L 129.458053 129.955634 
L 134.553166 129.684505 
L 137.602919 130.321747 
L 142.023963 131.503631 
L 146.445019 127.657608 
L 149.980914 127.982327 
L 160.825339 129.165333 
L 162.927762 113.611157 
L 174.812337 113.798412 
L 176.937991 125.904618 
L 183.676448 131.173196 
L 188.027032 129.329713 
L 191.539283 128.554651 
L 196.032252 129.342574 
L 200.419726 131.479476 
L 204.870127 131.478303 
L 209.385662 130.567504 
L 211.549847 131.068115 
L 222.029153 120.725511 
L 224.322718 113.857168 
L 233.591533 111.949209 
L 239.357746 121.960809 
L 244.656908 126.315063 
L 248.854239 126.986218 
L 253.247472 128.021775 
L 257.713412 130.495136 
L 261.838319 130.31989 
L 266.911213 131.413942 
L 270.421384 126.131045 
L 273.176073 131.493752 
L 281.539743 123.804934 
L 283.981889 110.994307 
L 296.769497 113.546548 
L 299.061792 127.111976 
L 302.906361 130.382469 
L 308.961814 129.655802 
L 312.531084 129.319209 
L 317.157941 126.463954 
L 321.210632 131.456628 
L 324.624913 129.80943 
L 333.325838 121.433262 
L 345.980667 130.366965 
L 351.943542 131.341237 
L 360.226836 125.032131 
L 363.457451 125.057311 
L 366.247625 128.370184 
L 370.465429 130.05805 
L 372.763764 126.937516 
L 378.3684 126.480961 
L 382.259333 129.951736 
L 385.952883 129.211129 
L 392.273709 128.343775 
" clip-path="url(#p3d274fd0be)" style="fill: none; stroke: #4daf7c; stroke-width: 1.75; stroke-linecap: square"/>
   </g>
   <g id="patch_3">
    <path d="M 55.957356 137.422852 
L 55.957356 7.2 
" style="fill: none; stroke: #222222; stroke-width: 0.8; stroke-linejoin: miter; stroke-linecap: square"/>
   </g>
   <g id="patch_4">
    <path d="M 55.957356 137.422852 
L 408.796956 137.422852 
" style="fill: none; stroke: #222222; stroke-width: 0.8; stroke-linejoin: miter; stroke-linecap: square"/>
   </g>
   <g id="legend_1">
    <g id="patch_5">
     <path d="M 335.663362 39.972559 
L 405.296956 39.972559 
Q 406.296956 39.972559 406.296956 38.972559 
L 406.296956 10.7 
Q 406.296956 9.7 405.296956 9.7 
L 335.663362 9.7 
Q 334.663362 9.7 334.663362 10.7 
L 334.663362 38.972559 
Q 334.663362 39.972559 335.663362 39.972559 
z
" style="fill: #ffffff; opacity: 0.8; stroke: #cccccc; stroke-linejoin: miter"/>
    </g>
    <g id="line2d_18">
     <path d="M 336.663362 13.592969 
L 341.663362 13.592969 
L 346.663362 13.592969 
" style="fill: none; stroke: #c73e3a; stroke-width: 1.55; stroke-linecap: square"/>
    </g>
    <g id="text_16">
     <text style="font-size: 5px; font-family: 'Arial', 'Helvetica', 'DejaVu Sans', sans-serif; text-anchor: start" x="350.663362" y="15.342969" transform="rotate(-0 350.663362 15.342969)">Original</text>
    </g>
    <g id="line2d_19">
     <path d="M 336.663362 20.785449 
L 341.663362 20.785449 
L 346.663362 20.785449 
" style="fill: none; stroke: #6c6c6c; stroke-width: 1.35; stroke-linecap: square"/>
    </g>
    <g id="text_17">
     <text style="font-size: 5px; font-family: 'Arial', 'Helvetica', 'DejaVu Sans', sans-serif; text-anchor: start" x="350.663362" y="22.535449" transform="rotate(-0 350.663362 22.535449)">Moving-average smooth</text>
    </g>
    <g id="line2d_20">
     <path d="M 336.663362 27.97793 
L 341.663362 27.97793 
L 346.663362 27.97793 
" style="fill: none; stroke: #4c78a8; stroke-width: 1.35; stroke-linecap: square"/>
    </g>
    <g id="text_18">
     <text style="font-size: 5px; font-family: 'Arial', 'Helvetica', 'DejaVu Sans', sans-serif; text-anchor: start" x="350.663362" y="29.72793" transform="rotate(-0 350.663362 29.72793)">B-spline</text>
    </g>
    <g id="line2d_21">
     <path d="M 336.663362 35.170313 
L 341.663362 35.170313 
L 346.663362 35.170313 
" style="fill: none; stroke: #4daf7c; stroke-width: 1.75; stroke-linecap: square"/>
    </g>
    <g id="text_19">
     <text style="font-size: 5px; font-family: 'Arial', 'Helvetica', 'DejaVu Sans', sans-serif; text-anchor: start" x="350.663362" y="36.920313" transform="rotate(-0 350.663362 36.920313)">Geodesic optimized</text>
    </g>
   </g>
  </g>
 </g>
 <defs>
  <clipPath id="p3d274fd0be">
   <rect x="55.957356" y="7.2" width="352.8396" height="130.222852"/>
  </clipPath>
 </defs>
</svg>
