<?xml version="1.0" encoding="utf-8" standalone="no"?>
<!DOCTYPE svg PUBLIC "-//W3C//DTD SVG 1.1//EN"
  "http://www.w3.org/Graphics/SVG/1.1/DTD/svg11.dtd">
<svg xmlns:xlink="http://www.w3.org/1999/xlink" width="420.222356pt" height="169.207906pt" viewBox="0 0 420.222356 169.207906" xmlns="http://www.w3.org/2000/svg" version="1.1">
 <metadata>
  <rdf:RDF xmlns:dc="http://purl.org/dc/elements/1.1/" xmlns:cc="http://creativecommons.org/ns#" xmlns:rdf="http://www.w3.org/1999/02/22-rdf-syntax-ns#">
   <cc:Work>
    <dc:type rdf:resource="http://purl.org/dc/dcmitype/StillImage"/>
    <dc:date>2026-06-23T12:37:43.555916</dc:date>
    <dc:format>image/svg+xml</dc:format>
    <dc:creator>
     <cc:Agent>
      <dc:title>Matplotlib v3.11.0, https://matplotlib.org/</dc:title>
     </cc:Agent>
    </dc:creator>
   </cc:Work>
  </rdf:RDF>
 </metadata>
 <defs>
  <style type="text/css">*{stroke-linejoin: round; stroke-linecap: butt}</style>
 </defs>
 <g id="figure_1">
  <g id="patch_1">
   <path d="M 0 169.207906 
L 420.222356 169.207906 
L 420.222356 0 
L 0 0 
z
" style="fill: #ffffff"/>
  </g>
  <g id="axes_1">
   <g id="patch_2">
    <path d="M 60.177756 137.430601 
L 408.157356 137.430601 
L 408.157356 7.619136 
L 60.177756 7.619136 
z
" style="fill: #ffffff"/>
   </g>
   <g id="matplotlib.axis_1">
    <g id="xtick_1">
     <g id="line2d_1">
      <defs>
       <path id="me61f16b334" d="M 0 0 
L 0 3 
" style="stroke: #222222; stroke-width: 0.8"/>
      </defs>
      <g>
       <use xlink:href="#me61f16b334" x="60.177756" y="137.430601" style="fill: #222222; stroke: #222222; stroke-width: 0.8"/>
      </g>
     </g>
     <g id="text_1">
      <text style="font-size: 7px; font-family: 'Arial', 'Helvetica', 'DejaVu Sans', sans-serif; text-anchor: middle; fill: #222222" x="60.177756" y="149.026793" transform="rotate(-0 60.177756 149.026793)">0.0</text>
     </g>
    </g>
    <g id="xtick_2">
     <g id="line2d_2">
      <g>
       <use xlink:href="#me61f16b334" x="129.773676" y="137.430601" style="fill: #222222; stroke: #222222; stroke-width: 0.8"/>
      </g>
     </g>
     <g id="text_2">
      <text style="font-size: 7px; font-family: 'Arial', 'Helvetica', 'DejaVu Sans', sans-serif; text-anchor: middle; fill: #222222" x="129.773676" y="149.026793" transform="rotate(-0 129.773676 149.026793)">0.2</text>
     </g>
    </g>
    <g id="xtick_3">
     <g id="line2d_3">
      <g>
       <use xlink:href="#me61f16b334" x="199.369596" y="137.430601" style="fill: #222222; stroke: #222222; stroke-width: 0.8"/>
      </g>
     </g>
     <g id="text_3">
      <text style="font-size: 7px; font-family: 'Arial', 'Helvetica', 'DejaVu Sans', sans-serif; text-anchor: middle; fill: #222222" x="199.369596" y="149.026793" transform="rotate(-0 199.369596 149.026793)">0.4</text>
     </g>
    </g>
    <g id="xtick_4">
     <g id="line2d_4">
      <g>
       <use xlink:href="#me61f16b334" x="268.965516" y="137.430601" style="fill: #222222; stroke: #222222; stroke-width: 0.8"/>
      </g>
     </g>
     <g id="text_4">
      <text style="font-size: 7px; font-family: 'Arial', 'Helvetica', 'DejaVu Sans', sans-serif; text-anchor: middle; fill: #222222" x="268.965516" y="149.026793" transform="rotate(-0 268.965516 149.026793)">0.6</text>
     </g>
    </g>
    <g id="xtick_5">
     <g id="line2d_5">
      <g>
       <use xlink:href="#me61f16b334" x="338.561436" y="137.430601" style="fill: #222222; stroke: #222222; stroke-width: 0.8"/>
      </g>
     </g>
     <g id="text_5">
      <text style="font-size: 7px; font-family: 'Arial', 'Helvetica', 'DejaVu Sans', sans-serif; text-anchor: middle; fill: #222222" x="338.561436" y="149.026793" transform="rotate(-0 338.561436 149.026793)">0.8</text>
     </g>
    </g>
    <g id="xtick_6">
     <g id="line2d_6">
      <g>
       <use xlink:href="#me61f16b334" x="408.157356" y="137.430601" style="fill: #222222; stroke: #222222; stroke-width: 0.8"/>
      </g>
     </g>
     <g id="text_6">
      <text style="font-size: 7px; font-family: 'Arial', 'Helvetica', 'DejaVu Sans', sans-serif; text-anchor: middle; fill: #222222" x="408.157356" y="149.026793" transform="rotate(-0 408.157356 149.026793)">1.0</text>
     </g>
    </g>
    <g id="text_7">
     <text style="font-size: 8px; font-family: 'Arial', 'Helvetica', 'DejaVu Sans', sans-serif; text-anchor: middle" x="234.167556" y="160.324156" transform="rotate(-0 234.167556 160.324156)">Normalized arc length</text>
    </g>
   </g>
   <g id="matplotlib.axis_2">
    <g id="ytick_1">
     <g id="line2d_7">
      <defs>
       <path id="m1e79951323" d="M 0 0 
L -3 0 
" style="stroke: #222222; stroke-width: 0.8"/>
      </defs>
      <g>
       <use xlink:href="#m1e79951323" x="60.177756" y="131.53008" style="fill: #222222; stroke: #222222; stroke-width: 0.8"/>
      </g>
     </g>
     <g id="text_8">
      <text style="font-size: 7px; font-family: 'Arial', 'Helvetica', 'DejaVu Sans', sans-serif; text-anchor: end; fill: #222222" x="53.677756" y="134.078176" transform="rotate(-0 53.677756 134.078176)">0</text>
     </g>
    </g>
    <g id="ytick_2">
     <g id="line2d_8">
      <g>
       <use xlink:href="#m1e79951323" x="60.177756" y="114.132654" style="fill: #222222; stroke: #222222; stroke-width: 0.8"/>
      </g>
     </g>
     <g id="text_9">
      <text style="font-size: 7px; font-family: 'Arial', 'Helvetica', 'DejaVu Sans', sans-serif; text-anchor: end; fill: #222222" x="53.677756" y="116.68075" transform="rotate(-0 53.677756 116.68075)">2</text>
     </g>
    </g>
    <g id="ytick_3">
     <g id="line2d_9">
      <g>
       <use xlink:href="#m1e79951323" x="60.177756" y="96.735227" style="fill: #222222; stroke: #222222; stroke-width: 0.8"/>
      </g>
     </g>
     <g id="text_10">
      <text style="font-size: 7px; font-family: 'Arial', 'Helvetica', 'DejaVu Sans', sans-serif; text-anchor: end; fill: #222222" x="53.677756" y="99.283323" transform="rotate(-0 53.677756 99.283323)">4</text>
     </g>
    </g>
    <g id="ytick_4">
     <g id="line2d_10">
      <g>
       <use xlink:href="#m1e79951323" x="60.177756" y="79.337801" style="fill: #222222; stroke: #222222; stroke-width: 0.8"/>
      </g>
     </g>
     <g id="text_11">
      <text style="font-size: 7px; font-family: 'Arial', 'Helvetica', 'DejaVu Sans', sans-serif; text-anchor: end; fill: #222222" x="53.677756" y="81.885897" transform="rotate(-0 53.677756 81.885897)">6</text>
     </g>
    </g>
    <g id="ytick_5">
     <g id="line2d_11">
      <g>
       <use xlink:href="#m1e79951323" x="60.177756" y="61.940375" style="fill: #222222; stroke: #222222; stroke-width: 0.8"/>
      </g>
     </g>
     <g id="text_12">
      <text style="font-size: 7px; font-family: 'Arial', 'Helvetica', 'DejaVu Sans', sans-serif; text-anchor: end; fill: #222222" x="53.677756" y="64.48847" transform="rotate(-0 53.677756 64.48847)">8</text>
     </g>
    </g>
    <g id="ytick_6">
     <g id="line2d_12">
      <g>
       <use xlink:href="#m1e79951323" x="60.177756" y="44.542948" style="fill: #222222; stroke: #222222; stroke-width: 0.8"/>
      </g>
     </g>
     <g id="text_13">
      <text style="font-size: 7px; font-family: 'Arial', 'Helvetica', 'DejaVu Sans', sans-serif; text-anchor: end; fill: #222222" x="53.677756" y="47.091044" transform="rotate(-0 53.677756 47.091044)">10</text>
     </g>
    </g>
    <g id="ytick_7">
     <g id="line2d_13">
      <g>
       <use xlink:href="#m1e79951323" x="60.177756" y="27.145522" style="fill: #222222; stroke: #222222; stroke-width: 0.8"/>
      </g>
     </g>
     <g id="text_14">
      <text style="font-size: 7px; font-family: 'Arial', 'Helvetica', 'DejaVu Sans', sans-serif; text-anchor: end; fill: #222222" x="53.677756" y="29.693618" transform="rotate(-0 53.677756 29.693618)">12</text>
     </g>
    </g>
    <g id="ytick_8">
     <g id="line2d_14">
      <g>
       <use xlink:href="#m1e79951323" x="60.177756" y="9.748096" style="fill: #222222; stroke: #222222; stroke-width: 0.8"/>
      </g>
     </g>
     <g id="text_15">
      <text style="font-size: 7px; font-family: 'Arial', 'Helvetica', 'DejaVu Sans', sans-serif; text-anchor: end; fill: #222222" x="53.677756" y="12.296191" transform="rotate(-0 53.677756 12.296191)">14</text>
     </g>
    </g>
    <g id="text_16">
     <!-- $d$ -->
     <g transform="translate(18.72 55.301236)">
      <text>
       <tspan x="0" y="-0.671875" style="font-size: 12px; font-family: 'cmmi10'">d</tspan>
      </text>
     </g>
     <!-- $(\mathrm{mm})$ -->
     <g transform="translate(7.2 68.625455)">
      <text>
       <tspan x="0" y="-0" style="font-size: 12px; font-family: 'cmr10'">(</tspan>
       <tspan x="4.658203" y="-0" style="font-size: 12px; font-family: 'cmr10'">m</tspan>
       <tspan x="14.654297" y="-0" style="font-size: 12px; font-family: 'cmr10'">m</tspan>
       <tspan x="24.650391" y="-0" style="font-size: 12px; font-family: 'cmr10'">)</tspan>
      </text>
     </g>
    </g>
   </g>
   <g id="line2d_15">
    <path d="M 60.177756 131.53008 
L 65.606694 94.267441 
L 70.28108 120.048124 
L 75.565934 119.018565 
L 79.630392 114.587949 
L 84.651721 123.53656 
L 89.542338 122.240017 
L 93.439977 118.241553 
L 98.476576 110.852239 
L 102.56274 87.443974 
L 106.926247 41.671516 
L 118.241396 21.010863 
L 123.797185 74.686109 
L 128.997094 104.952777 
L 133.941057 117.716615 
L 138.861021 113.080645 
L 143.745332 108.631369 
L 148.754323 123.159954 
L 153.667457 118.446348 
L 158.707155 111.809363 
L 164.462367 73.280243 
L 169.816675 24.695916 
L 180.851751 17.499526 
L 186.73944 76.732899 
L 193.275528 107.057377 
L 198.428119 118.870328 
L 203.429569 113.721901 
L 208.157874 117.748363 
L 212.998612 104.394793 
L 217.848359 107.698719 
L 222.945653 106.082378 
L 228.749833 79.186375 
L 234.642294 22.384269 
L 245.316242 25.723807 
L 251.208789 86.283741 
L 255.785189 108.251214 
L 260.774859 114.094159 
L 265.651079 112.690558 
L 270.391113 108.397359 
L 275.18771 110.940963 
L 281.176717 115.007874 
L 286.501498 106.727566 
L 291.913018 73.979906 
L 297.824135 23.349194 
L 308.251094 25.176376 
L 313.777344 78.441097 
L 319.513057 109.962576 
L 324.626923 113.870781 
L 329.525558 112.053737 
L 335.364121 112.698102 
L 340.177918 110.135476 
L 345.131795 97.3492 
L 350.338636 65.868832 
L 354.744895 13.519657 
L 368.000152 46.792283 
L 372.111095 75.296353 
L 376.469405 108.634705 
L 381.547194 114.549881 
L 385.490965 109.576795 
L 390.437526 105.208529 
L 396.017027 111.869096 
L 402.190896 84.645762 
L 408.157356 131.53008 
" clip-path="url(#pc8169399e9)" style="fill: none; stroke-dasharray: 4.625,2; stroke-dashoffset: 0; stroke: #6c6c6c; stroke-width: 1.25"/>
   </g>
   <g id="line2d_16">
    <path d="M 60.177756 114.721006 
L 65.606694 111.691824 
L 70.28108 116.784352 
L 75.565934 123.419722 
L 79.630392 120.851656 
L 84.651721 122.284439 
L 89.542338 111.580201 
L 93.439977 104.903005 
L 98.476576 117.357074 
L 102.56274 113.348722 
L 106.926247 74.72026 
L 118.241396 73.213433 
L 123.797185 117.734185 
L 128.997094 110.824613 
L 133.941057 107.157916 
L 138.861021 113.392886 
L 143.745332 118.633395 
L 148.754323 118.893552 
L 153.667457 107.837128 
L 158.707155 102.28129 
L 164.462367 108.479724 
L 169.816675 82.509005 
L 180.851751 56.248382 
L 186.73944 102.802608 
L 193.275528 110.305206 
L 198.428119 107.060534 
L 203.429569 108.877285 
L 208.157874 110.523638 
L 212.998612 92.898461 
L 217.848359 97.746833 
L 222.945653 108.66294 
L 228.749833 110.739621 
L 234.642294 64.406634 
L 245.316242 59.379361 
L 251.208789 116.906567 
L 255.785189 110.451167 
L 260.774859 107.26945 
L 265.651079 109.661332 
L 270.391113 116.802625 
L 275.18771 125.457213 
L 281.176717 113.199437 
L 286.501498 110.497753 
L 291.913018 106.178814 
L 297.824135 85.341586 
L 308.251094 69.200794 
L 313.777344 102.448017 
L 319.513057 116.544384 
L 324.626923 114.443516 
L 329.525558 116.360575 
L 335.364121 111.641428 
L 340.177918 109.437077 
L 345.131795 116.489669 
L 350.338636 117.689305 
L 354.744895 70.241567 
L 368.000152 85.781958 
L 372.111095 100.240694 
L 376.469405 113.817104 
L 381.547194 106.462599 
L 385.490965 111.387153 
L 390.437526 112.600608 
L 396.017027 118.428701 
L 402.190896 106.307742 
L 408.157356 118.778533 
" clip-path="url(#pc8169399e9)" style="fill: none; stroke-dasharray: 4.995,2.16; stroke-dashoffset: 0; stroke: #4c78a8; stroke-width: 1.35"/>
   </g>
   <g id="line2d_17">
    <path d="M 60.177756 131.53008 
L 65.606694 115.444755 
L 70.28108 109.776282 
L 75.565934 131.53008 
L 79.630392 101.386584 
L 84.651721 131.53008 
L 89.542338 131.53008 
L 93.439977 131.53008 
L 98.476576 131.53008 
L 102.56274 118.049353 
L 106.926247 117.979841 
L 118.241396 131.53008 
L 123.797185 67.284254 
L 128.997094 87.980509 
L 133.941057 115.249449 
L 138.861021 131.53008 
L 143.745332 112.98665 
L 148.754323 131.53008 
L 153.667457 131.53008 
L 158.707155 101.068142 
L 164.462367 110.279277 
L 169.816675 117.910704 
L 180.851751 131.53008 
L 186.73944 65.363545 
L 193.275528 97.88987 
L 198.428119 111.334931 
L 203.429569 131.53008 
L 208.157874 118.545926 
L 212.998612 118.615438 
L 217.848359 131.53008 
L 222.945653 114.69878 
L 228.749833 78.063237 
L 234.642294 118.250982 
L 245.316242 131.53008 
L 251.208789 88.015321 
L 255.785189 102.356969 
L 260.774859 118.519733 
L 265.651079 131.53008 
L 270.391113 131.53008 
L 275.18771 118.485102 
L 281.176717 131.53008 
L 286.501498 110.181244 
L 291.913018 70.799885 
L 297.824135 131.53008 
L 308.251094 131.53008 
L 313.777344 90.475459 
L 319.513057 91.025754 
L 324.626923 131.53008 
L 329.525558 112.844781 
L 335.364121 118.353982 
L 340.177918 115.269265 
L 345.131795 95.422744 
L 350.338636 88.670524 
L 354.744895 118.180664 
L 368.000152 131.53008 
L 372.111095 98.915435 
L 376.469405 101.894643 
L 381.547194 131.53008 
L 385.490965 131.53008 
L 390.437526 110.219396 
L 396.017027 131.53008 
L 402.190896 111.804047 
L 408.157356 131.53008 
" clip-path="url(#pc8169399e9)" style="fill: none; stroke-dasharray: 4.995,2.16; stroke-dashoffset: 0; stroke: #4daf7c; stroke-width: 1.35"/>
   </g>
   <g id="patch_3">
    <path d="M 60.177756 137.430601 
L 60.177756 7.619136 
" style="fill: none; stroke: #222222; stroke-width: 0.8; stroke-linejoin: miter; stroke-linecap: square"/>
   </g>
   <g id="patch_4">
    <path d="M 60.177756 137.430601 
L 408.157356 137.430601 
" style="fill: none; stroke: #222222; stroke-width: 0.8; stroke-linejoin: miter; stroke-linecap: square"/>
   </g>
   <g id="legend_1">
    <g id="patch_5">
     <path d="M 335.023762 33.196382 
L 404.657356 33.196382 
Q 405.657356 33.196382 405.657356 32.196382 
L 405.657356 11.119136 
Q 405.657356 10.119136 404.657356 10.119136 
L 335.023762 10.119136 
Q 334.023762 10.119136 334.023762 11.119136 
L 334.023762 32.196382 
Q 334.023762 33.196382 335.023762 33.196382 
z
" style="fill: #ffffff; opacity: 0.8; stroke: #cccccc; stroke-linejoin: miter"/>
    </g>
    <g id="line2d_18">
     <path d="M 336.023762 14.009273 
L 341.023762 14.009273 
L 346.023762 14.009273 
" style="fill: none; stroke-dasharray: 4.625,2; stroke-dashoffset: 0; stroke: #6c6c6c; stroke-width: 1.25"/>
    </g>
    <g id="text_17">
     <text style="font-size: 5px; font-family: 'Arial', 'Helvetica', 'DejaVu Sans', sans-serif; text-anchor: start" x="350.023762" y="15.759273" transform="rotate(-0 350.023762 15.759273)">Moving-average smooth</text>
    </g>
    <g id="line2d_19">
     <path d="M 336.023762 21.201753 
L 341.023762 21.201753 
L 346.023762 21.201753 
" style="fill: none; stroke-dasharray: 4.995,2.16; stroke-dashoffset: 0; stroke: #4c78a8; stroke-width: 1.35"/>
    </g>
    <g id="text_18">
     <text style="font-size: 5px; font-family: 'Arial', 'Helvetica', 'DejaVu Sans', sans-serif; text-anchor: start" x="350.023762" y="22.951753" transform="rotate(-0 350.023762 22.951753)">B-spline</text>
    </g>
    <g id="line2d_20">
     <path d="M 336.023762 28.394136 
L 341.023762 28.394136 
L 346.023762 28.394136 
" style="fill: none; stroke-dasharray: 4.995,2.16; stroke-dashoffset: 0; stroke: #4daf7c; stroke-width: 1.35"/>
    </g>
    <g id="text_19">
     <text style="font-size: 5px; font-family: 'Arial', 'Helvetica', 'DejaVu Sans', sans-serif; text-anchor: start" x="350.023762" y="30.144136" transform="rotate(-0 350.023762 30.144136)">Geodesic optimized</text>
    </g>
   </g>
  </g>
 </g>
 <defs>
  <clipPath id="pc8169399e9">
   <rect x="60.177756" y="7.619136" width="347.9796" height="129.811465"/>
  </clipPath>
 </defs>
</svg>
