<?xml version="1.0" encoding="utf-8" standalone="no"?>
<!DOCTYPE svg PUBLIC "-//W3C//DTD SVG 1.1//EN"
  "http://www.w3.org/Graphics/SVG/1.1/DTD/svg11.dtd">
<svg xmlns:xlink="http://www.w3.org/1999/xlink" width="420.861956pt" height="169.200156pt" viewBox="0 0 420.861956 169.200156" xmlns="http://www.w3.org/2000/svg" version="1.1">
 <metadata>
  <rdf:RDF xmlns:dc="http://purl.org/dc/elements/1.1/" xmlns:cc="http://creativecommons.org/ns#" xmlns:rdf="http://www.w3.org/1999/02/22-rdf-syntax-ns#">
   <cc:Work>
    <dc:type rdf:resource="http://purl.org/dc/dcmitype/StillImage"/>
    <dc:date>2026-06-23T12:37:43.345455</dc:date>
    <dc:format>image/svg+xml</dc:format>
    <dc:creator>
     <cc:Agent>
      <dc:title>Matplotlib v3.11.0, https://matplotlib.org/</dc:title>
     </cc:Agent>
    </dc:creator>
   </cc:Work>
  </rdf:RDF>
 </metadata>
 <defs>
  <style type="text/css">*{stroke-linejoin: round; stroke-linecap: butt}</style>
 </defs>
 <g id="figure_1">
  <g id="patch_1">
   <path d="M 0 169.200156 
L 420.861956 169.200156 
L 420.861956 0 
L 0 0 
z
" style="fill: #ffffff"/>
  </g>
  <g id="axes_1">
   <g id="patch_2">
    <path d="M 55.957356 137.422852 
L 408.796956 137.422852 
L 408.796956 7.2 
L 55.957356 7.2 
z
" style="fill: #ffffff"/>
   </g>
   <g id="matplotlib.axis_1">
    <g id="xtick_1">
     <g id="line2d_1">
      <defs>
       <path id="m6657353812" d="M 0 0 
L 0 3 
" style="stroke: #222222; stroke-width: 0.8"/>
      </defs>
      <g>
       <use xlink:href="#m6657353812" x="55.957356" y="137.422852" style="fill: #222222; stroke: #222222; stroke-width: 0.8"/>
      </g>
     </g>
     <g id="text_1">
      <text style="font-size: 7px; font-family: 'Arial', 'Helvetica', 'DejaVu Sans', sans-serif; text-anchor: middle; fill: #222222" x="55.957356" y="149.019043" transform="rotate(-0 55.957356 149.019043)">0.0</text>
     </g>
    </g>
    <g id="xtick_2">
     <g id="line2d_2">
      <g>
       <use xlink:href="#m6657353812" x="126.525276" y="137.422852" style="fill: #222222; stroke: #222222; stroke-width: 0.8"/>
      </g>
     </g>
     <g id="text_2">
      <text style="font-size: 7px; font-family: 'Arial', 'Helvetica', 'DejaVu Sans', sans-serif; text-anchor: middle; fill: #222222" x="126.525276" y="149.019043" transform="rotate(-0 126.525276 149.019043)">0.2</text>
     </g>
    </g>
    <g id="xtick_3">
     <g id="line2d_3">
      <g>
       <use xlink:href="#m6657353812" x="197.093196" y="137.422852" style="fill: #222222; stroke: #222222; stroke-width: 0.8"/>
      </g>
     </g>
     <g id="text_3">
      <text style="font-size: 7px; font-family: 'Arial', 'Helvetica', 'DejaVu Sans', sans-serif; text-anchor: middle; fill: #222222" x="197.093196" y="149.019043" transform="rotate(-0 197.093196 149.019043)">0.4</text>
     </g>
    </g>
    <g id="xtick_4">
     <g id="line2d_4">
      <g>
       <use xlink:href="#m6657353812" x="267.661116" y="137.422852" style="fill: #222222; stroke: #222222; stroke-width: 0.8"/>
      </g>
     </g>
     <g id="text_4">
      <text style="font-size: 7px; font-family: 'Arial', 'Helvetica', 'DejaVu Sans', sans-serif; text-anchor: middle; fill: #222222" x="267.661116" y="149.019043" transform="rotate(-0 267.661116 149.019043)">0.6</text>
     </g>
    </g>
    <g id="xtick_5">
     <g id="line2d_5">
      <g>
       <use xlink:href="#m6657353812" x="338.229036" y="137.422852" style="fill: #222222; stroke: #222222; stroke-width: 0.8"/>
      </g>
     </g>
     <g id="text_5">
      <text style="font-size: 7px; font-family: 'Arial', 'Helvetica', 'DejaVu Sans', sans-serif; text-anchor: middle; fill: #222222" x="338.229036" y="149.019043" transform="rotate(-0 338.229036 149.019043)">0.8</text>
     </g>
    </g>
    <g id="xtick_6">
     <g id="line2d_6">
      <g>
       <use xlink:href="#m6657353812" x="408.796956" y="137.422852" style="fill: #222222; stroke: #222222; stroke-width: 0.8"/>
      </g>
     </g>
     <g id="text_6">
      <text style="font-size: 7px; font-family: 'Arial', 'Helvetica', 'DejaVu Sans', sans-serif; text-anchor: middle; fill: #222222" x="408.796956" y="149.019043" transform="rotate(-0 408.796956 149.019043)">1.0</text>
     </g>
    </g>
    <g id="text_7">
     <text style="font-size: 8px; font-family: 'Arial', 'Helvetica', 'DejaVu Sans', sans-serif; text-anchor: middle" x="232.377156" y="160.316406" transform="rotate(-0 232.377156 160.316406)">Normalized arc length</text>
    </g>
   </g>
   <g id="matplotlib.axis_2">
    <g id="ytick_1">
     <g id="line2d_7">
      <defs>
       <path id="m2263f72f96" d="M 0 0 
L -3 0 
" style="stroke: #222222; stroke-width: 0.8"/>
      </defs>
      <g>
       <use xlink:href="#m2263f72f96" x="55.957356" y="131.510355" style="fill: #222222; stroke: #222222; stroke-width: 0.8"/>
      </g>
     </g>
     <g id="text_8">
      <text style="font-size: 7px; font-family: 'Arial', 'Helvetica', 'DejaVu Sans', sans-serif; text-anchor: end; fill: #222222" x="49.457356" y="134.058451" transform="rotate(-0 49.457356 134.058451)">0</text>
     </g>
    </g>
    <g id="ytick_2">
     <g id="line2d_8">
      <g>
       <use xlink:href="#m2263f72f96" x="55.957356" y="110.439855" style="fill: #222222; stroke: #222222; stroke-width: 0.8"/>
      </g>
     </g>
     <g id="text_9">
      <text style="font-size: 7px; font-family: 'Arial', 'Helvetica', 'DejaVu Sans', sans-serif; text-anchor: end; fill: #222222" x="49.457356" y="112.987951" transform="rotate(-0 49.457356 112.987951)">50</text>
     </g>
    </g>
    <g id="ytick_3">
     <g id="line2d_9">
      <g>
       <use xlink:href="#m2263f72f96" x="55.957356" y="89.369355" style="fill: #222222; stroke: #222222; stroke-width: 0.8"/>
      </g>
     </g>
     <g id="text_10">
      <text style="font-size: 7px; font-family: 'Arial', 'Helvetica', 'DejaVu Sans', sans-serif; text-anchor: end; fill: #222222" x="49.457356" y="91.917451" transform="rotate(-0 49.457356 91.917451)">100</text>
     </g>
    </g>
    <g id="ytick_4">
     <g id="line2d_10">
      <g>
       <use xlink:href="#m2263f72f96" x="55.957356" y="68.298855" style="fill: #222222; stroke: #222222; stroke-width: 0.8"/>
      </g>
     </g>
     <g id="text_11">
      <text style="font-size: 7px; font-family: 'Arial', 'Helvetica', 'DejaVu Sans', sans-serif; text-anchor: end; fill: #222222" x="49.457356" y="70.84695" transform="rotate(-0 49.457356 70.84695)">150</text>
     </g>
    </g>
    <g id="ytick_5">
     <g id="line2d_11">
      <g>
       <use xlink:href="#m2263f72f96" x="55.957356" y="47.228355" style="fill: #222222; stroke: #222222; stroke-width: 0.8"/>
      </g>
     </g>
     <g id="text_12">
      <text style="font-size: 7px; font-family: 'Arial', 'Helvetica', 'DejaVu Sans', sans-serif; text-anchor: end; fill: #222222" x="49.457356" y="49.77645" transform="rotate(-0 49.457356 49.77645)">200</text>
     </g>
    </g>
    <g id="ytick_6">
     <g id="line2d_12">
      <g>
       <use xlink:href="#m2263f72f96" x="55.957356" y="26.157854" style="fill: #222222; stroke: #222222; stroke-width: 0.8"/>
      </g>
     </g>
     <g id="text_13">
      <text style="font-size: 7px; font-family: 'Arial', 'Helvetica', 'DejaVu Sans', sans-serif; text-anchor: end; fill: #222222" x="49.457356" y="28.70595" transform="rotate(-0 49.457356 28.70595)">250</text>
     </g>
    </g>
    <g id="text_14">
     <!-- $|\kappa_g|$ -->
     <g transform="translate(7.2 68.411426)">
      <text>
       <tspan x="0" y="-0.25" style="font-size: 13px; font-family: 'cmsy10'">j</tspan>
       <tspan x="16.174172" y="-0.25" style="font-size: 13px; font-family: 'cmsy10'">j</tspan>
       <tspan x="3.599121" y="-0.25" style="font-size: 13px; font-family: 'cmmi10'">∙</tspan>
       <tspan x="11.089355" y="1.699995" style="font-size: 9.1px; font-family: 'cmmi10'">g</tspan>
      </text>
     </g>
    </g>
   </g>
   <g id="line2d_13">
    <path d="M 61.462116 115.839517 
L 66.201786 116.073306 
L 71.560451 125.10523 
L 75.681674 109.11862 
L 80.773133 117.978243 
L 85.732053 130.038475 
L 89.684128 117.853848 
L 94.79107 130.26128 
L 98.934303 125.545035 
L 103.358752 68.793554 
L 114.831932 43.8787 
L 120.465315 129.876743 
L 125.737848 128.775076 
L 130.75086 131.500459 
L 135.739538 124.680638 
L 140.692065 112.612073 
L 145.771014 129.185246 
L 150.752766 121.547933 
L 155.86285 116.52728 
L 161.698441 119.448179 
L 167.127529 65.787757 
L 178.316724 44.693385 
L 184.286643 124.138406 
L 190.914016 122.418238 
L 196.13857 121.532339 
L 201.209872 131.401561 
L 206.004214 120.529125 
L 210.912559 128.458601 
L 215.830039 129.558409 
L 220.998524 130.207528 
L 226.883768 131.458432 
L 232.858524 49.618407 
L 243.681549 50.104387 
L 249.656392 131.374277 
L 254.296708 116.994134 
L 259.356065 121.109375 
L 264.300388 129.453484 
L 269.106623 128.169242 
L 273.970211 123.206115 
L 280.042863 125.274127 
L 285.442012 131.414053 
L 290.929111 122.974682 
L 296.922784 60.701688 
L 307.495369 57.080697 
L 313.098801 128.514865 
L 318.914621 127.183432 
L 324.099909 128.327826 
L 329.06696 126.278058 
L 334.987066 121.393563 
L 339.868094 128.760147 
L 344.891159 128.715302 
L 350.17072 120.483642 
L 354.638519 52.914952 
L 368.078903 95.743749 
L 372.247261 105.395485 
L 376.666441 123.944993 
L 381.815148 117.663859 
L 385.813999 129.982463 
L 390.829645 111.161421 
L 396.487072 131.503631 
L 402.747166 122.606479 
" clip-path="url(#p92a115acc0)" style="fill: none; stroke: #c73e3a; stroke-width: 1.55; stroke-linecap: square"/>
   </g>
   <g id="line2d_14">
    <path d="M 67.559293 129.652163 
L 70.801211 131.393004 
L 77.653023 128.854491 
L 83.598042 129.443437 
L 90.15932 129.750378 
L 96.604622 128.254783 
L 102.910837 126.159563 
L 108.657667 119.315368 
L 113.409048 97.413041 
L 117.051057 48.594918 
L 120.327906 36.371577 
L 123.909826 94.250023 
L 128.698066 115.896936 
L 134.548887 122.896785 
L 141.13842 124.338346 
L 148.076848 129.458743 
L 155.062993 127.382596 
L 161.923505 125.695412 
L 168.137026 120.074166 
L 173.158196 95.312721 
L 176.751269 22.514873 
L 179.947108 34.796977 
L 183.85144 102.867813 
L 189.230529 120.587192 
L 195.671397 125.23443 
L 202.661631 127.022466 
L 209.697398 131.259895 
L 216.622938 128.401023 
L 223.318707 126.148134 
L 229.399621 120.647773 
L 234.441907 100.798882 
L 238.156859 30.706906 
L 241.28769 23.498105 
L 244.8066 97.889757 
L 249.598546 120.164781 
L 255.583449 125.165181 
L 262.274345 128.380924 
L 269.211936 129.515744 
L 276.319361 125.989214 
L 283.40805 125.088944 
L 289.814403 119.094171 
L 295.043511 99.176583 
L 298.865319 31.998844 
L 302.093341 33.001262 
L 305.916016 103.159858 
L 311.195716 121.702179 
L 317.633856 127.309441 
L 324.736919 128.148255 
L 331.94513 123.406231 
L 338.51675 119.796277 
L 344.199808 110.688063 
L 348.76114 84.041782 
L 352.287034 50.77049 
L 356.193969 77.215069 
L 360.486402 105.425309 
L 365.719501 122.280581 
L 371.867664 128.476315 
L 378.538532 128.540231 
L 384.663355 126.645719 
L 392.044885 130.704912 
L 395.557439 127.967707 
" clip-path="url(#p92a115acc0)" style="fill: none; stroke: #6c6c6c; stroke-width: 1.35; stroke-linecap: square"/>
   </g>
   <g id="line2d_15">
    <path d="M 61.834014 116.050804 
L 67.104715 123.051211 
L 73.585428 126.783826 
L 78.887794 130.05634 
L 85.587504 130.861972 
L 91.970336 128.618371 
L 96.741081 124.761989 
L 102.249213 118.086444 
L 106.096007 110.843642 
L 109.600796 88.223253 
L 116.0133 50.795062 
L 119.46018 93.925425 
L 124.086314 118.883014 
L 129.738056 125.843222 
L 136.187126 128.136095 
L 143.010974 129.783177 
L 150.120201 131.251538 
L 156.846567 129.1421 
L 162.992131 122.760956 
L 168.424558 99.588958 
L 171.827242 47.815441 
L 177.661211 84.010757 
L 182.098695 113.365557 
L 188.269583 119.051791 
L 194.170443 125.419747 
L 200.641392 129.153885 
L 207.129623 130.9455 
L 213.780483 131.026141 
L 220.066252 128.435869 
L 225.852055 121.257688 
L 230.978006 99.429555 
L 234.674588 56.908164 
L 240.444609 79.101789 
L 244.698685 104.646625 
L 248.801874 114.426518 
L 254.251823 124.723819 
L 260.401839 130.653026 
L 266.794923 129.116083 
L 273.350297 127.299757 
L 281.3898 126.310072 
L 288.053649 124.124888 
L 293.772739 114.422754 
L 298.126624 13.119221 
L 302.906531 69.53709 
L 307.304635 119.581763 
L 313.263629 123.768141 
L 319.559412 126.815402 
L 326.254419 129.650328 
L 334.429172 129.767888 
L 340.64808 123.663624 
L 345.962986 107.81257 
L 350.193607 91.524275 
L 353.139488 79.729536 
L 361.716764 91.084978 
L 365.327645 110.336007 
L 369.850487 121.964532 
L 375.958838 128.015258 
L 381.090924 131.273564 
L 387.634142 129.355799 
L 394.696344 123.165436 
L 401.829709 114.302262 
" clip-path="url(#p92a115acc0)" style="fill: none; stroke: #4c78a8; stroke-width: 1.35; stroke-linecap: square"/>
   </g>
   <g id="line2d_16">
    <path d="M 62.484726 127.255159 
L 64.556402 130.966848 
L 71.17637 122.646694 
L 77.169554 131.257844 
L 80.107968 125.608087 
L 84.97225 130.038475 
L 88.848903 117.853848 
L 93.858382 127.7861 
L 96.958886 127.141464 
L 101.294036 75.279818 
L 112.865356 101.772839 
L 115.212235 93.276677 
L 127.055946 115.674365 
L 130.068361 123.77195 
L 134.926126 120.347984 
L 138.73707 129.989739 
L 144.668258 124.939633 
L 149.554937 130.283072 
L 152.485935 126.89928 
L 161.323267 103.533494 
L 166.360392 90.250005 
L 176.35375 98.478616 
L 179.206133 98.370632 
L 191.864258 128.327454 
L 195.911607 131.46071 
L 199.920898 114.875776 
L 203.691082 124.225051 
L 210.314222 130.785079 
L 214.209525 131.488219 
L 218.123611 123.400483 
L 228.663497 109.654894 
L 231.343858 83.139974 
L 242.92516 90.524823 
L 246.803165 104.319912 
L 255.636934 125.125152 
L 259.570328 131.496257 
L 263.485049 128.671029 
L 268.19956 126.889062 
L 272.064652 124.826953 
L 278.914324 125.050521 
L 282.876271 130.222059 
L 294.000649 89.776982 
L 296.557345 102.434903 
L 306.92816 94.31467 
L 311.379716 100.53649 
L 321.909887 124.605095 
L 324.147189 128.751107 
L 330.044417 121.831902 
L 333.865384 124.032471 
L 339.645856 129.863572 
L 343.583626 121.081964 
L 350.911272 109.338457 
L 354.821217 85.599864 
L 368.841695 100.140829 
L 370.825799 113.298336 
L 379.521967 124.673755 
L 382.474959 121.442176 
L 386.397495 122.996275 
L 392.454093 129.568737 
L 396.740523 130.6275 
L 403.717463 123.756084 
" clip-path="url(#p92a115acc0)" style="fill: none; stroke: #4daf7c; stroke-width: 1.75; stroke-linecap: square"/>
   </g>
   <g id="patch_3">
    <path d="M 55.957356 137.422852 
L 55.957356 7.2 
" style="fill: none; stroke: #222222; stroke-width: 0.8; stroke-linejoin: miter; stroke-linecap: square"/>
   </g>
   <g id="patch_4">
    <path d="M 55.957356 137.422852 
L 408.796956 137.422852 
" style="fill: none; stroke: #222222; stroke-width: 0.8; stroke-linejoin: miter; stroke-linecap: square"/>
   </g>
   <g id="legend_1">
    <g id="patch_5">
     <path d="M 335.663362 39.972559 
L 405.296956 39.972559 
Q 406.296956 39.972559 406.296956 38.972559 
L 406.296956 10.7 
Q 406.296956 9.7 405.296956 9.7 
L 335.663362 9.7 
Q 334.663362 9.7 334.663362 10.7 
L 334.663362 38.972559 
Q 334.663362 39.972559 335.663362 39.972559 
z
" style="fill: #ffffff; opacity: 0.8; stroke: #cccccc; stroke-linejoin: miter"/>
    </g>
    <g id="line2d_17">
     <path d="M 336.663362 13.592969 
L 341.663362 13.592969 
L 346.663362 13.592969 
" style="fill: none; stroke: #c73e3a; stroke-width: 1.55; stroke-linecap: square"/>
    </g>
    <g id="text_15">
     <text style="font-size: 5px; font-family: 'Arial', 'Helvetica', 'DejaVu Sans', sans-serif; text-anchor: start" x="350.663362" y="15.342969" transform="rotate(-0 350.663362 15.342969)">Original</text>
    </g>
    <g id="line2d_18">
     <path d="M 336.663362 20.785449 
L 341.663362 20.785449 
L 346.663362 20.785449 
" style="fill: none; stroke: #6c6c6c; stroke-width: 1.35; stroke-linecap: square"/>
    </g>
    <g id="text_16">
     <text style="font-size: 5px; font-family: 'Arial', 'Helvetica', 'DejaVu Sans', sans-serif; text-anchor: start" x="350.663362" y="22.535449" transform="rotate(-0 350.663362 22.535449)">Moving-average smooth</text>
    </g>
    <g id="line2d_19">
     <path d="M 336.663362 27.97793 
L 341.663362 27.97793 
L 346.663362 27.97793 
" style="fill: none; stroke: #4c78a8; stroke-width: 1.35; stroke-linecap: square"/>
    </g>
    <g id="text_17">
     <text style="font-size: 5px; font-family: 'Arial', 'Helvetica', 'DejaVu Sans', sans-serif; text-anchor: start" x="350.663362" y="29.72793" transform="rotate(-0 350.663362 29.72793)">B-spline</text>
    </g>
    <g id="line2d_20">
     <path d="M 336.663362 35.170313 
L 341.663362 35.170313 
L 346.663362 35.170313 
" style="fill: none; stroke: #4daf7c; stroke-width: 1.75; stroke-linecap: square"/>
    </g>
    <g id="text_18">
     <text style="font-size: 5px; font-family: 'Arial', 'Helvetica', 'DejaVu Sans', sans-serif; text-anchor: start" x="350.663362" y="36.920313" transform="rotate(-0 350.663362 36.920313)">Geodesic optimized</text>
    </g>
   </g>
  </g>
 </g>
 <defs>
  <clipPath id="p92a115acc0">
   <rect x="55.957356" y="7.2" width="352.8396" height="130.222852"/>
  </clipPath>
 </defs>
</svg>
