<?xml version="1.0" encoding="utf-8" standalone="no"?>
<!DOCTYPE svg PUBLIC "-//W3C//DTD SVG 1.1//EN"
  "http://www.w3.org/Graphics/SVG/1.1/DTD/svg11.dtd">
<svg xmlns:xlink="http://www.w3.org/1999/xlink" width="420.861956pt" height="169.200156pt" viewBox="0 0 420.861956 169.200156" xmlns="http://www.w3.org/2000/svg" version="1.1">
 <metadata>
  <rdf:RDF xmlns:dc="http://purl.org/dc/elements/1.1/" xmlns:cc="http://creativecommons.org/ns#" xmlns:rdf="http://www.w3.org/1999/02/22-rdf-syntax-ns#">
   <cc:Work>
    <dc:type rdf:resource="http://purl.org/dc/dcmitype/StillImage"/>
    <dc:date>2026-06-23T12:37:50.145921</dc:date>
    <dc:format>image/svg+xml</dc:format>
    <dc:creator>
     <cc:Agent>
      <dc:title>Matplotlib v3.11.0, https://matplotlib.org/</dc:title>
     </cc:Agent>
    </dc:creator>
   </cc:Work>
  </rdf:RDF>
 </metadata>
 <defs>
  <style type="text/css">*{stroke-linejoin: round; stroke-linecap: butt}</style>
 </defs>
 <g id="figure_1">
  <g id="patch_1">
   <path d="M 0 169.200156 
L 420.861956 169.200156 
L 420.861956 0 
L 0 0 
z
" style="fill: #ffffff"/>
  </g>
  <g id="axes_1">
   <g id="patch_2">
    <path d="M 55.957356 137.422852 
L 408.796956 137.422852 
L 408.796956 7.2 
L 55.957356 7.2 
z
" style="fill: #ffffff"/>
   </g>
   <g id="matplotlib.axis_1">
    <g id="xtick_1">
     <g id="line2d_1">
      <defs>
       <path id="md793d287d0" d="M 0 0 
L 0 3 
" style="stroke: #222222; stroke-width: 0.8"/>
      </defs>
      <g>
       <use xlink:href="#md793d287d0" x="55.957356" y="137.422852" style="fill: #222222; stroke: #222222; stroke-width: 0.8"/>
      </g>
     </g>
     <g id="text_1">
      <text style="font-size: 7px; font-family: 'Arial', 'Helvetica', 'DejaVu Sans', sans-serif; text-anchor: middle; fill: #222222" x="55.957356" y="149.019043" transform="rotate(-0 55.957356 149.019043)">0.0</text>
     </g>
    </g>
    <g id="xtick_2">
     <g id="line2d_2">
      <g>
       <use xlink:href="#md793d287d0" x="126.525276" y="137.422852" style="fill: #222222; stroke: #222222; stroke-width: 0.8"/>
      </g>
     </g>
     <g id="text_2">
      <text style="font-size: 7px; font-family: 'Arial', 'Helvetica', 'DejaVu Sans', sans-serif; text-anchor: middle; fill: #222222" x="126.525276" y="149.019043" transform="rotate(-0 126.525276 149.019043)">0.2</text>
     </g>
    </g>
    <g id="xtick_3">
     <g id="line2d_3">
      <g>
       <use xlink:href="#md793d287d0" x="197.093196" y="137.422852" style="fill: #222222; stroke: #222222; stroke-width: 0.8"/>
      </g>
     </g>
     <g id="text_3">
      <text style="font-size: 7px; font-family: 'Arial', 'Helvetica', 'DejaVu Sans', sans-serif; text-anchor: middle; fill: #222222" x="197.093196" y="149.019043" transform="rotate(-0 197.093196 149.019043)">0.4</text>
     </g>
    </g>
    <g id="xtick_4">
     <g id="line2d_4">
      <g>
       <use xlink:href="#md793d287d0" x="267.661116" y="137.422852" style="fill: #222222; stroke: #222222; stroke-width: 0.8"/>
      </g>
     </g>
     <g id="text_4">
      <text style="font-size: 7px; font-family: 'Arial', 'Helvetica', 'DejaVu Sans', sans-serif; text-anchor: middle; fill: #222222" x="267.661116" y="149.019043" transform="rotate(-0 267.661116 149.019043)">0.6</text>
     </g>
    </g>
    <g id="xtick_5">
     <g id="line2d_5">
      <g>
       <use xlink:href="#md793d287d0" x="338.229036" y="137.422852" style="fill: #222222; stroke: #222222; stroke-width: 0.8"/>
      </g>
     </g>
     <g id="text_5">
      <text style="font-size: 7px; font-family: 'Arial', 'Helvetica', 'DejaVu Sans', sans-serif; text-anchor: middle; fill: #222222" x="338.229036" y="149.019043" transform="rotate(-0 338.229036 149.019043)">0.8</text>
     </g>
    </g>
    <g id="xtick_6">
     <g id="line2d_6">
      <g>
       <use xlink:href="#md793d287d0" x="408.796956" y="137.422852" style="fill: #222222; stroke: #222222; stroke-width: 0.8"/>
      </g>
     </g>
     <g id="text_6">
      <text style="font-size: 7px; font-family: 'Arial', 'Helvetica', 'DejaVu Sans', sans-serif; text-anchor: middle; fill: #222222" x="408.796956" y="149.019043" transform="rotate(-0 408.796956 149.019043)">1.0</text>
     </g>
    </g>
    <g id="text_7">
     <text style="font-size: 8px; font-family: 'Arial', 'Helvetica', 'DejaVu Sans', sans-serif; text-anchor: middle" x="232.377156" y="160.316406" transform="rotate(-0 232.377156 160.316406)">Normalized arc length</text>
    </g>
   </g>
   <g id="matplotlib.axis_2">
    <g id="ytick_1">
     <g id="line2d_7">
      <defs>
       <path id="mb9197df290" d="M 0 0 
L -3 0 
" style="stroke: #222222; stroke-width: 0.8"/>
      </defs>
      <g>
       <use xlink:href="#mb9197df290" x="55.957356" y="131.509687" style="fill: #222222; stroke: #222222; stroke-width: 0.8"/>
      </g>
     </g>
     <g id="text_8">
      <text style="font-size: 7px; font-family: 'Arial', 'Helvetica', 'DejaVu Sans', sans-serif; text-anchor: end; fill: #222222" x="49.457356" y="134.057783" transform="rotate(-0 49.457356 134.057783)">0</text>
     </g>
    </g>
    <g id="ytick_2">
     <g id="line2d_8">
      <g>
       <use xlink:href="#mb9197df290" x="55.957356" y="114.520455" style="fill: #222222; stroke: #222222; stroke-width: 0.8"/>
      </g>
     </g>
     <g id="text_9">
      <text style="font-size: 7px; font-family: 'Arial', 'Helvetica', 'DejaVu Sans', sans-serif; text-anchor: end; fill: #222222" x="49.457356" y="117.06855" transform="rotate(-0 49.457356 117.06855)">100</text>
     </g>
    </g>
    <g id="ytick_3">
     <g id="line2d_9">
      <g>
       <use xlink:href="#mb9197df290" x="55.957356" y="97.531222" style="fill: #222222; stroke: #222222; stroke-width: 0.8"/>
      </g>
     </g>
     <g id="text_10">
      <text style="font-size: 7px; font-family: 'Arial', 'Helvetica', 'DejaVu Sans', sans-serif; text-anchor: end; fill: #222222" x="49.457356" y="100.079317" transform="rotate(-0 49.457356 100.079317)">200</text>
     </g>
    </g>
    <g id="ytick_4">
     <g id="line2d_10">
      <g>
       <use xlink:href="#mb9197df290" x="55.957356" y="80.541989" style="fill: #222222; stroke: #222222; stroke-width: 0.8"/>
      </g>
     </g>
     <g id="text_11">
      <text style="font-size: 7px; font-family: 'Arial', 'Helvetica', 'DejaVu Sans', sans-serif; text-anchor: end; fill: #222222" x="49.457356" y="83.090085" transform="rotate(-0 49.457356 83.090085)">300</text>
     </g>
    </g>
    <g id="ytick_5">
     <g id="line2d_11">
      <g>
       <use xlink:href="#mb9197df290" x="55.957356" y="63.552756" style="fill: #222222; stroke: #222222; stroke-width: 0.8"/>
      </g>
     </g>
     <g id="text_12">
      <text style="font-size: 7px; font-family: 'Arial', 'Helvetica', 'DejaVu Sans', sans-serif; text-anchor: end; fill: #222222" x="49.457356" y="66.100852" transform="rotate(-0 49.457356 66.100852)">400</text>
     </g>
    </g>
    <g id="ytick_6">
     <g id="line2d_12">
      <g>
       <use xlink:href="#mb9197df290" x="55.957356" y="46.563524" style="fill: #222222; stroke: #222222; stroke-width: 0.8"/>
      </g>
     </g>
     <g id="text_13">
      <text style="font-size: 7px; font-family: 'Arial', 'Helvetica', 'DejaVu Sans', sans-serif; text-anchor: end; fill: #222222" x="49.457356" y="49.111619" transform="rotate(-0 49.457356 49.111619)">500</text>
     </g>
    </g>
    <g id="ytick_7">
     <g id="line2d_13">
      <g>
       <use xlink:href="#mb9197df290" x="55.957356" y="29.574291" style="fill: #222222; stroke: #222222; stroke-width: 0.8"/>
      </g>
     </g>
     <g id="text_14">
      <text style="font-size: 7px; font-family: 'Arial', 'Helvetica', 'DejaVu Sans', sans-serif; text-anchor: end; fill: #222222" x="49.457356" y="32.122387" transform="rotate(-0 49.457356 32.122387)">600</text>
     </g>
    </g>
    <g id="ytick_8">
     <g id="line2d_14">
      <g>
       <use xlink:href="#mb9197df290" x="55.957356" y="12.585058" style="fill: #222222; stroke: #222222; stroke-width: 0.8"/>
      </g>
     </g>
     <g id="text_15">
      <text style="font-size: 7px; font-family: 'Arial', 'Helvetica', 'DejaVu Sans', sans-serif; text-anchor: end; fill: #222222" x="49.457356" y="15.133154" transform="rotate(-0 49.457356 15.133154)">700</text>
     </g>
    </g>
    <g id="text_16">
     <!-- $|\kappa_g|$ -->
     <g transform="translate(7.2 68.411426)">
      <text>
       <tspan x="0" y="-0.25" style="font-size: 13px; font-family: 'cmsy10'">j</tspan>
       <tspan x="16.174172" y="-0.25" style="font-size: 13px; font-family: 'cmsy10'">j</tspan>
       <tspan x="3.599121" y="-0.25" style="font-size: 13px; font-family: 'cmmi10'">∙</tspan>
       <tspan x="11.089355" y="1.699995" style="font-size: 9.1px; font-family: 'cmmi10'">g</tspan>
      </text>
     </g>
    </g>
   </g>
   <g id="line2d_15">
    <path d="M 64.314406 130.264774 
L 71.602449 129.288731 
L 79.585571 124.813967 
L 86.075234 128.678512 
L 91.564236 130.914463 
L 98.112126 129.837607 
L 104.838583 121.995722 
L 112.367129 113.334949 
L 118.558601 115.899402 
L 130.227193 131.489919 
L 134.430857 99.768084 
L 148.976366 98.846531 
L 158.114867 129.322794 
L 165.403588 130.757147 
L 173.440226 131.282684 
L 180.677153 129.078679 
L 187.710853 131.370601 
L 193.299842 129.467314 
L 200.692773 130.088339 
L 207.059352 131.493895 
L 213.507613 127.998152 
L 221.757836 129.35644 
L 230.796539 85.233765 
L 245.929849 111.964127 
L 253.894614 130.977577 
L 260.773152 129.91621 
L 267.174139 130.72649 
L 273.447916 127.615043 
L 280.598174 128.551168 
L 286.915654 130.535669 
L 292.495503 129.320415 
L 300.509746 128.637352 
L 308.451821 128.915261 
L 316.646618 128.781828 
L 326.494839 83.879119 
L 344.651496 119.261453 
L 352.816453 130.477623 
L 359.278564 128.544392 
L 367.610412 128.957239 
L 373.279576 131.228023 
L 379.947913 131.217656 
L 387.22565 124.505761 
L 393.909675 127.615379 
L 401.527586 126.530449 
" clip-path="url(#pb2a0fc9e3c)" style="fill: none; stroke: #c73e3a; stroke-width: 1.55; stroke-linecap: square"/>
   </g>
   <g id="line2d_16">
    <path d="M 72.922593 130.41 
L 77.426689 131.204524 
L 86.995514 128.796363 
L 95.071247 130.197899 
L 103.81272 129.01693 
L 112.65454 129.789236 
L 121.601201 131.017579 
L 130.552578 129.147492 
L 138.728381 128.480145 
L 145.54507 117.163619 
L 150.206824 84.895428 
L 154.283608 89.527307 
L 159.451401 119.49152 
L 166.442903 127.018681 
L 175.071426 128.675023 
L 184.271161 128.378172 
L 193.506998 130.153159 
L 202.405905 130.225512 
L 211.380953 130.624238 
L 220.010126 129.308775 
L 227.702736 126.068737 
L 233.902809 114.79515 
L 238.356402 82.518313 
L 242.538127 98.954532 
L 247.793384 120.958801 
L 254.694261 127.288387 
L 262.845157 128.863224 
L 271.60431 130.09438 
L 280.327685 131.316919 
L 289.006384 130.4871 
L 298.012575 128.210073 
L 306.712758 127.715803 
L 314.334712 125.066797 
L 320.237176 106.472837 
L 324.415812 80.614483 
L 329.324356 111.908107 
L 335.724835 124.697708 
L 343.674785 128.893995 
L 352.688927 130.635643 
L 361.939947 131.347799 
L 370.902608 130.305315 
L 379.066562 129.518401 
L 388.398253 131.192801 
L 392.836916 129.509709 
" clip-path="url(#pb2a0fc9e3c)" style="fill: none; stroke: #6c6c6c; stroke-width: 1.35; stroke-linecap: square"/>
   </g>
   <g id="line2d_17">
    <path d="M 67.058934 127.855536 
L 75.783904 127.827907 
L 85.213042 128.838882 
L 93.08187 129.835358 
L 99.893403 130.89143 
L 108.11404 130.897518 
L 116.511312 130.512163 
L 125.548553 130.27748 
L 132.402245 129.529549 
L 142.90887 126.98381 
L 145.669686 96.484938 
L 150.572009 46.855754 
L 156.11564 125.386104 
L 163.022811 129.625234 
L 172.41638 130.463465 
L 181.797437 130.274655 
L 191.220915 130.472847 
L 198.69053 130.510824 
L 208.403699 130.688236 
L 216.438156 131.503631 
L 223.877083 130.124563 
L 231.605194 125.01383 
L 236.65984 13.119221 
L 242.316085 115.076783 
L 248.808198 129.179472 
L 255.848142 130.434691 
L 263.216805 130.359304 
L 270.936002 130.899603 
L 280.131357 130.787653 
L 288.565557 131.503108 
L 296.092653 131.108456 
L 306.434162 130.876783 
L 315.219852 129.149487 
L 321.615483 110.86251 
L 325.066279 63.997378 
L 334.294566 125.910517 
L 341.718706 129.987919 
L 348.564214 130.4605 
L 358.206818 130.966369 
L 365.061851 130.83964 
L 373.220937 130.716825 
L 382.082389 130.275346 
L 390.144944 130.355883 
L 399.412552 130.754077 
" clip-path="url(#pb2a0fc9e3c)" style="fill: none; stroke: #4c78a8; stroke-width: 1.35; stroke-linecap: square"/>
   </g>
   <g id="line2d_18">
    <path d="M 64.159553 129.937381 
L 72.483876 127.61007 
L 80.147963 128.105724 
L 85.488639 129.43233 
L 91.915198 130.914463 
L 97.302491 127.091827 
L 105.983963 129.855219 
L 110.147247 130.303426 
L 114.961849 127.421436 
L 128.046722 123.607754 
L 130.907395 116.593356 
L 146.164649 118.551923 
L 148.930477 117.171525 
L 167.267906 131.446223 
L 170.396555 129.931425 
L 179.911452 131.145436 
L 184.433314 130.030079 
L 189.918742 129.467314 
L 197.174684 130.088339 
L 203.423292 128.909311 
L 207.67483 130.615751 
L 225.347028 116.117762 
L 228.126465 126.544534 
L 243.228409 121.985026 
L 246.533679 122.770626 
L 256.355167 128.583081 
L 261.680764 129.494486 
L 267.838291 127.615043 
L 274.856056 128.551168 
L 281.056475 130.535669 
L 286.532931 126.449196 
L 292.728826 130.116595 
L 302.063049 130.142859 
L 323.97327 130.330351 
L 328.122884 119.104394 
L 345.943103 119.261453 
L 353.956767 131.407139 
L 358.746659 130.673495 
L 368.442135 128.229305 
L 374.006252 131.228023 
L 380.551026 128.374828 
L 387.795199 131.168625 
L 393.009288 130.567621 
L 401.662286 127.630255 
" clip-path="url(#pb2a0fc9e3c)" style="fill: none; stroke: #4daf7c; stroke-width: 1.75; stroke-linecap: square"/>
   </g>
   <g id="patch_3">
    <path d="M 55.957356 137.422852 
L 55.957356 7.2 
" style="fill: none; stroke: #222222; stroke-width: 0.8; stroke-linejoin: miter; stroke-linecap: square"/>
   </g>
   <g id="patch_4">
    <path d="M 55.957356 137.422852 
L 408.796956 137.422852 
" style="fill: none; stroke: #222222; stroke-width: 0.8; stroke-linejoin: miter; stroke-linecap: square"/>
   </g>
   <g id="legend_1">
    <g id="patch_5">
     <path d="M 335.663362 39.972559 
L 405.296956 39.972559 
Q 406.296956 39.972559 406.296956 38.972559 
L 406.296956 10.7 
Q 406.296956 9.7 405.296956 9.7 
L 335.663362 9.7 
Q 334.663362 9.7 334.663362 10.7 
L 334.663362 38.972559 
Q 334.663362 39.972559 335.663362 39.972559 
z
" style="fill: #ffffff; opacity: 0.8; stroke: #cccccc; stroke-linejoin: miter"/>
    </g>
    <g id="line2d_19">
     <path d="M 336.663362 13.592969 
L 341.663362 13.592969 
L 346.663362 13.592969 
" style="fill: none; stroke: #c73e3a; stroke-width: 1.55; stroke-linecap: square"/>
    </g>
    <g id="text_17">
     <text style="font-size: 5px; font-family: 'Arial', 'Helvetica', 'DejaVu Sans', sans-serif; text-anchor: start" x="350.663362" y="15.342969" transform="rotate(-0 350.663362 15.342969)">Original</text>
    </g>
    <g id="line2d_20">
     <path d="M 336.663362 20.785449 
L 341.663362 20.785449 
L 346.663362 20.785449 
" style="fill: none; stroke: #6c6c6c; stroke-width: 1.35; stroke-linecap: square"/>
    </g>
    <g id="text_18">
     <text style="font-size: 5px; font-family: 'Arial', 'Helvetica', 'DejaVu Sans', sans-serif; text-anchor: start" x="350.663362" y="22.535449" transform="rotate(-0 350.663362 22.535449)">Moving-average smooth</text>
    </g>
    <g id="line2d_21">
     <path d="M 336.663362 27.97793 
L 341.663362 27.97793 
L 346.663362 27.97793 
" style="fill: none; stroke: #4c78a8; stroke-width: 1.35; stroke-linecap: square"/>
    </g>
    <g id="text_19">
     <text style="font-size: 5px; font-family: 'Arial', 'Helvetica', 'DejaVu Sans', sans-serif; text-anchor: start" x="350.663362" y="29.72793" transform="rotate(-0 350.663362 29.72793)">B-spline</text>
    </g>
    <g id="line2d_22">
     <path d="M 336.663362 35.170313 
L 341.663362 35.170313 
L 346.663362 35.170313 
" style="fill: none; stroke: #4daf7c; stroke-width: 1.75; stroke-linecap: square"/>
    </g>
    <g id="text_20">
     <text style="font-size: 5px; font-family: 'Arial', 'Helvetica', 'DejaVu Sans', sans-serif; text-anchor: start" x="350.663362" y="36.920313" transform="rotate(-0 350.663362 36.920313)">Geodesic optimized</text>
    </g>
   </g>
  </g>
 </g>
 <defs>
  <clipPath id="pb2a0fc9e3c">
   <rect x="55.957356" y="7.2" width="352.8396" height="130.222852"/>
  </clipPath>
 </defs>
</svg>
