<?xml version="1.0" encoding="utf-8" standalone="no"?>
<!DOCTYPE svg PUBLIC "-//W3C//DTD SVG 1.1//EN"
  "http://www.w3.org/Graphics/SVG/1.1/DTD/svg11.dtd">
<svg xmlns:xlink="http://www.w3.org/1999/xlink" width="420.180072pt" height="169.317187pt" viewBox="0 0 420.180072 169.317187" xmlns="http://www.w3.org/2000/svg" version="1.1">
 <metadata>
  <rdf:RDF xmlns:dc="http://purl.org/dc/elements/1.1/" xmlns:cc="http://creativecommons.org/ns#" xmlns:rdf="http://www.w3.org/1999/02/22-rdf-syntax-ns#">
   <cc:Work>
    <dc:type rdf:resource="http://purl.org/dc/dcmitype/StillImage"/>
    <dc:date>2026-06-29T19:50:54.160277</dc:date>
    <dc:format>image/svg+xml</dc:format>
    <dc:creator>
     <cc:Agent>
      <dc:title>Matplotlib v3.10.8, https://matplotlib.org/</dc:title>
     </cc:Agent>
    </dc:creator>
   </cc:Work>
  </rdf:RDF>
 </metadata>
 <defs>
  <style type="text/css">*{stroke-linejoin: round; stroke-linecap: butt}</style>
 </defs>
 <g id="figure_1">
  <g id="patch_1">
   <path d="M 0 169.317187 
L 420.180072 169.317187 
L 420.180072 0 
L 0 0 
z
" style="fill: #ffffff"/>
  </g>
  <g id="axes_1">
   <g id="patch_2">
    <path d="M 60.104088 137.1 
L 407.413978 137.1 
L 407.413978 7.2 
L 60.104088 7.2 
z
" style="fill: #ffffff"/>
   </g>
   <g id="matplotlib.axis_1">
    <g id="xtick_1">
     <g id="line2d_1">
      <defs>
       <path id="m274594a06a" d="M 0 0 
L 0 3 
" style="stroke: #222222; stroke-width: 0.8"/>
      </defs>
      <g>
       <use xlink:href="#m274594a06a" x="60.104088" y="137.1" style="fill: #222222; stroke: #222222; stroke-width: 0.8"/>
      </g>
     </g>
     <g id="text_1">
      <text style="font-size: 7px; font-family: 'Arial', 'Helvetica', 'DejaVu Sans', sans-serif; text-anchor: middle; fill: #222222" x="60.104088" y="148.918906" transform="rotate(-0 60.104088 148.918906)">0.0</text>
     </g>
    </g>
    <g id="xtick_2">
     <g id="line2d_2">
      <g>
       <use xlink:href="#m274594a06a" x="129.566066" y="137.1" style="fill: #222222; stroke: #222222; stroke-width: 0.8"/>
      </g>
     </g>
     <g id="text_2">
      <text style="font-size: 7px; font-family: 'Arial', 'Helvetica', 'DejaVu Sans', sans-serif; text-anchor: middle; fill: #222222" x="129.566066" y="148.918906" transform="rotate(-0 129.566066 148.918906)">0.2</text>
     </g>
    </g>
    <g id="xtick_3">
     <g id="line2d_3">
      <g>
       <use xlink:href="#m274594a06a" x="199.028044" y="137.1" style="fill: #222222; stroke: #222222; stroke-width: 0.8"/>
      </g>
     </g>
     <g id="text_3">
      <text style="font-size: 7px; font-family: 'Arial', 'Helvetica', 'DejaVu Sans', sans-serif; text-anchor: middle; fill: #222222" x="199.028044" y="148.918906" transform="rotate(-0 199.028044 148.918906)">0.4</text>
     </g>
    </g>
    <g id="xtick_4">
     <g id="line2d_4">
      <g>
       <use xlink:href="#m274594a06a" x="268.490022" y="137.1" style="fill: #222222; stroke: #222222; stroke-width: 0.8"/>
      </g>
     </g>
     <g id="text_4">
      <text style="font-size: 7px; font-family: 'Arial', 'Helvetica', 'DejaVu Sans', sans-serif; text-anchor: middle; fill: #222222" x="268.490022" y="148.918906" transform="rotate(-0 268.490022 148.918906)">0.6</text>
     </g>
    </g>
    <g id="xtick_5">
     <g id="line2d_5">
      <g>
       <use xlink:href="#m274594a06a" x="337.952" y="137.1" style="fill: #222222; stroke: #222222; stroke-width: 0.8"/>
      </g>
     </g>
     <g id="text_5">
      <text style="font-size: 7px; font-family: 'Arial', 'Helvetica', 'DejaVu Sans', sans-serif; text-anchor: middle; fill: #222222" x="337.952" y="148.918906" transform="rotate(-0 337.952 148.918906)">0.8</text>
     </g>
    </g>
    <g id="xtick_6">
     <g id="line2d_6">
      <g>
       <use xlink:href="#m274594a06a" x="407.413978" y="137.1" style="fill: #222222; stroke: #222222; stroke-width: 0.8"/>
      </g>
     </g>
     <g id="text_6">
      <text style="font-size: 7px; font-family: 'Arial', 'Helvetica', 'DejaVu Sans', sans-serif; text-anchor: middle; fill: #222222" x="407.413978" y="148.918906" transform="rotate(-0 407.413978 148.918906)">1.0</text>
     </g>
    </g>
    <g id="text_7">
     <text style="font-size: 8px; font-family: 'Arial', 'Helvetica', 'DejaVu Sans', sans-serif; text-anchor: middle" x="233.759033" y="160.453437" transform="rotate(-0 233.759033 160.453437)">Normalized arc length</text>
    </g>
   </g>
   <g id="matplotlib.axis_2">
    <g id="ytick_1">
     <g id="line2d_7">
      <defs>
       <path id="m3f6dd62e3f" d="M 0 0 
L -3 0 
" style="stroke: #222222; stroke-width: 0.8"/>
      </defs>
      <g>
       <use xlink:href="#m3f6dd62e3f" x="60.104088" y="131.195455" style="fill: #222222; stroke: #222222; stroke-width: 0.8"/>
      </g>
     </g>
     <g id="text_8">
      <text style="font-size: 7px; font-family: 'Arial', 'Helvetica', 'DejaVu Sans', sans-serif; text-anchor: end; fill: #222222" x="53.604088" y="133.854908" transform="rotate(-0 53.604088 133.854908)">0</text>
     </g>
    </g>
    <g id="ytick_2">
     <g id="line2d_8">
      <g>
       <use xlink:href="#m3f6dd62e3f" x="60.104088" y="114.358229" style="fill: #222222; stroke: #222222; stroke-width: 0.8"/>
      </g>
     </g>
     <g id="text_9">
      <text style="font-size: 7px; font-family: 'Arial', 'Helvetica', 'DejaVu Sans', sans-serif; text-anchor: end; fill: #222222" x="53.604088" y="117.017682" transform="rotate(-0 53.604088 117.017682)">2</text>
     </g>
    </g>
    <g id="ytick_3">
     <g id="line2d_9">
      <g>
       <use xlink:href="#m3f6dd62e3f" x="60.104088" y="97.521004" style="fill: #222222; stroke: #222222; stroke-width: 0.8"/>
      </g>
     </g>
     <g id="text_10">
      <text style="font-size: 7px; font-family: 'Arial', 'Helvetica', 'DejaVu Sans', sans-serif; text-anchor: end; fill: #222222" x="53.604088" y="100.180457" transform="rotate(-0 53.604088 100.180457)">4</text>
     </g>
    </g>
    <g id="ytick_4">
     <g id="line2d_10">
      <g>
       <use xlink:href="#m3f6dd62e3f" x="60.104088" y="80.683778" style="fill: #222222; stroke: #222222; stroke-width: 0.8"/>
      </g>
     </g>
     <g id="text_11">
      <text style="font-size: 7px; font-family: 'Arial', 'Helvetica', 'DejaVu Sans', sans-serif; text-anchor: end; fill: #222222" x="53.604088" y="83.343232" transform="rotate(-0 53.604088 83.343232)">6</text>
     </g>
    </g>
    <g id="ytick_5">
     <g id="line2d_11">
      <g>
       <use xlink:href="#m3f6dd62e3f" x="60.104088" y="63.846553" style="fill: #222222; stroke: #222222; stroke-width: 0.8"/>
      </g>
     </g>
     <g id="text_12">
      <text style="font-size: 7px; font-family: 'Arial', 'Helvetica', 'DejaVu Sans', sans-serif; text-anchor: end; fill: #222222" x="53.604088" y="66.506006" transform="rotate(-0 53.604088 66.506006)">8</text>
     </g>
    </g>
    <g id="ytick_6">
     <g id="line2d_12">
      <g>
       <use xlink:href="#m3f6dd62e3f" x="60.104088" y="47.009328" style="fill: #222222; stroke: #222222; stroke-width: 0.8"/>
      </g>
     </g>
     <g id="text_13">
      <text style="font-size: 7px; font-family: 'Arial', 'Helvetica', 'DejaVu Sans', sans-serif; text-anchor: end; fill: #222222" x="53.604088" y="49.668781" transform="rotate(-0 53.604088 49.668781)">10</text>
     </g>
    </g>
    <g id="ytick_7">
     <g id="line2d_13">
      <g>
       <use xlink:href="#m3f6dd62e3f" x="60.104088" y="30.172102" style="fill: #222222; stroke: #222222; stroke-width: 0.8"/>
      </g>
     </g>
     <g id="text_14">
      <text style="font-size: 7px; font-family: 'Arial', 'Helvetica', 'DejaVu Sans', sans-serif; text-anchor: end; fill: #222222" x="53.604088" y="32.831556" transform="rotate(-0 53.604088 32.831556)">12</text>
     </g>
    </g>
    <g id="ytick_8">
     <g id="line2d_14">
      <g>
       <use xlink:href="#m3f6dd62e3f" x="60.104088" y="13.334877" style="fill: #222222; stroke: #222222; stroke-width: 0.8"/>
      </g>
     </g>
     <g id="text_15">
      <text style="font-size: 7px; font-family: 'Arial', 'Helvetica', 'DejaVu Sans', sans-serif; text-anchor: end; fill: #222222" x="53.604088" y="15.99433" transform="rotate(-0 53.604088 15.99433)">14</text>
     </g>
    </g>
    <g id="text_16">
     <!-- $d$ -->
     <g transform="translate(18.72 55.712625)">
      <text>
       <tspan x="0" y="-0.671875" style="font-size: 12px; font-family: 'cmmi10'">d</tspan>
      </text>
     </g>
     <!-- $(\mathrm{mm})$ -->
     <g transform="translate(7.2 69.15)">
      <text>
       <tspan x="0" y="-0" style="font-size: 12px; font-family: 'cmr10'">(</tspan>
       <tspan x="4.658203" y="-0" style="font-size: 12px; font-family: 'cmr10'">m</tspan>
       <tspan x="14.654297" y="-0" style="font-size: 12px; font-family: 'cmr10'">m</tspan>
       <tspan x="24.650391" y="-0" style="font-size: 12px; font-family: 'cmr10'">)</tspan>
      </text>
     </g>
    </g>
   </g>
   <g id="line2d_15">
    <path d="M 60.104088 131.195455 
L 67.462531 87.359194 
L 73.651746 114.215831 
L 80.11745 113.538566 
L 85.872361 105.198922 
L 90.812803 114.749897 
L 96.340187 109.907944 
L 102.130138 119.648648 
L 107.79182 110.118587 
L 112.975778 86.760366 
L 119.176539 32.91946 
L 131.413256 35.706331 
L 138.318069 80.588032 
L 143.698891 99.669437 
L 149.769242 111.28655 
L 155.563451 120.007442 
L 161.049063 116.370648 
L 166.842479 107.012048 
L 172.669973 107.773742 
L 178.614621 109.869074 
L 186.603086 74.153637 
L 193.564197 13.104545 
L 206.369749 31.32068 
L 213.264364 80.511831 
L 220.163541 105.254447 
L 226.188483 116.025042 
L 231.591456 119.133398 
L 237.309512 112.328725 
L 243.617197 108.548244 
L 249.502722 110.899343 
L 254.758822 104.82837 
L 261.442681 72.308104 
L 268.175162 22.656668 
L 280.914202 42.840932 
L 286.478956 89.836651 
L 291.76401 108.302147 
L 297.96678 112.161643 
L 303.651705 115.038869 
L 308.93665 118.76665 
L 314.597881 115.668696 
L 319.989738 111.852772 
L 325.886447 107.473574 
L 331.601556 77.481286 
L 338.502379 27.9718 
L 351.900329 24.333577 
L 358.091468 70.771792 
L 365.726279 114.932187 
L 371.369906 111.96939 
L 376.762441 115.914802 
L 382.481172 112.286195 
L 387.937409 113.366022 
L 393.89978 108.732688 
L 401.081553 85.524158 
L 407.413978 131.195455 
" clip-path="url(#p4c8a830b51)" style="fill: none; stroke-dasharray: 4.625,2; stroke-dashoffset: 0; stroke: #6c6c6c; stroke-width: 1.25"/>
   </g>
   <g id="line2d_16">
    <path d="M 60.104088 121.142601 
L 67.462531 120.970779 
L 73.651746 111.866362 
L 80.11745 121.689446 
L 85.872361 117.787923 
L 90.812803 118.902124 
L 96.340187 103.761595 
L 102.130138 115.991829 
L 107.79182 116.663329 
L 112.975778 109.86414 
L 119.176539 68.565842 
L 131.413256 88.113256 
L 138.318069 110.176538 
L 143.698891 106.860471 
L 149.769242 114.152198 
L 155.563451 116.941241 
L 161.049063 122.400231 
L 166.842479 107.983015 
L 172.669973 100.053281 
L 178.614621 99.535313 
L 186.603086 105.749621 
L 193.564197 71.022007 
L 206.369749 63.734882 
L 213.264364 96.666311 
L 220.163541 109.544936 
L 226.188483 118.041525 
L 231.591456 118.434556 
L 237.309512 110.343452 
L 243.617197 110.76129 
L 249.502722 107.891246 
L 254.758822 111.968829 
L 261.442681 117.618713 
L 268.175162 70.643388 
L 280.914202 75.776055 
L 286.478956 112.948642 
L 291.76401 113.136411 
L 297.96678 106.529475 
L 303.651705 106.824425 
L 308.93665 106.703604 
L 314.597881 99.99416 
L 319.989738 103.20949 
L 325.886447 114.103268 
L 331.601556 105.260191 
L 338.502379 57.129599 
L 351.900329 52.422214 
L 358.091468 98.610741 
L 365.726279 100.723011 
L 371.369906 87.364478 
L 376.762441 100.085239 
L 382.481172 113.655329 
L 387.937409 123.81233 
L 393.89978 110.36722 
L 401.081553 105.139695 
L 407.413978 116.234341 
" clip-path="url(#p4c8a830b51)" style="fill: none; stroke-dasharray: 4.995,2.16; stroke-dashoffset: 0; stroke: #4c78a8; stroke-width: 1.35"/>
   </g>
   <g id="line2d_17">
    <path d="M 60.104088 131.195455 
L 67.462531 131.195455 
L 73.651746 131.195455 
L 80.11745 131.195455 
L 85.872361 111.172601 
L 90.812803 118.731631 
L 96.340187 116.918736 
L 102.130138 118.669877 
L 107.79182 104.287592 
L 112.975778 77.906601 
L 119.176539 131.195455 
L 131.413256 131.195455 
L 138.318069 79.419947 
L 143.698891 103.01807 
L 149.769242 131.195455 
L 155.563451 131.195455 
L 161.049063 106.917387 
L 166.842479 131.195455 
L 172.669973 131.195455 
L 178.614621 93.351109 
L 186.603086 41.888579 
L 193.564197 116.780221 
L 206.369749 102.13052 
L 213.264364 106.593147 
L 220.163541 106.982772 
L 226.188483 119.122468 
L 231.591456 131.195455 
L 237.309512 131.195455 
L 243.617197 107.376567 
L 249.502722 131.195455 
L 254.758822 131.195455 
L 261.442681 69.96834 
L 268.175162 118.929285 
L 280.914202 131.195455 
L 286.478956 99.571192 
L 291.76401 119.222376 
L 297.96678 119.28495 
L 303.651705 114.348355 
L 308.93665 131.195455 
L 314.597881 131.195455 
L 319.989738 107.441243 
L 325.886447 117.622808 
L 331.601556 75.586739 
L 338.502379 131.195455 
L 351.900329 131.195455 
L 358.091468 79.932049 
L 365.726279 118.961947 
L 371.369906 131.195455 
L 376.762441 111.599968 
L 382.481172 131.195455 
L 387.937409 131.195455 
L 393.89978 102.750804 
L 401.081553 118.955805 
L 407.413978 131.195455 
" clip-path="url(#p4c8a830b51)" style="fill: none; stroke-dasharray: 4.995,2.16; stroke-dashoffset: 0; stroke: #4daf7c; stroke-width: 1.35"/>
   </g>
   <g id="patch_3">
    <path d="M 60.104088 137.1 
L 60.104088 7.2 
" style="fill: none; stroke: #222222; stroke-width: 0.8; stroke-linejoin: miter; stroke-linecap: square"/>
   </g>
   <g id="patch_4">
    <path d="M 60.104088 137.1 
L 407.413978 137.1 
" style="fill: none; stroke: #222222; stroke-width: 0.8; stroke-linejoin: miter; stroke-linecap: square"/>
   </g>
   <g id="legend_1">
    <g id="patch_5">
     <path d="M 327.263197 33.217187 
L 403.913978 33.217187 
Q 404.913978 33.217187 404.913978 32.217187 
L 404.913978 10.7 
Q 404.913978 9.7 403.913978 9.7 
L 327.263197 9.7 
Q 326.263197 9.7 326.263197 10.7 
L 326.263197 32.217187 
Q 326.263197 33.217187 327.263197 33.217187 
z
" style="fill: #ffffff; opacity: 0.8; stroke: #cccccc; stroke-linejoin: miter"/>
    </g>
    <g id="line2d_18">
     <path d="M 328.263197 13.749219 
L 333.263197 13.749219 
L 338.263197 13.749219 
" style="fill: none; stroke-dasharray: 4.625,2; stroke-dashoffset: 0; stroke: #6c6c6c; stroke-width: 1.25"/>
    </g>
    <g id="text_17">
     <text style="font-size: 5px; font-family: 'Arial', 'Helvetica', 'DejaVu Sans', sans-serif; text-anchor: start" x="342.263197" y="15.499219" transform="rotate(-0 342.263197 15.499219)">Moving-average smooth</text>
    </g>
    <g id="line2d_19">
     <path d="M 328.263197 21.088281 
L 333.263197 21.088281 
L 338.263197 21.088281 
" style="fill: none; stroke-dasharray: 4.995,2.16; stroke-dashoffset: 0; stroke: #4c78a8; stroke-width: 1.35"/>
    </g>
    <g id="text_18">
     <text style="font-size: 5px; font-family: 'Arial', 'Helvetica', 'DejaVu Sans', sans-serif; text-anchor: start" x="342.263197" y="22.838281" transform="rotate(-0 342.263197 22.838281)">B-spline</text>
    </g>
    <g id="line2d_20">
     <path d="M 328.263197 28.427344 
L 333.263197 28.427344 
L 338.263197 28.427344 
" style="fill: none; stroke-dasharray: 4.995,2.16; stroke-dashoffset: 0; stroke: #4daf7c; stroke-width: 1.35"/>
    </g>
    <g id="text_19">
     <text style="font-size: 5px; font-family: 'Arial', 'Helvetica', 'DejaVu Sans', sans-serif; text-anchor: start" x="342.263197" y="30.177344" transform="rotate(-0 342.263197 30.177344)">Geodesic optimized</text>
    </g>
   </g>
  </g>
 </g>
 <defs>
  <clipPath id="p4c8a830b51">
   <rect x="60.104088" y="7.2" width="347.30989" height="129.9"/>
  </clipPath>
 </defs>
</svg>
