<?xml version="1.0" encoding="utf-8" standalone="no"?>
<!DOCTYPE svg PUBLIC "-//W3C//DTD SVG 1.1//EN"
  "http://www.w3.org/Graphics/SVG/1.1/DTD/svg11.dtd">
<svg xmlns:xlink="http://www.w3.org/1999/xlink" width="436.68082pt" height="246.400156pt" viewBox="0 0 436.68082 246.400156" xmlns="http://www.w3.org/2000/svg" version="1.1">
 <metadata>
  <rdf:RDF xmlns:dc="http://purl.org/dc/elements/1.1/" xmlns:cc="http://creativecommons.org/ns#" xmlns:rdf="http://www.w3.org/1999/02/22-rdf-syntax-ns#">
   <cc:Work>
    <dc:type rdf:resource="http://purl.org/dc/dcmitype/StillImage"/>
    <dc:date>2026-06-23T16:19:11.578107</dc:date>
    <dc:format>image/svg+xml</dc:format>
    <dc:creator>
     <cc:Agent>
      <dc:title>Matplotlib v3.11.0, https://matplotlib.org/</dc:title>
     </cc:Agent>
    </dc:creator>
   </cc:Work>
  </rdf:RDF>
 </metadata>
 <defs>
  <style type="text/css">*{stroke-linejoin: round; stroke-linecap: butt}</style>
 </defs>
 <g id="figure_1">
  <g id="patch_1">
   <path d="M 0 246.400156 
L 436.68082 246.400156 
L 436.68082 0 
L 0 0 
z
" style="fill: #ffffff"/>
  </g>
  <g id="axes_1">
   <g id="patch_2">
    <path d="M 55.51532 215.09209 
L 424.96332 215.09209 
L 424.96332 7.2 
L 55.51532 7.2 
z
" style="fill: #ffffff"/>
   </g>
   <g id="FillBetweenPolyCollection_1">
    <defs>
     <path id="mce5dca9632" d="M 55.51532 -229.750516 
L 55.51532 -229.750516 
L 56.254216 -229.680278 
L 56.993112 -225.905549 
L 57.732008 -217.338789 
L 58.470904 -215.723908 
L 59.2098 -210.167177 
L 59.948696 -206.619377 
L 60.687592 -204.827624 
L 61.426488 -203.936962 
L 62.165384 -197.962176 
L 62.90428 -191.515003 
L 63.643176 -190.437115 
L 64.382072 -187.096964 
L 65.120968 -178.692895 
L 65.859864 -177.847628 
L 66.59876 -177.847628 
L 67.337656 -176.415369 
L 68.076552 -162.529209 
L 68.815448 -151.37754 
L 69.554344 -151.222598 
L 70.29324 -151.222598 
L 71.032136 -150.236251 
L 71.771032 -150.236251 
L 72.509928 -149.784396 
L 73.248824 -148.033933 
L 73.98772 -147.864773 
L 74.726616 -147.796331 
L 75.465512 -147.399982 
L 76.204408 -147.399982 
L 76.943304 -144.674325 
L 77.6822 -143.501283 
L 78.421096 -143.36751 
L 79.159992 -143.36751 
L 79.898888 -142.590805 
L 80.637784 -141.910027 
L 81.37668 -141.910027 
L 82.115576 -137.993939 
L 82.854472 -137.993939 
L 83.593368 -137.778298 
L 84.332264 -137.778298 
L 85.07116 -133.97296 
L 85.810056 -132.87659 
L 86.548952 -131.294574 
L 87.287848 -131.209969 
L 88.026744 -130.976447 
L 88.76564 -127.583878 
L 89.504536 -126.801547 
L 90.243432 -126.801547 
L 90.982328 -126.801547 
L 91.721224 -123.375432 
L 92.46012 -122.987448 
L 93.199016 -122.987448 
L 93.937912 -121.656739 
L 94.676808 -120.706506 
L 95.415704 -120.706506 
L 96.1546 -120.167758 
L 96.893496 -119.505831 
L 97.632392 -119.505831 
L 98.371288 -119.505831 
L 99.110184 -116.649667 
L 99.84908 -114.725205 
L 100.587976 -114.595946 
L 101.326872 -114.595946 
L 102.065768 -113.430184 
L 102.804664 -112.765403 
L 103.54356 -112.765403 
L 104.282456 -112.765403 
L 105.021352 -112.765403 
L 105.760248 -112.765403 
L 106.499144 -111.656711 
L 107.23804 -111.656711 
L 107.976936 -111.112581 
L 108.715832 -111.112581 
L 109.454728 -110.60408 
L 110.193624 -110.60408 
L 110.93252 -110.12487 
L 111.671416 -109.973007 
L 112.410312 -109.973007 
L 113.149208 -108.764487 
L 113.888104 -108.764487 
L 114.627 -108.764487 
L 115.365896 -108.764487 
L 116.104792 -108.437779 
L 116.843688 -108.437779 
L 117.582584 -108.437779 
L 118.32148 -107.027711 
L 119.060376 -107.027711 
L 119.799272 -107.027711 
L 120.538168 -107.027711 
L 121.277064 -106.910218 
L 122.01596 -106.910218 
L 122.754856 -106.910218 
L 123.493752 -106.910218 
L 124.232648 -106.508821 
L 124.971544 -105.143296 
L 125.71044 -105.143296 
L 126.449336 -104.40087 
L 127.188232 -104.40087 
L 127.927128 -104.40087 
L 128.666024 -104.624666 
L 129.40492 -104.624666 
L 130.143816 -104.624666 
L 130.882712 -104.624666 
L 131.621608 -101.664826 
L 132.360504 -101.664826 
L 133.0994 -101.481813 
L 133.838296 -101.481813 
L 134.577192 -101.481813 
L 135.316088 -101.481813 
L 136.054984 -101.428936 
L 136.79388 -100.922813 
L 137.532776 -100.922813 
L 138.271672 -100.693622 
L 139.010568 -100.609828 
L 139.749464 -100.609828 
L 140.48836 -100.495299 
L 141.227256 -100.495299 
L 141.966152 -100.294745 
L 142.705048 -100.294745 
L 143.443944 -99.414863 
L 144.18284 -99.414863 
L 144.921736 -99.414863 
L 145.660632 -99.267203 
L 146.399528 -99.267203 
L 147.138424 -99.267203 
L 147.87732 -98.610376 
L 148.616216 -98.610376 
L 149.355112 -98.655418 
L 150.094008 -98.511579 
L 150.832904 -98.511579 
L 151.5718 -98.511579 
L 152.310696 -98.511579 
L 153.049592 -98.511579 
L 153.788488 -98.511579 
L 154.527384 -98.29336 
L 155.26628 -98.29336 
L 156.005176 -98.29336 
L 156.744072 -98.29336 
L 157.482968 -98.29336 
L 158.221864 -97.703988 
L 158.96076 -97.476159 
L 159.699656 -97.476159 
L 160.438552 -97.476159 
L 161.177448 -94.652378 
L 161.916344 -94.652378 
L 162.65524 -87.495957 
L 163.394136 -87.495957 
L 164.133032 -87.235993 
L 164.871928 -87.235993 
L 165.610824 -87.208605 
L 166.34972 -87.208605 
L 167.088616 -87.208605 
L 167.827512 -86.790044 
L 168.566408 -86.587821 
L 169.305304 -86.587821 
L 170.0442 -86.587821 
L 170.783096 -86.587821 
L 171.521992 -86.587821 
L 172.260888 -86.549443 
L 172.999784 -86.405375 
L 173.73868 -86.36324 
L 174.477576 -86.36324 
L 175.216472 -86.36324 
L 175.955368 -84.847701 
L 176.694264 -84.847701 
L 177.43316 -84.847701 
L 178.172056 -84.847701 
L 178.910952 -83.568288 
L 179.649848 -83.568288 
L 180.388744 -83.568288 
L 181.12764 -83.568288 
L 181.866536 -83.075681 
L 182.605432 -83.075681 
L 183.344328 -83.075681 
L 184.083224 -83.075681 
L 184.82212 -83.075681 
L 185.561016 -83.067973 
L 186.299912 -82.940609 
L 187.038808 -82.940609 
L 187.777704 -82.940609 
L 188.5166 -82.800207 
L 189.255496 -82.843358 
L 189.994392 -82.843358 
L 190.733288 -82.843358 
L 191.472184 -82.558013 
L 192.21108 -82.558013 
L 192.949976 -82.558013 
L 193.688872 -82.558013 
L 194.427768 -82.558013 
L 195.166664 -82.558013 
L 195.90556 -82.558013 
L 196.644456 -81.872159 
L 197.383352 -81.872159 
L 198.122248 -81.872159 
L 198.861144 -81.569041 
L 199.60004 -81.569041 
L 200.338936 -81.569041 
L 201.077832 -81.158216 
L 201.816728 -81.158216 
L 202.555624 -81.158216 
L 203.29452 -81.158216 
L 204.033416 -81.158216 
L 204.772312 -81.158216 
L 205.511208 -80.136015 
L 206.250104 -80.136015 
L 206.989 -80.136015 
L 207.727896 -80.136015 
L 208.466792 -80.136015 
L 209.205688 -80.136015 
L 209.944584 -80.136015 
L 210.68348 -80.136015 
L 211.422376 -78.891237 
L 212.161272 -78.891237 
L 212.900168 -78.891237 
L 213.639064 -78.412738 
L 214.37796 -78.42909 
L 215.116856 -77.891621 
L 215.855752 -77.217756 
L 216.594648 -77.217756 
L 217.333544 -77.217756 
L 218.07244 -77.217756 
L 218.811336 -77.217756 
L 219.550232 -77.246889 
L 220.289128 -77.246889 
L 221.028024 -77.246889 
L 221.76692 -77.492169 
L 222.505816 -77.01294 
L 223.244712 -77.01294 
L 223.983608 -76.784455 
L 224.722504 -76.784455 
L 225.4614 -76.784455 
L 226.200296 -76.784455 
L 226.939192 -76.784455 
L 227.678088 -76.784455 
L 228.416984 -76.784455 
L 229.15588 -76.714337 
L 229.894776 -76.714337 
L 230.633672 -76.714337 
L 231.372568 -76.714337 
L 232.111464 -76.714337 
L 232.85036 -76.047071 
L 233.589256 -76.047071 
L 234.328152 -76.047071 
L 235.067048 -76.047071 
L 235.805944 -76.047071 
L 236.54484 -76.070985 
L 237.283736 -76.070985 
L 238.022632 -76.070985 
L 238.761528 -75.857353 
L 239.500424 -75.857353 
L 240.23932 -75.857353 
L 240.978216 -75.857353 
L 241.717112 -75.793363 
L 242.456008 -75.793363 
L 243.194904 -75.793363 
L 243.9338 -75.793363 
L 244.672696 -76.058877 
L 245.411592 -75.942517 
L 246.150488 -75.942517 
L 246.889384 -75.942517 
L 247.62828 -75.942517 
L 248.367176 -75.905638 
L 249.106072 -75.905638 
L 249.844968 -75.905638 
L 250.583864 -75.905638 
L 251.32276 -75.905638 
L 252.061656 -75.905638 
L 252.800552 -75.905638 
L 253.539448 -76.434983 
L 254.278344 -76.434983 
L 255.01724 -76.434983 
L 255.756136 -76.434983 
L 256.495032 -76.23216 
L 257.233928 -76.23216 
L 257.972824 -76.23216 
L 258.71172 -75.994768 
L 259.450616 -75.994768 
L 260.189512 -75.994768 
L 260.928408 -75.994768 
L 261.667304 -75.994768 
L 262.4062 -76.056087 
L 263.145096 -75.573101 
L 263.883992 -75.573101 
L 264.622888 -75.573101 
L 265.361784 -75.573101 
L 266.10068 -75.573101 
L 266.839576 -75.573101 
L 267.578472 -75.573101 
L 268.317368 -75.540299 
L 269.056264 -75.394213 
L 269.79516 -75.394213 
L 270.534056 -75.394213 
L 271.272952 -75.149394 
L 272.011848 -75.149394 
L 272.750744 -75.149394 
L 273.48964 -75.149394 
L 274.228536 -75.149394 
L 274.967432 -75.149394 
L 275.706328 -75.149394 
L 276.445224 -75.149394 
L 277.18412 -74.825203 
L 277.923016 -74.825203 
L 278.661912 -74.538041 
L 279.400808 -74.538041 
L 280.139704 -74.517533 
L 280.8786 -74.517533 
L 281.617496 -74.517533 
L 282.356392 -74.517533 
L 283.095288 -74.517533 
L 283.834184 -74.517533 
L 284.57308 -74.517533 
L 285.311976 -74.517435 
L 286.050872 -74.517435 
L 286.789768 -74.517435 
L 287.528664 -74.517435 
L 288.26756 -74.517435 
L 289.006456 -74.517435 
L 289.745352 -74.517435 
L 290.484248 -74.062479 
L 291.223144 -74.062479 
L 291.96204 -74.062479 
L 292.700936 -74.062479 
L 293.439832 -74.062479 
L 294.178728 -73.905136 
L 294.917624 -73.905136 
L 295.65652 -73.905136 
L 296.395416 -73.905136 
L 297.134312 -73.905136 
L 297.873208 -73.905136 
L 298.612104 -73.911516 
L 299.351 -73.911516 
L 300.089896 -73.835008 
L 300.828792 -73.835008 
L 301.567688 -73.835008 
L 302.306584 -73.835008 
L 303.04548 -73.835008 
L 303.784376 -73.835008 
L 304.523272 -73.835008 
L 305.262168 -73.835008 
L 306.001064 -73.416091 
L 306.73996 -73.416091 
L 307.478856 -73.416091 
L 308.217752 -73.416091 
L 308.956648 -73.416091 
L 309.695544 -73.416091 
L 310.43444 -73.416091 
L 311.173336 -73.416091 
L 311.912232 -73.416091 
L 312.651128 -73.416091 
L 313.390024 -73.416091 
L 314.12892 -73.416091 
L 314.867816 -73.416091 
L 315.606712 -73.351346 
L 316.345608 -73.110673 
L 317.084504 -73.110673 
L 317.8234 -73.110673 
L 318.562296 -73.110673 
L 319.301192 -73.110673 
L 320.040088 -73.110673 
L 320.778984 -73.110673 
L 321.51788 -73.110673 
L 322.256776 -72.80878 
L 322.995672 -72.80878 
L 323.734568 -72.80878 
L 324.473464 -72.082547 
L 325.21236 -72.082547 
L 325.951256 -72.082547 
L 326.690152 -72.082547 
L 327.429048 -72.082547 
L 328.167944 -72.100135 
L 328.90684 -72.100135 
L 329.645736 -72.100135 
L 330.384632 -72.100135 
L 331.123528 -72.100135 
L 331.862424 -72.100135 
L 332.60132 -72.100135 
L 333.340216 -72.100135 
L 334.079112 -72.100135 
L 334.818008 -72.100135 
L 335.556904 -72.100135 
L 336.2958 -70.241383 
L 337.034696 -70.241383 
L 337.773592 -69.303002 
L 338.512488 -69.303002 
L 339.251384 -69.357789 
L 339.99028 -69.357789 
L 340.729176 -69.357789 
L 341.468072 -69.357789 
L 342.206968 -69.357789 
L 342.945864 -69.357789 
L 343.68476 -69.357789 
L 344.423656 -69.357789 
L 345.162552 -69.357789 
L 345.901448 -69.357789 
L 346.640344 -69.357789 
L 347.37924 -69.357789 
L 348.118136 -69.300096 
L 348.857032 -69.300096 
L 349.595928 -69.300096 
L 350.334824 -69.710281 
L 351.07372 -69.671335 
L 351.812616 -69.671335 
L 352.551512 -69.671335 
L 353.290408 -67.499996 
L 354.029304 -67.499996 
L 354.7682 -67.499996 
L 355.507096 -67.623583 
L 356.245992 -67.623583 
L 356.984888 -67.623583 
L 357.723784 -67.623583 
L 358.46268 -67.623583 
L 359.201576 -67.623583 
L 359.940472 -67.623583 
L 360.679368 -67.623583 
L 361.418264 -67.623583 
L 362.15716 -67.623583 
L 362.896056 -67.623583 
L 363.634952 -67.621643 
L 364.373848 -67.621643 
L 365.112744 -67.621643 
L 365.85164 -67.258455 
L 366.590536 -67.258455 
L 367.329432 -67.258455 
L 368.068328 -67.258455 
L 368.807224 -67.258455 
L 369.54612 -67.258455 
L 370.285016 -67.258455 
L 371.023912 -67.063573 
L 371.762808 -67.063573 
L 372.501704 -67.063573 
L 373.2406 -67.063573 
L 373.979496 -67.063573 
L 374.718392 -67.063573 
L 375.457288 -67.062555 
L 376.196184 -67.062555 
L 376.93508 -67.062555 
L 377.673976 -67.062555 
L 378.412872 -67.062555 
L 379.151768 -67.062555 
L 379.890664 -67.062555 
L 380.62956 -66.616473 
L 381.368456 -66.616473 
L 382.107352 -66.616473 
L 382.846248 -66.616473 
L 383.585144 -66.616473 
L 384.32404 -66.616473 
L 385.062936 -66.616473 
L 385.801832 -66.616473 
L 386.540728 -66.616473 
L 387.279624 -66.616473 
L 388.01852 -66.616473 
L 388.757416 -66.616473 
L 389.496312 -66.616473 
L 390.235208 -66.616473 
L 390.974104 -66.549989 
L 391.713 -66.549989 
L 392.451896 -66.549989 
L 393.190792 -66.549989 
L 393.929688 -66.549989 
L 394.668584 -66.549989 
L 395.40748 -66.549989 
L 396.146376 -66.549989 
L 396.885272 -66.549989 
L 397.624168 -66.549989 
L 398.363064 -66.549989 
L 399.10196 -66.549989 
L 399.840856 -66.549989 
L 400.579752 -66.549989 
L 401.318648 -66.549989 
L 402.057544 -66.549989 
L 402.79644 -66.552823 
L 403.535336 -66.552823 
L 404.274232 -66.552823 
L 405.013128 -66.552823 
L 405.752024 -66.552823 
L 406.49092 -66.552823 
L 407.229816 -66.552823 
L 407.968712 -66.552823 
L 408.707608 -66.552823 
L 409.446504 -66.552823 
L 410.1854 -66.552823 
L 410.924296 -66.552823 
L 411.663192 -66.552823 
L 412.402088 -66.552823 
L 413.140984 -66.552823 
L 413.87988 -66.552823 
L 414.618776 -66.552823 
L 415.357672 -66.771516 
L 416.096568 -66.771516 
L 416.835464 -66.771516 
L 417.57436 -66.771516 
L 418.313256 -66.665711 
L 419.052152 -66.665711 
L 419.791048 -66.665711 
L 420.529944 -66.665711 
L 421.26884 -66.219263 
L 422.007736 -66.219263 
L 422.746632 -66.219263 
L 423.485528 -66.219263 
L 424.224424 -66.219263 
L 424.96332 -66.219263 
L 424.96332 -98.791845 
L 424.96332 -98.791845 
L 424.224424 -98.791845 
L 423.485528 -98.791845 
L 422.746632 -98.791845 
L 422.007736 -98.791845 
L 421.26884 -98.791845 
L 420.529944 -98.791845 
L 419.791048 -98.791845 
L 419.052152 -98.791845 
L 418.313256 -98.791845 
L 417.57436 -98.884944 
L 416.835464 -98.884944 
L 416.096568 -98.884944 
L 415.357672 -98.884944 
L 414.618776 -98.884944 
L 413.87988 -98.884944 
L 413.140984 -98.884944 
L 412.402088 -98.884944 
L 411.663192 -98.944059 
L 410.924296 -98.944059 
L 410.1854 -98.944059 
L 409.446504 -98.944059 
L 408.707608 -98.944059 
L 407.968712 -98.944059 
L 407.229816 -98.944059 
L 406.49092 -98.944059 
L 405.752024 -98.944059 
L 405.013128 -98.944059 
L 404.274232 -99.319443 
L 403.535336 -99.319443 
L 402.79644 -99.319443 
L 402.057544 -99.319443 
L 401.318648 -99.319443 
L 400.579752 -99.319443 
L 399.840856 -99.319443 
L 399.10196 -99.319443 
L 398.363064 -99.319443 
L 397.624168 -99.319443 
L 396.885272 -99.319443 
L 396.146376 -99.641627 
L 395.40748 -99.641627 
L 394.668584 -99.641627 
L 393.929688 -99.641627 
L 393.190792 -99.56493 
L 392.451896 -99.56493 
L 391.713 -99.56493 
L 390.974104 -99.698177 
L 390.235208 -99.698177 
L 389.496312 -99.742186 
L 388.757416 -99.742186 
L 388.01852 -99.742186 
L 387.279624 -99.742186 
L 386.540728 -99.742186 
L 385.801832 -99.797057 
L 385.062936 -99.797057 
L 384.32404 -99.912182 
L 383.585144 -99.912182 
L 382.846248 -99.912182 
L 382.107352 -99.912182 
L 381.368456 -99.912182 
L 380.62956 -100.765756 
L 379.890664 -100.765756 
L 379.151768 -100.765756 
L 378.412872 -100.765756 
L 377.673976 -100.765756 
L 376.93508 -100.765756 
L 376.196184 -100.765756 
L 375.457288 -100.765756 
L 374.718392 -100.978083 
L 373.979496 -100.978083 
L 373.2406 -101.247719 
L 372.501704 -101.247719 
L 371.762808 -101.247719 
L 371.023912 -101.247719 
L 370.285016 -101.247719 
L 369.54612 -101.247719 
L 368.807224 -101.247719 
L 368.068328 -101.247719 
L 367.329432 -101.392841 
L 366.590536 -101.392841 
L 365.85164 -101.392841 
L 365.112744 -101.392841 
L 364.373848 -101.392841 
L 363.634952 -102.018033 
L 362.896056 -102.018033 
L 362.15716 -102.018033 
L 361.418264 -102.018033 
L 360.679368 -102.018033 
L 359.940472 -102.018033 
L 359.201576 -102.018033 
L 358.46268 -102.018033 
L 357.723784 -102.018033 
L 356.984888 -102.018033 
L 356.245992 -102.018033 
L 355.507096 -102.018033 
L 354.7682 -102.018033 
L 354.029304 -102.018033 
L 353.290408 -102.018033 
L 352.551512 -102.018033 
L 351.812616 -102.018033 
L 351.07372 -102.018033 
L 350.334824 -102.018033 
L 349.595928 -102.018033 
L 348.857032 -102.018033 
L 348.118136 -102.018033 
L 347.37924 -102.018033 
L 346.640344 -102.018033 
L 345.901448 -102.018033 
L 345.162552 -102.018033 
L 344.423656 -102.018033 
L 343.68476 -101.981737 
L 342.945864 -101.981737 
L 342.206968 -102.08931 
L 341.468072 -102.08931 
L 340.729176 -102.08931 
L 339.99028 -102.019664 
L 339.251384 -102.155113 
L 338.512488 -102.155113 
L 337.773592 -102.189789 
L 337.034696 -102.189789 
L 336.2958 -102.189789 
L 335.556904 -102.189789 
L 334.818008 -102.189789 
L 334.079112 -102.189789 
L 333.340216 -102.566754 
L 332.60132 -102.566754 
L 331.862424 -102.566754 
L 331.123528 -102.566754 
L 330.384632 -102.566754 
L 329.645736 -102.566754 
L 328.90684 -102.646071 
L 328.167944 -102.646071 
L 327.429048 -102.646071 
L 326.690152 -102.646071 
L 325.951256 -102.877343 
L 325.21236 -103.366761 
L 324.473464 -103.366761 
L 323.734568 -103.366761 
L 322.995672 -103.366761 
L 322.256776 -103.366761 
L 321.51788 -103.366761 
L 320.778984 -103.366761 
L 320.040088 -103.366761 
L 319.301192 -103.366761 
L 318.562296 -103.366761 
L 317.8234 -103.366761 
L 317.084504 -103.366761 
L 316.345608 -103.366761 
L 315.606712 -103.366761 
L 314.867816 -103.366761 
L 314.12892 -103.366761 
L 313.390024 -103.766841 
L 312.651128 -103.83844 
L 311.912232 -104.38342 
L 311.173336 -104.38342 
L 310.43444 -104.38342 
L 309.695544 -104.38342 
L 308.956648 -104.38342 
L 308.217752 -104.38342 
L 307.478856 -104.38342 
L 306.73996 -104.652126 
L 306.001064 -104.64706 
L 305.262168 -105.107501 
L 304.523272 -105.894758 
L 303.784376 -106.084997 
L 303.04548 -106.084997 
L 302.306584 -106.084997 
L 301.567688 -106.084997 
L 300.828792 -106.084997 
L 300.089896 -106.084997 
L 299.351 -106.084997 
L 298.612104 -106.472165 
L 297.873208 -106.540189 
L 297.134312 -106.650325 
L 296.395416 -106.650325 
L 295.65652 -106.650325 
L 294.917624 -106.650325 
L 294.178728 -106.650325 
L 293.439832 -106.650325 
L 292.700936 -106.650325 
L 291.96204 -106.650325 
L 291.223144 -106.650325 
L 290.484248 -106.650325 
L 289.745352 -106.650325 
L 289.006456 -106.650325 
L 288.26756 -106.650325 
L 287.528664 -106.650325 
L 286.789768 -106.854918 
L 286.050872 -106.854918 
L 285.311976 -106.854918 
L 284.57308 -108.249842 
L 283.834184 -108.249842 
L 283.095288 -108.249842 
L 282.356392 -108.249842 
L 281.617496 -109.247717 
L 280.8786 -109.247717 
L 280.139704 -109.463865 
L 279.400808 -109.463865 
L 278.661912 -109.463865 
L 277.923016 -109.463865 
L 277.18412 -109.463865 
L 276.445224 -109.463865 
L 275.706328 -109.704869 
L 274.967432 -109.704869 
L 274.228536 -109.704869 
L 273.48964 -109.704869 
L 272.750744 -109.704869 
L 272.011848 -109.704869 
L 271.272952 -109.704869 
L 270.534056 -109.704869 
L 269.79516 -109.704869 
L 269.056264 -109.825845 
L 268.317368 -109.825845 
L 267.578472 -109.825845 
L 266.839576 -109.946039 
L 266.10068 -109.946039 
L 265.361784 -110.268454 
L 264.622888 -110.268454 
L 263.883992 -110.268454 
L 263.145096 -110.268454 
L 262.4062 -110.268454 
L 261.667304 -110.359976 
L 260.928408 -110.595595 
L 260.189512 -110.595595 
L 259.450616 -110.595595 
L 258.71172 -110.638869 
L 257.972824 -110.732141 
L 257.233928 -110.732141 
L 256.495032 -110.732141 
L 255.756136 -111.264991 
L 255.01724 -111.264991 
L 254.278344 -111.264991 
L 253.539448 -111.266029 
L 252.800552 -111.326199 
L 252.061656 -111.326199 
L 251.32276 -111.326199 
L 250.583864 -111.152912 
L 249.844968 -111.152912 
L 249.106072 -111.152912 
L 248.367176 -112.032803 
L 247.62828 -112.032803 
L 246.889384 -112.032803 
L 246.150488 -112.068265 
L 245.411592 -112.068265 
L 244.672696 -112.474394 
L 243.9338 -112.474394 
L 243.194904 -112.474394 
L 242.456008 -112.829848 
L 241.717112 -113.123132 
L 240.978216 -113.123132 
L 240.23932 -113.123132 
L 239.500424 -113.123132 
L 238.761528 -113.123132 
L 238.022632 -113.123132 
L 237.283736 -113.123132 
L 236.54484 -113.123132 
L 235.805944 -114.796032 
L 235.067048 -114.955148 
L 234.328152 -114.955148 
L 233.589256 -114.955148 
L 232.85036 -115.542452 
L 232.111464 -115.542452 
L 231.372568 -115.542452 
L 230.633672 -115.547901 
L 229.894776 -115.547901 
L 229.15588 -115.547901 
L 228.416984 -115.547901 
L 227.678088 -115.547901 
L 226.939192 -115.547901 
L 226.200296 -115.547901 
L 225.4614 -115.547901 
L 224.722504 -115.547901 
L 223.983608 -115.547901 
L 223.244712 -115.547901 
L 222.505816 -115.547901 
L 221.76692 -115.547901 
L 221.028024 -115.954004 
L 220.289128 -115.954004 
L 219.550232 -115.954004 
L 218.811336 -116.213932 
L 218.07244 -116.213932 
L 217.333544 -116.213932 
L 216.594648 -116.213932 
L 215.855752 -116.213932 
L 215.116856 -116.213932 
L 214.37796 -116.213932 
L 213.639064 -116.213932 
L 212.900168 -116.103168 
L 212.161272 -116.103168 
L 211.422376 -116.103168 
L 210.68348 -116.103168 
L 209.944584 -116.103168 
L 209.205688 -116.103168 
L 208.466792 -116.733765 
L 207.727896 -116.733765 
L 206.989 -117.096759 
L 206.250104 -117.096759 
L 205.511208 -117.096759 
L 204.772312 -117.096759 
L 204.033416 -117.549261 
L 203.29452 -117.648294 
L 202.555624 -117.804631 
L 201.816728 -117.804631 
L 201.077832 -117.834536 
L 200.338936 -117.834536 
L 199.60004 -118.313698 
L 198.861144 -119.084885 
L 198.122248 -119.634155 
L 197.383352 -119.676555 
L 196.644456 -119.676555 
L 195.90556 -119.676555 
L 195.166664 -119.676555 
L 194.427768 -119.676555 
L 193.688872 -119.676555 
L 192.949976 -119.676555 
L 192.21108 -119.676555 
L 191.472184 -119.676555 
L 190.733288 -119.676555 
L 189.994392 -119.933928 
L 189.255496 -119.933928 
L 188.5166 -119.933928 
L 187.777704 -119.933928 
L 187.038808 -119.933928 
L 186.299912 -119.929269 
L 185.561016 -120.271037 
L 184.82212 -120.271037 
L 184.083224 -120.271037 
L 183.344328 -120.960382 
L 182.605432 -121.177208 
L 181.866536 -121.177208 
L 181.12764 -121.177208 
L 180.388744 -121.177208 
L 179.649848 -121.177208 
L 178.910952 -121.177208 
L 178.172056 -121.23382 
L 177.43316 -121.23382 
L 176.694264 -121.23382 
L 175.955368 -121.23382 
L 175.216472 -121.23382 
L 174.477576 -121.23382 
L 173.73868 -121.23382 
L 172.999784 -121.428246 
L 172.260888 -121.366149 
L 171.521992 -121.366149 
L 170.783096 -121.366149 
L 170.0442 -121.366149 
L 169.305304 -121.366149 
L 168.566408 -121.568779 
L 167.827512 -121.568779 
L 167.088616 -121.568779 
L 166.34972 -121.568779 
L 165.610824 -121.568779 
L 164.871928 -121.568779 
L 164.133032 -121.766479 
L 163.394136 -121.766479 
L 162.65524 -122.003929 
L 161.916344 -122.003929 
L 161.177448 -122.003929 
L 160.438552 -122.003929 
L 159.699656 -122.62368 
L 158.96076 -123.62908 
L 158.221864 -123.962511 
L 157.482968 -123.962511 
L 156.744072 -123.962511 
L 156.005176 -123.962511 
L 155.26628 -123.962511 
L 154.527384 -125.039861 
L 153.788488 -125.039861 
L 153.049592 -125.039861 
L 152.310696 -125.039861 
L 151.5718 -125.039861 
L 150.832904 -125.391872 
L 150.094008 -126.220058 
L 149.355112 -127.181257 
L 148.616216 -127.282434 
L 147.87732 -127.282434 
L 147.138424 -127.434281 
L 146.399528 -127.434281 
L 145.660632 -130.051581 
L 144.921736 -130.165404 
L 144.18284 -130.242792 
L 143.443944 -130.242792 
L 142.705048 -130.242792 
L 141.966152 -131.127645 
L 141.227256 -132.882176 
L 140.48836 -132.882176 
L 139.749464 -132.882176 
L 139.010568 -132.958804 
L 138.271672 -132.958804 
L 137.532776 -132.958804 
L 136.79388 -132.958804 
L 136.054984 -133.090015 
L 135.316088 -133.090015 
L 134.577192 -133.090015 
L 133.838296 -133.090015 
L 133.0994 -133.090015 
L 132.360504 -135.698961 
L 131.621608 -135.698961 
L 130.882712 -136.154647 
L 130.143816 -136.154647 
L 129.40492 -136.287808 
L 128.666024 -137.580219 
L 127.927128 -139.813125 
L 127.188232 -139.98222 
L 126.449336 -140.120407 
L 125.71044 -141.806774 
L 124.971544 -141.806774 
L 124.232648 -141.806774 
L 123.493752 -141.98837 
L 122.754856 -142.029956 
L 122.01596 -142.221251 
L 121.277064 -142.221251 
L 120.538168 -142.221251 
L 119.799272 -142.221251 
L 119.060376 -142.221251 
L 118.32148 -142.757122 
L 117.582584 -142.757122 
L 116.843688 -142.757122 
L 116.104792 -142.757122 
L 115.365896 -144.543404 
L 114.627 -144.543404 
L 113.888104 -145.252236 
L 113.149208 -145.252236 
L 112.410312 -145.252236 
L 111.671416 -145.252236 
L 110.93252 -145.252236 
L 110.193624 -149.988839 
L 109.454728 -149.988839 
L 108.715832 -149.988839 
L 107.976936 -149.988839 
L 107.23804 -150.260734 
L 106.499144 -153.076427 
L 105.760248 -155.01568 
L 105.021352 -155.277472 
L 104.282456 -155.277472 
L 103.54356 -155.627541 
L 102.804664 -155.627541 
L 102.065768 -155.627541 
L 101.326872 -155.627541 
L 100.587976 -155.627541 
L 99.84908 -155.627541 
L 99.110184 -155.627541 
L 98.371288 -155.627541 
L 97.632392 -155.627541 
L 96.893496 -155.627541 
L 96.1546 -156.31629 
L 95.415704 -156.43122 
L 94.676808 -156.43122 
L 93.937912 -156.597209 
L 93.199016 -156.597209 
L 92.46012 -156.597209 
L 91.721224 -156.928586 
L 90.982328 -156.928586 
L 90.243432 -156.928586 
L 89.504536 -157.326348 
L 88.76564 -157.326348 
L 88.026744 -157.326348 
L 87.287848 -159.598825 
L 86.548952 -166.943861 
L 85.810056 -166.943861 
L 85.07116 -166.943861 
L 84.332264 -166.943861 
L 83.593368 -168.023874 
L 82.854472 -168.023874 
L 82.115576 -172.990623 
L 81.37668 -172.990623 
L 80.637784 -173.284928 
L 79.898888 -174.328003 
L 79.159992 -175.105787 
L 78.421096 -175.333497 
L 77.6822 -175.333497 
L 76.943304 -176.838833 
L 76.204408 -180.696438 
L 75.465512 -181.366693 
L 74.726616 -184.412042 
L 73.98772 -184.412042 
L 73.248824 -184.412042 
L 72.509928 -188.008762 
L 71.771032 -190.401989 
L 71.032136 -195.693281 
L 70.29324 -195.693281 
L 69.554344 -197.380193 
L 68.815448 -199.096152 
L 68.076552 -199.096152 
L 67.337656 -204.150783 
L 66.59876 -204.106519 
L 65.859864 -204.106519 
L 65.120968 -204.355775 
L 64.382072 -208.398696 
L 63.643176 -208.398696 
L 62.90428 -209.086662 
L 62.165384 -213.805635 
L 61.426488 -214.944632 
L 60.687592 -217.540238 
L 59.948696 -221.144444 
L 59.2098 -226.612396 
L 58.470904 -228.437271 
L 57.732008 -229.680278 
L 56.993112 -229.750516 
L 56.254216 -229.750516 
L 55.51532 -229.750516 
z
"/>
    </defs>
    <g clip-path="url(#pc98ac0024f)">
     <use xlink:href="#mce5dca9632" x="0" y="246.400156" style="fill: #f4a3a8; fill-opacity: 0.35"/>
    </g>
   </g>
   <g id="matplotlib.axis_1">
    <g id="xtick_1">
     <g id="line2d_1">
      <defs>
       <path id="m1a43e11d00" d="M 0 0 
L 0 3 
" style="stroke: #000000; stroke-width: 0.7"/>
      </defs>
      <g>
       <use xlink:href="#m1a43e11d00" x="55.51532" y="215.09209" style="stroke: #000000; stroke-width: 0.7"/>
      </g>
     </g>
     <g id="text_1">
      <text style="font-size: 6.5px; font-family: 'Arial', 'Helvetica', 'DejaVu Sans', sans-serif; text-anchor: middle" x="55.51532" y="226.324268" transform="rotate(-0 55.51532 226.324268)">0.0</text>
     </g>
    </g>
    <g id="xtick_2">
     <g id="line2d_2">
      <g>
       <use xlink:href="#m1a43e11d00" x="129.40492" y="215.09209" style="stroke: #000000; stroke-width: 0.7"/>
      </g>
     </g>
     <g id="text_2">
      <text style="font-size: 6.5px; font-family: 'Arial', 'Helvetica', 'DejaVu Sans', sans-serif; text-anchor: middle" x="129.40492" y="226.324268" transform="rotate(-0 129.40492 226.324268)">0.2</text>
     </g>
    </g>
    <g id="xtick_3">
     <g id="line2d_3">
      <g>
       <use xlink:href="#m1a43e11d00" x="203.29452" y="215.09209" style="stroke: #000000; stroke-width: 0.7"/>
      </g>
     </g>
     <g id="text_3">
      <text style="font-size: 6.5px; font-family: 'Arial', 'Helvetica', 'DejaVu Sans', sans-serif; text-anchor: middle" x="203.29452" y="226.324268" transform="rotate(-0 203.29452 226.324268)">0.4</text>
     </g>
    </g>
    <g id="xtick_4">
     <g id="line2d_4">
      <g>
       <use xlink:href="#m1a43e11d00" x="277.18412" y="215.09209" style="stroke: #000000; stroke-width: 0.7"/>
      </g>
     </g>
     <g id="text_4">
      <text style="font-size: 6.5px; font-family: 'Arial', 'Helvetica', 'DejaVu Sans', sans-serif; text-anchor: middle" x="277.18412" y="226.324268" transform="rotate(-0 277.18412 226.324268)">0.6</text>
     </g>
    </g>
    <g id="xtick_5">
     <g id="line2d_5">
      <g>
       <use xlink:href="#m1a43e11d00" x="351.07372" y="215.09209" style="stroke: #000000; stroke-width: 0.7"/>
      </g>
     </g>
     <g id="text_5">
      <text style="font-size: 6.5px; font-family: 'Arial', 'Helvetica', 'DejaVu Sans', sans-serif; text-anchor: middle" x="351.07372" y="226.324268" transform="rotate(-0 351.07372 226.324268)">0.8</text>
     </g>
    </g>
    <g id="xtick_6">
     <g id="line2d_6">
      <g>
       <use xlink:href="#m1a43e11d00" x="424.96332" y="215.09209" style="stroke: #000000; stroke-width: 0.7"/>
      </g>
     </g>
     <g id="text_6">
      <text style="font-size: 6.5px; font-family: 'Arial', 'Helvetica', 'DejaVu Sans', sans-serif; text-anchor: middle" x="424.96332" y="226.324268" transform="rotate(-0 424.96332 226.324268)">1.0</text>
     </g>
    </g>
    <g id="text_7">
     <text style="font-size: 8px; font-family: 'Arial', 'Helvetica', 'DejaVu Sans', sans-serif; text-anchor: middle" x="240.23932" y="237.516406" transform="rotate(-0 240.23932 237.516406)">Normalized optimization progress</text>
    </g>
   </g>
   <g id="matplotlib.axis_2">
    <g id="ytick_1">
     <g id="line2d_7">
      <defs>
       <path id="m9237af41fa" d="M 0 0 
L -3 0 
" style="stroke: #000000; stroke-width: 0.7"/>
      </defs>
      <g>
       <use xlink:href="#m9237af41fa" x="55.51532" y="191.324889" style="stroke: #000000; stroke-width: 0.7"/>
      </g>
     </g>
     <g id="text_8">
      <text style="font-size: 6.5px; font-family: 'Arial', 'Helvetica', 'DejaVu Sans', sans-serif; text-anchor: end" x="49.01532" y="193.690978" transform="rotate(-0 49.01532 193.690978)">0.2</text>
     </g>
    </g>
    <g id="ytick_2">
     <g id="line2d_8">
      <g>
       <use xlink:href="#m9237af41fa" x="55.51532" y="147.656077" style="stroke: #000000; stroke-width: 0.7"/>
      </g>
     </g>
     <g id="text_9">
      <text style="font-size: 6.5px; font-family: 'Arial', 'Helvetica', 'DejaVu Sans', sans-serif; text-anchor: end" x="49.01532" y="150.022166" transform="rotate(-0 49.01532 150.022166)">0.4</text>
     </g>
    </g>
    <g id="ytick_3">
     <g id="line2d_9">
      <g>
       <use xlink:href="#m9237af41fa" x="55.51532" y="103.987265" style="stroke: #000000; stroke-width: 0.7"/>
      </g>
     </g>
     <g id="text_10">
      <text style="font-size: 6.5px; font-family: 'Arial', 'Helvetica', 'DejaVu Sans', sans-serif; text-anchor: end" x="49.01532" y="106.353354" transform="rotate(-0 49.01532 106.353354)">0.6</text>
     </g>
    </g>
    <g id="ytick_4">
     <g id="line2d_10">
      <g>
       <use xlink:href="#m9237af41fa" x="55.51532" y="60.318453" style="stroke: #000000; stroke-width: 0.7"/>
      </g>
     </g>
     <g id="text_11">
      <text style="font-size: 6.5px; font-family: 'Arial', 'Helvetica', 'DejaVu Sans', sans-serif; text-anchor: end" x="49.01532" y="62.684542" transform="rotate(-0 49.01532 62.684542)">0.8</text>
     </g>
    </g>
    <g id="ytick_5">
     <g id="line2d_11">
      <g>
       <use xlink:href="#m9237af41fa" x="55.51532" y="16.64964" style="stroke: #000000; stroke-width: 0.7"/>
      </g>
     </g>
     <g id="text_12">
      <text style="font-size: 6.5px; font-family: 'Arial', 'Helvetica', 'DejaVu Sans', sans-serif; text-anchor: end" x="49.01532" y="19.015729" transform="rotate(-0 49.01532 19.015729)">1.0</text>
     </g>
    </g>
   </g>
   <g id="line2d_12">
    <path d="M 55.51532 16.64964 
L 56.993112 16.64964 
L 57.732008 16.812379 
L 59.948696 16.812379 
L 60.687592 19.187799 
L 61.426488 36.582732 
L 62.165384 36.582732 
L 62.90428 47.391307 
L 64.382072 47.391307 
L 65.120968 48.300128 
L 71.032136 48.300128 
L 72.509928 62.004378 
L 74.726616 62.004378 
L 76.204408 62.292719 
L 76.943304 70.007929 
L 77.6822 73.018601 
L 82.115576 73.018601 
L 82.854472 82.560853 
L 83.593368 82.560853 
L 84.332264 83.662679 
L 86.548952 83.662679 
L 87.287848 88.667332 
L 89.504536 88.667332 
L 90.243432 89.462857 
L 91.721224 89.462857 
L 92.46012 87.771204 
L 103.54356 87.771204 
L 104.282456 88.471343 
L 106.499144 88.471343 
L 107.23804 90.94784 
L 107.976936 90.94784 
L 108.715832 91.866687 
L 116.843688 91.866687 
L 117.582584 94.372975 
L 118.32148 95.741912 
L 120.538168 95.741912 
L 121.277064 96.336904 
L 122.01596 100.20691 
L 126.449336 100.20691 
L 127.188232 100.460326 
L 129.40492 100.460326 
L 130.143816 101.060725 
L 138.271672 101.060725 
L 139.010568 102.008176 
L 144.921736 102.008176 
L 145.660632 102.72993 
L 148.616216 102.72993 
L 149.355112 104.572445 
L 150.094008 105.150156 
L 150.832904 105.150156 
L 151.5718 108.059137 
L 153.788488 108.059137 
L 154.527384 109.792859 
L 155.26628 109.792859 
L 156.005176 112.314865 
L 156.744072 112.314865 
L 157.482968 115.901675 
L 166.34972 115.901675 
L 167.088616 120.69543 
L 171.521992 120.69543 
L 172.260888 120.573071 
L 178.172056 120.573071 
L 179.649848 120.848946 
L 185.561016 120.848946 
L 186.299912 121.805166 
L 187.777704 121.805166 
L 188.5166 121.300448 
L 189.255496 122.728151 
L 196.644456 122.770302 
L 197.383352 123.392182 
L 209.205688 123.392182 
L 209.944584 126.153165 
L 236.54484 126.153165 
L 237.283736 127.451141 
L 242.456008 127.451141 
L 243.194904 128.005319 
L 251.32276 128.005319 
L 252.061656 128.596807 
L 252.800552 128.596807 
L 253.539448 131.615253 
L 257.233928 131.615253 
L 257.972824 132.650563 
L 259.450616 132.650563 
L 260.189512 133.291704 
L 281.617496 133.291704 
L 282.356392 133.799027 
L 288.26756 133.799027 
L 289.006456 134.509335 
L 289.745352 134.509335 
L 290.484248 136.837355 
L 312.651128 136.852072 
L 313.390024 137.129706 
L 323.734568 137.129706 
L 324.473464 137.50472 
L 372.501704 137.424106 
L 373.2406 137.678162 
L 375.457288 137.678162 
L 376.196184 138.122681 
L 424.96332 138.117756 
L 424.96332 138.117756 
" clip-path="url(#pc98ac0024f)" style="fill: none; stroke: #b8b8b8; stroke-opacity: 0.28; stroke-width: 0.75; stroke-linecap: square"/>
   </g>
   <g id="line2d_13">
    <path d="M 55.51532 16.64964 
L 56.254216 16.64964 
L 56.993112 17.911973 
L 57.732008 28.127815 
L 58.470904 35.816893 
L 59.2098 48.229363 
L 59.948696 49.389261 
L 60.687592 52.328337 
L 63.643176 52.328337 
L 64.382072 52.925178 
L 65.120968 58.947022 
L 65.859864 58.947022 
L 66.59876 59.125968 
L 70.29324 59.125968 
L 71.032136 65.892012 
L 72.509928 65.892012 
L 73.248824 66.808445 
L 73.98772 66.808445 
L 74.726616 67.933323 
L 75.465512 67.933323 
L 76.204408 69.114718 
L 78.421096 69.114718 
L 79.159992 69.570138 
L 79.898888 71.125706 
L 80.637784 76.308881 
L 81.37668 82.49499 
L 82.115576 82.49499 
L 82.854472 87.463692 
L 83.593368 89.480285 
L 91.721224 89.480285 
L 92.46012 91.834691 
L 93.937912 91.834691 
L 94.676808 92.166668 
L 95.415704 92.166668 
L 96.1546 92.396528 
L 96.893496 93.774026 
L 105.021352 93.774026 
L 105.760248 94.29761 
L 107.23804 94.207148 
L 107.976936 94.750938 
L 116.104792 94.750938 
L 116.843688 95.404679 
L 117.582584 95.56598 
L 127.927128 95.56598 
L 128.666024 96.182071 
L 129.40492 106.274769 
L 132.360504 106.274769 
L 133.0994 112.108797 
L 136.054984 112.108797 
L 136.79388 112.371219 
L 139.010568 112.371219 
L 139.749464 112.524475 
L 141.227256 112.524475 
L 141.966152 116.296136 
L 150.094008 116.296136 
L 150.832904 116.155269 
L 153.788488 116.155269 
L 154.527384 116.503278 
L 155.26628 116.503278 
L 156.005176 117.596604 
L 157.482968 117.50581 
L 158.221864 117.852025 
L 162.65524 117.852025 
L 163.394136 118.167588 
L 166.34972 118.167588 
L 167.088616 119.145804 
L 167.827512 119.473424 
L 169.305304 119.473424 
L 170.0442 118.330757 
L 177.43316 118.330757 
L 178.910952 120.413209 
L 179.649848 120.413209 
L 180.388744 121.509756 
L 181.12764 121.921231 
L 183.344328 121.921231 
L 184.083224 124.100097 
L 185.561016 124.100097 
L 186.299912 124.783633 
L 195.166664 124.774315 
L 200.338936 124.859115 
L 201.077832 125.105097 
L 204.033416 125.105097 
L 204.772312 126.98032 
L 208.466792 126.98032 
L 209.205688 128.241514 
L 238.022632 128.241514 
L 238.761528 129.311279 
L 239.500424 130.008172 
L 244.672696 130.008172 
L 245.411592 130.252442 
L 255.756136 130.252442 
L 256.495032 130.44088 
L 262.4062 130.44088 
L 263.145096 130.802704 
L 277.18412 130.802704 
L 277.923016 130.9458 
L 279.400808 130.9458 
L 280.139704 132.971304 
L 284.57308 132.971304 
L 285.311976 133.547979 
L 288.26756 133.547979 
L 289.006456 133.679273 
L 291.96204 133.679273 
L 292.700936 134.072697 
L 304.523272 134.072697 
L 305.262168 134.501696 
L 320.040088 134.540541 
L 320.778984 134.100777 
L 327.429048 134.100777 
L 328.167944 134.5462 
L 336.2958 134.5462 
L 337.034696 136.243474 
L 367.329432 136.345058 
L 368.068328 136.79941 
L 368.807224 137.842595 
L 373.2406 137.842595 
L 373.979496 138.782913 
L 413.87988 138.888562 
L 415.357672 138.995166 
L 424.96332 138.995166 
L 424.96332 138.995166 
" clip-path="url(#pc98ac0024f)" style="fill: none; stroke: #b8b8b8; stroke-opacity: 0.28; stroke-width: 0.75; stroke-linecap: square"/>
   </g>
   <g id="line2d_14">
    <path d="M 55.51532 16.64964 
L 56.254216 16.64964 
L 56.993112 17.382142 
L 57.732008 17.382142 
L 58.470904 27.756758 
L 59.2098 27.756758 
L 59.948696 29.510214 
L 60.687592 37.433808 
L 64.382072 37.433808 
L 65.120968 41.071298 
L 68.076552 41.166162 
L 68.815448 41.55773 
L 69.554344 42.928132 
L 72.509928 42.928132 
L 73.248824 50.734998 
L 74.726616 50.734998 
L 75.465512 73.513517 
L 77.6822 73.513517 
L 78.421096 73.211856 
L 80.637784 73.211856 
L 81.37668 73.800466 
L 82.115576 73.800466 
L 82.854472 74.191712 
L 83.593368 74.191712 
L 84.332264 75.24991 
L 86.548952 75.24991 
L 87.287848 84.93533 
L 89.504536 84.93533 
L 90.243432 85.456593 
L 103.54356 85.536652 
L 104.282456 86.99314 
L 124.232648 86.99314 
L 124.971544 88.678108 
L 127.927128 88.678108 
L 128.666024 90.515968 
L 130.143816 90.515968 
L 130.882712 94.885591 
L 139.010568 94.89718 
L 139.749464 95.913495 
L 146.399528 95.913495 
L 147.138424 99.595436 
L 147.87732 100.894876 
L 153.049592 100.894876 
L 153.788488 101.499534 
L 157.482968 101.499534 
L 158.221864 101.032272 
L 159.699656 101.032272 
L 160.438552 106.820493 
L 161.177448 107.280628 
L 161.916344 108.152995 
L 164.871928 108.152995 
L 165.610824 110.362301 
L 167.827512 110.362301 
L 168.566408 111.856391 
L 169.305304 111.856391 
L 170.0442 116.90886 
L 170.783096 118.244179 
L 188.5166 118.234568 
L 189.255496 119.919787 
L 194.427768 119.919787 
L 195.166664 120.361376 
L 195.90556 120.361376 
L 196.644456 119.913492 
L 221.76692 119.989797 
L 222.505816 120.18007 
L 223.983608 120.18007 
L 224.722504 120.92923 
L 230.633672 120.92923 
L 231.372568 120.755107 
L 238.022632 120.755107 
L 238.761528 122.064842 
L 240.23932 122.064842 
L 240.978216 121.945422 
L 253.539448 121.945422 
L 254.278344 123.493731 
L 262.4062 123.493731 
L 263.145096 123.842926 
L 264.622888 123.842926 
L 265.361784 124.338049 
L 268.317368 124.338049 
L 269.056264 123.921634 
L 278.661912 123.921634 
L 279.400808 124.355153 
L 303.784376 124.355153 
L 304.523272 129.308204 
L 305.262168 129.59338 
L 306.73996 129.59338 
L 307.478856 130.12304 
L 313.390024 130.12304 
L 314.12892 130.248843 
L 350.334824 130.248843 
L 351.07372 132.266409 
L 379.151768 132.357202 
L 379.890664 133.332987 
L 380.62956 133.332987 
L 381.368456 133.575219 
L 392.451896 133.575219 
L 393.190792 134.381918 
L 396.885272 134.382563 
L 397.624168 135.560444 
L 405.013128 135.560444 
L 405.752024 135.388486 
L 409.446504 135.388486 
L 410.1854 135.50712 
L 413.140984 135.50712 
L 413.87988 135.883629 
L 416.096568 135.883629 
L 416.835464 138.355886 
L 424.96332 138.355886 
L 424.96332 138.355886 
" clip-path="url(#pc98ac0024f)" style="fill: none; stroke: #b8b8b8; stroke-opacity: 0.28; stroke-width: 0.75; stroke-linecap: square"/>
   </g>
   <g id="line2d_15">
    <path d="M 55.51532 16.64964 
L 56.993112 16.64964 
L 57.732008 29.994919 
L 58.470904 29.994919 
L 59.2098 41.090426 
L 61.426488 41.090426 
L 62.165384 48.243204 
L 62.90428 48.243204 
L 63.643176 49.206319 
L 65.120968 49.304437 
L 66.59876 49.304437 
L 67.337656 56.043431 
L 68.076552 56.043431 
L 68.815448 56.199085 
L 69.554344 56.705225 
L 70.29324 56.900359 
L 71.771032 56.900359 
L 72.509928 57.729553 
L 73.248824 61.971851 
L 81.37668 61.971851 
L 82.115576 63.833809 
L 88.76564 63.833809 
L 89.504536 64.306365 
L 91.721224 64.306365 
L 92.46012 70.515858 
L 96.1546 70.515858 
L 96.893496 71.550617 
L 98.371288 71.550617 
L 99.110184 77.134657 
L 102.065768 77.134657 
L 102.804664 82.059573 
L 105.760248 82.059573 
L 106.499144 84.215292 
L 107.23804 84.215292 
L 107.976936 84.999394 
L 108.715832 84.999394 
L 109.454728 85.227016 
L 110.93252 85.227016 
L 111.671416 85.874391 
L 114.627 85.874391 
L 115.365896 91.569976 
L 117.582584 91.569976 
L 118.32148 92.802037 
L 119.060376 92.488416 
L 120.538168 92.488416 
L 121.277064 94.270328 
L 122.01596 98.641536 
L 122.754856 100.270579 
L 124.232648 100.270579 
L 124.971544 100.768544 
L 125.71044 100.768544 
L 126.449336 101.335804 
L 127.927128 101.335804 
L 128.666024 103.689948 
L 130.143816 103.689948 
L 130.882712 104.903067 
L 131.621608 106.890906 
L 132.360504 106.890906 
L 133.0994 107.734425 
L 133.838296 108.127179 
L 139.010568 108.127179 
L 139.749464 112.124093 
L 141.227256 112.124093 
L 141.966152 114.526431 
L 144.921736 114.526431 
L 145.660632 115.837021 
L 148.616216 115.825448 
L 149.355112 116.49849 
L 150.094008 118.420888 
L 158.96076 118.420888 
L 159.699656 120.431688 
L 160.438552 121.671189 
L 162.65524 121.671189 
L 163.394136 122.14609 
L 168.566408 122.14609 
L 169.305304 122.287755 
L 182.605432 122.287755 
L 183.344328 122.721407 
L 186.299912 122.721407 
L 187.038808 123.564669 
L 189.255496 123.564669 
L 189.994392 123.762937 
L 195.90556 123.762937 
L 196.644456 124.442434 
L 199.60004 124.442434 
L 200.338936 125.817439 
L 203.29452 125.877248 
L 204.033416 126.075314 
L 220.289128 126.081309 
L 221.028024 127.052797 
L 223.244712 127.052797 
L 223.983608 127.94932 
L 230.633672 127.94932 
L 231.372568 128.772269 
L 235.067048 128.772269 
L 235.805944 129.090501 
L 236.54484 132.4363 
L 244.672696 132.4363 
L 245.411592 133.248558 
L 250.583864 133.319482 
L 251.32276 132.972908 
L 255.756136 132.974985 
L 256.495032 134.040686 
L 260.928408 134.040686 
L 261.667304 134.289224 
L 266.839576 134.289224 
L 267.578472 134.529613 
L 280.139704 134.529613 
L 280.8786 134.961909 
L 281.617496 134.961909 
L 282.356392 136.957658 
L 284.57308 136.957658 
L 285.311976 139.747507 
L 286.789768 139.747507 
L 287.528664 141.531958 
L 301.567688 141.531958 
L 302.306584 144.38353 
L 314.867816 144.38353 
L 315.606712 144.624895 
L 317.8234 144.624895 
L 318.562296 147.121227 
L 339.99028 147.121227 
L 340.729176 149.454398 
L 391.713 149.558536 
L 392.451896 149.951448 
L 397.624168 149.951448 
L 398.363064 150.246742 
L 418.313256 150.183174 
L 419.052152 151.433496 
L 424.96332 151.433496 
L 424.96332 151.433496 
" clip-path="url(#pc98ac0024f)" style="fill: none; stroke: #b8b8b8; stroke-opacity: 0.28; stroke-width: 0.75; stroke-linecap: square"/>
   </g>
   <g id="line2d_16">
    <path d="M 55.51532 16.64964 
L 56.993112 16.64964 
L 57.732008 50.927385 
L 59.2098 50.927385 
L 59.948696 58.839737 
L 60.687592 62.70837 
L 62.165384 62.70837 
L 62.90428 64.746139 
L 64.382072 64.746139 
L 65.120968 71.040338 
L 65.859864 72.855423 
L 66.59876 80.11335 
L 67.337656 85.366234 
L 68.076552 85.366234 
L 68.815448 93.965801 
L 70.29324 93.965801 
L 71.032136 95.938494 
L 72.509928 95.938494 
L 73.248824 99.737875 
L 73.98772 99.737875 
L 74.726616 102.776383 
L 76.204408 102.776383 
L 76.943304 103.281087 
L 79.898888 103.281087 
L 80.637784 103.860675 
L 81.37668 103.860675 
L 82.115576 111.045569 
L 85.07116 111.045569 
L 85.810056 113.238309 
L 86.548952 113.341964 
L 87.287848 114.934686 
L 94.676808 114.934686 
L 95.415704 116.372716 
L 98.371288 116.372716 
L 99.110184 116.929508 
L 99.84908 119.049821 
L 100.587976 119.691069 
L 107.23804 119.691069 
L 107.976936 120.147547 
L 108.715832 121.68289 
L 110.193624 121.68289 
L 110.93252 123.591452 
L 111.671416 124.088529 
L 112.410312 124.088529 
L 113.149208 129.500383 
L 113.888104 129.500383 
L 114.627 130.163632 
L 119.060376 130.163632 
L 120.538168 130.450736 
L 122.754856 130.450736 
L 123.493752 130.662404 
L 125.71044 130.662404 
L 126.449336 134.626556 
L 127.188232 137.504681 
L 130.882712 137.504681 
L 131.621608 138.367777 
L 135.316088 138.367777 
L 136.79388 140.463519 
L 137.532776 140.463519 
L 138.271672 140.921902 
L 139.749464 140.921902 
L 140.48836 141.318548 
L 149.355112 141.318548 
L 150.094008 141.556158 
L 159.699656 141.616001 
L 160.438552 141.935687 
L 166.34972 141.935687 
L 167.088616 142.058928 
L 174.477576 142.058928 
L 175.216472 143.047728 
L 182.605432 143.047728 
L 183.344328 145.923622 
L 184.083224 147.204439 
L 184.82212 147.48134 
L 195.166664 147.48134 
L 195.90556 148.371286 
L 200.338936 148.371286 
L 201.077832 149.804968 
L 208.466792 149.804968 
L 209.205688 150.17953 
L 229.894776 150.17953 
L 230.633672 150.481995 
L 231.372568 151.851698 
L 245.411592 151.851698 
L 246.150488 152.303097 
L 256.495032 152.303097 
L 257.233928 153.359918 
L 263.883992 153.359918 
L 264.622888 153.921236 
L 268.317368 153.921236 
L 269.056264 154.409911 
L 279.400808 154.409911 
L 280.139704 154.708209 
L 280.8786 156.989618 
L 291.96204 156.989618 
L 292.700936 157.685363 
L 295.65652 157.685363 
L 296.395416 158.030749 
L 302.306584 158.030749 
L 303.04548 158.456005 
L 314.867816 158.456005 
L 315.606712 159.774288 
L 323.734568 159.774288 
L 324.473464 159.899796 
L 356.245992 159.899796 
L 356.984888 160.522706 
L 357.723784 160.522706 
L 358.46268 161.275491 
L 375.457288 161.275491 
L 376.196184 164.127986 
L 393.929688 164.127986 
L 394.668584 164.413972 
L 395.40748 164.413972 
L 396.146376 164.607664 
L 397.624168 164.607664 
L 398.363064 164.295184 
L 402.79644 164.295184 
L 403.535336 165.009141 
L 420.529944 165.009141 
L 421.26884 166.637354 
L 424.96332 166.637354 
L 424.96332 166.637354 
" clip-path="url(#pc98ac0024f)" style="fill: none; stroke: #b8b8b8; stroke-opacity: 0.28; stroke-width: 0.75; stroke-linecap: square"/>
   </g>
   <g id="line2d_17">
    <path d="M 55.51532 16.64964 
L 56.254216 43.201958 
L 62.90428 43.201958 
L 63.643176 47.753273 
L 64.382072 48.046428 
L 65.859864 48.046428 
L 66.59876 48.635079 
L 67.337656 52.710557 
L 68.076552 52.710557 
L 68.815448 53.163019 
L 69.554344 56.213591 
L 70.29324 61.656696 
L 71.032136 63.356132 
L 71.771032 64.058088 
L 72.509928 69.690361 
L 73.248824 77.257787 
L 73.98772 78.12026 
L 74.726616 78.12026 
L 75.465512 79.576667 
L 76.204408 79.576667 
L 76.943304 80.877824 
L 80.637784 80.979307 
L 81.37668 98.98312 
L 82.115576 98.98312 
L 82.854472 99.560086 
L 85.07116 99.560086 
L 85.810056 99.881196 
L 86.548952 99.695898 
L 87.287848 99.944717 
L 90.982328 99.944717 
L 91.721224 102.926376 
L 92.46012 102.926376 
L 93.199016 107.878256 
L 93.937912 118.525414 
L 95.415704 118.525414 
L 96.1546 120.251508 
L 98.371288 120.251508 
L 99.110184 122.853727 
L 100.587976 122.853727 
L 101.326872 123.857069 
L 102.065768 123.857069 
L 102.804664 124.560346 
L 105.021352 124.560346 
L 105.760248 126.68557 
L 106.499144 126.68557 
L 107.23804 128.05279 
L 113.888104 128.05279 
L 114.627 130.285506 
L 115.365896 130.285506 
L 116.104792 130.817046 
L 118.32148 130.817046 
L 119.060376 132.54476 
L 119.799272 132.54476 
L 120.538168 133.682752 
L 124.232648 133.682752 
L 124.971544 139.793112 
L 127.927128 139.793112 
L 128.666024 139.345521 
L 141.227256 139.345521 
L 141.966152 140.906415 
L 144.921736 140.906415 
L 145.660632 141.387377 
L 150.094008 141.387377 
L 150.832904 142.170127 
L 158.96076 142.170127 
L 159.699656 142.872598 
L 163.394136 142.872598 
L 164.133032 144.668332 
L 182.605432 144.668332 
L 183.344328 146.276758 
L 199.60004 146.364983 
L 200.338936 146.650857 
L 212.161272 146.741471 
L 213.639064 146.820556 
L 222.505816 146.820556 
L 223.244712 147.265044 
L 231.372568 147.265044 
L 232.111464 152.354563 
L 236.54484 152.354563 
L 237.283736 152.620538 
L 257.233928 152.620538 
L 257.972824 153.346563 
L 259.450616 153.287524 
L 266.839576 153.383979 
L 268.317368 153.479121 
L 280.8786 153.479121 
L 281.617496 152.916922 
L 340.729176 152.97401 
L 341.468072 153.679832 
L 422.007736 153.573129 
L 422.746632 154.919991 
L 424.96332 154.919991 
L 424.96332 154.919991 
" clip-path="url(#pc98ac0024f)" style="fill: none; stroke: #b8b8b8; stroke-opacity: 0.28; stroke-width: 0.75; stroke-linecap: square"/>
   </g>
   <g id="line2d_18">
    <path d="M 55.51532 16.64964 
L 59.2098 16.64964 
L 59.948696 17.598137 
L 60.687592 17.598137 
L 61.426488 17.984135 
L 62.165384 17.984135 
L 62.90428 52.716245 
L 64.382072 52.756618 
L 65.120968 61.05782 
L 67.337656 61.05782 
L 68.076552 63.854745 
L 69.554344 63.854745 
L 70.29324 82.180082 
L 71.032136 88.797965 
L 73.248824 88.797965 
L 73.98772 97.332892 
L 76.204408 97.332892 
L 76.943304 102.784206 
L 79.159992 102.784206 
L 79.898888 104.337615 
L 80.637784 105.119583 
L 81.37668 105.119583 
L 82.115576 114.421595 
L 84.332264 114.421595 
L 85.07116 119.892604 
L 85.810056 120.748387 
L 87.287848 120.748387 
L 88.026744 122.230827 
L 93.199016 122.230827 
L 93.937912 122.914815 
L 96.1546 122.914815 
L 96.893496 124.199758 
L 99.110184 124.199758 
L 99.84908 124.74463 
L 103.54356 124.74463 
L 104.282456 125.351045 
L 107.976936 125.400235 
L 108.715832 127.455155 
L 110.193624 127.455155 
L 110.93252 128.036785 
L 113.149208 128.036785 
L 113.888104 128.235746 
L 116.104792 128.453777 
L 116.843688 129.226122 
L 117.582584 129.226122 
L 118.32148 129.435489 
L 122.01596 129.435489 
L 122.754856 133.918324 
L 123.493752 134.83989 
L 132.360504 134.83989 
L 133.0994 135.871288 
L 133.838296 135.871288 
L 134.577192 136.053731 
L 139.010568 136.053731 
L 139.749464 136.905735 
L 141.966152 136.905735 
L 142.705048 138.903467 
L 144.18284 138.989556 
L 144.921736 139.375235 
L 149.355112 139.375235 
L 150.094008 142.703406 
L 150.832904 143.085555 
L 159.699656 143.085555 
L 160.438552 145.023639 
L 163.394136 145.023639 
L 164.133032 145.305393 
L 164.871928 145.305393 
L 165.610824 147.291851 
L 172.999784 147.223476 
L 173.73868 148.209005 
L 174.477576 148.209005 
L 175.216472 148.765413 
L 182.605432 148.745449 
L 183.344328 148.973962 
L 189.994392 148.973962 
L 190.733288 149.978557 
L 192.21108 150.038203 
L 193.688872 150.038203 
L 194.427768 150.541238 
L 201.816728 150.640522 
L 202.555624 153.050574 
L 218.07244 153.050729 
L 218.811336 154.752134 
L 222.505816 154.752134 
L 223.244712 155.026063 
L 236.54484 155.020989 
L 237.283736 155.227217 
L 240.978216 155.227217 
L 241.717112 159.373993 
L 249.106072 159.373993 
L 249.844968 160.182147 
L 261.667304 160.182147 
L 262.4062 160.316004 
L 280.8786 160.316004 
L 281.617496 163.432704 
L 289.006456 163.432704 
L 289.745352 163.607366 
L 298.612104 163.607366 
L 299.351 164.358887 
L 309.695544 164.459817 
L 311.173336 164.536216 
L 311.912232 164.536216 
L 312.651128 164.881072 
L 328.167944 164.973361 
L 328.90684 165.180493 
L 342.945864 165.271881 
L 343.68476 165.477266 
L 408.707608 165.477266 
L 409.446504 166.280612 
L 424.96332 166.280612 
L 424.96332 166.280612 
" clip-path="url(#pc98ac0024f)" style="fill: none; stroke: #b8b8b8; stroke-opacity: 0.28; stroke-width: 0.75; stroke-linecap: square"/>
   </g>
   <g id="line2d_19">
    <path d="M 55.51532 16.64964 
L 59.2098 16.64964 
L 59.948696 31.772219 
L 60.687592 31.772219 
L 61.426488 32.673148 
L 64.382072 32.673148 
L 65.120968 37.558312 
L 65.859864 37.558312 
L 66.59876 39.948038 
L 70.29324 39.948038 
L 71.032136 40.576706 
L 71.771032 40.576706 
L 72.509928 40.342906 
L 75.465512 40.342906 
L 76.204408 47.035505 
L 76.943304 47.035505 
L 77.6822 48.573725 
L 79.898888 48.573725 
L 80.637784 55.323685 
L 82.115576 55.323685 
L 82.854472 55.845964 
L 83.593368 55.845964 
L 84.332264 59.228189 
L 89.504536 59.228189 
L 90.243432 59.719243 
L 92.46012 59.719243 
L 93.199016 61.897833 
L 97.632392 61.897833 
L 98.371288 62.546606 
L 99.84908 62.546606 
L 100.587976 63.917725 
L 104.282456 63.917725 
L 105.021352 64.307047 
L 105.760248 64.307047 
L 106.499144 64.83136 
L 107.23804 98.071695 
L 113.888104 98.071695 
L 114.627 99.489359 
L 115.365896 99.489359 
L 116.104792 99.941187 
L 118.32148 99.941187 
L 119.060376 101.012929 
L 123.493752 101.096101 
L 124.232648 101.459292 
L 126.449336 101.459292 
L 127.188232 101.64273 
L 136.79388 101.64273 
L 137.532776 101.955124 
L 140.48836 101.955124 
L 141.227256 105.377703 
L 141.966152 105.377703 
L 142.705048 124.648605 
L 150.832904 124.648605 
L 151.5718 127.356266 
L 153.788488 127.356266 
L 154.527384 127.651021 
L 158.96076 127.651021 
L 159.699656 143.66279 
L 160.438552 143.66279 
L 161.177448 151.415866 
L 161.916344 151.415866 
L 162.65524 166.241594 
L 163.394136 166.241594 
L 164.133032 168.716738 
L 164.871928 169.643446 
L 169.305304 169.643446 
L 170.0442 170.012359 
L 181.12764 169.969314 
L 181.866536 170.954528 
L 185.561016 170.969945 
L 186.299912 171.224672 
L 187.777704 171.224672 
L 188.5166 171.505476 
L 189.994392 171.419175 
L 190.733288 171.419175 
L 191.472184 171.989864 
L 195.90556 171.989864 
L 196.644456 174.827564 
L 197.383352 175.870062 
L 206.250104 175.910774 
L 206.989 177.693458 
L 209.944584 177.693458 
L 210.68348 178.183791 
L 211.422376 178.40934 
L 212.161272 180.544909 
L 213.639064 180.544909 
L 215.116856 180.835909 
L 215.855752 180.835909 
L 216.594648 181.145649 
L 217.333544 181.315696 
L 219.550232 181.315696 
L 220.289128 181.638037 
L 224.722504 181.638037 
L 225.4614 182.682768 
L 268.317368 182.79259 
L 269.79516 182.901289 
L 273.48964 182.901289 
L 274.228536 183.542836 
L 275.706328 183.653356 
L 306.001064 183.698856 
L 306.73996 183.853827 
L 309.695544 183.905448 
L 310.43444 184.367563 
L 333.340216 184.367563 
L 334.079112 184.52884 
L 390.235208 184.534757 
L 390.974104 184.667726 
L 417.57436 184.662056 
L 418.313256 184.873666 
L 424.96332 184.873666 
L 424.96332 184.873666 
" clip-path="url(#pc98ac0024f)" style="fill: none; stroke: #b8b8b8; stroke-opacity: 0.28; stroke-width: 0.75; stroke-linecap: square"/>
   </g>
   <g id="line2d_20">
    <path d="M 55.51532 16.64964 
L 56.254216 31.357576 
L 59.948696 31.357576 
L 60.687592 37.709354 
L 61.426488 37.709354 
L 62.165384 42.014066 
L 62.90428 54.611611 
L 63.643176 65.087979 
L 64.382072 65.087979 
L 65.120968 68.957436 
L 66.59876 68.957436 
L 67.337656 71.704698 
L 68.076552 94.078346 
L 68.815448 96.079432 
L 69.554344 97.293026 
L 78.421096 97.293026 
L 79.898888 100.343393 
L 83.593368 100.343393 
L 84.332264 105.678237 
L 85.07116 113.808823 
L 85.810056 113.808823 
L 86.548952 114.765476 
L 88.76564 114.765476 
L 89.504536 116.966391 
L 90.982328 116.966391 
L 91.721224 123.818621 
L 92.46012 124.59459 
L 93.199016 124.59459 
L 93.937912 129.549981 
L 99.84908 129.549981 
L 100.587976 129.808499 
L 101.326872 129.808499 
L 102.065768 132.140022 
L 102.804664 133.469585 
L 108.715832 133.469585 
L 109.454728 134.486587 
L 110.193624 134.486587 
L 110.93252 135.445008 
L 117.582584 135.445008 
L 118.32148 136.024283 
L 120.538168 136.024283 
L 121.277064 136.25927 
L 123.493752 136.25927 
L 124.232648 137.062062 
L 125.71044 137.062062 
L 126.449336 138.569039 
L 128.666024 138.569039 
L 129.40492 139.20473 
L 138.271672 139.20473 
L 139.010568 141.08949 
L 142.705048 141.08949 
L 143.443944 143.078312 
L 147.138424 143.078312 
L 147.87732 144.391966 
L 149.355112 144.301881 
L 150.094008 144.58956 
L 157.482968 144.58956 
L 158.221864 145.768305 
L 161.177448 145.768305 
L 161.916344 147.272455 
L 169.305304 147.272455 
L 170.0442 147.59321 
L 182.605432 147.59321 
L 183.344328 148.06933 
L 185.561016 148.06933 
L 186.299912 149.097555 
L 187.777704 149.097555 
L 188.5166 149.788734 
L 191.472184 149.802012 
L 192.21108 150.161384 
L 200.338936 150.161384 
L 201.077832 150.28321 
L 215.116856 150.28321 
L 215.855752 151.497 
L 229.15588 151.497 
L 229.894776 152.222494 
L 240.978216 152.222494 
L 241.717112 153.375495 
L 292.700936 153.379064 
L 293.439832 153.787454 
L 318.562296 153.787454 
L 320.040088 154.149317 
L 348.857032 154.149317 
L 349.595928 154.285309 
L 424.96332 154.213012 
L 424.96332 154.213012 
" clip-path="url(#pc98ac0024f)" style="fill: none; stroke: #b8b8b8; stroke-opacity: 0.28; stroke-width: 0.75; stroke-linecap: square"/>
   </g>
   <g id="line2d_21">
    <path d="M 55.51532 16.64964 
L 56.254216 20.797544 
L 56.993112 20.797544 
L 58.470904 41.72443 
L 61.426488 41.72443 
L 62.90428 56.462567 
L 63.643176 56.462567 
L 64.382072 57.805985 
L 66.59876 57.805985 
L 67.337656 60.261568 
L 68.076552 82.375662 
L 68.815448 82.375662 
L 69.554344 88.535951 
L 70.29324 89.310916 
L 71.032136 89.310916 
L 71.771032 92.338128 
L 72.509928 92.338128 
L 73.248824 92.717191 
L 73.98772 96.361766 
L 81.37668 96.361766 
L 82.115576 96.583657 
L 82.854472 97.373359 
L 83.593368 97.596535 
L 87.287848 97.596535 
L 88.026744 98.693646 
L 93.937912 98.693646 
L 94.676808 99.685904 
L 99.110184 99.685904 
L 99.84908 100.033013 
L 102.804664 100.033013 
L 103.54356 106.80345 
L 105.021352 106.80345 
L 105.760248 112.188065 
L 107.976936 112.188065 
L 108.715832 112.353773 
L 109.454728 113.534165 
L 110.193624 113.534165 
L 110.93252 112.895103 
L 111.671416 114.375966 
L 112.410312 114.375966 
L 113.149208 114.860936 
L 122.754856 114.860936 
L 123.493752 117.604906 
L 137.532776 117.604906 
L 138.271672 119.273697 
L 139.010568 119.491902 
L 139.749464 121.905605 
L 140.48836 121.905605 
L 141.227256 122.857155 
L 147.138424 122.857155 
L 148.616216 125.773141 
L 153.049592 125.773141 
L 153.788488 126.454402 
L 158.221864 126.454402 
L 158.96076 127.780259 
L 172.260888 127.780259 
L 172.999784 127.656064 
L 173.73868 128.158142 
L 189.994392 128.158142 
L 190.733288 128.672887 
L 198.122248 128.672887 
L 198.861144 129.771427 
L 199.60004 131.67922 
L 200.338936 131.932076 
L 206.250104 131.932076 
L 206.989 132.352463 
L 212.900168 132.352463 
L 213.639064 132.130933 
L 221.028024 132.130933 
L 221.76692 132.94314 
L 232.85036 132.94314 
L 233.589256 134.117748 
L 241.717112 134.117748 
L 243.194904 135.415224 
L 248.367176 135.415224 
L 249.106072 137.175007 
L 252.800552 137.175007 
L 253.539448 137.481889 
L 260.928408 137.568437 
L 261.667304 137.97418 
L 265.361784 137.97418 
L 266.10068 138.61901 
L 269.056264 138.61901 
L 269.79516 138.860961 
L 275.706328 138.860961 
L 276.445224 139.34297 
L 297.134312 139.34297 
L 297.873208 139.56324 
L 298.612104 139.56324 
L 299.351 140.337575 
L 305.262168 140.337575 
L 306.001064 141.258457 
L 306.73996 141.248324 
L 307.478856 141.785738 
L 311.912232 141.785738 
L 312.651128 142.875698 
L 313.390024 143.018896 
L 314.12892 143.630403 
L 325.21236 143.630403 
L 325.951256 144.609239 
L 326.690152 145.071783 
L 328.90684 145.071783 
L 329.645736 145.230417 
L 333.340216 145.230417 
L 334.079112 145.984346 
L 339.251384 146.053698 
L 339.99028 146.324596 
L 342.206968 146.324596 
L 342.945864 146.539741 
L 374.718392 146.539741 
L 375.457288 146.964393 
L 380.62956 146.964393 
L 381.368456 148.671542 
L 384.32404 148.671542 
L 385.062936 149.099551 
L 390.974104 149.099551 
L 391.713 149.366046 
L 393.190792 149.366046 
L 393.929688 149.212652 
L 417.57436 149.212652 
L 418.313256 149.398851 
L 424.96332 149.398851 
L 424.96332 149.398851 
" clip-path="url(#pc98ac0024f)" style="fill: none; stroke: #b8b8b8; stroke-opacity: 0.28; stroke-width: 0.75; stroke-linecap: square"/>
   </g>
   <g id="line2d_22">
    <path d="M 55.51532 16.64964 
L 56.254216 16.790115 
L 57.732008 16.790115 
L 58.470904 19.113392 
L 59.2098 19.113392 
L 59.948696 38.471132 
L 65.859864 38.569113 
L 66.59876 39.074988 
L 67.337656 39.074988 
L 68.815448 119.661991 
L 69.554344 123.823822 
L 71.032136 123.823822 
L 71.771032 127.40636 
L 74.726616 127.40636 
L 75.465512 127.798891 
L 76.204408 127.798891 
L 76.943304 129.322511 
L 78.421096 129.322511 
L 79.159992 138.66762 
L 79.898888 140.171796 
L 84.332264 140.171796 
L 85.07116 142.316316 
L 85.810056 143.123915 
L 86.548952 143.123915 
L 87.287848 143.418777 
L 88.026744 144.578692 
L 88.76564 144.578692 
L 89.504536 146.623483 
L 90.982328 146.623483 
L 91.721224 147.026562 
L 92.46012 147.026562 
L 93.199016 147.177023 
L 98.371288 147.177023 
L 99.110184 147.769288 
L 102.065768 147.769288 
L 102.804664 147.890786 
L 106.499144 147.890786 
L 107.976936 150.575507 
L 109.454728 150.575507 
L 110.193624 151.696194 
L 113.888104 151.694612 
L 114.627 153.453496 
L 116.843688 153.453496 
L 117.582584 154.054956 
L 120.538168 154.054956 
L 121.277064 154.811426 
L 122.01596 154.811426 
L 122.754856 155.282357 
L 123.493752 155.282357 
L 124.232648 157.229731 
L 134.577192 157.26947 
L 135.316088 157.419912 
L 136.054984 159.028007 
L 136.79388 162.789331 
L 137.532776 164.363753 
L 143.443944 164.325785 
L 144.18284 164.708912 
L 144.921736 165.564424 
L 146.399528 165.564424 
L 147.138424 168.354022 
L 147.87732 168.354022 
L 148.616216 168.622234 
L 154.527384 168.622234 
L 155.26628 170.748378 
L 158.221864 170.748378 
L 158.96076 171.107316 
L 160.438552 171.107316 
L 161.177448 172.029551 
L 163.394136 172.029551 
L 166.34972 172.480953 
L 168.566408 172.480953 
L 170.0442 173.084239 
L 171.521992 173.16374 
L 175.216472 173.16374 
L 175.955368 173.48804 
L 176.694264 177.913029 
L 177.43316 178.597257 
L 178.172056 178.859654 
L 178.910952 178.859654 
L 179.649848 179.322188 
L 180.388744 180.003404 
L 182.605432 180.003404 
L 183.344328 180.304587 
L 187.777704 180.304587 
L 188.5166 185.488442 
L 192.21108 185.488442 
L 192.949976 190.69217 
L 196.644456 190.71498 
L 197.383352 190.827658 
L 199.60004 190.827658 
L 200.338936 191.469379 
L 203.29452 191.469379 
L 204.033416 192.097306 
L 209.205688 192.097306 
L 209.944584 192.676158 
L 212.900168 192.676158 
L 213.639064 194.448565 
L 214.37796 194.68263 
L 228.416984 194.651076 
L 229.15588 195.280874 
L 229.894776 195.414905 
L 235.805944 195.414905 
L 236.54484 196.585994 
L 237.283736 196.585994 
L 238.022632 200.112115 
L 238.761528 200.733132 
L 240.23932 200.733132 
L 240.978216 201.904454 
L 248.367176 201.944978 
L 249.106072 202.431875 
L 255.01724 202.431875 
L 255.756136 202.569996 
L 271.272952 202.569996 
L 272.011848 202.439901 
L 272.750744 202.583751 
L 307.478856 202.670089 
L 308.217752 202.894076 
L 323.734568 202.894076 
L 324.473464 203.154865 
L 339.99028 203.154571 
L 340.729176 203.325375 
L 345.901448 203.325375 
L 346.640344 203.835902 
L 405.752024 203.892718 
L 406.49092 204.041692 
L 418.313256 204.041692 
L 419.052152 204.197419 
L 424.96332 204.197419 
L 424.96332 204.197419 
" clip-path="url(#pc98ac0024f)" style="fill: none; stroke: #b8b8b8; stroke-opacity: 0.28; stroke-width: 0.75; stroke-linecap: square"/>
   </g>
   <g id="line2d_23">
    <path d="M 55.51532 16.64964 
L 56.254216 16.64964 
L 56.993112 21.771582 
L 58.470904 21.771582 
L 59.2098 24.005706 
L 59.948696 24.005706 
L 60.687592 30.395154 
L 61.426488 30.395154 
L 62.165384 36.098276 
L 62.90428 44.158561 
L 63.643176 44.158561 
L 64.382072 46.3274 
L 65.120968 53.689604 
L 65.859864 54.134264 
L 66.59876 54.134264 
L 67.337656 55.481654 
L 68.076552 62.767341 
L 68.815448 65.758266 
L 69.554344 69.897596 
L 70.29324 69.487993 
L 71.032136 69.487993 
L 71.771032 75.825446 
L 72.509928 76.056526 
L 73.248824 80.240627 
L 73.98772 81.988024 
L 76.943304 81.988024 
L 77.6822 83.271915 
L 78.421096 83.271915 
L 79.159992 89.779918 
L 85.07116 89.779918 
L 85.810056 92.443388 
L 87.287848 92.443388 
L 88.026744 92.917749 
L 88.76564 95.55119 
L 95.415704 95.55119 
L 96.1546 97.982032 
L 97.632392 97.987166 
L 98.371288 99.121578 
L 102.065768 99.121578 
L 102.804664 99.782786 
L 103.54356 103.827155 
L 105.021352 103.827155 
L 105.760248 105.137497 
L 106.499144 111.145719 
L 107.976936 111.145719 
L 108.715832 111.844457 
L 109.454728 111.844457 
L 110.193624 112.309982 
L 124.232648 112.309982 
L 124.971544 113.51472 
L 127.188232 113.51472 
L 127.927128 113.949927 
L 129.40492 113.949927 
L 130.143816 114.216249 
L 130.882712 114.216249 
L 131.621608 114.511485 
L 144.18284 114.511485 
L 144.921736 116.173368 
L 145.660632 116.401014 
L 146.399528 121.635615 
L 147.138424 121.635615 
L 147.87732 121.939308 
L 150.094008 121.939308 
L 150.832904 123.595681 
L 151.5718 124.299703 
L 154.527384 124.299703 
L 155.26628 127.649615 
L 156.005176 127.052037 
L 164.133032 127.121264 
L 164.871928 127.516665 
L 168.566408 127.516665 
L 169.305304 128.044916 
L 178.172056 128.044916 
L 178.910952 129.676616 
L 179.649848 130.225238 
L 189.255496 130.225238 
L 189.994392 130.369576 
L 196.644456 130.369576 
L 197.383352 131.14779 
L 198.122248 131.313802 
L 202.555624 131.313802 
L 203.29452 131.626475 
L 206.989 131.626475 
L 207.727896 133.360424 
L 209.944584 133.360424 
L 210.68348 134.155137 
L 214.37796 134.155137 
L 215.116856 134.368432 
L 216.594648 134.368432 
L 217.333544 134.977848 
L 223.983608 134.977848 
L 224.722504 135.142744 
L 228.416984 135.142744 
L 229.15588 135.91507 
L 232.111464 135.91507 
L 232.85036 136.670097 
L 236.54484 136.65505 
L 237.283736 137.014547 
L 244.672696 137.116955 
L 245.411592 137.348362 
L 257.972824 137.295345 
L 258.71172 137.791137 
L 261.667304 137.791137 
L 262.4062 139.702479 
L 264.622888 139.702479 
L 265.361784 140.079351 
L 297.873208 140.156693 
L 298.612104 140.292743 
L 303.784376 140.292743 
L 304.523272 140.673221 
L 305.262168 142.247735 
L 313.390024 142.247735 
L 314.12892 142.436388 
L 339.99028 142.436388 
L 340.729176 142.297097 
L 363.634952 142.224506 
L 364.373848 143.47489 
L 367.329432 143.47489 
L 368.068328 143.765134 
L 373.2406 143.765134 
L 373.979496 144.304407 
L 396.146376 144.304407 
L 396.885272 144.948774 
L 404.274232 144.948774 
L 405.013128 145.699543 
L 411.663192 145.699543 
L 412.402088 145.817772 
L 424.96332 145.817772 
L 424.96332 145.817772 
" clip-path="url(#pc98ac0024f)" style="fill: none; stroke: #b8b8b8; stroke-opacity: 0.28; stroke-width: 0.75; stroke-linecap: square"/>
   </g>
   <g id="line2d_24">
    <path d="M 55.51532 16.64964 
L 56.254216 16.64964 
L 56.993112 20.19167 
L 57.732008 20.19167 
L 58.470904 20.820443 
L 59.2098 20.820443 
L 59.948696 21.345997 
L 60.687592 21.498311 
L 61.426488 28.692591 
L 62.90428 28.692591 
L 63.643176 31.467272 
L 65.120968 31.467272 
L 65.859864 36.881475 
L 66.59876 39.295156 
L 69.554344 39.295156 
L 70.29324 51.673951 
L 71.032136 51.673951 
L 71.771032 53.879173 
L 72.509928 54.335179 
L 74.726616 54.335179 
L 75.465512 54.927918 
L 76.204408 54.927918 
L 76.943304 58.130256 
L 77.6822 58.130256 
L 78.421096 59.061426 
L 79.159992 59.061426 
L 79.898888 63.769797 
L 82.115576 63.769797 
L 82.854472 64.490952 
L 83.593368 67.670692 
L 84.332264 67.670692 
L 85.07116 70.8584 
L 90.243432 70.8584 
L 90.982328 73.956591 
L 91.721224 73.956591 
L 92.46012 77.182324 
L 93.199016 77.182324 
L 93.937912 76.610746 
L 94.676808 77.269437 
L 95.415704 77.269437 
L 96.1546 78.40168 
L 100.587976 78.40168 
L 101.326872 78.63345 
L 105.021352 78.63345 
L 105.760248 80.735657 
L 106.499144 92.349849 
L 110.193624 92.349849 
L 110.93252 104.224145 
L 115.365896 104.224145 
L 116.104792 107.344882 
L 122.01596 107.344882 
L 122.754856 107.727472 
L 125.71044 107.727472 
L 126.449336 111.100207 
L 127.188232 111.193143 
L 127.927128 111.531334 
L 128.666024 114.794989 
L 130.143816 114.794989 
L 130.882712 115.309192 
L 134.577192 115.309192 
L 135.316088 116.143924 
L 136.054984 116.143924 
L 136.79388 116.018592 
L 149.355112 116.018592 
L 150.094008 116.792283 
L 154.527384 116.792283 
L 155.26628 117.276305 
L 161.177448 117.315639 
L 161.916344 118.574468 
L 179.649848 118.574468 
L 180.388744 119.096798 
L 184.083224 119.096798 
L 184.82212 119.360973 
L 187.038808 119.360973 
L 187.777704 120.504926 
L 189.994392 120.504926 
L 190.733288 121.150313 
L 191.472184 121.150313 
L 192.21108 121.46772 
L 200.338936 121.46772 
L 201.077832 123.294572 
L 201.816728 123.557628 
L 202.555624 124.863886 
L 218.811336 124.863886 
L 219.550232 128.76137 
L 238.022632 128.76137 
L 238.761528 129.795837 
L 252.061656 129.795837 
L 252.800552 130.589823 
L 257.233928 130.589823 
L 257.972824 132.201151 
L 274.228536 132.116644 
L 274.967432 132.718214 
L 275.706328 132.718214 
L 276.445224 132.922928 
L 278.661912 132.922928 
L 279.400808 133.29018 
L 280.139704 133.29018 
L 280.8786 132.821043 
L 300.828792 132.821043 
L 301.567688 133.528473 
L 317.084504 133.528473 
L 317.8234 134.246407 
L 318.562296 134.031211 
L 349.595928 134.031211 
L 350.334824 135.309713 
L 392.451896 135.309713 
L 393.190792 135.445236 
L 405.752024 135.445236 
L 406.49092 137.530323 
L 410.1854 137.530323 
L 411.663192 137.855527 
L 424.96332 137.855527 
L 424.96332 137.855527 
" clip-path="url(#pc98ac0024f)" style="fill: none; stroke: #b8b8b8; stroke-opacity: 0.28; stroke-width: 0.75; stroke-linecap: square"/>
   </g>
   <g id="line2d_25">
    <path d="M 55.51532 16.64964 
L 59.2098 16.64964 
L 60.687592 37.19318 
L 62.90428 37.19318 
L 63.643176 39.419521 
L 64.382072 43.017465 
L 67.337656 43.017465 
L 68.076552 46.307881 
L 68.815448 46.307881 
L 69.554344 49.739799 
L 71.032136 49.739799 
L 71.771032 59.053235 
L 72.509928 59.053235 
L 73.248824 76.708723 
L 73.98772 83.511354 
L 79.898888 83.511354 
L 80.637784 84.056026 
L 81.37668 84.056026 
L 82.115576 88.615015 
L 82.854472 90.280023 
L 85.810056 90.280023 
L 86.548952 90.896898 
L 87.287848 91.229333 
L 88.026744 91.229333 
L 88.76564 103.588468 
L 91.721224 103.588468 
L 92.46012 105.227254 
L 93.937912 105.227254 
L 94.676808 106.798981 
L 95.415704 106.798981 
L 96.1546 108.659136 
L 98.371288 108.659136 
L 99.110184 109.171133 
L 101.326872 109.171133 
L 102.065768 109.364968 
L 102.804664 110.674599 
L 104.282456 110.674599 
L 105.021352 110.808114 
L 110.193624 110.731022 
L 110.93252 114.639668 
L 116.104792 114.639668 
L 116.843688 117.128808 
L 122.754856 117.128808 
L 123.493752 124.454628 
L 124.971544 124.454628 
L 125.71044 125.019947 
L 130.143816 125.019947 
L 130.882712 126.298445 
L 131.621608 127.169142 
L 135.316088 127.169142 
L 136.054984 128.221639 
L 144.921736 128.221639 
L 145.660632 130.025915 
L 146.399528 130.025915 
L 147.138424 130.670743 
L 147.87732 131.618413 
L 148.616216 131.876856 
L 149.355112 131.876856 
L 150.094008 132.281611 
L 153.049592 132.281611 
L 153.788488 132.564761 
L 155.26628 132.564761 
L 156.005176 132.394911 
L 158.221864 132.394911 
L 158.96076 132.978771 
L 178.910952 132.978771 
L 179.649848 135.3856 
L 183.344328 135.3856 
L 184.083224 135.814662 
L 184.82212 136.681965 
L 186.299912 136.681965 
L 187.038808 137.26561 
L 192.21108 137.26561 
L 192.949976 137.7874 
L 206.250104 137.7874 
L 206.989 141.641351 
L 215.855752 141.641351 
L 216.594648 142.321361 
L 223.244712 142.321361 
L 223.983608 143.846293 
L 226.939192 143.846293 
L 227.678088 144.297593 
L 235.067048 144.297593 
L 235.805944 145.136875 
L 243.9338 145.136875 
L 244.672696 144.903821 
L 249.106072 144.903821 
L 249.844968 145.791967 
L 251.32276 145.791967 
L 252.061656 146.387348 
L 280.139704 146.432473 
L 280.8786 145.568422 
L 281.617496 145.568422 
L 282.356392 146.365051 
L 291.223144 146.365051 
L 291.96204 147.692098 
L 300.089896 147.692098 
L 300.828792 147.956727 
L 330.384632 147.956727 
L 331.123528 148.12257 
L 335.556904 148.12257 
L 336.2958 148.335982 
L 348.857032 148.39736 
L 349.595928 148.891833 
L 385.801832 148.901792 
L 387.279624 149.011533 
L 389.496312 149.011533 
L 390.235208 149.87848 
L 396.885272 149.87848 
L 397.624168 149.739923 
L 411.663192 149.739923 
L 412.402088 149.920723 
L 424.96332 149.920723 
L 424.96332 149.920723 
" clip-path="url(#pc98ac0024f)" style="fill: none; stroke: #b8b8b8; stroke-opacity: 0.28; stroke-width: 0.75; stroke-linecap: square"/>
   </g>
   <g id="line2d_26">
    <path d="M 55.51532 16.64964 
L 56.254216 25.548405 
L 56.993112 26.080152 
L 58.470904 26.080152 
L 59.2098 31.375533 
L 59.948696 31.375533 
L 60.687592 41.420635 
L 61.426488 66.21494 
L 62.90428 66.21494 
L 63.643176 91.841761 
L 64.382072 92.936962 
L 66.59876 92.936962 
L 67.337656 96.389317 
L 71.771032 96.389317 
L 72.509928 97.717093 
L 73.248824 99.43942 
L 73.98772 99.87476 
L 74.726616 99.87476 
L 75.465512 100.667457 
L 76.943304 100.667457 
L 78.421096 105.040536 
L 79.159992 106.177584 
L 79.898888 106.177584 
L 80.637784 105.766865 
L 82.854472 105.766865 
L 83.593368 106.198146 
L 84.332264 106.198146 
L 85.07116 107.85471 
L 85.810056 111.596024 
L 86.548952 113.119768 
L 87.287848 113.119768 
L 88.026744 115.401729 
L 89.504536 115.401729 
L 90.243432 116.862218 
L 91.721224 116.862218 
L 92.46012 118.016677 
L 93.199016 118.016677 
L 93.937912 122.12248 
L 96.1546 122.12248 
L 96.893496 124.23867 
L 99.110184 124.23867 
L 99.84908 124.388032 
L 102.804664 124.393714 
L 103.54356 126.919918 
L 107.23804 126.919918 
L 107.976936 127.724069 
L 111.671416 127.724069 
L 112.410312 129.291749 
L 116.104792 129.291749 
L 116.843688 129.976722 
L 117.582584 131.267369 
L 119.060376 131.267369 
L 119.799272 131.525015 
L 123.493752 131.525015 
L 124.232648 131.774162 
L 145.660632 131.774162 
L 146.399528 135.267059 
L 149.355112 135.267059 
L 150.094008 135.552139 
L 151.5718 135.552139 
L 152.310696 137.639852 
L 156.005176 137.639852 
L 156.744072 141.425542 
L 170.783096 141.503837 
L 171.521992 142.693189 
L 173.73868 142.693189 
L 174.477576 142.930971 
L 177.43316 142.930971 
L 178.172056 144.187963 
L 178.910952 144.187963 
L 179.649848 145.172693 
L 180.388744 148.590326 
L 181.12764 149.126887 
L 184.083224 149.126887 
L 184.82212 149.853407 
L 189.994392 149.853407 
L 190.733288 150.386455 
L 196.644456 150.386455 
L 198.122248 153.27206 
L 199.60004 153.27206 
L 200.338936 154.053277 
L 201.077832 155.630451 
L 208.466792 155.662774 
L 209.205688 156.258543 
L 216.594648 156.258543 
L 217.333544 159.016292 
L 218.07244 159.016292 
L 218.811336 160.622463 
L 238.022632 160.677192 
L 238.761528 161.325611 
L 244.672696 161.325611 
L 245.411592 162.260618 
L 255.756136 162.260618 
L 256.495032 163.688674 
L 257.972824 163.688674 
L 258.71172 164.163458 
L 279.400808 164.190454 
L 280.139704 164.496645 
L 303.04548 164.496645 
L 303.784376 165.084691 
L 310.43444 165.084691 
L 311.912232 165.463162 
L 314.12892 165.463162 
L 314.867816 165.007972 
L 316.345608 165.007972 
L 317.084504 165.22997 
L 321.51788 165.22997 
L 322.256776 166.964908 
L 323.734568 166.964908 
L 324.473464 168.417373 
L 346.640344 168.382197 
L 347.37924 168.262526 
L 364.373848 168.262526 
L 365.112744 169.219733 
L 382.107352 169.219733 
L 382.846248 169.492858 
L 389.496312 169.492858 
L 390.235208 170.234179 
L 424.96332 170.234179 
L 424.96332 170.234179 
" clip-path="url(#pc98ac0024f)" style="fill: none; stroke: #b8b8b8; stroke-opacity: 0.28; stroke-width: 0.75; stroke-linecap: square"/>
   </g>
   <g id="line2d_27">
    <path d="M 55.51532 16.64964 
L 57.732008 16.64964 
L 58.470904 27.324683 
L 61.426488 27.324683 
L 62.165384 27.055486 
L 62.90428 87.740014 
L 63.643176 89.509175 
L 64.382072 92.925561 
L 65.859864 92.925561 
L 66.59876 98.762301 
L 67.337656 102.160909 
L 71.032136 102.160909 
L 71.771032 128.609527 
L 75.465512 128.609527 
L 76.204408 129.14679 
L 78.421096 129.14679 
L 79.159992 134.03619 
L 79.898888 134.59496 
L 81.37668 134.59496 
L 82.115576 135.047693 
L 83.593368 135.047693 
L 84.332264 135.403009 
L 85.810056 135.403009 
L 86.548952 135.605791 
L 88.026744 135.605791 
L 88.76564 137.224083 
L 89.504536 138.217615 
L 90.243432 138.217615 
L 90.982328 143.147093 
L 94.676808 143.147093 
L 95.415704 145.010663 
L 98.371288 145.010663 
L 99.110184 147.012096 
L 99.84908 147.012096 
L 100.587976 147.721948 
L 106.499144 147.721948 
L 107.23804 148.0204 
L 109.454728 148.0204 
L 110.193624 148.419254 
L 114.627 148.419254 
L 115.365896 150.89225 
L 118.32148 150.89225 
L 119.060376 151.983629 
L 119.799272 152.282673 
L 122.754856 152.282673 
L 123.493752 152.445235 
L 124.971544 152.445235 
L 125.71044 153.932713 
L 126.449336 157.967779 
L 141.966152 157.967779 
L 142.705048 157.778605 
L 144.18284 157.778605 
L 144.921736 159.190598 
L 146.399528 159.190598 
L 147.138424 160.938822 
L 147.87732 160.938822 
L 148.616216 163.743655 
L 149.355112 164.085265 
L 153.049592 164.085265 
L 153.788488 164.35915 
L 154.527384 164.35915 
L 155.26628 164.720995 
L 156.005176 165.55317 
L 156.744072 165.55317 
L 157.482968 165.682846 
L 158.96076 165.682846 
L 159.699656 166.565831 
L 172.260888 166.565831 
L 172.999784 166.853967 
L 174.477576 166.938236 
L 175.216472 166.938236 
L 175.955368 171.238097 
L 179.649848 171.263279 
L 180.388744 172.584602 
L 183.344328 172.584602 
L 184.083224 172.929109 
L 189.994392 173.037602 
L 190.733288 173.361572 
L 198.122248 173.361572 
L 198.861144 173.967808 
L 212.900168 173.967808 
L 213.639064 174.924805 
L 214.37796 174.892101 
L 215.116856 175.967038 
L 223.244712 175.908771 
L 223.983608 176.365741 
L 235.805944 176.365741 
L 236.54484 176.844287 
L 238.022632 176.844287 
L 238.761528 177.271552 
L 240.978216 177.271552 
L 241.717112 177.39953 
L 244.672696 177.39953 
L 245.411592 177.632249 
L 252.800552 177.706009 
L 253.539448 176.647318 
L 261.667304 176.647318 
L 262.4062 176.524681 
L 263.145096 177.490653 
L 270.534056 177.556256 
L 271.272952 178.045895 
L 276.445224 178.045895 
L 277.18412 178.694278 
L 277.923016 178.694278 
L 278.661912 179.268601 
L 293.439832 179.268797 
L 294.178728 179.583483 
L 299.351 179.583483 
L 300.089896 179.736499 
L 315.606712 179.736499 
L 316.345608 180.217844 
L 352.551512 180.186162 
L 353.290408 190.5449 
L 354.029304 191.055755 
L 366.590536 191.097628 
L 368.807224 191.596512 
L 374.718392 191.596512 
L 375.457288 192.344183 
L 387.279624 192.344183 
L 388.01852 192.697592 
L 424.96332 192.799424 
L 424.96332 192.799424 
" clip-path="url(#pc98ac0024f)" style="fill: none; stroke: #b8b8b8; stroke-opacity: 0.28; stroke-width: 0.75; stroke-linecap: square"/>
   </g>
   <g id="line2d_28">
    <path d="M 55.51532 16.64964 
L 58.470904 16.64964 
L 59.2098 27.422315 
L 59.948696 27.422315 
L 60.687592 50.077949 
L 61.426488 50.077949 
L 62.165384 55.158696 
L 62.90428 55.158696 
L 63.643176 55.463516 
L 64.382072 60.800399 
L 65.120968 68.84018 
L 66.59876 68.84018 
L 67.337656 80.576384 
L 68.076552 109.902569 
L 69.554344 109.902569 
L 70.29324 111.35786 
L 73.98772 111.35786 
L 74.726616 119.619466 
L 77.6822 119.730324 
L 78.421096 124.10458 
L 87.287848 124.10458 
L 88.76564 126.577998 
L 90.982328 126.577998 
L 91.721224 127.939594 
L 92.46012 130.177499 
L 93.199016 130.177499 
L 93.937912 131.566615 
L 97.632392 131.566615 
L 98.371288 135.350709 
L 100.587976 135.350709 
L 101.326872 147.995514 
L 102.065768 149.783507 
L 105.021352 149.783507 
L 105.760248 149.968428 
L 106.499144 150.410936 
L 107.23804 150.410936 
L 107.976936 152.300633 
L 110.193624 152.300633 
L 110.93252 153.380529 
L 113.149208 153.338434 
L 113.888104 153.951601 
L 116.104792 153.899284 
L 116.843688 154.032767 
L 122.01596 154.032767 
L 122.754856 155.801708 
L 123.493752 157.243431 
L 128.666024 157.243431 
L 129.40492 160.189697 
L 133.838296 160.274397 
L 134.577192 162.700044 
L 136.79388 162.700044 
L 137.532776 164.478006 
L 140.48836 164.478006 
L 141.227256 165.335625 
L 160.438552 165.335625 
L 161.177448 165.728707 
L 167.088616 165.728707 
L 167.827512 172.067531 
L 173.73868 172.067531 
L 174.477576 174.244592 
L 175.955368 174.244592 
L 176.694264 177.822354 
L 178.910952 177.822354 
L 179.649848 178.4821 
L 181.12764 178.4821 
L 181.866536 177.868553 
L 185.561016 177.868553 
L 186.299912 178.830592 
L 199.60004 178.830592 
L 200.338936 179.651235 
L 212.161272 179.651235 
L 212.900168 180.092656 
L 218.811336 180.092656 
L 219.550232 180.413828 
L 225.4614 180.413828 
L 226.200296 187.20413 
L 227.678088 187.20413 
L 228.416984 183.810511 
L 230.633672 183.810511 
L 231.372568 184.206373 
L 246.889384 184.206373 
L 247.62828 185.119756 
L 249.106072 185.119756 
L 249.844968 185.39881 
L 265.361784 185.39881 
L 266.10068 185.855761 
L 266.839576 186.03314 
L 267.578472 186.03314 
L 268.317368 186.952489 
L 269.79516 187.045217 
L 274.967432 187.045217 
L 275.706328 187.622261 
L 280.139704 187.622261 
L 280.8786 187.761681 
L 282.356392 187.761681 
L 283.095288 187.603487 
L 317.084504 187.642111 
L 318.562296 187.734341 
L 344.423656 187.631086 
L 345.162552 187.328949 
L 346.640344 187.328949 
L 347.37924 188.026726 
L 389.496312 188.101484 
L 390.235208 188.279539 
L 397.624168 188.279539 
L 398.363064 189.225472 
L 419.052152 189.225472 
L 419.791048 190.987712 
L 424.96332 190.987712 
L 424.96332 190.987712 
" clip-path="url(#pc98ac0024f)" style="fill: none; stroke: #b8b8b8; stroke-opacity: 0.28; stroke-width: 0.75; stroke-linecap: square"/>
   </g>
   <g id="line2d_29">
    <path d="M 55.51532 16.64964 
L 56.254216 16.64964 
L 56.993112 18.486396 
L 57.732008 23.20327 
L 60.687592 23.20327 
L 61.426488 23.478557 
L 62.165384 23.478557 
L 62.90428 24.56153 
L 64.382072 24.56153 
L 65.120968 66.574342 
L 65.859864 68.264876 
L 68.076552 68.264876 
L 68.815448 69.616465 
L 72.509928 69.616465 
L 73.248824 71.262576 
L 74.726616 71.262576 
L 76.204408 73.518013 
L 80.637784 73.532542 
L 81.37668 83.661201 
L 82.115576 83.661201 
L 82.854472 86.238783 
L 83.593368 104.400165 
L 84.332264 104.400165 
L 85.07116 110.108798 
L 85.810056 110.108798 
L 86.548952 115.445689 
L 88.026744 115.445689 
L 88.76564 124.69597 
L 89.504536 124.69597 
L 90.243432 125.56198 
L 93.199016 125.56198 
L 93.937912 126.57202 
L 94.676808 128.472485 
L 95.415704 128.472485 
L 96.1546 129.950998 
L 99.110184 129.950998 
L 99.84908 133.799922 
L 105.760248 133.799922 
L 106.499144 136.017306 
L 107.23804 136.017306 
L 107.976936 137.105565 
L 110.93252 137.105565 
L 111.671416 137.409291 
L 112.410312 137.409291 
L 113.149208 139.826331 
L 115.365896 139.826331 
L 116.104792 140.479746 
L 117.582584 140.479746 
L 118.32148 142.720608 
L 125.71044 142.720608 
L 126.449336 144.205461 
L 130.882712 144.205461 
L 131.621608 150.12514 
L 132.360504 150.12514 
L 133.0994 150.491167 
L 141.227256 150.491167 
L 141.966152 150.892274 
L 144.921736 150.892274 
L 145.660632 151.187595 
L 153.788488 151.187595 
L 154.527384 151.624032 
L 158.221864 151.624032 
L 158.96076 152.07969 
L 163.394136 152.07969 
L 164.133032 152.599618 
L 167.827512 152.654395 
L 168.566408 153.05884 
L 178.172056 153.135596 
L 178.910952 155.694422 
L 200.338936 155.694422 
L 201.077832 156.516073 
L 204.772312 156.516073 
L 205.511208 158.560474 
L 210.68348 158.560474 
L 211.422376 161.050031 
L 215.116856 161.050031 
L 215.855752 162.397763 
L 221.028024 162.397763 
L 221.76692 161.907203 
L 222.505816 162.865661 
L 228.416984 162.865661 
L 229.15588 163.005898 
L 232.111464 163.005898 
L 232.85036 164.34043 
L 235.805944 164.34043 
L 236.54484 163.814056 
L 243.9338 163.814056 
L 244.672696 163.283029 
L 268.317368 163.283029 
L 269.056264 164.45563 
L 289.745352 164.45563 
L 290.484248 165.406557 
L 305.262168 165.393798 
L 306.001064 166.231631 
L 314.867816 166.231631 
L 315.606712 166.361122 
L 323.734568 166.279393 
L 324.473464 166.712933 
L 333.340216 166.712933 
L 334.079112 167.520731 
L 335.556904 167.520731 
L 336.2958 172.099702 
L 337.034696 172.099702 
L 337.773592 173.976464 
L 347.37924 173.976464 
L 348.118136 174.091849 
L 349.595928 174.091849 
L 350.334824 173.271481 
L 354.7682 173.271481 
L 355.507096 173.024306 
L 365.112744 173.024306 
L 365.85164 173.750682 
L 370.285016 173.750682 
L 371.023912 174.140445 
L 379.890664 174.140445 
L 380.62956 175.032609 
L 414.618776 175.032609 
L 415.357672 174.595224 
L 420.529944 174.595224 
L 421.26884 175.488121 
L 424.96332 175.488121 
L 424.96332 175.488121 
" clip-path="url(#pc98ac0024f)" style="fill: none; stroke: #b8b8b8; stroke-opacity: 0.28; stroke-width: 0.75; stroke-linecap: square"/>
   </g>
   <g id="line2d_30">
    <path d="M 55.51532 16.64964 
L 56.254216 16.64964 
L 56.993112 17.119716 
L 57.732008 17.119716 
L 58.470904 20.462129 
L 59.2098 20.462129 
L 59.948696 31.743761 
L 60.687592 31.743761 
L 61.426488 32.515894 
L 62.165384 32.515894 
L 62.90428 34.425235 
L 63.643176 35.081803 
L 64.382072 35.455804 
L 65.120968 38.958097 
L 65.859864 41.569808 
L 68.076552 41.48128 
L 68.815448 43.150904 
L 69.554344 43.97999 
L 73.248824 43.97999 
L 73.98772 45.212464 
L 78.421096 45.212464 
L 79.159992 46.80491 
L 82.115576 46.80491 
L 82.854472 47.862434 
L 83.593368 47.862434 
L 84.332264 49.222236 
L 86.548952 49.222236 
L 87.287848 51.236173 
L 88.026744 107.269588 
L 88.76564 107.269588 
L 89.504536 107.705741 
L 92.46012 107.705741 
L 93.199016 108.270953 
L 98.371288 108.270953 
L 99.110184 134.731504 
L 102.065768 134.731504 
L 102.804664 135.335301 
L 103.54356 135.335301 
L 104.282456 137.829099 
L 105.021352 137.829099 
L 105.760248 138.096731 
L 106.499144 147.329707 
L 109.454728 147.329707 
L 110.193624 148.240025 
L 114.627 148.240025 
L 115.365896 151.906823 
L 123.493752 151.906823 
L 124.232648 152.555835 
L 127.188232 152.555835 
L 127.927128 153.416425 
L 130.143816 153.416425 
L 130.882712 154.098791 
L 136.054984 154.098791 
L 136.79388 154.411339 
L 137.532776 163.970372 
L 142.705048 163.995019 
L 143.443944 184.428059 
L 154.527384 184.428059 
L 155.26628 190.764493 
L 161.177448 190.75999 
L 161.916344 193.762073 
L 164.133032 193.762073 
L 164.871928 193.942569 
L 165.610824 194.484808 
L 172.999784 194.425147 
L 173.73868 194.722943 
L 174.477576 194.722943 
L 175.216472 195.88259 
L 178.172056 195.88259 
L 178.910952 196.408837 
L 181.12764 196.408837 
L 181.866536 197.547174 
L 184.083224 197.547174 
L 184.82212 201.81432 
L 185.561016 202.225247 
L 198.861144 202.225247 
L 199.60004 202.99337 
L 202.555624 202.99337 
L 203.29452 204.025032 
L 204.033416 204.598768 
L 215.855752 204.598768 
L 216.594648 204.738887 
L 249.106072 204.675615 
L 249.844968 205.297657 
L 277.18412 205.297657 
L 277.923016 205.41633 
L 295.65652 205.41633 
L 296.395416 205.591327 
L 317.084504 205.642449 
L 317.8234 204.770312 
L 325.21236 204.770312 
L 325.951256 205.373231 
L 424.96332 205.373231 
L 424.96332 205.373231 
" clip-path="url(#pc98ac0024f)" style="fill: none; stroke: #b8b8b8; stroke-opacity: 0.28; stroke-width: 0.75; stroke-linecap: square"/>
   </g>
   <g id="line2d_31">
    <path d="M 55.51532 16.64964 
L 56.254216 19.515293 
L 56.993112 20.225681 
L 57.732008 24.048551 
L 59.2098 28.672456 
L 60.687592 36.109627 
L 61.426488 38.83162 
L 62.165384 40.351646 
L 62.90428 47.711694 
L 63.643176 50.311145 
L 64.382072 51.275397 
L 65.120968 56.266726 
L 65.859864 56.897052 
L 66.59876 57.911074 
L 67.337656 60.075086 
L 68.076552 66.8116 
L 68.815448 69.832267 
L 69.554344 71.140854 
L 70.29324 73.149434 
L 71.032136 74.080209 
L 71.771032 77.15454 
L 72.509928 77.951957 
L 73.248824 80.579299 
L 73.98772 81.8035 
L 74.726616 82.457447 
L 75.465512 83.895082 
L 76.204408 84.403127 
L 76.943304 85.446482 
L 78.421096 86.246988 
L 79.159992 87.590937 
L 80.637784 88.899 
L 81.37668 90.73622 
L 83.593368 94.441855 
L 84.332264 95.104603 
L 85.07116 96.488762 
L 86.548952 97.495989 
L 87.287848 98.505087 
L 88.026744 101.856726 
L 88.76564 103.28739 
L 90.982328 104.251072 
L 91.721224 104.861523 
L 92.46012 105.694943 
L 93.199016 106.107898 
L 93.937912 107.277367 
L 96.893496 108.518584 
L 97.632392 108.518584 
L 98.371288 108.811599 
L 99.110184 110.827878 
L 99.84908 111.196856 
L 100.587976 111.353737 
L 101.326872 112.084259 
L 102.065768 112.311277 
L 102.804664 112.819676 
L 103.54356 113.521834 
L 104.282456 113.79851 
L 105.021352 113.826028 
L 105.760248 114.452266 
L 106.499144 116.145287 
L 107.23804 118.177545 
L 108.715832 118.825119 
L 110.193624 119.10514 
L 110.93252 120.140529 
L 112.410312 120.3749 
L 113.149208 120.812471 
L 113.888104 120.855215 
L 114.627 121.176319 
L 115.365896 121.806457 
L 119.060376 123.030595 
L 120.538168 123.134899 
L 121.277064 123.312181 
L 122.754856 124.205632 
L 123.493752 124.884078 
L 124.232648 125.095211 
L 124.971544 125.595107 
L 125.71044 125.703149 
L 126.449336 126.488993 
L 127.927128 126.754356 
L 128.666024 127.155628 
L 129.40492 127.875347 
L 130.143816 127.920964 
L 131.621608 128.872493 
L 132.360504 128.872493 
L 133.0994 129.297491 
L 133.838296 129.320254 
L 136.79388 129.981946 
L 137.532776 130.677936 
L 139.010568 130.950441 
L 139.749464 131.394241 
L 140.48836 131.415117 
L 141.227256 131.691769 
L 141.966152 132.11998 
L 143.443944 134.412056 
L 144.18284 134.43222 
L 145.660632 134.914095 
L 147.138424 135.839994 
L 148.616216 136.371592 
L 149.355112 136.517228 
L 150.094008 136.928654 
L 150.832904 137.069728 
L 151.5718 137.402394 
L 153.049592 137.512274 
L 154.527384 137.75732 
L 155.26628 138.423549 
L 157.482968 139.007311 
L 158.96076 139.213157 
L 159.699656 140.247228 
L 161.916344 141.590662 
L 162.65524 142.370964 
L 163.394136 142.412567 
L 164.133032 142.686529 
L 164.871928 142.76976 
L 165.610824 143.034638 
L 166.34972 143.034638 
L 167.827512 143.695778 
L 172.260888 144.232711 
L 173.73868 144.339744 
L 175.216472 144.609201 
L 175.955368 144.850313 
L 176.694264 145.272836 
L 178.172056 145.438849 
L 180.388744 146.39706 
L 182.605432 146.52643 
L 184.82212 147.398143 
L 185.561016 147.420582 
L 186.299912 147.625043 
L 187.777704 147.764883 
L 188.5166 148.066954 
L 189.255496 148.22625 
L 189.994392 148.244282 
L 190.733288 148.40402 
L 192.21108 148.472815 
L 192.949976 148.774158 
L 195.90556 148.874134 
L 198.861144 149.424964 
L 200.338936 149.789833 
L 201.077832 150.109195 
L 201.816728 150.126188 
L 202.555624 150.321783 
L 206.250104 150.674205 
L 206.989 150.992995 
L 218.811336 152.51149 
L 219.550232 152.730458 
L 223.244712 152.91777 
L 224.722504 153.117107 
L 225.4614 153.172093 
L 226.200296 153.529477 
L 227.678088 153.55323 
L 228.416984 153.374618 
L 231.372568 153.644026 
L 232.111464 153.911895 
L 233.589256 154.080363 
L 235.805944 154.143374 
L 236.54484 154.378587 
L 238.022632 154.676261 
L 238.761528 154.945243 
L 240.978216 155.039513 
L 241.717112 155.325184 
L 249.106072 155.716884 
L 249.844968 155.857142 
L 252.800552 155.940367 
L 254.278344 156.141263 
L 255.756136 156.148532 
L 257.972824 156.522831 
L 260.189512 156.611481 
L 261.667304 156.645917 
L 263.145096 156.835367 
L 265.361784 156.911434 
L 269.056264 157.125077 
L 278.661912 157.384986 
L 280.139704 157.565552 
L 281.617496 157.779996 
L 282.356392 157.953665 
L 284.57308 157.947734 
L 285.311976 158.125117 
L 288.26756 158.219036 
L 296.395416 158.638996 
L 300.089896 158.748702 
L 301.567688 158.799863 
L 302.306584 158.949946 
L 303.784376 159.003277 
L 304.523272 159.289301 
L 306.001064 159.503532 
L 311.912232 159.634865 
L 314.12892 159.785823 
L 315.606712 159.855625 
L 335.556904 160.479535 
L 336.2958 160.731751 
L 338.512488 160.922883 
L 339.99028 160.931374 
L 341.468072 161.09298 
L 349.595928 161.195172 
L 352.551512 161.325329 
L 353.290408 161.870526 
L 358.46268 161.964434 
L 364.373848 162.031328 
L 366.590536 162.123623 
L 373.2406 162.281911 
L 376.93508 162.582119 
L 380.62956 162.68971 
L 382.107352 162.79231 
L 405.752024 163.269963 
L 406.49092 163.387546 
L 416.096568 163.469271 
L 416.835464 163.599389 
L 419.052152 163.693887 
L 421.26884 163.919326 
L 424.96332 163.994731 
L 424.96332 163.994731 
" clip-path="url(#pc98ac0024f)" style="fill: none; stroke: #b2182b; stroke-width: 2.5; stroke-linecap: square"/>
   </g>
   <g id="line2d_32">
    <path d="M 55.51532 16.64964 
L 424.96332 16.64964 
" clip-path="url(#pc98ac0024f)" style="fill: none; stroke-dasharray: 2.96,1.28; stroke-dashoffset: 0; stroke: #555555; stroke-opacity: 0.7; stroke-width: 0.8"/>
   </g>
   <g id="patch_3">
    <path d="M 55.51532 215.09209 
L 55.51532 7.2 
" style="fill: none; stroke: #222222; stroke-width: 0.8; stroke-linejoin: miter; stroke-linecap: square"/>
   </g>
   <g id="patch_4">
    <path d="M 55.51532 215.09209 
L 424.96332 215.09209 
" style="fill: none; stroke: #222222; stroke-width: 0.8; stroke-linejoin: miter; stroke-linecap: square"/>
   </g>
   <g id="text_13">
    <!-- $\frac{\sum_i \kappa_{g,i}^{2}}{\sum_i \kappa_{g,i,0}^{2}}$ -->
    <g transform="translate(7.2 114.021045)">
     <text>
      <tspan x="0.71875" y="-2.278906" style="font-size: 8.05px; font-family: 'cmex10'">X</tspan>
      <tspan x="3.71875" y="-21" style="font-size: 8.05px; font-family: 'cmex10'">X</tspan>
      <tspan x="5.71875" y="14.224688" style="font-size: 5.635px; font-family: 'cmmi10'">i</tspan>
      <tspan x="8.71875" y="-4.496406" style="font-size: 5.635px; font-family: 'cmmi10'">i</tspan>
      <tspan x="16.075684" y="8.477519" style="font-size: 5.635px; font-family: 'cmmi10'">g</tspan>
      <tspan x="18.763865" y="8.477519" style="font-size: 5.635px; font-family: 'cmmi10'">;</tspan>
      <tspan x="19.075684" y="-10.266544" style="font-size: 5.635px; font-family: 'cmmi10'">g</tspan>
      <tspan x="21.450949" y="8.477519" style="font-size: 5.635px; font-family: 'cmmi10'">i</tspan>
      <tspan x="21.763865" y="-10.266544" style="font-size: 5.635px; font-family: 'cmmi10'">;</tspan>
      <tspan x="23.390731" y="8.477519" style="font-size: 5.635px; font-family: 'cmmi10'">;</tspan>
      <tspan x="24.450949" y="-10.266544" style="font-size: 5.635px; font-family: 'cmmi10'">i</tspan>
      <tspan x="11.4375" y="6.03724" style="font-size: 8.05px; font-family: 'cmmi10'">∙</tspan>
      <tspan x="14.4375" y="-12.683854" style="font-size: 8.05px; font-family: 'cmmi10'">∙</tspan>
      <tspan x="16.981623" y="2.713456" style="font-size: 5.635px; font-family: 'cmr10'">2</tspan>
      <tspan x="19.981623" y="-16.007638" style="font-size: 5.635px; font-family: 'cmr10'">2</tspan>
      <tspan x="26.077815" y="8.477519" style="font-size: 5.635px; font-family: 'cmr10'">0</tspan>
     </text>
     <rect x="0.71875" y="-3.997656" width="28.637058" height="0.71875"/>
    </g>
   </g>
  </g>
 </g>
 <defs>
  <clipPath id="pc98ac0024f">
   <rect x="55.51532" y="7.2" width="369.448" height="207.89209"/>
  </clipPath>
 </defs>
</svg>
