<?xml version="1.0" encoding="utf-8" standalone="no"?>
<!DOCTYPE svg PUBLIC "-//W3C//DTD SVG 1.1//EN"
  "http://www.w3.org/Graphics/SVG/1.1/DTD/svg11.dtd">
<svg xmlns:xlink="http://www.w3.org/1999/xlink" width="437.41982pt" height="246.400156pt" viewBox="0 0 437.41982 246.400156" xmlns="http://www.w3.org/2000/svg" version="1.1">
 <metadata>
  <rdf:RDF xmlns:dc="http://purl.org/dc/elements/1.1/" xmlns:cc="http://creativecommons.org/ns#" xmlns:rdf="http://www.w3.org/1999/02/22-rdf-syntax-ns#">
   <cc:Work>
    <dc:type rdf:resource="http://purl.org/dc/dcmitype/StillImage"/>
    <dc:date>2026-06-23T16:19:11.205886</dc:date>
    <dc:format>image/svg+xml</dc:format>
    <dc:creator>
     <cc:Agent>
      <dc:title>Matplotlib v3.11.0, https://matplotlib.org/</dc:title>
     </cc:Agent>
    </dc:creator>
   </cc:Work>
  </rdf:RDF>
 </metadata>
 <defs>
  <style type="text/css">*{stroke-linejoin: round; stroke-linecap: butt}</style>
 </defs>
 <g id="figure_1">
  <g id="patch_1">
   <path d="M 0 246.400156 
L 437.41982 246.400156 
L 437.41982 0 
L 0 0 
z
" style="fill: #ffffff"/>
  </g>
  <g id="axes_1">
   <g id="patch_2">
    <path d="M 48.15432 215.09209 
L 425.70232 215.09209 
L 425.70232 7.2 
L 48.15432 7.2 
z
" style="fill: #ffffff"/>
   </g>
   <g id="FillBetweenPolyCollection_1">
    <defs>
     <path id="m4ebdac86bc" d="M 48.15432 -229.750516 
L 48.15432 -229.750516 
L 48.909416 -229.688769 
L 49.664512 -226.660029 
L 50.419608 -219.024443 
L 51.174704 -215.593381 
L 51.9298 -210.482811 
L 52.684896 -206.527495 
L 53.439992 -205.589236 
L 54.195088 -204.052415 
L 54.950184 -199.065402 
L 55.70528 -193.064411 
L 56.460376 -192.306477 
L 57.215472 -190.066236 
L 57.970568 -181.224316 
L 58.725664 -181.224316 
L 59.48076 -181.224316 
L 60.235856 -179.582181 
L 60.990952 -163.760704 
L 61.746048 -154.925006 
L 62.501144 -154.559958 
L 63.25624 -154.559958 
L 64.011336 -153.656367 
L 64.766432 -153.656367 
L 65.521528 -153.656367 
L 66.276624 -152.295448 
L 67.03172 -148.900216 
L 67.786816 -148.900216 
L 68.541912 -148.499098 
L 69.297008 -148.499098 
L 70.052104 -146.131662 
L 70.8072 -145.118591 
L 71.562296 -144.956994 
L 72.317392 -144.398655 
L 73.072488 -144.398655 
L 73.827584 -143.957808 
L 74.58268 -143.957808 
L 75.337776 -140.525573 
L 76.092872 -140.525573 
L 76.847968 -140.152328 
L 77.603064 -140.152328 
L 78.35816 -138.213869 
L 79.113256 -136.761694 
L 79.868352 -136.025582 
L 80.623448 -135.276541 
L 81.378544 -134.120894 
L 82.13364 -130.647047 
L 82.888736 -130.647047 
L 83.643832 -129.776288 
L 84.398928 -129.776288 
L 85.154024 -128.374348 
L 85.90912 -127.919323 
L 86.664216 -127.919323 
L 87.419312 -124.603861 
L 88.174408 -124.301618 
L 88.929504 -124.301618 
L 89.6846 -124.301618 
L 90.439696 -123.689465 
L 91.194792 -123.689465 
L 91.949888 -123.689465 
L 92.704984 -122.487647 
L 93.46008 -120.150535 
L 94.215176 -120.150535 
L 94.970272 -120.150535 
L 95.725368 -119.541947 
L 96.480464 -118.884888 
L 97.23556 -118.884888 
L 97.990656 -118.884888 
L 98.745752 -118.884888 
L 99.500848 -118.884888 
L 100.255944 -118.053133 
L 101.01104 -118.053133 
L 101.766136 -117.415727 
L 102.521232 -117.415727 
L 103.276328 -117.270242 
L 104.031424 -117.270242 
L 104.78652 -116.888512 
L 105.541616 -116.773022 
L 106.296712 -116.773022 
L 107.051808 -115.29083 
L 107.806904 -115.29083 
L 108.562 -115.29083 
L 109.317096 -115.29083 
L 110.072192 -115.168827 
L 110.827288 -115.168827 
L 111.582384 -115.168827 
L 112.33748 -114.025015 
L 113.092576 -114.025015 
L 113.847672 -114.025015 
L 114.602768 -114.025015 
L 115.357864 -113.950554 
L 116.11296 -113.950554 
L 116.868056 -112.760059 
L 117.623152 -112.312642 
L 118.378248 -112.312642 
L 119.133344 -112.312642 
L 119.88844 -112.312642 
L 120.643536 -111.671562 
L 121.398632 -110.56039 
L 122.153728 -110.56039 
L 122.908824 -110.56039 
L 123.66392 -110.56039 
L 124.419016 -110.56039 
L 125.174112 -110.56039 
L 125.929208 -107.354625 
L 126.684304 -107.354625 
L 127.4394 -107.055547 
L 128.194496 -107.055547 
L 128.949592 -107.055547 
L 129.704688 -107.055547 
L 130.459784 -106.517317 
L 131.21488 -106.047976 
L 131.969976 -106.047976 
L 132.725072 -105.846135 
L 133.480168 -105.846135 
L 134.235264 -105.846135 
L 134.99036 -105.669607 
L 135.745456 -105.669607 
L 136.500552 -105.643899 
L 137.255648 -105.643899 
L 138.010744 -105.643899 
L 138.76584 -105.643899 
L 139.520936 -105.643899 
L 140.276032 -105.535222 
L 141.031128 -105.535222 
L 141.786224 -105.535222 
L 142.54132 -105.535222 
L 143.296416 -105.535222 
L 144.051512 -105.535222 
L 144.806608 -104.469976 
L 145.561704 -104.318261 
L 146.3168 -104.318261 
L 147.071896 -104.318261 
L 147.826992 -104.318261 
L 148.582088 -104.318261 
L 149.337184 -104.089608 
L 150.09228 -104.089608 
L 150.847376 -104.089608 
L 151.602472 -104.089608 
L 152.357568 -104.089608 
L 153.112664 -104.089608 
L 153.86776 -103.932605 
L 154.622856 -101.275121 
L 155.377952 -101.275121 
L 156.133048 -97.232951 
L 156.888144 -97.232951 
L 157.64324 -94.746606 
L 158.398336 -94.746606 
L 159.153432 -94.265679 
L 159.908528 -94.265679 
L 160.663624 -94.08515 
L 161.41872 -94.08515 
L 162.173816 -94.08515 
L 162.928912 -92.733056 
L 163.684008 -92.691844 
L 164.439104 -92.691844 
L 165.1942 -92.691844 
L 165.949296 -92.691844 
L 166.704392 -92.691844 
L 167.459488 -92.551149 
L 168.214584 -92.551149 
L 168.96968 -92.551149 
L 169.724776 -92.277993 
L 170.479872 -92.277993 
L 171.234968 -92.277993 
L 171.990064 -90.319103 
L 172.74516 -90.319103 
L 173.500256 -90.319103 
L 174.255352 -89.377751 
L 175.010448 -89.228593 
L 175.765544 -89.228593 
L 176.52064 -89.228593 
L 177.275736 -88.975587 
L 178.030832 -88.975587 
L 178.785928 -88.975587 
L 179.541024 -88.975587 
L 180.29612 -88.975587 
L 181.051216 -88.975587 
L 181.806312 -88.70755 
L 182.561408 -88.70755 
L 183.316504 -88.70755 
L 184.0716 -88.70755 
L 184.826696 -88.70755 
L 185.581792 -88.70755 
L 186.336888 -88.70755 
L 187.091984 -88.70755 
L 187.84708 -88.70755 
L 188.602176 -88.70755 
L 189.357272 -88.70755 
L 190.112368 -88.70755 
L 190.867464 -88.70755 
L 191.62256 -88.70755 
L 192.377656 -88.70755 
L 193.132752 -88.70755 
L 193.887848 -88.70755 
L 194.642944 -88.70755 
L 195.39804 -88.70755 
L 196.153136 -88.308359 
L 196.908232 -88.022798 
L 197.663328 -88.022798 
L 198.418424 -88.022798 
L 199.17352 -88.022798 
L 199.928616 -88.022798 
L 200.683712 -88.022798 
L 201.438808 -87.016833 
L 202.193904 -87.016833 
L 202.949 -87.016833 
L 203.704096 -87.016833 
L 204.459192 -87.016833 
L 205.214288 -87.016833 
L 205.969384 -87.016833 
L 206.72448 -87.016833 
L 207.479576 -86.104183 
L 208.234672 -86.104183 
L 208.989768 -85.993266 
L 209.744864 -85.993266 
L 210.49996 -85.993266 
L 211.255056 -85.993266 
L 212.010152 -85.020551 
L 212.765248 -85.020551 
L 213.520344 -85.020551 
L 214.27544 -85.020551 
L 215.030536 -85.020551 
L 215.785632 -85.016185 
L 216.540728 -85.016185 
L 217.295824 -85.016185 
L 218.05092 -84.93896 
L 218.806016 -84.393232 
L 219.561112 -84.393232 
L 220.316208 -84.393232 
L 221.071304 -84.393232 
L 221.8264 -84.393232 
L 222.581496 -83.885216 
L 223.336592 -83.885216 
L 224.091688 -83.885216 
L 224.846784 -83.796663 
L 225.60188 -83.7832 
L 226.356976 -83.7832 
L 227.112072 -83.7832 
L 227.867168 -83.141769 
L 228.622264 -83.141769 
L 229.37736 -82.944263 
L 230.132456 -82.944263 
L 230.887552 -82.944263 
L 231.642648 -82.944263 
L 232.397744 -82.944263 
L 233.15284 -82.894104 
L 233.907936 -82.894104 
L 234.663032 -82.894104 
L 235.418128 -82.894104 
L 236.173224 -82.894104 
L 236.92832 -82.894104 
L 237.683416 -82.894104 
L 238.438512 -82.894104 
L 239.193608 -82.894104 
L 239.948704 -82.894104 
L 240.7038 -82.894104 
L 241.458896 -82.799991 
L 242.213992 -82.799991 
L 242.969088 -82.799991 
L 243.724184 -82.799991 
L 244.47928 -82.376309 
L 245.234376 -82.376309 
L 245.989472 -82.376309 
L 246.744568 -82.191545 
L 247.499664 -82.191545 
L 248.25476 -82.191545 
L 249.009856 -82.191545 
L 249.764952 -82.191545 
L 250.520048 -82.191545 
L 251.275144 -82.191545 
L 252.03024 -82.191545 
L 252.785336 -82.191545 
L 253.540432 -82.191545 
L 254.295528 -82.191545 
L 255.050624 -82.191545 
L 255.80572 -82.191545 
L 256.560816 -82.191545 
L 257.315912 -82.191545 
L 258.071008 -82.191545 
L 258.826104 -82.191545 
L 259.5812 -82.191545 
L 260.336296 -82.191545 
L 261.091392 -82.191545 
L 261.846488 -82.191545 
L 262.601584 -82.191545 
L 263.35668 -81.920504 
L 264.111776 -81.78034 
L 264.866872 -81.78034 
L 265.621968 -81.414555 
L 266.377064 -81.103819 
L 267.13216 -81.103819 
L 267.887256 -81.103819 
L 268.642352 -81.103819 
L 269.397448 -81.103819 
L 270.152544 -81.103819 
L 270.90764 -81.103819 
L 271.662736 -81.103819 
L 272.417832 -81.103819 
L 273.172928 -80.701139 
L 273.928024 -80.701139 
L 274.68312 -80.701139 
L 275.438216 -80.701139 
L 276.193312 -80.701139 
L 276.948408 -80.701139 
L 277.703504 -80.701139 
L 278.4586 -80.696464 
L 279.213696 -80.696464 
L 279.968792 -80.696464 
L 280.723888 -80.543309 
L 281.478984 -80.543309 
L 282.23408 -80.543309 
L 282.989176 -80.543309 
L 283.744272 -80.543309 
L 284.499368 -80.543309 
L 285.254464 -80.543309 
L 286.00956 -80.543309 
L 286.764656 -80.543309 
L 287.519752 -80.543309 
L 288.274848 -80.170541 
L 289.029944 -80.170541 
L 289.78504 -80.170541 
L 290.540136 -80.170541 
L 291.295232 -80.170541 
L 292.050328 -80.170541 
L 292.805424 -80.170541 
L 293.56052 -80.170541 
L 294.315616 -80.170541 
L 295.070712 -80.170541 
L 295.825808 -80.170541 
L 296.580904 -80.031622 
L 297.336 -80.031622 
L 298.091096 -80.031622 
L 298.846192 -80.031622 
L 299.601288 -80.031622 
L 300.356384 -80.031622 
L 301.11148 -80.031622 
L 301.866576 -80.031622 
L 302.621672 -80.031622 
L 303.376768 -80.031622 
L 304.131864 -79.60293 
L 304.88696 -79.60293 
L 305.642056 -79.60293 
L 306.397152 -79.60293 
L 307.152248 -79.60293 
L 307.907344 -79.60293 
L 308.66244 -79.60293 
L 309.417536 -79.575544 
L 310.172632 -79.575544 
L 310.927728 -79.575544 
L 311.682824 -79.575544 
L 312.43792 -79.575544 
L 313.193016 -79.575544 
L 313.948112 -79.543275 
L 314.703208 -79.543275 
L 315.458304 -79.543275 
L 316.2134 -79.418591 
L 316.968496 -79.418591 
L 317.723592 -79.418591 
L 318.478688 -79.418591 
L 319.233784 -79.418591 
L 319.98888 -79.418591 
L 320.743976 -79.412232 
L 321.499072 -79.412232 
L 322.254168 -79.412232 
L 323.009264 -79.228736 
L 323.76436 -79.228736 
L 324.519456 -79.228736 
L 325.274552 -79.228736 
L 326.029648 -79.228736 
L 326.784744 -79.228736 
L 327.53984 -79.228736 
L 328.294936 -79.228736 
L 329.050032 -79.228736 
L 329.805128 -79.228736 
L 330.560224 -79.228736 
L 331.31532 -79.228736 
L 332.070416 -79.228736 
L 332.825512 -79.052464 
L 333.580608 -79.052464 
L 334.335704 -79.052464 
L 335.0908 -76.73078 
L 335.845896 -76.73078 
L 336.600992 -76.252091 
L 337.356088 -76.252091 
L 338.111184 -76.252091 
L 338.86628 -76.252091 
L 339.621376 -76.252091 
L 340.376472 -76.252091 
L 341.131568 -76.252091 
L 341.886664 -76.252091 
L 342.64176 -76.252091 
L 343.396856 -76.252091 
L 344.151952 -76.234175 
L 344.907048 -76.234175 
L 345.662144 -76.234175 
L 346.41724 -76.176038 
L 347.172336 -76.175163 
L 347.927432 -76.175163 
L 348.682528 -76.175163 
L 349.437624 -76.061983 
L 350.19272 -76.061983 
L 350.947816 -76.061983 
L 351.702912 -76.061983 
L 352.458008 -76.061983 
L 353.213104 -76.061983 
L 353.9682 -76.061983 
L 354.723296 -75.970899 
L 355.478392 -75.970899 
L 356.233488 -75.970899 
L 356.988584 -75.970899 
L 357.74368 -75.970899 
L 358.498776 -75.970899 
L 359.253872 -75.970899 
L 360.008968 -75.970899 
L 360.764064 -75.970899 
L 361.51916 -75.970899 
L 362.274256 -75.970899 
L 363.029352 -75.970899 
L 363.784448 -75.970899 
L 364.539544 -75.970899 
L 365.29464 -75.715658 
L 366.049736 -75.715658 
L 366.804832 -75.715658 
L 367.559928 -75.623775 
L 368.315024 -75.623775 
L 369.07012 -75.623775 
L 369.825216 -75.623775 
L 370.580312 -75.541565 
L 371.335408 -75.541565 
L 372.090504 -75.541565 
L 372.8456 -75.541565 
L 373.600696 -75.541565 
L 374.355792 -75.541565 
L 375.110888 -75.541565 
L 375.865984 -75.541565 
L 376.62108 -75.541565 
L 377.376176 -75.541565 
L 378.131272 -75.541565 
L 378.886368 -75.541565 
L 379.641464 -75.541565 
L 380.39656 -75.265706 
L 381.151656 -75.265706 
L 381.906752 -75.265706 
L 382.661848 -75.265706 
L 383.416944 -75.265706 
L 384.17204 -75.265706 
L 384.927136 -75.265706 
L 385.682232 -75.265706 
L 386.437328 -75.010961 
L 387.192424 -75.010961 
L 387.94752 -75.010961 
L 388.702616 -75.010961 
L 389.457712 -75.010961 
L 390.212808 -74.948152 
L 390.967904 -74.948152 
L 391.723 -74.948152 
L 392.478096 -74.948152 
L 393.233192 -74.948152 
L 393.988288 -74.948152 
L 394.743384 -74.948152 
L 395.49848 -74.948152 
L 396.253576 -74.948152 
L 397.008672 -74.948152 
L 397.763768 -74.948152 
L 398.518864 -74.600598 
L 399.27396 -74.600598 
L 400.029056 -74.600598 
L 400.784152 -74.600598 
L 401.539248 -74.600598 
L 402.294344 -74.600598 
L 403.04944 -74.600598 
L 403.804536 -74.600598 
L 404.559632 -74.600598 
L 405.314728 -74.600598 
L 406.069824 -74.600598 
L 406.82492 -74.600598 
L 407.580016 -74.600598 
L 408.335112 -74.600598 
L 409.090208 -74.600598 
L 409.845304 -74.600598 
L 410.6004 -74.600598 
L 411.355496 -74.600598 
L 412.110592 -74.600598 
L 412.865688 -74.600598 
L 413.620784 -74.600598 
L 414.37588 -74.600598 
L 415.130976 -74.600598 
L 415.886072 -74.597427 
L 416.641168 -74.597427 
L 417.396264 -74.597427 
L 418.15136 -74.597427 
L 418.906456 -74.597427 
L 419.661552 -74.597427 
L 420.416648 -73.74365 
L 421.171744 -73.74365 
L 421.92684 -73.2803 
L 422.681936 -73.2803 
L 423.437032 -73.2803 
L 424.192128 -73.2803 
L 424.947224 -73.2803 
L 425.70232 -73.2803 
L 425.70232 -107.574082 
L 425.70232 -107.574082 
L 424.947224 -107.574082 
L 424.192128 -107.574082 
L 423.437032 -107.574082 
L 422.681936 -107.574082 
L 421.92684 -107.574082 
L 421.171744 -107.574082 
L 420.416648 -107.574082 
L 419.661552 -107.574082 
L 418.906456 -107.634708 
L 418.15136 -107.674265 
L 417.396264 -107.674265 
L 416.641168 -107.674265 
L 415.886072 -107.674265 
L 415.130976 -107.674265 
L 414.37588 -107.674265 
L 413.620784 -107.675712 
L 412.865688 -107.675712 
L 412.110592 -107.753739 
L 411.355496 -107.753739 
L 410.6004 -107.753739 
L 409.845304 -107.753739 
L 409.090208 -107.753739 
L 408.335112 -107.753739 
L 407.580016 -107.753739 
L 406.82492 -107.753739 
L 406.069824 -107.753739 
L 405.314728 -107.753739 
L 404.559632 -108.075697 
L 403.804536 -108.075697 
L 403.04944 -108.075697 
L 402.294344 -108.075697 
L 401.539248 -108.075697 
L 400.784152 -108.075697 
L 400.029056 -108.075697 
L 399.27396 -108.075697 
L 398.518864 -108.075697 
L 397.763768 -108.075697 
L 397.008672 -108.075697 
L 396.253576 -108.2852 
L 395.49848 -108.2852 
L 394.743384 -108.2852 
L 393.988288 -108.2852 
L 393.233192 -108.348991 
L 392.478096 -108.348991 
L 391.723 -108.348991 
L 390.967904 -108.395527 
L 390.212808 -108.395527 
L 389.457712 -108.395527 
L 388.702616 -108.395527 
L 387.94752 -108.395527 
L 387.192424 -108.395527 
L 386.437328 -108.395527 
L 385.682232 -108.395527 
L 384.927136 -108.395527 
L 384.17204 -108.55252 
L 383.416944 -108.55252 
L 382.661848 -108.55252 
L 381.906752 -108.55252 
L 381.151656 -108.55252 
L 380.39656 -109.122767 
L 379.641464 -109.122767 
L 378.886368 -109.122767 
L 378.131272 -109.122767 
L 377.376176 -109.122767 
L 376.62108 -109.122767 
L 375.865984 -109.122767 
L 375.110888 -109.122767 
L 374.355792 -109.204156 
L 373.600696 -109.204156 
L 372.8456 -109.489149 
L 372.090504 -109.489149 
L 371.335408 -109.489149 
L 370.580312 -109.489149 
L 369.825216 -109.489149 
L 369.07012 -109.489149 
L 368.315024 -109.489149 
L 367.559928 -109.489149 
L 366.804832 -109.667418 
L 366.049736 -109.667418 
L 365.29464 -109.667418 
L 364.539544 -109.667418 
L 363.784448 -109.667418 
L 363.029352 -110.215811 
L 362.274256 -110.215811 
L 361.51916 -110.215811 
L 360.764064 -110.215811 
L 360.008968 -110.215811 
L 359.253872 -110.215811 
L 358.498776 -110.215811 
L 357.74368 -110.215811 
L 356.988584 -110.215811 
L 356.233488 -110.215811 
L 355.478392 -110.215811 
L 354.723296 -110.215811 
L 353.9682 -110.215811 
L 353.213104 -110.215811 
L 352.458008 -110.215811 
L 351.702912 -110.215811 
L 350.947816 -110.215811 
L 350.19272 -110.215811 
L 349.437624 -110.215811 
L 348.682528 -110.215811 
L 347.927432 -110.215811 
L 347.172336 -110.215811 
L 346.41724 -110.215811 
L 345.662144 -110.215811 
L 344.907048 -110.215811 
L 344.151952 -110.215811 
L 343.396856 -110.215811 
L 342.64176 -110.254129 
L 341.886664 -110.254129 
L 341.131568 -110.337867 
L 340.376472 -110.337867 
L 339.621376 -110.337867 
L 338.86628 -110.371034 
L 338.111184 -110.498101 
L 337.356088 -110.498101 
L 336.600992 -110.50035 
L 335.845896 -110.50035 
L 335.0908 -110.50035 
L 334.335704 -110.50035 
L 333.580608 -110.50035 
L 332.825512 -110.50035 
L 332.070416 -110.895291 
L 331.31532 -110.895291 
L 330.560224 -110.895291 
L 329.805128 -110.895291 
L 329.050032 -110.895291 
L 328.294936 -110.895291 
L 327.53984 -110.939423 
L 326.784744 -110.939423 
L 326.029648 -110.939423 
L 325.274552 -110.939423 
L 324.519456 -111.065677 
L 323.76436 -111.411981 
L 323.009264 -111.411981 
L 322.254168 -111.411981 
L 321.499072 -111.411981 
L 320.743976 -111.411981 
L 319.98888 -111.411981 
L 319.233784 -111.411981 
L 318.478688 -111.411981 
L 317.723592 -111.411981 
L 316.968496 -111.411981 
L 316.2134 -111.411981 
L 315.458304 -111.411981 
L 314.703208 -111.411981 
L 313.948112 -111.411981 
L 313.193016 -111.411981 
L 312.43792 -111.411981 
L 311.682824 -111.963458 
L 310.927728 -112.125503 
L 310.172632 -112.401072 
L 309.417536 -112.401072 
L 308.66244 -112.401072 
L 307.907344 -112.401072 
L 307.152248 -112.401072 
L 306.397152 -112.401072 
L 305.642056 -112.401072 
L 304.88696 -112.611884 
L 304.131864 -112.703365 
L 303.376768 -112.961644 
L 302.621672 -113.708448 
L 301.866576 -113.788578 
L 301.11148 -113.788578 
L 300.356384 -113.788578 
L 299.601288 -114.646827 
L 298.846192 -114.646827 
L 298.091096 -114.646827 
L 297.336 -114.646827 
L 296.580904 -114.751908 
L 295.825808 -114.751908 
L 295.070712 -114.864837 
L 294.315616 -114.864837 
L 293.56052 -114.864837 
L 292.805424 -114.864837 
L 292.050328 -114.864837 
L 291.295232 -114.864837 
L 290.540136 -114.864837 
L 289.78504 -114.864837 
L 289.029944 -114.864837 
L 288.274848 -114.864837 
L 287.519752 -114.864837 
L 286.764656 -114.864837 
L 286.00956 -114.864837 
L 285.254464 -114.864837 
L 284.499368 -115.175847 
L 283.744272 -115.175847 
L 282.989176 -115.175847 
L 282.23408 -116.587103 
L 281.478984 -116.587103 
L 280.723888 -116.587103 
L 279.968792 -116.587103 
L 279.213696 -117.437517 
L 278.4586 -117.437517 
L 277.703504 -117.7962 
L 276.948408 -117.7962 
L 276.193312 -117.7962 
L 275.438216 -117.7962 
L 274.68312 -117.7962 
L 273.928024 -117.7962 
L 273.172928 -117.976958 
L 272.417832 -117.976958 
L 271.662736 -117.976958 
L 270.90764 -117.976958 
L 270.152544 -117.976958 
L 269.397448 -117.976958 
L 268.642352 -117.976958 
L 267.887256 -117.976958 
L 267.13216 -117.976958 
L 266.377064 -118.102294 
L 265.621968 -118.102294 
L 264.866872 -118.102294 
L 264.111776 -118.267777 
L 263.35668 -118.267777 
L 262.601584 -118.389063 
L 261.846488 -118.389063 
L 261.091392 -118.389063 
L 260.336296 -118.389063 
L 259.5812 -118.389063 
L 258.826104 -118.389063 
L 258.071008 -118.684455 
L 257.315912 -118.684455 
L 256.560816 -118.684455 
L 255.80572 -118.895939 
L 255.050624 -118.895939 
L 254.295528 -118.895939 
L 253.540432 -118.895939 
L 252.785336 -119.223302 
L 252.03024 -119.223302 
L 251.275144 -119.223302 
L 250.520048 -119.353261 
L 249.764952 -119.525768 
L 249.009856 -119.525768 
L 248.25476 -119.525768 
L 247.499664 -119.635319 
L 246.744568 -119.635319 
L 245.989472 -119.635319 
L 245.234376 -120.431124 
L 244.47928 -120.431124 
L 243.724184 -120.431124 
L 242.969088 -120.590477 
L 242.213992 -120.590477 
L 241.458896 -120.963992 
L 240.7038 -120.963992 
L 239.948704 -120.963992 
L 239.193608 -121.25132 
L 238.438512 -121.442577 
L 237.683416 -121.442577 
L 236.92832 -121.442577 
L 236.173224 -121.442577 
L 235.418128 -121.442577 
L 234.663032 -121.442577 
L 233.907936 -121.442577 
L 233.15284 -121.442577 
L 232.397744 -122.355656 
L 231.642648 -122.355656 
L 230.887552 -122.355656 
L 230.132456 -122.355656 
L 229.37736 -122.887249 
L 228.622264 -122.887249 
L 227.867168 -122.887249 
L 227.112072 -122.887249 
L 226.356976 -122.887249 
L 225.60188 -122.887249 
L 224.846784 -122.887249 
L 224.091688 -122.887249 
L 223.336592 -122.887249 
L 222.581496 -122.887249 
L 221.8264 -122.887249 
L 221.071304 -122.887249 
L 220.316208 -122.887249 
L 219.561112 -122.887249 
L 218.806016 -122.887249 
L 218.05092 -122.887249 
L 217.295824 -122.967576 
L 216.540728 -122.967576 
L 215.785632 -122.967576 
L 215.030536 -124.842785 
L 214.27544 -124.842785 
L 213.520344 -124.842785 
L 212.765248 -124.842785 
L 212.010152 -124.842785 
L 211.255056 -124.842785 
L 210.49996 -124.842785 
L 209.744864 -124.842785 
L 208.989768 -125.590698 
L 208.234672 -125.590698 
L 207.479576 -125.590698 
L 206.72448 -125.590698 
L 205.969384 -125.590698 
L 205.214288 -125.590698 
L 204.459192 -125.590698 
L 203.704096 -125.590698 
L 202.949 -125.590698 
L 202.193904 -125.601818 
L 201.438808 -125.601818 
L 200.683712 -125.601818 
L 199.928616 -125.601818 
L 199.17352 -125.601818 
L 198.418424 -125.601818 
L 197.663328 -125.823992 
L 196.908232 -125.905125 
L 196.153136 -125.905125 
L 195.39804 -126.639935 
L 194.642944 -127.617151 
L 193.887848 -128.017691 
L 193.132752 -128.086215 
L 192.377656 -128.086215 
L 191.62256 -128.152904 
L 190.867464 -128.152904 
L 190.112368 -128.152904 
L 189.357272 -128.152904 
L 188.602176 -128.152904 
L 187.84708 -128.152904 
L 187.091984 -128.152904 
L 186.336888 -128.152904 
L 185.581792 -128.26241 
L 184.826696 -128.26241 
L 184.0716 -128.26241 
L 183.316504 -128.26241 
L 182.561408 -128.26241 
L 181.806312 -128.295758 
L 181.051216 -128.69552 
L 180.29612 -128.69552 
L 179.541024 -128.69552 
L 178.785928 -128.924943 
L 178.030832 -129.184164 
L 177.275736 -129.184164 
L 176.52064 -129.184164 
L 175.765544 -129.184164 
L 175.010448 -129.184164 
L 174.255352 -129.184164 
L 173.500256 -129.184164 
L 172.74516 -129.184164 
L 171.990064 -129.184164 
L 171.234968 -129.184164 
L 170.479872 -129.184164 
L 169.724776 -129.184164 
L 168.96968 -129.184164 
L 168.214584 -129.351059 
L 167.459488 -129.377872 
L 166.704392 -129.377872 
L 165.949296 -129.377872 
L 165.1942 -129.377872 
L 164.439104 -129.377872 
L 163.684008 -129.411855 
L 162.928912 -129.411855 
L 162.173816 -129.411855 
L 161.41872 -129.411855 
L 160.663624 -129.411855 
L 159.908528 -129.411855 
L 159.153432 -129.411855 
L 158.398336 -129.411855 
L 157.64324 -129.535879 
L 156.888144 -129.535879 
L 156.133048 -129.535879 
L 155.377952 -129.535879 
L 154.622856 -130.147507 
L 153.86776 -130.301811 
L 153.112664 -130.90717 
L 152.357568 -130.90717 
L 151.602472 -130.90717 
L 150.847376 -130.90717 
L 150.09228 -130.90717 
L 149.337184 -131.673671 
L 148.582088 -131.673671 
L 147.826992 -131.673671 
L 147.071896 -131.673671 
L 146.3168 -131.673671 
L 145.561704 -131.714388 
L 144.806608 -132.174697 
L 144.051512 -132.538857 
L 143.296416 -132.538857 
L 142.54132 -132.538857 
L 141.786224 -133.096743 
L 141.031128 -133.096743 
L 140.276032 -135.332986 
L 139.520936 -135.511245 
L 138.76584 -136.172894 
L 138.010744 -136.172894 
L 137.255648 -136.172894 
L 136.500552 -137.517284 
L 135.745456 -138.652138 
L 134.99036 -138.652138 
L 134.235264 -138.652138 
L 133.480168 -139.375324 
L 132.725072 -139.375324 
L 131.969976 -139.375324 
L 131.21488 -139.375324 
L 130.459784 -139.727633 
L 129.704688 -139.727633 
L 128.949592 -139.727633 
L 128.194496 -139.727633 
L 127.4394 -139.727633 
L 126.684304 -141.270577 
L 125.929208 -141.270577 
L 125.174112 -141.285088 
L 124.419016 -141.285088 
L 123.66392 -141.293568 
L 122.908824 -141.293568 
L 122.153728 -142.702372 
L 121.398632 -142.938145 
L 120.643536 -143.211901 
L 119.88844 -144.996429 
L 119.133344 -144.996429 
L 118.378248 -144.996429 
L 117.623152 -145.16068 
L 116.868056 -145.161629 
L 116.11296 -145.249047 
L 115.357864 -145.249047 
L 114.602768 -145.249047 
L 113.847672 -145.249047 
L 113.092576 -145.249047 
L 112.33748 -145.716599 
L 111.582384 -145.716599 
L 110.827288 -145.716599 
L 110.072192 -145.716599 
L 109.317096 -147.271048 
L 108.562 -147.271048 
L 107.806904 -147.892595 
L 107.051808 -147.892595 
L 106.296712 -147.892595 
L 105.541616 -147.892595 
L 104.78652 -147.892595 
L 104.031424 -153.884073 
L 103.276328 -153.884073 
L 102.521232 -153.884073 
L 101.766136 -153.884073 
L 101.01104 -153.890333 
L 100.255944 -159.906703 
L 99.500848 -160.856424 
L 98.745752 -161.090706 
L 97.990656 -161.090706 
L 97.23556 -161.721675 
L 96.480464 -161.721675 
L 95.725368 -161.721675 
L 94.970272 -161.721675 
L 94.215176 -161.721675 
L 93.46008 -161.721675 
L 92.704984 -161.721675 
L 91.949888 -161.721675 
L 91.194792 -161.721675 
L 90.439696 -161.721675 
L 89.6846 -161.752631 
L 88.929504 -162.010568 
L 88.174408 -162.010568 
L 87.419312 -162.436709 
L 86.664216 -162.436709 
L 85.90912 -162.436709 
L 85.154024 -163.286625 
L 84.398928 -163.286625 
L 83.643832 -163.286625 
L 82.888736 -163.638711 
L 82.13364 -163.638711 
L 81.378544 -163.638711 
L 80.623448 -164.036283 
L 79.868352 -169.391088 
L 79.113256 -169.391088 
L 78.35816 -169.391088 
L 77.603064 -169.391088 
L 76.847968 -170.122967 
L 76.092872 -170.122967 
L 75.337776 -174.979662 
L 74.58268 -174.979662 
L 73.827584 -176.635913 
L 73.072488 -179.010706 
L 72.317392 -179.6173 
L 71.562296 -179.624522 
L 70.8072 -179.624522 
L 70.052104 -180.597858 
L 69.297008 -184.130629 
L 68.541912 -184.70676 
L 67.786816 -186.754671 
L 67.03172 -186.754671 
L 66.276624 -186.754671 
L 65.521528 -190.973218 
L 64.766432 -193.319052 
L 64.011336 -197.919021 
L 63.25624 -197.919021 
L 62.501144 -199.647153 
L 61.746048 -201.090676 
L 60.990952 -201.090676 
L 60.235856 -205.055911 
L 59.48076 -205.055911 
L 58.725664 -205.069263 
L 57.970568 -205.069263 
L 57.215472 -208.115035 
L 56.460376 -208.662553 
L 55.70528 -209.793306 
L 54.950184 -214.838087 
L 54.195088 -215.726908 
L 53.439992 -218.053773 
L 52.684896 -221.470807 
L 51.9298 -227.081657 
L 51.174704 -228.497782 
L 50.419608 -229.712173 
L 49.664512 -229.750516 
L 48.909416 -229.750516 
L 48.15432 -229.750516 
z
"/>
    </defs>
    <g clip-path="url(#p770339c02b)">
     <use xlink:href="#m4ebdac86bc" x="0" y="246.400156" style="fill: #f4a3a8; fill-opacity: 0.35"/>
    </g>
   </g>
   <g id="matplotlib.axis_1">
    <g id="xtick_1">
     <g id="line2d_1">
      <defs>
       <path id="mad8cdafeb1" d="M 0 0 
L 0 3 
" style="stroke: #000000; stroke-width: 0.7"/>
      </defs>
      <g>
       <use xlink:href="#mad8cdafeb1" x="48.15432" y="215.09209" style="stroke: #000000; stroke-width: 0.7"/>
      </g>
     </g>
     <g id="text_1">
      <text style="font-size: 6.5px; font-family: 'Arial', 'Helvetica', 'DejaVu Sans', sans-serif; text-anchor: middle" x="48.15432" y="226.324268" transform="rotate(-0 48.15432 226.324268)">0.0</text>
     </g>
    </g>
    <g id="xtick_2">
     <g id="line2d_2">
      <g>
       <use xlink:href="#mad8cdafeb1" x="123.66392" y="215.09209" style="stroke: #000000; stroke-width: 0.7"/>
      </g>
     </g>
     <g id="text_2">
      <text style="font-size: 6.5px; font-family: 'Arial', 'Helvetica', 'DejaVu Sans', sans-serif; text-anchor: middle" x="123.66392" y="226.324268" transform="rotate(-0 123.66392 226.324268)">0.2</text>
     </g>
    </g>
    <g id="xtick_3">
     <g id="line2d_3">
      <g>
       <use xlink:href="#mad8cdafeb1" x="199.17352" y="215.09209" style="stroke: #000000; stroke-width: 0.7"/>
      </g>
     </g>
     <g id="text_3">
      <text style="font-size: 6.5px; font-family: 'Arial', 'Helvetica', 'DejaVu Sans', sans-serif; text-anchor: middle" x="199.17352" y="226.324268" transform="rotate(-0 199.17352 226.324268)">0.4</text>
     </g>
    </g>
    <g id="xtick_4">
     <g id="line2d_4">
      <g>
       <use xlink:href="#mad8cdafeb1" x="274.68312" y="215.09209" style="stroke: #000000; stroke-width: 0.7"/>
      </g>
     </g>
     <g id="text_4">
      <text style="font-size: 6.5px; font-family: 'Arial', 'Helvetica', 'DejaVu Sans', sans-serif; text-anchor: middle" x="274.68312" y="226.324268" transform="rotate(-0 274.68312 226.324268)">0.6</text>
     </g>
    </g>
    <g id="xtick_5">
     <g id="line2d_5">
      <g>
       <use xlink:href="#mad8cdafeb1" x="350.19272" y="215.09209" style="stroke: #000000; stroke-width: 0.7"/>
      </g>
     </g>
     <g id="text_5">
      <text style="font-size: 6.5px; font-family: 'Arial', 'Helvetica', 'DejaVu Sans', sans-serif; text-anchor: middle" x="350.19272" y="226.324268" transform="rotate(-0 350.19272 226.324268)">0.8</text>
     </g>
    </g>
    <g id="xtick_6">
     <g id="line2d_6">
      <g>
       <use xlink:href="#mad8cdafeb1" x="425.70232" y="215.09209" style="stroke: #000000; stroke-width: 0.7"/>
      </g>
     </g>
     <g id="text_6">
      <text style="font-size: 6.5px; font-family: 'Arial', 'Helvetica', 'DejaVu Sans', sans-serif; text-anchor: middle" x="425.70232" y="226.324268" transform="rotate(-0 425.70232 226.324268)">1.0</text>
     </g>
    </g>
    <g id="text_7">
     <text style="font-size: 8px; font-family: 'Arial', 'Helvetica', 'DejaVu Sans', sans-serif; text-anchor: middle" x="236.92832" y="237.516406" transform="rotate(-0 236.92832 237.516406)">Normalized optimization progress</text>
    </g>
   </g>
   <g id="matplotlib.axis_2">
    <g id="ytick_1">
     <g id="line2d_7">
      <defs>
       <path id="m291a7d73d1" d="M 0 0 
L -3 0 
" style="stroke: #000000; stroke-width: 0.7"/>
      </defs>
      <g>
       <use xlink:href="#m291a7d73d1" x="48.15432" y="199.663504" style="stroke: #000000; stroke-width: 0.7"/>
      </g>
     </g>
     <g id="text_8">
      <text style="font-size: 6.5px; font-family: 'Arial', 'Helvetica', 'DejaVu Sans', sans-serif; text-anchor: end" x="41.65432" y="202.029593" transform="rotate(-0 41.65432 202.029593)">0.2</text>
     </g>
    </g>
    <g id="ytick_2">
     <g id="line2d_8">
      <g>
       <use xlink:href="#m291a7d73d1" x="48.15432" y="153.910038" style="stroke: #000000; stroke-width: 0.7"/>
      </g>
     </g>
     <g id="text_9">
      <text style="font-size: 6.5px; font-family: 'Arial', 'Helvetica', 'DejaVu Sans', sans-serif; text-anchor: end" x="41.65432" y="156.276127" transform="rotate(-0 41.65432 156.276127)">0.4</text>
     </g>
    </g>
    <g id="ytick_3">
     <g id="line2d_9">
      <g>
       <use xlink:href="#m291a7d73d1" x="48.15432" y="108.156572" style="stroke: #000000; stroke-width: 0.7"/>
      </g>
     </g>
     <g id="text_10">
      <text style="font-size: 6.5px; font-family: 'Arial', 'Helvetica', 'DejaVu Sans', sans-serif; text-anchor: end" x="41.65432" y="110.522661" transform="rotate(-0 41.65432 110.522661)">0.6</text>
     </g>
    </g>
    <g id="ytick_4">
     <g id="line2d_10">
      <g>
       <use xlink:href="#m291a7d73d1" x="48.15432" y="62.403106" style="stroke: #000000; stroke-width: 0.7"/>
      </g>
     </g>
     <g id="text_11">
      <text style="font-size: 6.5px; font-family: 'Arial', 'Helvetica', 'DejaVu Sans', sans-serif; text-anchor: end" x="41.65432" y="64.769195" transform="rotate(-0 41.65432 64.769195)">0.8</text>
     </g>
    </g>
    <g id="ytick_5">
     <g id="line2d_11">
      <g>
       <use xlink:href="#m291a7d73d1" x="48.15432" y="16.64964" style="stroke: #000000; stroke-width: 0.7"/>
      </g>
     </g>
     <g id="text_12">
      <text style="font-size: 6.5px; font-family: 'Arial', 'Helvetica', 'DejaVu Sans', sans-serif; text-anchor: end" x="41.65432" y="19.015729" transform="rotate(-0 41.65432 19.015729)">1.0</text>
     </g>
    </g>
   </g>
   <g id="line2d_12">
    <path d="M 48.15432 16.64964 
L 52.684896 16.726327 
L 53.439992 18.611079 
L 54.195088 36.226767 
L 54.950184 36.226767 
L 55.70528 45.349067 
L 57.215472 45.349067 
L 57.970568 45.666367 
L 64.011336 45.666367 
L 64.766432 51.898237 
L 65.521528 60.865532 
L 69.297008 60.934216 
L 70.052104 67.999758 
L 70.8072 69.946429 
L 75.337776 69.946429 
L 76.092872 79.320493 
L 76.847968 79.320493 
L 77.603064 80.000628 
L 79.868352 80.000628 
L 80.623448 82.391664 
L 82.888736 82.391664 
L 83.643832 82.967588 
L 97.23556 82.98138 
L 97.990656 83.161424 
L 100.255944 83.161424 
L 101.01104 85.532394 
L 101.766136 85.532394 
L 102.521232 86.117668 
L 110.827288 86.117668 
L 111.582384 88.596521 
L 112.33748 89.932894 
L 114.602768 89.932894 
L 115.357864 90.456487 
L 116.11296 93.826561 
L 120.643536 93.826561 
L 121.398632 93.996806 
L 123.66392 93.996806 
L 124.419016 94.351213 
L 132.725072 94.351213 
L 133.480168 95.794288 
L 139.520936 95.794288 
L 140.276032 96.048758 
L 143.296416 96.048758 
L 144.051512 97.220614 
L 144.806608 97.943661 
L 145.561704 97.943661 
L 146.3168 101.08148 
L 148.582088 101.08148 
L 149.337184 102.302909 
L 150.09228 102.302909 
L 150.847376 103.739856 
L 151.602472 103.739856 
L 152.357568 106.737289 
L 161.41872 106.737289 
L 162.173816 110.670526 
L 166.704392 110.670526 
L 167.459488 110.881873 
L 181.051216 110.959082 
L 181.806312 111.492786 
L 183.316504 111.492786 
L 184.0716 111.651625 
L 184.826696 112.521503 
L 190.112368 112.521503 
L 190.867464 113.771121 
L 192.377656 113.771121 
L 193.132752 114.105853 
L 205.214288 114.105853 
L 205.969384 115.936918 
L 233.15284 115.936918 
L 233.907936 117.120933 
L 239.193608 117.120933 
L 239.948704 117.42584 
L 248.25476 117.42584 
L 249.009856 117.923675 
L 249.764952 117.923675 
L 250.520048 120.580162 
L 254.295528 120.580162 
L 255.050624 121.510886 
L 256.560816 121.510886 
L 257.315912 122.355286 
L 279.213696 122.355286 
L 279.968792 122.789095 
L 286.00956 122.789095 
L 286.764656 123.342563 
L 287.519752 123.342563 
L 288.274848 124.568612 
L 305.642056 124.568612 
L 306.397152 124.939286 
L 310.927728 124.990259 
L 311.682824 125.154104 
L 322.254168 125.154104 
L 323.009264 125.447101 
L 348.682528 125.447101 
L 349.437624 125.681881 
L 372.090504 125.681881 
L 372.8456 125.909501 
L 375.110888 125.909501 
L 375.865984 126.283251 
L 387.192424 126.283251 
L 387.94752 126.653871 
L 425.70232 126.653871 
L 425.70232 126.653871 
" clip-path="url(#p770339c02b)" style="fill: none; stroke: #b8b8b8; stroke-opacity: 0.28; stroke-width: 0.75; stroke-linecap: square"/>
   </g>
   <g id="line2d_13">
    <path d="M 48.15432 16.64964 
L 48.909416 16.64964 
L 49.664512 17.140714 
L 51.174704 32.990255 
L 51.9298 44.829964 
L 52.684896 45.256988 
L 53.439992 48.181265 
L 56.460376 48.181265 
L 57.215472 48.671688 
L 57.970568 54.856914 
L 63.25624 54.925681 
L 64.011336 61.406306 
L 65.521528 61.406306 
L 66.276624 62.284047 
L 67.03172 62.284047 
L 67.786816 62.516905 
L 68.541912 62.516905 
L 69.297008 63.604839 
L 72.317392 63.619283 
L 73.072488 64.832472 
L 73.827584 69.582058 
L 74.58268 75.91134 
L 75.337776 75.91134 
L 76.092872 80.955687 
L 76.847968 82.336083 
L 85.154024 82.336083 
L 85.90912 84.52007 
L 87.419312 84.52007 
L 88.174408 85.372352 
L 88.929504 85.372352 
L 90.439696 85.556086 
L 98.745752 85.556086 
L 99.500848 86.024651 
L 100.255944 86.024651 
L 101.01104 86.671679 
L 101.766136 86.974777 
L 110.072192 86.974777 
L 110.827288 87.251752 
L 111.582384 88.142518 
L 122.153728 88.142518 
L 122.908824 88.81296 
L 123.66392 98.262703 
L 126.684304 98.262703 
L 127.4394 104.02533 
L 130.459784 104.02533 
L 131.21488 104.729948 
L 135.745456 104.814824 
L 136.500552 106.497579 
L 144.806608 106.497579 
L 145.561704 106.903309 
L 148.582088 106.903309 
L 149.337184 107.108875 
L 150.09228 107.108875 
L 150.847376 108.177166 
L 152.357568 108.191793 
L 153.112664 108.740308 
L 161.41872 108.816285 
L 162.173816 108.900828 
L 162.928912 110.107198 
L 164.439104 110.107198 
L 165.1942 110.416596 
L 172.74516 110.416596 
L 173.500256 111.286132 
L 174.255352 111.937889 
L 175.010448 111.937889 
L 176.52064 113.268087 
L 178.785928 113.268087 
L 179.541024 115.116656 
L 181.051216 115.116656 
L 181.806312 115.91618 
L 183.316504 115.982876 
L 193.132752 115.982876 
L 193.887848 116.253302 
L 196.153136 116.253302 
L 196.908232 116.38187 
L 199.928616 116.38187 
L 200.683712 117.18525 
L 204.459192 117.18525 
L 205.214288 117.860451 
L 234.663032 117.860451 
L 235.418128 119.608257 
L 236.173224 120.181655 
L 241.458896 120.181655 
L 242.213992 120.808407 
L 259.5812 120.831128 
L 260.336296 120.94817 
L 276.948408 121.02321 
L 277.703504 122.61744 
L 282.23408 122.61744 
L 282.989176 122.82375 
L 289.78504 122.882121 
L 291.295232 122.990111 
L 302.621672 122.990111 
L 303.376768 123.28138 
L 306.397152 123.28138 
L 307.152248 123.395447 
L 326.029648 123.423076 
L 326.784744 123.77359 
L 335.0908 123.77359 
L 335.845896 125.311182 
L 355.478392 125.311182 
L 356.233488 125.572463 
L 366.804832 125.610194 
L 367.559928 126.007062 
L 368.315024 127.071414 
L 372.8456 127.071414 
L 373.600696 127.975025 
L 378.886368 127.980197 
L 380.39656 128.0885 
L 425.70232 128.123734 
L 425.70232 128.123734 
" clip-path="url(#p770339c02b)" style="fill: none; stroke: #b8b8b8; stroke-opacity: 0.28; stroke-width: 0.75; stroke-linecap: square"/>
   </g>
   <g id="line2d_14">
    <path d="M 48.15432 16.64964 
L 48.909416 16.64964 
L 49.664512 17.342586 
L 50.419608 17.342586 
L 51.174704 27.501882 
L 51.9298 27.501882 
L 52.684896 27.74082 
L 53.439992 37.296089 
L 57.215472 37.296089 
L 57.970568 40.865569 
L 60.990952 40.892273 
L 62.501144 41.468807 
L 65.521528 41.468807 
L 66.276624 49.217508 
L 67.786816 49.217508 
L 68.541912 72.122394 
L 70.8072 72.122394 
L 71.562296 72.383365 
L 73.827584 72.383365 
L 74.58268 72.89456 
L 75.337776 72.89456 
L 76.092872 73.233887 
L 76.847968 73.233887 
L 77.603064 74.017508 
L 79.868352 74.017508 
L 80.623448 83.131227 
L 82.888736 83.131227 
L 83.643832 83.259474 
L 85.154024 83.259474 
L 85.90912 83.406824 
L 88.929504 83.406824 
L 89.6846 83.800877 
L 97.23556 83.800877 
L 97.990656 85.062814 
L 118.378248 85.062814 
L 119.133344 86.515858 
L 122.153728 86.515858 
L 122.908824 88.203158 
L 124.419016 88.203158 
L 125.174112 92.707696 
L 141.031128 92.796454 
L 141.786224 94.754482 
L 142.54132 95.288656 
L 147.826992 95.288656 
L 148.582088 96.226288 
L 152.357568 96.226288 
L 153.112664 96.519545 
L 154.622856 96.519545 
L 155.377952 102.191805 
L 156.133048 102.598487 
L 156.888144 103.292245 
L 159.908528 103.292245 
L 160.663624 103.682898 
L 162.928912 103.682898 
L 163.684008 103.850277 
L 164.439104 103.850277 
L 165.1942 108.730239 
L 165.949296 110.053539 
L 178.785928 110.053539 
L 179.541024 111.346639 
L 184.0716 111.370011 
L 184.826696 112.245629 
L 190.112368 112.245629 
L 190.867464 112.497998 
L 191.62256 112.497998 
L 192.377656 112.644005 
L 218.05092 112.654982 
L 218.806016 112.821241 
L 220.316208 112.821241 
L 221.071304 113.502168 
L 234.663032 113.569493 
L 235.418128 114.794855 
L 250.520048 114.904059 
L 251.275144 115.922532 
L 261.846488 115.973264 
L 262.601584 116.199859 
L 265.621968 116.199859 
L 266.377064 116.630146 
L 276.193312 116.630146 
L 276.948408 116.943488 
L 301.866576 116.943488 
L 302.621672 121.843758 
L 304.131864 121.945535 
L 304.88696 121.945535 
L 305.642056 122.427392 
L 349.437624 122.442286 
L 350.19272 123.516628 
L 378.886368 123.587726 
L 379.641464 124.123173 
L 380.39656 124.123173 
L 381.151656 124.358887 
L 392.478096 124.358887 
L 393.233192 124.83684 
L 397.008672 124.837486 
L 397.763768 125.172281 
L 413.620784 125.261706 
L 414.37588 125.586238 
L 416.641168 125.586238 
L 417.396264 128.78958 
L 425.70232 128.78958 
L 425.70232 128.78958 
" clip-path="url(#p770339c02b)" style="fill: none; stroke: #b8b8b8; stroke-opacity: 0.28; stroke-width: 0.75; stroke-linecap: square"/>
   </g>
   <g id="line2d_15">
    <path d="M 48.15432 16.64964 
L 49.664512 16.64964 
L 50.419608 30.325705 
L 51.174704 30.325705 
L 51.9298 40.546845 
L 54.195088 40.546845 
L 54.950184 47.885412 
L 55.70528 47.885412 
L 56.460376 48.633459 
L 59.48076 48.655799 
L 60.235856 54.082677 
L 61.746048 54.134099 
L 62.501144 54.261956 
L 64.766432 54.263971 
L 65.521528 54.805694 
L 66.276624 58.425438 
L 74.58268 58.425438 
L 75.337776 60.219761 
L 82.13364 60.219761 
L 82.888736 60.754504 
L 85.154024 60.754504 
L 85.90912 67.101995 
L 89.6846 67.101995 
L 90.439696 68.100579 
L 91.949888 68.100579 
L 92.704984 73.398311 
L 95.725368 73.398311 
L 96.480464 78.762564 
L 99.500848 78.762564 
L 100.255944 80.937949 
L 101.01104 80.937949 
L 101.766136 81.869252 
L 102.521232 81.869252 
L 103.276328 82.030729 
L 104.78652 82.030729 
L 105.541616 83.09828 
L 108.562 83.09828 
L 109.317096 86.901838 
L 111.582384 86.901838 
L 112.33748 87.998579 
L 113.092576 88.324527 
L 114.602768 88.324527 
L 115.357864 89.302618 
L 116.11296 93.399159 
L 116.868056 94.960832 
L 118.378248 94.960832 
L 119.133344 95.395795 
L 119.88844 95.395795 
L 120.643536 95.881366 
L 122.153728 95.881366 
L 122.908824 97.962889 
L 124.419016 97.962889 
L 125.174112 99.490068 
L 125.929208 100.724614 
L 126.684304 100.724614 
L 128.194496 101.757639 
L 133.480168 101.757639 
L 134.235264 106.176321 
L 135.745456 106.176321 
L 136.500552 108.446029 
L 139.520936 108.446029 
L 140.276032 108.699664 
L 141.786224 108.699664 
L 142.54132 108.945179 
L 143.296416 108.945179 
L 144.051512 109.431921 
L 144.806608 110.981659 
L 153.86776 110.981659 
L 154.622856 112.600097 
L 155.377952 113.823353 
L 157.64324 113.823353 
L 158.398336 114.071401 
L 178.030832 114.139368 
L 178.785928 114.65781 
L 181.806312 114.65781 
L 182.561408 115.42312 
L 184.826696 115.42312 
L 185.581792 115.630853 
L 191.62256 115.630853 
L 192.377656 116.116255 
L 195.39804 116.116255 
L 196.153136 117.398613 
L 196.908232 117.398613 
L 197.663328 117.560878 
L 204.459192 117.644425 
L 205.969384 117.72557 
L 216.540728 117.72557 
L 217.295824 118.390914 
L 219.561112 118.390914 
L 220.316208 119.223837 
L 227.112072 119.223837 
L 227.867168 119.694977 
L 231.642648 119.694977 
L 232.397744 119.877048 
L 233.15284 123.581803 
L 241.458896 123.581803 
L 242.213992 124.328832 
L 242.969088 124.328832 
L 243.724184 124.647538 
L 247.499664 124.647538 
L 248.25476 124.86664 
L 250.520048 124.86664 
L 251.275144 125.126557 
L 252.785336 125.126557 
L 253.540432 125.781284 
L 258.071008 125.781284 
L 258.826104 126.128461 
L 264.111776 126.128461 
L 264.866872 126.459427 
L 277.703504 126.459427 
L 278.4586 127.176794 
L 279.213696 127.176794 
L 279.968792 128.877623 
L 282.23408 128.877623 
L 282.989176 131.700135 
L 284.499368 131.700135 
L 285.254464 132.322154 
L 299.601288 132.322154 
L 300.356384 135.99053 
L 313.193016 135.99053 
L 313.948112 136.134304 
L 316.2134 136.134304 
L 316.968496 138.028798 
L 338.86628 138.028798 
L 339.621376 138.189805 
L 386.437328 138.189805 
L 387.192424 138.419889 
L 391.723 138.419889 
L 392.478096 138.714924 
L 397.763768 138.714924 
L 398.518864 139.067624 
L 412.110592 139.067624 
L 412.865688 139.223677 
L 418.906456 139.226571 
L 419.661552 140.31457 
L 425.70232 140.31457 
L 425.70232 140.31457 
" clip-path="url(#p770339c02b)" style="fill: none; stroke: #b8b8b8; stroke-opacity: 0.28; stroke-width: 0.75; stroke-linecap: square"/>
   </g>
   <g id="line2d_16">
    <path d="M 48.15432 16.64964 
L 49.664512 16.64964 
L 50.419608 51.692498 
L 51.9298 51.692498 
L 52.684896 58.895281 
L 53.439992 63.314804 
L 54.950184 63.314804 
L 55.70528 64.148709 
L 57.215472 64.148709 
L 57.970568 69.880033 
L 58.725664 71.514405 
L 59.48076 78.82673 
L 60.235856 83.781538 
L 60.990952 83.781538 
L 61.746048 92.503317 
L 63.25624 92.503317 
L 64.011336 94.310499 
L 65.521528 94.310499 
L 66.276624 98.052534 
L 67.03172 98.052534 
L 67.786816 101.254706 
L 69.297008 101.254706 
L 70.052104 102.325483 
L 73.072488 102.325483 
L 73.827584 102.583633 
L 74.58268 102.583633 
L 75.337776 109.448103 
L 78.35816 109.448103 
L 79.113256 110.950354 
L 79.868352 110.977695 
L 80.623448 112.475778 
L 88.174408 112.475778 
L 88.929504 113.345203 
L 91.949888 113.345203 
L 92.704984 113.85686 
L 93.46008 115.556476 
L 94.215176 116.156633 
L 101.01104 116.156633 
L 101.766136 116.600819 
L 102.521232 117.910336 
L 104.031424 117.910336 
L 104.78652 119.654564 
L 105.541616 119.90231 
L 106.296712 119.90231 
L 107.051808 125.459124 
L 107.806904 125.459124 
L 108.562 126.099152 
L 113.092576 126.099152 
L 113.847672 126.294455 
L 114.602768 126.659013 
L 119.88844 126.726157 
L 120.643536 130.537739 
L 121.398632 132.969055 
L 125.174112 132.969055 
L 125.929208 133.600307 
L 129.704688 133.600307 
L 131.21488 135.615449 
L 131.969976 135.615449 
L 132.725072 136.019131 
L 134.235264 136.019131 
L 134.99036 136.372188 
L 144.051512 136.372188 
L 144.806608 136.498025 
L 153.112664 136.498025 
L 153.86776 137.130347 
L 154.622856 137.130347 
L 155.377952 137.425534 
L 161.41872 137.425534 
L 162.173816 137.566385 
L 169.724776 137.566385 
L 170.479872 138.318598 
L 178.030832 138.318598 
L 178.785928 141.256204 
L 179.541024 142.524049 
L 180.29612 142.748382 
L 190.867464 142.748382 
L 191.62256 143.473291 
L 196.153136 143.473291 
L 196.908232 144.509581 
L 204.459192 144.509581 
L 205.214288 144.871839 
L 226.356976 144.871839 
L 227.112072 145.105655 
L 227.867168 146.375955 
L 242.213992 146.375955 
L 242.969088 146.747822 
L 253.540432 146.747822 
L 254.295528 147.691273 
L 261.091392 147.691273 
L 261.846488 147.976197 
L 265.621968 147.976197 
L 266.377064 148.334016 
L 276.948408 148.334016 
L 277.703504 148.728469 
L 278.4586 150.439072 
L 289.78504 150.439072 
L 290.540136 151.112863 
L 293.56052 151.112863 
L 294.315616 151.376065 
L 300.356384 151.376065 
L 301.11148 151.630634 
L 313.193016 151.630634 
L 313.948112 152.856316 
L 355.478392 152.879688 
L 356.233488 153.344759 
L 356.988584 153.344759 
L 357.74368 153.862279 
L 375.110888 153.862279 
L 375.865984 156.62295 
L 393.988288 156.62295 
L 394.743384 156.758691 
L 397.763768 156.801831 
L 398.518864 156.963313 
L 403.04944 156.963313 
L 403.804536 157.642218 
L 421.171744 157.642218 
L 421.92684 158.961152 
L 425.70232 158.961152 
L 425.70232 158.961152 
" clip-path="url(#p770339c02b)" style="fill: none; stroke: #b8b8b8; stroke-opacity: 0.28; stroke-width: 0.75; stroke-linecap: square"/>
   </g>
   <g id="line2d_17">
    <path d="M 48.15432 16.64964 
L 48.909416 43.620488 
L 55.70528 43.620488 
L 56.460376 47.694304 
L 57.215472 47.904048 
L 58.725664 47.904048 
L 59.48076 48.40771 
L 60.235856 51.291436 
L 61.746048 51.325167 
L 62.501144 53.610357 
L 63.25624 58.363955 
L 64.011336 59.698503 
L 64.766432 59.959567 
L 65.521528 65.536209 
L 66.276624 72.005988 
L 67.03172 72.231441 
L 67.786816 72.231441 
L 68.541912 73.591798 
L 69.297008 73.591798 
L 70.052104 74.870031 
L 73.072488 74.870031 
L 73.827584 75.038767 
L 74.58268 91.665402 
L 75.337776 91.665402 
L 76.092872 92.396273 
L 79.868352 92.437305 
L 80.623448 92.588503 
L 84.398928 92.588503 
L 85.154024 95.630617 
L 85.90912 95.630617 
L 86.664216 100.013104 
L 87.419312 110.938827 
L 88.929504 110.938827 
L 89.6846 112.220096 
L 91.949888 112.220096 
L 92.704984 115.352165 
L 94.215176 115.352165 
L 94.970272 116.303149 
L 95.725368 116.303149 
L 96.480464 116.940422 
L 98.745752 116.940422 
L 99.500848 118.11235 
L 100.255944 118.11235 
L 101.01104 119.15701 
L 107.806904 119.15701 
L 108.562 120.321431 
L 109.317096 120.321431 
L 110.072192 120.793801 
L 112.33748 120.793801 
L 113.092576 122.821402 
L 113.847672 122.821402 
L 114.602768 123.581626 
L 118.378248 123.581626 
L 119.133344 127.152305 
L 122.153728 127.152305 
L 122.908824 127.40912 
L 135.745456 127.40912 
L 136.500552 128.05871 
L 139.520936 128.05871 
L 140.276032 128.25394 
L 144.806608 128.25394 
L 145.561704 129.428371 
L 153.86776 129.428371 
L 154.622856 130.082929 
L 158.398336 130.082929 
L 159.153432 131.644944 
L 178.030832 131.644944 
L 178.785928 133.252136 
L 183.316504 133.252136 
L 184.0716 133.790589 
L 195.39804 133.790589 
L 196.153136 134.189688 
L 218.806016 134.210767 
L 219.561112 134.450729 
L 227.867168 134.450729 
L 228.622264 138.855316 
L 233.15284 138.855316 
L 233.907936 139.008038 
L 254.295528 139.008038 
L 255.050624 139.619091 
L 258.071008 139.654982 
L 261.846488 139.654982 
L 262.601584 139.910271 
L 278.4586 140.010006 
L 279.213696 140.174222 
L 302.621672 140.174222 
L 303.376768 140.351919 
L 308.66244 140.351919 
L 309.417536 140.527524 
L 339.621376 140.536734 
L 340.376472 140.981065 
L 353.213104 140.981065 
L 353.9682 141.503254 
L 362.274256 141.593433 
L 363.784448 141.657767 
L 422.681936 141.658848 
L 423.437032 142.832358 
L 425.70232 142.832358 
L 425.70232 142.832358 
" clip-path="url(#p770339c02b)" style="fill: none; stroke: #b8b8b8; stroke-opacity: 0.28; stroke-width: 0.75; stroke-linecap: square"/>
   </g>
   <g id="line2d_18">
    <path d="M 48.15432 16.64964 
L 51.9298 16.64964 
L 52.684896 17.604231 
L 53.439992 17.604231 
L 54.195088 17.825624 
L 54.950184 17.825624 
L 55.70528 53.84462 
L 57.215472 53.851771 
L 57.970568 61.6215 
L 60.235856 61.6215 
L 60.990952 64.404333 
L 62.501144 64.404333 
L 63.25624 82.960268 
L 64.011336 89.03574 
L 66.276624 89.03574 
L 67.03172 97.590612 
L 69.297008 97.590612 
L 70.052104 102.987807 
L 72.317392 102.987807 
L 73.072488 104.525295 
L 73.827584 105.26861 
L 74.58268 105.26861 
L 75.337776 114.150134 
L 77.603064 114.150134 
L 78.35816 119.546809 
L 79.113256 120.037339 
L 80.623448 120.037339 
L 81.378544 121.477742 
L 86.664216 121.477742 
L 87.419312 122.00621 
L 89.6846 122.00621 
L 90.439696 123.230515 
L 99.500848 123.336055 
L 101.01104 123.426779 
L 101.766136 123.426779 
L 102.521232 125.142781 
L 104.031424 125.142781 
L 104.78652 125.584281 
L 110.072192 125.689413 
L 110.827288 125.937722 
L 116.11296 125.96392 
L 116.868056 129.851879 
L 117.623152 130.746713 
L 126.684304 130.746713 
L 127.4394 131.739617 
L 128.194496 131.739617 
L 128.949592 132.194015 
L 136.500552 132.253057 
L 137.255648 134.141554 
L 138.76584 134.17768 
L 139.520936 135.004259 
L 144.051512 135.004259 
L 144.806608 138.502679 
L 145.561704 138.80611 
L 154.622856 138.80611 
L 155.377952 139.88671 
L 159.908528 139.996562 
L 160.663624 142.002138 
L 165.949296 142.002138 
L 166.704392 142.248385 
L 168.214584 142.248385 
L 168.96968 142.87505 
L 169.724776 142.87505 
L 170.479872 143.242741 
L 185.581792 143.331451 
L 186.336888 143.500512 
L 189.357272 143.52516 
L 190.112368 143.982085 
L 195.39804 143.982085 
L 196.153136 144.262244 
L 197.663328 144.262244 
L 198.418424 146.993191 
L 214.27544 146.993415 
L 215.030536 147.119582 
L 218.806016 147.119582 
L 219.561112 147.38535 
L 221.071304 147.476996 
L 233.15284 147.476996 
L 233.907936 147.747142 
L 237.683416 147.747142 
L 238.438512 149.075635 
L 245.989472 149.075635 
L 246.744568 150.110542 
L 258.826104 150.110542 
L 259.5812 150.363594 
L 278.4586 150.363594 
L 279.213696 153.543553 
L 296.580904 153.573105 
L 297.336 154.063031 
L 310.172632 154.156081 
L 310.927728 155.577013 
L 335.845896 155.672793 
L 337.356088 155.748916 
L 341.886664 155.748916 
L 342.64176 155.929206 
L 409.090208 155.929206 
L 409.845304 156.629449 
L 425.70232 156.629449 
L 425.70232 156.629449 
" clip-path="url(#p770339c02b)" style="fill: none; stroke: #b8b8b8; stroke-opacity: 0.28; stroke-width: 0.75; stroke-linecap: square"/>
   </g>
   <g id="line2d_19">
    <path d="M 48.15432 16.64964 
L 51.9298 16.64964 
L 52.684896 31.513475 
L 53.439992 31.513475 
L 54.195088 31.960821 
L 57.215472 31.960821 
L 57.970568 36.284508 
L 58.725664 36.284508 
L 59.48076 38.614897 
L 63.25624 38.614897 
L 64.011336 39.6163 
L 64.766432 39.6163 
L 65.521528 39.760017 
L 68.541912 39.760017 
L 69.297008 46.019696 
L 70.052104 46.019696 
L 70.8072 47.19818 
L 73.072488 47.19818 
L 73.827584 54.035318 
L 75.337776 54.035318 
L 76.092872 54.552069 
L 76.847968 54.552069 
L 77.603064 58.00459 
L 82.888736 58.00459 
L 83.643832 58.31051 
L 85.90912 58.31051 
L 86.664216 60.308471 
L 91.194792 60.308471 
L 91.949888 60.93463 
L 93.46008 60.93463 
L 94.215176 62.544834 
L 97.990656 62.544834 
L 98.745752 62.907894 
L 99.500848 62.907894 
L 100.255944 63.409864 
L 101.01104 98.057389 
L 107.806904 98.057389 
L 108.562 99.300483 
L 109.317096 99.300483 
L 110.072192 99.555486 
L 112.33748 99.555486 
L 113.092576 100.490589 
L 117.623152 100.492488 
L 118.378248 100.820988 
L 120.643536 100.820988 
L 121.398632 100.939442 
L 131.21488 100.939442 
L 131.969976 101.190353 
L 134.99036 101.190353 
L 135.745456 104.111539 
L 136.500552 104.111539 
L 137.255648 123.817244 
L 145.561704 123.817244 
L 146.3168 126.579076 
L 148.582088 126.579076 
L 149.337184 126.868064 
L 153.86776 126.868064 
L 154.622856 144.121078 
L 155.377952 144.121078 
L 156.133048 152.205419 
L 156.888144 152.205419 
L 157.64324 166.59599 
L 158.398336 166.59599 
L 159.153432 168.705339 
L 159.908528 169.583374 
L 164.439104 169.583374 
L 165.1942 169.756428 
L 176.52064 169.7587 
L 177.275736 170.338525 
L 181.051216 170.368196 
L 181.806312 170.785612 
L 183.316504 170.785612 
L 184.0716 171.033005 
L 185.581792 171.134019 
L 186.336888 171.134019 
L 187.091984 171.723796 
L 191.62256 171.723796 
L 192.377656 173.112823 
L 193.132752 173.569528 
L 196.153136 173.569528 
L 196.908232 173.805895 
L 202.193904 173.805895 
L 202.949 174.664999 
L 205.969384 174.664999 
L 206.72448 174.952868 
L 207.479576 174.964175 
L 208.234672 176.45337 
L 210.49996 176.478607 
L 211.255056 176.803701 
L 212.010152 176.803701 
L 212.765248 177.109933 
L 214.27544 177.198114 
L 215.785632 177.198114 
L 216.540728 177.385296 
L 221.071304 177.385296 
L 221.8264 179.491437 
L 235.418128 179.491437 
L 236.173224 179.720256 
L 270.90764 179.761103 
L 271.662736 180.387899 
L 273.172928 180.450164 
L 304.131864 180.509778 
L 304.88696 180.745889 
L 307.907344 180.837253 
L 308.66244 181.283794 
L 332.070416 181.283794 
L 332.825512 181.505506 
L 362.274256 181.505506 
L 363.029352 181.677051 
L 374.355792 181.677051 
L 375.110888 181.819593 
L 390.212808 181.819593 
L 390.967904 182.014433 
L 425.70232 182.069151 
L 425.70232 182.069151 
" clip-path="url(#p770339c02b)" style="fill: none; stroke: #b8b8b8; stroke-opacity: 0.28; stroke-width: 0.75; stroke-linecap: square"/>
   </g>
   <g id="line2d_20">
    <path d="M 48.15432 16.64964 
L 48.909416 31.287845 
L 52.684896 31.287845 
L 53.439992 36.793512 
L 54.195088 36.793512 
L 54.950184 40.594948 
L 55.70528 52.82687 
L 56.460376 62.57444 
L 57.215472 62.57444 
L 57.970568 64.537832 
L 59.48076 64.537832 
L 60.235856 66.60868 
L 60.990952 88.116083 
L 61.746048 90.446984 
L 62.501144 91.17708 
L 71.562296 91.17708 
L 73.072488 94.129939 
L 76.847968 94.129939 
L 77.603064 98.706386 
L 78.35816 106.924471 
L 79.113256 106.924471 
L 79.868352 107.449712 
L 82.13364 107.449712 
L 82.888736 109.524919 
L 84.398928 109.524919 
L 85.154024 116.249039 
L 85.90912 117.159089 
L 86.664216 117.159089 
L 87.419312 122.190866 
L 93.46008 122.190866 
L 94.215176 122.396783 
L 94.970272 122.396783 
L 95.725368 124.451328 
L 96.480464 125.765447 
L 102.521232 125.765447 
L 103.276328 126.056416 
L 104.031424 126.056416 
L 104.78652 126.819876 
L 111.582384 126.819876 
L 112.33748 127.321967 
L 114.602768 127.321967 
L 115.357864 127.470889 
L 117.623152 127.470889 
L 118.378248 128.158413 
L 119.88844 128.158413 
L 120.643536 129.199792 
L 122.908824 129.199792 
L 123.66392 130.097628 
L 132.725072 130.097628 
L 133.480168 130.73444 
L 137.255648 130.73444 
L 138.010744 132.595835 
L 141.786224 132.595835 
L 142.54132 133.195137 
L 143.296416 133.195137 
L 144.051512 133.549467 
L 144.806608 133.774893 
L 152.357568 133.774893 
L 153.112664 134.5031 
L 156.133048 134.5031 
L 156.888144 135.814598 
L 164.439104 135.814598 
L 165.1942 135.944611 
L 181.051216 136.042013 
L 181.806312 137.073203 
L 183.316504 137.073203 
L 184.0716 137.65476 
L 185.581792 137.65476 
L 186.336888 138.249003 
L 187.091984 138.249003 
L 187.84708 138.768804 
L 196.153136 138.768804 
L 196.908232 139.391675 
L 211.255056 139.391675 
L 212.010152 139.769263 
L 225.60188 139.769263 
L 226.356976 140.606918 
L 237.683416 140.606918 
L 238.438512 141.375498 
L 290.540136 141.456255 
L 291.295232 141.576917 
L 316.968496 141.576917 
L 317.723592 141.735583 
L 321.499072 141.761448 
L 374.355792 141.822262 
L 375.110888 141.976947 
L 425.70232 141.976947 
L 425.70232 141.976947 
" clip-path="url(#p770339c02b)" style="fill: none; stroke: #b8b8b8; stroke-opacity: 0.28; stroke-width: 0.75; stroke-linecap: square"/>
   </g>
   <g id="line2d_21">
    <path d="M 48.15432 16.64964 
L 48.909416 19.205384 
L 49.664512 19.205384 
L 51.174704 41.074996 
L 54.195088 41.074996 
L 54.950184 46.784097 
L 55.70528 54.335588 
L 56.460376 54.335588 
L 57.215472 55.16664 
L 59.48076 55.16664 
L 60.235856 55.742239 
L 60.990952 78.362927 
L 61.746048 78.362927 
L 62.501144 82.041739 
L 63.25624 83.322647 
L 64.011336 83.322647 
L 64.766432 84.773027 
L 65.521528 84.773027 
L 66.276624 85.105025 
L 67.03172 88.346516 
L 74.58268 88.346516 
L 75.337776 88.515367 
L 76.092872 89.027163 
L 76.847968 89.19697 
L 80.623448 89.19697 
L 81.378544 89.961019 
L 87.419312 89.961019 
L 88.174408 90.943338 
L 92.704984 90.943338 
L 93.46008 91.571166 
L 96.480464 91.571166 
L 97.23556 97.694263 
L 98.745752 97.694263 
L 99.500848 103.148011 
L 101.766136 103.148011 
L 102.521232 103.65766 
L 103.276328 104.834153 
L 104.031424 104.834153 
L 104.78652 105.868064 
L 105.541616 107.283646 
L 106.296712 107.283646 
L 107.051808 107.560245 
L 116.868056 107.560245 
L 117.623152 110.337915 
L 131.969976 110.337915 
L 132.725072 112.374571 
L 133.480168 112.522321 
L 134.235264 114.768754 
L 134.99036 114.768754 
L 135.745456 115.472018 
L 141.786224 115.472018 
L 143.296416 118.08191 
L 147.826992 118.08191 
L 148.582088 118.694484 
L 153.112664 118.694484 
L 153.86776 119.905201 
L 168.214584 119.958826 
L 168.96968 120.292616 
L 185.581792 120.292616 
L 186.336888 120.511628 
L 193.887848 120.511628 
L 194.642944 121.312708 
L 195.39804 123.26714 
L 196.153136 123.591451 
L 208.989768 123.613691 
L 209.744864 125.109517 
L 217.295824 125.109517 
L 218.05092 125.270169 
L 229.37736 125.270169 
L 230.132456 126.333356 
L 238.438512 126.333356 
L 239.193608 126.715869 
L 239.948704 127.290526 
L 245.234376 127.290526 
L 245.989472 128.882136 
L 249.764952 128.882136 
L 250.520048 129.227151 
L 255.80572 129.227151 
L 256.560816 129.65012 
L 258.071008 129.65012 
L 258.826104 129.893725 
L 262.601584 129.893725 
L 263.35668 130.136298 
L 266.377064 130.136298 
L 267.13216 130.386969 
L 273.172928 130.386969 
L 273.928024 130.748484 
L 295.070712 130.748484 
L 295.825808 130.974342 
L 296.580904 130.974342 
L 297.336 131.184505 
L 303.376768 131.184505 
L 304.131864 131.701064 
L 304.88696 131.884026 
L 305.642056 132.30565 
L 310.172632 132.30565 
L 310.927728 132.856788 
L 311.682824 133.180878 
L 312.43792 134.13793 
L 323.76436 134.13793 
L 324.519456 134.830538 
L 325.274552 135.083047 
L 332.070416 135.171311 
L 332.825512 135.961193 
L 338.111184 135.96569 
L 338.86628 136.219824 
L 341.131568 136.219824 
L 341.886664 136.387299 
L 374.355792 136.387299 
L 375.110888 136.550078 
L 380.39656 136.550078 
L 381.151656 137.690572 
L 384.17204 137.690572 
L 384.927136 138.004557 
L 393.233192 138.09763 
L 393.988288 138.225211 
L 425.70232 138.304326 
L 425.70232 138.304326 
" clip-path="url(#p770339c02b)" style="fill: none; stroke: #b8b8b8; stroke-opacity: 0.28; stroke-width: 0.75; stroke-linecap: square"/>
   </g>
   <g id="line2d_22">
    <path d="M 48.15432 16.64964 
L 48.909416 16.773134 
L 50.419608 16.773134 
L 51.174704 19.078422 
L 51.9298 19.078422 
L 52.684896 39.198478 
L 58.725664 39.274152 
L 59.48076 39.776834 
L 60.235856 39.776834 
L 61.746048 123.596874 
L 62.501144 127.459068 
L 64.011336 127.459068 
L 64.766432 131.072013 
L 67.786816 131.072013 
L 68.541912 131.435016 
L 69.297008 131.435016 
L 70.052104 132.835411 
L 71.562296 132.835411 
L 72.317392 141.871106 
L 73.072488 143.035521 
L 77.603064 143.035521 
L 78.35816 144.803974 
L 79.113256 145.624457 
L 80.623448 145.699006 
L 81.378544 146.814795 
L 82.13364 146.814795 
L 82.888736 148.242121 
L 84.398928 148.242121 
L 85.154024 148.63693 
L 85.90912 148.63693 
L 86.664216 148.768349 
L 91.949888 148.768349 
L 92.704984 149.156446 
L 100.255944 149.258565 
L 101.01104 150.49334 
L 101.766136 151.408657 
L 103.276328 151.408657 
L 104.031424 152.371267 
L 107.806904 152.454404 
L 108.562 153.932436 
L 110.827288 153.932436 
L 111.582384 154.45366 
L 114.602768 154.45366 
L 115.357864 154.743503 
L 116.11296 154.743503 
L 116.868056 155.159987 
L 117.623152 155.159987 
L 118.378248 157.181073 
L 127.4394 157.181073 
L 128.194496 157.794488 
L 129.704688 157.823986 
L 130.459784 159.314089 
L 131.21488 162.687538 
L 131.969976 164.502656 
L 138.010744 164.537123 
L 138.76584 165.103428 
L 139.520936 165.948519 
L 141.031128 165.948519 
L 141.786224 168.4018 
L 149.337184 168.451577 
L 150.09228 169.006954 
L 153.112664 169.006954 
L 153.86776 169.506748 
L 155.377952 169.506748 
L 156.133048 170.551147 
L 158.398336 170.551147 
L 159.153432 170.895939 
L 161.41872 171.12905 
L 163.684008 171.12905 
L 165.949296 171.930536 
L 170.479872 171.930536 
L 171.234968 172.191586 
L 171.990064 176.805089 
L 172.74516 177.423582 
L 173.500256 177.653122 
L 174.255352 177.653122 
L 175.010448 177.96842 
L 175.765544 178.491879 
L 178.030832 178.491879 
L 178.785928 178.757181 
L 183.316504 178.757181 
L 184.0716 182.397107 
L 187.84708 182.397107 
L 188.602176 187.586483 
L 192.377656 187.613901 
L 193.132752 187.8853 
L 195.39804 187.8853 
L 196.153136 188.425205 
L 199.17352 188.425205 
L 199.928616 189.445281 
L 205.214288 189.445281 
L 205.969384 190.013265 
L 208.989768 190.013265 
L 209.744864 190.147578 
L 224.846784 190.167885 
L 225.60188 190.778006 
L 226.356976 190.947078 
L 232.397744 190.947078 
L 233.15284 191.418577 
L 233.907936 191.418577 
L 234.663032 192.365963 
L 235.418128 192.931939 
L 236.92832 192.931939 
L 237.683416 193.979525 
L 245.234376 194.006346 
L 245.989472 194.227115 
L 268.642352 194.26876 
L 270.152544 194.548344 
L 297.336 194.601379 
L 298.846192 194.695209 
L 305.642056 194.695209 
L 306.397152 194.878944 
L 322.254168 194.878944 
L 323.009264 195.121617 
L 338.86628 195.175572 
L 339.621376 195.567959 
L 344.907048 195.567959 
L 345.662144 195.971706 
L 400.029056 195.971706 
L 400.784152 196.092405 
L 406.069824 196.092405 
L 406.82492 196.222097 
L 418.906456 196.222097 
L 419.661552 196.385311 
L 425.70232 196.385311 
L 425.70232 196.385311 
" clip-path="url(#p770339c02b)" style="fill: none; stroke: #b8b8b8; stroke-opacity: 0.28; stroke-width: 0.75; stroke-linecap: square"/>
   </g>
   <g id="line2d_23">
    <path d="M 48.15432 16.64964 
L 48.909416 16.64964 
L 49.664512 21.752604 
L 51.174704 21.752604 
L 51.9298 23.750636 
L 52.684896 23.750636 
L 53.439992 30.18318 
L 54.195088 30.18318 
L 55.70528 42.696674 
L 56.460376 42.696674 
L 57.215472 44.629423 
L 57.970568 50.810646 
L 58.725664 51.226031 
L 59.48076 51.226031 
L 60.235856 52.865482 
L 60.990952 58.702389 
L 61.746048 61.671883 
L 62.501144 65.264818 
L 63.25624 65.504885 
L 64.011336 65.504885 
L 64.766432 72.092692 
L 65.521528 72.25647 
L 66.276624 76.340943 
L 67.03172 78.119904 
L 70.052104 78.119904 
L 70.8072 78.857293 
L 71.562296 78.857293 
L 72.317392 84.974887 
L 78.35816 84.974887 
L 79.113256 88.089979 
L 80.623448 88.089979 
L 81.378544 88.440931 
L 82.13364 90.952499 
L 88.929504 90.952499 
L 89.6846 92.113405 
L 90.439696 92.504857 
L 91.194792 92.504857 
L 91.949888 93.587966 
L 95.725368 93.587966 
L 96.480464 93.819906 
L 97.23556 98.361533 
L 98.745752 98.361533 
L 99.500848 99.635777 
L 100.255944 104.880335 
L 101.766136 104.880335 
L 102.521232 105.358728 
L 103.276328 105.358728 
L 104.031424 105.734569 
L 118.378248 105.734569 
L 119.133344 108.616772 
L 121.398632 108.616772 
L 122.153728 109.273734 
L 138.76584 109.319716 
L 139.520936 110.643014 
L 140.276032 110.999531 
L 141.031128 116.426876 
L 141.786224 116.426876 
L 142.54132 116.587789 
L 144.806608 116.587789 
L 145.561704 117.508407 
L 147.071896 117.589842 
L 149.337184 117.589842 
L 150.09228 119.96435 
L 150.847376 121.122402 
L 152.357568 121.122402 
L 153.112664 121.546789 
L 159.153432 121.546789 
L 159.908528 121.757568 
L 163.684008 121.757568 
L 164.439104 122.45214 
L 173.500256 122.45214 
L 174.255352 124.109314 
L 175.010448 124.237908 
L 184.826696 124.237908 
L 185.581792 124.486146 
L 192.377656 124.486146 
L 193.132752 124.727934 
L 193.887848 125.276003 
L 198.418424 125.276003 
L 199.17352 125.534703 
L 202.949 125.534703 
L 203.704096 126.771633 
L 205.969384 126.771633 
L 206.72448 127.551518 
L 210.49996 127.551518 
L 211.255056 128.181381 
L 212.765248 128.181381 
L 213.520344 128.73746 
L 220.316208 128.73746 
L 221.071304 128.857125 
L 224.846784 128.857125 
L 225.60188 129.472698 
L 228.622264 129.472698 
L 229.37736 130.009276 
L 230.887552 130.009276 
L 231.642648 130.368031 
L 233.15284 130.368031 
L 233.907936 130.955923 
L 241.458896 131.013551 
L 242.969088 131.116312 
L 255.050624 131.159415 
L 255.80572 131.338344 
L 258.826104 131.338344 
L 259.5812 132.835445 
L 261.846488 132.835445 
L 262.601584 133.182242 
L 264.111776 133.182242 
L 264.866872 133.72191 
L 295.825808 133.73883 
L 296.580904 134.038651 
L 301.866576 134.038651 
L 302.621672 134.198911 
L 303.376768 135.692519 
L 311.682824 135.692519 
L 312.43792 135.83842 
L 342.64176 135.904754 
L 344.151952 135.981391 
L 363.029352 135.981391 
L 363.784448 137.078178 
L 366.804832 137.078178 
L 367.559928 137.434716 
L 372.8456 137.434716 
L 373.600696 138.004701 
L 396.253576 138.004701 
L 397.008672 138.423707 
L 404.559632 138.423707 
L 405.314728 139.15782 
L 412.110592 139.15782 
L 412.865688 139.347824 
L 425.70232 139.347824 
L 425.70232 139.347824 
" clip-path="url(#p770339c02b)" style="fill: none; stroke: #b8b8b8; stroke-opacity: 0.28; stroke-width: 0.75; stroke-linecap: square"/>
   </g>
   <g id="line2d_24">
    <path d="M 48.15432 16.64964 
L 48.909416 16.64964 
L 49.664512 20.27487 
L 50.419608 20.27487 
L 51.174704 20.854913 
L 51.9298 20.854913 
L 52.684896 21.301555 
L 53.439992 21.378839 
L 54.195088 28.425711 
L 55.70528 28.425711 
L 56.460376 30.633073 
L 57.970568 30.633073 
L 58.725664 36.001263 
L 59.48076 37.505263 
L 62.501144 37.505263 
L 63.25624 49.122631 
L 64.011336 49.122631 
L 64.766432 51.26279 
L 65.521528 51.574157 
L 67.786816 51.574157 
L 68.541912 53.220098 
L 69.297008 53.220098 
L 70.052104 54.969578 
L 70.8072 54.969578 
L 71.562296 55.860688 
L 72.317392 55.860688 
L 73.072488 60.068813 
L 75.337776 60.068813 
L 76.092872 60.669905 
L 76.847968 62.648095 
L 77.603064 62.648095 
L 78.35816 65.87138 
L 83.643832 65.87138 
L 84.398928 68.859276 
L 85.154024 68.859276 
L 85.90912 71.763825 
L 87.419312 71.821937 
L 88.174408 72.430179 
L 88.929504 72.430179 
L 89.6846 72.934656 
L 98.745752 73.016783 
L 99.500848 75.133023 
L 100.255944 86.962257 
L 104.031424 86.962257 
L 104.78652 98.957733 
L 109.317096 98.957733 
L 110.072192 101.811629 
L 116.11296 101.811629 
L 116.868056 101.986465 
L 119.88844 101.986465 
L 120.643536 105.555523 
L 122.153728 106.456126 
L 122.908824 109.654016 
L 128.949592 109.69028 
L 129.704688 110.479014 
L 130.459784 110.479014 
L 131.21488 111.134809 
L 144.051512 111.134809 
L 144.806608 111.863129 
L 149.337184 111.863129 
L 150.09228 112.291489 
L 156.133048 112.332723 
L 156.888144 113.566604 
L 175.010448 113.566604 
L 175.765544 113.924137 
L 179.541024 113.924137 
L 180.29612 114.041437 
L 182.561408 114.041437 
L 183.316504 114.982907 
L 185.581792 114.982907 
L 186.336888 115.68484 
L 187.091984 115.68484 
L 187.84708 115.935568 
L 196.153136 115.935568 
L 196.908232 116.899622 
L 197.663328 117.098105 
L 198.418424 118.005226 
L 215.030536 118.005226 
L 215.785632 121.755645 
L 234.663032 121.755645 
L 235.418128 122.761079 
L 249.009856 122.761079 
L 249.764952 122.904624 
L 254.295528 122.904624 
L 255.050624 124.674705 
L 271.662736 124.693993 
L 272.417832 125.004012 
L 276.193312 125.055681 
L 276.948408 125.710163 
L 298.846192 125.742844 
L 299.601288 126.22915 
L 315.458304 126.22915 
L 316.2134 126.573182 
L 317.723592 126.6794 
L 348.682528 126.6794 
L 349.437624 127.317703 
L 406.069824 127.378271 
L 406.82492 129.018198 
L 411.355496 129.123016 
L 412.865688 129.192772 
L 425.70232 129.192772 
L 425.70232 129.192772 
" clip-path="url(#p770339c02b)" style="fill: none; stroke: #b8b8b8; stroke-opacity: 0.28; stroke-width: 0.75; stroke-linecap: square"/>
   </g>
   <g id="line2d_25">
    <path d="M 48.15432 16.64964 
L 51.9298 16.64964 
L 53.439992 35.917611 
L 55.70528 35.917611 
L 56.460376 38.179117 
L 57.215472 41.796217 
L 60.235856 41.796217 
L 60.990952 44.952593 
L 61.746048 44.952593 
L 62.501144 47.83964 
L 64.011336 47.83964 
L 64.766432 56.048183 
L 65.521528 56.048183 
L 66.276624 73.419006 
L 67.03172 80.368111 
L 73.072488 80.368111 
L 73.827584 80.852162 
L 74.58268 80.852162 
L 75.337776 84.710273 
L 76.092872 86.040626 
L 79.113256 86.040626 
L 80.623448 86.498063 
L 81.378544 86.498063 
L 82.13364 99.201044 
L 85.154024 99.201044 
L 85.90912 100.876222 
L 87.419312 100.876222 
L 88.174408 102.173109 
L 88.929504 102.173109 
L 89.6846 103.859381 
L 94.970272 103.859454 
L 95.725368 104.168585 
L 96.480464 105.453385 
L 99.500848 105.518841 
L 101.01104 105.611697 
L 104.031424 105.611697 
L 104.78652 108.888396 
L 110.072192 108.888396 
L 110.827288 111.211418 
L 116.868056 111.211418 
L 117.623152 118.706059 
L 119.133344 118.706059 
L 119.88844 119.16282 
L 124.419016 119.16282 
L 125.174112 120.261322 
L 125.929208 121.870515 
L 129.704688 121.870515 
L 130.459784 122.383564 
L 139.520936 122.383564 
L 140.276032 123.733285 
L 141.031128 123.733285 
L 141.786224 123.911396 
L 142.54132 124.832149 
L 143.296416 124.991513 
L 147.826992 125.046011 
L 148.582088 125.64436 
L 153.112664 125.736278 
L 153.86776 126.186501 
L 174.255352 126.186501 
L 175.010448 128.279035 
L 178.785928 128.279035 
L 179.541024 128.600963 
L 180.29612 129.438648 
L 181.806312 129.438648 
L 182.561408 129.773055 
L 187.84708 129.773055 
L 188.602176 130.24837 
L 202.193904 130.24837 
L 202.949 133.889599 
L 212.010152 133.889599 
L 212.765248 134.147587 
L 219.561112 134.147587 
L 220.316208 134.537433 
L 223.336592 134.537433 
L 224.091688 134.876752 
L 231.642648 134.876752 
L 232.397744 135.379062 
L 240.7038 135.379062 
L 241.458896 135.966315 
L 245.989472 135.966315 
L 246.744568 136.154326 
L 248.25476 136.154326 
L 249.009856 136.643347 
L 255.050624 136.643347 
L 255.80572 136.778032 
L 279.213696 136.845222 
L 280.723888 136.920288 
L 289.029944 136.920288 
L 289.78504 138.099824 
L 334.335704 138.205017 
L 335.0908 138.503384 
L 344.907048 138.503384 
L 345.662144 138.754249 
L 347.927432 138.754249 
L 348.682528 138.950288 
L 383.416944 138.950288 
L 384.17204 139.276317 
L 389.457712 139.320323 
L 390.212808 139.595081 
L 412.110592 139.665448 
L 412.865688 140.291122 
L 425.70232 140.291122 
L 425.70232 140.291122 
" clip-path="url(#p770339c02b)" style="fill: none; stroke: #b8b8b8; stroke-opacity: 0.28; stroke-width: 0.75; stroke-linecap: square"/>
   </g>
   <g id="line2d_26">
    <path d="M 48.15432 16.64964 
L 48.909416 25.021384 
L 50.419608 25.091687 
L 51.174704 25.091687 
L 51.9298 29.851646 
L 52.684896 29.851646 
L 53.439992 39.624835 
L 54.195088 64.490418 
L 55.70528 64.490418 
L 56.460376 89.979474 
L 57.215472 90.980003 
L 59.48076 90.980003 
L 60.235856 94.521335 
L 64.766432 94.521335 
L 65.521528 95.549158 
L 66.276624 97.032337 
L 67.03172 97.409269 
L 67.786816 97.409269 
L 68.541912 98.211505 
L 70.052104 98.211505 
L 70.8072 100.237648 
L 71.562296 100.560842 
L 72.317392 101.677519 
L 73.072488 101.677519 
L 73.827584 102.301064 
L 76.092872 102.301064 
L 76.847968 103.047553 
L 77.603064 103.047553 
L 78.35816 104.596937 
L 79.113256 108.32657 
L 79.868352 109.771454 
L 80.623448 109.771454 
L 81.378544 112.082746 
L 82.888736 112.082746 
L 83.643832 113.44516 
L 85.154024 113.44516 
L 85.90912 113.757924 
L 86.664216 113.757924 
L 87.419312 114.395969 
L 89.6846 114.395969 
L 90.439696 115.755757 
L 92.704984 115.755757 
L 93.46008 115.921319 
L 95.725368 115.921319 
L 96.480464 116.082754 
L 97.23556 118.248725 
L 101.01104 118.248725 
L 101.766136 118.594165 
L 105.541616 118.594165 
L 106.296712 119.998083 
L 110.072192 119.998083 
L 110.827288 120.261972 
L 111.582384 121.4854 
L 113.092576 121.4854 
L 113.847672 121.647495 
L 140.276032 121.75424 
L 141.031128 123.677176 
L 144.051512 123.677176 
L 144.806608 123.918574 
L 146.3168 123.918574 
L 147.071896 125.462217 
L 150.847376 125.462217 
L 151.602472 128.525887 
L 165.949296 128.531748 
L 166.704392 129.691912 
L 168.96968 129.691912 
L 169.724776 130.074966 
L 172.74516 130.074966 
L 173.500256 131.068399 
L 174.255352 131.068399 
L 175.010448 131.73363 
L 175.765544 133.463324 
L 176.52064 133.674859 
L 179.541024 133.674859 
L 180.29612 134.524683 
L 185.581792 134.524683 
L 186.336888 134.994215 
L 192.377656 134.994215 
L 193.132752 135.179306 
L 193.887848 136.492439 
L 195.39804 136.492439 
L 196.153136 137.029637 
L 196.908232 138.284157 
L 204.459192 138.394194 
L 205.969384 138.461661 
L 212.765248 138.461661 
L 213.520344 140.569448 
L 214.27544 140.569448 
L 215.030536 142.245753 
L 230.132456 142.245753 
L 230.887552 142.50546 
L 234.663032 142.50546 
L 235.418128 142.70338 
L 252.785336 142.743971 
L 253.540432 144.141998 
L 255.050624 144.141998 
L 255.80572 144.331368 
L 272.417832 144.331368 
L 273.172928 144.942954 
L 276.948408 144.942954 
L 277.703504 145.160316 
L 301.11148 145.160316 
L 301.866576 146.30922 
L 309.417536 146.401265 
L 310.172632 146.535077 
L 312.43792 146.535077 
L 313.193016 146.672046 
L 314.703208 146.672046 
L 315.458304 146.816834 
L 319.98888 146.816834 
L 320.743976 147.990208 
L 322.254168 147.990208 
L 323.009264 149.567072 
L 326.029648 149.567072 
L 326.784744 149.896725 
L 363.784448 149.974155 
L 364.539544 150.709939 
L 381.906752 150.709939 
L 382.661848 150.92239 
L 389.457712 150.92239 
L 390.212808 151.375957 
L 425.70232 151.375957 
L 425.70232 151.375957 
" clip-path="url(#p770339c02b)" style="fill: none; stroke: #b8b8b8; stroke-opacity: 0.28; stroke-width: 0.75; stroke-linecap: square"/>
   </g>
   <g id="line2d_27">
    <path d="M 48.15432 16.64964 
L 50.419608 16.64964 
L 51.174704 26.509587 
L 54.195088 26.509587 
L 54.950184 27.116073 
L 55.70528 90.138597 
L 56.460376 91.725845 
L 57.215472 95.216047 
L 58.725664 95.216047 
L 59.48076 101.230779 
L 60.235856 104.402975 
L 64.011336 104.402975 
L 64.766432 130.68482 
L 68.541912 130.68482 
L 69.297008 131.132289 
L 71.562296 131.132289 
L 72.317392 136.153215 
L 73.072488 136.609033 
L 74.58268 136.609033 
L 75.337776 136.885472 
L 76.847968 136.885472 
L 77.603064 137.121722 
L 81.378544 137.19584 
L 82.13364 138.456068 
L 82.888736 139.441309 
L 83.643832 139.441309 
L 84.398928 144.532116 
L 88.174408 144.532116 
L 88.929504 146.359942 
L 91.949888 146.359942 
L 92.704984 147.898489 
L 93.46008 147.898489 
L 94.215176 148.590391 
L 100.255944 148.590391 
L 101.01104 148.741255 
L 103.276328 148.741255 
L 104.031424 148.970808 
L 108.562 148.970808 
L 109.317096 150.413253 
L 112.33748 150.413253 
L 113.092576 151.504809 
L 113.847672 151.742854 
L 116.868056 151.742854 
L 117.623152 152.010997 
L 119.133344 152.010997 
L 119.88844 153.230095 
L 120.643536 156.634196 
L 136.500552 156.634196 
L 137.255648 157.423535 
L 138.76584 157.423535 
L 139.520936 158.665345 
L 141.031128 158.665345 
L 141.786224 160.100574 
L 142.54132 160.100574 
L 143.296416 162.310498 
L 144.051512 162.61785 
L 147.826992 162.61785 
L 148.582088 162.960529 
L 149.337184 162.960529 
L 150.09228 163.123338 
L 150.847376 163.844396 
L 153.86776 163.929985 
L 154.622856 164.726722 
L 167.459488 164.726722 
L 168.214584 164.870831 
L 170.479872 164.883413 
L 171.234968 166.7482 
L 173.500256 166.786854 
L 175.010448 166.786854 
L 175.765544 167.973813 
L 178.785928 167.973813 
L 179.541024 168.175877 
L 182.561408 168.175877 
L 183.316504 168.362562 
L 193.887848 168.406658 
L 194.642944 168.799618 
L 208.989768 168.799618 
L 209.744864 169.531964 
L 210.49996 169.67125 
L 211.255056 170.574848 
L 219.561112 170.577797 
L 220.316208 171.000863 
L 232.397744 171.000863 
L 233.15284 171.444373 
L 234.663032 171.444373 
L 235.418128 171.625851 
L 241.458896 171.703944 
L 242.969088 171.779379 
L 249.764952 171.792556 
L 250.520048 172.644857 
L 259.5812 172.714966 
L 260.336296 173.676577 
L 267.887256 173.752172 
L 268.642352 174.067791 
L 273.928024 174.067791 
L 274.68312 174.642449 
L 275.438216 174.642449 
L 276.193312 175.088514 
L 282.23408 175.088514 
L 282.989176 175.324081 
L 291.295232 175.324081 
L 292.050328 175.705118 
L 297.336 175.705118 
L 298.091096 175.880571 
L 313.948112 175.880571 
L 314.703208 176.042296 
L 337.356088 176.042296 
L 338.111184 176.173694 
L 351.702912 176.204456 
L 352.458008 183.332747 
L 353.9682 183.434942 
L 354.723296 183.434942 
L 355.478392 183.624145 
L 366.049736 183.624145 
L 367.559928 184.160501 
L 374.355792 184.160501 
L 375.110888 184.594219 
L 387.192424 184.594219 
L 387.94752 184.752284 
L 412.865688 184.752284 
L 413.620784 184.900446 
L 425.70232 184.988384 
L 425.70232 184.988384 
" clip-path="url(#p770339c02b)" style="fill: none; stroke: #b8b8b8; stroke-opacity: 0.28; stroke-width: 0.75; stroke-linecap: square"/>
   </g>
   <g id="line2d_28">
    <path d="M 48.15432 16.64964 
L 51.174704 16.64964 
L 51.9298 27.871607 
L 52.684896 27.871607 
L 53.439992 48.091492 
L 54.195088 48.091492 
L 54.950184 51.720483 
L 55.70528 51.720483 
L 56.460376 51.976539 
L 57.215472 57.501201 
L 57.970568 65.813848 
L 59.48076 65.813848 
L 60.235856 76.836502 
L 60.990952 107.824551 
L 62.501144 107.824551 
L 63.25624 109.159397 
L 67.03172 109.159397 
L 67.786816 117.307072 
L 70.8072 117.361872 
L 71.562296 121.649844 
L 80.623448 121.649844 
L 81.378544 122.732465 
L 82.13364 123.585962 
L 84.398928 123.585962 
L 85.154024 124.817613 
L 85.90912 126.418206 
L 86.664216 126.418206 
L 87.419312 127.768569 
L 91.194792 127.768569 
L 91.949888 130.27123 
L 94.215176 130.27123 
L 94.970272 143.049143 
L 95.725368 144.312312 
L 98.745752 144.312312 
L 99.500848 144.447755 
L 100.255944 144.97838 
L 101.01104 144.97838 
L 101.766136 145.750432 
L 104.031424 145.750432 
L 104.78652 147.076824 
L 107.051808 147.077183 
L 107.806904 148.068281 
L 116.11296 148.125295 
L 116.868056 148.868532 
L 117.623152 150.710384 
L 122.908824 150.710384 
L 123.66392 152.923978 
L 128.194496 152.945729 
L 128.949592 154.966636 
L 131.21488 154.966636 
L 131.969976 155.440356 
L 134.99036 155.440356 
L 135.745456 156.699268 
L 155.377952 156.699268 
L 156.133048 157.178108 
L 162.173816 157.178108 
L 162.928912 159.882297 
L 168.96968 159.882297 
L 169.724776 160.428607 
L 171.234968 160.428607 
L 171.990064 164.346388 
L 174.255352 164.346388 
L 175.010448 164.644704 
L 176.52064 164.644704 
L 177.275736 165.150715 
L 181.051216 165.150715 
L 181.806312 165.686789 
L 195.39804 165.686789 
L 196.153136 166.485171 
L 208.234672 166.485171 
L 208.989768 166.707006 
L 221.8264 166.715738 
L 222.581496 167.731769 
L 224.091688 167.731769 
L 224.846784 167.908875 
L 227.112072 167.908875 
L 227.867168 169.191737 
L 243.724184 169.191737 
L 244.47928 170.039101 
L 245.989472 170.039101 
L 246.744568 170.40863 
L 262.601584 170.40863 
L 263.35668 170.95071 
L 264.111776 171.23104 
L 264.866872 171.23104 
L 265.621968 171.96261 
L 270.152544 171.982611 
L 272.417832 171.982611 
L 273.172928 172.787972 
L 279.968792 172.797322 
L 280.723888 173.103631 
L 315.458304 173.158402 
L 316.2134 173.40777 
L 345.662144 173.486248 
L 346.41724 173.602523 
L 366.804832 173.602523 
L 367.559928 173.786288 
L 385.682232 173.786288 
L 386.437328 174.295778 
L 389.457712 174.295778 
L 390.212808 174.421397 
L 397.763768 174.421397 
L 398.518864 175.116504 
L 419.661552 175.116504 
L 420.416648 176.824056 
L 425.70232 176.824056 
L 425.70232 176.824056 
" clip-path="url(#p770339c02b)" style="fill: none; stroke: #b8b8b8; stroke-opacity: 0.28; stroke-width: 0.75; stroke-linecap: square"/>
   </g>
   <g id="line2d_29">
    <path d="M 48.15432 16.64964 
L 48.909416 16.64964 
L 49.664512 16.773994 
L 50.419608 21.593577 
L 53.439992 21.593577 
L 54.195088 21.740049 
L 54.950184 21.740049 
L 55.70528 22.465508 
L 57.215472 22.465508 
L 57.970568 65.827428 
L 58.725664 67.02727 
L 60.990952 67.02727 
L 61.746048 68.212436 
L 65.521528 68.212436 
L 66.276624 69.782615 
L 67.786816 69.782615 
L 68.541912 70.924313 
L 69.297008 71.691977 
L 70.052104 71.964619 
L 73.827584 71.964619 
L 74.58268 80.846482 
L 75.337776 80.846482 
L 76.092872 81.973732 
L 76.847968 99.162404 
L 77.603064 99.162404 
L 78.35816 104.973751 
L 79.113256 104.973751 
L 79.868352 109.660524 
L 81.378544 109.660524 
L 82.13364 119.03044 
L 82.888736 119.03044 
L 83.643832 119.802578 
L 86.664216 119.802578 
L 88.174408 123.354428 
L 88.929504 123.354428 
L 89.6846 124.594503 
L 92.704984 124.594503 
L 93.46008 129.26509 
L 99.500848 129.26509 
L 100.255944 130.9286 
L 101.01104 130.9286 
L 101.766136 132.203412 
L 104.78652 132.203412 
L 105.541616 132.434393 
L 106.296712 132.434393 
L 107.051808 135.398776 
L 109.317096 135.398776 
L 110.072192 135.642784 
L 111.582384 135.642784 
L 112.33748 137.428316 
L 119.88844 137.428316 
L 120.643536 138.710477 
L 125.174112 138.710477 
L 125.929208 144.490756 
L 126.684304 144.490756 
L 127.4394 145.088911 
L 139.520936 145.140326 
L 140.276032 145.35768 
L 148.582088 145.35768 
L 149.337184 145.814987 
L 153.112664 145.814987 
L 153.86776 146.128992 
L 158.398336 146.128992 
L 159.153432 147.090846 
L 159.908528 147.090846 
L 160.663624 147.451904 
L 166.704392 147.534329 
L 167.459488 147.815719 
L 173.500256 147.815719 
L 174.255352 149.698423 
L 196.153136 149.698423 
L 196.908232 150.269544 
L 200.683712 150.269544 
L 201.438808 152.281476 
L 206.72448 152.281476 
L 207.479576 154.106775 
L 211.255056 154.106775 
L 212.010152 156.052205 
L 217.295824 156.052205 
L 218.05092 156.206654 
L 218.806016 157.298111 
L 228.622264 157.325037 
L 229.37736 157.720049 
L 240.7038 157.820367 
L 241.458896 158.008593 
L 265.621968 158.008593 
L 266.377064 158.610063 
L 287.519752 158.610063 
L 288.274848 159.355599 
L 295.825808 159.355599 
L 296.580904 159.633437 
L 303.376768 159.633437 
L 304.131864 160.490822 
L 322.254168 160.568079 
L 323.009264 160.935071 
L 332.070416 160.935071 
L 332.825512 161.287615 
L 334.335704 161.287615 
L 335.0908 165.930984 
L 335.845896 165.930984 
L 336.600992 166.845714 
L 348.682528 166.847464 
L 349.437624 167.073824 
L 353.9682 167.073824 
L 354.723296 167.255992 
L 364.539544 167.255992 
L 365.29464 167.766474 
L 369.825216 167.766474 
L 370.580312 167.930895 
L 379.641464 167.930895 
L 380.39656 168.482612 
L 421.171744 168.488955 
L 421.92684 169.415657 
L 425.70232 169.415657 
L 425.70232 169.415657 
" clip-path="url(#p770339c02b)" style="fill: none; stroke: #b8b8b8; stroke-opacity: 0.28; stroke-width: 0.75; stroke-linecap: square"/>
   </g>
   <g id="line2d_30">
    <path d="M 48.15432 16.64964 
L 48.909416 16.64964 
L 49.664512 17.04991 
L 50.419608 17.04991 
L 51.174704 19.558575 
L 51.9298 19.558575 
L 52.684896 30.605278 
L 53.439992 30.605278 
L 54.195088 31.163317 
L 54.950184 31.163317 
L 55.70528 33.124779 
L 57.215472 33.887326 
L 57.970568 37.232291 
L 58.725664 39.512226 
L 60.990952 39.548244 
L 61.746048 40.781264 
L 62.501144 41.27683 
L 66.276624 41.27683 
L 67.03172 42.390309 
L 71.562296 42.390309 
L 72.317392 43.990267 
L 75.337776 43.990267 
L 76.092872 44.43788 
L 76.847968 44.43788 
L 77.603064 46.04225 
L 79.868352 46.04225 
L 80.623448 47.693824 
L 81.378544 105.530095 
L 82.13364 105.530095 
L 82.888736 105.687081 
L 85.90912 105.687081 
L 86.664216 106.246259 
L 91.949888 106.246259 
L 92.704984 132.903329 
L 95.725368 132.903329 
L 96.480464 133.471108 
L 97.23556 133.471108 
L 97.990656 135.997359 
L 98.745752 135.997359 
L 99.500848 136.203749 
L 100.255944 145.842855 
L 103.276328 145.842855 
L 104.031424 146.760433 
L 108.562 146.760433 
L 109.317096 150.528479 
L 117.623152 150.528479 
L 118.378248 151.085214 
L 121.398632 151.085214 
L 122.153728 151.695051 
L 124.419016 151.695051 
L 125.174112 152.024595 
L 130.459784 152.024595 
L 131.21488 152.165998 
L 131.969976 161.747637 
L 137.255648 161.766382 
L 138.010744 183.061913 
L 149.337184 183.061913 
L 150.09228 189.966972 
L 156.133048 190.054665 
L 156.888144 193.240026 
L 159.908528 193.323707 
L 160.663624 193.806749 
L 164.439104 193.806749 
L 165.1942 194.118309 
L 168.214584 194.118309 
L 168.96968 194.31829 
L 169.724776 194.31829 
L 170.479872 195.458103 
L 173.500256 195.458103 
L 174.255352 196.514394 
L 176.52064 196.514394 
L 177.275736 196.697108 
L 179.541024 196.697108 
L 180.29612 201.090851 
L 181.051216 201.595412 
L 194.642944 201.595412 
L 195.39804 202.298717 
L 198.418424 202.298717 
L 199.17352 203.454822 
L 199.928616 203.99959 
L 228.622264 204.1098 
L 230.887552 204.154054 
L 245.989472 204.154054 
L 246.744568 204.860576 
L 315.458304 204.951809 
L 316.968496 205.043167 
L 323.76436 205.043167 
L 324.519456 205.642449 
L 425.70232 205.642449 
L 425.70232 205.642449 
" clip-path="url(#p770339c02b)" style="fill: none; stroke: #b8b8b8; stroke-opacity: 0.28; stroke-width: 0.75; stroke-linecap: square"/>
   </g>
   <g id="line2d_31">
    <path d="M 48.15432 16.64964 
L 48.909416 19.421221 
L 49.664512 19.974228 
L 50.419608 23.764782 
L 51.9298 28.226249 
L 54.195088 38.029529 
L 54.950184 39.44817 
L 55.70528 46.721203 
L 56.460376 49.183424 
L 57.215472 50.103264 
L 57.970568 54.895943 
L 58.725664 55.469507 
L 59.48076 56.430731 
L 60.235856 58.289864 
L 60.990952 65.058958 
L 61.746048 68.162367 
L 62.501144 69.104287 
L 63.25624 71.092957 
L 64.011336 71.971864 
L 64.766432 74.854738 
L 65.521528 75.735388 
L 66.276624 78.224791 
L 67.03172 79.395333 
L 67.786816 80.004949 
L 68.541912 81.490342 
L 69.297008 81.944399 
L 70.052104 82.906981 
L 71.562296 83.520241 
L 72.317392 84.805863 
L 73.072488 85.332724 
L 73.827584 86.062436 
L 74.58268 87.765013 
L 76.847968 91.09821 
L 77.603064 91.694702 
L 78.35816 93.061398 
L 79.113256 93.571109 
L 79.868352 93.941837 
L 80.623448 94.734818 
L 81.378544 98.15068 
L 82.13364 99.555848 
L 84.398928 100.419156 
L 85.154024 101.018771 
L 85.90912 101.865916 
L 86.664216 102.238076 
L 87.419312 103.307355 
L 88.174408 103.597238 
L 88.929504 103.739198 
L 89.6846 104.075455 
L 90.439696 104.287878 
L 91.194792 104.287878 
L 91.949888 104.509559 
L 92.704984 106.484572 
L 93.46008 106.861794 
L 94.215176 107.025383 
L 94.970272 107.752279 
L 95.725368 107.943165 
L 96.480464 108.451782 
L 97.23556 109.127082 
L 97.990656 109.341299 
L 98.745752 109.363853 
L 99.500848 109.933672 
L 100.255944 111.60567 
L 101.01104 113.715976 
L 102.521232 114.220452 
L 104.031424 114.437006 
L 104.78652 115.520251 
L 106.296712 115.754424 
L 107.051808 116.217466 
L 107.806904 116.272204 
L 108.562 116.513506 
L 109.317096 116.988308 
L 113.847672 118.136792 
L 115.357864 118.29812 
L 116.868056 119.048162 
L 117.623152 119.750593 
L 118.378248 119.945361 
L 119.133344 120.384355 
L 119.88844 120.472558 
L 120.643536 121.188024 
L 122.153728 121.445256 
L 122.908824 121.860728 
L 123.66392 122.521843 
L 124.419016 122.541388 
L 125.929208 123.425708 
L 126.684304 123.425708 
L 127.4394 123.841221 
L 129.704688 124.073382 
L 130.459784 124.235467 
L 131.21488 124.541464 
L 131.969976 125.179432 
L 133.480168 125.425115 
L 134.235264 125.787517 
L 134.99036 125.806099 
L 136.500552 126.309024 
L 138.010744 128.709606 
L 138.76584 128.739412 
L 141.031128 129.487516 
L 141.786224 129.804603 
L 144.051512 130.320913 
L 144.806608 130.697055 
L 145.561704 130.844645 
L 146.3168 131.159439 
L 149.337184 131.486184 
L 150.09228 132.034927 
L 151.602472 132.431766 
L 153.86776 132.863296 
L 154.622856 133.935084 
L 156.888144 135.240538 
L 157.64324 135.997936 
L 158.398336 136.01499 
L 159.153432 136.282773 
L 161.41872 136.527296 
L 162.928912 136.95199 
L 164.439104 137.0187 
L 165.1942 137.340522 
L 167.459488 137.52253 
L 169.724776 137.643589 
L 171.234968 137.874527 
L 171.990064 138.325576 
L 173.500256 138.469178 
L 175.010448 138.933657 
L 175.765544 139.169002 
L 178.030832 139.281443 
L 180.29612 140.168475 
L 181.051216 140.196593 
L 182.561408 140.43384 
L 183.316504 140.493217 
L 184.0716 140.76512 
L 186.336888 141.001981 
L 187.84708 141.074873 
L 188.602176 141.373015 
L 190.867464 141.477559 
L 193.132752 141.700457 
L 196.153136 142.234394 
L 196.908232 142.487752 
L 197.663328 142.506738 
L 199.17352 142.778471 
L 201.438808 143.013402 
L 202.193904 143.013402 
L 202.949 143.251432 
L 212.765248 144.138897 
L 213.520344 144.283742 
L 215.030536 144.378621 
L 215.785632 144.576626 
L 219.561112 144.731471 
L 222.581496 145.029379 
L 225.60188 145.122486 
L 227.867168 145.350495 
L 228.622264 145.582315 
L 232.397744 145.758203 
L 233.15284 146.006629 
L 236.92832 146.473384 
L 242.969088 146.863826 
L 245.989472 147.02128 
L 246.744568 147.143508 
L 249.764952 147.216803 
L 250.520048 147.419634 
L 252.03024 147.486918 
L 253.540432 147.598346 
L 254.295528 147.648001 
L 255.050624 147.822309 
L 265.621968 148.312945 
L 267.13216 148.401247 
L 272.417832 148.485157 
L 274.68312 148.612615 
L 276.948408 148.691046 
L 280.723888 149.252258 
L 282.23408 149.252258 
L 282.989176 149.428319 
L 287.519752 149.494814 
L 289.029944 149.598581 
L 291.295232 149.710951 
L 301.11148 150.074124 
L 301.866576 150.134593 
L 302.621672 150.403509 
L 304.131864 150.584472 
L 313.193016 150.945713 
L 314.703208 151.029698 
L 316.2134 151.073358 
L 317.723592 151.18701 
L 322.254168 151.252251 
L 323.009264 151.383983 
L 326.029648 151.465267 
L 329.050032 151.508748 
L 334.335704 151.585813 
L 335.0908 151.848744 
L 337.356088 151.984301 
L 349.437624 152.200943 
L 350.947816 152.259106 
L 351.702912 152.259106 
L 352.458008 152.634279 
L 363.029352 152.773057 
L 366.049736 152.898362 
L 375.110888 153.177221 
L 375.865984 153.342463 
L 380.39656 153.405382 
L 381.906752 153.477814 
L 406.069824 153.904257 
L 407.580016 153.997394 
L 413.620784 154.105035 
L 418.906456 154.299601 
L 423.437032 154.637825 
L 425.70232 154.637825 
L 425.70232 154.637825 
" clip-path="url(#p770339c02b)" style="fill: none; stroke: #b2182b; stroke-width: 2.5; stroke-linecap: square"/>
   </g>
   <g id="line2d_32">
    <path d="M 48.15432 16.64964 
L 425.70232 16.64964 
" clip-path="url(#p770339c02b)" style="fill: none; stroke-dasharray: 2.96,1.28; stroke-dashoffset: 0; stroke: #555555; stroke-opacity: 0.7; stroke-width: 0.8"/>
   </g>
   <g id="patch_3">
    <path d="M 48.15432 215.09209 
L 48.15432 7.2 
" style="fill: none; stroke: #222222; stroke-width: 0.8; stroke-linejoin: miter; stroke-linecap: square"/>
   </g>
   <g id="patch_4">
    <path d="M 48.15432 215.09209 
L 425.70232 215.09209 
" style="fill: none; stroke: #222222; stroke-width: 0.8; stroke-linejoin: miter; stroke-linecap: square"/>
   </g>
   <g id="text_13">
    <!-- $\frac{E}{E_0}$ -->
    <g transform="translate(7.2 114.071045)">
     <text>
      <tspan x="0.9375" y="4.1625" style="font-size: 10.5px; font-family: 'cmmi10'">E</tspan>
      <tspan x="2.9375" y="-5.825" style="font-size: 10.5px; font-family: 'cmmi10'">E</tspan>
      <tspan x="8.684326" y="5.737496" style="font-size: 7.35px; font-family: 'cmr10'">0</tspan>
     </text>
     <rect x="0.9375" y="-4.95" width="12.02247" height="0.9375"/>
    </g>
   </g>
  </g>
 </g>
 <defs>
  <clipPath id="p770339c02b">
   <rect x="48.15432" y="7.2" width="377.548" height="207.89209"/>
  </clipPath>
 </defs>
</svg>
