<?xml version="1.0" encoding="utf-8" standalone="no"?>
<!DOCTYPE svg PUBLIC "-//W3C//DTD SVG 1.1//EN"
  "http://www.w3.org/Graphics/SVG/1.1/DTD/svg11.dtd">
<svg xmlns:xlink="http://www.w3.org/1999/xlink" width="436.18972pt" height="246.400156pt" viewBox="0 0 436.18972 246.400156" xmlns="http://www.w3.org/2000/svg" version="1.1">
 <metadata>
  <rdf:RDF xmlns:dc="http://purl.org/dc/elements/1.1/" xmlns:cc="http://creativecommons.org/ns#" xmlns:rdf="http://www.w3.org/1999/02/22-rdf-syntax-ns#">
   <cc:Work>
    <dc:type rdf:resource="http://purl.org/dc/dcmitype/StillImage"/>
    <dc:date>2026-06-23T16:19:11.882588</dc:date>
    <dc:format>image/svg+xml</dc:format>
    <dc:creator>
     <cc:Agent>
      <dc:title>Matplotlib v3.11.0, https://matplotlib.org/</dc:title>
     </cc:Agent>
    </dc:creator>
   </cc:Work>
  </rdf:RDF>
 </metadata>
 <defs>
  <style type="text/css">*{stroke-linejoin: round; stroke-linecap: butt}</style>
 </defs>
 <g id="figure_1">
  <g id="patch_1">
   <path d="M 0 246.400156 
L 436.18972 246.400156 
L 436.18972 0 
L 0 0 
z
" style="fill: #ffffff"/>
  </g>
  <g id="axes_1">
   <g id="patch_2">
    <path d="M 60.06422 215.09209 
L 424.47222 215.09209 
L 424.47222 7.2 
L 60.06422 7.2 
z
" style="fill: #ffffff"/>
   </g>
   <g id="FillBetweenPolyCollection_1">
    <defs>
     <path id="m774600288d" d="M 60.06422 -229.233271 
L 60.06422 -229.233271 
L 60.793036 -229.233271 
L 61.521852 -229.233271 
L 62.250668 -229.233271 
L 62.979484 -229.233271 
L 63.7083 -228.715158 
L 64.437116 -225.502962 
L 65.165932 -224.639696 
L 65.894748 -221.332656 
L 66.623564 -215.415387 
L 67.35238 -200.90868 
L 68.081196 -200.191557 
L 68.810012 -200.191557 
L 69.538828 -192.127722 
L 70.267644 -192.127722 
L 70.99646 -192.127722 
L 71.725276 -175.755966 
L 72.454092 -164.849224 
L 73.182908 -164.849224 
L 73.911724 -164.849224 
L 74.64054 -158.62577 
L 75.369356 -158.62577 
L 76.098172 -158.62577 
L 76.826988 -158.62577 
L 77.555804 -158.62577 
L 78.28462 -158.62577 
L 79.013436 -155.11449 
L 79.742252 -154.993445 
L 80.471068 -154.993445 
L 81.199884 -154.993445 
L 81.9287 -154.993445 
L 82.657516 -154.993445 
L 83.386332 -154.993445 
L 84.115148 -154.993445 
L 84.843964 -154.993445 
L 85.57278 -154.993445 
L 86.301596 -154.993445 
L 87.030412 -154.993445 
L 87.759228 -154.095141 
L 88.488044 -154.095141 
L 89.21686 -154.095141 
L 89.945676 -154.095141 
L 90.674492 -154.095141 
L 91.403308 -154.095141 
L 92.132124 -151.574521 
L 92.86094 -141.202341 
L 93.589756 -141.202341 
L 94.318572 -141.202341 
L 95.047388 -141.202341 
L 95.776204 -135.351044 
L 96.50502 -135.351044 
L 97.233836 -135.351044 
L 97.962652 -135.280139 
L 98.691468 -128.972065 
L 99.420284 -128.972065 
L 100.1491 -128.972065 
L 100.877916 -128.972065 
L 101.606732 -128.972065 
L 102.335548 -128.972065 
L 103.064364 -123.302265 
L 103.79318 -123.302265 
L 104.521996 -123.302265 
L 105.250812 -115.76924 
L 105.979628 -120.702427 
L 106.708444 -120.702427 
L 107.43726 -120.702427 
L 108.166076 -120.702427 
L 108.894892 -120.702427 
L 109.623708 -120.702427 
L 110.352524 -115.762525 
L 111.08134 -115.762525 
L 111.810156 -115.762525 
L 112.538972 -115.762525 
L 113.267788 -115.762525 
L 113.996604 -115.762525 
L 114.72542 -115.762525 
L 115.454236 -115.762525 
L 116.183052 -115.762525 
L 116.911868 -115.762525 
L 117.640684 -115.762525 
L 118.3695 -115.762525 
L 119.098316 -115.762525 
L 119.827132 -115.762525 
L 120.555948 -115.762525 
L 121.284764 -115.762525 
L 122.01358 -108.870699 
L 122.742396 -108.870699 
L 123.471212 -108.870699 
L 124.200028 -108.870699 
L 124.928844 -108.870699 
L 125.65766 -108.870699 
L 126.386476 -106.231609 
L 127.115292 -106.231609 
L 127.844108 -106.231609 
L 128.572924 -106.231609 
L 129.30174 -106.231609 
L 130.030556 -106.231609 
L 130.759372 -106.231609 
L 131.488188 -106.231609 
L 132.217004 -106.231609 
L 132.94582 -101.387807 
L 133.674636 -101.387807 
L 134.403452 -101.387807 
L 135.132268 -98.278433 
L 135.861084 -98.278433 
L 136.5899 -98.278433 
L 137.318716 -98.278433 
L 138.047532 -98.278433 
L 138.776348 -98.278433 
L 139.505164 -98.278433 
L 140.23398 -98.278433 
L 140.962796 -96.996913 
L 141.691612 -96.996913 
L 142.420428 -96.996913 
L 143.149244 -96.996913 
L 143.87806 -96.996913 
L 144.606876 -96.996913 
L 145.335692 -96.996913 
L 146.064508 -96.996913 
L 146.793324 -93.666411 
L 147.52214 -93.666411 
L 148.250956 -93.666411 
L 148.979772 -93.666411 
L 149.708588 -93.666411 
L 150.437404 -93.666411 
L 151.16622 -93.666411 
L 151.895036 -93.666411 
L 152.623852 -93.666411 
L 153.352668 -93.666411 
L 154.081484 -93.666411 
L 154.8103 -93.666411 
L 155.539116 -93.666411 
L 156.267932 -93.666411 
L 156.996748 -93.666411 
L 157.725564 -93.666411 
L 158.45438 -93.666411 
L 159.183196 -93.666411 
L 159.912012 -93.666411 
L 160.640828 -93.666411 
L 161.369644 -93.666411 
L 162.09846 -93.666411 
L 162.827276 -93.666411 
L 163.556092 -93.666411 
L 164.284908 -96.275671 
L 165.013724 -96.275671 
L 165.74254 -91.202445 
L 166.471356 -91.202445 
L 167.200172 -91.202445 
L 167.928988 -91.202445 
L 168.657804 -88.060771 
L 169.38662 -88.060771 
L 170.115436 -88.060771 
L 170.844252 -88.060771 
L 171.573068 -88.060771 
L 172.301884 -88.060771 
L 173.0307 -88.060771 
L 173.759516 -88.060771 
L 174.488332 -88.060771 
L 175.217148 -88.060771 
L 175.945964 -88.060771 
L 176.67478 -88.060771 
L 177.403596 -88.060771 
L 178.132412 -88.060771 
L 178.861228 -88.060771 
L 179.590044 -84.058966 
L 180.31886 -84.058966 
L 181.047676 -84.058966 
L 181.776492 -84.058966 
L 182.505308 -84.058966 
L 183.234124 -84.058966 
L 183.96294 -84.058966 
L 184.691756 -84.058966 
L 185.420572 -84.058966 
L 186.149388 -84.058966 
L 186.878204 -84.058966 
L 187.60702 -84.058966 
L 188.335836 -84.058966 
L 189.064652 -84.058966 
L 189.793468 -84.058966 
L 190.522284 -84.058966 
L 191.2511 -84.058966 
L 191.979916 -84.058966 
L 192.708732 -84.058966 
L 193.437548 -83.138328 
L 194.166364 -83.138328 
L 194.89518 -83.138328 
L 195.623996 -83.138328 
L 196.352812 -83.138328 
L 197.081628 -83.015402 
L 197.810444 -83.015402 
L 198.53926 -83.015402 
L 199.268076 -83.015402 
L 199.996892 -83.015402 
L 200.725708 -83.015402 
L 201.454524 -83.015402 
L 202.18334 -83.015402 
L 202.912156 -83.015402 
L 203.640972 -83.015402 
L 204.369788 -83.015402 
L 205.098604 -83.015402 
L 205.82742 -83.015402 
L 206.556236 -83.015402 
L 207.285052 -83.015402 
L 208.013868 -83.015402 
L 208.742684 -83.015402 
L 209.4715 -81.446159 
L 210.200316 -81.446159 
L 210.929132 -81.446159 
L 211.657948 -81.446159 
L 212.386764 -81.446159 
L 213.11558 -81.446159 
L 213.844396 -81.446159 
L 214.573212 -81.446159 
L 215.302028 -81.446159 
L 216.030844 -81.446159 
L 216.75966 -81.446159 
L 217.488476 -81.446159 
L 218.217292 -81.446159 
L 218.946108 -81.446159 
L 219.674924 -81.446159 
L 220.40374 -81.446159 
L 221.132556 -81.446159 
L 221.861372 -81.446159 
L 222.590188 -81.446159 
L 223.319004 -81.446159 
L 224.04782 -81.446159 
L 224.776636 -81.446159 
L 225.505452 -81.446159 
L 226.234268 -81.446159 
L 226.963084 -81.446159 
L 227.6919 -81.446159 
L 228.420716 -80.389523 
L 229.149532 -80.389523 
L 229.878348 -80.389523 
L 230.607164 -84.381906 
L 231.33598 -83.175201 
L 232.064796 -83.175201 
L 232.793612 -83.175201 
L 233.522428 -83.175201 
L 234.251244 -83.175201 
L 234.98006 -83.175201 
L 235.708876 -83.175201 
L 236.437692 -83.175201 
L 237.166508 -83.175201 
L 237.895324 -83.175201 
L 238.62414 -83.175201 
L 239.352956 -83.175201 
L 240.081772 -83.175201 
L 240.810588 -83.175201 
L 241.539404 -83.175201 
L 242.26822 -83.175201 
L 242.997036 -83.175201 
L 243.725852 -85.951977 
L 244.454668 -85.951977 
L 245.183484 -85.951977 
L 245.9123 -85.951977 
L 246.641116 -85.951977 
L 247.369932 -85.951977 
L 248.098748 -85.951977 
L 248.827564 -85.951977 
L 249.55638 -85.951977 
L 250.285196 -85.951977 
L 251.014012 -85.951977 
L 251.742828 -85.951977 
L 252.471644 -85.951977 
L 253.20046 -85.951977 
L 253.929276 -85.951977 
L 254.658092 -85.951977 
L 255.386908 -85.951977 
L 256.115724 -85.951977 
L 256.84454 -85.951977 
L 257.573356 -85.951977 
L 258.302172 -85.951977 
L 259.030988 -85.951977 
L 259.759804 -85.951977 
L 260.48862 -85.951977 
L 261.217436 -85.951977 
L 261.946252 -85.951977 
L 262.675068 -85.951977 
L 263.403884 -85.951977 
L 264.1327 -85.951977 
L 264.861516 -85.951977 
L 265.590332 -85.951977 
L 266.319148 -85.951977 
L 267.047964 -85.951977 
L 267.77678 -81.959594 
L 268.505596 -81.959594 
L 269.234412 -81.959594 
L 269.963228 -81.959594 
L 270.692044 -81.959594 
L 271.42086 -81.959594 
L 272.149676 -81.959594 
L 272.878492 -81.959594 
L 273.607308 -81.959594 
L 274.336124 -81.959594 
L 275.06494 -81.959594 
L 275.793756 -81.959594 
L 276.522572 -81.959594 
L 277.251388 -81.959594 
L 277.980204 -81.959594 
L 278.70902 -81.959594 
L 279.437836 -81.959594 
L 280.166652 -81.959594 
L 280.895468 -81.959594 
L 281.624284 -81.959594 
L 282.3531 -81.385406 
L 283.081916 -81.385406 
L 283.810732 -81.385406 
L 284.539548 -81.385406 
L 285.268364 -81.385406 
L 285.99718 -81.385406 
L 286.725996 -81.385406 
L 287.454812 -81.385406 
L 288.183628 -81.385406 
L 288.912444 -81.385406 
L 289.64126 -81.385406 
L 290.370076 -81.385406 
L 291.098892 -81.385406 
L 291.827708 -81.385406 
L 292.556524 -81.385406 
L 293.28534 -81.385406 
L 294.014156 -81.385406 
L 294.742972 -81.385406 
L 295.471788 -81.385406 
L 296.200604 -81.385406 
L 296.92942 -81.385406 
L 297.658236 -81.385406 
L 298.387052 -81.385406 
L 299.115868 -81.385406 
L 299.844684 -81.385406 
L 300.5735 -81.385406 
L 301.302316 -81.385406 
L 302.031132 -81.385406 
L 302.759948 -81.385406 
L 303.488764 -81.385406 
L 304.21758 -81.385406 
L 304.946396 -81.385406 
L 305.675212 -81.385406 
L 306.404028 -81.385406 
L 307.132844 -81.385406 
L 307.86166 -81.385406 
L 308.590476 -81.385406 
L 309.319292 -81.385406 
L 310.048108 -81.385406 
L 310.776924 -81.385406 
L 311.50574 -81.385406 
L 312.234556 -81.385406 
L 312.963372 -81.385406 
L 313.692188 -81.385406 
L 314.421004 -81.385406 
L 315.14982 -81.385406 
L 315.878636 -81.385406 
L 316.607452 -79.74714 
L 317.336268 -79.74714 
L 318.065084 -79.74714 
L 318.7939 -79.74714 
L 319.522716 -79.74714 
L 320.251532 -79.74714 
L 320.980348 -79.74714 
L 321.709164 -79.74714 
L 322.43798 -79.74714 
L 323.166796 -79.74714 
L 323.895612 -79.74714 
L 324.624428 -79.74714 
L 325.353244 -79.74714 
L 326.08206 -79.74714 
L 326.810876 -79.74714 
L 327.539692 -79.74714 
L 328.268508 -79.74714 
L 328.997324 -79.74714 
L 329.72614 -79.74714 
L 330.454956 -79.74714 
L 331.183772 -79.74714 
L 331.912588 -79.74714 
L 332.641404 -79.74714 
L 333.37022 -79.74714 
L 334.099036 -79.74714 
L 334.827852 -79.74714 
L 335.556668 -79.74714 
L 336.285484 -79.74714 
L 337.0143 -79.74714 
L 337.743116 -79.74714 
L 338.471932 -79.74714 
L 339.200748 -79.74714 
L 339.929564 -79.74714 
L 340.65838 -79.74714 
L 341.387196 -79.74714 
L 342.116012 -79.74714 
L 342.844828 -79.74714 
L 343.573644 -79.74714 
L 344.30246 -79.74714 
L 345.031276 -79.74714 
L 345.760092 -79.74714 
L 346.488908 -79.74714 
L 347.217724 -79.74714 
L 347.94654 -79.74714 
L 348.675356 -79.74714 
L 349.404172 -79.74714 
L 350.132988 -79.74714 
L 350.861804 -79.74714 
L 351.59062 -79.74714 
L 352.319436 -79.74714 
L 353.048252 -79.74714 
L 353.777068 -78.331133 
L 354.505884 -78.331133 
L 355.2347 -78.331133 
L 355.963516 -78.331133 
L 356.692332 -78.331133 
L 357.421148 -78.331133 
L 358.149964 -78.331133 
L 358.87878 -78.331133 
L 359.607596 -78.331133 
L 360.336412 -78.331133 
L 361.065228 -78.331133 
L 361.794044 -78.331133 
L 362.52286 -78.331133 
L 363.251676 -78.331133 
L 363.980492 -78.331133 
L 364.709308 -78.331133 
L 365.438124 -78.331133 
L 366.16694 -78.331133 
L 366.895756 -78.331133 
L 367.624572 -78.331133 
L 368.353388 -78.331133 
L 369.082204 -78.331133 
L 369.81102 -78.331133 
L 370.539836 -78.331133 
L 371.268652 -78.331133 
L 371.997468 -78.331133 
L 372.726284 -78.331133 
L 373.4551 -78.331133 
L 374.183916 -78.331133 
L 374.912732 -78.331133 
L 375.641548 -78.331133 
L 376.370364 -78.331133 
L 377.09918 -78.331133 
L 377.827996 -78.331133 
L 378.556812 -78.331133 
L 379.285628 -78.331133 
L 380.014444 -78.331133 
L 380.74326 -78.331133 
L 381.472076 -78.331133 
L 382.200892 -78.331133 
L 382.929708 -78.331133 
L 383.658524 -78.331133 
L 384.38734 -78.331133 
L 385.116156 -78.331133 
L 385.844972 -78.331133 
L 386.573788 -78.331133 
L 387.302604 -78.331133 
L 388.03142 -78.331133 
L 388.760236 -78.331133 
L 389.489052 -78.331133 
L 390.217868 -78.331133 
L 390.946684 -78.331133 
L 391.6755 -78.331133 
L 392.404316 -78.331133 
L 393.133132 -78.331133 
L 393.861948 -78.331133 
L 394.590764 -78.331133 
L 395.31958 -78.331133 
L 396.048396 -79.476607 
L 396.777212 -79.476607 
L 397.506028 -79.476607 
L 398.234844 -79.476607 
L 398.96366 -79.476607 
L 399.692476 -79.476607 
L 400.421292 -79.476607 
L 401.150108 -79.476607 
L 401.878924 -79.476607 
L 402.60774 -79.476607 
L 403.336556 -79.476607 
L 404.065372 -79.476607 
L 404.794188 -79.476607 
L 405.523004 -79.476607 
L 406.25182 -79.476607 
L 406.980636 -79.476607 
L 407.709452 -79.476607 
L 408.438268 -79.476607 
L 409.167084 -79.476607 
L 409.8959 -79.476607 
L 410.624716 -79.476607 
L 411.353532 -79.476607 
L 412.082348 -79.476607 
L 412.811164 -79.476607 
L 413.53998 -79.476607 
L 414.268796 -79.476607 
L 414.997612 -79.476607 
L 415.726428 -79.476607 
L 416.455244 -79.476607 
L 417.18406 -79.476607 
L 417.912876 -79.476607 
L 418.641692 -79.476607 
L 419.370508 -79.476607 
L 420.099324 -79.476607 
L 420.82814 -79.476607 
L 421.556956 -79.476607 
L 422.285772 -79.476607 
L 423.014588 -79.476607 
L 423.743404 -79.476607 
L 424.47222 -79.476607 
L 424.47222 -130.785709 
L 424.47222 -130.785709 
L 423.743404 -130.785709 
L 423.014588 -130.785709 
L 422.285772 -130.785709 
L 421.556956 -130.785709 
L 420.82814 -130.785709 
L 420.099324 -130.785709 
L 419.370508 -130.785709 
L 418.641692 -130.785709 
L 417.912876 -130.785709 
L 417.18406 -130.785709 
L 416.455244 -130.785709 
L 415.726428 -130.785709 
L 414.997612 -130.785709 
L 414.268796 -130.785709 
L 413.53998 -130.785709 
L 412.811164 -130.785709 
L 412.082348 -130.785709 
L 411.353532 -130.785709 
L 410.624716 -130.785709 
L 409.8959 -130.785709 
L 409.167084 -130.785709 
L 408.438268 -130.785709 
L 407.709452 -130.785709 
L 406.980636 -130.785709 
L 406.25182 -130.785709 
L 405.523004 -130.785709 
L 404.794188 -130.785709 
L 404.065372 -130.785709 
L 403.336556 -130.785709 
L 402.60774 -130.785709 
L 401.878924 -130.785709 
L 401.150108 -130.785709 
L 400.421292 -130.785709 
L 399.692476 -130.785709 
L 398.96366 -130.785709 
L 398.234844 -130.785709 
L 397.506028 -130.785709 
L 396.777212 -130.785709 
L 396.048396 -130.785709 
L 395.31958 -130.785709 
L 394.590764 -130.785709 
L 393.861948 -130.785709 
L 393.133132 -130.785709 
L 392.404316 -130.785709 
L 391.6755 -130.785709 
L 390.946684 -130.785709 
L 390.217868 -130.785709 
L 389.489052 -130.785709 
L 388.760236 -130.785709 
L 388.03142 -130.785709 
L 387.302604 -130.785709 
L 386.573788 -130.785709 
L 385.844972 -130.785709 
L 385.116156 -130.785709 
L 384.38734 -130.785709 
L 383.658524 -130.785709 
L 382.929708 -130.785709 
L 382.200892 -130.785709 
L 381.472076 -130.785709 
L 380.74326 -130.785709 
L 380.014444 -130.785709 
L 379.285628 -130.785709 
L 378.556812 -130.785709 
L 377.827996 -130.785709 
L 377.09918 -130.785709 
L 376.370364 -130.785709 
L 375.641548 -130.785709 
L 374.912732 -130.785709 
L 374.183916 -130.785709 
L 373.4551 -130.785709 
L 372.726284 -130.785709 
L 371.997468 -130.785709 
L 371.268652 -130.785709 
L 370.539836 -130.785709 
L 369.81102 -130.785709 
L 369.082204 -130.785709 
L 368.353388 -130.785709 
L 367.624572 -130.785709 
L 366.895756 -130.785709 
L 366.16694 -130.785709 
L 365.438124 -130.785709 
L 364.709308 -130.785709 
L 363.980492 -130.785709 
L 363.251676 -130.785709 
L 362.52286 -130.785709 
L 361.794044 -130.785709 
L 361.065228 -130.785709 
L 360.336412 -130.785709 
L 359.607596 -130.785709 
L 358.87878 -130.785709 
L 358.149964 -130.785709 
L 357.421148 -130.785709 
L 356.692332 -130.785709 
L 355.963516 -130.785709 
L 355.2347 -130.785709 
L 354.505884 -130.785709 
L 353.777068 -130.785709 
L 353.048252 -130.785709 
L 352.319436 -130.785709 
L 351.59062 -130.785709 
L 350.861804 -130.785709 
L 350.132988 -130.785709 
L 349.404172 -130.785709 
L 348.675356 -130.785709 
L 347.94654 -130.785709 
L 347.217724 -130.785709 
L 346.488908 -130.785709 
L 345.760092 -130.785709 
L 345.031276 -130.785709 
L 344.30246 -130.785709 
L 343.573644 -130.785709 
L 342.844828 -130.785709 
L 342.116012 -130.785709 
L 341.387196 -130.785709 
L 340.65838 -130.785709 
L 339.929564 -130.785709 
L 339.200748 -130.785709 
L 338.471932 -130.785709 
L 337.743116 -130.785709 
L 337.0143 -130.785709 
L 336.285484 -130.785709 
L 335.556668 -130.785709 
L 334.827852 -130.785709 
L 334.099036 -130.785709 
L 333.37022 -130.785709 
L 332.641404 -130.785709 
L 331.912588 -130.785709 
L 331.183772 -130.785709 
L 330.454956 -130.785709 
L 329.72614 -130.785709 
L 328.997324 -130.785709 
L 328.268508 -130.785709 
L 327.539692 -130.785709 
L 326.810876 -130.785709 
L 326.08206 -130.785709 
L 325.353244 -130.785709 
L 324.624428 -130.785709 
L 323.895612 -130.785709 
L 323.166796 -130.785709 
L 322.43798 -130.785709 
L 321.709164 -130.785709 
L 320.980348 -130.785709 
L 320.251532 -130.785709 
L 319.522716 -130.785709 
L 318.7939 -130.785709 
L 318.065084 -130.785709 
L 317.336268 -130.785709 
L 316.607452 -130.785709 
L 315.878636 -130.785709 
L 315.14982 -130.785709 
L 314.421004 -130.785709 
L 313.692188 -130.785709 
L 312.963372 -130.785709 
L 312.234556 -130.785709 
L 311.50574 -130.785709 
L 310.776924 -130.785709 
L 310.048108 -130.785709 
L 309.319292 -130.785709 
L 308.590476 -130.785709 
L 307.86166 -129.048674 
L 307.132844 -129.048674 
L 306.404028 -129.155315 
L 305.675212 -129.155315 
L 304.946396 -133.54596 
L 304.21758 -133.54596 
L 303.488764 -133.54596 
L 302.759948 -136.894754 
L 302.031132 -136.894754 
L 301.302316 -136.894754 
L 300.5735 -136.894754 
L 299.844684 -136.894754 
L 299.115868 -136.894754 
L 298.387052 -136.894754 
L 297.658236 -136.894754 
L 296.92942 -136.894754 
L 296.200604 -136.894754 
L 295.471788 -136.894754 
L 294.742972 -136.894754 
L 294.014156 -136.894754 
L 293.28534 -136.894754 
L 292.556524 -136.894754 
L 291.827708 -136.894754 
L 291.098892 -136.894754 
L 290.370076 -136.894754 
L 289.64126 -136.894754 
L 288.912444 -136.894754 
L 288.183628 -136.894754 
L 287.454812 -136.894754 
L 286.725996 -136.894754 
L 285.99718 -136.894754 
L 285.268364 -136.894754 
L 284.539548 -136.894754 
L 283.810732 -136.894754 
L 283.081916 -136.894754 
L 282.3531 -136.894754 
L 281.624284 -136.894754 
L 280.895468 -136.894754 
L 280.166652 -136.894754 
L 279.437836 -136.894754 
L 278.70902 -136.894754 
L 277.980204 -136.894754 
L 277.251388 -136.894754 
L 276.522572 -136.894754 
L 275.793756 -136.894754 
L 275.06494 -136.894754 
L 274.336124 -136.894754 
L 273.607308 -136.894754 
L 272.878492 -136.894754 
L 272.149676 -136.894754 
L 271.42086 -136.894754 
L 270.692044 -136.894754 
L 269.963228 -136.894754 
L 269.234412 -136.894754 
L 268.505596 -136.894754 
L 267.77678 -136.894754 
L 267.047964 -136.894754 
L 266.319148 -136.894754 
L 265.590332 -136.894754 
L 264.861516 -136.894754 
L 264.1327 -136.894754 
L 263.403884 -136.894754 
L 262.675068 -136.894754 
L 261.946252 -136.894754 
L 261.217436 -136.894754 
L 260.48862 -136.894754 
L 259.759804 -136.894754 
L 259.030988 -136.894754 
L 258.302172 -136.894754 
L 257.573356 -136.894754 
L 256.84454 -136.894754 
L 256.115724 -136.894754 
L 255.386908 -136.894754 
L 254.658092 -136.894754 
L 253.929276 -136.894754 
L 253.20046 -136.894754 
L 252.471644 -136.894754 
L 251.742828 -136.894754 
L 251.014012 -136.894754 
L 250.285196 -136.894754 
L 249.55638 -136.894754 
L 248.827564 -136.894754 
L 248.098748 -136.894754 
L 247.369932 -136.894754 
L 246.641116 -136.894754 
L 245.9123 -136.894754 
L 245.183484 -136.894754 
L 244.454668 -136.894754 
L 243.725852 -136.894754 
L 242.997036 -136.894754 
L 242.26822 -136.894754 
L 241.539404 -136.894754 
L 240.810588 -136.894754 
L 240.081772 -136.894754 
L 239.352956 -136.894754 
L 238.62414 -136.894754 
L 237.895324 -136.894754 
L 237.166508 -136.894754 
L 236.437692 -136.894754 
L 235.708876 -136.894754 
L 234.98006 -136.894754 
L 234.251244 -136.894754 
L 233.522428 -136.894754 
L 232.793612 -136.894754 
L 232.064796 -136.894754 
L 231.33598 -136.894754 
L 230.607164 -136.894754 
L 229.878348 -136.894754 
L 229.149532 -136.894754 
L 228.420716 -136.894754 
L 227.6919 -136.894754 
L 226.963084 -136.894754 
L 226.234268 -136.894754 
L 225.505452 -136.894754 
L 224.776636 -136.894754 
L 224.04782 -136.894754 
L 223.319004 -136.894754 
L 222.590188 -136.894754 
L 221.861372 -136.894754 
L 221.132556 -136.894754 
L 220.40374 -136.894754 
L 219.674924 -136.894754 
L 218.946108 -136.894754 
L 218.217292 -136.894754 
L 217.488476 -138.500822 
L 216.75966 -138.500822 
L 216.030844 -138.500822 
L 215.302028 -138.500822 
L 214.573212 -138.500822 
L 213.844396 -138.500822 
L 213.11558 -138.500822 
L 212.386764 -138.500822 
L 211.657948 -138.500822 
L 210.929132 -138.500822 
L 210.200316 -138.500822 
L 209.4715 -139.218468 
L 208.742684 -139.218468 
L 208.013868 -139.218468 
L 207.285052 -139.218468 
L 206.556236 -139.218468 
L 205.82742 -139.218468 
L 205.098604 -139.218468 
L 204.369788 -139.218468 
L 203.640972 -139.218468 
L 202.912156 -139.218468 
L 202.18334 -139.218468 
L 201.454524 -139.218468 
L 200.725708 -139.218468 
L 199.996892 -139.218468 
L 199.268076 -139.218468 
L 198.53926 -139.218468 
L 197.810444 -139.218468 
L 197.081628 -139.218468 
L 196.352812 -139.218468 
L 195.623996 -139.218468 
L 194.89518 -139.218468 
L 194.166364 -139.218468 
L 193.437548 -139.218468 
L 192.708732 -139.218468 
L 191.979916 -139.218468 
L 191.2511 -139.218468 
L 190.522284 -139.261748 
L 189.793468 -139.261748 
L 189.064652 -139.261748 
L 188.335836 -139.261748 
L 187.60702 -139.261748 
L 186.878204 -139.261748 
L 186.149388 -139.261748 
L 185.420572 -139.261748 
L 184.691756 -139.261748 
L 183.96294 -139.261748 
L 183.234124 -139.261748 
L 182.505308 -139.261748 
L 181.776492 -139.291855 
L 181.047676 -139.291855 
L 180.31886 -139.291855 
L 179.590044 -139.291855 
L 178.861228 -139.291855 
L 178.132412 -139.291855 
L 177.403596 -139.291855 
L 176.67478 -139.291855 
L 175.945964 -140.495745 
L 175.217148 -140.495745 
L 174.488332 -140.495745 
L 173.759516 -140.495745 
L 173.0307 -140.495745 
L 172.301884 -140.495745 
L 171.573068 -140.495745 
L 170.844252 -140.495745 
L 170.115436 -140.495745 
L 169.38662 -141.478445 
L 168.657804 -141.478445 
L 167.928988 -141.478445 
L 167.200172 -141.478445 
L 166.471356 -141.478445 
L 165.74254 -141.478445 
L 165.013724 -141.478445 
L 164.284908 -141.478445 
L 163.556092 -146.347363 
L 162.827276 -147.323627 
L 162.09846 -147.323627 
L 161.369644 -147.323627 
L 160.640828 -147.323627 
L 159.912012 -147.323627 
L 159.183196 -147.323627 
L 158.45438 -147.323627 
L 157.725564 -147.323627 
L 156.996748 -147.323627 
L 156.267932 -147.323627 
L 155.539116 -147.323627 
L 154.8103 -147.323627 
L 154.081484 -147.323627 
L 153.352668 -147.323627 
L 152.623852 -152.282161 
L 151.895036 -152.282161 
L 151.16622 -152.282161 
L 150.437404 -152.282161 
L 149.708588 -152.282161 
L 148.979772 -152.282161 
L 148.250956 -152.282161 
L 147.52214 -152.282161 
L 146.793324 -152.282161 
L 146.064508 -152.282161 
L 145.335692 -156.031102 
L 144.606876 -156.031102 
L 143.87806 -156.031102 
L 143.149244 -156.031102 
L 142.420428 -156.031102 
L 141.691612 -156.031102 
L 140.962796 -156.031102 
L 140.23398 -156.031102 
L 139.505164 -156.031102 
L 138.776348 -156.031102 
L 138.047532 -156.031102 
L 137.318716 -156.031102 
L 136.5899 -156.031102 
L 135.861084 -156.031102 
L 135.132268 -156.031102 
L 134.403452 -156.031102 
L 133.674636 -156.267005 
L 132.94582 -156.267005 
L 132.217004 -162.712072 
L 131.488188 -162.712072 
L 130.759372 -162.712072 
L 130.030556 -162.712072 
L 129.30174 -162.712072 
L 128.572924 -162.712072 
L 127.844108 -162.712072 
L 127.115292 -162.712072 
L 126.386476 -165.556378 
L 125.65766 -165.556378 
L 124.928844 -165.969041 
L 124.200028 -168.420672 
L 123.471212 -168.420672 
L 122.742396 -168.420672 
L 122.01358 -168.420672 
L 121.284764 -168.420672 
L 120.555948 -168.420672 
L 119.827132 -168.420672 
L 119.098316 -168.420672 
L 118.3695 -168.420672 
L 117.640684 -168.420672 
L 116.911868 -168.420672 
L 116.183052 -168.420672 
L 115.454236 -168.420672 
L 114.72542 -168.420672 
L 113.996604 -175.827437 
L 113.267788 -175.827437 
L 112.538972 -175.827437 
L 111.810156 -175.827437 
L 111.08134 -175.827437 
L 110.352524 -175.827437 
L 109.623708 -180.783484 
L 108.894892 -180.783484 
L 108.166076 -180.783484 
L 107.43726 -180.783484 
L 106.708444 -180.783484 
L 105.979628 -180.783484 
L 105.250812 -180.783484 
L 104.521996 -180.783484 
L 103.79318 -180.783484 
L 103.064364 -180.783484 
L 102.335548 -180.783484 
L 101.606732 -180.783484 
L 100.877916 -180.783484 
L 100.1491 -180.783484 
L 99.420284 -180.783484 
L 98.691468 -180.783484 
L 97.962652 -180.783484 
L 97.233836 -184.824106 
L 96.50502 -184.824106 
L 95.776204 -184.824106 
L 95.047388 -184.824106 
L 94.318572 -184.824106 
L 93.589756 -184.824106 
L 92.86094 -184.824106 
L 92.132124 -184.824106 
L 91.403308 -188.598119 
L 90.674492 -188.598119 
L 89.945676 -189.716068 
L 89.21686 -189.716068 
L 88.488044 -196.311074 
L 87.759228 -205.894002 
L 87.030412 -205.894002 
L 86.301596 -210.568867 
L 85.57278 -210.568867 
L 84.843964 -210.568867 
L 84.115148 -210.568867 
L 83.386332 -210.568867 
L 82.657516 -210.568867 
L 81.9287 -210.568867 
L 81.199884 -210.568867 
L 80.471068 -210.568867 
L 79.742252 -210.568867 
L 79.013436 -221.200638 
L 78.28462 -221.200638 
L 77.555804 -221.200638 
L 76.826988 -224.451258 
L 76.098172 -224.451258 
L 75.369356 -224.451258 
L 74.64054 -224.451258 
L 73.911724 -224.451258 
L 73.182908 -224.451258 
L 72.454092 -224.451258 
L 71.725276 -229.233271 
L 70.99646 -229.233271 
L 70.267644 -229.233271 
L 69.538828 -229.233271 
L 68.810012 -229.233271 
L 68.081196 -229.233271 
L 67.35238 -229.233271 
L 66.623564 -229.233271 
L 65.894748 -229.233271 
L 65.165932 -229.233271 
L 64.437116 -229.233271 
L 63.7083 -229.233271 
L 62.979484 -229.233271 
L 62.250668 -229.233271 
L 61.521852 -229.233271 
L 60.793036 -229.233271 
L 60.06422 -229.233271 
z
"/>
    </defs>
    <g clip-path="url(#p798ba4eee7)">
     <use xlink:href="#m774600288d" x="0" y="246.400156" style="fill: #f4a3a8; fill-opacity: 0.35"/>
    </g>
   </g>
   <g id="matplotlib.axis_1">
    <g id="xtick_1">
     <g id="line2d_1">
      <defs>
       <path id="mf04dd384d7" d="M 0 0 
L 0 3 
" style="stroke: #000000; stroke-width: 0.7"/>
      </defs>
      <g>
       <use xlink:href="#mf04dd384d7" x="60.06422" y="215.09209" style="stroke: #000000; stroke-width: 0.7"/>
      </g>
     </g>
     <g id="text_1">
      <text style="font-size: 6.5px; font-family: 'Arial', 'Helvetica', 'DejaVu Sans', sans-serif; text-anchor: middle" x="60.06422" y="226.324268" transform="rotate(-0 60.06422 226.324268)">0.0</text>
     </g>
    </g>
    <g id="xtick_2">
     <g id="line2d_2">
      <g>
       <use xlink:href="#mf04dd384d7" x="132.94582" y="215.09209" style="stroke: #000000; stroke-width: 0.7"/>
      </g>
     </g>
     <g id="text_2">
      <text style="font-size: 6.5px; font-family: 'Arial', 'Helvetica', 'DejaVu Sans', sans-serif; text-anchor: middle" x="132.94582" y="226.324268" transform="rotate(-0 132.94582 226.324268)">0.2</text>
     </g>
    </g>
    <g id="xtick_3">
     <g id="line2d_3">
      <g>
       <use xlink:href="#mf04dd384d7" x="205.82742" y="215.09209" style="stroke: #000000; stroke-width: 0.7"/>
      </g>
     </g>
     <g id="text_3">
      <text style="font-size: 6.5px; font-family: 'Arial', 'Helvetica', 'DejaVu Sans', sans-serif; text-anchor: middle" x="205.82742" y="226.324268" transform="rotate(-0 205.82742 226.324268)">0.4</text>
     </g>
    </g>
    <g id="xtick_4">
     <g id="line2d_4">
      <g>
       <use xlink:href="#mf04dd384d7" x="278.70902" y="215.09209" style="stroke: #000000; stroke-width: 0.7"/>
      </g>
     </g>
     <g id="text_4">
      <text style="font-size: 6.5px; font-family: 'Arial', 'Helvetica', 'DejaVu Sans', sans-serif; text-anchor: middle" x="278.70902" y="226.324268" transform="rotate(-0 278.70902 226.324268)">0.6</text>
     </g>
    </g>
    <g id="xtick_5">
     <g id="line2d_5">
      <g>
       <use xlink:href="#mf04dd384d7" x="351.59062" y="215.09209" style="stroke: #000000; stroke-width: 0.7"/>
      </g>
     </g>
     <g id="text_5">
      <text style="font-size: 6.5px; font-family: 'Arial', 'Helvetica', 'DejaVu Sans', sans-serif; text-anchor: middle" x="351.59062" y="226.324268" transform="rotate(-0 351.59062 226.324268)">0.8</text>
     </g>
    </g>
    <g id="xtick_6">
     <g id="line2d_6">
      <g>
       <use xlink:href="#mf04dd384d7" x="424.47222" y="215.09209" style="stroke: #000000; stroke-width: 0.7"/>
      </g>
     </g>
     <g id="text_6">
      <text style="font-size: 6.5px; font-family: 'Arial', 'Helvetica', 'DejaVu Sans', sans-serif; text-anchor: middle" x="424.47222" y="226.324268" transform="rotate(-0 424.47222 226.324268)">1.0</text>
     </g>
    </g>
    <g id="text_7">
     <text style="font-size: 8px; font-family: 'Arial', 'Helvetica', 'DejaVu Sans', sans-serif; text-anchor: middle" x="242.26822" y="237.516406" transform="rotate(-0 242.26822 237.516406)">Normalized optimization progress</text>
    </g>
   </g>
   <g id="matplotlib.axis_2">
    <g id="ytick_1">
     <g id="line2d_7">
      <defs>
       <path id="m165297b179" d="M 0 0 
L -3 0 
" style="stroke: #000000; stroke-width: 0.7"/>
      </defs>
      <g>
       <use xlink:href="#m165297b179" x="60.06422" y="197.876795" style="stroke: #000000; stroke-width: 0.7"/>
      </g>
     </g>
     <g id="text_8">
      <text style="font-size: 6.5px; font-family: 'Arial', 'Helvetica', 'DejaVu Sans', sans-serif; text-anchor: end" x="53.56422" y="200.242884" transform="rotate(-0 53.56422 200.242884)">0.2</text>
     </g>
    </g>
    <g id="ytick_2">
     <g id="line2d_8">
      <g>
       <use xlink:href="#m165297b179" x="60.06422" y="152.699318" style="stroke: #000000; stroke-width: 0.7"/>
      </g>
     </g>
     <g id="text_9">
      <text style="font-size: 6.5px; font-family: 'Arial', 'Helvetica', 'DejaVu Sans', sans-serif; text-anchor: end" x="53.56422" y="155.065407" transform="rotate(-0 53.56422 155.065407)">0.4</text>
     </g>
    </g>
    <g id="ytick_3">
     <g id="line2d_9">
      <g>
       <use xlink:href="#m165297b179" x="60.06422" y="107.52184" style="stroke: #000000; stroke-width: 0.7"/>
      </g>
     </g>
     <g id="text_10">
      <text style="font-size: 6.5px; font-family: 'Arial', 'Helvetica', 'DejaVu Sans', sans-serif; text-anchor: end" x="53.56422" y="109.887929" transform="rotate(-0 53.56422 109.887929)">0.6</text>
     </g>
    </g>
    <g id="ytick_4">
     <g id="line2d_10">
      <g>
       <use xlink:href="#m165297b179" x="60.06422" y="62.344363" style="stroke: #000000; stroke-width: 0.7"/>
      </g>
     </g>
     <g id="text_11">
      <text style="font-size: 6.5px; font-family: 'Arial', 'Helvetica', 'DejaVu Sans', sans-serif; text-anchor: end" x="53.56422" y="64.710452" transform="rotate(-0 53.56422 64.710452)">0.8</text>
     </g>
    </g>
    <g id="ytick_5">
     <g id="line2d_11">
      <g>
       <use xlink:href="#m165297b179" x="60.06422" y="17.166885" style="stroke: #000000; stroke-width: 0.7"/>
      </g>
     </g>
     <g id="text_12">
      <text style="font-size: 6.5px; font-family: 'Arial', 'Helvetica', 'DejaVu Sans', sans-serif; text-anchor: end" x="53.56422" y="19.532974" transform="rotate(-0 53.56422 19.532974)">1.0</text>
     </g>
    </g>
   </g>
   <g id="line2d_12">
    <path d="M 60.06422 17.166885 
L 64.437116 17.166885 
L 65.165932 19.929645 
L 65.894748 26.543725 
L 66.623564 26.543725 
L 67.35238 44.931667 
L 86.301596 44.931667 
L 87.030412 75.369998 
L 124.200028 75.369998 
L 124.928844 80.27326 
L 159.912012 80.27326 
L 160.640828 82.417008 
L 169.38662 82.417008 
L 170.115436 108.147076 
L 190.522284 108.147076 
L 191.2511 114.262619 
L 424.47222 114.262619 
L 424.47222 114.262619 
" clip-path="url(#p798ba4eee7)" style="fill: none; stroke: #b8b8b8; stroke-opacity: 0.28; stroke-width: 0.75; stroke-linecap: square"/>
   </g>
   <g id="line2d_13">
    <path d="M 60.06422 17.166885 
L 62.979484 17.166885 
L 63.7083 33.214788 
L 64.437116 33.214788 
L 65.165932 46.365913 
L 74.64054 46.365913 
L 75.369356 60.531361 
L 86.301596 60.531361 
L 87.030412 71.23477 
L 132.217004 71.23477 
L 132.94582 93.988719 
L 373.4551 93.988719 
L 374.183916 98.109287 
L 424.47222 98.109287 
L 424.47222 98.109287 
" clip-path="url(#p798ba4eee7)" style="fill: none; stroke: #b8b8b8; stroke-opacity: 0.28; stroke-width: 0.75; stroke-linecap: square"/>
   </g>
   <g id="line2d_14">
    <path d="M 60.06422 17.166885 
L 79.013436 17.166885 
L 79.742252 65.486704 
L 90.674492 65.486704 
L 91.403308 69.910668 
L 162.827276 69.910668 
L 163.556092 95.941247 
L 164.284908 105.679082 
L 232.793612 105.679082 
L 233.522428 89.974343 
L 304.946396 89.974343 
L 305.675212 133.092428 
L 307.86166 133.092428 
L 308.590476 116.966275 
L 424.47222 116.966275 
L 424.47222 116.966275 
" clip-path="url(#p798ba4eee7)" style="fill: none; stroke: #b8b8b8; stroke-opacity: 0.28; stroke-width: 0.75; stroke-linecap: square"/>
   </g>
   <g id="line2d_15">
    <path d="M 60.06422 17.166885 
L 70.99646 17.166885 
L 71.725276 64.846352 
L 72.454092 64.846352 
L 73.182908 61.322676 
L 124.928844 61.322676 
L 125.65766 81.098586 
L 133.674636 81.098586 
L 134.403452 86.749389 
L 285.99718 86.749389 
L 286.725996 105.455709 
L 302.759948 105.455709 
L 303.488764 120.80524 
L 340.65838 120.80524 
L 341.387196 118.046209 
L 424.47222 118.046209 
L 424.47222 118.046209 
" clip-path="url(#p798ba4eee7)" style="fill: none; stroke: #b8b8b8; stroke-opacity: 0.28; stroke-width: 0.75; stroke-linecap: square"/>
   </g>
   <g id="line2d_16">
    <path d="M 60.06422 17.166885 
L 61.521852 17.166885 
L 62.250668 121.828895 
L 72.454092 121.828895 
L 73.182908 128.3683 
L 76.826988 128.3683 
L 77.555804 131.05721 
L 103.064364 131.05721 
L 103.79318 157.858236 
L 104.521996 158.333649 
L 116.183052 158.333649 
L 116.911868 152.930967 
L 138.776348 152.930967 
L 139.505164 158.333649 
L 186.149388 158.333649 
L 186.878204 159.241474 
L 281.624284 159.241474 
L 282.3531 162.803262 
L 315.878636 162.803262 
L 316.607452 166.079792 
L 395.31958 166.079792 
L 396.048396 163.788844 
L 424.47222 163.788844 
L 424.47222 163.788844 
" clip-path="url(#p798ba4eee7)" style="fill: none; stroke: #b8b8b8; stroke-opacity: 0.28; stroke-width: 0.75; stroke-linecap: square"/>
   </g>
   <g id="line2d_17">
    <path d="M 60.06422 17.166885 
L 60.793036 46.051285 
L 84.843964 46.051285 
L 85.57278 61.829424 
L 97.233836 61.829424 
L 97.962652 108.507575 
L 110.352524 108.507575 
L 111.08134 115.479798 
L 233.522428 115.479798 
L 234.251244 144.467856 
L 421.556956 144.467856 
L 422.285772 130.662464 
L 424.47222 130.662464 
L 424.47222 130.662464 
" clip-path="url(#p798ba4eee7)" style="fill: none; stroke: #b8b8b8; stroke-opacity: 0.28; stroke-width: 0.75; stroke-linecap: square"/>
   </g>
   <g id="line2d_18">
    <path d="M 60.06422 17.166885 
L 66.623564 17.166885 
L 67.35238 62.178957 
L 73.911724 62.178957 
L 74.64054 108.052793 
L 84.115148 108.052793 
L 84.843964 110.31627 
L 88.488044 110.31627 
L 89.21686 117.652489 
L 91.403308 117.652489 
L 92.132124 128.348735 
L 97.233836 128.348735 
L 97.962652 134.926655 
L 167.928988 134.926655 
L 168.657804 162.707899 
L 192.708732 162.707899 
L 193.437548 164.549173 
L 196.352812 164.549173 
L 197.081628 164.795026 
L 242.997036 164.795026 
L 243.725852 159.011482 
L 282.3531 159.011482 
L 283.081916 161.245754 
L 424.47222 161.245754 
L 424.47222 161.245754 
" clip-path="url(#p798ba4eee7)" style="fill: none; stroke: #b8b8b8; stroke-opacity: 0.28; stroke-width: 0.75; stroke-linecap: square"/>
   </g>
   <g id="line2d_19">
    <path d="M 60.06422 17.166885 
L 110.352524 17.166885 
L 111.08134 59.572998 
L 145.335692 59.572998 
L 146.064508 127.677953 
L 165.013724 127.677953 
L 165.74254 161.974483 
L 208.742684 161.974483 
L 209.4715 177.663456 
L 424.47222 177.663456 
L 424.47222 177.663456 
" clip-path="url(#p798ba4eee7)" style="fill: none; stroke: #b8b8b8; stroke-opacity: 0.28; stroke-width: 0.75; stroke-linecap: square"/>
   </g>
   <g id="line2d_20">
    <path d="M 60.06422 17.166885 
L 60.793036 18.203112 
L 71.725276 18.203112 
L 72.454092 26.730911 
L 87.759228 26.730911 
L 88.488044 45.896767 
L 89.21686 59.086779 
L 89.945676 59.086779 
L 90.674492 78.788115 
L 97.233836 78.788115 
L 97.962652 108.233637 
L 105.979628 108.233637 
L 106.708444 100.756243 
L 113.996604 100.756243 
L 114.72542 108.011052 
L 121.284764 108.011052 
L 122.01358 100.956334 
L 141.691612 100.956334 
L 142.420428 108.011052 
L 146.064508 108.011052 
L 146.793324 108.233637 
L 217.488476 108.233637 
L 218.217292 111.445774 
L 424.47222 111.445774 
L 424.47222 111.445774 
" clip-path="url(#p798ba4eee7)" style="fill: none; stroke: #b8b8b8; stroke-opacity: 0.28; stroke-width: 0.75; stroke-linecap: square"/>
   </g>
   <g id="line2d_21">
    <path d="M 60.06422 17.166885 
L 71.725276 17.166885 
L 72.454092 77.193702 
L 108.894892 77.193702 
L 109.623708 99.113516 
L 112.538972 99.113516 
L 113.267788 101.30832 
L 114.72542 101.30832 
L 115.454236 104.16434 
L 175.945964 104.16434 
L 176.67478 109.438438 
L 192.708732 109.438438 
L 193.437548 113.665858 
L 250.285196 113.665858 
L 251.014012 121.999589 
L 299.844684 121.999589 
L 300.5735 120.227064 
L 306.404028 120.227064 
L 307.132844 121.681907 
L 307.86166 121.681907 
L 308.590476 121.999589 
L 374.912732 121.999589 
L 375.641548 141.365963 
L 384.38734 141.365963 
L 385.116156 146.073741 
L 424.47222 146.073741 
L 424.47222 146.073741 
" clip-path="url(#p798ba4eee7)" style="fill: none; stroke: #b8b8b8; stroke-opacity: 0.28; stroke-width: 0.75; stroke-linecap: square"/>
   </g>
   <g id="line2d_22">
    <path d="M 60.06422 17.166885 
L 63.7083 17.166885 
L 64.437116 35.425813 
L 71.725276 35.425813 
L 72.454092 123.150935 
L 73.182908 158.345122 
L 178.861228 158.345122 
L 179.590044 167.593621 
L 190.522284 167.593621 
L 191.2511 171.603604 
L 194.89518 171.603604 
L 195.623996 199.693135 
L 199.268076 199.693135 
L 199.996892 193.087671 
L 237.895324 193.087671 
L 238.62414 205.642449 
L 340.65838 205.642449 
L 341.387196 203.700801 
L 346.488908 203.700801 
L 347.217724 203.914864 
L 424.47222 203.914864 
L 424.47222 203.914864 
" clip-path="url(#p798ba4eee7)" style="fill: none; stroke: #b8b8b8; stroke-opacity: 0.28; stroke-width: 0.75; stroke-linecap: square"/>
   </g>
   <g id="line2d_23">
    <path d="M 60.06422 17.166885 
L 66.623564 17.166885 
L 67.35238 44.730701 
L 75.369356 44.730701 
L 76.098172 54.281398 
L 109.623708 54.281398 
L 110.352524 94.7911 
L 148.979772 94.7911 
L 149.708588 106.12974 
L 209.4715 106.12974 
L 210.200316 107.565031 
L 424.47222 107.565031 
L 424.47222 107.565031 
" clip-path="url(#p798ba4eee7)" style="fill: none; stroke: #b8b8b8; stroke-opacity: 0.28; stroke-width: 0.75; stroke-linecap: square"/>
   </g>
   <g id="line2d_24">
    <path d="M 60.06422 17.166885 
L 64.437116 17.166885 
L 65.165932 16.64964 
L 94.318572 16.64964 
L 95.047388 30.311323 
L 113.996604 30.311323 
L 114.72542 86.277582 
L 152.623852 86.277582 
L 153.352668 73.582948 
L 194.166364 73.582948 
L 194.89518 83.117938 
L 204.369788 83.117938 
L 205.098604 85.569605 
L 259.030988 85.569605 
L 259.759804 103.307121 
L 280.166652 103.307121 
L 280.895468 100.807981 
L 424.47222 100.807981 
L 424.47222 100.807981 
" clip-path="url(#p798ba4eee7)" style="fill: none; stroke: #b8b8b8; stroke-opacity: 0.28; stroke-width: 0.75; stroke-linecap: square"/>
   </g>
   <g id="line2d_25">
    <path d="M 60.06422 17.166885 
L 76.826988 17.166885 
L 77.555804 23.668126 
L 92.132124 23.668126 
L 92.86094 59.33608 
L 113.996604 59.33608 
L 114.72542 80.588969 
L 126.386476 80.588969 
L 127.115292 108.086862 
L 181.776492 108.086862 
L 182.505308 109.9108 
L 208.742684 109.9108 
L 209.4715 114.700862 
L 225.505452 114.700862 
L 226.234268 121.138883 
L 292.556524 121.138883 
L 293.28534 120.440345 
L 336.285484 120.440345 
L 337.0143 119.68175 
L 389.489052 119.68175 
L 390.217868 120.440345 
L 424.47222 120.440345 
L 424.47222 120.440345 
" clip-path="url(#p798ba4eee7)" style="fill: none; stroke: #b8b8b8; stroke-opacity: 0.28; stroke-width: 0.75; stroke-linecap: square"/>
   </g>
   <g id="line2d_26">
    <path d="M 60.06422 17.166885 
L 67.35238 17.166885 
L 68.081196 76.442027 
L 91.403308 76.442027 
L 92.132124 92.988099 
L 115.454236 92.988099 
L 116.183052 109.663564 
L 122.742396 109.663564 
L 123.471212 94.247271 
L 152.623852 94.247271 
L 153.352668 108.449877 
L 159.183196 108.449877 
L 159.912012 111.761086 
L 182.505308 111.761086 
L 183.234124 121.037325 
L 202.912156 121.037325 
L 203.640972 138.714015 
L 210.929132 138.714015 
L 211.657948 140.163939 
L 220.40374 140.163939 
L 221.132556 143.852734 
L 424.47222 143.852734 
L 424.47222 143.852734 
" clip-path="url(#p798ba4eee7)" style="fill: none; stroke: #b8b8b8; stroke-opacity: 0.28; stroke-width: 0.75; stroke-linecap: square"/>
   </g>
   <g id="line2d_27">
    <path d="M 60.06422 17.166885 
L 66.623564 17.166885 
L 67.35238 90.904086 
L 75.369356 90.904086 
L 76.098172 145.575394 
L 82.657516 145.575394 
L 83.386332 155.857703 
L 129.30174 155.857703 
L 130.030556 161.958531 
L 151.16622 161.958531 
L 151.895036 167.657048 
L 158.45438 167.657048 
L 159.183196 167.22624 
L 353.048252 167.22624 
L 353.777068 186.849289 
L 424.47222 186.849289 
L 424.47222 186.849289 
" clip-path="url(#p798ba4eee7)" style="fill: none; stroke: #b8b8b8; stroke-opacity: 0.28; stroke-width: 0.75; stroke-linecap: square"/>
   </g>
   <g id="line2d_28">
    <path d="M 60.06422 17.166885 
L 62.979484 17.166885 
L 63.7083 23.591276 
L 65.894748 23.591276 
L 66.623564 41.120265 
L 70.99646 41.120265 
L 71.725276 89.640612 
L 78.28462 89.640612 
L 79.013436 96.663171 
L 95.047388 96.663171 
L 95.776204 108.365765 
L 104.521996 108.365765 
L 105.250812 134.913225 
L 105.979628 125.04685 
L 125.65766 125.04685 
L 126.386476 140.204833 
L 132.217004 140.204833 
L 132.94582 156.815774 
L 134.403452 156.815774 
L 135.132268 148.05625 
L 140.23398 148.05625 
L 140.962796 157.280294 
L 163.556092 157.280294 
L 164.284908 152.061774 
L 176.67478 152.061774 
L 177.403596 156.236873 
L 178.861228 156.236873 
L 179.590044 165.112969 
L 227.6919 165.112969 
L 228.420716 173.750973 
L 229.878348 173.750973 
L 230.607164 154.185824 
L 267.047964 154.185824 
L 267.77678 170.058255 
L 424.47222 170.058255 
L 424.47222 170.058255 
" clip-path="url(#p798ba4eee7)" style="fill: none; stroke: #b8b8b8; stroke-opacity: 0.28; stroke-width: 0.75; stroke-linecap: square"/>
   </g>
   <g id="line2d_29">
    <path d="M 60.06422 17.166885 
L 68.810012 17.166885 
L 69.538828 85.908162 
L 79.013436 85.908162 
L 79.742252 86.150251 
L 87.030412 86.150251 
L 87.759228 87.946859 
L 92.132124 87.946859 
L 92.86094 113.73246 
L 97.962652 113.73246 
L 98.691468 126.348608 
L 121.284764 126.348608 
L 122.01358 140.13226 
L 134.403452 140.13226 
L 135.132268 148.187196 
L 181.047676 148.187196 
L 181.776492 148.453924 
L 213.11558 148.453924 
L 213.844396 153.878751 
L 224.04782 153.878751 
L 224.776636 154.580308 
L 230.607164 154.580308 
L 231.33598 161.654884 
L 336.285484 161.655183 
L 337.0143 163.524413 
L 370.539836 163.524413 
L 371.268652 155.809904 
L 380.014444 155.809904 
L 380.74326 162.489859 
L 420.099324 162.489859 
L 420.82814 163.28671 
L 424.47222 163.28671 
L 424.47222 163.28671 
" clip-path="url(#p798ba4eee7)" style="fill: none; stroke: #b8b8b8; stroke-opacity: 0.28; stroke-width: 0.75; stroke-linecap: square"/>
   </g>
   <g id="line2d_30">
    <path d="M 60.06422 17.166885 
L 91.403308 17.166885 
L 92.132124 84.845932 
L 102.335548 84.845932 
L 103.064364 119.847174 
L 109.623708 119.847174 
L 110.352524 141.567278 
L 118.3695 141.567278 
L 119.098316 158.213715 
L 130.759372 158.213715 
L 131.488188 149.892438 
L 140.23398 149.892438 
L 140.962796 150.619291 
L 146.064508 150.619291 
L 146.793324 196.814039 
L 183.96294 196.814039 
L 184.691756 196.482922 
L 424.47222 196.482922 
L 424.47222 196.482922 
" clip-path="url(#p798ba4eee7)" style="fill: none; stroke: #b8b8b8; stroke-opacity: 0.28; stroke-width: 0.75; stroke-linecap: square"/>
   </g>
   <g id="line2d_31">
    <path d="M 60.06422 17.166885 
L 60.793036 18.741655 
L 61.521852 18.741655 
L 62.250668 24.250182 
L 62.979484 24.250182 
L 63.7083 25.432934 
L 65.165932 27.20428 
L 65.894748 27.552389 
L 66.623564 28.474968 
L 67.35238 37.143443 
L 68.081196 40.263187 
L 68.810012 40.263187 
L 69.538828 43.881149 
L 70.99646 43.881149 
L 71.725276 48.944297 
L 72.454092 57.169547 
L 73.182908 59.180595 
L 73.911724 59.180595 
L 74.64054 61.595007 
L 75.369356 62.340557 
L 76.098172 65.720663 
L 76.826988 65.720663 
L 77.555804 66.204355 
L 78.28462 66.204355 
L 79.013436 66.573963 
L 79.742252 69.129853 
L 82.657516 69.129853 
L 83.386332 69.671027 
L 84.115148 69.671027 
L 84.843964 69.790158 
L 85.57278 70.620586 
L 86.301596 70.620586 
L 87.030412 72.785941 
L 87.759228 72.880499 
L 89.21686 74.969556 
L 89.945676 74.969556 
L 90.674492 76.006469 
L 91.403308 76.239309 
L 92.132124 81.23517 
L 92.86094 84.469568 
L 94.318572 84.469568 
L 95.776204 85.80453 
L 97.233836 85.80453 
L 97.962652 90.157245 
L 98.691468 90.821253 
L 102.335548 90.821253 
L 103.064364 92.663424 
L 103.79318 94.074004 
L 104.521996 94.099026 
L 105.250812 95.49626 
L 106.708444 94.583431 
L 108.894892 94.583431 
L 109.623708 95.737105 
L 110.352524 99.012358 
L 111.08134 101.611218 
L 112.538972 101.611218 
L 113.267788 101.726734 
L 113.996604 101.726734 
L 114.72542 106.172731 
L 115.454236 106.323048 
L 116.183052 107.200704 
L 116.911868 106.916353 
L 118.3695 106.916353 
L 119.098316 107.792481 
L 121.284764 107.792481 
L 122.01358 108.146635 
L 122.742396 108.146635 
L 123.471212 107.335251 
L 124.200028 107.335251 
L 124.928844 107.593318 
L 125.65766 108.634155 
L 126.386476 109.431944 
L 127.115292 110.879201 
L 129.30174 110.879201 
L 130.030556 111.200297 
L 130.759372 111.200297 
L 131.488188 110.762336 
L 132.217004 110.762336 
L 132.94582 112.834172 
L 133.674636 112.834172 
L 134.403452 113.131583 
L 137.318716 113.094499 
L 138.776348 113.094499 
L 139.505164 113.378851 
L 140.23398 113.378851 
L 140.962796 113.902582 
L 141.691612 113.902582 
L 142.420428 114.273883 
L 145.335692 114.273883 
L 146.064508 117.858354 
L 146.793324 120.301372 
L 148.979772 120.301372 
L 149.708588 120.898142 
L 151.16622 120.898142 
L 151.895036 121.198064 
L 159.183196 121.254757 
L 160.640828 121.54186 
L 162.827276 121.54186 
L 163.556092 122.911891 
L 164.284908 123.149749 
L 165.013724 123.149749 
L 165.74254 124.95483 
L 167.928988 124.95483 
L 168.657804 126.417001 
L 169.38662 126.417001 
L 170.115436 127.771215 
L 175.945964 127.771215 
L 177.403596 128.268541 
L 178.861228 128.268541 
L 179.590044 129.222467 
L 182.505308 129.332502 
L 183.234124 129.820725 
L 190.522284 129.851078 
L 191.2511 130.384001 
L 192.708732 130.384001 
L 193.437548 130.703405 
L 194.166364 130.703405 
L 194.89518 131.205247 
L 195.623996 132.683643 
L 199.268076 132.696583 
L 199.996892 132.348927 
L 202.912156 132.348927 
L 203.640972 133.279279 
L 204.369788 133.279279 
L 205.098604 133.408314 
L 208.742684 133.408314 
L 209.4715 134.486158 
L 211.657948 134.638012 
L 213.11558 134.638012 
L 213.844396 134.923529 
L 217.488476 134.923529 
L 218.217292 135.092589 
L 220.40374 135.092589 
L 221.132556 135.286736 
L 225.505452 135.32366 
L 226.234268 135.662503 
L 227.6919 135.662503 
L 228.420716 136.117135 
L 229.878348 136.117135 
L 230.607164 135.08739 
L 231.33598 135.459736 
L 232.793612 135.459736 
L 233.522428 134.633171 
L 234.251244 136.158858 
L 237.895324 136.158858 
L 238.62414 136.819636 
L 242.997036 136.819636 
L 243.725852 136.515239 
L 250.285196 136.515239 
L 251.014012 136.953857 
L 259.030988 136.953857 
L 259.759804 137.88741 
L 267.047964 137.88741 
L 267.77678 138.722801 
L 280.166652 138.722801 
L 280.895468 138.591267 
L 281.624284 138.591267 
L 283.081916 138.896323 
L 285.99718 138.896323 
L 286.725996 139.880866 
L 299.844684 139.844101 
L 301.302316 139.75081 
L 302.759948 139.75081 
L 303.488764 140.55868 
L 304.946396 140.55868 
L 305.675212 142.828053 
L 307.86166 142.90464 
L 308.590476 142.072615 
L 315.878636 142.072615 
L 316.607452 142.245064 
L 340.65838 142.303518 
L 341.387196 142.056114 
L 353.048252 142.067381 
L 353.777068 143.100173 
L 370.539836 143.100173 
L 371.268652 142.694146 
L 373.4551 142.694146 
L 374.183916 142.911018 
L 374.912732 142.911018 
L 375.641548 143.930301 
L 380.014444 143.930301 
L 380.74326 144.281877 
L 384.38734 144.281877 
L 385.116156 144.529655 
L 421.556956 144.490945 
L 422.285772 143.764345 
L 424.47222 143.764345 
L 424.47222 143.764345 
" clip-path="url(#p798ba4eee7)" style="fill: none; stroke: #b2182b; stroke-width: 2.5; stroke-linecap: square"/>
   </g>
   <g id="line2d_32">
    <path d="M 60.06422 17.166885 
L 424.47222 17.166885 
" clip-path="url(#p798ba4eee7)" style="fill: none; stroke-dasharray: 2.96,1.28; stroke-dashoffset: 0; stroke: #555555; stroke-opacity: 0.7; stroke-width: 0.8"/>
   </g>
   <g id="patch_3">
    <path d="M 60.06422 215.09209 
L 60.06422 7.2 
" style="fill: none; stroke: #222222; stroke-width: 0.8; stroke-linejoin: miter; stroke-linecap: square"/>
   </g>
   <g id="patch_4">
    <path d="M 60.06422 215.09209 
L 424.47222 215.09209 
" style="fill: none; stroke: #222222; stroke-width: 0.8; stroke-linejoin: miter; stroke-linecap: square"/>
   </g>
   <g id="text_13">
    <!-- $\frac{\max_i |\kappa_{g,i}|}{\max_i |\kappa_{g,i,0}|}$ -->
    <g transform="translate(7.2 114.021045)">
     <text>
      <tspan x="0.71875" y="3.617969" style="font-size: 8.05px; font-family: 'cmr10'">m</tspan>
      <tspan x="3.71875" y="-9.9625" style="font-size: 8.05px; font-family: 'cmr10'">m</tspan>
      <tspan x="7.424463" y="3.617969" style="font-size: 8.05px; font-family: 'cmr10'">a</tspan>
      <tspan x="10.424463" y="-9.9625" style="font-size: 8.05px; font-family: 'cmr10'">a</tspan>
      <tspan x="11.449463" y="3.617969" style="font-size: 8.05px; font-family: 'cmr10'">x</tspan>
      <tspan x="14.449463" y="-9.9625" style="font-size: 8.05px; font-family: 'cmr10'">x</tspan>
      <tspan x="7.71875" y="8.943438" style="font-size: 5.635px; font-family: 'cmmi10'">i</tspan>
      <tspan x="10.71875" y="-4.637031" style="font-size: 5.635px; font-family: 'cmmi10'">i</tspan>
      <tspan x="23.899217" y="4.825466" style="font-size: 5.635px; font-family: 'cmmi10'">g</tspan>
      <tspan x="26.587398" y="4.825466" style="font-size: 5.635px; font-family: 'cmmi10'">;</tspan>
      <tspan x="26.899217" y="-8.755003" style="font-size: 5.635px; font-family: 'cmmi10'">g</tspan>
      <tspan x="29.274482" y="4.825466" style="font-size: 5.635px; font-family: 'cmmi10'">i</tspan>
      <tspan x="29.587398" y="-8.755003" style="font-size: 5.635px; font-family: 'cmmi10'">;</tspan>
      <tspan x="31.214265" y="4.825466" style="font-size: 5.635px; font-family: 'cmmi10'">;</tspan>
      <tspan x="32.274482" y="-8.755003" style="font-size: 5.635px; font-family: 'cmmi10'">i</tspan>
      <tspan x="17.032347" y="3.617969" style="font-size: 8.05px; font-family: 'cmsy10'">j</tspan>
      <tspan x="20.032347" y="-9.9625" style="font-size: 8.05px; font-family: 'cmsy10'">j</tspan>
      <tspan x="34.674758" y="-9.9625" style="font-size: 8.05px; font-family: 'cmsy10'">j</tspan>
      <tspan x="37.179342" y="3.617969" style="font-size: 8.05px; font-family: 'cmsy10'">j</tspan>
      <tspan x="19.261033" y="3.617969" style="font-size: 8.05px; font-family: 'cmmi10'">∙</tspan>
      <tspan x="22.261033" y="-9.9625" style="font-size: 8.05px; font-family: 'cmmi10'">∙</tspan>
      <tspan x="33.901348" y="4.825466" style="font-size: 5.635px; font-family: 'cmr10'">0</tspan>
     </text>
     <rect x="0.71875" y="-4.138281" width="38.689278" height="0.71875"/>
    </g>
   </g>
  </g>
 </g>
 <defs>
  <clipPath id="p798ba4eee7">
   <rect x="60.06422" y="7.2" width="364.408" height="207.89209"/>
  </clipPath>
 </defs>
</svg>
