<?xml version="1.0" encoding="utf-8" standalone="no"?>
<!DOCTYPE svg PUBLIC "-//W3C//DTD SVG 1.1//EN"
  "http://www.w3.org/Graphics/SVG/1.1/DTD/svg11.dtd">
<svg xmlns:xlink="http://www.w3.org/1999/xlink" width="420.222356pt" height="169.200156pt" viewBox="0 0 420.222356 169.200156" xmlns="http://www.w3.org/2000/svg" version="1.1">
 <metadata>
  <rdf:RDF xmlns:dc="http://purl.org/dc/elements/1.1/" xmlns:cc="http://creativecommons.org/ns#" xmlns:rdf="http://www.w3.org/1999/02/22-rdf-syntax-ns#">
   <cc:Work>
    <dc:type rdf:resource="http://purl.org/dc/dcmitype/StillImage"/>
    <dc:date>2026-06-23T12:37:48.487154</dc:date>
    <dc:format>image/svg+xml</dc:format>
    <dc:creator>
     <cc:Agent>
      <dc:title>Matplotlib v3.11.0, https://matplotlib.org/</dc:title>
     </cc:Agent>
    </dc:creator>
   </cc:Work>
  </rdf:RDF>
 </metadata>
 <defs>
  <style type="text/css">*{stroke-linejoin: round; stroke-linecap: butt}</style>
 </defs>
 <g id="figure_1">
  <g id="patch_1">
   <path d="M 0 169.200156 
L 420.222356 169.200156 
L 420.222356 0 
L 0 0 
z
" style="fill: #ffffff"/>
  </g>
  <g id="axes_1">
   <g id="patch_2">
    <path d="M 60.177756 137.422852 
L 408.157356 137.422852 
L 408.157356 7.2 
L 60.177756 7.2 
z
" style="fill: #ffffff"/>
   </g>
   <g id="matplotlib.axis_1">
    <g id="xtick_1">
     <g id="line2d_1">
      <defs>
       <path id="m3a3e6a20b9" d="M 0 0 
L 0 3 
" style="stroke: #222222; stroke-width: 0.8"/>
      </defs>
      <g>
       <use xlink:href="#m3a3e6a20b9" x="60.177756" y="137.422852" style="fill: #222222; stroke: #222222; stroke-width: 0.8"/>
      </g>
     </g>
     <g id="text_1">
      <text style="font-size: 7px; font-family: 'Arial', 'Helvetica', 'DejaVu Sans', sans-serif; text-anchor: middle; fill: #222222" x="60.177756" y="149.019043" transform="rotate(-0 60.177756 149.019043)">0.0</text>
     </g>
    </g>
    <g id="xtick_2">
     <g id="line2d_2">
      <g>
       <use xlink:href="#m3a3e6a20b9" x="129.773676" y="137.422852" style="fill: #222222; stroke: #222222; stroke-width: 0.8"/>
      </g>
     </g>
     <g id="text_2">
      <text style="font-size: 7px; font-family: 'Arial', 'Helvetica', 'DejaVu Sans', sans-serif; text-anchor: middle; fill: #222222" x="129.773676" y="149.019043" transform="rotate(-0 129.773676 149.019043)">0.2</text>
     </g>
    </g>
    <g id="xtick_3">
     <g id="line2d_3">
      <g>
       <use xlink:href="#m3a3e6a20b9" x="199.369596" y="137.422852" style="fill: #222222; stroke: #222222; stroke-width: 0.8"/>
      </g>
     </g>
     <g id="text_3">
      <text style="font-size: 7px; font-family: 'Arial', 'Helvetica', 'DejaVu Sans', sans-serif; text-anchor: middle; fill: #222222" x="199.369596" y="149.019043" transform="rotate(-0 199.369596 149.019043)">0.4</text>
     </g>
    </g>
    <g id="xtick_4">
     <g id="line2d_4">
      <g>
       <use xlink:href="#m3a3e6a20b9" x="268.965516" y="137.422852" style="fill: #222222; stroke: #222222; stroke-width: 0.8"/>
      </g>
     </g>
     <g id="text_4">
      <text style="font-size: 7px; font-family: 'Arial', 'Helvetica', 'DejaVu Sans', sans-serif; text-anchor: middle; fill: #222222" x="268.965516" y="149.019043" transform="rotate(-0 268.965516 149.019043)">0.6</text>
     </g>
    </g>
    <g id="xtick_5">
     <g id="line2d_5">
      <g>
       <use xlink:href="#m3a3e6a20b9" x="338.561436" y="137.422852" style="fill: #222222; stroke: #222222; stroke-width: 0.8"/>
      </g>
     </g>
     <g id="text_5">
      <text style="font-size: 7px; font-family: 'Arial', 'Helvetica', 'DejaVu Sans', sans-serif; text-anchor: middle; fill: #222222" x="338.561436" y="149.019043" transform="rotate(-0 338.561436 149.019043)">0.8</text>
     </g>
    </g>
    <g id="xtick_6">
     <g id="line2d_6">
      <g>
       <use xlink:href="#m3a3e6a20b9" x="408.157356" y="137.422852" style="fill: #222222; stroke: #222222; stroke-width: 0.8"/>
      </g>
     </g>
     <g id="text_6">
      <text style="font-size: 7px; font-family: 'Arial', 'Helvetica', 'DejaVu Sans', sans-serif; text-anchor: middle; fill: #222222" x="408.157356" y="149.019043" transform="rotate(-0 408.157356 149.019043)">1.0</text>
     </g>
    </g>
    <g id="text_7">
     <text style="font-size: 8px; font-family: 'Arial', 'Helvetica', 'DejaVu Sans', sans-serif; text-anchor: middle" x="234.167556" y="160.316406" transform="rotate(-0 234.167556 160.316406)">Normalized arc length</text>
    </g>
   </g>
   <g id="matplotlib.axis_2">
    <g id="ytick_1">
     <g id="line2d_7">
      <defs>
       <path id="mb4ce00e4df" d="M 0 0 
L -3 0 
" style="stroke: #222222; stroke-width: 0.8"/>
      </defs>
      <g>
       <use xlink:href="#mb4ce00e4df" x="60.177756" y="131.503631" style="fill: #222222; stroke: #222222; stroke-width: 0.8"/>
      </g>
     </g>
     <g id="text_8">
      <text style="font-size: 7px; font-family: 'Arial', 'Helvetica', 'DejaVu Sans', sans-serif; text-anchor: end; fill: #222222" x="53.677756" y="134.051727" transform="rotate(-0 53.677756 134.051727)">0</text>
     </g>
    </g>
    <g id="ytick_2">
     <g id="line2d_8">
      <g>
       <use xlink:href="#mb4ce00e4df" x="60.177756" y="110.61777" style="fill: #222222; stroke: #222222; stroke-width: 0.8"/>
      </g>
     </g>
     <g id="text_9">
      <text style="font-size: 7px; font-family: 'Arial', 'Helvetica', 'DejaVu Sans', sans-serif; text-anchor: end; fill: #222222" x="53.677756" y="113.165866" transform="rotate(-0 53.677756 113.165866)">5</text>
     </g>
    </g>
    <g id="ytick_3">
     <g id="line2d_9">
      <g>
       <use xlink:href="#mb4ce00e4df" x="60.177756" y="89.731909" style="fill: #222222; stroke: #222222; stroke-width: 0.8"/>
      </g>
     </g>
     <g id="text_10">
      <text style="font-size: 7px; font-family: 'Arial', 'Helvetica', 'DejaVu Sans', sans-serif; text-anchor: end; fill: #222222" x="53.677756" y="92.280005" transform="rotate(-0 53.677756 92.280005)">10</text>
     </g>
    </g>
    <g id="ytick_4">
     <g id="line2d_10">
      <g>
       <use xlink:href="#mb4ce00e4df" x="60.177756" y="68.846048" style="fill: #222222; stroke: #222222; stroke-width: 0.8"/>
      </g>
     </g>
     <g id="text_11">
      <text style="font-size: 7px; font-family: 'Arial', 'Helvetica', 'DejaVu Sans', sans-serif; text-anchor: end; fill: #222222" x="53.677756" y="71.394143" transform="rotate(-0 53.677756 71.394143)">15</text>
     </g>
    </g>
    <g id="ytick_5">
     <g id="line2d_11">
      <g>
       <use xlink:href="#mb4ce00e4df" x="60.177756" y="47.960187" style="fill: #222222; stroke: #222222; stroke-width: 0.8"/>
      </g>
     </g>
     <g id="text_12">
      <text style="font-size: 7px; font-family: 'Arial', 'Helvetica', 'DejaVu Sans', sans-serif; text-anchor: end; fill: #222222" x="53.677756" y="50.508282" transform="rotate(-0 53.677756 50.508282)">20</text>
     </g>
    </g>
    <g id="ytick_6">
     <g id="line2d_12">
      <g>
       <use xlink:href="#mb4ce00e4df" x="60.177756" y="27.074325" style="fill: #222222; stroke: #222222; stroke-width: 0.8"/>
      </g>
     </g>
     <g id="text_13">
      <text style="font-size: 7px; font-family: 'Arial', 'Helvetica', 'DejaVu Sans', sans-serif; text-anchor: end; fill: #222222" x="53.677756" y="29.622421" transform="rotate(-0 53.677756 29.622421)">25</text>
     </g>
    </g>
    <g id="text_14">
     <!-- $d$ -->
     <g transform="translate(18.72 55.087793)">
      <text>
       <tspan x="0" y="-0.671875" style="font-size: 12px; font-family: 'cmmi10'">d</tspan>
      </text>
     </g>
     <!-- $(\mathrm{mm})$ -->
     <g transform="translate(7.2 68.412012)">
      <text>
       <tspan x="0" y="-0" style="font-size: 12px; font-family: 'cmr10'">(</tspan>
       <tspan x="4.658203" y="-0" style="font-size: 12px; font-family: 'cmr10'">m</tspan>
       <tspan x="14.654297" y="-0" style="font-size: 12px; font-family: 'cmr10'">m</tspan>
       <tspan x="24.650391" y="-0" style="font-size: 12px; font-family: 'cmr10'">)</tspan>
      </text>
     </g>
    </g>
   </g>
   <g id="line2d_13">
    <path d="M 60.177756 131.503631 
L 64.753217 108.408317 
L 70.391721 122.300517 
L 74.617205 121.044803 
L 78.676023 123.271522 
L 83.022872 126.381846 
L 87.831091 124.863813 
L 91.935616 122.394496 
L 96.969277 104.788693 
L 101.344149 77.29421 
L 112.138597 82.786637 
L 116.443623 102.844353 
L 120.930654 118.884205 
L 125.546538 120.937941 
L 129.541881 123.018834 
L 133.761804 120.415693 
L 138.521913 125.944355 
L 142.530107 124.770523 
L 147.570285 119.011357 
L 152.018267 104.695177 
L 156.541385 79.592781 
L 165.57492 81.496251 
L 171.358813 107.244577 
L 175.55477 120.047834 
L 180.534138 123.580911 
L 184.487679 125.125968 
L 189.123738 123.034279 
L 192.989911 116.498002 
L 197.516541 122.396852 
L 202.386167 125.586295 
L 206.102542 123.550102 
L 211.082822 106.72621 
L 215.413393 82.87598 
L 224.724739 81.282295 
L 229.060966 104.120033 
L 234.408025 122.982321 
L 238.312526 124.388282 
L 242.893036 122.038698 
L 246.855519 124.317651 
L 250.818555 122.16084 
L 255.465692 124.050677 
L 259.716082 123.419961 
L 263.681391 119.29776 
L 268.976969 106.154099 
L 273.278302 82.217407 
L 283.186009 77.972441 
L 288.428076 106.723918 
L 292.67834 118.825547 
L 296.869068 124.361381 
L 301.693932 121.277984 
L 305.72269 126.09354 
L 310.645191 116.877018 
L 313.893827 103.457958 
L 318.530391 91.28448 
L 323.519928 72.442356 
L 346.480106 13.119221 
L 353.355158 26.527059 
L 375.003035 75.671812 
L 382.605771 99.47944 
L 385.916086 102.337165 
L 391.245294 119.141991 
L 396.032795 119.228307 
L 400.81752 113.668549 
L 408.157356 131.503631 
" clip-path="url(#p415543e63e)" style="fill: none; stroke-dasharray: 4.625,2; stroke-dashoffset: 0; stroke: #6c6c6c; stroke-width: 1.25"/>
   </g>
   <g id="line2d_14">
    <path d="M 60.177756 122.368531 
L 64.753217 121.500741 
L 70.391721 123.393469 
L 74.617205 128.189489 
L 78.676023 127.897422 
L 83.022872 125.739268 
L 87.831091 118.244968 
L 91.935616 117.315336 
L 96.969277 125.428916 
L 101.344149 101.524171 
L 112.138597 106.578325 
L 116.443623 123.062203 
L 120.930654 123.101298 
L 125.546538 120.860615 
L 129.541881 122.955384 
L 133.761804 126.250413 
L 138.521913 125.567711 
L 142.530107 123.130483 
L 147.570285 120.528168 
L 152.018267 119.526219 
L 156.541385 108.230295 
L 165.57492 102.253335 
L 171.358813 117.911813 
L 175.55477 120.655438 
L 180.534138 121.158877 
L 184.487679 122.293739 
L 189.123738 126.049263 
L 192.989911 117.40792 
L 197.516541 117.872406 
L 202.386167 118.112545 
L 206.102542 120.355371 
L 211.082822 126.412101 
L 215.413393 108.73561 
L 224.724739 95.283584 
L 229.060966 116.20046 
L 234.408025 124.484959 
L 238.312526 119.715966 
L 242.893036 119.891736 
L 246.855519 124.54492 
L 250.818555 129.083138 
L 255.465692 127.052574 
L 259.716082 120.735779 
L 263.681391 122.73034 
L 268.976969 124.254662 
L 273.278302 109.801924 
L 283.186009 103.427497 
L 288.428076 123.001827 
L 292.67834 123.99621 
L 296.869068 121.407598 
L 301.693932 124.019173 
L 305.72269 126.02889 
L 310.645191 122.410491 
L 313.893827 123.508018 
L 318.530391 129.283484 
L 323.519928 109.523149 
L 346.480106 112.101303 
L 353.355158 104.230202 
L 375.003035 91.882444 
L 382.605771 120.884305 
L 385.916086 121.338908 
L 391.245294 118.158106 
L 396.032795 127.596039 
L 400.81752 124.828862 
L 408.157356 130.899554 
" clip-path="url(#p415543e63e)" style="fill: none; stroke-dasharray: 4.995,2.16; stroke-dashoffset: 0; stroke: #4c78a8; stroke-width: 1.35"/>
   </g>
   <g id="line2d_15">
    <path d="M 60.177756 131.503631 
L 64.753217 131.503631 
L 70.391721 131.503631 
L 74.617205 131.503631 
L 78.676023 131.503631 
L 83.022872 121.619744 
L 87.831091 131.503631 
L 91.935616 118.551075 
L 96.969277 117.029141 
L 101.344149 122.801889 
L 112.138597 125.49466 
L 116.443623 125.542256 
L 120.930654 121.68273 
L 125.546538 125.611238 
L 129.541881 131.503631 
L 133.761804 125.611238 
L 138.521913 131.503631 
L 142.530107 131.503631 
L 147.570285 131.503631 
L 152.018267 115.138077 
L 156.541385 125.334362 
L 165.57492 119.260951 
L 171.358813 95.162567 
L 175.55477 115.469942 
L 180.534138 123.167577 
L 184.487679 118.088346 
L 189.123738 131.503631 
L 192.989911 131.503631 
L 197.516541 125.672014 
L 202.386167 123.085902 
L 206.102542 123.030834 
L 211.082822 111.504035 
L 215.413393 131.503631 
L 224.724739 125.479574 
L 229.060966 115.692666 
L 234.408025 117.838821 
L 238.312526 121.861764 
L 242.893036 131.503631 
L 246.855519 131.503631 
L 250.818555 131.503631 
L 255.465692 131.503631 
L 259.716082 121.910498 
L 263.681391 116.006386 
L 268.976969 107.084865 
L 273.278302 131.503631 
L 283.186009 131.503631 
L 288.428076 104.184176 
L 292.67834 131.503631 
L 296.869068 125.511868 
L 301.693932 119.620421 
L 305.72269 131.503631 
L 310.645191 131.503631 
L 313.893827 131.503631 
L 318.530391 131.503631 
L 323.519928 131.503631 
L 346.480106 124.642265 
L 353.355158 131.503631 
L 375.003035 131.503631 
L 382.605771 122.83742 
L 385.916086 131.503631 
L 391.245294 125.399317 
L 396.032795 119.440877 
L 400.81752 131.503631 
L 408.157356 131.503631 
" clip-path="url(#p415543e63e)" style="fill: none; stroke-dasharray: 4.995,2.16; stroke-dashoffset: 0; stroke: #4daf7c; stroke-width: 1.35"/>
   </g>
   <g id="patch_3">
    <path d="M 60.177756 137.422852 
L 60.177756 7.2 
" style="fill: none; stroke: #222222; stroke-width: 0.8; stroke-linejoin: miter; stroke-linecap: square"/>
   </g>
   <g id="patch_4">
    <path d="M 60.177756 137.422852 
L 408.157356 137.422852 
" style="fill: none; stroke: #222222; stroke-width: 0.8; stroke-linejoin: miter; stroke-linecap: square"/>
   </g>
   <g id="legend_1">
    <g id="patch_5">
     <path d="M 335.023762 32.777246 
L 404.657356 32.777246 
Q 405.657356 32.777246 405.657356 31.777246 
L 405.657356 10.7 
Q 405.657356 9.7 404.657356 9.7 
L 335.023762 9.7 
Q 334.023762 9.7 334.023762 10.7 
L 334.023762 31.777246 
Q 334.023762 32.777246 335.023762 32.777246 
z
" style="fill: #ffffff; opacity: 0.8; stroke: #cccccc; stroke-linejoin: miter"/>
    </g>
    <g id="line2d_16">
     <path d="M 336.023762 13.590137 
L 341.023762 13.590137 
L 346.023762 13.590137 
" style="fill: none; stroke-dasharray: 4.625,2; stroke-dashoffset: 0; stroke: #6c6c6c; stroke-width: 1.25"/>
    </g>
    <g id="text_15">
     <text style="font-size: 5px; font-family: 'Arial', 'Helvetica', 'DejaVu Sans', sans-serif; text-anchor: start" x="350.023762" y="15.340137" transform="rotate(-0 350.023762 15.340137)">Moving-average smooth</text>
    </g>
    <g id="line2d_17">
     <path d="M 336.023762 20.782617 
L 341.023762 20.782617 
L 346.023762 20.782617 
" style="fill: none; stroke-dasharray: 4.995,2.16; stroke-dashoffset: 0; stroke: #4c78a8; stroke-width: 1.35"/>
    </g>
    <g id="text_16">
     <text style="font-size: 5px; font-family: 'Arial', 'Helvetica', 'DejaVu Sans', sans-serif; text-anchor: start" x="350.023762" y="22.532617" transform="rotate(-0 350.023762 22.532617)">B-spline</text>
    </g>
    <g id="line2d_18">
     <path d="M 336.023762 27.975 
L 341.023762 27.975 
L 346.023762 27.975 
" style="fill: none; stroke-dasharray: 4.995,2.16; stroke-dashoffset: 0; stroke: #4daf7c; stroke-width: 1.35"/>
    </g>
    <g id="text_17">
     <text style="font-size: 5px; font-family: 'Arial', 'Helvetica', 'DejaVu Sans', sans-serif; text-anchor: start" x="350.023762" y="29.725" transform="rotate(-0 350.023762 29.725)">Geodesic optimized</text>
    </g>
   </g>
  </g>
 </g>
 <defs>
  <clipPath id="p415543e63e">
   <rect x="60.177756" y="7.2" width="347.9796" height="130.222852"/>
  </clipPath>
 </defs>
</svg>
