<?xml version="1.0" encoding="utf-8" standalone="no"?>
<!DOCTYPE svg PUBLIC "-//W3C//DTD SVG 1.1//EN"
  "http://www.w3.org/Graphics/SVG/1.1/DTD/svg11.dtd">
<svg xmlns:xlink="http://www.w3.org/1999/xlink" width="420.180072pt" height="169.317187pt" viewBox="0 0 420.180072 169.317187" xmlns="http://www.w3.org/2000/svg" version="1.1">
 <metadata>
  <rdf:RDF xmlns:dc="http://purl.org/dc/elements/1.1/" xmlns:cc="http://creativecommons.org/ns#" xmlns:rdf="http://www.w3.org/1999/02/22-rdf-syntax-ns#">
   <cc:Work>
    <dc:type rdf:resource="http://purl.org/dc/dcmitype/StillImage"/>
    <dc:date>2026-06-15T20:39:33.345197</dc:date>
    <dc:format>image/svg+xml</dc:format>
    <dc:creator>
     <cc:Agent>
      <dc:title>Matplotlib v3.10.8, https://matplotlib.org/</dc:title>
     </cc:Agent>
    </dc:creator>
   </cc:Work>
  </rdf:RDF>
 </metadata>
 <defs>
  <style type="text/css">*{stroke-linejoin: round; stroke-linecap: butt}</style>
 </defs>
 <g id="figure_1">
  <g id="patch_1">
   <path d="M 0 169.317187 
L 420.180072 169.317187 
L 420.180072 0 
L 0 0 
z
" style="fill: #ffffff"/>
  </g>
  <g id="axes_1">
   <g id="patch_2">
    <path d="M 60.104088 137.1 
L 407.413978 137.1 
L 407.413978 7.2 
L 60.104088 7.2 
z
" style="fill: #ffffff"/>
   </g>
   <g id="matplotlib.axis_1">
    <g id="xtick_1">
     <g id="line2d_1">
      <defs>
       <path id="m265d7c1584" d="M 0 0 
L 0 3 
" style="stroke: #222222; stroke-width: 0.8"/>
      </defs>
      <g>
       <use xlink:href="#m265d7c1584" x="60.104088" y="137.1" style="fill: #222222; stroke: #222222; stroke-width: 0.8"/>
      </g>
     </g>
     <g id="text_1">
      <text style="font-size: 7px; font-family: 'Arial', 'Helvetica', 'DejaVu Sans', sans-serif; text-anchor: middle; fill: #222222" x="60.104088" y="148.918906" transform="rotate(-0 60.104088 148.918906)">0.0</text>
     </g>
    </g>
    <g id="xtick_2">
     <g id="line2d_2">
      <g>
       <use xlink:href="#m265d7c1584" x="129.566066" y="137.1" style="fill: #222222; stroke: #222222; stroke-width: 0.8"/>
      </g>
     </g>
     <g id="text_2">
      <text style="font-size: 7px; font-family: 'Arial', 'Helvetica', 'DejaVu Sans', sans-serif; text-anchor: middle; fill: #222222" x="129.566066" y="148.918906" transform="rotate(-0 129.566066 148.918906)">0.2</text>
     </g>
    </g>
    <g id="xtick_3">
     <g id="line2d_3">
      <g>
       <use xlink:href="#m265d7c1584" x="199.028044" y="137.1" style="fill: #222222; stroke: #222222; stroke-width: 0.8"/>
      </g>
     </g>
     <g id="text_3">
      <text style="font-size: 7px; font-family: 'Arial', 'Helvetica', 'DejaVu Sans', sans-serif; text-anchor: middle; fill: #222222" x="199.028044" y="148.918906" transform="rotate(-0 199.028044 148.918906)">0.4</text>
     </g>
    </g>
    <g id="xtick_4">
     <g id="line2d_4">
      <g>
       <use xlink:href="#m265d7c1584" x="268.490022" y="137.1" style="fill: #222222; stroke: #222222; stroke-width: 0.8"/>
      </g>
     </g>
     <g id="text_4">
      <text style="font-size: 7px; font-family: 'Arial', 'Helvetica', 'DejaVu Sans', sans-serif; text-anchor: middle; fill: #222222" x="268.490022" y="148.918906" transform="rotate(-0 268.490022 148.918906)">0.6</text>
     </g>
    </g>
    <g id="xtick_5">
     <g id="line2d_5">
      <g>
       <use xlink:href="#m265d7c1584" x="337.952" y="137.1" style="fill: #222222; stroke: #222222; stroke-width: 0.8"/>
      </g>
     </g>
     <g id="text_5">
      <text style="font-size: 7px; font-family: 'Arial', 'Helvetica', 'DejaVu Sans', sans-serif; text-anchor: middle; fill: #222222" x="337.952" y="148.918906" transform="rotate(-0 337.952 148.918906)">0.8</text>
     </g>
    </g>
    <g id="xtick_6">
     <g id="line2d_6">
      <g>
       <use xlink:href="#m265d7c1584" x="407.413978" y="137.1" style="fill: #222222; stroke: #222222; stroke-width: 0.8"/>
      </g>
     </g>
     <g id="text_6">
      <text style="font-size: 7px; font-family: 'Arial', 'Helvetica', 'DejaVu Sans', sans-serif; text-anchor: middle; fill: #222222" x="407.413978" y="148.918906" transform="rotate(-0 407.413978 148.918906)">1.0</text>
     </g>
    </g>
    <g id="text_7">
     <text style="font-size: 8px; font-family: 'Arial', 'Helvetica', 'DejaVu Sans', sans-serif; text-anchor: middle" x="233.759033" y="160.453437" transform="rotate(-0 233.759033 160.453437)">Normalized arc length</text>
    </g>
   </g>
   <g id="matplotlib.axis_2">
    <g id="ytick_1">
     <g id="line2d_7">
      <defs>
       <path id="m49084a0080" d="M 0 0 
L -3 0 
" style="stroke: #222222; stroke-width: 0.8"/>
      </defs>
      <g>
       <use xlink:href="#m49084a0080" x="60.104088" y="131.195455" style="fill: #222222; stroke: #222222; stroke-width: 0.8"/>
      </g>
     </g>
     <g id="text_8">
      <text style="font-size: 7px; font-family: 'Arial', 'Helvetica', 'DejaVu Sans', sans-serif; text-anchor: end; fill: #222222" x="53.604088" y="133.854908" transform="rotate(-0 53.604088 133.854908)">0</text>
     </g>
    </g>
    <g id="ytick_2">
     <g id="line2d_8">
      <g>
       <use xlink:href="#m49084a0080" x="60.104088" y="114.848527" style="fill: #222222; stroke: #222222; stroke-width: 0.8"/>
      </g>
     </g>
     <g id="text_9">
      <text style="font-size: 7px; font-family: 'Arial', 'Helvetica', 'DejaVu Sans', sans-serif; text-anchor: end; fill: #222222" x="53.604088" y="117.50798" transform="rotate(-0 53.604088 117.50798)">2</text>
     </g>
    </g>
    <g id="ytick_3">
     <g id="line2d_9">
      <g>
       <use xlink:href="#m49084a0080" x="60.104088" y="98.5016" style="fill: #222222; stroke: #222222; stroke-width: 0.8"/>
      </g>
     </g>
     <g id="text_10">
      <text style="font-size: 7px; font-family: 'Arial', 'Helvetica', 'DejaVu Sans', sans-serif; text-anchor: end; fill: #222222" x="53.604088" y="101.161053" transform="rotate(-0 53.604088 101.161053)">4</text>
     </g>
    </g>
    <g id="ytick_4">
     <g id="line2d_10">
      <g>
       <use xlink:href="#m49084a0080" x="60.104088" y="82.154672" style="fill: #222222; stroke: #222222; stroke-width: 0.8"/>
      </g>
     </g>
     <g id="text_11">
      <text style="font-size: 7px; font-family: 'Arial', 'Helvetica', 'DejaVu Sans', sans-serif; text-anchor: end; fill: #222222" x="53.604088" y="84.814126" transform="rotate(-0 53.604088 84.814126)">6</text>
     </g>
    </g>
    <g id="ytick_5">
     <g id="line2d_11">
      <g>
       <use xlink:href="#m49084a0080" x="60.104088" y="65.807745" style="fill: #222222; stroke: #222222; stroke-width: 0.8"/>
      </g>
     </g>
     <g id="text_12">
      <text style="font-size: 7px; font-family: 'Arial', 'Helvetica', 'DejaVu Sans', sans-serif; text-anchor: end; fill: #222222" x="53.604088" y="68.467198" transform="rotate(-0 53.604088 68.467198)">8</text>
     </g>
    </g>
    <g id="ytick_6">
     <g id="line2d_12">
      <g>
       <use xlink:href="#m49084a0080" x="60.104088" y="49.460818" style="fill: #222222; stroke: #222222; stroke-width: 0.8"/>
      </g>
     </g>
     <g id="text_13">
      <text style="font-size: 7px; font-family: 'Arial', 'Helvetica', 'DejaVu Sans', sans-serif; text-anchor: end; fill: #222222" x="53.604088" y="52.120271" transform="rotate(-0 53.604088 52.120271)">10</text>
     </g>
    </g>
    <g id="ytick_7">
     <g id="line2d_13">
      <g>
       <use xlink:href="#m49084a0080" x="60.104088" y="33.11389" style="fill: #222222; stroke: #222222; stroke-width: 0.8"/>
      </g>
     </g>
     <g id="text_14">
      <text style="font-size: 7px; font-family: 'Arial', 'Helvetica', 'DejaVu Sans', sans-serif; text-anchor: end; fill: #222222" x="53.604088" y="35.773343" transform="rotate(-0 53.604088 35.773343)">12</text>
     </g>
    </g>
    <g id="ytick_8">
     <g id="line2d_14">
      <g>
       <use xlink:href="#m49084a0080" x="60.104088" y="16.766963" style="fill: #222222; stroke: #222222; stroke-width: 0.8"/>
      </g>
     </g>
     <g id="text_15">
      <text style="font-size: 7px; font-family: 'Arial', 'Helvetica', 'DejaVu Sans', sans-serif; text-anchor: end; fill: #222222" x="53.604088" y="19.426416" transform="rotate(-0 53.604088 19.426416)">14</text>
     </g>
    </g>
    <g id="text_16">
     <!-- $d$ -->
     <g transform="translate(18.72 55.712625)">
      <text>
       <tspan x="0" y="-0.671875" style="font-size: 12px; font-family: 'cmmi10'">d</tspan>
      </text>
     </g>
     <!-- $(\mathrm{mm})$ -->
     <g transform="translate(7.2 69.15)">
      <text>
       <tspan x="0" y="-0" style="font-size: 12px; font-family: 'cmr10'">(</tspan>
       <tspan x="4.658203" y="-0" style="font-size: 12px; font-family: 'cmr10'">m</tspan>
       <tspan x="14.654297" y="-0" style="font-size: 12px; font-family: 'cmr10'">m</tspan>
       <tspan x="24.650391" y="-0" style="font-size: 12px; font-family: 'cmr10'">)</tspan>
      </text>
     </g>
    </g>
   </g>
   <g id="line2d_15">
    <path d="M 60.104088 131.195455 
L 65.248594 89.781873 
L 70.079386 120.551089 
L 75.457795 112.924815 
L 80.09667 113.027299 
L 84.242069 118.251091 
L 89.647109 113.593206 
L 94.617511 83.457268 
L 99.200987 45.564328 
L 111.775575 13.119927 
L 117.349529 65.534265 
L 122.213823 107.359183 
L 126.848328 118.919987 
L 131.459411 115.315849 
L 136.24828 116.552785 
L 140.760258 113.538467 
L 145.792625 115.144875 
L 150.689277 113.172261 
L 155.402364 88.328856 
L 161.518633 25.626834 
L 172.402341 24.85869 
L 178.881009 83.103592 
L 183.280364 107.760345 
L 188.824403 114.05015 
L 193.606079 113.479321 
L 198.367487 115.934525 
L 202.345431 108.220565 
L 206.844879 116.6015 
L 212.113981 118.666232 
L 216.662175 103.438446 
L 221.432316 86.207555 
L 226.609168 35.288229 
L 236.889669 32.13539 
L 242.42886 85.593893 
L 247.52084 110.325456 
L 251.623501 120.551765 
L 256.123388 118.891836 
L 260.599881 110.795322 
L 265.245255 110.118811 
L 270.567838 118.107075 
L 274.81667 122.118638 
L 279.813531 103.247506 
L 284.479399 79.934474 
L 290.004494 31.746675 
L 299.783622 38.934902 
L 305.08162 82.815965 
L 310.377466 109.6938 
L 314.685674 114.804737 
L 319.935372 116.289386 
L 324.645982 118.889703 
L 329.061126 113.101923 
L 334.343026 115.920614 
L 338.896813 101.821144 
L 343.707753 70.476675 
L 349.705144 13.104545 
L 359.560654 79.325727 
L 364.065868 96.530616 
L 368.555883 109.291771 
L 373.072557 117.453096 
L 378.137489 98.742196 
L 383.300671 113.464927 
L 387.350894 69.847596 
L 392.032964 63.867554 
L 407.413978 131.195455 
" clip-path="url(#p155e74bf60)" style="fill: none; stroke-dasharray: 4.625,2; stroke-dashoffset: 0; stroke: #6c6c6c; stroke-width: 1.25"/>
   </g>
   <g id="line2d_16">
    <path d="M 60.104088 131.195455 
L 65.248594 111.555732 
L 70.079386 131.195455 
L 75.457795 117.53188 
L 80.09667 131.195455 
L 84.242069 131.195455 
L 89.647109 103.57522 
L 94.617511 116.837673 
L 99.200987 118.009383 
L 111.775575 119.033077 
L 117.349529 91.206683 
L 122.213823 111.470887 
L 126.848328 131.195455 
L 131.459411 118.23288 
L 136.24828 119.190621 
L 140.760258 131.195455 
L 145.792625 131.195455 
L 150.689277 101.868578 
L 155.402364 79.849478 
L 161.518633 106.107235 
L 172.402341 102.649125 
L 178.881009 86.283919 
L 183.280364 104.469707 
L 188.824403 119.285147 
L 193.606079 131.195455 
L 198.367487 131.195455 
L 202.345431 131.195455 
L 206.844879 98.037944 
L 212.113981 131.195455 
L 216.662175 119.411182 
L 221.432316 80.208119 
L 226.609168 106.855792 
L 236.889669 103.175291 
L 242.42886 109.567964 
L 247.52084 104.984415 
L 251.623501 112.0007 
L 256.123388 114.705832 
L 260.599881 131.195455 
L 265.245255 112.600447 
L 270.567838 118.33299 
L 274.81667 119.344738 
L 279.813531 102.008566 
L 284.479399 99.604303 
L 290.004494 111.30628 
L 299.783622 131.195455 
L 305.08162 86.547461 
L 310.377466 103.756988 
L 314.685674 131.195455 
L 319.935372 131.195455 
L 324.645982 112.451496 
L 329.061126 119.442691 
L 334.343026 100.545949 
L 338.896813 100.497083 
L 343.707753 44.547324 
L 349.705144 83.98578 
L 359.560654 131.195455 
L 364.065868 131.195455 
L 368.555883 131.195455 
L 373.072557 131.195455 
L 378.137489 106.742734 
L 383.300671 131.195455 
L 387.350894 131.195455 
L 392.032964 131.195455 
L 407.413978 131.195455 
" clip-path="url(#p155e74bf60)" style="fill: none; stroke-dasharray: 4.995,2.16; stroke-dashoffset: 0; stroke: #2c5aa0; stroke-width: 1.35"/>
   </g>
   <g id="patch_3">
    <path d="M 60.104088 137.1 
L 60.104088 7.2 
" style="fill: none; stroke: #222222; stroke-width: 0.8; stroke-linejoin: miter; stroke-linecap: square"/>
   </g>
   <g id="patch_4">
    <path d="M 60.104088 137.1 
L 407.413978 137.1 
" style="fill: none; stroke: #222222; stroke-width: 0.8; stroke-linejoin: miter; stroke-linecap: square"/>
   </g>
   <g id="legend_1">
    <g id="patch_5">
     <path d="M 327.263197 25.878125 
L 403.913978 25.878125 
Q 404.913978 25.878125 404.913978 24.878125 
L 404.913978 10.7 
Q 404.913978 9.7 403.913978 9.7 
L 327.263197 9.7 
Q 326.263197 9.7 326.263197 10.7 
L 326.263197 24.878125 
Q 326.263197 25.878125 327.263197 25.878125 
z
" style="fill: #ffffff; opacity: 0.8; stroke: #cccccc; stroke-linejoin: miter"/>
    </g>
    <g id="line2d_17">
     <path d="M 328.263197 13.749219 
L 333.263197 13.749219 
L 338.263197 13.749219 
" style="fill: none; stroke-dasharray: 4.625,2; stroke-dashoffset: 0; stroke: #6c6c6c; stroke-width: 1.25"/>
    </g>
    <g id="text_17">
     <text style="font-size: 5px; font-family: 'Arial', 'Helvetica', 'DejaVu Sans', sans-serif; text-anchor: start" x="342.263197" y="15.499219" transform="rotate(-0 342.263197 15.499219)">Moving-average smooth</text>
    </g>
    <g id="line2d_18">
     <path d="M 328.263197 21.088281 
L 333.263197 21.088281 
L 338.263197 21.088281 
" style="fill: none; stroke-dasharray: 4.995,2.16; stroke-dashoffset: 0; stroke: #2c5aa0; stroke-width: 1.35"/>
    </g>
    <g id="text_18">
     <text style="font-size: 5px; font-family: 'Arial', 'Helvetica', 'DejaVu Sans', sans-serif; text-anchor: start" x="342.263197" y="22.838281" transform="rotate(-0 342.263197 22.838281)">Geodesic optimized</text>
    </g>
   </g>
  </g>
 </g>
 <defs>
  <clipPath id="p155e74bf60">
   <rect x="60.104088" y="7.2" width="347.30989" height="129.9"/>
  </clipPath>
 </defs>
</svg>
