<?xml version="1.0" encoding="utf-8" standalone="no"?>
<!DOCTYPE svg PUBLIC "-//W3C//DTD SVG 1.1//EN"
  "http://www.w3.org/Graphics/SVG/1.1/DTD/svg11.dtd">
<svg xmlns:xlink="http://www.w3.org/1999/xlink" width="420.222356pt" height="169.200156pt" viewBox="0 0 420.222356 169.200156" xmlns="http://www.w3.org/2000/svg" version="1.1">
 <metadata>
  <rdf:RDF xmlns:dc="http://purl.org/dc/elements/1.1/" xmlns:cc="http://creativecommons.org/ns#" xmlns:rdf="http://www.w3.org/1999/02/22-rdf-syntax-ns#">
   <cc:Work>
    <dc:type rdf:resource="http://purl.org/dc/dcmitype/StillImage"/>
    <dc:date>2026-06-23T12:37:44.893763</dc:date>
    <dc:format>image/svg+xml</dc:format>
    <dc:creator>
     <cc:Agent>
      <dc:title>Matplotlib v3.11.0, https://matplotlib.org/</dc:title>
     </cc:Agent>
    </dc:creator>
   </cc:Work>
  </rdf:RDF>
 </metadata>
 <defs>
  <style type="text/css">*{stroke-linejoin: round; stroke-linecap: butt}</style>
 </defs>
 <g id="figure_1">
  <g id="patch_1">
   <path d="M 0 169.200156 
L 420.222356 169.200156 
L 420.222356 0 
L 0 0 
z
" style="fill: #ffffff"/>
  </g>
  <g id="axes_1">
   <g id="patch_2">
    <path d="M 60.177756 137.422852 
L 408.157356 137.422852 
L 408.157356 7.2 
L 60.177756 7.2 
z
" style="fill: #ffffff"/>
   </g>
   <g id="matplotlib.axis_1">
    <g id="xtick_1">
     <g id="line2d_1">
      <defs>
       <path id="m80aca24bf3" d="M 0 0 
L 0 3 
" style="stroke: #222222; stroke-width: 0.8"/>
      </defs>
      <g>
       <use xlink:href="#m80aca24bf3" x="60.177756" y="137.422852" style="fill: #222222; stroke: #222222; stroke-width: 0.8"/>
      </g>
     </g>
     <g id="text_1">
      <text style="font-size: 7px; font-family: 'Arial', 'Helvetica', 'DejaVu Sans', sans-serif; text-anchor: middle; fill: #222222" x="60.177756" y="149.019043" transform="rotate(-0 60.177756 149.019043)">0.0</text>
     </g>
    </g>
    <g id="xtick_2">
     <g id="line2d_2">
      <g>
       <use xlink:href="#m80aca24bf3" x="129.773676" y="137.422852" style="fill: #222222; stroke: #222222; stroke-width: 0.8"/>
      </g>
     </g>
     <g id="text_2">
      <text style="font-size: 7px; font-family: 'Arial', 'Helvetica', 'DejaVu Sans', sans-serif; text-anchor: middle; fill: #222222" x="129.773676" y="149.019043" transform="rotate(-0 129.773676 149.019043)">0.2</text>
     </g>
    </g>
    <g id="xtick_3">
     <g id="line2d_3">
      <g>
       <use xlink:href="#m80aca24bf3" x="199.369596" y="137.422852" style="fill: #222222; stroke: #222222; stroke-width: 0.8"/>
      </g>
     </g>
     <g id="text_3">
      <text style="font-size: 7px; font-family: 'Arial', 'Helvetica', 'DejaVu Sans', sans-serif; text-anchor: middle; fill: #222222" x="199.369596" y="149.019043" transform="rotate(-0 199.369596 149.019043)">0.4</text>
     </g>
    </g>
    <g id="xtick_4">
     <g id="line2d_4">
      <g>
       <use xlink:href="#m80aca24bf3" x="268.965516" y="137.422852" style="fill: #222222; stroke: #222222; stroke-width: 0.8"/>
      </g>
     </g>
     <g id="text_4">
      <text style="font-size: 7px; font-family: 'Arial', 'Helvetica', 'DejaVu Sans', sans-serif; text-anchor: middle; fill: #222222" x="268.965516" y="149.019043" transform="rotate(-0 268.965516 149.019043)">0.6</text>
     </g>
    </g>
    <g id="xtick_5">
     <g id="line2d_5">
      <g>
       <use xlink:href="#m80aca24bf3" x="338.561436" y="137.422852" style="fill: #222222; stroke: #222222; stroke-width: 0.8"/>
      </g>
     </g>
     <g id="text_5">
      <text style="font-size: 7px; font-family: 'Arial', 'Helvetica', 'DejaVu Sans', sans-serif; text-anchor: middle; fill: #222222" x="338.561436" y="149.019043" transform="rotate(-0 338.561436 149.019043)">0.8</text>
     </g>
    </g>
    <g id="xtick_6">
     <g id="line2d_6">
      <g>
       <use xlink:href="#m80aca24bf3" x="408.157356" y="137.422852" style="fill: #222222; stroke: #222222; stroke-width: 0.8"/>
      </g>
     </g>
     <g id="text_6">
      <text style="font-size: 7px; font-family: 'Arial', 'Helvetica', 'DejaVu Sans', sans-serif; text-anchor: middle; fill: #222222" x="408.157356" y="149.019043" transform="rotate(-0 408.157356 149.019043)">1.0</text>
     </g>
    </g>
    <g id="text_7">
     <text style="font-size: 8px; font-family: 'Arial', 'Helvetica', 'DejaVu Sans', sans-serif; text-anchor: middle" x="234.167556" y="160.316406" transform="rotate(-0 234.167556 160.316406)">Normalized arc length</text>
    </g>
   </g>
   <g id="matplotlib.axis_2">
    <g id="ytick_1">
     <g id="line2d_7">
      <defs>
       <path id="m870c94e6f6" d="M 0 0 
L -3 0 
" style="stroke: #222222; stroke-width: 0.8"/>
      </defs>
      <g>
       <use xlink:href="#m870c94e6f6" x="60.177756" y="131.503631" style="fill: #222222; stroke: #222222; stroke-width: 0.8"/>
      </g>
     </g>
     <g id="text_8">
      <text style="font-size: 7px; font-family: 'Arial', 'Helvetica', 'DejaVu Sans', sans-serif; text-anchor: end; fill: #222222" x="53.677756" y="134.051727" transform="rotate(-0 53.677756 134.051727)">0</text>
     </g>
    </g>
    <g id="ytick_2">
     <g id="line2d_8">
      <g>
       <use xlink:href="#m870c94e6f6" x="60.177756" y="115.116383" style="fill: #222222; stroke: #222222; stroke-width: 0.8"/>
      </g>
     </g>
     <g id="text_9">
      <text style="font-size: 7px; font-family: 'Arial', 'Helvetica', 'DejaVu Sans', sans-serif; text-anchor: end; fill: #222222" x="53.677756" y="117.664478" transform="rotate(-0 53.677756 117.664478)">2</text>
     </g>
    </g>
    <g id="ytick_3">
     <g id="line2d_9">
      <g>
       <use xlink:href="#m870c94e6f6" x="60.177756" y="98.729134" style="fill: #222222; stroke: #222222; stroke-width: 0.8"/>
      </g>
     </g>
     <g id="text_10">
      <text style="font-size: 7px; font-family: 'Arial', 'Helvetica', 'DejaVu Sans', sans-serif; text-anchor: end; fill: #222222" x="53.677756" y="101.27723" transform="rotate(-0 53.677756 101.27723)">4</text>
     </g>
    </g>
    <g id="ytick_4">
     <g id="line2d_10">
      <g>
       <use xlink:href="#m870c94e6f6" x="60.177756" y="82.341886" style="fill: #222222; stroke: #222222; stroke-width: 0.8"/>
      </g>
     </g>
     <g id="text_11">
      <text style="font-size: 7px; font-family: 'Arial', 'Helvetica', 'DejaVu Sans', sans-serif; text-anchor: end; fill: #222222" x="53.677756" y="84.889981" transform="rotate(-0 53.677756 84.889981)">6</text>
     </g>
    </g>
    <g id="ytick_5">
     <g id="line2d_11">
      <g>
       <use xlink:href="#m870c94e6f6" x="60.177756" y="65.954637" style="fill: #222222; stroke: #222222; stroke-width: 0.8"/>
      </g>
     </g>
     <g id="text_12">
      <text style="font-size: 7px; font-family: 'Arial', 'Helvetica', 'DejaVu Sans', sans-serif; text-anchor: end; fill: #222222" x="53.677756" y="68.502733" transform="rotate(-0 53.677756 68.502733)">8</text>
     </g>
    </g>
    <g id="ytick_6">
     <g id="line2d_12">
      <g>
       <use xlink:href="#m870c94e6f6" x="60.177756" y="49.567389" style="fill: #222222; stroke: #222222; stroke-width: 0.8"/>
      </g>
     </g>
     <g id="text_13">
      <text style="font-size: 7px; font-family: 'Arial', 'Helvetica', 'DejaVu Sans', sans-serif; text-anchor: end; fill: #222222" x="53.677756" y="52.115485" transform="rotate(-0 53.677756 52.115485)">10</text>
     </g>
    </g>
    <g id="ytick_7">
     <g id="line2d_13">
      <g>
       <use xlink:href="#m870c94e6f6" x="60.177756" y="33.18014" style="fill: #222222; stroke: #222222; stroke-width: 0.8"/>
      </g>
     </g>
     <g id="text_14">
      <text style="font-size: 7px; font-family: 'Arial', 'Helvetica', 'DejaVu Sans', sans-serif; text-anchor: end; fill: #222222" x="53.677756" y="35.728236" transform="rotate(-0 53.677756 35.728236)">12</text>
     </g>
    </g>
    <g id="ytick_8">
     <g id="line2d_14">
      <g>
       <use xlink:href="#m870c94e6f6" x="60.177756" y="16.792892" style="fill: #222222; stroke: #222222; stroke-width: 0.8"/>
      </g>
     </g>
     <g id="text_15">
      <text style="font-size: 7px; font-family: 'Arial', 'Helvetica', 'DejaVu Sans', sans-serif; text-anchor: end; fill: #222222" x="53.677756" y="19.340988" transform="rotate(-0 53.677756 19.340988)">14</text>
     </g>
    </g>
    <g id="text_16">
     <!-- $d$ -->
     <g transform="translate(18.72 55.087793)">
      <text>
       <tspan x="0" y="-0.671875" style="font-size: 12px; font-family: 'cmmi10'">d</tspan>
      </text>
     </g>
     <!-- $(\mathrm{mm})$ -->
     <g transform="translate(7.2 68.412012)">
      <text>
       <tspan x="0" y="-0" style="font-size: 12px; font-family: 'cmr10'">(</tspan>
       <tspan x="4.658203" y="-0" style="font-size: 12px; font-family: 'cmr10'">m</tspan>
       <tspan x="14.654297" y="-0" style="font-size: 12px; font-family: 'cmr10'">m</tspan>
       <tspan x="24.650391" y="-0" style="font-size: 12px; font-family: 'cmr10'">)</tspan>
      </text>
     </g>
    </g>
   </g>
   <g id="line2d_15">
    <path d="M 60.177756 131.503631 
L 65.331885 89.98771 
L 70.172052 120.835774 
L 75.560636 113.189359 
L 80.208341 113.287493 
L 84.361956 118.528411 
L 89.777752 113.857286 
L 94.757575 83.64913 
L 99.349761 45.659508 
L 111.948784 13.138277 
L 117.532813 65.679248 
L 122.407041 107.612116 
L 127.050404 119.196755 
L 131.670413 115.583171 
L 136.468174 116.821371 
L 140.988805 113.80648 
L 146.031229 115.416006 
L 150.937257 113.433759 
L 155.659256 88.533055 
L 161.787305 25.673844 
L 172.692182 24.90369 
L 179.183537 83.291128 
L 183.591393 108.010332 
L 189.146081 114.318478 
L 193.9368 113.743849 
L 198.707809 116.202285 
L 202.693186 108.470468 
L 207.20157 116.875325 
L 212.480741 118.940042 
L 217.037473 103.68158 
L 221.816936 86.404529 
L 227.003783 35.358747 
L 237.30443 32.19756 
L 242.854274 85.790601 
L 247.955915 110.582899 
L 252.066783 120.835898 
L 256.575287 119.1694 
L 261.060466 111.053568 
L 265.714847 110.37658 
L 271.047084 118.384365 
L 275.304478 122.402509 
L 280.310669 103.490482 
L 284.985976 80.113078 
L 290.521437 31.810652 
L 300.319016 39.015699 
L 305.627417 83.005849 
L 310.933734 109.946852 
L 315.249866 115.071932 
L 320.509423 116.562375 
L 325.229593 119.171323 
L 329.653084 113.365898 
L 334.945307 116.188728 
L 339.507389 102.061024 
L 344.327873 70.633131 
L 350.336801 13.119221 
L 360.211566 79.505851 
L 364.725542 96.754962 
L 369.224215 109.544894 
L 373.749684 117.725368 
L 378.824278 98.969703 
L 383.99764 113.73011 
L 388.05528 70.001819 
L 392.746682 64.006668 
L 408.157356 131.503631 
" clip-path="url(#p34afa1645c)" style="fill: none; stroke-dasharray: 4.625,2; stroke-dashoffset: 0; stroke: #6c6c6c; stroke-width: 1.25"/>
   </g>
   <g id="line2d_16">
    <path d="M 60.177756 118.780518 
L 65.331885 122.50767 
L 70.172052 111.966233 
L 75.560636 116.079682 
L 80.208341 119.862346 
L 84.361956 115.514346 
L 89.777752 110.127457 
L 94.757575 103.328353 
L 99.349761 86.660129 
L 111.948784 64.938603 
L 117.532813 105.634567 
L 122.407041 119.627096 
L 127.050404 111.467777 
L 131.670413 114.138257 
L 136.468174 119.268274 
L 140.988805 114.974153 
L 146.031229 115.903497 
L 150.937257 117.125328 
L 155.659256 114.128138 
L 161.787305 68.63701 
L 172.692182 84.035571 
L 179.183537 113.777808 
L 183.591393 113.084665 
L 189.146081 116.15077 
L 193.9368 117.830162 
L 198.707809 125.187906 
L 202.693186 109.734898 
L 207.20157 110.570893 
L 212.480741 111.767727 
L 217.037473 118.597224 
L 221.816936 104.686457 
L 227.003783 59.883198 
L 237.30443 77.209041 
L 242.854274 115.968845 
L 247.955915 108.824846 
L 252.066783 106.12663 
L 256.575287 106.266389 
L 261.060466 103.362711 
L 265.714847 111.658971 
L 271.047084 114.334716 
L 275.304478 109.912494 
L 280.310669 111.048645 
L 284.985976 99.21329 
L 290.521437 67.46893 
L 300.319016 88.0646 
L 305.627417 104.146808 
L 310.933734 106.792203 
L 315.249866 110.961583 
L 320.509423 119.867907 
L 325.229593 121.772288 
L 329.653084 110.906655 
L 334.945307 107.275798 
L 339.507389 117.196191 
L 344.327873 111.865758 
L 350.336801 56.31734 
L 360.211566 115.015526 
L 364.725542 111.255845 
L 369.224215 109.334818 
L 373.749684 110.599579 
L 378.824278 109.927123 
L 383.99764 119.974842 
L 388.05528 121.777754 
L 392.746682 113.790079 
L 408.157356 125.087861 
" clip-path="url(#p34afa1645c)" style="fill: none; stroke-dasharray: 4.995,2.16; stroke-dashoffset: 0; stroke: #4c78a8; stroke-width: 1.35"/>
   </g>
   <g id="line2d_17">
    <path d="M 60.177756 131.503631 
L 65.331885 111.814004 
L 70.172052 131.503631 
L 75.560636 117.810347 
L 80.208341 131.503631 
L 84.361956 131.503631 
L 89.777752 103.813335 
L 94.757575 117.111458 
L 99.349761 118.280906 
L 111.948784 119.313649 
L 117.532813 91.420578 
L 122.407041 111.728715 
L 127.050404 131.503631 
L 131.670413 118.507104 
L 136.468174 119.469035 
L 140.988805 131.503631 
L 146.031229 131.503631 
L 150.937257 102.102648 
L 155.659256 80.033086 
L 161.787305 106.354324 
L 172.692182 102.884872 
L 179.183537 86.484204 
L 183.591393 104.713908 
L 189.146081 119.558988 
L 193.9368 131.503631 
L 198.707809 131.503631 
L 202.693186 131.503631 
L 207.20157 98.261471 
L 212.480741 131.503631 
L 217.037473 119.692059 
L 221.816936 80.392939 
L 227.003783 107.105816 
L 237.30443 103.415413 
L 242.854274 109.816776 
L 247.955915 105.225899 
L 252.066783 112.260999 
L 256.575287 114.967308 
L 261.060466 131.503631 
L 265.714847 112.867738 
L 271.047084 118.605154 
L 275.304478 119.618907 
L 280.310669 102.246561 
L 284.985976 99.841844 
L 290.521437 111.564792 
L 300.319016 131.503631 
L 305.627417 86.74861 
L 310.933734 103.999848 
L 315.249866 131.503631 
L 320.509423 131.503631 
L 325.229593 112.71928 
L 329.653084 119.72241 
L 334.945307 100.776428 
L 339.507389 100.730223 
L 344.327873 44.642212 
L 350.336801 84.183044 
L 360.211566 131.503631 
L 364.725542 131.503631 
L 369.224215 131.503631 
L 373.749684 131.503631 
L 378.824278 106.989414 
L 383.99764 131.503631 
L 388.05528 131.503631 
L 392.746682 131.503631 
L 408.157356 131.503631 
" clip-path="url(#p34afa1645c)" style="fill: none; stroke-dasharray: 4.995,2.16; stroke-dashoffset: 0; stroke: #4daf7c; stroke-width: 1.35"/>
   </g>
   <g id="patch_3">
    <path d="M 60.177756 137.422852 
L 60.177756 7.2 
" style="fill: none; stroke: #222222; stroke-width: 0.8; stroke-linejoin: miter; stroke-linecap: square"/>
   </g>
   <g id="patch_4">
    <path d="M 60.177756 137.422852 
L 408.157356 137.422852 
" style="fill: none; stroke: #222222; stroke-width: 0.8; stroke-linejoin: miter; stroke-linecap: square"/>
   </g>
   <g id="legend_1">
    <g id="patch_5">
     <path d="M 335.023762 32.777246 
L 404.657356 32.777246 
Q 405.657356 32.777246 405.657356 31.777246 
L 405.657356 10.7 
Q 405.657356 9.7 404.657356 9.7 
L 335.023762 9.7 
Q 334.023762 9.7 334.023762 10.7 
L 334.023762 31.777246 
Q 334.023762 32.777246 335.023762 32.777246 
z
" style="fill: #ffffff; opacity: 0.8; stroke: #cccccc; stroke-linejoin: miter"/>
    </g>
    <g id="line2d_18">
     <path d="M 336.023762 13.590137 
L 341.023762 13.590137 
L 346.023762 13.590137 
" style="fill: none; stroke-dasharray: 4.625,2; stroke-dashoffset: 0; stroke: #6c6c6c; stroke-width: 1.25"/>
    </g>
    <g id="text_17">
     <text style="font-size: 5px; font-family: 'Arial', 'Helvetica', 'DejaVu Sans', sans-serif; text-anchor: start" x="350.023762" y="15.340137" transform="rotate(-0 350.023762 15.340137)">Moving-average smooth</text>
    </g>
    <g id="line2d_19">
     <path d="M 336.023762 20.782617 
L 341.023762 20.782617 
L 346.023762 20.782617 
" style="fill: none; stroke-dasharray: 4.995,2.16; stroke-dashoffset: 0; stroke: #4c78a8; stroke-width: 1.35"/>
    </g>
    <g id="text_18">
     <text style="font-size: 5px; font-family: 'Arial', 'Helvetica', 'DejaVu Sans', sans-serif; text-anchor: start" x="350.023762" y="22.532617" transform="rotate(-0 350.023762 22.532617)">B-spline</text>
    </g>
    <g id="line2d_20">
     <path d="M 336.023762 27.975 
L 341.023762 27.975 
L 346.023762 27.975 
" style="fill: none; stroke-dasharray: 4.995,2.16; stroke-dashoffset: 0; stroke: #4daf7c; stroke-width: 1.35"/>
    </g>
    <g id="text_19">
     <text style="font-size: 5px; font-family: 'Arial', 'Helvetica', 'DejaVu Sans', sans-serif; text-anchor: start" x="350.023762" y="29.725" transform="rotate(-0 350.023762 29.725)">Geodesic optimized</text>
    </g>
   </g>
  </g>
 </g>
 <defs>
  <clipPath id="p34afa1645c">
   <rect x="60.177756" y="7.2" width="347.9796" height="130.222852"/>
  </clipPath>
 </defs>
</svg>
