<?xml version="1.0" encoding="utf-8" standalone="no"?>
<!DOCTYPE svg PUBLIC "-//W3C//DTD SVG 1.1//EN"
  "http://www.w3.org/Graphics/SVG/1.1/DTD/svg11.dtd">
<svg xmlns:xlink="http://www.w3.org/1999/xlink" width="420.861956pt" height="169.200156pt" viewBox="0 0 420.861956 169.200156" xmlns="http://www.w3.org/2000/svg" version="1.1">
 <metadata>
  <rdf:RDF xmlns:dc="http://purl.org/dc/elements/1.1/" xmlns:cc="http://creativecommons.org/ns#" xmlns:rdf="http://www.w3.org/1999/02/22-rdf-syntax-ns#">
   <cc:Work>
    <dc:type rdf:resource="http://purl.org/dc/dcmitype/StillImage"/>
    <dc:date>2026-06-23T12:37:46.928946</dc:date>
    <dc:format>image/svg+xml</dc:format>
    <dc:creator>
     <cc:Agent>
      <dc:title>Matplotlib v3.11.0, https://matplotlib.org/</dc:title>
     </cc:Agent>
    </dc:creator>
   </cc:Work>
  </rdf:RDF>
 </metadata>
 <defs>
  <style type="text/css">*{stroke-linejoin: round; stroke-linecap: butt}</style>
 </defs>
 <g id="figure_1">
  <g id="patch_1">
   <path d="M 0 169.200156 
L 420.861956 169.200156 
L 420.861956 0 
L 0 0 
z
" style="fill: #ffffff"/>
  </g>
  <g id="axes_1">
   <g id="patch_2">
    <path d="M 55.957356 137.422852 
L 408.796956 137.422852 
L 408.796956 7.2 
L 55.957356 7.2 
z
" style="fill: #ffffff"/>
   </g>
   <g id="matplotlib.axis_1">
    <g id="xtick_1">
     <g id="line2d_1">
      <defs>
       <path id="m10eb154bfc" d="M 0 0 
L 0 3 
" style="stroke: #222222; stroke-width: 0.8"/>
      </defs>
      <g>
       <use xlink:href="#m10eb154bfc" x="55.957356" y="137.422852" style="fill: #222222; stroke: #222222; stroke-width: 0.8"/>
      </g>
     </g>
     <g id="text_1">
      <text style="font-size: 7px; font-family: 'Arial', 'Helvetica', 'DejaVu Sans', sans-serif; text-anchor: middle; fill: #222222" x="55.957356" y="149.019043" transform="rotate(-0 55.957356 149.019043)">0.0</text>
     </g>
    </g>
    <g id="xtick_2">
     <g id="line2d_2">
      <g>
       <use xlink:href="#m10eb154bfc" x="126.525276" y="137.422852" style="fill: #222222; stroke: #222222; stroke-width: 0.8"/>
      </g>
     </g>
     <g id="text_2">
      <text style="font-size: 7px; font-family: 'Arial', 'Helvetica', 'DejaVu Sans', sans-serif; text-anchor: middle; fill: #222222" x="126.525276" y="149.019043" transform="rotate(-0 126.525276 149.019043)">0.2</text>
     </g>
    </g>
    <g id="xtick_3">
     <g id="line2d_3">
      <g>
       <use xlink:href="#m10eb154bfc" x="197.093196" y="137.422852" style="fill: #222222; stroke: #222222; stroke-width: 0.8"/>
      </g>
     </g>
     <g id="text_3">
      <text style="font-size: 7px; font-family: 'Arial', 'Helvetica', 'DejaVu Sans', sans-serif; text-anchor: middle; fill: #222222" x="197.093196" y="149.019043" transform="rotate(-0 197.093196 149.019043)">0.4</text>
     </g>
    </g>
    <g id="xtick_4">
     <g id="line2d_4">
      <g>
       <use xlink:href="#m10eb154bfc" x="267.661116" y="137.422852" style="fill: #222222; stroke: #222222; stroke-width: 0.8"/>
      </g>
     </g>
     <g id="text_4">
      <text style="font-size: 7px; font-family: 'Arial', 'Helvetica', 'DejaVu Sans', sans-serif; text-anchor: middle; fill: #222222" x="267.661116" y="149.019043" transform="rotate(-0 267.661116 149.019043)">0.6</text>
     </g>
    </g>
    <g id="xtick_5">
     <g id="line2d_5">
      <g>
       <use xlink:href="#m10eb154bfc" x="338.229036" y="137.422852" style="fill: #222222; stroke: #222222; stroke-width: 0.8"/>
      </g>
     </g>
     <g id="text_5">
      <text style="font-size: 7px; font-family: 'Arial', 'Helvetica', 'DejaVu Sans', sans-serif; text-anchor: middle; fill: #222222" x="338.229036" y="149.019043" transform="rotate(-0 338.229036 149.019043)">0.8</text>
     </g>
    </g>
    <g id="xtick_6">
     <g id="line2d_6">
      <g>
       <use xlink:href="#m10eb154bfc" x="408.796956" y="137.422852" style="fill: #222222; stroke: #222222; stroke-width: 0.8"/>
      </g>
     </g>
     <g id="text_6">
      <text style="font-size: 7px; font-family: 'Arial', 'Helvetica', 'DejaVu Sans', sans-serif; text-anchor: middle; fill: #222222" x="408.796956" y="149.019043" transform="rotate(-0 408.796956 149.019043)">1.0</text>
     </g>
    </g>
    <g id="text_7">
     <text style="font-size: 8px; font-family: 'Arial', 'Helvetica', 'DejaVu Sans', sans-serif; text-anchor: middle" x="232.377156" y="160.316406" transform="rotate(-0 232.377156 160.316406)">Normalized arc length</text>
    </g>
   </g>
   <g id="matplotlib.axis_2">
    <g id="ytick_1">
     <g id="line2d_7">
      <defs>
       <path id="m384837bbff" d="M 0 0 
L -3 0 
" style="stroke: #222222; stroke-width: 0.8"/>
      </defs>
      <g>
       <use xlink:href="#m384837bbff" x="55.957356" y="131.514968" style="fill: #222222; stroke: #222222; stroke-width: 0.8"/>
      </g>
     </g>
     <g id="text_8">
      <text style="font-size: 7px; font-family: 'Arial', 'Helvetica', 'DejaVu Sans', sans-serif; text-anchor: end; fill: #222222" x="49.457356" y="134.063064" transform="rotate(-0 49.457356 134.063064)">0</text>
     </g>
    </g>
    <g id="ytick_2">
     <g id="line2d_8">
      <g>
       <use xlink:href="#m384837bbff" x="55.957356" y="108.408617" style="fill: #222222; stroke: #222222; stroke-width: 0.8"/>
      </g>
     </g>
     <g id="text_9">
      <text style="font-size: 7px; font-family: 'Arial', 'Helvetica', 'DejaVu Sans', sans-serif; text-anchor: end; fill: #222222" x="49.457356" y="110.956713" transform="rotate(-0 49.457356 110.956713)">100</text>
     </g>
    </g>
    <g id="ytick_3">
     <g id="line2d_9">
      <g>
       <use xlink:href="#m384837bbff" x="55.957356" y="85.302266" style="fill: #222222; stroke: #222222; stroke-width: 0.8"/>
      </g>
     </g>
     <g id="text_10">
      <text style="font-size: 7px; font-family: 'Arial', 'Helvetica', 'DejaVu Sans', sans-serif; text-anchor: end; fill: #222222" x="49.457356" y="87.850362" transform="rotate(-0 49.457356 87.850362)">200</text>
     </g>
    </g>
    <g id="ytick_4">
     <g id="line2d_10">
      <g>
       <use xlink:href="#m384837bbff" x="55.957356" y="62.195915" style="fill: #222222; stroke: #222222; stroke-width: 0.8"/>
      </g>
     </g>
     <g id="text_11">
      <text style="font-size: 7px; font-family: 'Arial', 'Helvetica', 'DejaVu Sans', sans-serif; text-anchor: end; fill: #222222" x="49.457356" y="64.74401" transform="rotate(-0 49.457356 64.74401)">300</text>
     </g>
    </g>
    <g id="ytick_5">
     <g id="line2d_11">
      <g>
       <use xlink:href="#m384837bbff" x="55.957356" y="39.089563" style="fill: #222222; stroke: #222222; stroke-width: 0.8"/>
      </g>
     </g>
     <g id="text_12">
      <text style="font-size: 7px; font-family: 'Arial', 'Helvetica', 'DejaVu Sans', sans-serif; text-anchor: end; fill: #222222" x="49.457356" y="41.637659" transform="rotate(-0 49.457356 41.637659)">400</text>
     </g>
    </g>
    <g id="ytick_6">
     <g id="line2d_12">
      <g>
       <use xlink:href="#m384837bbff" x="55.957356" y="15.983212" style="fill: #222222; stroke: #222222; stroke-width: 0.8"/>
      </g>
     </g>
     <g id="text_13">
      <text style="font-size: 7px; font-family: 'Arial', 'Helvetica', 'DejaVu Sans', sans-serif; text-anchor: end; fill: #222222" x="49.457356" y="18.531308" transform="rotate(-0 49.457356 18.531308)">500</text>
     </g>
    </g>
    <g id="text_14">
     <!-- $|\kappa_g|$ -->
     <g transform="translate(7.2 68.411426)">
      <text>
       <tspan x="0" y="-0.25" style="font-size: 13px; font-family: 'cmsy10'">j</tspan>
       <tspan x="16.174172" y="-0.25" style="font-size: 13px; font-family: 'cmsy10'">j</tspan>
       <tspan x="3.599121" y="-0.25" style="font-size: 13px; font-family: 'cmmi10'">∙</tspan>
       <tspan x="11.089355" y="1.699995" style="font-size: 9.1px; font-family: 'cmmi10'">g</tspan>
      </text>
     </g>
    </g>
   </g>
   <g id="line2d_13">
    <path d="M 64.621899 129.802536 
L 71.558899 129.282744 
L 78.635658 119.576272 
L 85.040862 129.814306 
L 91.149206 131.145254 
L 96.225965 122.602116 
L 102.470557 128.162927 
L 109.247478 124.049642 
L 116.002238 88.836563 
L 130.707412 92.633092 
L 137.615811 129.4273 
L 142.574705 127.509883 
L 149.203034 130.361266 
L 154.54541 126.665189 
L 160.249283 118.57952 
L 165.86393 126.827661 
L 171.758955 127.762455 
L 179.200514 129.740252 
L 185.473838 125.099001 
L 194.257705 74.03308 
L 207.86161 99.51964 
L 215.690888 129.650758 
L 221.932511 126.336597 
L 228.646711 127.112972 
L 234.553144 130.387553 
L 240.391923 130.502335 
L 245.447351 127.17215 
L 251.994785 129.268096 
L 257.355287 127.742407 
L 263.496968 127.958894 
L 269.588472 89.769111 
L 282.918361 94.679129 
L 289.600878 128.086534 
L 295.046446 127.861228 
L 300.434613 131.503631 
L 305.790308 130.391999 
L 311.784657 126.269258 
L 317.703523 124.470475 
L 323.400368 122.275523 
L 329.601985 129.676618 
L 335.858686 130.499046 
L 343.750501 83.367405 
L 358.225727 94.457192 
L 364.992107 126.949274 
L 372.11984 125.563109 
L 377.962272 124.413494 
L 384.043062 123.433568 
L 390.422764 125.429083 
L 396.961339 123.234116 
L 402.848373 131.447234 
" clip-path="url(#p1779914d25)" style="fill: none; stroke: #c73e3a; stroke-width: 1.55; stroke-linecap: square"/>
   </g>
   <g id="line2d_14">
    <path d="M 73.137608 129.053263 
L 77.604247 131.330902 
L 87.060251 127.847047 
L 94.933224 129.673831 
L 103.448885 130.553383 
L 111.636593 129.654407 
L 119.100105 126.628544 
L 125.370785 117.057096 
L 130.100151 88.670342 
L 134.193281 78.390895 
L 138.409776 108.489213 
L 143.950255 121.813327 
L 150.840029 126.276509 
L 158.534933 127.344986 
L 166.610223 129.878271 
L 174.845801 130.088814 
L 183.072203 129.040886 
L 190.60423 125.901807 
L 196.761605 116.607789 
L 201.198281 70.722447 
L 205.062432 83.665937 
L 209.749493 116.115549 
L 216.065879 125.619702 
L 223.683382 128.086696 
L 231.937398 128.750053 
L 240.202773 131.281622 
L 248.288844 128.050118 
L 256.07473 127.450096 
L 262.924212 123.497083 
L 268.468518 109.911615 
L 272.593082 77.856463 
L 276.416525 82.067129 
L 280.785606 114.019606 
L 286.507679 124.425126 
L 293.438108 127.649494 
L 301.119632 129.423144 
L 309.073998 129.974837 
L 317.185559 127.368563 
L 325.057663 126.262989 
L 332.108696 122.409558 
L 337.762058 107.812526 
L 341.963561 74.356801 
L 346.109183 91.804366 
L 351.197778 118.320984 
L 357.919515 126.968362 
L 365.850028 129.05069 
L 374.439808 129.640356 
L 382.236361 129.436049 
L 390.805414 131.452987 
L 394.876358 129.894549 
" clip-path="url(#p1779914d25)" style="fill: none; stroke: #6c6c6c; stroke-width: 1.35; stroke-linecap: square"/>
   </g>
   <g id="line2d_15">
    <path d="M 67.36234 123.542849 
L 75.561513 126.230602 
L 84.203225 128.532288 
L 92.395565 130.698 
L 100.275774 130.691062 
L 106.608088 128.979881 
L 113.785894 126.256868 
L 120.504031 123.017198 
L 125.875227 100.128076 
L 133.023308 78.829304 
L 138.046457 121.401391 
L 142.834843 127.115005 
L 150.323546 128.615828 
L 157.020852 130.010847 
L 164.652797 130.660142 
L 172.381298 130.977353 
L 180.34018 131.391007 
L 189.466161 130.133698 
L 195.719381 124.908094 
L 201.224378 13.119221 
L 206.03193 106.421003 
L 212.220457 127.754728 
L 218.617136 128.980861 
L 226.521165 129.518487 
L 234.044667 129.583785 
L 241.779388 129.323543 
L 248.576177 131.082361 
L 257.061649 130.316009 
L 263.239208 125.83968 
L 268.917552 113.573218 
L 273.009814 87.244628 
L 279.860799 96.262418 
L 284.871712 118.396591 
L 290.340823 126.369432 
L 296.906825 129.441034 
L 304.195127 131.022568 
L 312.690179 130.852224 
L 320.801515 129.344125 
L 327.777275 126.490699 
L 334.027628 122.852714 
L 339.009832 117.129098 
L 343.763087 98.409831 
L 350.714736 99.419851 
L 355.41763 119.421142 
L 362.161294 125.591077 
L 369.253097 129.287718 
L 377.617762 130.85431 
L 386.639741 130.543224 
L 395.312838 128.584796 
L 402.231554 125.173485 
" clip-path="url(#p1779914d25)" style="fill: none; stroke: #4c78a8; stroke-width: 1.35; stroke-linecap: square"/>
   </g>
   <g id="line2d_16">
    <path d="M 64.460804 129.802536 
L 71.268827 129.393526 
L 78.258654 129.515129 
L 84.19012 130.50199 
L 90.958488 124.811675 
L 95.183713 131.309155 
L 98.45822 126.149411 
L 113.138725 122.734038 
L 115.458714 109.544275 
L 133.596752 107.040511 
L 135.887434 126.427918 
L 142.740936 129.720457 
L 150.126681 129.244653 
L 155.369729 129.293459 
L 161.233484 129.673623 
L 166.226405 128.669091 
L 172.011827 126.663302 
L 175.91088 125.2211 
L 186.317997 118.004394 
L 198.639216 107.986368 
L 204.745158 109.30974 
L 217.857949 119.570748 
L 224.390104 129.687368 
L 229.64528 130.232447 
L 236.633947 128.555971 
L 242.364168 130.502335 
L 247.325603 125.364971 
L 254.962975 127.426342 
L 260.951036 124.161587 
L 264.227862 118.542977 
L 271.736839 107.50551 
L 283.913775 108.402956 
L 288.829749 112.280823 
L 298.607236 127.432351 
L 301.86401 127.414625 
L 307.120129 128.405348 
L 312.129934 131.354361 
L 319.649264 127.754291 
L 326.159135 130.6785 
L 328.91832 126.140565 
L 341.022645 113.258354 
L 345.897038 108.378671 
L 359.330646 109.299167 
L 363.192035 119.986861 
L 371.606485 128.709332 
L 378.519796 131.273865 
L 383.314951 129.197421 
L 388.451274 131.447245 
L 397.181393 126.354293 
L 402.958972 131.447234 
" clip-path="url(#p1779914d25)" style="fill: none; stroke: #4daf7c; stroke-width: 1.75; stroke-linecap: square"/>
   </g>
   <g id="patch_3">
    <path d="M 55.957356 137.422852 
L 55.957356 7.2 
" style="fill: none; stroke: #222222; stroke-width: 0.8; stroke-linejoin: miter; stroke-linecap: square"/>
   </g>
   <g id="patch_4">
    <path d="M 55.957356 137.422852 
L 408.796956 137.422852 
" style="fill: none; stroke: #222222; stroke-width: 0.8; stroke-linejoin: miter; stroke-linecap: square"/>
   </g>
   <g id="legend_1">
    <g id="patch_5">
     <path d="M 335.663362 39.972559 
L 405.296956 39.972559 
Q 406.296956 39.972559 406.296956 38.972559 
L 406.296956 10.7 
Q 406.296956 9.7 405.296956 9.7 
L 335.663362 9.7 
Q 334.663362 9.7 334.663362 10.7 
L 334.663362 38.972559 
Q 334.663362 39.972559 335.663362 39.972559 
z
" style="fill: #ffffff; opacity: 0.8; stroke: #cccccc; stroke-linejoin: miter"/>
    </g>
    <g id="line2d_17">
     <path d="M 336.663362 13.592969 
L 341.663362 13.592969 
L 346.663362 13.592969 
" style="fill: none; stroke: #c73e3a; stroke-width: 1.55; stroke-linecap: square"/>
    </g>
    <g id="text_15">
     <text style="font-size: 5px; font-family: 'Arial', 'Helvetica', 'DejaVu Sans', sans-serif; text-anchor: start" x="350.663362" y="15.342969" transform="rotate(-0 350.663362 15.342969)">Original</text>
    </g>
    <g id="line2d_18">
     <path d="M 336.663362 20.785449 
L 341.663362 20.785449 
L 346.663362 20.785449 
" style="fill: none; stroke: #6c6c6c; stroke-width: 1.35; stroke-linecap: square"/>
    </g>
    <g id="text_16">
     <text style="font-size: 5px; font-family: 'Arial', 'Helvetica', 'DejaVu Sans', sans-serif; text-anchor: start" x="350.663362" y="22.535449" transform="rotate(-0 350.663362 22.535449)">Moving-average smooth</text>
    </g>
    <g id="line2d_19">
     <path d="M 336.663362 27.97793 
L 341.663362 27.97793 
L 346.663362 27.97793 
" style="fill: none; stroke: #4c78a8; stroke-width: 1.35; stroke-linecap: square"/>
    </g>
    <g id="text_17">
     <text style="font-size: 5px; font-family: 'Arial', 'Helvetica', 'DejaVu Sans', sans-serif; text-anchor: start" x="350.663362" y="29.72793" transform="rotate(-0 350.663362 29.72793)">B-spline</text>
    </g>
    <g id="line2d_20">
     <path d="M 336.663362 35.170313 
L 341.663362 35.170313 
L 346.663362 35.170313 
" style="fill: none; stroke: #4daf7c; stroke-width: 1.75; stroke-linecap: square"/>
    </g>
    <g id="text_18">
     <text style="font-size: 5px; font-family: 'Arial', 'Helvetica', 'DejaVu Sans', sans-serif; text-anchor: start" x="350.663362" y="36.920313" transform="rotate(-0 350.663362 36.920313)">Geodesic optimized</text>
    </g>
   </g>
  </g>
 </g>
 <defs>
  <clipPath id="p1779914d25">
   <rect x="55.957356" y="7.2" width="352.8396" height="130.222852"/>
  </clipPath>
 </defs>
</svg>
