<?xml version="1.0" encoding="utf-8" standalone="no"?>
<!DOCTYPE svg PUBLIC "-//W3C//DTD SVG 1.1//EN"
  "http://www.w3.org/Graphics/SVG/1.1/DTD/svg11.dtd">
<svg xmlns:xlink="http://www.w3.org/1999/xlink" width="420.881054pt" height="169.317187pt" viewBox="0 0 420.881054 169.317187" xmlns="http://www.w3.org/2000/svg" version="1.1">
 <metadata>
  <rdf:RDF xmlns:dc="http://purl.org/dc/elements/1.1/" xmlns:cc="http://creativecommons.org/ns#" xmlns:rdf="http://www.w3.org/1999/02/22-rdf-syntax-ns#">
   <cc:Work>
    <dc:type rdf:resource="http://purl.org/dc/dcmitype/StillImage"/>
    <dc:date>2026-06-15T20:39:35.007409</dc:date>
    <dc:format>image/svg+xml</dc:format>
    <dc:creator>
     <cc:Agent>
      <dc:title>Matplotlib v3.10.8, https://matplotlib.org/</dc:title>
     </cc:Agent>
    </dc:creator>
   </cc:Work>
  </rdf:RDF>
 </metadata>
 <defs>
  <style type="text/css">*{stroke-linejoin: round; stroke-linecap: butt}</style>
 </defs>
 <g id="figure_1">
  <g id="patch_1">
   <path d="M 0 169.317187 
L 420.881054 169.317187 
L 420.881054 0 
L 0 0 
z
" style="fill: #ffffff"/>
  </g>
  <g id="axes_1">
   <g id="patch_2">
    <path d="M 55.889771 137.1 
L 408.11496 137.1 
L 408.11496 7.2 
L 55.889771 7.2 
z
" style="fill: #ffffff"/>
   </g>
   <g id="matplotlib.axis_1">
    <g id="xtick_1">
     <g id="line2d_1">
      <defs>
       <path id="mdd39309c01" d="M 0 0 
L 0 3 
" style="stroke: #222222; stroke-width: 0.8"/>
      </defs>
      <g>
       <use xlink:href="#mdd39309c01" x="55.889771" y="137.1" style="fill: #222222; stroke: #222222; stroke-width: 0.8"/>
      </g>
     </g>
     <g id="text_1">
      <text style="font-size: 7px; font-family: 'Arial', 'Helvetica', 'DejaVu Sans', sans-serif; text-anchor: middle; fill: #222222" x="55.889771" y="148.918906" transform="rotate(-0 55.889771 148.918906)">0.0</text>
     </g>
    </g>
    <g id="xtick_2">
     <g id="line2d_2">
      <g>
       <use xlink:href="#mdd39309c01" x="126.334809" y="137.1" style="fill: #222222; stroke: #222222; stroke-width: 0.8"/>
      </g>
     </g>
     <g id="text_2">
      <text style="font-size: 7px; font-family: 'Arial', 'Helvetica', 'DejaVu Sans', sans-serif; text-anchor: middle; fill: #222222" x="126.334809" y="148.918906" transform="rotate(-0 126.334809 148.918906)">0.2</text>
     </g>
    </g>
    <g id="xtick_3">
     <g id="line2d_3">
      <g>
       <use xlink:href="#mdd39309c01" x="196.779846" y="137.1" style="fill: #222222; stroke: #222222; stroke-width: 0.8"/>
      </g>
     </g>
     <g id="text_3">
      <text style="font-size: 7px; font-family: 'Arial', 'Helvetica', 'DejaVu Sans', sans-serif; text-anchor: middle; fill: #222222" x="196.779846" y="148.918906" transform="rotate(-0 196.779846 148.918906)">0.4</text>
     </g>
    </g>
    <g id="xtick_4">
     <g id="line2d_4">
      <g>
       <use xlink:href="#mdd39309c01" x="267.224884" y="137.1" style="fill: #222222; stroke: #222222; stroke-width: 0.8"/>
      </g>
     </g>
     <g id="text_4">
      <text style="font-size: 7px; font-family: 'Arial', 'Helvetica', 'DejaVu Sans', sans-serif; text-anchor: middle; fill: #222222" x="267.224884" y="148.918906" transform="rotate(-0 267.224884 148.918906)">0.6</text>
     </g>
    </g>
    <g id="xtick_5">
     <g id="line2d_5">
      <g>
       <use xlink:href="#mdd39309c01" x="337.669922" y="137.1" style="fill: #222222; stroke: #222222; stroke-width: 0.8"/>
      </g>
     </g>
     <g id="text_5">
      <text style="font-size: 7px; font-family: 'Arial', 'Helvetica', 'DejaVu Sans', sans-serif; text-anchor: middle; fill: #222222" x="337.669922" y="148.918906" transform="rotate(-0 337.669922 148.918906)">0.8</text>
     </g>
    </g>
    <g id="xtick_6">
     <g id="line2d_6">
      <g>
       <use xlink:href="#mdd39309c01" x="408.11496" y="137.1" style="fill: #222222; stroke: #222222; stroke-width: 0.8"/>
      </g>
     </g>
     <g id="text_6">
      <text style="font-size: 7px; font-family: 'Arial', 'Helvetica', 'DejaVu Sans', sans-serif; text-anchor: middle; fill: #222222" x="408.11496" y="148.918906" transform="rotate(-0 408.11496 148.918906)">1.0</text>
     </g>
    </g>
    <g id="text_7">
     <text style="font-size: 8px; font-family: 'Arial', 'Helvetica', 'DejaVu Sans', sans-serif; text-anchor: middle" x="232.002365" y="160.453437" transform="rotate(-0 232.002365 160.453437)">Normalized arc length</text>
    </g>
   </g>
   <g id="matplotlib.axis_2">
    <g id="ytick_1">
     <g id="line2d_7">
      <defs>
       <path id="m9166f5d50d" d="M 0 0 
L -3 0 
" style="stroke: #222222; stroke-width: 0.8"/>
      </defs>
      <g>
       <use xlink:href="#m9166f5d50d" x="55.889771" y="131.195455" style="fill: #222222; stroke: #222222; stroke-width: 0.8"/>
      </g>
     </g>
     <g id="text_8">
      <text style="font-size: 7px; font-family: 'Arial', 'Helvetica', 'DejaVu Sans', sans-serif; text-anchor: end; fill: #222222" x="49.389771" y="133.854908" transform="rotate(-0 49.389771 133.854908)">0</text>
     </g>
    </g>
    <g id="ytick_2">
     <g id="line2d_8">
      <g>
       <use xlink:href="#m9166f5d50d" x="55.889771" y="112.449739" style="fill: #222222; stroke: #222222; stroke-width: 0.8"/>
      </g>
     </g>
     <g id="text_9">
      <text style="font-size: 7px; font-family: 'Arial', 'Helvetica', 'DejaVu Sans', sans-serif; text-anchor: end; fill: #222222" x="49.389771" y="115.109192" transform="rotate(-0 49.389771 115.109192)">100</text>
     </g>
    </g>
    <g id="ytick_3">
     <g id="line2d_9">
      <g>
       <use xlink:href="#m9166f5d50d" x="55.889771" y="93.704023" style="fill: #222222; stroke: #222222; stroke-width: 0.8"/>
      </g>
     </g>
     <g id="text_10">
      <text style="font-size: 7px; font-family: 'Arial', 'Helvetica', 'DejaVu Sans', sans-serif; text-anchor: end; fill: #222222" x="49.389771" y="96.363476" transform="rotate(-0 49.389771 96.363476)">200</text>
     </g>
    </g>
    <g id="ytick_4">
     <g id="line2d_10">
      <g>
       <use xlink:href="#m9166f5d50d" x="55.889771" y="74.958307" style="fill: #222222; stroke: #222222; stroke-width: 0.8"/>
      </g>
     </g>
     <g id="text_11">
      <text style="font-size: 7px; font-family: 'Arial', 'Helvetica', 'DejaVu Sans', sans-serif; text-anchor: end; fill: #222222" x="49.389771" y="77.61776" transform="rotate(-0 49.389771 77.61776)">300</text>
     </g>
    </g>
    <g id="ytick_5">
     <g id="line2d_11">
      <g>
       <use xlink:href="#m9166f5d50d" x="55.889771" y="56.212592" style="fill: #222222; stroke: #222222; stroke-width: 0.8"/>
      </g>
     </g>
     <g id="text_12">
      <text style="font-size: 7px; font-family: 'Arial', 'Helvetica', 'DejaVu Sans', sans-serif; text-anchor: end; fill: #222222" x="49.389771" y="58.872045" transform="rotate(-0 49.389771 58.872045)">400</text>
     </g>
    </g>
    <g id="ytick_6">
     <g id="line2d_12">
      <g>
       <use xlink:href="#m9166f5d50d" x="55.889771" y="37.466876" style="fill: #222222; stroke: #222222; stroke-width: 0.8"/>
      </g>
     </g>
     <g id="text_13">
      <text style="font-size: 7px; font-family: 'Arial', 'Helvetica', 'DejaVu Sans', sans-serif; text-anchor: end; fill: #222222" x="49.389771" y="40.126329" transform="rotate(-0 49.389771 40.126329)">500</text>
     </g>
    </g>
    <g id="ytick_7">
     <g id="line2d_13">
      <g>
       <use xlink:href="#m9166f5d50d" x="55.889771" y="18.72116" style="fill: #222222; stroke: #222222; stroke-width: 0.8"/>
      </g>
     </g>
     <g id="text_14">
      <text style="font-size: 7px; font-family: 'Arial', 'Helvetica', 'DejaVu Sans', sans-serif; text-anchor: end; fill: #222222" x="49.389771" y="21.380613" transform="rotate(-0 49.389771 21.380613)">600</text>
     </g>
    </g>
    <g id="text_15">
     <!-- $|\kappa_g|$ -->
     <g transform="translate(7.2 67.99)">
      <text>
       <tspan x="0" y="-0.25" style="font-size: 13px; font-family: 'cmsy10'">j</tspan>
       <tspan x="16.259572" y="-0.25" style="font-size: 13px; font-family: 'cmsy10'">j</tspan>
       <tspan x="3.599121" y="-0.25" style="font-size: 13px; font-family: 'cmmi10'">∙</tspan>
       <tspan x="11.089355" y="1.960812" style="font-size: 9.1px; font-family: 'cmmi10'">g</tspan>
      </text>
     </g>
    </g>
   </g>
   <g id="line2d_14">
    <path d="M 61.018621 130.54819 
L 66.815239 128.23241 
L 71.303155 117.65448 
L 75.3444 129.13091 
L 80.288147 129.686953 
L 84.200305 121.921169 
L 88.828 128.934996 
L 92.610495 125.229284 
L 97.262088 108.341616 
L 107.320918 92.947837 
L 111.861386 128.942379 
L 116.802406 123.44227 
L 119.692638 123.454626 
L 123.985923 130.66293 
L 127.941001 124.898957 
L 131.777925 126.749402 
L 135.763806 131.177783 
L 139.782814 123.975062 
L 143.992704 125.219714 
L 148.240814 124.748119 
L 152.820562 94.038898 
L 162.572027 94.056635 
L 168.688299 127.279042 
L 172.89908 126.647812 
L 176.913018 125.358376 
L 180.836819 124.850589 
L 184.75743 131.195455 
L 188.678041 124.772213 
L 192.636223 125.238331 
L 196.699535 129.646602 
L 200.093322 123.640885 
L 204.353418 124.574577 
L 208.115392 100.950263 
L 218.168997 84.582815 
L 223.1435 127.23333 
L 228.05806 128.141358 
L 232.125583 131.189148 
L 236.17604 125.221493 
L 240.126555 122.721533 
L 244.956275 129.581781 
L 248.938168 125.932619 
L 253.786381 125.356884 
L 258.001973 130.266957 
L 264.250207 101.041163 
L 274.8539 100.719515 
L 279.732485 128.982368 
L 284.488511 117.574154 
L 288.324016 120.849743 
L 292.496836 120.866709 
L 296.282652 125.040299 
L 300.208202 126.622429 
L 304.291015 125.785984 
L 309.198677 128.970876 
L 313.511688 124.66926 
L 316.980516 125.267204 
L 342.204222 13.104545 
L 365.007946 122.43725 
L 368.687445 128.08027 
L 372.60013 89.972002 
L 377.975778 120.127189 
L 380.922436 113.103613 
L 386.792296 121.083255 
L 390.739118 127.874801 
L 394.680752 117.381892 
" clip-path="url(#p42f4fb02c6)" style="fill: none; stroke: #c73e3a; stroke-width: 1.55; stroke-linecap: square"/>
   </g>
   <g id="line2d_15">
    <path d="M 68.632913 129.309478 
L 72.057636 131.139069 
L 79.218991 128.510253 
L 85.232549 129.981454 
L 91.824923 131.108113 
L 98.246766 130.216248 
L 104.139434 127.13386 
L 109.060417 120.02528 
L 112.920654 100.994987 
L 116.134076 84.324625 
L 119.201318 109.862621 
L 123.28266 122.782705 
L 128.230177 126.664954 
L 133.92205 127.901917 
L 139.905846 130.990027 
L 145.907313 130.432933 
L 151.998731 129.369237 
L 158.061559 128.902545 
L 163.486628 125.124455 
L 167.884522 115.132972 
L 171.080382 81.826298 
L 174.024597 91.10741 
L 177.541531 118.657902 
L 182.180004 125.993651 
L 187.6911 128.184028 
L 193.709834 128.072033 
L 199.788681 131.145883 
L 205.765735 131.123232 
L 211.7416 128.499469 
L 217.573327 127.867205 
L 222.790926 124.019112 
L 227.049657 113.426177 
L 230.198365 86.072991 
L 233.14409 87.514869 
L 236.54749 118.270562 
L 241.206135 126.475462 
L 246.863936 128.765571 
L 253.146173 129.73354 
L 259.652243 129.67917 
L 266.275967 127.637226 
L 272.718325 128.110973 
L 278.608868 125.172774 
L 283.494916 117.184638 
L 287.289153 95.209261 
L 290.532163 93.844784 
L 293.975334 115.321606 
L 298.54533 125.981701 
L 304.062225 128.471384 
L 310.150019 130.234051 
L 316.286507 129.575684 
L 322.417614 124.584236 
L 328.898724 127.642799 
L 334.951479 125.697754 
L 340.255789 121.197798 
L 344.765764 112.996278 
L 348.84121 86.526866 
L 351.891682 120.358947 
L 356.173034 126.65223 
L 361.406411 127.641001 
L 367.30765 129.669196 
L 373.395176 124.317375 
L 379.198043 125.233385 
L 387.087047 128.566315 
L 390.593429 126.302223 
" clip-path="url(#p42f4fb02c6)" style="fill: none; stroke-dasharray: 4.995,2.16; stroke-dashoffset: 0; stroke: #6c6c6c; stroke-width: 1.35"/>
   </g>
   <g id="line2d_16">
    <path d="M 60.890801 128.572443 
L 66.659374 126.040034 
L 70.965086 130.917379 
L 74.739105 127.035095 
L 79.54975 127.265701 
L 83.595467 128.312206 
L 88.107832 128.934996 
L 91.79606 125.229284 
L 96.331726 108.341616 
L 106.139871 109.7541 
L 108.265237 127.597742 
L 119.13447 128.481849 
L 122.244829 129.66213 
L 126.431117 130.66293 
L 130.287627 124.898957 
L 134.028928 126.749402 
L 137.915473 129.241642 
L 143.8088 126.571583 
L 145.868241 131.153799 
L 152.130295 122.046707 
L 154.52898 108.182628 
L 164.03742 110.186777 
L 166.790083 122.64775 
L 174.176139 128.768801 
L 177.258497 128.106874 
L 182.100937 130.095793 
L 185.923839 131.195455 
L 189.746741 124.772213 
L 193.606277 125.238331 
L 197.568324 129.646602 
L 200.877531 128.746963 
L 206.247235 126.509593 
L 208.665266 108.428011 
L 218.468315 106.875921 
L 220.729974 123.259416 
L 228.278692 130.044548 
L 230.141191 128.91924 
L 236.089905 129.268982 
L 237.944253 127.053088 
L 244.447224 130.673992 
L 248.153614 131.174635 
L 253.771676 130.191017 
L 257.685862 120.824051 
L 263.803949 112.085774 
L 274.143378 116.650676 
L 277.604008 117.105699 
L 285.360028 130.520804 
L 288.68304 128.405826 
L 291.775329 127.854828 
L 295.669963 126.89784 
L 299.526473 123.134187 
L 303.429523 130.783591 
L 308.214877 129.570547 
L 311.238687 127.964391 
L 315.786157 125.690136 
L 340.381241 97.009239 
L 362.409568 117.731934 
L 368.960977 129.26716 
L 371.749545 116.262286 
L 378.97778 129.083768 
L 380.893261 125.764477 
L 386.672594 127.749236 
L 390.599938 124.895951 
L 395.015557 124.440258 
" clip-path="url(#p42f4fb02c6)" style="fill: none; stroke: #1b8a3a; stroke-width: 1.75; stroke-linecap: square"/>
   </g>
   <g id="patch_3">
    <path d="M 55.889771 137.1 
L 55.889771 7.2 
" style="fill: none; stroke: #222222; stroke-width: 0.8; stroke-linejoin: miter; stroke-linecap: square"/>
   </g>
   <g id="patch_4">
    <path d="M 55.889771 137.1 
L 408.11496 137.1 
" style="fill: none; stroke: #222222; stroke-width: 0.8; stroke-linejoin: miter; stroke-linecap: square"/>
   </g>
   <g id="legend_1">
    <g id="patch_5">
     <path d="M 327.964179 33.217187 
L 404.61496 33.217187 
Q 405.61496 33.217187 405.61496 32.217187 
L 405.61496 10.7 
Q 405.61496 9.7 404.61496 9.7 
L 327.964179 9.7 
Q 326.964179 9.7 326.964179 10.7 
L 326.964179 32.217187 
Q 326.964179 33.217187 327.964179 33.217187 
z
" style="fill: #ffffff; opacity: 0.8; stroke: #cccccc; stroke-linejoin: miter"/>
    </g>
    <g id="line2d_17">
     <path d="M 328.964179 13.749219 
L 333.964179 13.749219 
L 338.964179 13.749219 
" style="fill: none; stroke: #c73e3a; stroke-width: 1.55; stroke-linecap: square"/>
    </g>
    <g id="text_16">
     <text style="font-size: 5px; font-family: 'Arial', 'Helvetica', 'DejaVu Sans', sans-serif; text-anchor: start" x="342.964179" y="15.499219" transform="rotate(-0 342.964179 15.499219)">Original</text>
    </g>
    <g id="line2d_18">
     <path d="M 328.964179 21.088281 
L 333.964179 21.088281 
L 338.964179 21.088281 
" style="fill: none; stroke-dasharray: 4.995,2.16; stroke-dashoffset: 0; stroke: #6c6c6c; stroke-width: 1.35"/>
    </g>
    <g id="text_17">
     <text style="font-size: 5px; font-family: 'Arial', 'Helvetica', 'DejaVu Sans', sans-serif; text-anchor: start" x="342.964179" y="22.838281" transform="rotate(-0 342.964179 22.838281)">Moving-average smooth</text>
    </g>
    <g id="line2d_19">
     <path d="M 328.964179 28.427344 
L 333.964179 28.427344 
L 338.964179 28.427344 
" style="fill: none; stroke: #1b8a3a; stroke-width: 1.75; stroke-linecap: square"/>
    </g>
    <g id="text_18">
     <text style="font-size: 5px; font-family: 'Arial', 'Helvetica', 'DejaVu Sans', sans-serif; text-anchor: start" x="342.964179" y="30.177344" transform="rotate(-0 342.964179 30.177344)">Geodesic optimized</text>
    </g>
   </g>
  </g>
 </g>
 <defs>
  <clipPath id="p42f4fb02c6">
   <rect x="55.889771" y="7.2" width="352.225189" height="129.9"/>
  </clipPath>
 </defs>
</svg>
