<?xml version="1.0" encoding="utf-8" standalone="no"?>
<!DOCTYPE svg PUBLIC "-//W3C//DTD SVG 1.1//EN"
  "http://www.w3.org/Graphics/SVG/1.1/DTD/svg11.dtd">
<svg xmlns:xlink="http://www.w3.org/1999/xlink" width="238.257102pt" height="183.043326pt" viewBox="0 0 238.257102 183.043326" xmlns="http://www.w3.org/2000/svg" version="1.1">
 <metadata>
  <rdf:RDF xmlns:dc="http://purl.org/dc/elements/1.1/" xmlns:cc="http://creativecommons.org/ns#" xmlns:rdf="http://www.w3.org/1999/02/22-rdf-syntax-ns#">
   <cc:Work>
    <dc:type rdf:resource="http://purl.org/dc/dcmitype/StillImage"/>
    <dc:date>2026-06-15T20:25:24.142146</dc:date>
    <dc:format>image/svg+xml</dc:format>
    <dc:creator>
     <cc:Agent>
      <dc:title>Matplotlib v3.10.8, https://matplotlib.org/</dc:title>
     </cc:Agent>
    </dc:creator>
   </cc:Work>
  </rdf:RDF>
 </metadata>
 <defs>
  <style type="text/css">*{stroke-linejoin: round; stroke-linecap: butt}</style>
 </defs>
 <g id="figure_1">
  <g id="patch_1">
   <path d="M 0 183.043326 
L 238.257102 183.043326 
L 238.257102 0 
L 0 0 
z
" style="fill: #ffffff"/>
  </g>
  <g id="axes_1">
   <g id="patch_2">
    <path d="M 39.528439 139.463255 
L 231.057102 139.463255 
L 231.057102 15.138984 
L 39.528439 15.138984 
z
" style="fill: #ffffff"/>
   </g>
   <g id="matplotlib.axis_1">
    <g id="xtick_1">
     <g id="line2d_1">
      <defs>
       <path id="mf0a258de0c" d="M 0 0 
L 0 3 
" style="stroke: #222222; stroke-width: 0.8"/>
      </defs>
      <g>
       <use xlink:href="#mf0a258de0c" x="71.449883" y="139.463255" style="fill: #222222; stroke: #222222; stroke-width: 0.8"/>
      </g>
     </g>
     <g id="text_1">
      <text style="font-size: 7px; font-family: 'Arial', 'Helvetica', 'DejaVu Sans', sans-serif; fill: #222222" transform="translate(46.009174 162.360128) rotate(-25)">Original</text>
     </g>
    </g>
    <g id="xtick_2">
     <g id="line2d_2">
      <g>
       <use xlink:href="#mf0a258de0c" x="135.292771" y="139.463255" style="fill: #222222; stroke: #222222; stroke-width: 0.8"/>
      </g>
     </g>
     <g id="text_2">
      <text style="font-size: 7px; font-family: 'Arial', 'Helvetica', 'DejaVu Sans', sans-serif; fill: #222222" transform="translate(83.766682 174.52394) rotate(-25)">Moving average</text>
     </g>
    </g>
    <g id="xtick_3">
     <g id="line2d_3">
      <g>
       <use xlink:href="#mf0a258de0c" x="199.135658" y="139.463255" style="fill: #222222; stroke: #222222; stroke-width: 0.8"/>
      </g>
     </g>
     <g id="text_3">
      <text style="font-size: 7px; font-family: 'Arial', 'Helvetica', 'DejaVu Sans', sans-serif; fill: #222222" transform="translate(169.332351 164.394441) rotate(-25)">Geodesic</text>
     </g>
    </g>
   </g>
   <g id="matplotlib.axis_2">
    <g id="ytick_1">
     <g id="line2d_4">
      <defs>
       <path id="mbae9bc7ebf" d="M 0 0 
L -3 0 
" style="stroke: #222222; stroke-width: 0.8"/>
      </defs>
      <g>
       <use xlink:href="#mbae9bc7ebf" x="39.528439" y="114.575173" style="fill: #222222; stroke: #222222; stroke-width: 0.8"/>
      </g>
     </g>
     <g id="text_4">
      <text style="font-size: 7px; font-family: 'Arial', 'Helvetica', 'DejaVu Sans', sans-serif; text-anchor: end; fill: #222222" x="33.028439" y="117.234626" transform="rotate(-0 33.028439 117.234626)">2</text>
     </g>
    </g>
    <g id="ytick_2">
     <g id="line2d_5">
      <g>
       <use xlink:href="#mbae9bc7ebf" x="39.528439" y="88.027577" style="fill: #222222; stroke: #222222; stroke-width: 0.8"/>
      </g>
     </g>
     <g id="text_5">
      <text style="font-size: 7px; font-family: 'Arial', 'Helvetica', 'DejaVu Sans', sans-serif; text-anchor: end; fill: #222222" x="33.028439" y="90.68703" transform="rotate(-0 33.028439 90.68703)">4</text>
     </g>
    </g>
    <g id="ytick_3">
     <g id="line2d_6">
      <g>
       <use xlink:href="#mbae9bc7ebf" x="39.528439" y="61.47998" style="fill: #222222; stroke: #222222; stroke-width: 0.8"/>
      </g>
     </g>
     <g id="text_6">
      <text style="font-size: 7px; font-family: 'Arial', 'Helvetica', 'DejaVu Sans', sans-serif; text-anchor: end; fill: #222222" x="33.028439" y="64.139433" transform="rotate(-0 33.028439 64.139433)">6</text>
     </g>
    </g>
    <g id="ytick_4">
     <g id="line2d_7">
      <g>
       <use xlink:href="#mbae9bc7ebf" x="39.528439" y="34.932384" style="fill: #222222; stroke: #222222; stroke-width: 0.8"/>
      </g>
     </g>
     <g id="text_7">
      <text style="font-size: 7px; font-family: 'Arial', 'Helvetica', 'DejaVu Sans', sans-serif; text-anchor: end; fill: #222222" x="33.028439" y="37.591837" transform="rotate(-0 33.028439 37.591837)">8</text>
     </g>
    </g>
    <g id="text_8">
     <!-- $\Sigma \kappa_g^2$ -->
     <g transform="translate(7.2 73.10112)">
      <text>
       <tspan x="0" y="-0.082273" style="font-size: 10.5px; font-family: 'cmr10'">§</tspan>
       <tspan x="7.582764" y="-0.082273" style="font-size: 10.5px; font-family: 'cmmi10'">∙</tspan>
       <tspan x="14.29461" y="-4.1" style="font-size: 7.35px; font-family: 'cmr10'">2</tspan>
       <tspan x="13.632568" y="2.596211" style="font-size: 7.35px; font-family: 'cmmi10'">g</tspan>
      </text>
     </g>
    </g>
    <g id="text_9">
     <text style="font-size: 6.5px; font-family: 'Arial', 'Helvetica', 'DejaVu Sans', sans-serif; text-anchor: start; fill: #222222" x="39.528439" y="12.138984" transform="rotate(-0 39.528439 12.138984)">1e5</text>
    </g>
   </g>
   <g id="patch_3">
    <path d="M 54.850732 103.006642 
L 88.049034 103.006642 
L 88.049034 85.885412 
L 54.850732 85.885412 
L 54.850732 103.006642 
z
" clip-path="url(#p876304825e)" style="fill: #d95f5f; opacity: 0.45; stroke: #222222; stroke-width: 0.8; stroke-linejoin: miter"/>
   </g>
   <g id="line2d_8">
    <path d="M 71.449883 103.006642 
L 71.449883 105.501862 
" clip-path="url(#p876304825e)" style="fill: none; stroke: #222222; stroke-width: 0.8; stroke-linecap: square"/>
   </g>
   <g id="line2d_9">
    <path d="M 71.449883 85.885412 
L 71.449883 69.387926 
" clip-path="url(#p876304825e)" style="fill: none; stroke: #222222; stroke-width: 0.8; stroke-linecap: square"/>
   </g>
   <g id="line2d_10">
    <path d="M 63.150308 105.501862 
L 79.749459 105.501862 
" clip-path="url(#p876304825e)" style="fill: none; stroke: #222222; stroke-width: 0.8; stroke-linecap: square"/>
   </g>
   <g id="line2d_11">
    <path d="M 63.150308 69.387926 
L 79.749459 69.387926 
" clip-path="url(#p876304825e)" style="fill: none; stroke: #222222; stroke-width: 0.8; stroke-linecap: square"/>
   </g>
   <g id="line2d_12">
    <defs>
     <path id="m157969d44d" d="M 0 1.3 
C 0.344764 1.3 0.675454 1.163024 0.919239 0.919239 
C 1.163024 0.675454 1.3 0.344764 1.3 0 
C 1.3 -0.344764 1.163024 -0.675454 0.919239 -0.919239 
C 0.675454 -1.163024 0.344764 -1.3 0 -1.3 
C -0.344764 -1.3 -0.675454 -1.163024 -0.919239 -0.919239 
C -1.163024 -0.675454 -1.3 -0.344764 -1.3 0 
C -1.3 0.344764 -1.163024 0.675454 -0.919239 0.919239 
C -0.675454 1.163024 -0.344764 1.3 0 1.3 
z
" style="stroke: #222222"/>
    </defs>
    <g clip-path="url(#p876304825e)">
     <use xlink:href="#m157969d44d" x="71.449883" y="35.888919" style="fill: #ffffff; stroke: #222222"/>
     <use xlink:href="#m157969d44d" x="71.449883" y="42.301273" style="fill: #ffffff; stroke: #222222"/>
    </g>
   </g>
   <g id="patch_4">
    <path d="M 118.69362 78.106274 
L 151.891921 78.106274 
L 151.891921 64.318456 
L 118.69362 64.318456 
L 118.69362 78.106274 
z
" clip-path="url(#p876304825e)" style="fill: #8c8c8c; opacity: 0.45; stroke: #222222; stroke-width: 0.8; stroke-linejoin: miter"/>
   </g>
   <g id="line2d_13">
    <path d="M 135.292771 78.106274 
L 135.292771 86.376029 
" clip-path="url(#p876304825e)" style="fill: none; stroke: #222222; stroke-width: 0.8; stroke-linecap: square"/>
   </g>
   <g id="line2d_14">
    <path d="M 135.292771 64.318456 
L 135.292771 61.443399 
" clip-path="url(#p876304825e)" style="fill: none; stroke: #222222; stroke-width: 0.8; stroke-linecap: square"/>
   </g>
   <g id="line2d_15">
    <path d="M 126.993195 86.376029 
L 143.592346 86.376029 
" clip-path="url(#p876304825e)" style="fill: none; stroke: #222222; stroke-width: 0.8; stroke-linecap: square"/>
   </g>
   <g id="line2d_16">
    <path d="M 126.993195 61.443399 
L 143.592346 61.443399 
" clip-path="url(#p876304825e)" style="fill: none; stroke: #222222; stroke-width: 0.8; stroke-linecap: square"/>
   </g>
   <g id="line2d_17">
    <g clip-path="url(#p876304825e)">
     <use xlink:href="#m157969d44d" x="135.292771" y="33.212521" style="fill: #ffffff; stroke: #222222"/>
     <use xlink:href="#m157969d44d" x="135.292771" y="20.790088" style="fill: #ffffff; stroke: #222222"/>
    </g>
   </g>
   <g id="patch_5">
    <path d="M 182.536507 127.77015 
L 215.734809 127.77015 
L 215.734809 122.902128 
L 182.536507 122.902128 
L 182.536507 127.77015 
z
" clip-path="url(#p876304825e)" style="fill: #4daf7c; opacity: 0.45; stroke: #222222; stroke-width: 0.8; stroke-linejoin: miter"/>
   </g>
   <g id="line2d_18">
    <path d="M 199.135658 127.77015 
L 199.135658 133.812152 
" clip-path="url(#p876304825e)" style="fill: none; stroke: #222222; stroke-width: 0.8; stroke-linecap: square"/>
   </g>
   <g id="line2d_19">
    <path d="M 199.135658 122.902128 
L 199.135658 116.967037 
" clip-path="url(#p876304825e)" style="fill: none; stroke: #222222; stroke-width: 0.8; stroke-linecap: square"/>
   </g>
   <g id="line2d_20">
    <path d="M 190.836083 133.812152 
L 207.435233 133.812152 
" clip-path="url(#p876304825e)" style="fill: none; stroke: #222222; stroke-width: 0.8; stroke-linecap: square"/>
   </g>
   <g id="line2d_21">
    <path d="M 190.836083 116.967037 
L 207.435233 116.967037 
" clip-path="url(#p876304825e)" style="fill: none; stroke: #222222; stroke-width: 0.8; stroke-linecap: square"/>
   </g>
   <g id="line2d_22"/>
   <g id="line2d_23">
    <path d="M 54.850732 96.433232 
L 88.049034 96.433232 
" clip-path="url(#p876304825e)" style="fill: none; stroke: #222222"/>
   </g>
   <g id="line2d_24">
    <path d="M 118.69362 69.669081 
L 151.891921 69.669081 
" clip-path="url(#p876304825e)" style="fill: none; stroke: #222222"/>
   </g>
   <g id="line2d_25">
    <path d="M 182.536507 125.315835 
L 215.734809 125.315835 
" clip-path="url(#p876304825e)" style="fill: none; stroke: #222222"/>
   </g>
   <g id="patch_6">
    <path d="M 39.528439 139.463255 
L 39.528439 15.138984 
" style="fill: none; stroke: #222222; stroke-width: 0.8; stroke-linejoin: miter; stroke-linecap: square"/>
   </g>
   <g id="patch_7">
    <path d="M 39.528439 139.463255 
L 231.057102 139.463255 
" style="fill: none; stroke: #222222; stroke-width: 0.8; stroke-linejoin: miter; stroke-linecap: square"/>
   </g>
   <g id="PathCollection_1">
    <defs>
     <path id="m1b6afb9310" d="M 0 1.414214 
C 0.375054 1.414214 0.734797 1.265203 1 1 
C 1.265203 0.734797 1.414214 0.375054 1.414214 0 
C 1.414214 -0.375054 1.265203 -0.734797 1 -1 
C 0.734797 -1.265203 0.375054 -1.414214 0 -1.414214 
C -0.375054 -1.414214 -0.734797 -1.265203 -1 -1 
C -1.265203 -0.734797 -1.414214 -0.375054 -1.414214 0 
C -1.414214 0.375054 -1.265203 0.734797 -1 1 
C -0.734797 1.265203 -0.375054 1.414214 0 1.414214 
z
"/>
    </defs>
    <g clip-path="url(#p876304825e)">
     <use xlink:href="#m1b6afb9310" x="71.730827" y="105.501862" style="fill: #d95f5f; fill-opacity: 0.72"/>
     <use xlink:href="#m1b6afb9310" x="71.154695" y="96.433232" style="fill: #d95f5f; fill-opacity: 0.72"/>
     <use xlink:href="#m1b6afb9310" x="72.880908" y="95.120726" style="fill: #d95f5f; fill-opacity: 0.72"/>
     <use xlink:href="#m1b6afb9310" x="71.684283" y="103.976597" style="fill: #d95f5f; fill-opacity: 0.72"/>
     <use xlink:href="#m1b6afb9310" x="70.252929" y="83.928568" style="fill: #d95f5f; fill-opacity: 0.72"/>
     <use xlink:href="#m1b6afb9310" x="72.257868" y="101.756421" style="fill: #d95f5f; fill-opacity: 0.72"/>
     <use xlink:href="#m1b6afb9310" x="74.363673" y="87.842256" style="fill: #d95f5f; fill-opacity: 0.72"/>
     <use xlink:href="#m1b6afb9310" x="73.566137" y="35.888919" style="fill: #d95f5f; fill-opacity: 0.72"/>
     <use xlink:href="#m1b6afb9310" x="69.877386" y="103.257506" style="fill: #d95f5f; fill-opacity: 0.72"/>
     <use xlink:href="#m1b6afb9310" x="68.622298" y="102.279918" style="fill: #d95f5f; fill-opacity: 0.72"/>
     <use xlink:href="#m1b6afb9310" x="70.057176" y="42.301273" style="fill: #d95f5f; fill-opacity: 0.72"/>
     <use xlink:href="#m1b6afb9310" x="71.542226" y="93.391623" style="fill: #d95f5f; fill-opacity: 0.72"/>
     <use xlink:href="#m1b6afb9310" x="66.254599" y="102.755777" style="fill: #d95f5f; fill-opacity: 0.72"/>
     <use xlink:href="#m1b6afb9310" x="70.960993" y="93.547745" style="fill: #d95f5f; fill-opacity: 0.72"/>
     <use xlink:href="#m1b6afb9310" x="68.665894" y="100.145114" style="fill: #d95f5f; fill-opacity: 0.72"/>
     <use xlink:href="#m1b6afb9310" x="69.813631" y="75.968177" style="fill: #d95f5f; fill-opacity: 0.72"/>
     <use xlink:href="#m1b6afb9310" x="70.233736" y="104.850613" style="fill: #d95f5f; fill-opacity: 0.72"/>
     <use xlink:href="#m1b6afb9310" x="70.74311" y="105.319318" style="fill: #d95f5f; fill-opacity: 0.72"/>
     <use xlink:href="#m1b6afb9310" x="72.369672" y="69.387926" style="fill: #d95f5f; fill-opacity: 0.72"/>
    </g>
   </g>
   <g id="PathCollection_2">
    <defs>
     <path id="m3495d4be90" d="M 0 1.414214 
C 0.375054 1.414214 0.734797 1.265203 1 1 
C 1.265203 0.734797 1.414214 0.375054 1.414214 0 
C 1.414214 -0.375054 1.265203 -0.734797 1 -1 
C 0.734797 -1.265203 0.375054 -1.414214 0 -1.414214 
C -0.375054 -1.414214 -0.734797 -1.265203 -1 -1 
C -1.265203 -0.734797 -1.414214 -0.375054 -1.414214 0 
C -1.414214 0.375054 -1.265203 0.734797 -1 1 
C -0.734797 1.265203 -0.375054 1.414214 0 1.414214 
z
"/>
    </defs>
    <g clip-path="url(#p876304825e)">
     <use xlink:href="#m3495d4be90" x="137.622268" y="76.604555" style="fill: #8c8c8c; fill-opacity: 0.72"/>
     <use xlink:href="#m3495d4be90" x="135.00556" y="64.340593" style="fill: #8c8c8c; fill-opacity: 0.72"/>
     <use xlink:href="#m3495d4be90" x="138.346135" y="66.205373" style="fill: #8c8c8c; fill-opacity: 0.72"/>
     <use xlink:href="#m3495d4be90" x="133.806392" y="80.276649" style="fill: #8c8c8c; fill-opacity: 0.72"/>
     <use xlink:href="#m3495d4be90" x="136.07822" y="61.443399" style="fill: #8c8c8c; fill-opacity: 0.72"/>
     <use xlink:href="#m3495d4be90" x="137.311576" y="76.662825" style="fill: #8c8c8c; fill-opacity: 0.72"/>
     <use xlink:href="#m3495d4be90" x="135.502841" y="66.39878" style="fill: #8c8c8c; fill-opacity: 0.72"/>
     <use xlink:href="#m3495d4be90" x="133.631421" y="69.669081" style="fill: #8c8c8c; fill-opacity: 0.72"/>
     <use xlink:href="#m3495d4be90" x="133.233174" y="80.202477" style="fill: #8c8c8c; fill-opacity: 0.72"/>
     <use xlink:href="#m3495d4be90" x="134.269982" y="79.549723" style="fill: #8c8c8c; fill-opacity: 0.72"/>
     <use xlink:href="#m3495d4be90" x="135.784797" y="33.212521" style="fill: #8c8c8c; fill-opacity: 0.72"/>
     <use xlink:href="#m3495d4be90" x="133.036778" y="62.859457" style="fill: #8c8c8c; fill-opacity: 0.72"/>
     <use xlink:href="#m3495d4be90" x="134.825368" y="72.218464" style="fill: #8c8c8c; fill-opacity: 0.72"/>
     <use xlink:href="#m3495d4be90" x="134.936982" y="64.296318" style="fill: #8c8c8c; fill-opacity: 0.72"/>
     <use xlink:href="#m3495d4be90" x="136.501291" y="74.049673" style="fill: #8c8c8c; fill-opacity: 0.72"/>
     <use xlink:href="#m3495d4be90" x="135.772427" y="67.746016" style="fill: #8c8c8c; fill-opacity: 0.72"/>
     <use xlink:href="#m3495d4be90" x="136.086851" y="86.376029" style="fill: #8c8c8c; fill-opacity: 0.72"/>
     <use xlink:href="#m3495d4be90" x="133.83179" y="85.537819" style="fill: #8c8c8c; fill-opacity: 0.72"/>
     <use xlink:href="#m3495d4be90" x="135.003149" y="20.790088" style="fill: #8c8c8c; fill-opacity: 0.72"/>
    </g>
   </g>
   <g id="PathCollection_3">
    <defs>
     <path id="mc6e419bb4f" d="M 0 1.414214 
C 0.375054 1.414214 0.734797 1.265203 1 1 
C 1.265203 0.734797 1.414214 0.375054 1.414214 0 
C 1.414214 -0.375054 1.265203 -0.734797 1 -1 
C 0.734797 -1.265203 0.375054 -1.414214 0 -1.414214 
C -0.375054 -1.414214 -0.734797 -1.265203 -1 -1 
C -1.265203 -0.734797 -1.414214 -0.375054 -1.414214 0 
C -1.414214 0.375054 -1.265203 0.734797 -1 1 
C -0.734797 1.265203 -0.375054 1.414214 0 1.414214 
z
"/>
    </defs>
    <g clip-path="url(#p876304825e)">
     <use xlink:href="#mc6e419bb4f" x="200.887452" y="125.315835" style="fill: #4daf7c; fill-opacity: 0.72"/>
     <use xlink:href="#mc6e419bb4f" x="202.472732" y="121.474694" style="fill: #4daf7c; fill-opacity: 0.72"/>
     <use xlink:href="#mc6e419bb4f" x="196.322275" y="120.763497" style="fill: #4daf7c; fill-opacity: 0.72"/>
     <use xlink:href="#mc6e419bb4f" x="202.518522" y="126.043824" style="fill: #4daf7c; fill-opacity: 0.72"/>
     <use xlink:href="#mc6e419bb4f" x="202.143018" y="123.217349" style="fill: #4daf7c; fill-opacity: 0.72"/>
     <use xlink:href="#mc6e419bb4f" x="200.881499" y="126.73365" style="fill: #4daf7c; fill-opacity: 0.72"/>
     <use xlink:href="#mc6e419bb4f" x="199.726584" y="124.354028" style="fill: #4daf7c; fill-opacity: 0.72"/>
     <use xlink:href="#mc6e419bb4f" x="198.434197" y="116.967037" style="fill: #4daf7c; fill-opacity: 0.72"/>
     <use xlink:href="#mc6e419bb4f" x="202.393607" y="127.113493" style="fill: #4daf7c; fill-opacity: 0.72"/>
     <use xlink:href="#mc6e419bb4f" x="203.515857" y="125.070061" style="fill: #4daf7c; fill-opacity: 0.72"/>
     <use xlink:href="#mc6e419bb4f" x="203.161413" y="126.298906" style="fill: #4daf7c; fill-opacity: 0.72"/>
     <use xlink:href="#mc6e419bb4f" x="202.074259" y="121.628527" style="fill: #4daf7c; fill-opacity: 0.72"/>
     <use xlink:href="#mc6e419bb4f" x="199.934225" y="124.450434" style="fill: #4daf7c; fill-opacity: 0.72"/>
     <use xlink:href="#mc6e419bb4f" x="196.435669" y="122.586906" style="fill: #4daf7c; fill-opacity: 0.72"/>
     <use xlink:href="#mc6e419bb4f" x="199.125705" y="128.644853" style="fill: #4daf7c; fill-opacity: 0.72"/>
     <use xlink:href="#mc6e419bb4f" x="200.602552" y="128.426806" style="fill: #4daf7c; fill-opacity: 0.72"/>
     <use xlink:href="#mc6e419bb4f" x="196.256813" y="133.812152" style="fill: #4daf7c; fill-opacity: 0.72"/>
     <use xlink:href="#mc6e419bb4f" x="200.018559" y="131.36565" style="fill: #4daf7c; fill-opacity: 0.72"/>
     <use xlink:href="#mc6e419bb4f" x="200.096189" y="132.266632" style="fill: #4daf7c; fill-opacity: 0.72"/>
    </g>
   </g>
  </g>
 </g>
 <defs>
  <clipPath id="p876304825e">
   <rect x="39.528439" y="15.138984" width="191.528662" height="124.324271"/>
  </clipPath>
 </defs>
</svg>
