<?xml version="1.0" encoding="utf-8" standalone="no"?>
<!DOCTYPE svg PUBLIC "-//W3C//DTD SVG 1.1//EN"
  "http://www.w3.org/Graphics/SVG/1.1/DTD/svg11.dtd">
<svg xmlns:xlink="http://www.w3.org/1999/xlink" width="236.122443pt" height="183.144342pt" viewBox="0 0 236.122443 183.144342" xmlns="http://www.w3.org/2000/svg" version="1.1">
 <metadata>
  <rdf:RDF xmlns:dc="http://purl.org/dc/elements/1.1/" xmlns:cc="http://creativecommons.org/ns#" xmlns:rdf="http://www.w3.org/1999/02/22-rdf-syntax-ns#">
   <cc:Work>
    <dc:type rdf:resource="http://purl.org/dc/dcmitype/StillImage"/>
    <dc:date>2026-06-15T20:23:44.690929</dc:date>
    <dc:format>image/svg+xml</dc:format>
    <dc:creator>
     <cc:Agent>
      <dc:title>Matplotlib v3.10.8, https://matplotlib.org/</dc:title>
     </cc:Agent>
    </dc:creator>
   </cc:Work>
  </rdf:RDF>
 </metadata>
 <defs>
  <style type="text/css">*{stroke-linejoin: round; stroke-linecap: butt}</style>
 </defs>
 <g id="figure_1">
  <g id="patch_1">
   <path d="M 0 183.144342 
L 236.122443 183.144342 
L 236.122443 0 
L 0 0 
z
" style="fill: #ffffff"/>
  </g>
  <g id="axes_1">
   <g id="patch_2">
    <path d="M 49.297491 139.564271 
L 228.922443 139.564271 
L 228.922443 7.2 
L 49.297491 7.2 
z
" style="fill: #ffffff"/>
   </g>
   <g id="matplotlib.axis_1">
    <g id="xtick_1">
     <g id="line2d_1">
      <defs>
       <path id="m2181b6ac7a" d="M 0 0 
L 0 3 
" style="stroke: #222222; stroke-width: 0.8"/>
      </defs>
      <g>
       <use xlink:href="#m2181b6ac7a" x="79.234983" y="139.564271" style="fill: #222222; stroke: #222222; stroke-width: 0.8"/>
      </g>
     </g>
     <g id="text_1">
      <text style="font-size: 7px; font-family: 'Arial', 'Helvetica', 'DejaVu Sans', sans-serif; fill: #222222" transform="translate(53.794274 162.461144) rotate(-25)">Original</text>
     </g>
    </g>
    <g id="xtick_2">
     <g id="line2d_2">
      <g>
       <use xlink:href="#m2181b6ac7a" x="139.109967" y="139.564271" style="fill: #222222; stroke: #222222; stroke-width: 0.8"/>
      </g>
     </g>
     <g id="text_2">
      <text style="font-size: 7px; font-family: 'Arial', 'Helvetica', 'DejaVu Sans', sans-serif; fill: #222222" transform="translate(87.583879 174.624956) rotate(-25)">Moving average</text>
     </g>
    </g>
    <g id="xtick_3">
     <g id="line2d_3">
      <g>
       <use xlink:href="#m2181b6ac7a" x="198.984951" y="139.564271" style="fill: #222222; stroke: #222222; stroke-width: 0.8"/>
      </g>
     </g>
     <g id="text_3">
      <text style="font-size: 7px; font-family: 'Arial', 'Helvetica', 'DejaVu Sans', sans-serif; fill: #222222" transform="translate(169.181644 164.495456) rotate(-25)">Geodesic</text>
     </g>
    </g>
   </g>
   <g id="matplotlib.axis_2">
    <g id="ytick_1">
     <g id="line2d_4">
      <defs>
       <path id="m0143948c6f" d="M 0 0 
L -3 0 
" style="stroke: #222222; stroke-width: 0.8"/>
      </defs>
      <g>
       <use xlink:href="#m0143948c6f" x="49.297491" y="131.808374" style="fill: #222222; stroke: #222222; stroke-width: 0.8"/>
      </g>
     </g>
     <g id="text_4">
      <text style="font-size: 7px; font-family: 'Arial', 'Helvetica', 'DejaVu Sans', sans-serif; text-anchor: end; fill: #222222" x="42.797491" y="134.467827" transform="rotate(-0 42.797491 134.467827)">100</text>
     </g>
    </g>
    <g id="ytick_2">
     <g id="line2d_5">
      <g>
       <use xlink:href="#m0143948c6f" x="49.297491" y="113.290656" style="fill: #222222; stroke: #222222; stroke-width: 0.8"/>
      </g>
     </g>
     <g id="text_5">
      <text style="font-size: 7px; font-family: 'Arial', 'Helvetica', 'DejaVu Sans', sans-serif; text-anchor: end; fill: #222222" x="42.797491" y="115.950109" transform="rotate(-0 42.797491 115.950109)">200</text>
     </g>
    </g>
    <g id="ytick_3">
     <g id="line2d_6">
      <g>
       <use xlink:href="#m0143948c6f" x="49.297491" y="94.772938" style="fill: #222222; stroke: #222222; stroke-width: 0.8"/>
      </g>
     </g>
     <g id="text_6">
      <text style="font-size: 7px; font-family: 'Arial', 'Helvetica', 'DejaVu Sans', sans-serif; text-anchor: end; fill: #222222" x="42.797491" y="97.432391" transform="rotate(-0 42.797491 97.432391)">300</text>
     </g>
    </g>
    <g id="ytick_4">
     <g id="line2d_7">
      <g>
       <use xlink:href="#m0143948c6f" x="49.297491" y="76.255221" style="fill: #222222; stroke: #222222; stroke-width: 0.8"/>
      </g>
     </g>
     <g id="text_7">
      <text style="font-size: 7px; font-family: 'Arial', 'Helvetica', 'DejaVu Sans', sans-serif; text-anchor: end; fill: #222222" x="42.797491" y="78.914674" transform="rotate(-0 42.797491 78.914674)">400</text>
     </g>
    </g>
    <g id="ytick_5">
     <g id="line2d_8">
      <g>
       <use xlink:href="#m0143948c6f" x="49.297491" y="57.737503" style="fill: #222222; stroke: #222222; stroke-width: 0.8"/>
      </g>
     </g>
     <g id="text_8">
      <text style="font-size: 7px; font-family: 'Arial', 'Helvetica', 'DejaVu Sans', sans-serif; text-anchor: end; fill: #222222" x="42.797491" y="60.396956" transform="rotate(-0 42.797491 60.396956)">500</text>
     </g>
    </g>
    <g id="ytick_6">
     <g id="line2d_9">
      <g>
       <use xlink:href="#m0143948c6f" x="49.297491" y="39.219785" style="fill: #222222; stroke: #222222; stroke-width: 0.8"/>
      </g>
     </g>
     <g id="text_9">
      <text style="font-size: 7px; font-family: 'Arial', 'Helvetica', 'DejaVu Sans', sans-serif; text-anchor: end; fill: #222222" x="42.797491" y="41.879238" transform="rotate(-0 42.797491 41.879238)">600</text>
     </g>
    </g>
    <g id="ytick_7">
     <g id="line2d_10">
      <g>
       <use xlink:href="#m0143948c6f" x="49.297491" y="20.702067" style="fill: #222222; stroke: #222222; stroke-width: 0.8"/>
      </g>
     </g>
     <g id="text_10">
      <text style="font-size: 7px; font-family: 'Arial', 'Helvetica', 'DejaVu Sans', sans-serif; text-anchor: end; fill: #222222" x="42.797491" y="23.36152" transform="rotate(-0 42.797491 23.36152)">700</text>
     </g>
    </g>
    <g id="text_11">
     <!-- $\max$ -->
     <g transform="translate(7.2 58.264432)">
      <text>
       <tspan x="0" y="-0.296875" style="font-size: 10.5px; font-family: 'cmr10'">m</tspan>
       <tspan x="8.746582" y="-0.296875" style="font-size: 10.5px; font-family: 'cmr10'">a</tspan>
       <tspan x="13.996582" y="-0.296875" style="font-size: 10.5px; font-family: 'cmr10'">x</tspan>
      </text>
     </g>
     <!-- $|\kappa_g|$ -->
     <g transform="translate(8.9325 70.022136)">
      <text>
       <tspan x="0" y="-0.125" style="font-size: 10.5px; font-family: 'cmsy10'">j</tspan>
       <tspan x="13.132731" y="-0.125" style="font-size: 10.5px; font-family: 'cmsy10'">j</tspan>
       <tspan x="2.906982" y="-0.125" style="font-size: 10.5px; font-family: 'cmmi10'">∙</tspan>
       <tspan x="8.956787" y="1.660656" style="font-size: 7.35px; font-family: 'cmmi10'">g</tspan>
      </text>
     </g>
    </g>
   </g>
   <g id="patch_3">
    <path d="M 63.667487 110.030485 
L 94.802479 110.030485 
L 94.802479 84.84835 
L 63.667487 84.84835 
L 63.667487 110.030485 
z
" clip-path="url(#p2337309818)" style="fill: #d95f5f; opacity: 0.45; stroke: #222222; stroke-width: 0.8; stroke-linejoin: miter"/>
   </g>
   <g id="line2d_11">
    <path d="M 79.234983 110.030485 
L 79.234983 113.607339 
" clip-path="url(#p2337309818)" style="fill: none; stroke: #222222; stroke-width: 0.8; stroke-linecap: square"/>
   </g>
   <g id="line2d_12">
    <path d="M 79.234983 84.84835 
L 79.234983 70.164308 
" clip-path="url(#p2337309818)" style="fill: none; stroke: #222222; stroke-width: 0.8; stroke-linecap: square"/>
   </g>
   <g id="line2d_13">
    <path d="M 71.451235 113.607339 
L 87.018731 113.607339 
" clip-path="url(#p2337309818)" style="fill: none; stroke: #222222; stroke-width: 0.8; stroke-linecap: square"/>
   </g>
   <g id="line2d_14">
    <path d="M 71.451235 70.164308 
L 87.018731 70.164308 
" clip-path="url(#p2337309818)" style="fill: none; stroke: #222222; stroke-width: 0.8; stroke-linecap: square"/>
   </g>
   <g id="line2d_15">
    <defs>
     <path id="m2857709613" d="M 0 1.3 
C 0.344764 1.3 0.675454 1.163024 0.919239 0.919239 
C 1.163024 0.675454 1.3 0.344764 1.3 0 
C 1.3 -0.344764 1.163024 -0.675454 0.919239 -0.919239 
C 0.675454 -1.163024 0.344764 -1.3 0 -1.3 
C -0.344764 -1.3 -0.675454 -1.163024 -0.919239 -0.919239 
C -1.163024 -0.675454 -1.3 -0.344764 -1.3 0 
C -1.3 0.344764 -1.163024 0.675454 -0.919239 0.919239 
C -0.675454 1.163024 -0.344764 1.3 0 1.3 
z
" style="stroke: #222222"/>
    </defs>
    <g clip-path="url(#p2337309818)">
     <use xlink:href="#m2857709613" x="79.234983" y="33.671483" style="fill: #ffffff; stroke: #222222"/>
     <use xlink:href="#m2857709613" x="79.234983" y="29.220401" style="fill: #ffffff; stroke: #222222"/>
     <use xlink:href="#m2857709613" x="79.234983" y="41.195233" style="fill: #ffffff; stroke: #222222"/>
    </g>
   </g>
   <g id="patch_4">
    <path d="M 123.542471 101.752723 
L 154.677463 101.752723 
L 154.677463 92.93599 
L 123.542471 92.93599 
L 123.542471 101.752723 
z
" clip-path="url(#p2337309818)" style="fill: #8c8c8c; opacity: 0.45; stroke: #222222; stroke-width: 0.8; stroke-linejoin: miter"/>
   </g>
   <g id="line2d_16">
    <path d="M 139.109967 101.752723 
L 139.109967 104.405719 
" clip-path="url(#p2337309818)" style="fill: none; stroke: #222222; stroke-width: 0.8; stroke-linecap: square"/>
   </g>
   <g id="line2d_17">
    <path d="M 139.109967 92.93599 
L 139.109967 83.740026 
" clip-path="url(#p2337309818)" style="fill: none; stroke: #222222; stroke-width: 0.8; stroke-linecap: square"/>
   </g>
   <g id="line2d_18">
    <path d="M 131.326219 104.405719 
L 146.893715 104.405719 
" clip-path="url(#p2337309818)" style="fill: none; stroke: #222222; stroke-width: 0.8; stroke-linecap: square"/>
   </g>
   <g id="line2d_19">
    <path d="M 131.326219 83.740026 
L 146.893715 83.740026 
" clip-path="url(#p2337309818)" style="fill: none; stroke: #222222; stroke-width: 0.8; stroke-linecap: square"/>
   </g>
   <g id="line2d_20">
    <g clip-path="url(#p2337309818)">
     <use xlink:href="#m2857709613" x="139.109967" y="52.125438" style="fill: #ffffff; stroke: #222222"/>
     <use xlink:href="#m2857709613" x="139.109967" y="13.216558" style="fill: #ffffff; stroke: #222222"/>
    </g>
   </g>
   <g id="patch_5">
    <path d="M 183.417455 129.142768 
L 214.552447 129.142768 
L 214.552447 125.757215 
L 183.417455 125.757215 
L 183.417455 129.142768 
z
" clip-path="url(#p2337309818)" style="fill: #4daf7c; opacity: 0.45; stroke: #222222; stroke-width: 0.8; stroke-linejoin: miter"/>
   </g>
   <g id="line2d_21">
    <path d="M 198.984951 129.142768 
L 198.984951 133.547713 
" clip-path="url(#p2337309818)" style="fill: none; stroke: #222222; stroke-width: 0.8; stroke-linecap: square"/>
   </g>
   <g id="line2d_22">
    <path d="M 198.984951 125.757215 
L 198.984951 124.162681 
" clip-path="url(#p2337309818)" style="fill: none; stroke: #222222; stroke-width: 0.8; stroke-linecap: square"/>
   </g>
   <g id="line2d_23">
    <path d="M 191.201203 133.547713 
L 206.768699 133.547713 
" clip-path="url(#p2337309818)" style="fill: none; stroke: #222222; stroke-width: 0.8; stroke-linecap: square"/>
   </g>
   <g id="line2d_24">
    <path d="M 191.201203 124.162681 
L 206.768699 124.162681 
" clip-path="url(#p2337309818)" style="fill: none; stroke: #222222; stroke-width: 0.8; stroke-linecap: square"/>
   </g>
   <g id="line2d_25">
    <g clip-path="url(#p2337309818)">
     <use xlink:href="#m2857709613" x="198.984951" y="116.555672" style="fill: #ffffff; stroke: #222222"/>
    </g>
   </g>
   <g id="line2d_26">
    <path d="M 63.667487 104.69482 
L 94.802479 104.69482 
" clip-path="url(#p2337309818)" style="fill: none; stroke: #222222"/>
   </g>
   <g id="line2d_27">
    <path d="M 123.542471 98.388058 
L 154.677463 98.388058 
" clip-path="url(#p2337309818)" style="fill: none; stroke: #222222"/>
   </g>
   <g id="line2d_28">
    <path d="M 183.417455 128.210558 
L 214.552447 128.210558 
" clip-path="url(#p2337309818)" style="fill: none; stroke: #222222"/>
   </g>
   <g id="patch_6">
    <path d="M 49.297491 139.564271 
L 49.297491 7.2 
" style="fill: none; stroke: #222222; stroke-width: 0.8; stroke-linejoin: miter; stroke-linecap: square"/>
   </g>
   <g id="patch_7">
    <path d="M 49.297491 139.564271 
L 228.922443 139.564271 
" style="fill: none; stroke: #222222; stroke-width: 0.8; stroke-linejoin: miter; stroke-linecap: square"/>
   </g>
   <g id="PathCollection_1">
    <defs>
     <path id="mad998975db" d="M 0 1.414214 
C 0.375054 1.414214 0.734797 1.265203 1 1 
C 1.265203 0.734797 1.414214 0.375054 1.414214 0 
C 1.414214 -0.375054 1.265203 -0.734797 1 -1 
C 0.734797 -1.265203 0.375054 -1.414214 0 -1.414214 
C -0.375054 -1.414214 -0.734797 -1.265203 -1 -1 
C -1.265203 -0.734797 -1.414214 -0.375054 -1.414214 0 
C -1.414214 0.375054 -1.265203 0.734797 -1 1 
C -0.734797 1.265203 -0.375054 1.414214 0 1.414214 
z
"/>
    </defs>
    <g clip-path="url(#p2337309818)">
     <use xlink:href="#mad998975db" x="79.498466" y="111.539195" style="fill: #d95f5f; fill-opacity: 0.72"/>
     <use xlink:href="#mad998975db" x="78.958141" y="111.816896" style="fill: #d95f5f; fill-opacity: 0.72"/>
     <use xlink:href="#mad998975db" x="80.577068" y="105.722552" style="fill: #d95f5f; fill-opacity: 0.72"/>
     <use xlink:href="#mad998975db" x="79.454814" y="108.962274" style="fill: #d95f5f; fill-opacity: 0.72"/>
     <use xlink:href="#mad998975db" x="78.112421" y="80.705594" style="fill: #d95f5f; fill-opacity: 0.72"/>
     <use xlink:href="#mad998975db" x="79.992751" y="104.69482" style="fill: #d95f5f; fill-opacity: 0.72"/>
     <use xlink:href="#mad998975db" x="81.967677" y="88.991107" style="fill: #d95f5f; fill-opacity: 0.72"/>
     <use xlink:href="#mad998975db" x="81.219709" y="33.671483" style="fill: #d95f5f; fill-opacity: 0.72"/>
     <use xlink:href="#mad998975db" x="77.760218" y="113.607339" style="fill: #d95f5f; fill-opacity: 0.72"/>
     <use xlink:href="#mad998975db" x="76.583135" y="104.642374" style="fill: #d95f5f; fill-opacity: 0.72"/>
     <use xlink:href="#mad998975db" x="77.928834" y="29.220401" style="fill: #d95f5f; fill-opacity: 0.72"/>
     <use xlink:href="#mad998975db" x="79.321587" y="107.596601" style="fill: #d95f5f; fill-opacity: 0.72"/>
     <use xlink:href="#mad998975db" x="74.362592" y="113.592935" style="fill: #d95f5f; fill-opacity: 0.72"/>
     <use xlink:href="#mad998975db" x="78.776478" y="111.098696" style="fill: #d95f5f; fill-opacity: 0.72"/>
     <use xlink:href="#mad998975db" x="76.624022" y="106.482045" style="fill: #d95f5f; fill-opacity: 0.72"/>
     <use xlink:href="#mad998975db" x="77.700426" y="70.164308" style="fill: #d95f5f; fill-opacity: 0.72"/>
     <use xlink:href="#mad998975db" x="78.094421" y="98.41359" style="fill: #d95f5f; fill-opacity: 0.72"/>
     <use xlink:href="#mad998975db" x="78.572137" y="91.573116" style="fill: #d95f5f; fill-opacity: 0.72"/>
     <use xlink:href="#mad998975db" x="80.097606" y="41.195233" style="fill: #d95f5f; fill-opacity: 0.72"/>
    </g>
   </g>
   <g id="PathCollection_2">
    <defs>
     <path id="mfb3c34d04f" d="M 0 1.414214 
C 0.375054 1.414214 0.734797 1.265203 1 1 
C 1.265203 0.734797 1.414214 0.375054 1.414214 0 
C 1.414214 -0.375054 1.265203 -0.734797 1 -1 
C 0.734797 -1.265203 0.375054 -1.414214 0 -1.414214 
C -0.375054 -1.414214 -0.734797 -1.265203 -1 -1 
C -1.265203 -0.734797 -1.414214 -0.375054 -1.414214 0 
C -1.414214 0.375054 -1.265203 0.734797 -1 1 
C -0.734797 1.265203 -0.375054 1.414214 0 1.414214 
z
"/>
    </defs>
    <g clip-path="url(#p2337309818)">
     <use xlink:href="#mfb3c34d04f" x="141.294683" y="98.015131" style="fill: #8c8c8c; fill-opacity: 0.72"/>
     <use xlink:href="#mfb3c34d04f" x="138.840607" y="102.059657" style="fill: #8c8c8c; fill-opacity: 0.72"/>
     <use xlink:href="#mfb3c34d04f" x="141.973561" y="102.417546" style="fill: #8c8c8c; fill-opacity: 0.72"/>
     <use xlink:href="#mfb3c34d04f" x="137.715969" y="102.633595" style="fill: #8c8c8c; fill-opacity: 0.72"/>
     <use xlink:href="#mfb3c34d04f" x="139.8466" y="97.837438" style="fill: #8c8c8c; fill-opacity: 0.72"/>
     <use xlink:href="#mfb3c34d04f" x="141.003301" y="98.388058" style="fill: #8c8c8c; fill-opacity: 0.72"/>
     <use xlink:href="#mfb3c34d04f" x="139.306981" y="100.327012" style="fill: #8c8c8c; fill-opacity: 0.72"/>
     <use xlink:href="#mfb3c34d04f" x="137.551872" y="101.557395" style="fill: #8c8c8c; fill-opacity: 0.72"/>
     <use xlink:href="#mfb3c34d04f" x="137.178377" y="104.405719" style="fill: #8c8c8c; fill-opacity: 0.72"/>
     <use xlink:href="#mfb3c34d04f" x="138.150746" y="101.948051" style="fill: #8c8c8c; fill-opacity: 0.72"/>
     <use xlink:href="#mfb3c34d04f" x="139.571413" y="52.125438" style="fill: #8c8c8c; fill-opacity: 0.72"/>
     <use xlink:href="#mfb3c34d04f" x="136.994186" y="96.841861" style="fill: #8c8c8c; fill-opacity: 0.72"/>
     <use xlink:href="#mfb3c34d04f" x="138.671613" y="98.701151" style="fill: #8c8c8c; fill-opacity: 0.72"/>
     <use xlink:href="#mfb3c34d04f" x="138.776291" y="101.13903" style="fill: #8c8c8c; fill-opacity: 0.72"/>
     <use xlink:href="#mfb3c34d04f" x="140.243376" y="85.15246" style="fill: #8c8c8c; fill-opacity: 0.72"/>
     <use xlink:href="#mfb3c34d04f" x="139.559812" y="91.021145" style="fill: #8c8c8c; fill-opacity: 0.72"/>
     <use xlink:href="#mfb3c34d04f" x="139.854695" y="94.850834" style="fill: #8c8c8c; fill-opacity: 0.72"/>
     <use xlink:href="#mfb3c34d04f" x="137.739788" y="83.740026" style="fill: #8c8c8c; fill-opacity: 0.72"/>
     <use xlink:href="#mfb3c34d04f" x="138.838345" y="13.216558" style="fill: #8c8c8c; fill-opacity: 0.72"/>
    </g>
   </g>
   <g id="PathCollection_3">
    <defs>
     <path id="me52b3d512d" d="M 0 1.414214 
C 0.375054 1.414214 0.734797 1.265203 1 1 
C 1.265203 0.734797 1.414214 0.375054 1.414214 0 
C 1.414214 -0.375054 1.265203 -0.734797 1 -1 
C 0.734797 -1.265203 0.375054 -1.414214 0 -1.414214 
C -0.375054 -1.414214 -0.734797 -1.265203 -1 -1 
C -1.265203 -0.734797 -1.414214 -0.375054 -1.414214 0 
C -1.414214 0.375054 -1.265203 0.734797 -1 1 
C -0.734797 1.265203 -0.375054 1.414214 0 1.414214 
z
"/>
    </defs>
    <g clip-path="url(#p2337309818)">
     <use xlink:href="#me52b3d512d" x="200.627869" y="128.210558" style="fill: #4daf7c; fill-opacity: 0.72"/>
     <use xlink:href="#me52b3d512d" x="202.114622" y="125.616807" style="fill: #4daf7c; fill-opacity: 0.72"/>
     <use xlink:href="#me52b3d512d" x="196.346422" y="125.429341" style="fill: #4daf7c; fill-opacity: 0.72"/>
     <use xlink:href="#me52b3d512d" x="202.157566" y="124.162681" style="fill: #4daf7c; fill-opacity: 0.72"/>
     <use xlink:href="#me52b3d512d" x="201.8054" y="125.897622" style="fill: #4daf7c; fill-opacity: 0.72"/>
     <use xlink:href="#me52b3d512d" x="200.622286" y="129.252439" style="fill: #4daf7c; fill-opacity: 0.72"/>
     <use xlink:href="#me52b3d512d" x="199.53915" y="128.10939" style="fill: #4daf7c; fill-opacity: 0.72"/>
     <use xlink:href="#me52b3d512d" x="198.327086" y="116.555672" style="fill: #4daf7c; fill-opacity: 0.72"/>
     <use xlink:href="#me52b3d512d" x="202.040414" y="128.933644" style="fill: #4daf7c; fill-opacity: 0.72"/>
     <use xlink:href="#me52b3d512d" x="203.092916" y="127.916658" style="fill: #4daf7c; fill-opacity: 0.72"/>
     <use xlink:href="#me52b3d512d" x="202.760501" y="128.894632" style="fill: #4daf7c; fill-opacity: 0.72"/>
     <use xlink:href="#me52b3d512d" x="201.740914" y="124.697478" style="fill: #4daf7c; fill-opacity: 0.72"/>
     <use xlink:href="#me52b3d512d" x="199.733886" y="127.189127" style="fill: #4daf7c; fill-opacity: 0.72"/>
     <use xlink:href="#me52b3d512d" x="196.452769" y="129.033098" style="fill: #4daf7c; fill-opacity: 0.72"/>
     <use xlink:href="#me52b3d512d" x="198.975617" y="128.615125" style="fill: #4daf7c; fill-opacity: 0.72"/>
     <use xlink:href="#me52b3d512d" x="200.360676" y="130.382005" style="fill: #4daf7c; fill-opacity: 0.72"/>
     <use xlink:href="#me52b3d512d" x="196.285029" y="133.547713" style="fill: #4daf7c; fill-opacity: 0.72"/>
     <use xlink:href="#me52b3d512d" x="199.812978" y="129.579364" style="fill: #4daf7c; fill-opacity: 0.72"/>
     <use xlink:href="#me52b3d512d" x="199.885784" y="129.404486" style="fill: #4daf7c; fill-opacity: 0.72"/>
    </g>
   </g>
  </g>
 </g>
 <defs>
  <clipPath id="p2337309818">
   <rect x="49.297491" y="7.2" width="179.624951" height="132.364271"/>
  </clipPath>
 </defs>
</svg>
