<?xml version="1.0" encoding="utf-8" standalone="no"?>
<!DOCTYPE svg PUBLIC "-//W3C//DTD SVG 1.1//EN"
  "http://www.w3.org/Graphics/SVG/1.1/DTD/svg11.dtd">
<svg xmlns:xlink="http://www.w3.org/1999/xlink" width="236.145847pt" height="183.144342pt" viewBox="0 0 236.145847 183.144342" xmlns="http://www.w3.org/2000/svg" version="1.1">
 <metadata>
  <rdf:RDF xmlns:dc="http://purl.org/dc/elements/1.1/" xmlns:cc="http://creativecommons.org/ns#" xmlns:rdf="http://www.w3.org/1999/02/22-rdf-syntax-ns#">
   <cc:Work>
    <dc:type rdf:resource="http://purl.org/dc/dcmitype/StillImage"/>
    <dc:date>2026-06-15T20:23:44.941375</dc:date>
    <dc:format>image/svg+xml</dc:format>
    <dc:creator>
     <cc:Agent>
      <dc:title>Matplotlib v3.10.8, https://matplotlib.org/</dc:title>
     </cc:Agent>
    </dc:creator>
   </cc:Work>
  </rdf:RDF>
 </metadata>
 <defs>
  <style type="text/css">*{stroke-linejoin: round; stroke-linecap: butt}</style>
 </defs>
 <g id="figure_1">
  <g id="patch_1">
   <path d="M 0 183.144342 
L 236.145847 183.144342 
L 236.145847 0 
L 0 0 
z
" style="fill: #ffffff"/>
  </g>
  <g id="axes_1">
   <g id="patch_2">
    <path d="M 51.926061 139.564271 
L 228.945847 139.564271 
L 228.945847 7.2 
L 51.926061 7.2 
z
" style="fill: #ffffff"/>
   </g>
   <g id="matplotlib.axis_1">
    <g id="xtick_1">
     <g id="line2d_1">
      <defs>
       <path id="m007222d5fe" d="M 0 0 
L 0 3 
" style="stroke: #222222; stroke-width: 0.8"/>
      </defs>
      <g>
       <use xlink:href="#m007222d5fe" x="96.181008" y="139.564271" style="fill: #222222; stroke: #222222; stroke-width: 0.8"/>
      </g>
     </g>
     <g id="text_1">
      <text style="font-size: 7px; font-family: 'Arial', 'Helvetica', 'DejaVu Sans', sans-serif; fill: #222222" transform="translate(44.654919 174.624956) rotate(-25)">Moving average</text>
     </g>
    </g>
    <g id="xtick_2">
     <g id="line2d_2">
      <g>
       <use xlink:href="#m007222d5fe" x="184.6909" y="139.564271" style="fill: #222222; stroke: #222222; stroke-width: 0.8"/>
      </g>
     </g>
     <g id="text_2">
      <text style="font-size: 7px; font-family: 'Arial', 'Helvetica', 'DejaVu Sans', sans-serif; fill: #222222" transform="translate(154.887594 164.495456) rotate(-25)">Geodesic</text>
     </g>
    </g>
   </g>
   <g id="matplotlib.axis_2">
    <g id="ytick_1">
     <g id="line2d_3">
      <defs>
       <path id="m8232377f26" d="M 0 0 
L -3 0 
" style="stroke: #222222; stroke-width: 0.8"/>
      </defs>
      <g>
       <use xlink:href="#m8232377f26" x="51.926061" y="123.156643" style="fill: #222222; stroke: #222222; stroke-width: 0.8"/>
      </g>
     </g>
     <g id="text_3">
      <text style="font-size: 7px; font-family: 'Arial', 'Helvetica', 'DejaVu Sans', sans-serif; text-anchor: end; fill: #222222" x="45.426061" y="125.816096" transform="rotate(-0 45.426061 125.816096)">2</text>
     </g>
    </g>
    <g id="ytick_2">
     <g id="line2d_4">
      <g>
       <use xlink:href="#m8232377f26" x="51.926061" y="98.007231" style="fill: #222222; stroke: #222222; stroke-width: 0.8"/>
      </g>
     </g>
     <g id="text_4">
      <text style="font-size: 7px; font-family: 'Arial', 'Helvetica', 'DejaVu Sans', sans-serif; text-anchor: end; fill: #222222" x="45.426061" y="100.666684" transform="rotate(-0 45.426061 100.666684)">3</text>
     </g>
    </g>
    <g id="ytick_3">
     <g id="line2d_5">
      <g>
       <use xlink:href="#m8232377f26" x="51.926061" y="72.857819" style="fill: #222222; stroke: #222222; stroke-width: 0.8"/>
      </g>
     </g>
     <g id="text_5">
      <text style="font-size: 7px; font-family: 'Arial', 'Helvetica', 'DejaVu Sans', sans-serif; text-anchor: end; fill: #222222" x="45.426061" y="75.517272" transform="rotate(-0 45.426061 75.517272)">4</text>
     </g>
    </g>
    <g id="ytick_4">
     <g id="line2d_6">
      <g>
       <use xlink:href="#m8232377f26" x="51.926061" y="47.708407" style="fill: #222222; stroke: #222222; stroke-width: 0.8"/>
      </g>
     </g>
     <g id="text_6">
      <text style="font-size: 7px; font-family: 'Arial', 'Helvetica', 'DejaVu Sans', sans-serif; text-anchor: end; fill: #222222" x="45.426061" y="50.36786" transform="rotate(-0 45.426061 50.36786)">5</text>
     </g>
    </g>
    <g id="ytick_5">
     <g id="line2d_7">
      <g>
       <use xlink:href="#m8232377f26" x="51.926061" y="22.558995" style="fill: #222222; stroke: #222222; stroke-width: 0.8"/>
      </g>
     </g>
     <g id="text_7">
      <text style="font-size: 7px; font-family: 'Arial', 'Helvetica', 'DejaVu Sans', sans-serif; text-anchor: end; fill: #222222" x="45.426061" y="25.218448" transform="rotate(-0 45.426061 25.218448)">6</text>
     </g>
    </g>
    <g id="text_8">
     <!-- $\bar{d}$ -->
     <g transform="translate(17.28 58.999432)">
      <text>
       <tspan x="0.646301" y="-2.8125" style="font-size: 10.5px; font-family: 'cmr10'">¹</tspan>
       <tspan x="0" y="-0.046875" style="font-size: 10.5px; font-family: 'cmmi10'">d</tspan>
      </text>
     </g>
     <!-- $(\mathrm{mm})$ -->
     <g transform="translate(7.2 70.757136)">
      <text>
       <tspan x="0" y="-0.125" style="font-size: 10.5px; font-family: 'cmr10'">(</tspan>
       <tspan x="4.075928" y="-0.125" style="font-size: 10.5px; font-family: 'cmr10'">m</tspan>
       <tspan x="12.82251" y="-0.125" style="font-size: 10.5px; font-family: 'cmr10'">m</tspan>
       <tspan x="21.569092" y="-0.125" style="font-size: 10.5px; font-family: 'cmr10'">)</tspan>
      </text>
     </g>
    </g>
   </g>
   <g id="patch_3">
    <path d="M 73.168436 64.075295 
L 119.19358 64.075295 
L 119.19358 57.485314 
L 73.168436 57.485314 
L 73.168436 64.075295 
z
" clip-path="url(#pe5a773a481)" style="fill: #8c8c8c; opacity: 0.45; stroke: #222222; stroke-width: 0.8; stroke-linejoin: miter"/>
   </g>
   <g id="line2d_8">
    <path d="M 96.181008 64.075295 
L 96.181008 73.955994 
" clip-path="url(#pe5a773a481)" style="fill: none; stroke: #222222; stroke-width: 0.8; stroke-linecap: square"/>
   </g>
   <g id="line2d_9">
    <path d="M 96.181008 57.485314 
L 96.181008 57.480975 
" clip-path="url(#pe5a773a481)" style="fill: none; stroke: #222222; stroke-width: 0.8; stroke-linecap: square"/>
   </g>
   <g id="line2d_10">
    <path d="M 84.674722 73.955994 
L 107.687294 73.955994 
" clip-path="url(#pe5a773a481)" style="fill: none; stroke: #222222; stroke-width: 0.8; stroke-linecap: square"/>
   </g>
   <g id="line2d_11">
    <path d="M 84.674722 57.480975 
L 107.687294 57.480975 
" clip-path="url(#pe5a773a481)" style="fill: none; stroke: #222222; stroke-width: 0.8; stroke-linecap: square"/>
   </g>
   <g id="line2d_12">
    <defs>
     <path id="m20de945f78" d="M 0 1.3 
C 0.344764 1.3 0.675454 1.163024 0.919239 0.919239 
C 1.163024 0.675454 1.3 0.344764 1.3 0 
C 1.3 -0.344764 1.163024 -0.675454 0.919239 -0.919239 
C 0.675454 -1.163024 0.344764 -1.3 0 -1.3 
C -0.344764 -1.3 -0.675454 -1.163024 -0.919239 -0.919239 
C -1.163024 -0.675454 -1.3 -0.344764 -1.3 0 
C -1.3 0.344764 -1.163024 0.675454 -0.919239 0.919239 
C -0.675454 1.163024 -0.344764 1.3 0 1.3 
z
" style="stroke: #222222"/>
    </defs>
    <g clip-path="url(#pe5a773a481)">
     <use xlink:href="#m20de945f78" x="96.181008" y="45.535187" style="fill: #ffffff; stroke: #222222"/>
     <use xlink:href="#m20de945f78" x="96.181008" y="47.240963" style="fill: #ffffff; stroke: #222222"/>
     <use xlink:href="#m20de945f78" x="96.181008" y="36.43957" style="fill: #ffffff; stroke: #222222"/>
     <use xlink:href="#m20de945f78" x="96.181008" y="13.216558" style="fill: #ffffff; stroke: #222222"/>
    </g>
   </g>
   <g id="patch_4">
    <path d="M 161.678328 129.574869 
L 207.703472 129.574869 
L 207.703472 125.090435 
L 161.678328 125.090435 
L 161.678328 129.574869 
z
" clip-path="url(#pe5a773a481)" style="fill: #4daf7c; opacity: 0.45; stroke: #222222; stroke-width: 0.8; stroke-linejoin: miter"/>
   </g>
   <g id="line2d_13">
    <path d="M 184.6909 129.574869 
L 184.6909 133.547713 
" clip-path="url(#pe5a773a481)" style="fill: none; stroke: #222222; stroke-width: 0.8; stroke-linecap: square"/>
   </g>
   <g id="line2d_14">
    <path d="M 184.6909 125.090435 
L 184.6909 120.701079 
" clip-path="url(#pe5a773a481)" style="fill: none; stroke: #222222; stroke-width: 0.8; stroke-linecap: square"/>
   </g>
   <g id="line2d_15">
    <path d="M 173.184614 133.547713 
L 196.197186 133.547713 
" clip-path="url(#pe5a773a481)" style="fill: none; stroke: #222222; stroke-width: 0.8; stroke-linecap: square"/>
   </g>
   <g id="line2d_16">
    <path d="M 173.184614 120.701079 
L 196.197186 120.701079 
" clip-path="url(#pe5a773a481)" style="fill: none; stroke: #222222; stroke-width: 0.8; stroke-linecap: square"/>
   </g>
   <g id="line2d_17">
    <g clip-path="url(#pe5a773a481)">
     <use xlink:href="#m20de945f78" x="184.6909" y="117.081626" style="fill: #ffffff; stroke: #222222"/>
    </g>
   </g>
   <g id="line2d_18">
    <path d="M 73.168436 62.335618 
L 119.19358 62.335618 
" clip-path="url(#pe5a773a481)" style="fill: none; stroke: #222222"/>
   </g>
   <g id="line2d_19">
    <path d="M 161.678328 126.481143 
L 207.703472 126.481143 
" clip-path="url(#pe5a773a481)" style="fill: none; stroke: #222222"/>
   </g>
   <g id="patch_5">
    <path d="M 51.926061 139.564271 
L 51.926061 7.2 
" style="fill: none; stroke: #222222; stroke-width: 0.8; stroke-linejoin: miter; stroke-linecap: square"/>
   </g>
   <g id="patch_6">
    <path d="M 51.926061 139.564271 
L 228.945847 139.564271 
" style="fill: none; stroke: #222222; stroke-width: 0.8; stroke-linejoin: miter; stroke-linecap: square"/>
   </g>
   <g id="PathCollection_1">
    <defs>
     <path id="m413efd8712" d="M 0 1.414214 
C 0.375054 1.414214 0.734797 1.265203 1 1 
C 1.265203 0.734797 1.414214 0.375054 1.414214 0 
C 1.414214 -0.375054 1.265203 -0.734797 1 -1 
C 0.734797 -1.265203 0.375054 -1.414214 0 -1.414214 
C -0.375054 -1.414214 -0.734797 -1.265203 -1 -1 
C -1.265203 -0.734797 -1.414214 -0.375054 -1.414214 0 
C -1.414214 0.375054 -1.265203 0.734797 -1 1 
C -0.734797 1.265203 -0.375054 1.414214 0 1.414214 
z
"/>
    </defs>
    <g clip-path="url(#pe5a773a481)">
     <use xlink:href="#m413efd8712" x="96.570501" y="73.955994" style="fill: #8c8c8c; fill-opacity: 0.72"/>
     <use xlink:href="#m413efd8712" x="95.771767" y="62.054573" style="fill: #8c8c8c; fill-opacity: 0.72"/>
     <use xlink:href="#m413efd8712" x="98.164939" y="64.091469" style="fill: #8c8c8c; fill-opacity: 0.72"/>
     <use xlink:href="#m413efd8712" x="96.505972" y="65.986795" style="fill: #8c8c8c; fill-opacity: 0.72"/>
     <use xlink:href="#m413efd8712" x="94.521586" y="61.492573" style="fill: #8c8c8c; fill-opacity: 0.72"/>
     <use xlink:href="#m413efd8712" x="97.301174" y="63.744188" style="fill: #8c8c8c; fill-opacity: 0.72"/>
     <use xlink:href="#m413efd8712" x="100.220599" y="45.535187" style="fill: #8c8c8c; fill-opacity: 0.72"/>
     <use xlink:href="#m413efd8712" x="99.114919" y="47.240963" style="fill: #8c8c8c; fill-opacity: 0.72"/>
     <use xlink:href="#m413efd8712" x="94.000944" y="63.341141" style="fill: #8c8c8c; fill-opacity: 0.72"/>
     <use xlink:href="#m413efd8712" x="92.260927" y="63.081415" style="fill: #8c8c8c; fill-opacity: 0.72"/>
     <use xlink:href="#m413efd8712" x="94.250199" y="64.059121" style="fill: #8c8c8c; fill-opacity: 0.72"/>
     <use xlink:href="#m413efd8712" x="96.309029" y="62.335618" style="fill: #8c8c8c; fill-opacity: 0.72"/>
     <use xlink:href="#m413efd8712" x="88.97842" y="36.43957" style="fill: #8c8c8c; fill-opacity: 0.72"/>
     <use xlink:href="#m413efd8712" x="95.503225" y="57.480975" style="fill: #8c8c8c; fill-opacity: 0.72"/>
     <use xlink:href="#m413efd8712" x="92.321367" y="69.083305" style="fill: #8c8c8c; fill-opacity: 0.72"/>
     <use xlink:href="#m413efd8712" x="93.912556" y="13.216558" style="fill: #8c8c8c; fill-opacity: 0.72"/>
     <use xlink:href="#m413efd8712" x="94.494977" y="65.252333" style="fill: #8c8c8c; fill-opacity: 0.72"/>
     <use xlink:href="#m413efd8712" x="95.201158" y="58.487627" style="fill: #8c8c8c; fill-opacity: 0.72"/>
     <use xlink:href="#m413efd8712" x="97.456176" y="57.489653" style="fill: #8c8c8c; fill-opacity: 0.72"/>
    </g>
   </g>
   <g id="PathCollection_2">
    <defs>
     <path id="mf2899d6381" d="M 0 1.414214 
C 0.375054 1.414214 0.734797 1.265203 1 1 
C 1.265203 0.734797 1.414214 0.375054 1.414214 0 
C 1.414214 -0.375054 1.265203 -0.734797 1 -1 
C 0.734797 -1.265203 0.375054 -1.414214 0 -1.414214 
C -0.375054 -1.414214 -0.734797 -1.265203 -1 -1 
C -1.265203 -0.734797 -1.414214 -0.375054 -1.414214 0 
C -1.414214 0.375054 -1.265203 0.734797 -1 1 
C -0.734797 1.265203 -0.375054 1.414214 0 1.414214 
z
"/>
    </defs>
    <g clip-path="url(#pe5a773a481)">
     <use xlink:href="#mf2899d6381" x="187.920447" y="129.92574" style="fill: #4daf7c; fill-opacity: 0.72"/>
     <use xlink:href="#mf2899d6381" x="184.29272" y="125.794711" style="fill: #4daf7c; fill-opacity: 0.72"/>
     <use xlink:href="#mf2899d6381" x="188.923994" y="129.265007" style="fill: #4daf7c; fill-opacity: 0.72"/>
     <use xlink:href="#mf2899d6381" x="182.63023" y="120.701079" style="fill: #4daf7c; fill-opacity: 0.72"/>
     <use xlink:href="#mf2899d6381" x="185.779825" y="121.474365" style="fill: #4daf7c; fill-opacity: 0.72"/>
     <use xlink:href="#mf2899d6381" x="187.489712" y="126.481143" style="fill: #4daf7c; fill-opacity: 0.72"/>
     <use xlink:href="#mf2899d6381" x="184.982136" y="125.18245" style="fill: #4daf7c; fill-opacity: 0.72"/>
     <use xlink:href="#mf2899d6381" x="182.387654" y="126.924311" style="fill: #4daf7c; fill-opacity: 0.72"/>
     <use xlink:href="#mf2899d6381" x="181.835537" y="124.99842" style="fill: #4daf7c; fill-opacity: 0.72"/>
     <use xlink:href="#mf2899d6381" x="183.272936" y="125.818812" style="fill: #4daf7c; fill-opacity: 0.72"/>
     <use xlink:href="#mf2899d6381" x="185.373031" y="117.081626" style="fill: #4daf7c; fill-opacity: 0.72"/>
     <use xlink:href="#mf2899d6381" x="181.563258" y="127.636843" style="fill: #4daf7c; fill-opacity: 0.72"/>
     <use xlink:href="#mf2899d6381" x="184.042907" y="133.547713" style="fill: #4daf7c; fill-opacity: 0.72"/>
     <use xlink:href="#mf2899d6381" x="184.197646" y="124.311464" style="fill: #4daf7c; fill-opacity: 0.72"/>
     <use xlink:href="#mf2899d6381" x="186.366357" y="126.433048" style="fill: #4daf7c; fill-opacity: 0.72"/>
     <use xlink:href="#mf2899d6381" x="185.355881" y="127.442284" style="fill: #4daf7c; fill-opacity: 0.72"/>
     <use xlink:href="#mf2899d6381" x="185.79179" y="129.88473" style="fill: #4daf7c; fill-opacity: 0.72"/>
     <use xlink:href="#mf2899d6381" x="182.66544" y="131.858918" style="fill: #4daf7c; fill-opacity: 0.72"/>
     <use xlink:href="#mf2899d6381" x="184.289377" y="131.508846" style="fill: #4daf7c; fill-opacity: 0.72"/>
    </g>
   </g>
  </g>
 </g>
 <defs>
  <clipPath id="pe5a773a481">
   <rect x="51.926061" y="7.2" width="177.019785" height="132.364271"/>
  </clipPath>
 </defs>
</svg>
