<?xml version="1.0" encoding="utf-8" standalone="no"?>
<!DOCTYPE svg PUBLIC "-//W3C//DTD SVG 1.1//EN"
  "http://www.w3.org/Graphics/SVG/1.1/DTD/svg11.dtd">
<svg xmlns:xlink="http://www.w3.org/1999/xlink" width="420.861956pt" height="169.200156pt" viewBox="0 0 420.861956 169.200156" xmlns="http://www.w3.org/2000/svg" version="1.1">
 <metadata>
  <rdf:RDF xmlns:dc="http://purl.org/dc/elements/1.1/" xmlns:cc="http://creativecommons.org/ns#" xmlns:rdf="http://www.w3.org/1999/02/22-rdf-syntax-ns#">
   <cc:Work>
    <dc:type rdf:resource="http://purl.org/dc/dcmitype/StillImage"/>
    <dc:date>2026-06-23T12:37:46.494732</dc:date>
    <dc:format>image/svg+xml</dc:format>
    <dc:creator>
     <cc:Agent>
      <dc:title>Matplotlib v3.11.0, https://matplotlib.org/</dc:title>
     </cc:Agent>
    </dc:creator>
   </cc:Work>
  </rdf:RDF>
 </metadata>
 <defs>
  <style type="text/css">*{stroke-linejoin: round; stroke-linecap: butt}</style>
 </defs>
 <g id="figure_1">
  <g id="patch_1">
   <path d="M 0 169.200156 
L 420.861956 169.200156 
L 420.861956 0 
L 0 0 
z
" style="fill: #ffffff"/>
  </g>
  <g id="axes_1">
   <g id="patch_2">
    <path d="M 55.957356 137.422852 
L 408.796956 137.422852 
L 408.796956 7.2 
L 55.957356 7.2 
z
" style="fill: #ffffff"/>
   </g>
   <g id="matplotlib.axis_1">
    <g id="xtick_1">
     <g id="line2d_1">
      <defs>
       <path id="m7fd49fdb3a" d="M 0 0 
L 0 3 
" style="stroke: #222222; stroke-width: 0.8"/>
      </defs>
      <g>
       <use xlink:href="#m7fd49fdb3a" x="55.957356" y="137.422852" style="fill: #222222; stroke: #222222; stroke-width: 0.8"/>
      </g>
     </g>
     <g id="text_1">
      <text style="font-size: 7px; font-family: 'Arial', 'Helvetica', 'DejaVu Sans', sans-serif; text-anchor: middle; fill: #222222" x="55.957356" y="149.019043" transform="rotate(-0 55.957356 149.019043)">0.0</text>
     </g>
    </g>
    <g id="xtick_2">
     <g id="line2d_2">
      <g>
       <use xlink:href="#m7fd49fdb3a" x="126.525276" y="137.422852" style="fill: #222222; stroke: #222222; stroke-width: 0.8"/>
      </g>
     </g>
     <g id="text_2">
      <text style="font-size: 7px; font-family: 'Arial', 'Helvetica', 'DejaVu Sans', sans-serif; text-anchor: middle; fill: #222222" x="126.525276" y="149.019043" transform="rotate(-0 126.525276 149.019043)">0.2</text>
     </g>
    </g>
    <g id="xtick_3">
     <g id="line2d_3">
      <g>
       <use xlink:href="#m7fd49fdb3a" x="197.093196" y="137.422852" style="fill: #222222; stroke: #222222; stroke-width: 0.8"/>
      </g>
     </g>
     <g id="text_3">
      <text style="font-size: 7px; font-family: 'Arial', 'Helvetica', 'DejaVu Sans', sans-serif; text-anchor: middle; fill: #222222" x="197.093196" y="149.019043" transform="rotate(-0 197.093196 149.019043)">0.4</text>
     </g>
    </g>
    <g id="xtick_4">
     <g id="line2d_4">
      <g>
       <use xlink:href="#m7fd49fdb3a" x="267.661116" y="137.422852" style="fill: #222222; stroke: #222222; stroke-width: 0.8"/>
      </g>
     </g>
     <g id="text_4">
      <text style="font-size: 7px; font-family: 'Arial', 'Helvetica', 'DejaVu Sans', sans-serif; text-anchor: middle; fill: #222222" x="267.661116" y="149.019043" transform="rotate(-0 267.661116 149.019043)">0.6</text>
     </g>
    </g>
    <g id="xtick_5">
     <g id="line2d_5">
      <g>
       <use xlink:href="#m7fd49fdb3a" x="338.229036" y="137.422852" style="fill: #222222; stroke: #222222; stroke-width: 0.8"/>
      </g>
     </g>
     <g id="text_5">
      <text style="font-size: 7px; font-family: 'Arial', 'Helvetica', 'DejaVu Sans', sans-serif; text-anchor: middle; fill: #222222" x="338.229036" y="149.019043" transform="rotate(-0 338.229036 149.019043)">0.8</text>
     </g>
    </g>
    <g id="xtick_6">
     <g id="line2d_6">
      <g>
       <use xlink:href="#m7fd49fdb3a" x="408.796956" y="137.422852" style="fill: #222222; stroke: #222222; stroke-width: 0.8"/>
      </g>
     </g>
     <g id="text_6">
      <text style="font-size: 7px; font-family: 'Arial', 'Helvetica', 'DejaVu Sans', sans-serif; text-anchor: middle; fill: #222222" x="408.796956" y="149.019043" transform="rotate(-0 408.796956 149.019043)">1.0</text>
     </g>
    </g>
    <g id="text_7">
     <text style="font-size: 8px; font-family: 'Arial', 'Helvetica', 'DejaVu Sans', sans-serif; text-anchor: middle" x="232.377156" y="160.316406" transform="rotate(-0 232.377156 160.316406)">Normalized arc length</text>
    </g>
   </g>
   <g id="matplotlib.axis_2">
    <g id="ytick_1">
     <g id="line2d_7">
      <defs>
       <path id="mdbc5f4a2ef" d="M 0 0 
L -3 0 
" style="stroke: #222222; stroke-width: 0.8"/>
      </defs>
      <g>
       <use xlink:href="#mdbc5f4a2ef" x="55.957356" y="131.508821" style="fill: #222222; stroke: #222222; stroke-width: 0.8"/>
      </g>
     </g>
     <g id="text_8">
      <text style="font-size: 7px; font-family: 'Arial', 'Helvetica', 'DejaVu Sans', sans-serif; text-anchor: end; fill: #222222" x="49.457356" y="134.056917" transform="rotate(-0 49.457356 134.056917)">0</text>
     </g>
    </g>
    <g id="ytick_2">
     <g id="line2d_8">
      <g>
       <use xlink:href="#mdbc5f4a2ef" x="55.957356" y="104.898741" style="fill: #222222; stroke: #222222; stroke-width: 0.8"/>
      </g>
     </g>
     <g id="text_9">
      <text style="font-size: 7px; font-family: 'Arial', 'Helvetica', 'DejaVu Sans', sans-serif; text-anchor: end; fill: #222222" x="49.457356" y="107.446837" transform="rotate(-0 49.457356 107.446837)">100</text>
     </g>
    </g>
    <g id="ytick_3">
     <g id="line2d_9">
      <g>
       <use xlink:href="#mdbc5f4a2ef" x="55.957356" y="78.288661" style="fill: #222222; stroke: #222222; stroke-width: 0.8"/>
      </g>
     </g>
     <g id="text_10">
      <text style="font-size: 7px; font-family: 'Arial', 'Helvetica', 'DejaVu Sans', sans-serif; text-anchor: end; fill: #222222" x="49.457356" y="80.836757" transform="rotate(-0 49.457356 80.836757)">200</text>
     </g>
    </g>
    <g id="ytick_4">
     <g id="line2d_10">
      <g>
       <use xlink:href="#mdbc5f4a2ef" x="55.957356" y="51.678581" style="fill: #222222; stroke: #222222; stroke-width: 0.8"/>
      </g>
     </g>
     <g id="text_11">
      <text style="font-size: 7px; font-family: 'Arial', 'Helvetica', 'DejaVu Sans', sans-serif; text-anchor: end; fill: #222222" x="49.457356" y="54.226677" transform="rotate(-0 49.457356 54.226677)">300</text>
     </g>
    </g>
    <g id="ytick_5">
     <g id="line2d_11">
      <g>
       <use xlink:href="#mdbc5f4a2ef" x="55.957356" y="25.068501" style="fill: #222222; stroke: #222222; stroke-width: 0.8"/>
      </g>
     </g>
     <g id="text_12">
      <text style="font-size: 7px; font-family: 'Arial', 'Helvetica', 'DejaVu Sans', sans-serif; text-anchor: end; fill: #222222" x="49.457356" y="27.616597" transform="rotate(-0 49.457356 27.616597)">400</text>
     </g>
    </g>
    <g id="text_13">
     <!-- $|\kappa_g|$ -->
     <g transform="translate(7.2 68.411426)">
      <text>
       <tspan x="0" y="-0.25" style="font-size: 13px; font-family: 'cmsy10'">j</tspan>
       <tspan x="16.174172" y="-0.25" style="font-size: 13px; font-family: 'cmsy10'">j</tspan>
       <tspan x="3.599121" y="-0.25" style="font-size: 13px; font-family: 'cmmi10'">∙</tspan>
       <tspan x="11.089355" y="1.699995" style="font-size: 9.1px; font-family: 'cmmi10'">g</tspan>
      </text>
     </g>
    </g>
   </g>
   <g id="line2d_12">
    <path d="M 62.916868 128.524558 
L 69.986801 123.212659 
L 75.834046 127.231451 
L 81.213125 129.114878 
L 87.585252 112.126436 
L 92.650163 122.782475 
L 98.415674 131.497547 
L 104.2115 127.43421 
L 109.421417 127.011656 
L 116.412698 78.986332 
L 130.585127 86.937061 
L 137.854194 131.058394 
L 143.0075 127.47086 
L 149.38427 125.601933 
L 155.054069 129.931564 
L 160.26973 126.463857 
L 166.95384 124.666288 
L 172.209217 128.901216 
L 178.775102 126.826413 
L 185.729642 126.217989 
L 193.559764 78.744282 
L 207.182101 79.230256 
L 215.2498 126.712266 
L 221.904591 130.971651 
L 228.280864 130.610807 
L 233.520047 128.241465 
L 240.026353 127.138418 
L 245.211752 126.150009 
L 251.50687 125.965451 
L 257.193906 131.189526 
L 263.32953 130.278581 
L 269.050004 85.758683 
L 282.393507 81.354799 
L 288.136785 130.026666 
L 295.323036 119.032133 
L 300.331968 125.064192 
L 305.721084 131.503631 
L 311.109479 123.964577 
L 317.619023 128.131367 
L 322.906224 129.807337 
L 329.504929 129.66994 
L 335.309625 130.724555 
L 342.420263 91.280501 
L 357.483821 83.172085 
L 365.005609 130.001444 
L 372.043574 129.270941 
L 378.701837 123.300054 
L 385.141436 127.480624 
L 390.975392 122.878042 
L 396.792602 126.391644 
L 402.920027 126.152002 
" clip-path="url(#peb0b58e492)" style="fill: none; stroke: #c73e3a; stroke-width: 1.55; stroke-linecap: square"/>
   </g>
   <g id="line2d_13">
    <path d="M 71.001172 130.142594 
L 75.074751 131.130573 
L 83.628108 129.703402 
L 90.892577 130.007801 
L 98.813551 128.493531 
L 106.56027 129.388124 
L 114.140271 127.48835 
L 120.97698 123.529553 
L 126.578032 110.306481 
L 130.805936 71.123827 
L 134.792192 76.179953 
L 139.210778 110.673489 
L 145.018261 122.921895 
L 152.076238 126.140373 
L 159.880676 127.268018 
L 167.995077 130.684119 
L 176.266851 129.684855 
L 184.446875 128.675324 
L 191.915104 124.60615 
L 198.058738 113.600479 
L 202.455027 65.523511 
L 206.165306 67.454002 
L 210.604811 113.1907 
L 216.767311 124.276616 
L 224.232507 127.441331 
L 232.371444 128.597513 
L 240.655191 131.248356 
L 248.762362 128.188713 
L 256.53708 126.669211 
L 263.476684 122.854723 
L 269.074949 106.847597 
L 273.197322 71.357998 
L 276.979446 71.691753 
L 281.267458 110.878303 
L 287.05106 125.233518 
L 293.98986 128.036491 
L 301.645485 129.516438 
L 309.520311 129.915799 
L 317.585075 126.504799 
L 325.450631 126.103158 
L 332.622627 122.227947 
L 338.473172 107.37284 
L 342.856307 72.314244 
L 347.052246 81.390584 
L 352.016644 115.653128 
L 358.623979 126.483409 
L 366.480087 129.375712 
L 375.0036 129.111022 
L 382.693566 128.796617 
L 391.113268 131.286464 
L 395.12389 129.598444 
" clip-path="url(#peb0b58e492)" style="fill: none; stroke: #6c6c6c; stroke-width: 1.35; stroke-linecap: square"/>
   </g>
   <g id="line2d_14">
    <path d="M 65.557095 121.731572 
L 73.808081 124.270905 
L 80.925983 127.993494 
L 87.922327 130.135846 
L 96.441657 130.839508 
L 102.995487 128.266845 
L 109.755801 124.235476 
L 115.518403 120.687839 
L 119.892701 116.965189 
L 124.742584 102.504392 
L 132.071526 92.959518 
L 136.399275 110.428737 
L 140.429795 121.038917 
L 146.901146 127.445573 
L 153.845684 129.925121 
L 160.862303 131.149451 
L 170.150853 131.014392 
L 177.231362 129.664813 
L 185.22343 126.46984 
L 192.099831 119.233735 
L 197.873936 99.685815 
L 205.250991 84.101549 
L 210.929294 114.177136 
L 217.833754 127.708874 
L 225.901517 131.220135 
L 232.863034 128.496922 
L 241.326041 128.862447 
L 247.865239 129.095774 
L 255.397249 128.97383 
L 261.589383 128.167188 
L 267.300071 124.781805 
L 271.426485 84.649432 
L 276.138244 13.119221 
L 279.85164 122.403244 
L 286.95047 129.196789 
L 293.054005 130.884367 
L 300.22622 131.443083 
L 307.63571 131.173119 
L 316.454782 130.229626 
L 323.3399 129.439765 
L 331.306474 128.070253 
L 337.29066 120.677446 
L 342.646672 70.805798 
L 350.483711 100.782025 
L 356.89544 121.684447 
L 364.18287 125.259971 
L 372.017452 128.884355 
L 380.153533 131.378537 
L 387.587555 128.928447 
L 394.730774 125.074212 
L 401.872333 121.832645 
" clip-path="url(#peb0b58e492)" style="fill: none; stroke: #4c78a8; stroke-width: 1.35; stroke-linecap: square"/>
   </g>
   <g id="line2d_15">
    <path d="M 62.814374 129.474476 
L 68.612513 128.803634 
L 76.55951 128.028572 
L 80.83936 130.093973 
L 87.339019 129.692351 
L 91.704151 130.608806 
L 97.384753 129.476654 
L 100.742119 126.280208 
L 112.867825 113.383046 
L 115.610108 107.525752 
L 130.50696 105.477248 
L 132.980467 119.599624 
L 143.176411 126.126344 
L 149.090521 125.891356 
L 154.676821 127.977437 
L 157.840929 131.24647 
L 165.421541 126.367263 
L 171.584509 122.1781 
L 174.760184 130.369971 
L 189.87161 111.058898 
L 193.806357 112.643983 
L 207.228077 107.976221 
L 209.831468 114.886021 
L 224.379086 128.576536 
L 228.588972 129.935387 
L 233.750997 130.024365 
L 241.141162 130.537841 
L 245.256918 127.761805 
L 251.459328 128.433425 
L 254.116207 129.593555 
L 266.337254 114.468449 
L 269.592514 110.321079 
L 286.905163 100.766681 
L 289.437614 130.609461 
L 297.478748 126.96864 
L 303.968392 125.793081 
L 309.278142 131.503631 
L 314.587182 127.034581 
L 319.732961 128.213983 
L 326.210888 129.997542 
L 332.712414 130.928436 
L 341.668922 118.231461 
L 344.796305 103.143251 
L 359.196451 102.594978 
L 362.446468 121.11513 
L 372.948678 128.717799 
L 380.071019 123.256706 
L 387.61727 123.395529 
L 391.269211 129.285293 
L 397.000751 130.856097 
L 401.718507 128.121008 
" clip-path="url(#peb0b58e492)" style="fill: none; stroke: #4daf7c; stroke-width: 1.75; stroke-linecap: square"/>
   </g>
   <g id="patch_3">
    <path d="M 55.957356 137.422852 
L 55.957356 7.2 
" style="fill: none; stroke: #222222; stroke-width: 0.8; stroke-linejoin: miter; stroke-linecap: square"/>
   </g>
   <g id="patch_4">
    <path d="M 55.957356 137.422852 
L 408.796956 137.422852 
" style="fill: none; stroke: #222222; stroke-width: 0.8; stroke-linejoin: miter; stroke-linecap: square"/>
   </g>
   <g id="legend_1">
    <g id="patch_5">
     <path d="M 335.663362 39.972559 
L 405.296956 39.972559 
Q 406.296956 39.972559 406.296956 38.972559 
L 406.296956 10.7 
Q 406.296956 9.7 405.296956 9.7 
L 335.663362 9.7 
Q 334.663362 9.7 334.663362 10.7 
L 334.663362 38.972559 
Q 334.663362 39.972559 335.663362 39.972559 
z
" style="fill: #ffffff; opacity: 0.8; stroke: #cccccc; stroke-linejoin: miter"/>
    </g>
    <g id="line2d_16">
     <path d="M 336.663362 13.592969 
L 341.663362 13.592969 
L 346.663362 13.592969 
" style="fill: none; stroke: #c73e3a; stroke-width: 1.55; stroke-linecap: square"/>
    </g>
    <g id="text_14">
     <text style="font-size: 5px; font-family: 'Arial', 'Helvetica', 'DejaVu Sans', sans-serif; text-anchor: start" x="350.663362" y="15.342969" transform="rotate(-0 350.663362 15.342969)">Original</text>
    </g>
    <g id="line2d_17">
     <path d="M 336.663362 20.785449 
L 341.663362 20.785449 
L 346.663362 20.785449 
" style="fill: none; stroke: #6c6c6c; stroke-width: 1.35; stroke-linecap: square"/>
    </g>
    <g id="text_15">
     <text style="font-size: 5px; font-family: 'Arial', 'Helvetica', 'DejaVu Sans', sans-serif; text-anchor: start" x="350.663362" y="22.535449" transform="rotate(-0 350.663362 22.535449)">Moving-average smooth</text>
    </g>
    <g id="line2d_18">
     <path d="M 336.663362 27.97793 
L 341.663362 27.97793 
L 346.663362 27.97793 
" style="fill: none; stroke: #4c78a8; stroke-width: 1.35; stroke-linecap: square"/>
    </g>
    <g id="text_16">
     <text style="font-size: 5px; font-family: 'Arial', 'Helvetica', 'DejaVu Sans', sans-serif; text-anchor: start" x="350.663362" y="29.72793" transform="rotate(-0 350.663362 29.72793)">B-spline</text>
    </g>
    <g id="line2d_19">
     <path d="M 336.663362 35.170313 
L 341.663362 35.170313 
L 346.663362 35.170313 
" style="fill: none; stroke: #4daf7c; stroke-width: 1.75; stroke-linecap: square"/>
    </g>
    <g id="text_17">
     <text style="font-size: 5px; font-family: 'Arial', 'Helvetica', 'DejaVu Sans', sans-serif; text-anchor: start" x="350.663362" y="36.920313" transform="rotate(-0 350.663362 36.920313)">Geodesic optimized</text>
    </g>
   </g>
  </g>
 </g>
 <defs>
  <clipPath id="peb0b58e492">
   <rect x="55.957356" y="7.2" width="352.8396" height="130.222852"/>
  </clipPath>
 </defs>
</svg>
