<?xml version="1.0" encoding="utf-8" standalone="no"?>
<!DOCTYPE svg PUBLIC "-//W3C//DTD SVG 1.1//EN"
  "http://www.w3.org/Graphics/SVG/1.1/DTD/svg11.dtd">
<svg xmlns:xlink="http://www.w3.org/1999/xlink" width="420.222356pt" height="169.200156pt" viewBox="0 0 420.222356 169.200156" xmlns="http://www.w3.org/2000/svg" version="1.1">
 <metadata>
  <rdf:RDF xmlns:dc="http://purl.org/dc/elements/1.1/" xmlns:cc="http://creativecommons.org/ns#" xmlns:rdf="http://www.w3.org/1999/02/22-rdf-syntax-ns#">
   <cc:Work>
    <dc:type rdf:resource="http://purl.org/dc/dcmitype/StillImage"/>
    <dc:date>2026-06-23T12:37:44.451485</dc:date>
    <dc:format>image/svg+xml</dc:format>
    <dc:creator>
     <cc:Agent>
      <dc:title>Matplotlib v3.11.0, https://matplotlib.org/</dc:title>
     </cc:Agent>
    </dc:creator>
   </cc:Work>
  </rdf:RDF>
 </metadata>
 <defs>
  <style type="text/css">*{stroke-linejoin: round; stroke-linecap: butt}</style>
 </defs>
 <g id="figure_1">
  <g id="patch_1">
   <path d="M 0 169.200156 
L 420.222356 169.200156 
L 420.222356 0 
L 0 0 
z
" style="fill: #ffffff"/>
  </g>
  <g id="axes_1">
   <g id="patch_2">
    <path d="M 60.177756 137.422852 
L 408.157356 137.422852 
L 408.157356 7.2 
L 60.177756 7.2 
z
" style="fill: #ffffff"/>
   </g>
   <g id="matplotlib.axis_1">
    <g id="xtick_1">
     <g id="line2d_1">
      <defs>
       <path id="m3c366992fd" d="M 0 0 
L 0 3 
" style="stroke: #222222; stroke-width: 0.8"/>
      </defs>
      <g>
       <use xlink:href="#m3c366992fd" x="60.177756" y="137.422852" style="fill: #222222; stroke: #222222; stroke-width: 0.8"/>
      </g>
     </g>
     <g id="text_1">
      <text style="font-size: 7px; font-family: 'Arial', 'Helvetica', 'DejaVu Sans', sans-serif; text-anchor: middle; fill: #222222" x="60.177756" y="149.019043" transform="rotate(-0 60.177756 149.019043)">0.0</text>
     </g>
    </g>
    <g id="xtick_2">
     <g id="line2d_2">
      <g>
       <use xlink:href="#m3c366992fd" x="129.773676" y="137.422852" style="fill: #222222; stroke: #222222; stroke-width: 0.8"/>
      </g>
     </g>
     <g id="text_2">
      <text style="font-size: 7px; font-family: 'Arial', 'Helvetica', 'DejaVu Sans', sans-serif; text-anchor: middle; fill: #222222" x="129.773676" y="149.019043" transform="rotate(-0 129.773676 149.019043)">0.2</text>
     </g>
    </g>
    <g id="xtick_3">
     <g id="line2d_3">
      <g>
       <use xlink:href="#m3c366992fd" x="199.369596" y="137.422852" style="fill: #222222; stroke: #222222; stroke-width: 0.8"/>
      </g>
     </g>
     <g id="text_3">
      <text style="font-size: 7px; font-family: 'Arial', 'Helvetica', 'DejaVu Sans', sans-serif; text-anchor: middle; fill: #222222" x="199.369596" y="149.019043" transform="rotate(-0 199.369596 149.019043)">0.4</text>
     </g>
    </g>
    <g id="xtick_4">
     <g id="line2d_4">
      <g>
       <use xlink:href="#m3c366992fd" x="268.965516" y="137.422852" style="fill: #222222; stroke: #222222; stroke-width: 0.8"/>
      </g>
     </g>
     <g id="text_4">
      <text style="font-size: 7px; font-family: 'Arial', 'Helvetica', 'DejaVu Sans', sans-serif; text-anchor: middle; fill: #222222" x="268.965516" y="149.019043" transform="rotate(-0 268.965516 149.019043)">0.6</text>
     </g>
    </g>
    <g id="xtick_5">
     <g id="line2d_5">
      <g>
       <use xlink:href="#m3c366992fd" x="338.561436" y="137.422852" style="fill: #222222; stroke: #222222; stroke-width: 0.8"/>
      </g>
     </g>
     <g id="text_5">
      <text style="font-size: 7px; font-family: 'Arial', 'Helvetica', 'DejaVu Sans', sans-serif; text-anchor: middle; fill: #222222" x="338.561436" y="149.019043" transform="rotate(-0 338.561436 149.019043)">0.8</text>
     </g>
    </g>
    <g id="xtick_6">
     <g id="line2d_6">
      <g>
       <use xlink:href="#m3c366992fd" x="408.157356" y="137.422852" style="fill: #222222; stroke: #222222; stroke-width: 0.8"/>
      </g>
     </g>
     <g id="text_6">
      <text style="font-size: 7px; font-family: 'Arial', 'Helvetica', 'DejaVu Sans', sans-serif; text-anchor: middle; fill: #222222" x="408.157356" y="149.019043" transform="rotate(-0 408.157356 149.019043)">1.0</text>
     </g>
    </g>
    <g id="text_7">
     <text style="font-size: 8px; font-family: 'Arial', 'Helvetica', 'DejaVu Sans', sans-serif; text-anchor: middle" x="234.167556" y="160.316406" transform="rotate(-0 234.167556 160.316406)">Normalized arc length</text>
    </g>
   </g>
   <g id="matplotlib.axis_2">
    <g id="ytick_1">
     <g id="line2d_7">
      <defs>
       <path id="mdf4bbc6dae" d="M 0 0 
L -3 0 
" style="stroke: #222222; stroke-width: 0.8"/>
      </defs>
      <g>
       <use xlink:href="#mdf4bbc6dae" x="60.177756" y="131.503631" style="fill: #222222; stroke: #222222; stroke-width: 0.8"/>
      </g>
     </g>
     <g id="text_8">
      <text style="font-size: 7px; font-family: 'Arial', 'Helvetica', 'DejaVu Sans', sans-serif; text-anchor: end; fill: #222222" x="53.677756" y="134.051727" transform="rotate(-0 53.677756 134.051727)">0</text>
     </g>
    </g>
    <g id="ytick_2">
     <g id="line2d_8">
      <g>
       <use xlink:href="#mdf4bbc6dae" x="60.177756" y="114.248356" style="fill: #222222; stroke: #222222; stroke-width: 0.8"/>
      </g>
     </g>
     <g id="text_9">
      <text style="font-size: 7px; font-family: 'Arial', 'Helvetica', 'DejaVu Sans', sans-serif; text-anchor: end; fill: #222222" x="53.677756" y="116.796452" transform="rotate(-0 53.677756 116.796452)">2</text>
     </g>
    </g>
    <g id="ytick_3">
     <g id="line2d_9">
      <g>
       <use xlink:href="#mdf4bbc6dae" x="60.177756" y="96.993081" style="fill: #222222; stroke: #222222; stroke-width: 0.8"/>
      </g>
     </g>
     <g id="text_10">
      <text style="font-size: 7px; font-family: 'Arial', 'Helvetica', 'DejaVu Sans', sans-serif; text-anchor: end; fill: #222222" x="53.677756" y="99.541177" transform="rotate(-0 53.677756 99.541177)">4</text>
     </g>
    </g>
    <g id="ytick_4">
     <g id="line2d_10">
      <g>
       <use xlink:href="#mdf4bbc6dae" x="60.177756" y="79.737806" style="fill: #222222; stroke: #222222; stroke-width: 0.8"/>
      </g>
     </g>
     <g id="text_11">
      <text style="font-size: 7px; font-family: 'Arial', 'Helvetica', 'DejaVu Sans', sans-serif; text-anchor: end; fill: #222222" x="53.677756" y="82.285902" transform="rotate(-0 53.677756 82.285902)">6</text>
     </g>
    </g>
    <g id="ytick_5">
     <g id="line2d_11">
      <g>
       <use xlink:href="#mdf4bbc6dae" x="60.177756" y="62.482531" style="fill: #222222; stroke: #222222; stroke-width: 0.8"/>
      </g>
     </g>
     <g id="text_12">
      <text style="font-size: 7px; font-family: 'Arial', 'Helvetica', 'DejaVu Sans', sans-serif; text-anchor: end; fill: #222222" x="53.677756" y="65.030627" transform="rotate(-0 53.677756 65.030627)">8</text>
     </g>
    </g>
    <g id="ytick_6">
     <g id="line2d_12">
      <g>
       <use xlink:href="#mdf4bbc6dae" x="60.177756" y="45.227256" style="fill: #222222; stroke: #222222; stroke-width: 0.8"/>
      </g>
     </g>
     <g id="text_13">
      <text style="font-size: 7px; font-family: 'Arial', 'Helvetica', 'DejaVu Sans', sans-serif; text-anchor: end; fill: #222222" x="53.677756" y="47.775352" transform="rotate(-0 53.677756 47.775352)">10</text>
     </g>
    </g>
    <g id="ytick_7">
     <g id="line2d_13">
      <g>
       <use xlink:href="#mdf4bbc6dae" x="60.177756" y="27.971982" style="fill: #222222; stroke: #222222; stroke-width: 0.8"/>
      </g>
     </g>
     <g id="text_14">
      <text style="font-size: 7px; font-family: 'Arial', 'Helvetica', 'DejaVu Sans', sans-serif; text-anchor: end; fill: #222222" x="53.677756" y="30.520077" transform="rotate(-0 53.677756 30.520077)">12</text>
     </g>
    </g>
    <g id="ytick_8">
     <g id="line2d_14">
      <g>
       <use xlink:href="#mdf4bbc6dae" x="60.177756" y="10.716707" style="fill: #222222; stroke: #222222; stroke-width: 0.8"/>
      </g>
     </g>
     <g id="text_15">
      <text style="font-size: 7px; font-family: 'Arial', 'Helvetica', 'DejaVu Sans', sans-serif; text-anchor: end; fill: #222222" x="53.677756" y="13.264802" transform="rotate(-0 53.677756 13.264802)">14</text>
     </g>
    </g>
    <g id="text_16">
     <!-- $d$ -->
     <g transform="translate(18.72 55.087793)">
      <text>
       <tspan x="0" y="-0.671875" style="font-size: 12px; font-family: 'cmmi10'">d</tspan>
      </text>
     </g>
     <!-- $(\mathrm{mm})$ -->
     <g transform="translate(7.2 68.412012)">
      <text>
       <tspan x="0" y="-0" style="font-size: 12px; font-family: 'cmr10'">(</tspan>
       <tspan x="4.658203" y="-0" style="font-size: 12px; font-family: 'cmr10'">m</tspan>
       <tspan x="14.654297" y="-0" style="font-size: 12px; font-family: 'cmr10'">m</tspan>
       <tspan x="24.650391" y="-0" style="font-size: 12px; font-family: 'cmr10'">)</tspan>
      </text>
     </g>
    </g>
   </g>
   <g id="line2d_15">
    <path d="M 60.177756 131.503631 
L 68.53367 95.923422 
L 74.473172 122.077907 
L 80.386798 113.838151 
L 86.244209 119.713777 
L 91.789601 121.673209 
L 98.353802 109.826169 
L 103.640957 107.642606 
L 110.004486 84.418577 
L 117.9199 17.508861 
L 132.037704 28.143416 
L 138.226758 71.237797 
L 144.960782 102.469565 
L 150.821347 114.195574 
L 155.96282 109.173069 
L 162.348454 121.853767 
L 167.859906 107.937711 
L 173.673993 115.636051 
L 179.467839 110.364467 
L 186.874647 71.946678 
L 193.195881 13.119221 
L 207.480771 33.750298 
L 213.70084 76.287238 
L 220.726653 111.178285 
L 226.429113 112.146849 
L 233.090195 108.788636 
L 238.379551 113.13875 
L 244.103469 116.047126 
L 249.57788 113.388761 
L 255.976661 105.208482 
L 262.676753 78.171964 
L 268.556318 32.764565 
L 280.985041 30.043245 
L 287.979275 84.448762 
L 292.855194 108.047897 
L 299.254261 115.485806 
L 304.997498 110.511824 
L 310.583667 114.578543 
L 316.867025 118.692841 
L 322.490017 116.773232 
L 327.953422 108.715215 
L 334.672058 73.59909 
L 340.868916 24.789644 
L 354.758841 28.571171 
L 360.993037 80.806777 
L 367.758976 110.087746 
L 373.268236 111.610338 
L 379.94136 116.496808 
L 385.320949 117.268059 
L 391.140208 117.943627 
L 397.004084 122.195394 
L 403.518966 82.456676 
L 408.157356 131.503631 
" clip-path="url(#p45d37b2d08)" style="fill: none; stroke-dasharray: 4.625,2; stroke-dashoffset: 0; stroke: #6c6c6c; stroke-width: 1.25"/>
   </g>
   <g id="line2d_16">
    <path d="M 60.177756 122.859921 
L 68.53367 124.340839 
L 74.473172 110.361588 
L 80.386798 125.145499 
L 86.244209 127.215338 
L 91.789601 116.578343 
L 98.353802 97.907009 
L 103.640957 108.521762 
L 110.004486 111.581083 
L 117.9199 57.650502 
L 132.037704 87.421617 
L 138.226758 103.657346 
L 144.960782 111.163239 
L 150.821347 113.120547 
L 155.96282 114.348426 
L 162.348454 126.142193 
L 167.859906 104.357293 
L 173.673993 103.75424 
L 179.467839 101.727488 
L 186.874647 101.835778 
L 193.195881 67.44816 
L 207.480771 61.647907 
L 213.70084 87.303178 
L 220.726653 110.43346 
L 226.429113 116.052292 
L 233.090195 112.721491 
L 238.379551 116.192345 
L 244.103469 111.966835 
L 249.57788 110.395092 
L 255.976661 111.084234 
L 262.676753 115.031895 
L 268.556318 78.788178 
L 280.985041 71.904861 
L 287.979275 109.573996 
L 292.855194 111.804924 
L 299.254261 108.90044 
L 304.997498 102.138703 
L 310.583667 103.23825 
L 316.867025 103.242936 
L 322.490017 102.930416 
L 327.953422 115.117084 
L 334.672058 100.613871 
L 340.868916 54.434066 
L 354.758841 56.437922 
L 360.993037 109.122941 
L 367.758976 103.389633 
L 373.268236 90.37797 
L 379.94136 101.296364 
L 385.320949 117.947741 
L 391.140208 120.943955 
L 397.004084 108.327706 
L 403.518966 111.370044 
L 408.157356 117.043727 
" clip-path="url(#p45d37b2d08)" style="fill: none; stroke-dasharray: 4.995,2.16; stroke-dashoffset: 0; stroke: #4c78a8; stroke-width: 1.35"/>
   </g>
   <g id="line2d_17">
    <path d="M 60.177756 131.503631 
L 68.53367 116.477699 
L 74.473172 116.779145 
L 80.386798 131.503631 
L 86.244209 116.488651 
L 91.789601 117.264427 
L 98.353802 107.098186 
L 103.640957 101.681208 
L 110.004486 64.431354 
L 117.9199 131.503631 
L 132.037704 119.226464 
L 138.226758 81.140425 
L 144.960782 119.494871 
L 150.821347 116.913209 
L 155.96282 131.503631 
L 162.348454 117.583551 
L 167.859906 131.503631 
L 173.673993 112.700578 
L 179.467839 90.396689 
L 186.874647 89.24686 
L 193.195881 106.886016 
L 207.480771 89.583445 
L 213.70084 119.562791 
L 220.726653 119.660901 
L 226.429113 117.476347 
L 233.090195 131.503631 
L 238.379551 131.503631 
L 244.103469 114.943794 
L 249.57788 131.503631 
L 255.976661 102.562867 
L 262.676753 86.208158 
L 268.556318 119.398502 
L 280.985041 106.686061 
L 287.979275 101.83469 
L 292.855194 114.754533 
L 299.254261 115.630684 
L 304.997498 131.503631 
L 310.583667 119.828289 
L 316.867025 114.944709 
L 322.490017 131.503631 
L 327.953422 117.429257 
L 334.672058 53.199457 
L 340.868916 113.389409 
L 354.758841 116.929281 
L 360.993037 91.804083 
L 367.758976 106.946822 
L 373.268236 131.503631 
L 379.94136 119.631444 
L 385.320949 131.503631 
L 391.140208 131.503631 
L 397.004084 115.264341 
L 403.518966 131.503631 
L 408.157356 131.503631 
" clip-path="url(#p45d37b2d08)" style="fill: none; stroke-dasharray: 4.995,2.16; stroke-dashoffset: 0; stroke: #4daf7c; stroke-width: 1.35"/>
   </g>
   <g id="patch_3">
    <path d="M 60.177756 137.422852 
L 60.177756 7.2 
" style="fill: none; stroke: #222222; stroke-width: 0.8; stroke-linejoin: miter; stroke-linecap: square"/>
   </g>
   <g id="patch_4">
    <path d="M 60.177756 137.422852 
L 408.157356 137.422852 
" style="fill: none; stroke: #222222; stroke-width: 0.8; stroke-linejoin: miter; stroke-linecap: square"/>
   </g>
   <g id="legend_1">
    <g id="patch_5">
     <path d="M 335.023762 32.777246 
L 404.657356 32.777246 
Q 405.657356 32.777246 405.657356 31.777246 
L 405.657356 10.7 
Q 405.657356 9.7 404.657356 9.7 
L 335.023762 9.7 
Q 334.023762 9.7 334.023762 10.7 
L 334.023762 31.777246 
Q 334.023762 32.777246 335.023762 32.777246 
z
" style="fill: #ffffff; opacity: 0.8; stroke: #cccccc; stroke-linejoin: miter"/>
    </g>
    <g id="line2d_18">
     <path d="M 336.023762 13.590137 
L 341.023762 13.590137 
L 346.023762 13.590137 
" style="fill: none; stroke-dasharray: 4.625,2; stroke-dashoffset: 0; stroke: #6c6c6c; stroke-width: 1.25"/>
    </g>
    <g id="text_17">
     <text style="font-size: 5px; font-family: 'Arial', 'Helvetica', 'DejaVu Sans', sans-serif; text-anchor: start" x="350.023762" y="15.340137" transform="rotate(-0 350.023762 15.340137)">Moving-average smooth</text>
    </g>
    <g id="line2d_19">
     <path d="M 336.023762 20.782617 
L 341.023762 20.782617 
L 346.023762 20.782617 
" style="fill: none; stroke-dasharray: 4.995,2.16; stroke-dashoffset: 0; stroke: #4c78a8; stroke-width: 1.35"/>
    </g>
    <g id="text_18">
     <text style="font-size: 5px; font-family: 'Arial', 'Helvetica', 'DejaVu Sans', sans-serif; text-anchor: start" x="350.023762" y="22.532617" transform="rotate(-0 350.023762 22.532617)">B-spline</text>
    </g>
    <g id="line2d_20">
     <path d="M 336.023762 27.975 
L 341.023762 27.975 
L 346.023762 27.975 
" style="fill: none; stroke-dasharray: 4.995,2.16; stroke-dashoffset: 0; stroke: #4daf7c; stroke-width: 1.35"/>
    </g>
    <g id="text_19">
     <text style="font-size: 5px; font-family: 'Arial', 'Helvetica', 'DejaVu Sans', sans-serif; text-anchor: start" x="350.023762" y="29.725" transform="rotate(-0 350.023762 29.725)">Geodesic optimized</text>
    </g>
   </g>
  </g>
 </g>
 <defs>
  <clipPath id="p45d37b2d08">
   <rect x="60.177756" y="7.2" width="347.9796" height="130.222852"/>
  </clipPath>
 </defs>
</svg>
