<?xml version="1.0" encoding="utf-8" standalone="no"?>
<!DOCTYPE svg PUBLIC "-//W3C//DTD SVG 1.1//EN"
  "http://www.w3.org/Graphics/SVG/1.1/DTD/svg11.dtd">
<svg xmlns:xlink="http://www.w3.org/1999/xlink" width="420.861956pt" height="169.200156pt" viewBox="0 0 420.861956 169.200156" xmlns="http://www.w3.org/2000/svg" version="1.1">
 <metadata>
  <rdf:RDF xmlns:dc="http://purl.org/dc/elements/1.1/" xmlns:cc="http://creativecommons.org/ns#" xmlns:rdf="http://www.w3.org/1999/02/22-rdf-syntax-ns#">
   <cc:Work>
    <dc:type rdf:resource="http://purl.org/dc/dcmitype/StillImage"/>
    <dc:date>2026-06-23T12:37:44.256363</dc:date>
    <dc:format>image/svg+xml</dc:format>
    <dc:creator>
     <cc:Agent>
      <dc:title>Matplotlib v3.11.0, https://matplotlib.org/</dc:title>
     </cc:Agent>
    </dc:creator>
   </cc:Work>
  </rdf:RDF>
 </metadata>
 <defs>
  <style type="text/css">*{stroke-linejoin: round; stroke-linecap: butt}</style>
 </defs>
 <g id="figure_1">
  <g id="patch_1">
   <path d="M 0 169.200156 
L 420.861956 169.200156 
L 420.861956 0 
L 0 0 
z
" style="fill: #ffffff"/>
  </g>
  <g id="axes_1">
   <g id="patch_2">
    <path d="M 55.957356 137.422852 
L 408.796956 137.422852 
L 408.796956 7.2 
L 55.957356 7.2 
z
" style="fill: #ffffff"/>
   </g>
   <g id="matplotlib.axis_1">
    <g id="xtick_1">
     <g id="line2d_1">
      <defs>
       <path id="mf7ec4428e1" d="M 0 0 
L 0 3 
" style="stroke: #222222; stroke-width: 0.8"/>
      </defs>
      <g>
       <use xlink:href="#mf7ec4428e1" x="55.957356" y="137.422852" style="fill: #222222; stroke: #222222; stroke-width: 0.8"/>
      </g>
     </g>
     <g id="text_1">
      <text style="font-size: 7px; font-family: 'Arial', 'Helvetica', 'DejaVu Sans', sans-serif; text-anchor: middle; fill: #222222" x="55.957356" y="149.019043" transform="rotate(-0 55.957356 149.019043)">0.0</text>
     </g>
    </g>
    <g id="xtick_2">
     <g id="line2d_2">
      <g>
       <use xlink:href="#mf7ec4428e1" x="126.525276" y="137.422852" style="fill: #222222; stroke: #222222; stroke-width: 0.8"/>
      </g>
     </g>
     <g id="text_2">
      <text style="font-size: 7px; font-family: 'Arial', 'Helvetica', 'DejaVu Sans', sans-serif; text-anchor: middle; fill: #222222" x="126.525276" y="149.019043" transform="rotate(-0 126.525276 149.019043)">0.2</text>
     </g>
    </g>
    <g id="xtick_3">
     <g id="line2d_3">
      <g>
       <use xlink:href="#mf7ec4428e1" x="197.093196" y="137.422852" style="fill: #222222; stroke: #222222; stroke-width: 0.8"/>
      </g>
     </g>
     <g id="text_3">
      <text style="font-size: 7px; font-family: 'Arial', 'Helvetica', 'DejaVu Sans', sans-serif; text-anchor: middle; fill: #222222" x="197.093196" y="149.019043" transform="rotate(-0 197.093196 149.019043)">0.4</text>
     </g>
    </g>
    <g id="xtick_4">
     <g id="line2d_4">
      <g>
       <use xlink:href="#mf7ec4428e1" x="267.661116" y="137.422852" style="fill: #222222; stroke: #222222; stroke-width: 0.8"/>
      </g>
     </g>
     <g id="text_4">
      <text style="font-size: 7px; font-family: 'Arial', 'Helvetica', 'DejaVu Sans', sans-serif; text-anchor: middle; fill: #222222" x="267.661116" y="149.019043" transform="rotate(-0 267.661116 149.019043)">0.6</text>
     </g>
    </g>
    <g id="xtick_5">
     <g id="line2d_5">
      <g>
       <use xlink:href="#mf7ec4428e1" x="338.229036" y="137.422852" style="fill: #222222; stroke: #222222; stroke-width: 0.8"/>
      </g>
     </g>
     <g id="text_5">
      <text style="font-size: 7px; font-family: 'Arial', 'Helvetica', 'DejaVu Sans', sans-serif; text-anchor: middle; fill: #222222" x="338.229036" y="149.019043" transform="rotate(-0 338.229036 149.019043)">0.8</text>
     </g>
    </g>
    <g id="xtick_6">
     <g id="line2d_6">
      <g>
       <use xlink:href="#mf7ec4428e1" x="408.796956" y="137.422852" style="fill: #222222; stroke: #222222; stroke-width: 0.8"/>
      </g>
     </g>
     <g id="text_6">
      <text style="font-size: 7px; font-family: 'Arial', 'Helvetica', 'DejaVu Sans', sans-serif; text-anchor: middle; fill: #222222" x="408.796956" y="149.019043" transform="rotate(-0 408.796956 149.019043)">1.0</text>
     </g>
    </g>
    <g id="text_7">
     <text style="font-size: 8px; font-family: 'Arial', 'Helvetica', 'DejaVu Sans', sans-serif; text-anchor: middle" x="232.377156" y="160.316406" transform="rotate(-0 232.377156 160.316406)">Normalized arc length</text>
    </g>
   </g>
   <g id="matplotlib.axis_2">
    <g id="ytick_1">
     <g id="line2d_7">
      <defs>
       <path id="m3d993fe1b4" d="M 0 0 
L -3 0 
" style="stroke: #222222; stroke-width: 0.8"/>
      </defs>
      <g>
       <use xlink:href="#m3d993fe1b4" x="55.957356" y="131.504738" style="fill: #222222; stroke: #222222; stroke-width: 0.8"/>
      </g>
     </g>
     <g id="text_8">
      <text style="font-size: 7px; font-family: 'Arial', 'Helvetica', 'DejaVu Sans', sans-serif; text-anchor: end; fill: #222222" x="49.457356" y="134.052834" transform="rotate(-0 49.457356 134.052834)">0</text>
     </g>
    </g>
    <g id="ytick_2">
     <g id="line2d_8">
      <g>
       <use xlink:href="#m3d993fe1b4" x="55.957356" y="105.636072" style="fill: #222222; stroke: #222222; stroke-width: 0.8"/>
      </g>
     </g>
     <g id="text_9">
      <text style="font-size: 7px; font-family: 'Arial', 'Helvetica', 'DejaVu Sans', sans-serif; text-anchor: end; fill: #222222" x="49.457356" y="108.184167" transform="rotate(-0 49.457356 108.184167)">100</text>
     </g>
    </g>
    <g id="ytick_3">
     <g id="line2d_9">
      <g>
       <use xlink:href="#m3d993fe1b4" x="55.957356" y="79.767405" style="fill: #222222; stroke: #222222; stroke-width: 0.8"/>
      </g>
     </g>
     <g id="text_10">
      <text style="font-size: 7px; font-family: 'Arial', 'Helvetica', 'DejaVu Sans', sans-serif; text-anchor: end; fill: #222222" x="49.457356" y="82.315501" transform="rotate(-0 49.457356 82.315501)">200</text>
     </g>
    </g>
    <g id="ytick_4">
     <g id="line2d_10">
      <g>
       <use xlink:href="#m3d993fe1b4" x="55.957356" y="53.898738" style="fill: #222222; stroke: #222222; stroke-width: 0.8"/>
      </g>
     </g>
     <g id="text_11">
      <text style="font-size: 7px; font-family: 'Arial', 'Helvetica', 'DejaVu Sans', sans-serif; text-anchor: end; fill: #222222" x="49.457356" y="56.446834" transform="rotate(-0 49.457356 56.446834)">300</text>
     </g>
    </g>
    <g id="ytick_5">
     <g id="line2d_11">
      <g>
       <use xlink:href="#m3d993fe1b4" x="55.957356" y="28.030072" style="fill: #222222; stroke: #222222; stroke-width: 0.8"/>
      </g>
     </g>
     <g id="text_12">
      <text style="font-size: 7px; font-family: 'Arial', 'Helvetica', 'DejaVu Sans', sans-serif; text-anchor: end; fill: #222222" x="49.457356" y="30.578168" transform="rotate(-0 49.457356 30.578168)">400</text>
     </g>
    </g>
    <g id="text_13">
     <!-- $|\kappa_g|$ -->
     <g transform="translate(7.2 68.411426)">
      <text>
       <tspan x="0" y="-0.25" style="font-size: 13px; font-family: 'cmsy10'">j</tspan>
       <tspan x="16.174172" y="-0.25" style="font-size: 13px; font-family: 'cmsy10'">j</tspan>
       <tspan x="3.599121" y="-0.25" style="font-size: 13px; font-family: 'cmmi10'">∙</tspan>
       <tspan x="11.089355" y="1.699995" style="font-size: 9.1px; font-family: 'cmmi10'">g</tspan>
      </text>
     </g>
    </g>
   </g>
   <g id="line2d_12">
    <path d="M 64.429972 121.832777 
L 70.452426 121.272652 
L 76.448645 118.406097 
L 82.387862 126.45454 
L 88.010702 128.296183 
L 94.666582 115.060808 
L 100.027579 126.045138 
L 106.479983 127.080378 
L 114.505946 79.693576 
L 128.820924 96.999037 
L 135.096417 124.922844 
L 141.92449 129.418158 
L 147.866906 122.878809 
L 153.080187 116.727615 
L 159.555004 126.577426 
L 165.143431 128.951165 
L 171.03872 124.065111 
L 176.913484 128.584299 
L 184.423738 127.8518 
L 190.833257 73.438994 
L 205.317654 98.842807 
L 211.624594 128.038202 
L 218.748533 127.712518 
L 224.530635 127.434135 
L 231.284748 128.125244 
L 236.647978 124.155639 
L 242.451837 125.529708 
L 248.002705 125.319123 
L 254.490855 127.362735 
L 261.284522 129.806707 
L 267.246203 84.144641 
L 279.84851 83.348632 
L 286.940428 128.984609 
L 291.884446 127.812366 
L 298.372884 127.082457 
L 304.196333 121.635544 
L 309.86052 126.095561 
L 316.231634 124.192883 
L 321.933159 126.210369 
L 327.472867 131.085228 
L 334.285338 128.523675 
L 340.568743 86.62786 
L 354.652659 85.706336 
L 360.973924 127.478996 
L 367.834359 131.155311 
L 373.420563 129.81903 
L 380.186886 127.703473 
L 385.641608 128.688298 
L 391.542141 123.312992 
L 397.487914 127.866311 
L 404.093784 131.022548 
" clip-path="url(#pc6e7a6f800)" style="fill: none; stroke: #c73e3a; stroke-width: 1.55; stroke-linecap: square"/>
   </g>
   <g id="line2d_13">
    <path d="M 71.418089 129.412813 
L 75.547827 131.247415 
L 84.32334 128.844414 
L 91.78604 130.033549 
L 100.052447 130.143349 
L 108.15629 128.729542 
L 115.534234 125.134731 
L 121.747648 115.370057 
L 126.499148 82.107082 
L 130.683693 75.104708 
L 135.045179 106.880394 
L 140.770078 121.305812 
L 147.719742 125.484595 
L 155.411241 125.83738 
L 163.448054 129.414169 
L 171.5257 129.973442 
L 179.389193 128.389843 
L 186.485518 123.773316 
L 192.249434 106.263193 
L 196.392547 64.255949 
L 200.37136 81.947939 
L 205.159906 114.279328 
L 211.495084 124.536829 
L 219.011847 127.06372 
L 227.146023 127.659871 
L 235.31483 130.186904 
L 243.43745 129.056718 
L 251.344666 127.631788 
L 258.527822 124.030255 
L 264.455481 112.411518 
L 268.800507 70.84798 
L 272.497485 67.838573 
L 276.685297 109.139016 
L 282.362903 123.674354 
L 289.415282 127.667409 
L 297.211523 129.527533 
L 305.282327 130.525966 
L 313.395744 127.121838 
L 321.234033 126.845534 
L 328.243975 122.503109 
L 333.959628 108.71996 
L 338.167793 70.07705 
L 342.117841 80.919867 
L 346.723477 114.578539 
L 352.898868 125.266465 
L 360.323136 128.402877 
L 368.493251 129.572849 
L 376.705324 130.214606 
L 384.091356 129.826816 
L 392.141596 131.471698 
L 396.027391 130.249026 
" clip-path="url(#pc6e7a6f800)" style="fill: none; stroke: #6c6c6c; stroke-width: 1.35; stroke-linecap: square"/>
   </g>
   <g id="line2d_14">
    <path d="M 65.841274 122.90598 
L 72.843296 126.779357 
L 80.190678 129.105425 
L 87.78159 130.845114 
L 95.029861 130.543577 
L 103.300962 128.38027 
L 109.43815 125.167229 
L 115.962804 122.387779 
L 122.472899 97.712018 
L 129.621236 73.512403 
L 134.196108 120.293459 
L 140.935991 126.623553 
L 147.831983 128.058272 
L 154.422881 129.573217 
L 163.117806 130.23321 
L 170.766641 130.890813 
L 178.550461 131.149808 
L 185.546919 129.050978 
L 192.616015 120.845525 
L 196.40836 13.119221 
L 202.190052 102.696771 
L 207.287521 126.34676 
L 214.526329 127.918493 
L 221.22814 128.40686 
L 229.651372 128.048445 
L 236.642317 127.611754 
L 244.405603 129.678168 
L 251.711126 130.532493 
L 259.449474 125.671642 
L 265.86842 111.670899 
L 270.019454 84.904634 
L 276.997658 91.734447 
L 282.192175 112.950168 
L 286.996822 124.934447 
L 294.809625 129.061158 
L 302.809806 130.946053 
L 310.90314 130.80534 
L 319.650991 129.14035 
L 326.541858 125.873002 
L 332.015323 121.125471 
L 337.230161 114.712877 
L 340.907101 94.429455 
L 347.637429 97.004306 
L 351.738778 116.408206 
L 357.518655 122.310393 
L 363.471835 126.466123 
L 372.215484 129.661785 
L 379.949862 131.307236 
L 388.282253 129.531902 
L 396.019815 127.046032 
L 403.542237 119.774658 
" clip-path="url(#pc6e7a6f800)" style="fill: none; stroke: #4c78a8; stroke-width: 1.35; stroke-linecap: square"/>
   </g>
   <g id="line2d_15">
    <path d="M 64.273882 128.384128 
L 71.228761 129.347828 
L 75.879878 128.686763 
L 81.390788 125.654347 
L 88.218663 131.503631 
L 91.633415 129.868478 
L 96.249745 124.222516 
L 110.419337 110.922412 
L 113.936113 108.834848 
L 127.150198 111.286062 
L 129.755255 112.677339 
L 141.139012 128.002537 
L 147.315771 129.910329 
L 151.81594 127.317697 
L 157.171319 130.571733 
L 163.559475 130.396663 
L 167.909875 128.466678 
L 171.511433 131.417482 
L 186.256956 108.666256 
L 189.616578 114.802016 
L 206.40562 111.699112 
L 209.875803 120.25326 
L 216.861555 131.131064 
L 220.444295 130.345574 
L 228.188455 129.904571 
L 233.453262 127.929282 
L 237.870862 129.444328 
L 244.568501 130.876136 
L 248.401774 129.484533 
L 261.317099 114.706045 
L 264.951235 104.954014 
L 279.079501 100.234585 
L 284.292877 117.646167 
L 291.463729 127.611809 
L 298.039447 126.852965 
L 302.475836 126.445333 
L 309.005972 130.085861 
L 315.530696 129.478316 
L 319.820049 131.500349 
L 324.134286 129.747728 
L 338.76351 99.528851 
L 341.151146 130.831024 
L 356.370206 114.859537 
L 358.782003 112.74146 
L 370.682727 129.655945 
L 374.060288 125.271947 
L 381.705701 130.49138 
L 386.035648 130.088669 
L 391.827899 126.037898 
L 396.35508 130.126615 
L 404.180094 128.759537 
" clip-path="url(#pc6e7a6f800)" style="fill: none; stroke: #4daf7c; stroke-width: 1.75; stroke-linecap: square"/>
   </g>
   <g id="patch_3">
    <path d="M 55.957356 137.422852 
L 55.957356 7.2 
" style="fill: none; stroke: #222222; stroke-width: 0.8; stroke-linejoin: miter; stroke-linecap: square"/>
   </g>
   <g id="patch_4">
    <path d="M 55.957356 137.422852 
L 408.796956 137.422852 
" style="fill: none; stroke: #222222; stroke-width: 0.8; stroke-linejoin: miter; stroke-linecap: square"/>
   </g>
   <g id="legend_1">
    <g id="patch_5">
     <path d="M 335.663362 39.972559 
L 405.296956 39.972559 
Q 406.296956 39.972559 406.296956 38.972559 
L 406.296956 10.7 
Q 406.296956 9.7 405.296956 9.7 
L 335.663362 9.7 
Q 334.663362 9.7 334.663362 10.7 
L 334.663362 38.972559 
Q 334.663362 39.972559 335.663362 39.972559 
z
" style="fill: #ffffff; opacity: 0.8; stroke: #cccccc; stroke-linejoin: miter"/>
    </g>
    <g id="line2d_16">
     <path d="M 336.663362 13.592969 
L 341.663362 13.592969 
L 346.663362 13.592969 
" style="fill: none; stroke: #c73e3a; stroke-width: 1.55; stroke-linecap: square"/>
    </g>
    <g id="text_14">
     <text style="font-size: 5px; font-family: 'Arial', 'Helvetica', 'DejaVu Sans', sans-serif; text-anchor: start" x="350.663362" y="15.342969" transform="rotate(-0 350.663362 15.342969)">Original</text>
    </g>
    <g id="line2d_17">
     <path d="M 336.663362 20.785449 
L 341.663362 20.785449 
L 346.663362 20.785449 
" style="fill: none; stroke: #6c6c6c; stroke-width: 1.35; stroke-linecap: square"/>
    </g>
    <g id="text_15">
     <text style="font-size: 5px; font-family: 'Arial', 'Helvetica', 'DejaVu Sans', sans-serif; text-anchor: start" x="350.663362" y="22.535449" transform="rotate(-0 350.663362 22.535449)">Moving-average smooth</text>
    </g>
    <g id="line2d_18">
     <path d="M 336.663362 27.97793 
L 341.663362 27.97793 
L 346.663362 27.97793 
" style="fill: none; stroke: #4c78a8; stroke-width: 1.35; stroke-linecap: square"/>
    </g>
    <g id="text_16">
     <text style="font-size: 5px; font-family: 'Arial', 'Helvetica', 'DejaVu Sans', sans-serif; text-anchor: start" x="350.663362" y="29.72793" transform="rotate(-0 350.663362 29.72793)">B-spline</text>
    </g>
    <g id="line2d_19">
     <path d="M 336.663362 35.170313 
L 341.663362 35.170313 
L 346.663362 35.170313 
" style="fill: none; stroke: #4daf7c; stroke-width: 1.75; stroke-linecap: square"/>
    </g>
    <g id="text_17">
     <text style="font-size: 5px; font-family: 'Arial', 'Helvetica', 'DejaVu Sans', sans-serif; text-anchor: start" x="350.663362" y="36.920313" transform="rotate(-0 350.663362 36.920313)">Geodesic optimized</text>
    </g>
   </g>
  </g>
 </g>
 <defs>
  <clipPath id="pc6e7a6f800">
   <rect x="55.957356" y="7.2" width="352.8396" height="130.222852"/>
  </clipPath>
 </defs>
</svg>
