<?xml version="1.0" encoding="utf-8" standalone="no"?>
<!DOCTYPE svg PUBLIC "-//W3C//DTD SVG 1.1//EN"
  "http://www.w3.org/Graphics/SVG/1.1/DTD/svg11.dtd">
<svg xmlns:xlink="http://www.w3.org/1999/xlink" width="420.180072pt" height="169.115132pt" viewBox="0 0 420.180072 169.115132" xmlns="http://www.w3.org/2000/svg" version="1.1">
 <metadata>
  <rdf:RDF xmlns:dc="http://purl.org/dc/elements/1.1/" xmlns:cc="http://creativecommons.org/ns#" xmlns:rdf="http://www.w3.org/1999/02/22-rdf-syntax-ns#">
   <cc:Work>
    <dc:type rdf:resource="http://purl.org/dc/dcmitype/StillImage"/>
    <dc:date>2026-06-15T20:39:31.348525</dc:date>
    <dc:format>image/svg+xml</dc:format>
    <dc:creator>
     <cc:Agent>
      <dc:title>Matplotlib v3.10.8, https://matplotlib.org/</dc:title>
     </cc:Agent>
    </dc:creator>
   </cc:Work>
  </rdf:RDF>
 </metadata>
 <defs>
  <style type="text/css">*{stroke-linejoin: round; stroke-linecap: butt}</style>
 </defs>
 <g id="figure_1">
  <g id="patch_1">
   <path d="M 0 169.115132 
L 420.180072 169.115132 
L 420.180072 0 
L 0 0 
z
" style="fill: #ffffff"/>
  </g>
  <g id="axes_1">
   <g id="patch_2">
    <path d="M 60.104088 136.897944 
L 407.413978 136.897944 
L 407.413978 7.741619 
L 60.104088 7.741619 
z
" style="fill: #ffffff"/>
   </g>
   <g id="matplotlib.axis_1">
    <g id="xtick_1">
     <g id="line2d_1">
      <defs>
       <path id="me65eb70895" d="M 0 0 
L 0 3 
" style="stroke: #222222; stroke-width: 0.8"/>
      </defs>
      <g>
       <use xlink:href="#me65eb70895" x="60.104088" y="136.897944" style="fill: #222222; stroke: #222222; stroke-width: 0.8"/>
      </g>
     </g>
     <g id="text_1">
      <text style="font-size: 7px; font-family: 'Arial', 'Helvetica', 'DejaVu Sans', sans-serif; text-anchor: middle; fill: #222222" x="60.104088" y="148.71685" transform="rotate(-0 60.104088 148.71685)">0.0</text>
     </g>
    </g>
    <g id="xtick_2">
     <g id="line2d_2">
      <g>
       <use xlink:href="#me65eb70895" x="129.566066" y="136.897944" style="fill: #222222; stroke: #222222; stroke-width: 0.8"/>
      </g>
     </g>
     <g id="text_2">
      <text style="font-size: 7px; font-family: 'Arial', 'Helvetica', 'DejaVu Sans', sans-serif; text-anchor: middle; fill: #222222" x="129.566066" y="148.71685" transform="rotate(-0 129.566066 148.71685)">0.2</text>
     </g>
    </g>
    <g id="xtick_3">
     <g id="line2d_3">
      <g>
       <use xlink:href="#me65eb70895" x="199.028044" y="136.897944" style="fill: #222222; stroke: #222222; stroke-width: 0.8"/>
      </g>
     </g>
     <g id="text_3">
      <text style="font-size: 7px; font-family: 'Arial', 'Helvetica', 'DejaVu Sans', sans-serif; text-anchor: middle; fill: #222222" x="199.028044" y="148.71685" transform="rotate(-0 199.028044 148.71685)">0.4</text>
     </g>
    </g>
    <g id="xtick_4">
     <g id="line2d_4">
      <g>
       <use xlink:href="#me65eb70895" x="268.490022" y="136.897944" style="fill: #222222; stroke: #222222; stroke-width: 0.8"/>
      </g>
     </g>
     <g id="text_4">
      <text style="font-size: 7px; font-family: 'Arial', 'Helvetica', 'DejaVu Sans', sans-serif; text-anchor: middle; fill: #222222" x="268.490022" y="148.71685" transform="rotate(-0 268.490022 148.71685)">0.6</text>
     </g>
    </g>
    <g id="xtick_5">
     <g id="line2d_5">
      <g>
       <use xlink:href="#me65eb70895" x="337.952" y="136.897944" style="fill: #222222; stroke: #222222; stroke-width: 0.8"/>
      </g>
     </g>
     <g id="text_5">
      <text style="font-size: 7px; font-family: 'Arial', 'Helvetica', 'DejaVu Sans', sans-serif; text-anchor: middle; fill: #222222" x="337.952" y="148.71685" transform="rotate(-0 337.952 148.71685)">0.8</text>
     </g>
    </g>
    <g id="xtick_6">
     <g id="line2d_6">
      <g>
       <use xlink:href="#me65eb70895" x="407.413978" y="136.897944" style="fill: #222222; stroke: #222222; stroke-width: 0.8"/>
      </g>
     </g>
     <g id="text_6">
      <text style="font-size: 7px; font-family: 'Arial', 'Helvetica', 'DejaVu Sans', sans-serif; text-anchor: middle; fill: #222222" x="407.413978" y="148.71685" transform="rotate(-0 407.413978 148.71685)">1.0</text>
     </g>
    </g>
    <g id="text_7">
     <text style="font-size: 8px; font-family: 'Arial', 'Helvetica', 'DejaVu Sans', sans-serif; text-anchor: middle" x="233.759033" y="160.251382" transform="rotate(-0 233.759033 160.251382)">Normalized arc length</text>
    </g>
   </g>
   <g id="matplotlib.axis_2">
    <g id="ytick_1">
     <g id="line2d_7">
      <defs>
       <path id="mee844f5381" d="M 0 0 
L -3 0 
" style="stroke: #222222; stroke-width: 0.8"/>
      </defs>
      <g>
       <use xlink:href="#mee844f5381" x="60.104088" y="131.027202" style="fill: #222222; stroke: #222222; stroke-width: 0.8"/>
      </g>
     </g>
     <g id="text_8">
      <text style="font-size: 7px; font-family: 'Arial', 'Helvetica', 'DejaVu Sans', sans-serif; text-anchor: end; fill: #222222" x="53.604088" y="133.686655" transform="rotate(-0 53.604088 133.686655)">0</text>
     </g>
    </g>
    <g id="ytick_2">
     <g id="line2d_8">
      <g>
       <use xlink:href="#mee844f5381" x="60.104088" y="113.717524" style="fill: #222222; stroke: #222222; stroke-width: 0.8"/>
      </g>
     </g>
     <g id="text_9">
      <text style="font-size: 7px; font-family: 'Arial', 'Helvetica', 'DejaVu Sans', sans-serif; text-anchor: end; fill: #222222" x="53.604088" y="116.376977" transform="rotate(-0 53.604088 116.376977)">2</text>
     </g>
    </g>
    <g id="ytick_3">
     <g id="line2d_9">
      <g>
       <use xlink:href="#mee844f5381" x="60.104088" y="96.407845" style="fill: #222222; stroke: #222222; stroke-width: 0.8"/>
      </g>
     </g>
     <g id="text_10">
      <text style="font-size: 7px; font-family: 'Arial', 'Helvetica', 'DejaVu Sans', sans-serif; text-anchor: end; fill: #222222" x="53.604088" y="99.067298" transform="rotate(-0 53.604088 99.067298)">4</text>
     </g>
    </g>
    <g id="ytick_4">
     <g id="line2d_10">
      <g>
       <use xlink:href="#mee844f5381" x="60.104088" y="79.098167" style="fill: #222222; stroke: #222222; stroke-width: 0.8"/>
      </g>
     </g>
     <g id="text_11">
      <text style="font-size: 7px; font-family: 'Arial', 'Helvetica', 'DejaVu Sans', sans-serif; text-anchor: end; fill: #222222" x="53.604088" y="81.75762" transform="rotate(-0 53.604088 81.75762)">6</text>
     </g>
    </g>
    <g id="ytick_5">
     <g id="line2d_11">
      <g>
       <use xlink:href="#mee844f5381" x="60.104088" y="61.788488" style="fill: #222222; stroke: #222222; stroke-width: 0.8"/>
      </g>
     </g>
     <g id="text_12">
      <text style="font-size: 7px; font-family: 'Arial', 'Helvetica', 'DejaVu Sans', sans-serif; text-anchor: end; fill: #222222" x="53.604088" y="64.447942" transform="rotate(-0 53.604088 64.447942)">8</text>
     </g>
    </g>
    <g id="ytick_6">
     <g id="line2d_12">
      <g>
       <use xlink:href="#mee844f5381" x="60.104088" y="44.47881" style="fill: #222222; stroke: #222222; stroke-width: 0.8"/>
      </g>
     </g>
     <g id="text_13">
      <text style="font-size: 7px; font-family: 'Arial', 'Helvetica', 'DejaVu Sans', sans-serif; text-anchor: end; fill: #222222" x="53.604088" y="47.138263" transform="rotate(-0 53.604088 47.138263)">10</text>
     </g>
    </g>
    <g id="ytick_7">
     <g id="line2d_13">
      <g>
       <use xlink:href="#mee844f5381" x="60.104088" y="27.169132" style="fill: #222222; stroke: #222222; stroke-width: 0.8"/>
      </g>
     </g>
     <g id="text_14">
      <text style="font-size: 7px; font-family: 'Arial', 'Helvetica', 'DejaVu Sans', sans-serif; text-anchor: end; fill: #222222" x="53.604088" y="29.828585" transform="rotate(-0 53.604088 29.828585)">12</text>
     </g>
    </g>
    <g id="ytick_8">
     <g id="line2d_14">
      <g>
       <use xlink:href="#mee844f5381" x="60.104088" y="9.859453" style="fill: #222222; stroke: #222222; stroke-width: 0.8"/>
      </g>
     </g>
     <g id="text_15">
      <text style="font-size: 7px; font-family: 'Arial', 'Helvetica', 'DejaVu Sans', sans-serif; text-anchor: end; fill: #222222" x="53.604088" y="12.518906" transform="rotate(-0 53.604088 12.518906)">14</text>
     </g>
    </g>
    <g id="text_16">
     <!-- $d$ -->
     <g transform="translate(18.72 55.882406)">
      <text>
       <tspan x="0" y="-0.671875" style="font-size: 12px; font-family: 'cmmi10'">d</tspan>
      </text>
     </g>
     <!-- $(\mathrm{mm})$ -->
     <g transform="translate(7.2 69.319781)">
      <text>
       <tspan x="0" y="-0" style="font-size: 12px; font-family: 'cmr10'">(</tspan>
       <tspan x="4.658203" y="-0" style="font-size: 12px; font-family: 'cmr10'">m</tspan>
       <tspan x="14.654297" y="-0" style="font-size: 12px; font-family: 'cmr10'">m</tspan>
       <tspan x="24.650391" y="-0" style="font-size: 12px; font-family: 'cmr10'">)</tspan>
      </text>
     </g>
    </g>
   </g>
   <g id="line2d_15">
    <path d="M 60.104088 131.027202 
L 65.522454 93.952338 
L 70.187664 119.600412 
L 75.462537 118.582304 
L 79.518976 114.168265 
L 84.530707 123.075333 
L 89.412335 121.782056 
L 93.302333 117.80754 
L 98.329444 110.450567 
L 102.407694 87.160634 
L 106.762497 41.625896 
L 118.055527 21.068083 
L 123.60036 74.47058 
L 128.790225 104.58243 
L 133.724918 117.286805 
L 138.635365 112.668335 
L 143.509959 108.242227 
L 148.509935 122.702386 
L 153.413413 118.008596 
L 158.443078 111.407633 
L 164.187534 73.071275 
L 169.531004 24.73378 
L 180.544978 17.571195 
L 186.421524 76.506548 
L 192.944858 106.679653 
L 198.087634 118.43364 
L 203.079495 113.30718 
L 207.798297 117.314 
L 212.630167 104.029533 
L 217.47015 107.315791 
L 222.557516 105.70753 
L 228.350707 78.948323 
L 234.231969 22.432209 
L 244.885256 25.75328 
L 250.766293 86.008067 
L 255.334289 107.865412 
L 260.314387 113.680562 
L 265.181022 112.282154 
L 269.912002 108.008714 
L 274.69924 110.543164 
L 280.676718 114.588982 
L 285.991515 106.350092 
L 291.392443 73.768514 
L 297.292211 23.392382 
L 307.699116 25.208041 
L 313.214839 78.203616 
L 318.939582 109.570043 
L 324.043795 113.457324 
L 328.933146 111.650266 
L 334.7606 112.285436 
L 339.564929 109.74217 
L 344.509288 97.021953 
L 349.706146 65.695996 
L 354.10389 13.612361 
L 367.333765 46.713976 
L 371.436717 75.077208 
L 375.786766 108.250118 
L 380.855092 114.12939 
L 384.790901 109.183276 
L 389.728269 104.838321 
L 395.297019 111.465329 
L 401.458955 84.37953 
L 407.413978 131.027202 
" clip-path="url(#pbaefdb3e40)" style="fill: none; stroke-dasharray: 4.625,2; stroke-dashoffset: 0; stroke: #6c6c6c; stroke-width: 1.25"/>
   </g>
   <g id="line2d_16">
    <path d="M 60.104088 131.027202 
L 65.522454 115.027608 
L 70.187664 109.383764 
L 75.462537 131.027202 
L 79.518976 101.034181 
L 84.530707 131.027202 
L 89.412335 131.027202 
L 93.302333 131.027202 
L 98.329444 131.027202 
L 102.407694 117.614691 
L 106.762497 117.547962 
L 118.055527 131.027202 
L 123.60036 67.105177 
L 128.790225 87.70342 
L 133.724918 114.825639 
L 138.635365 131.027202 
L 143.509959 112.575408 
L 148.509935 131.027202 
L 153.413413 131.027202 
L 158.443078 100.721986 
L 164.187534 109.8837 
L 169.531004 117.477315 
L 180.544978 131.027202 
L 186.421524 65.197116 
L 192.944858 97.553783 
L 198.087634 110.931963 
L 203.079495 131.027202 
L 207.798297 118.115158 
L 212.630167 118.181887 
L 217.47015 131.027202 
L 222.557516 114.284788 
L 228.350707 77.824837 
L 234.231969 117.811056 
L 244.885256 131.027202 
L 250.766293 87.735466 
L 255.334289 102.004104 
L 260.314387 118.081794 
L 265.181022 131.027202 
L 269.912002 131.027202 
L 274.69924 118.048429 
L 280.676718 131.027202 
L 285.991515 109.781762 
L 291.392443 70.60295 
L 297.292211 131.027202 
L 307.699116 131.027202 
L 313.214839 90.180751 
L 318.939582 90.729293 
L 324.043795 131.027202 
L 328.933146 112.433834 
L 334.7606 117.914971 
L 339.564929 114.842545 
L 344.509288 95.09371 
L 349.706146 88.387752 
L 354.10389 117.744308 
L 367.333765 131.027202 
L 371.436717 98.577042 
L 375.786766 101.537565 
L 380.855092 131.027202 
L 384.790901 131.027202 
L 389.728269 109.825535 
L 395.297019 131.027202 
L 401.458955 111.395626 
L 407.413978 131.027202 
" clip-path="url(#pbaefdb3e40)" style="fill: none; stroke-dasharray: 4.995,2.16; stroke-dashoffset: 0; stroke: #2c5aa0; stroke-width: 1.35"/>
   </g>
   <g id="patch_3">
    <path d="M 60.104088 136.897944 
L 60.104088 7.741619 
" style="fill: none; stroke: #222222; stroke-width: 0.8; stroke-linejoin: miter; stroke-linecap: square"/>
   </g>
   <g id="patch_4">
    <path d="M 60.104088 136.897944 
L 407.413978 136.897944 
" style="fill: none; stroke: #222222; stroke-width: 0.8; stroke-linejoin: miter; stroke-linecap: square"/>
   </g>
   <g id="legend_1">
    <g id="patch_5">
     <path d="M 327.263197 26.419744 
L 403.913978 26.419744 
Q 404.913978 26.419744 404.913978 25.419744 
L 404.913978 11.241619 
Q 404.913978 10.241619 403.913978 10.241619 
L 327.263197 10.241619 
Q 326.263197 10.241619 326.263197 11.241619 
L 326.263197 25.419744 
Q 326.263197 26.419744 327.263197 26.419744 
z
" style="fill: #ffffff; opacity: 0.8; stroke: #cccccc; stroke-linejoin: miter"/>
    </g>
    <g id="line2d_17">
     <path d="M 328.263197 14.290837 
L 333.263197 14.290837 
L 338.263197 14.290837 
" style="fill: none; stroke-dasharray: 4.625,2; stroke-dashoffset: 0; stroke: #6c6c6c; stroke-width: 1.25"/>
    </g>
    <g id="text_17">
     <text style="font-size: 5px; font-family: 'Arial', 'Helvetica', 'DejaVu Sans', sans-serif; text-anchor: start" x="342.263197" y="16.040837" transform="rotate(-0 342.263197 16.040837)">Moving-average smooth</text>
    </g>
    <g id="line2d_18">
     <path d="M 328.263197 21.6299 
L 333.263197 21.6299 
L 338.263197 21.6299 
" style="fill: none; stroke-dasharray: 4.995,2.16; stroke-dashoffset: 0; stroke: #2c5aa0; stroke-width: 1.35"/>
    </g>
    <g id="text_18">
     <text style="font-size: 5px; font-family: 'Arial', 'Helvetica', 'DejaVu Sans', sans-serif; text-anchor: start" x="342.263197" y="23.3799" transform="rotate(-0 342.263197 23.3799)">Geodesic optimized</text>
    </g>
   </g>
  </g>
 </g>
 <defs>
  <clipPath id="pbaefdb3e40">
   <rect x="60.104088" y="7.741619" width="347.30989" height="129.156325"/>
  </clipPath>
 </defs>
</svg>
