<?xml version="1.0" encoding="utf-8" standalone="no"?>
<!DOCTYPE svg PUBLIC "-//W3C//DTD SVG 1.1//EN"
  "http://www.w3.org/Graphics/SVG/1.1/DTD/svg11.dtd">
<svg xmlns:xlink="http://www.w3.org/1999/xlink" width="420.881054pt" height="169.317188pt" viewBox="0 0 420.881054 169.317188" xmlns="http://www.w3.org/2000/svg" version="1.1">
 <metadata>
  <rdf:RDF xmlns:dc="http://purl.org/dc/elements/1.1/" xmlns:cc="http://creativecommons.org/ns#" xmlns:rdf="http://www.w3.org/1999/02/22-rdf-syntax-ns#">
   <cc:Work>
    <dc:type rdf:resource="http://purl.org/dc/dcmitype/StillImage"/>
    <dc:date>2026-06-15T20:39:30.995115</dc:date>
    <dc:format>image/svg+xml</dc:format>
    <dc:creator>
     <cc:Agent>
      <dc:title>Matplotlib v3.10.8, https://matplotlib.org/</dc:title>
     </cc:Agent>
    </dc:creator>
   </cc:Work>
  </rdf:RDF>
 </metadata>
 <defs>
  <style type="text/css">*{stroke-linejoin: round; stroke-linecap: butt}</style>
 </defs>
 <g id="figure_1">
  <g id="patch_1">
   <path d="M 0 169.317188 
L 420.881054 169.317188 
L 420.881054 0 
L 0 0 
z
" style="fill: #ffffff"/>
  </g>
  <g id="axes_1">
   <g id="patch_2">
    <path d="M 55.889771 137.1 
L 408.11496 137.1 
L 408.11496 7.2 
L 55.889771 7.2 
z
" style="fill: #ffffff"/>
   </g>
   <g id="matplotlib.axis_1">
    <g id="xtick_1">
     <g id="line2d_1">
      <defs>
       <path id="m2a10454abe" d="M 0 0 
L 0 3 
" style="stroke: #222222; stroke-width: 0.8"/>
      </defs>
      <g>
       <use xlink:href="#m2a10454abe" x="55.889771" y="137.1" style="fill: #222222; stroke: #222222; stroke-width: 0.8"/>
      </g>
     </g>
     <g id="text_1">
      <text style="font-size: 7px; font-family: 'Arial', 'Helvetica', 'DejaVu Sans', sans-serif; text-anchor: middle; fill: #222222" x="55.889771" y="148.918906" transform="rotate(-0 55.889771 148.918906)">0.0</text>
     </g>
    </g>
    <g id="xtick_2">
     <g id="line2d_2">
      <g>
       <use xlink:href="#m2a10454abe" x="126.334809" y="137.1" style="fill: #222222; stroke: #222222; stroke-width: 0.8"/>
      </g>
     </g>
     <g id="text_2">
      <text style="font-size: 7px; font-family: 'Arial', 'Helvetica', 'DejaVu Sans', sans-serif; text-anchor: middle; fill: #222222" x="126.334809" y="148.918906" transform="rotate(-0 126.334809 148.918906)">0.2</text>
     </g>
    </g>
    <g id="xtick_3">
     <g id="line2d_3">
      <g>
       <use xlink:href="#m2a10454abe" x="196.779846" y="137.1" style="fill: #222222; stroke: #222222; stroke-width: 0.8"/>
      </g>
     </g>
     <g id="text_3">
      <text style="font-size: 7px; font-family: 'Arial', 'Helvetica', 'DejaVu Sans', sans-serif; text-anchor: middle; fill: #222222" x="196.779846" y="148.918906" transform="rotate(-0 196.779846 148.918906)">0.4</text>
     </g>
    </g>
    <g id="xtick_4">
     <g id="line2d_4">
      <g>
       <use xlink:href="#m2a10454abe" x="267.224884" y="137.1" style="fill: #222222; stroke: #222222; stroke-width: 0.8"/>
      </g>
     </g>
     <g id="text_4">
      <text style="font-size: 7px; font-family: 'Arial', 'Helvetica', 'DejaVu Sans', sans-serif; text-anchor: middle; fill: #222222" x="267.224884" y="148.918906" transform="rotate(-0 267.224884 148.918906)">0.6</text>
     </g>
    </g>
    <g id="xtick_5">
     <g id="line2d_5">
      <g>
       <use xlink:href="#m2a10454abe" x="337.669922" y="137.1" style="fill: #222222; stroke: #222222; stroke-width: 0.8"/>
      </g>
     </g>
     <g id="text_5">
      <text style="font-size: 7px; font-family: 'Arial', 'Helvetica', 'DejaVu Sans', sans-serif; text-anchor: middle; fill: #222222" x="337.669922" y="148.918906" transform="rotate(-0 337.669922 148.918906)">0.8</text>
     </g>
    </g>
    <g id="xtick_6">
     <g id="line2d_6">
      <g>
       <use xlink:href="#m2a10454abe" x="408.11496" y="137.1" style="fill: #222222; stroke: #222222; stroke-width: 0.8"/>
      </g>
     </g>
     <g id="text_6">
      <text style="font-size: 7px; font-family: 'Arial', 'Helvetica', 'DejaVu Sans', sans-serif; text-anchor: middle; fill: #222222" x="408.11496" y="148.918906" transform="rotate(-0 408.11496 148.918906)">1.0</text>
     </g>
    </g>
    <g id="text_7">
     <text style="font-size: 8px; font-family: 'Arial', 'Helvetica', 'DejaVu Sans', sans-serif; text-anchor: middle" x="232.002365" y="160.453438" transform="rotate(-0 232.002365 160.453438)">Normalized arc length</text>
    </g>
   </g>
   <g id="matplotlib.axis_2">
    <g id="ytick_1">
     <g id="line2d_7">
      <defs>
       <path id="m5f7987024d" d="M 0 0 
L -3 0 
" style="stroke: #222222; stroke-width: 0.8"/>
      </defs>
      <g>
       <use xlink:href="#m5f7987024d" x="55.889771" y="131.201058" style="fill: #222222; stroke: #222222; stroke-width: 0.8"/>
      </g>
     </g>
     <g id="text_8">
      <text style="font-size: 7px; font-family: 'Arial', 'Helvetica', 'DejaVu Sans', sans-serif; text-anchor: end; fill: #222222" x="49.389771" y="133.860511" transform="rotate(-0 49.389771 133.860511)">0</text>
     </g>
    </g>
    <g id="ytick_2">
     <g id="line2d_8">
      <g>
       <use xlink:href="#m5f7987024d" x="55.889771" y="108.546827" style="fill: #222222; stroke: #222222; stroke-width: 0.8"/>
      </g>
     </g>
     <g id="text_9">
      <text style="font-size: 7px; font-family: 'Arial', 'Helvetica', 'DejaVu Sans', sans-serif; text-anchor: end; fill: #222222" x="49.389771" y="111.20628" transform="rotate(-0 49.389771 111.20628)">50</text>
     </g>
    </g>
    <g id="ytick_3">
     <g id="line2d_9">
      <g>
       <use xlink:href="#m5f7987024d" x="55.889771" y="85.892596" style="fill: #222222; stroke: #222222; stroke-width: 0.8"/>
      </g>
     </g>
     <g id="text_10">
      <text style="font-size: 7px; font-family: 'Arial', 'Helvetica', 'DejaVu Sans', sans-serif; text-anchor: end; fill: #222222" x="49.389771" y="88.552049" transform="rotate(-0 49.389771 88.552049)">100</text>
     </g>
    </g>
    <g id="ytick_4">
     <g id="line2d_10">
      <g>
       <use xlink:href="#m5f7987024d" x="55.889771" y="63.238365" style="fill: #222222; stroke: #222222; stroke-width: 0.8"/>
      </g>
     </g>
     <g id="text_11">
      <text style="font-size: 7px; font-family: 'Arial', 'Helvetica', 'DejaVu Sans', sans-serif; text-anchor: end; fill: #222222" x="49.389771" y="65.897818" transform="rotate(-0 49.389771 65.897818)">150</text>
     </g>
    </g>
    <g id="ytick_5">
     <g id="line2d_11">
      <g>
       <use xlink:href="#m5f7987024d" x="55.889771" y="40.584134" style="fill: #222222; stroke: #222222; stroke-width: 0.8"/>
      </g>
     </g>
     <g id="text_12">
      <text style="font-size: 7px; font-family: 'Arial', 'Helvetica', 'DejaVu Sans', sans-serif; text-anchor: end; fill: #222222" x="49.389771" y="43.243588" transform="rotate(-0 49.389771 43.243588)">200</text>
     </g>
    </g>
    <g id="ytick_6">
     <g id="line2d_12">
      <g>
       <use xlink:href="#m5f7987024d" x="55.889771" y="17.929904" style="fill: #222222; stroke: #222222; stroke-width: 0.8"/>
      </g>
     </g>
     <g id="text_13">
      <text style="font-size: 7px; font-family: 'Arial', 'Helvetica', 'DejaVu Sans', sans-serif; text-anchor: end; fill: #222222" x="49.389771" y="20.589357" transform="rotate(-0 49.389771 20.589357)">250</text>
     </g>
    </g>
    <g id="text_14">
     <!-- $|\kappa_g|$ -->
     <g transform="translate(7.2 67.99)">
      <text>
       <tspan x="0" y="-0.25" style="font-size: 13px; font-family: 'cmsy10'">j</tspan>
       <tspan x="16.259572" y="-0.25" style="font-size: 13px; font-family: 'cmsy10'">j</tspan>
       <tspan x="3.599121" y="-0.25" style="font-size: 13px; font-family: 'cmmi10'">∙</tspan>
       <tspan x="11.089355" y="1.960812" style="font-size: 9.1px; font-family: 'cmmi10'">g</tspan>
      </text>
     </g>
    </g>
   </g>
   <g id="line2d_13">
    <path d="M 61.38482 114.366088 
L 66.116054 114.604448 
L 71.465581 124.310098 
L 75.579428 107.44902 
L 80.662087 116.651203 
L 85.612802 129.621906 
L 89.557853 116.522872 
L 94.656111 129.854916 
L 98.792079 125.087684 
L 103.208512 63.657198 
L 114.661367 36.978192 
L 120.284673 129.521991 
L 125.547988 128.85094 
L 130.552518 131.185372 
L 135.532461 123.856915 
L 140.476043 110.896078 
L 145.546781 128.69812 
L 150.519655 120.49343 
L 155.620502 115.682979 
L 161.446257 118.601745 
L 166.86535 60.585603 
L 178.035199 37.858326 
L 183.994913 123.721418 
L 190.610568 121.022557 
L 195.826127 120.542992 
L 200.888636 131.083983 
L 205.674221 119.460649 
L 210.574473 127.027086 
L 215.482954 129.095295 
L 220.64232 129.898727 
L 226.517498 131.195455 
L 232.481994 42.995691 
L 243.286052 43.670674 
L 249.25032 131.145315 
L 253.882965 115.864107 
L 258.933543 120.016609 
L 263.869054 128.983588 
L 268.666989 127.611891 
L 273.521979 122.108546 
L 279.584053 124.501289 
L 284.974067 131.10343 
L 290.451432 121.722553 
L 296.434696 55.07109 
L 306.988884 51.177569 
L 312.582669 128.502341 
L 318.388431 126.190279 
L 323.564882 127.776541 
L 328.523429 126.442542 
L 334.433356 120.338395 
L 339.305678 128.442642 
L 344.320013 128.101956 
L 349.590419 120.791868 
L 354.050402 46.025681 
L 367.467512 92.742901 
L 371.628531 103.534598 
L 376.040145 123.335059 
L 381.1802 116.320275 
L 385.17171 129.563993 
L 390.178955 109.141788 
L 395.826516 131.190603 
L 402.075659 121.872708 
" clip-path="url(#p1335fa61fb)" style="fill: none; stroke: #c73e3a; stroke-width: 1.55; stroke-linecap: square"/>
   </g>
   <g id="line2d_14">
    <path d="M 67.471213 129.230258 
L 70.707459 131.07519 
L 77.547274 128.346151 
L 83.481957 129.093312 
L 90.03187 129.309186 
L 96.466036 127.700999 
L 102.761326 125.448285 
L 108.498177 118.089424 
L 113.241284 94.291211 
L 116.876917 42.334177 
L 120.148017 28.912626 
L 123.723686 91.731655 
L 128.503604 114.999494 
L 134.344259 122.131493 
L 140.922297 123.490274 
L 147.848628 129.03093 
L 154.822615 126.762747 
L 161.671147 124.948835 
L 167.873804 119.090793 
L 172.886226 92.174195 
L 176.473008 13.104545 
L 179.663297 27.220084 
L 183.560836 100.149311 
L 188.930555 119.161603 
L 195.360211 124.21223 
L 202.338226 126.375553 
L 209.361677 130.992703 
L 216.275119 127.520915 
L 222.959172 125.436215 
L 229.029482 119.5225 
L 234.063022 97.080998 
L 237.771538 22.8444 
L 240.896879 15.068308 
L 244.409626 93.448653 
L 249.193245 119.098536 
L 255.167728 124.31976 
L 261.846976 127.836515 
L 268.772488 129.056285 
L 275.867533 124.856803 
L 282.943891 124.296722 
L 289.339138 118.041376 
L 294.559182 95.607295 
L 298.374348 24.207414 
L 301.596744 25.286031 
L 305.412781 99.824806 
L 310.683343 120.926424 
L 317.110347 126.684282 
L 324.201117 128.13795 
L 331.396824 122.585095 
L 337.957017 118.854536 
L 343.6302 108.856232 
L 348.183589 76.906329 
L 351.703329 43.955439 
L 355.603433 72.822722 
L 359.888347 103.555162 
L 365.112343 121.14139 
L 371.249845 127.938968 
L 377.909113 128.00809 
L 384.023312 125.77809 
L 391.392014 130.335014 
L 394.898465 126.960122 
" clip-path="url(#p1335fa61fb)" style="fill: none; stroke-dasharray: 4.995,2.16; stroke-dashoffset: 0; stroke: #6c6c6c; stroke-width: 1.35"/>
   </g>
   <g id="line2d_15">
    <path d="M 62.405176 126.637419 
L 64.47363 130.629965 
L 71.081957 121.671579 
L 77.064594 130.92604 
L 79.99786 124.852985 
L 84.854084 129.621906 
L 88.723839 116.522872 
L 93.724789 127.194765 
L 96.819874 126.50618 
L 101.147363 70.743302 
L 112.698184 99.232391 
L 115.040931 90.088669 
L 126.863728 114.181687 
L 129.871145 122.892847 
L 134.720371 119.201294 
L 138.524375 129.562074 
L 144.445735 124.137624 
L 149.323695 129.88951 
L 152.249471 126.245031 
L 161.071053 101.121906 
L 166.099791 86.837696 
L 176.0759 95.681454 
L 178.923366 95.576344 
L 191.559204 127.778 
L 195.599552 131.1522 
L 199.601811 113.315388 
L 203.365458 123.372182 
L 209.976859 130.418235 
L 213.865265 131.183238 
L 217.772872 122.482207 
L 228.294652 107.701403 
L 230.970046 79.195613 
L 242.531334 87.132687 
L 246.402726 101.970441 
L 255.221094 124.339352 
L 259.147891 131.191065 
L 263.055484 128.145614 
L 267.761844 126.232206 
L 271.620021 124.020957 
L 278.45778 124.255964 
L 282.412665 129.818444 
L 293.517879 86.331972 
L 296.070153 99.941804 
L 306.4229 91.208083 
L 310.866777 97.898882 
L 321.378612 123.777743 
L 323.612284 128.233266 
L 329.499318 120.789893 
L 333.313507 123.148733 
L 339.083603 129.436033 
L 343.014776 119.9864 
L 350.329425 107.364972 
L 354.232799 81.840416 
L 368.228894 97.466704 
L 370.209613 111.634606 
L 378.890912 123.845813 
L 381.838771 120.387161 
L 385.754099 122.044827 
L 391.800524 129.108225 
L 396.079432 130.242908 
L 403.044311 122.855099 
" clip-path="url(#p1335fa61fb)" style="fill: none; stroke: #1b8a3a; stroke-width: 1.75; stroke-linecap: square"/>
   </g>
   <g id="patch_3">
    <path d="M 55.889771 137.1 
L 55.889771 7.2 
" style="fill: none; stroke: #222222; stroke-width: 0.8; stroke-linejoin: miter; stroke-linecap: square"/>
   </g>
   <g id="patch_4">
    <path d="M 55.889771 137.1 
L 408.11496 137.1 
" style="fill: none; stroke: #222222; stroke-width: 0.8; stroke-linejoin: miter; stroke-linecap: square"/>
   </g>
   <g id="legend_1">
    <g id="patch_5">
     <path d="M 327.964179 33.217188 
L 404.61496 33.217188 
Q 405.61496 33.217188 405.61496 32.217188 
L 405.61496 10.7 
Q 405.61496 9.7 404.61496 9.7 
L 327.964179 9.7 
Q 326.964179 9.7 326.964179 10.7 
L 326.964179 32.217188 
Q 326.964179 33.217188 327.964179 33.217188 
z
" style="fill: #ffffff; opacity: 0.8; stroke: #cccccc; stroke-linejoin: miter"/>
    </g>
    <g id="line2d_16">
     <path d="M 328.964179 13.749219 
L 333.964179 13.749219 
L 338.964179 13.749219 
" style="fill: none; stroke: #c73e3a; stroke-width: 1.55; stroke-linecap: square"/>
    </g>
    <g id="text_15">
     <text style="font-size: 5px; font-family: 'Arial', 'Helvetica', 'DejaVu Sans', sans-serif; text-anchor: start" x="342.964179" y="15.499219" transform="rotate(-0 342.964179 15.499219)">Original</text>
    </g>
    <g id="line2d_17">
     <path d="M 328.964179 21.088281 
L 333.964179 21.088281 
L 338.964179 21.088281 
" style="fill: none; stroke-dasharray: 4.995,2.16; stroke-dashoffset: 0; stroke: #6c6c6c; stroke-width: 1.35"/>
    </g>
    <g id="text_16">
     <text style="font-size: 5px; font-family: 'Arial', 'Helvetica', 'DejaVu Sans', sans-serif; text-anchor: start" x="342.964179" y="22.838281" transform="rotate(-0 342.964179 22.838281)">Moving-average smooth</text>
    </g>
    <g id="line2d_18">
     <path d="M 328.964179 28.427344 
L 333.964179 28.427344 
L 338.964179 28.427344 
" style="fill: none; stroke: #1b8a3a; stroke-width: 1.75; stroke-linecap: square"/>
    </g>
    <g id="text_17">
     <text style="font-size: 5px; font-family: 'Arial', 'Helvetica', 'DejaVu Sans', sans-serif; text-anchor: start" x="342.964179" y="30.177344" transform="rotate(-0 342.964179 30.177344)">Geodesic optimized</text>
    </g>
   </g>
  </g>
 </g>
 <defs>
  <clipPath id="p1335fa61fb">
   <rect x="55.889771" y="7.2" width="352.225189" height="129.9"/>
  </clipPath>
 </defs>
</svg>
