<?xml version="1.0" encoding="utf-8" standalone="no"?>
<!DOCTYPE svg PUBLIC "-//W3C//DTD SVG 1.1//EN"
  "http://www.w3.org/Graphics/SVG/1.1/DTD/svg11.dtd">
<svg xmlns:xlink="http://www.w3.org/1999/xlink" width="420.861956pt" height="169.200156pt" viewBox="0 0 420.861956 169.200156" xmlns="http://www.w3.org/2000/svg" version="1.1">
 <metadata>
  <rdf:RDF xmlns:dc="http://purl.org/dc/elements/1.1/" xmlns:cc="http://creativecommons.org/ns#" xmlns:rdf="http://www.w3.org/1999/02/22-rdf-syntax-ns#">
   <cc:Work>
    <dc:type rdf:resource="http://purl.org/dc/dcmitype/StillImage"/>
    <dc:date>2026-06-23T12:37:50.574325</dc:date>
    <dc:format>image/svg+xml</dc:format>
    <dc:creator>
     <cc:Agent>
      <dc:title>Matplotlib v3.11.0, https://matplotlib.org/</dc:title>
     </cc:Agent>
    </dc:creator>
   </cc:Work>
  </rdf:RDF>
 </metadata>
 <defs>
  <style type="text/css">*{stroke-linejoin: round; stroke-linecap: butt}</style>
 </defs>
 <g id="figure_1">
  <g id="patch_1">
   <path d="M 0 169.200156 
L 420.861956 169.200156 
L 420.861956 0 
L 0 0 
z
" style="fill: #ffffff"/>
  </g>
  <g id="axes_1">
   <g id="patch_2">
    <path d="M 55.957356 137.422852 
L 408.796956 137.422852 
L 408.796956 7.2 
L 55.957356 7.2 
z
" style="fill: #ffffff"/>
   </g>
   <g id="matplotlib.axis_1">
    <g id="xtick_1">
     <g id="line2d_1">
      <defs>
       <path id="m7eaaf8098d" d="M 0 0 
L 0 3 
" style="stroke: #222222; stroke-width: 0.8"/>
      </defs>
      <g>
       <use xlink:href="#m7eaaf8098d" x="55.957356" y="137.422852" style="fill: #222222; stroke: #222222; stroke-width: 0.8"/>
      </g>
     </g>
     <g id="text_1">
      <text style="font-size: 7px; font-family: 'Arial', 'Helvetica', 'DejaVu Sans', sans-serif; text-anchor: middle; fill: #222222" x="55.957356" y="149.019043" transform="rotate(-0 55.957356 149.019043)">0.0</text>
     </g>
    </g>
    <g id="xtick_2">
     <g id="line2d_2">
      <g>
       <use xlink:href="#m7eaaf8098d" x="126.525276" y="137.422852" style="fill: #222222; stroke: #222222; stroke-width: 0.8"/>
      </g>
     </g>
     <g id="text_2">
      <text style="font-size: 7px; font-family: 'Arial', 'Helvetica', 'DejaVu Sans', sans-serif; text-anchor: middle; fill: #222222" x="126.525276" y="149.019043" transform="rotate(-0 126.525276 149.019043)">0.2</text>
     </g>
    </g>
    <g id="xtick_3">
     <g id="line2d_3">
      <g>
       <use xlink:href="#m7eaaf8098d" x="197.093196" y="137.422852" style="fill: #222222; stroke: #222222; stroke-width: 0.8"/>
      </g>
     </g>
     <g id="text_3">
      <text style="font-size: 7px; font-family: 'Arial', 'Helvetica', 'DejaVu Sans', sans-serif; text-anchor: middle; fill: #222222" x="197.093196" y="149.019043" transform="rotate(-0 197.093196 149.019043)">0.4</text>
     </g>
    </g>
    <g id="xtick_4">
     <g id="line2d_4">
      <g>
       <use xlink:href="#m7eaaf8098d" x="267.661116" y="137.422852" style="fill: #222222; stroke: #222222; stroke-width: 0.8"/>
      </g>
     </g>
     <g id="text_4">
      <text style="font-size: 7px; font-family: 'Arial', 'Helvetica', 'DejaVu Sans', sans-serif; text-anchor: middle; fill: #222222" x="267.661116" y="149.019043" transform="rotate(-0 267.661116 149.019043)">0.6</text>
     </g>
    </g>
    <g id="xtick_5">
     <g id="line2d_5">
      <g>
       <use xlink:href="#m7eaaf8098d" x="338.229036" y="137.422852" style="fill: #222222; stroke: #222222; stroke-width: 0.8"/>
      </g>
     </g>
     <g id="text_5">
      <text style="font-size: 7px; font-family: 'Arial', 'Helvetica', 'DejaVu Sans', sans-serif; text-anchor: middle; fill: #222222" x="338.229036" y="149.019043" transform="rotate(-0 338.229036 149.019043)">0.8</text>
     </g>
    </g>
    <g id="xtick_6">
     <g id="line2d_6">
      <g>
       <use xlink:href="#m7eaaf8098d" x="408.796956" y="137.422852" style="fill: #222222; stroke: #222222; stroke-width: 0.8"/>
      </g>
     </g>
     <g id="text_6">
      <text style="font-size: 7px; font-family: 'Arial', 'Helvetica', 'DejaVu Sans', sans-serif; text-anchor: middle; fill: #222222" x="408.796956" y="149.019043" transform="rotate(-0 408.796956 149.019043)">1.0</text>
     </g>
    </g>
    <g id="text_7">
     <text style="font-size: 8px; font-family: 'Arial', 'Helvetica', 'DejaVu Sans', sans-serif; text-anchor: middle" x="232.377156" y="160.316406" transform="rotate(-0 232.377156 160.316406)">Normalized arc length</text>
    </g>
   </g>
   <g id="matplotlib.axis_2">
    <g id="ytick_1">
     <g id="line2d_7">
      <defs>
       <path id="mbd1ff85e24" d="M 0 0 
L -3 0 
" style="stroke: #222222; stroke-width: 0.8"/>
      </defs>
      <g>
       <use xlink:href="#mbd1ff85e24" x="55.957356" y="131.503631" style="fill: #222222; stroke: #222222; stroke-width: 0.8"/>
      </g>
     </g>
     <g id="text_8">
      <text style="font-size: 7px; font-family: 'Arial', 'Helvetica', 'DejaVu Sans', sans-serif; text-anchor: end; fill: #222222" x="49.457356" y="134.051727" transform="rotate(-0 49.457356 134.051727)">0</text>
     </g>
    </g>
    <g id="ytick_2">
     <g id="line2d_8">
      <g>
       <use xlink:href="#mbd1ff85e24" x="55.957356" y="114.51818" style="fill: #222222; stroke: #222222; stroke-width: 0.8"/>
      </g>
     </g>
     <g id="text_9">
      <text style="font-size: 7px; font-family: 'Arial', 'Helvetica', 'DejaVu Sans', sans-serif; text-anchor: end; fill: #222222" x="49.457356" y="117.066276" transform="rotate(-0 49.457356 117.066276)">100</text>
     </g>
    </g>
    <g id="ytick_3">
     <g id="line2d_9">
      <g>
       <use xlink:href="#mbd1ff85e24" x="55.957356" y="97.532729" style="fill: #222222; stroke: #222222; stroke-width: 0.8"/>
      </g>
     </g>
     <g id="text_10">
      <text style="font-size: 7px; font-family: 'Arial', 'Helvetica', 'DejaVu Sans', sans-serif; text-anchor: end; fill: #222222" x="49.457356" y="100.080824" transform="rotate(-0 49.457356 100.080824)">200</text>
     </g>
    </g>
    <g id="ytick_4">
     <g id="line2d_10">
      <g>
       <use xlink:href="#mbd1ff85e24" x="55.957356" y="80.547278" style="fill: #222222; stroke: #222222; stroke-width: 0.8"/>
      </g>
     </g>
     <g id="text_11">
      <text style="font-size: 7px; font-family: 'Arial', 'Helvetica', 'DejaVu Sans', sans-serif; text-anchor: end; fill: #222222" x="49.457356" y="83.095373" transform="rotate(-0 49.457356 83.095373)">300</text>
     </g>
    </g>
    <g id="ytick_5">
     <g id="line2d_11">
      <g>
       <use xlink:href="#mbd1ff85e24" x="55.957356" y="63.561826" style="fill: #222222; stroke: #222222; stroke-width: 0.8"/>
      </g>
     </g>
     <g id="text_12">
      <text style="font-size: 7px; font-family: 'Arial', 'Helvetica', 'DejaVu Sans', sans-serif; text-anchor: end; fill: #222222" x="49.457356" y="66.109922" transform="rotate(-0 49.457356 66.109922)">400</text>
     </g>
    </g>
    <g id="ytick_6">
     <g id="line2d_12">
      <g>
       <use xlink:href="#mbd1ff85e24" x="55.957356" y="46.576375" style="fill: #222222; stroke: #222222; stroke-width: 0.8"/>
      </g>
     </g>
     <g id="text_13">
      <text style="font-size: 7px; font-family: 'Arial', 'Helvetica', 'DejaVu Sans', sans-serif; text-anchor: end; fill: #222222" x="49.457356" y="49.124471" transform="rotate(-0 49.457356 49.124471)">500</text>
     </g>
    </g>
    <g id="ytick_7">
     <g id="line2d_13">
      <g>
       <use xlink:href="#mbd1ff85e24" x="55.957356" y="29.590924" style="fill: #222222; stroke: #222222; stroke-width: 0.8"/>
      </g>
     </g>
     <g id="text_14">
      <text style="font-size: 7px; font-family: 'Arial', 'Helvetica', 'DejaVu Sans', sans-serif; text-anchor: end; fill: #222222" x="49.457356" y="32.13902" transform="rotate(-0 49.457356 32.13902)">600</text>
     </g>
    </g>
    <g id="ytick_8">
     <g id="line2d_14">
      <g>
       <use xlink:href="#mbd1ff85e24" x="55.957356" y="12.605473" style="fill: #222222; stroke: #222222; stroke-width: 0.8"/>
      </g>
     </g>
     <g id="text_15">
      <text style="font-size: 7px; font-family: 'Arial', 'Helvetica', 'DejaVu Sans', sans-serif; text-anchor: end; fill: #222222" x="49.457356" y="15.153569" transform="rotate(-0 49.457356 15.153569)">700</text>
     </g>
    </g>
    <g id="text_16">
     <!-- $|\kappa_g|$ -->
     <g transform="translate(7.2 68.411426)">
      <text>
       <tspan x="0" y="-0.25" style="font-size: 13px; font-family: 'cmsy10'">j</tspan>
       <tspan x="16.174172" y="-0.25" style="font-size: 13px; font-family: 'cmsy10'">j</tspan>
       <tspan x="3.599121" y="-0.25" style="font-size: 13px; font-family: 'cmmi10'">∙</tspan>
       <tspan x="11.089355" y="1.699995" style="font-size: 9.1px; font-family: 'cmmi10'">g</tspan>
      </text>
     </g>
    </g>
   </g>
   <g id="line2d_15">
    <path d="M 62.915117 126.489876 
L 70.437328 129.533533 
L 76.672149 127.779601 
L 82.536837 123.003244 
L 88.954684 130.219836 
L 95.754675 127.20804 
L 102.026481 124.2443 
L 108.471827 126.852116 
L 115.722139 126.156038 
L 124.185729 130.075642 
L 131.317162 94.071872 
L 146.723854 106.627156 
L 154.030192 131.248807 
L 162.468494 131.48323 
L 170.117167 130.325794 
L 178.468443 131.009958 
L 185.629598 126.553886 
L 191.694688 129.284271 
L 197.77678 130.248786 
L 204.864229 130.601108 
L 210.92928 126.139127 
L 218.59742 128.683442 
L 226.339781 94.777634 
L 240.929363 108.737724 
L 248.272311 127.656728 
L 254.566491 126.819717 
L 261.470232 129.219196 
L 268.461384 131.075782 
L 274.367178 131.503631 
L 280.272973 127.915471 
L 289.022745 131.081076 
L 297.853244 130.444287 
L 304.852616 130.901248 
L 313.233815 130.94771 
L 322.471374 77.837063 
L 340.154829 119.19295 
L 346.717917 130.654453 
L 356.245069 123.136988 
L 362.377628 125.957753 
L 370.9444 126.248831 
L 374.878094 116.858891 
L 386.370432 129.879931 
L 388.859495 131.027415 
L 392.499675 122.008161 
L 405.012195 125.225523 
" clip-path="url(#p72b6bd8991)" style="fill: none; stroke: #c73e3a; stroke-width: 1.55; stroke-linecap: square"/>
   </g>
   <g id="line2d_16">
    <path d="M 71.002738 128.861581 
L 75.175263 131.064109 
L 83.938772 129.257447 
L 91.582769 130.233662 
L 100.109422 129.693423 
L 108.810556 130.136215 
L 117.693246 130.509122 
L 126.557444 129.578636 
L 134.696859 127.570576 
L 141.28435 117.284242 
L 145.900609 84.673932 
L 150.059622 97.187203 
L 155.371273 120.786038 
L 162.736627 127.648861 
L 171.627749 128.893137 
L 181.268735 129.053706 
L 190.793919 129.946275 
L 199.841355 129.875481 
L 208.67035 130.984621 
L 217.153907 129.662495 
L 224.671655 126.885977 
L 230.788031 116.697595 
L 235.288502 86.973332 
L 239.375394 96.951854 
L 244.250521 119.252881 
L 250.706305 127.208639 
L 258.527295 129.31633 
L 267.047868 129.983921 
L 275.689673 131.395073 
L 284.506911 131.099166 
L 293.989249 129.781891 
L 303.163962 128.780115 
L 311.15776 125.616667 
L 317.25 109.559362 
L 321.291082 70.624388 
L 325.921051 111.188704 
L 332.133534 125.759414 
L 340.23242 128.989462 
L 349.203382 130.529567 
L 358.324649 130.479458 
L 366.897731 130.256799 
L 375.40317 131.095376 
L 382.656847 130.585156 
L 390.906196 131.008337 
L 394.956242 129.515218 
" clip-path="url(#p72b6bd8991)" style="fill: none; stroke: #6c6c6c; stroke-width: 1.35; stroke-linecap: square"/>
   </g>
   <g id="line2d_17">
    <path d="M 64.647015 125.063454 
L 73.341726 126.586084 
L 80.631512 128.68249 
L 87.716915 130.150772 
L 95.674987 131.380931 
L 104.175345 130.487394 
L 111.923676 130.010344 
L 119.619749 129.866166 
L 127.65087 129.426813 
L 135.659229 127.26648 
L 140.806407 103.625238 
L 146.25067 61.782382 
L 150.79633 125.596996 
L 158.915266 129.818207 
L 168.148081 130.598588 
L 179.297125 130.837295 
L 189.086223 130.24796 
L 197.245025 130.05474 
L 205.246292 130.408929 
L 214.189799 131.270587 
L 221.14348 130.261296 
L 228.264239 125.352488 
L 232.672721 13.917743 
L 237.77497 112.957045 
L 243.452862 129.13797 
L 249.53853 130.465766 
L 257.056016 131.098037 
L 265.174639 131.20725 
L 272.251497 130.722827 
L 279.519595 130.985541 
L 290.52622 131.284416 
L 301.304858 131.216538 
L 308.938464 130.495382 
L 316.139161 124.494702 
L 320.578367 13.119221 
L 328.051843 122.211128 
L 333.926656 130.017593 
L 344.373344 130.636485 
L 351.824978 130.821016 
L 362.54677 130.693338 
L 367.434683 130.577594 
L 381.060364 130.569476 
L 383.90761 130.312105 
L 388.04568 130.372518 
L 403.199724 130.534539 
" clip-path="url(#p72b6bd8991)" style="fill: none; stroke: #4c78a8; stroke-width: 1.35; stroke-linecap: square"/>
   </g>
   <g id="line2d_18">
    <path d="M 64.154233 131.381312 
L 70.254817 129.130334 
L 75.026051 129.310469 
L 82.242031 129.603594 
L 87.01679 128.275026 
L 94.764623 130.193485 
L 101.599603 128.851833 
L 108.004663 128.807219 
L 113.629908 130.91103 
L 127.144721 121.63191 
L 131.145004 114.506924 
L 147.505492 116.857258 
L 151.252276 123.286881 
L 164.373002 129.775935 
L 173.24418 131.454474 
L 179.295389 129.569159 
L 185.76437 128.526104 
L 192.382562 129.339834 
L 198.426639 130.248786 
L 205.469788 128.038674 
L 209.073202 127.249662 
L 220.043289 124.698875 
L 222.752609 112.473907 
L 239.687359 115.550561 
L 243.506224 120.987012 
L 254.389456 129.345653 
L 259.405189 131.139091 
L 266.96313 129.853394 
L 271.837397 128.038338 
L 278.7297 129.401222 
L 287.424783 131.081076 
L 296.200088 129.70305 
L 302.364604 130.111729 
L 318.179033 118.160252 
L 322.375715 126.617813 
L 342.530215 119.18143 
L 347.287371 129.132957 
L 351.118881 131.42699 
L 362.433489 130.722699 
L 371.453758 127.061805 
L 375.0901 124.834898 
L 386.510606 129.879931 
L 388.984111 131.027415 
L 392.601539 122.008161 
L 405.035851 125.225523 
" clip-path="url(#p72b6bd8991)" style="fill: none; stroke: #4daf7c; stroke-width: 1.75; stroke-linecap: square"/>
   </g>
   <g id="patch_3">
    <path d="M 55.957356 137.422852 
L 55.957356 7.2 
" style="fill: none; stroke: #222222; stroke-width: 0.8; stroke-linejoin: miter; stroke-linecap: square"/>
   </g>
   <g id="patch_4">
    <path d="M 55.957356 137.422852 
L 408.796956 137.422852 
" style="fill: none; stroke: #222222; stroke-width: 0.8; stroke-linejoin: miter; stroke-linecap: square"/>
   </g>
   <g id="legend_1">
    <g id="patch_5">
     <path d="M 335.663362 39.972559 
L 405.296956 39.972559 
Q 406.296956 39.972559 406.296956 38.972559 
L 406.296956 10.7 
Q 406.296956 9.7 405.296956 9.7 
L 335.663362 9.7 
Q 334.663362 9.7 334.663362 10.7 
L 334.663362 38.972559 
Q 334.663362 39.972559 335.663362 39.972559 
z
" style="fill: #ffffff; opacity: 0.8; stroke: #cccccc; stroke-linejoin: miter"/>
    </g>
    <g id="line2d_19">
     <path d="M 336.663362 13.592969 
L 341.663362 13.592969 
L 346.663362 13.592969 
" style="fill: none; stroke: #c73e3a; stroke-width: 1.55; stroke-linecap: square"/>
    </g>
    <g id="text_17">
     <text style="font-size: 5px; font-family: 'Arial', 'Helvetica', 'DejaVu Sans', sans-serif; text-anchor: start" x="350.663362" y="15.342969" transform="rotate(-0 350.663362 15.342969)">Original</text>
    </g>
    <g id="line2d_20">
     <path d="M 336.663362 20.785449 
L 341.663362 20.785449 
L 346.663362 20.785449 
" style="fill: none; stroke: #6c6c6c; stroke-width: 1.35; stroke-linecap: square"/>
    </g>
    <g id="text_18">
     <text style="font-size: 5px; font-family: 'Arial', 'Helvetica', 'DejaVu Sans', sans-serif; text-anchor: start" x="350.663362" y="22.535449" transform="rotate(-0 350.663362 22.535449)">Moving-average smooth</text>
    </g>
    <g id="line2d_21">
     <path d="M 336.663362 27.97793 
L 341.663362 27.97793 
L 346.663362 27.97793 
" style="fill: none; stroke: #4c78a8; stroke-width: 1.35; stroke-linecap: square"/>
    </g>
    <g id="text_19">
     <text style="font-size: 5px; font-family: 'Arial', 'Helvetica', 'DejaVu Sans', sans-serif; text-anchor: start" x="350.663362" y="29.72793" transform="rotate(-0 350.663362 29.72793)">B-spline</text>
    </g>
    <g id="line2d_22">
     <path d="M 336.663362 35.170313 
L 341.663362 35.170313 
L 346.663362 35.170313 
" style="fill: none; stroke: #4daf7c; stroke-width: 1.75; stroke-linecap: square"/>
    </g>
    <g id="text_20">
     <text style="font-size: 5px; font-family: 'Arial', 'Helvetica', 'DejaVu Sans', sans-serif; text-anchor: start" x="350.663362" y="36.920313" transform="rotate(-0 350.663362 36.920313)">Geodesic optimized</text>
    </g>
   </g>
  </g>
 </g>
 <defs>
  <clipPath id="p72b6bd8991">
   <rect x="55.957356" y="7.2" width="352.8396" height="130.222852"/>
  </clipPath>
 </defs>
</svg>
