<?xml version="1.0" encoding="utf-8" standalone="no"?>
<!DOCTYPE svg PUBLIC "-//W3C//DTD SVG 1.1//EN"
  "http://www.w3.org/Graphics/SVG/1.1/DTD/svg11.dtd">
<svg xmlns:xlink="http://www.w3.org/1999/xlink" width="232.740766pt" height="182.768797pt" viewBox="0 0 232.740766 182.768797" xmlns="http://www.w3.org/2000/svg" version="1.1">
 <metadata>
  <rdf:RDF xmlns:dc="http://purl.org/dc/elements/1.1/" xmlns:cc="http://creativecommons.org/ns#" xmlns:rdf="http://www.w3.org/1999/02/22-rdf-syntax-ns#">
   <cc:Work>
    <dc:type rdf:resource="http://purl.org/dc/dcmitype/StillImage"/>
    <dc:date>2026-07-09T18:21:37.528631</dc:date>
    <dc:format>image/svg+xml</dc:format>
    <dc:creator>
     <cc:Agent>
      <dc:title>Matplotlib v3.10.8, https://matplotlib.org/</dc:title>
     </cc:Agent>
    </dc:creator>
   </cc:Work>
  </rdf:RDF>
 </metadata>
 <defs>
  <style type="text/css">*{stroke-linejoin: round; stroke-linecap: butt}</style>
 </defs>
 <g id="figure_1">
  <g id="patch_1">
   <path d="M 0 182.768797 
L 232.740766 182.768797 
L 232.740766 0 
L 0 0 
z
" style="fill: #ffffff"/>
  </g>
  <g id="axes_1">
   <g id="patch_2">
    <path d="M 49.548526 140.704951 
L 225.540766 140.704951 
L 225.540766 7.2 
L 49.548526 7.2 
z
" style="fill: #ffffff"/>
   </g>
   <g id="matplotlib.axis_1">
    <g id="xtick_1">
     <g id="line2d_1">
      <defs>
       <path id="mcc1b40157d" d="M 0 0 
L 0 3 
" style="stroke: #222222; stroke-width: 0.8"/>
      </defs>
      <g>
       <use xlink:href="#mcc1b40157d" x="78.880566" y="140.704951" style="fill: #222222; stroke: #222222; stroke-width: 0.8"/>
      </g>
     </g>
     <g id="text_1">
      <text style="font-size: 7px; font-family: 'Arial', 'Helvetica', 'DejaVu Sans', sans-serif; fill: #222222" transform="translate(66.579923 163.425479) rotate(-25)">Moving</text>
      <text style="font-size: 7px; font-family: 'Arial', 'Helvetica', 'DejaVu Sans', sans-serif; fill: #222222" transform="translate(68.366537 171.241161) rotate(-25)">average</text>
     </g>
    </g>
    <g id="xtick_2">
     <g id="line2d_2">
      <g>
       <use xlink:href="#mcc1b40157d" x="137.544646" y="140.704951" style="fill: #222222; stroke: #222222; stroke-width: 0.8"/>
      </g>
     </g>
     <g id="text_2">
      <text style="font-size: 7px; font-family: 'Arial', 'Helvetica', 'DejaVu Sans', sans-serif; fill: #222222" transform="translate(125.649355 163.880554) rotate(-25)">B-spline</text>
     </g>
    </g>
    <g id="xtick_3">
     <g id="line2d_3">
      <g>
       <use xlink:href="#mcc1b40157d" x="196.208726" y="140.704951" style="fill: #222222; stroke: #222222; stroke-width: 0.8"/>
      </g>
     </g>
     <g id="text_3">
      <text style="font-weight: 700; font-size: 7px; font-family: 'Arial', 'Helvetica', 'DejaVu Sans', sans-serif; fill: #222222" transform="translate(179.156411 167.145346) rotate(-25)">Geodesic</text>
      <text style="font-weight: 700; font-size: 7px; font-family: 'Arial', 'Helvetica', 'DejaVu Sans', sans-serif; fill: #222222" transform="translate(187.374907 171.961791) rotate(-25)">(Ours)</text>
     </g>
    </g>
   </g>
   <g id="matplotlib.axis_2">
    <g id="ytick_1">
     <g id="line2d_4">
      <defs>
       <path id="m51a481612c" d="M 0 0 
L -3 0 
" style="stroke: #222222; stroke-width: 0.8"/>
      </defs>
      <g>
       <use xlink:href="#m51a481612c" x="49.548526" y="117.747887" style="fill: #222222; stroke: #222222; stroke-width: 0.8"/>
      </g>
     </g>
     <g id="text_4">
      <text style="font-size: 7px; font-family: 'Arial', 'Helvetica', 'DejaVu Sans', sans-serif; text-anchor: end; fill: #222222" x="43.048526" y="120.40734" transform="rotate(-0 43.048526 120.40734)">2.5</text>
     </g>
    </g>
    <g id="ytick_2">
     <g id="line2d_5">
      <g>
       <use xlink:href="#m51a481612c" x="49.548526" y="88.348352" style="fill: #222222; stroke: #222222; stroke-width: 0.8"/>
      </g>
     </g>
     <g id="text_5">
      <text style="font-size: 7px; font-family: 'Arial', 'Helvetica', 'DejaVu Sans', sans-serif; text-anchor: end; fill: #222222" x="43.048526" y="91.007805" transform="rotate(-0 43.048526 91.007805)">3.0</text>
     </g>
    </g>
    <g id="ytick_3">
     <g id="line2d_6">
      <g>
       <use xlink:href="#m51a481612c" x="49.548526" y="58.948818" style="fill: #222222; stroke: #222222; stroke-width: 0.8"/>
      </g>
     </g>
     <g id="text_6">
      <text style="font-size: 7px; font-family: 'Arial', 'Helvetica', 'DejaVu Sans', sans-serif; text-anchor: end; fill: #222222" x="43.048526" y="61.608271" transform="rotate(-0 43.048526 61.608271)">3.5</text>
     </g>
    </g>
    <g id="ytick_4">
     <g id="line2d_7">
      <g>
       <use xlink:href="#m51a481612c" x="49.548526" y="29.549283" style="fill: #222222; stroke: #222222; stroke-width: 0.8"/>
      </g>
     </g>
     <g id="text_7">
      <text style="font-size: 7px; font-family: 'Arial', 'Helvetica', 'DejaVu Sans', sans-serif; text-anchor: end; fill: #222222" x="43.048526" y="32.208736" transform="rotate(-0 43.048526 32.208736)">4.0</text>
     </g>
    </g>
    <g id="text_8">
     <!-- $F_{t,95}$ -->
     <g transform="translate(7.2 60.706163)">
      <text>
       <tspan x="0" y="-0.859375" style="font-size: 9px; font-family: 'cmmi10'">F</tspan>
       <tspan x="5.787598" y="0.671188" style="font-size: 6.3px; font-family: 'cmmi10'">t</tspan>
       <tspan x="8.060889" y="0.671188" style="font-size: 6.3px; font-family: 'cmmi10'">;</tspan>
       <tspan x="10.91127" y="0.671188" style="font-size: 6.3px; font-family: 'cmr10'">9</tspan>
       <tspan x="14.06127" y="0.671188" style="font-size: 6.3px; font-family: 'cmr10'">5</tspan>
      </text>
     </g>
     <!-- $(\mathrm{N})$ -->
     <g transform="translate(9.225 71.702475)">
      <text>
       <tspan x="0" y="-0.25" style="font-size: 9px; font-family: 'cmr10'">(</tspan>
       <tspan x="3.493652" y="-0.25" style="font-size: 9px; font-family: 'cmr10'">N</tspan>
       <tspan x="10.243652" y="-0.25" style="font-size: 9px; font-family: 'cmr10'">)</tspan>
      </text>
     </g>
    </g>
   </g>
   <g id="patch_3">
    <path d="M 58.348138 73.059074 
L 99.412994 73.059074 
L 99.412994 35.608312 
L 58.348138 35.608312 
L 58.348138 73.059074 
z
" clip-path="url(#p4137ede38f)" style="fill: #8c8c8c; opacity: 0.45; stroke: #222222; stroke-width: 0.8; stroke-linejoin: miter"/>
   </g>
   <g id="line2d_8">
    <path d="M 78.880566 73.059074 
L 78.880566 97.437199 
" clip-path="url(#p4137ede38f)" style="fill: none; stroke: #222222; stroke-width: 0.8; stroke-linecap: square"/>
   </g>
   <g id="line2d_9">
    <path d="M 78.880566 35.608312 
L 78.880566 29.450825 
" clip-path="url(#p4137ede38f)" style="fill: none; stroke: #222222; stroke-width: 0.8; stroke-linecap: square"/>
   </g>
   <g id="line2d_10">
    <path d="M 68.614352 97.437199 
L 89.14678 97.437199 
" clip-path="url(#p4137ede38f)" style="fill: none; stroke: #222222; stroke-width: 0.8; stroke-linecap: square"/>
   </g>
   <g id="line2d_11">
    <path d="M 68.614352 29.450825 
L 89.14678 29.450825 
" clip-path="url(#p4137ede38f)" style="fill: none; stroke: #222222; stroke-width: 0.8; stroke-linecap: square"/>
   </g>
   <g id="patch_4">
    <path d="M 117.012218 90.495425 
L 158.077074 90.495425 
L 158.077074 43.718808 
L 117.012218 43.718808 
L 117.012218 90.495425 
z
" clip-path="url(#p4137ede38f)" style="fill: #4c78a8; opacity: 0.45; stroke: #222222; stroke-width: 0.8; stroke-linejoin: miter"/>
   </g>
   <g id="line2d_12">
    <path d="M 137.544646 90.495425 
L 137.544646 112.748195 
" clip-path="url(#p4137ede38f)" style="fill: none; stroke: #222222; stroke-width: 0.8; stroke-linecap: square"/>
   </g>
   <g id="line2d_13">
    <path d="M 137.544646 43.718808 
L 137.544646 34.902226 
" clip-path="url(#p4137ede38f)" style="fill: none; stroke: #222222; stroke-width: 0.8; stroke-linecap: square"/>
   </g>
   <g id="line2d_14">
    <path d="M 127.278432 112.748195 
L 147.81086 112.748195 
" clip-path="url(#p4137ede38f)" style="fill: none; stroke: #222222; stroke-width: 0.8; stroke-linecap: square"/>
   </g>
   <g id="line2d_15">
    <path d="M 127.278432 34.902226 
L 147.81086 34.902226 
" clip-path="url(#p4137ede38f)" style="fill: none; stroke: #222222; stroke-width: 0.8; stroke-linecap: square"/>
   </g>
   <g id="patch_5">
    <path d="M 175.676298 100.892851 
L 216.741154 100.892851 
L 216.741154 63.532367 
L 175.676298 63.532367 
L 175.676298 100.892851 
z
" clip-path="url(#p4137ede38f)" style="fill: #4daf7c; opacity: 0.45; stroke: #222222; stroke-width: 0.8; stroke-linejoin: miter"/>
   </g>
   <g id="line2d_16">
    <path d="M 196.208726 100.892851 
L 196.208726 118.454126 
" clip-path="url(#p4137ede38f)" style="fill: none; stroke: #222222; stroke-width: 0.8; stroke-linecap: square"/>
   </g>
   <g id="line2d_17">
    <path d="M 196.208726 63.532367 
L 196.208726 47.920783 
" clip-path="url(#p4137ede38f)" style="fill: none; stroke: #222222; stroke-width: 0.8; stroke-linecap: square"/>
   </g>
   <g id="line2d_18">
    <path d="M 185.942512 118.454126 
L 206.47494 118.454126 
" clip-path="url(#p4137ede38f)" style="fill: none; stroke: #222222; stroke-width: 0.8; stroke-linecap: square"/>
   </g>
   <g id="line2d_19">
    <path d="M 185.942512 47.920783 
L 206.47494 47.920783 
" clip-path="url(#p4137ede38f)" style="fill: none; stroke: #222222; stroke-width: 0.8; stroke-linecap: square"/>
   </g>
   <g id="line2d_20">
    <path d="M 58.348138 39.106839 
L 99.412994 39.106839 
" clip-path="url(#p4137ede38f)" style="fill: none; stroke: #222222"/>
   </g>
   <g id="line2d_21">
    <path d="M 117.012218 52.791225 
L 158.077074 52.791225 
" clip-path="url(#p4137ede38f)" style="fill: none; stroke: #222222"/>
   </g>
   <g id="line2d_22">
    <path d="M 175.676298 85.622192 
L 216.741154 85.622192 
" clip-path="url(#p4137ede38f)" style="fill: none; stroke: #222222"/>
   </g>
   <g id="patch_6">
    <path d="M 49.548526 140.704951 
L 49.548526 7.2 
" style="fill: none; stroke: #222222; stroke-width: 0.8; stroke-linejoin: miter; stroke-linecap: square"/>
   </g>
   <g id="patch_7">
    <path d="M 49.548526 140.704951 
L 225.540766 140.704951 
" style="fill: none; stroke: #222222; stroke-width: 0.8; stroke-linejoin: miter; stroke-linecap: square"/>
   </g>
   <g id="PathCollection_1">
    <defs>
     <path id="m788a431422" d="M 0 1.414214 
C 0.375054 1.414214 0.734797 1.265203 1 1 
C 1.265203 0.734797 1.414214 0.375054 1.414214 0 
C 1.414214 -0.375054 1.265203 -0.734797 1 -1 
C 0.734797 -1.265203 0.375054 -1.414214 0 -1.414214 
C -0.375054 -1.414214 -0.734797 -1.265203 -1 -1 
C -1.265203 -0.734797 -1.414214 -0.375054 -1.414214 0 
C -1.414214 0.375054 -1.265203 0.734797 -1 1 
C -0.734797 1.265203 -0.375054 1.414214 0 1.414214 
z
"/>
    </defs>
    <g clip-path="url(#p4137ede38f)">
     <use xlink:href="#m788a431422" x="79.101841" y="58.685757" style="fill: #8c8c8c; fill-opacity: 0.72"/>
     <use xlink:href="#m788a431422" x="78.648071" y="29.450825" style="fill: #8c8c8c; fill-opacity: 0.72"/>
     <use xlink:href="#m788a431422" x="80.00766" y="36.879012" style="fill: #8c8c8c; fill-opacity: 0.72"/>
     <use xlink:href="#m788a431422" x="79.065182" y="39.106839" style="fill: #8c8c8c; fill-opacity: 0.72"/>
     <use xlink:href="#m788a431422" x="77.937829" y="87.432391" style="fill: #8c8c8c; fill-opacity: 0.72"/>
     <use xlink:href="#m788a431422" x="79.516945" y="34.337612" style="fill: #8c8c8c; fill-opacity: 0.72"/>
     <use xlink:href="#m788a431422" x="81.175505" y="97.437199" style="fill: #8c8c8c; fill-opacity: 0.72"/>
    </g>
   </g>
   <g id="PathCollection_2">
    <defs>
     <path id="m785902f662" d="M 0 1.414214 
C 0.375054 1.414214 0.734797 1.265203 1 1 
C 1.265203 0.734797 1.414214 0.375054 1.414214 0 
C 1.414214 -0.375054 1.265203 -0.734797 1 -1 
C 0.734797 -1.265203 0.375054 -1.414214 0 -1.414214 
C -0.375054 -1.414214 -0.734797 -1.265203 -1 -1 
C -1.265203 -0.734797 -1.414214 -0.375054 -1.414214 0 
C -1.414214 0.375054 -1.265203 0.734797 -1 1 
C -0.734797 1.265203 -0.375054 1.414214 0 1.414214 
z
"/>
    </defs>
    <g clip-path="url(#p4137ede38f)">
     <use xlink:href="#m785902f662" x="139.211435" y="41.125241" style="fill: #4c78a8; fill-opacity: 0.72"/>
     <use xlink:href="#m785902f662" x="136.306126" y="46.312375" style="fill: #4c78a8; fill-opacity: 0.72"/>
     <use xlink:href="#m785902f662" x="135.317602" y="69.99348" style="fill: #4c78a8; fill-opacity: 0.72"/>
     <use xlink:href="#m785902f662" x="136.447731" y="52.791225" style="fill: #4c78a8; fill-opacity: 0.72"/>
     <use xlink:href="#m785902f662" x="137.617376" y="110.99737" style="fill: #4c78a8; fill-opacity: 0.72"/>
     <use xlink:href="#m785902f662" x="133.452772" y="34.902226" style="fill: #4c78a8; fill-opacity: 0.72"/>
     <use xlink:href="#m785902f662" x="137.159589" y="112.748195" style="fill: #4c78a8; fill-opacity: 0.72"/>
    </g>
   </g>
   <g id="PathCollection_3">
    <defs>
     <path id="m8a6f628ac5" d="M 0 1.414214 
C 0.375054 1.414214 0.734797 1.265203 1 1 
C 1.265203 0.734797 1.414214 0.375054 1.414214 0 
C 1.414214 -0.375054 1.265203 -0.734797 1 -1 
C 0.734797 -1.265203 0.375054 -1.414214 0 -1.414214 
C -0.375054 -1.414214 -0.734797 -1.265203 -1 -1 
C -1.265203 -0.734797 -1.414214 -0.375054 -1.414214 0 
C -1.414214 0.375054 -1.265203 0.734797 -1 1 
C -0.734797 1.265203 -0.375054 1.414214 0 1.414214 
z
"/>
    </defs>
    <g clip-path="url(#p4137ede38f)">
     <use xlink:href="#m8a6f628ac5" x="194.016019" y="47.920783" style="fill: #4daf7c; fill-opacity: 0.72"/>
     <use xlink:href="#m8a6f628ac5" x="194.919992" y="69.932217" style="fill: #4daf7c; fill-opacity: 0.72"/>
     <use xlink:href="#m8a6f628ac5" x="195.250872" y="57.132518" style="fill: #4daf7c; fill-opacity: 0.72"/>
     <use xlink:href="#m8a6f628ac5" x="195.652062" y="108.218632" style="fill: #4daf7c; fill-opacity: 0.72"/>
     <use xlink:href="#m8a6f628ac5" x="196.933164" y="118.454126" style="fill: #4daf7c; fill-opacity: 0.72"/>
     <use xlink:href="#m8a6f628ac5" x="198.043468" y="93.567071" style="fill: #4daf7c; fill-opacity: 0.72"/>
     <use xlink:href="#m8a6f628ac5" x="195.982515" y="85.622192" style="fill: #4daf7c; fill-opacity: 0.72"/>
    </g>
   </g>
   <g id="text_9">
    <g id="patch_8">
     <path d="M 159.834921 26.985036 
L 223.508921 26.985036 
L 223.508921 11.064792 
L 159.834921 11.064792 
z
" style="fill: #ffffff; opacity: 0.78"/>
    </g>
    <!-- vs MA $\downarrow$20.6% -->
    <g style="fill: #4daf7c" transform="translate(176.574921 17.251229)">
     <text>
      <tspan x="0" y="-0.40625" style="font-size: 6.2px; font-family: 'DejaVu Sans'; fill: #4daf7c">v</tspan>
      <tspan x="3.661743" y="-0.40625" style="font-size: 6.2px; font-family: 'DejaVu Sans'; fill: #4daf7c">s</tspan>
      <tspan x="6.885406" y="-0.40625" style="font-size: 6.2px; font-family: 'DejaVu Sans'; fill: #4daf7c"> </tspan>
      <tspan x="8.852234" y="-0.40625" style="font-size: 6.2px; font-family: 'DejaVu Sans'; fill: #4daf7c">M</tspan>
      <tspan x="14.190765" y="-0.40625" style="font-size: 6.2px; font-family: 'DejaVu Sans'; fill: #4daf7c">A</tspan>
      <tspan x="18.423523" y="-0.40625" style="font-size: 6.2px; font-family: 'DejaVu Sans'; fill: #4daf7c"> </tspan>
      <tspan x="25.656976" y="-0.40625" style="font-size: 6.2px; font-family: 'DejaVu Sans'; fill: #4daf7c">2</tspan>
      <tspan x="29.593652" y="-0.40625" style="font-size: 6.2px; font-family: 'DejaVu Sans'; fill: #4daf7c">0</tspan>
      <tspan x="33.530328" y="-0.40625" style="font-size: 6.2px; font-family: 'DejaVu Sans'; fill: #4daf7c">.</tspan>
      <tspan x="35.497156" y="-0.40625" style="font-size: 6.2px; font-family: 'DejaVu Sans'; fill: #4daf7c">6</tspan>
      <tspan x="39.433832" y="-0.40625" style="font-size: 6.2px; font-family: 'DejaVu Sans'; fill: #4daf7c">%</tspan>
      <tspan x="21.476788" y="-0.40625" style="font-size: 6.2px; font-family: 'cmsy10'; fill: #4daf7c">#</tspan>
     </text>
    </g>
    <!-- vs B-spline $\downarrow$15.5% -->
    <g style="fill: #4daf7c" transform="translate(161.322921 24.195036)">
     <text>
      <tspan x="0" y="-0.296875" style="font-size: 6.2px; font-family: 'DejaVu Sans'; fill: #4daf7c">v</tspan>
      <tspan x="3.661743" y="-0.296875" style="font-size: 6.2px; font-family: 'DejaVu Sans'; fill: #4daf7c">s</tspan>
      <tspan x="6.885406" y="-0.296875" style="font-size: 6.2px; font-family: 'DejaVu Sans'; fill: #4daf7c"> </tspan>
      <tspan x="8.852234" y="-0.296875" style="font-size: 6.2px; font-family: 'DejaVu Sans'; fill: #4daf7c">B</tspan>
      <tspan x="13.097076" y="-0.296875" style="font-size: 6.2px; font-family: 'DejaVu Sans'; fill: #4daf7c">-</tspan>
      <tspan x="15.329773" y="-0.296875" style="font-size: 6.2px; font-family: 'DejaVu Sans'; fill: #4daf7c">s</tspan>
      <tspan x="18.553436" y="-0.296875" style="font-size: 6.2px; font-family: 'DejaVu Sans'; fill: #4daf7c">p</tspan>
      <tspan x="22.481049" y="-0.296875" style="font-size: 6.2px; font-family: 'DejaVu Sans'; fill: #4daf7c">l</tspan>
      <tspan x="24.200134" y="-0.296875" style="font-size: 6.2px; font-family: 'DejaVu Sans'; fill: #4daf7c">i</tspan>
      <tspan x="25.91922" y="-0.296875" style="font-size: 6.2px; font-family: 'DejaVu Sans'; fill: #4daf7c">n</tspan>
      <tspan x="29.84079" y="-0.296875" style="font-size: 6.2px; font-family: 'DejaVu Sans'; fill: #4daf7c">e</tspan>
      <tspan x="33.647552" y="-0.296875" style="font-size: 6.2px; font-family: 'DejaVu Sans'; fill: #4daf7c"> </tspan>
      <tspan x="40.881006" y="-0.296875" style="font-size: 6.2px; font-family: 'DejaVu Sans'; fill: #4daf7c">1</tspan>
      <tspan x="44.817682" y="-0.296875" style="font-size: 6.2px; font-family: 'DejaVu Sans'; fill: #4daf7c">5</tspan>
      <tspan x="48.754358" y="-0.296875" style="font-size: 6.2px; font-family: 'DejaVu Sans'; fill: #4daf7c">.</tspan>
      <tspan x="50.721185" y="-0.296875" style="font-size: 6.2px; font-family: 'DejaVu Sans'; fill: #4daf7c">5</tspan>
      <tspan x="54.657861" y="-0.296875" style="font-size: 6.2px; font-family: 'DejaVu Sans'; fill: #4daf7c">%</tspan>
      <tspan x="36.700818" y="-0.296875" style="font-size: 6.2px; font-family: 'cmsy10'; fill: #4daf7c">#</tspan>
     </text>
    </g>
   </g>
  </g>
 </g>
 <defs>
  <clipPath id="p4137ede38f">
   <rect x="49.548526" y="7.2" width="175.99224" height="133.504951"/>
  </clipPath>
 </defs>
</svg>
