<?xml version="1.0" encoding="utf-8" standalone="no"?>
<!DOCTYPE svg PUBLIC "-//W3C//DTD SVG 1.1//EN"
  "http://www.w3.org/Graphics/SVG/1.1/DTD/svg11.dtd">
<svg xmlns:xlink="http://www.w3.org/1999/xlink" width="471.223411pt" height="183.717187pt" viewBox="0 0 471.223411 183.717187" xmlns="http://www.w3.org/2000/svg" version="1.1">
 <metadata>
  <rdf:RDF xmlns:dc="http://purl.org/dc/elements/1.1/" xmlns:cc="http://creativecommons.org/ns#" xmlns:rdf="http://www.w3.org/1999/02/22-rdf-syntax-ns#">
   <cc:Work>
    <dc:type rdf:resource="http://purl.org/dc/dcmitype/StillImage"/>
    <dc:date>2026-07-09T18:21:36.401679</dc:date>
    <dc:format>image/svg+xml</dc:format>
    <dc:creator>
     <cc:Agent>
      <dc:title>Matplotlib v3.10.8, https://matplotlib.org/</dc:title>
     </cc:Agent>
    </dc:creator>
   </cc:Work>
  </rdf:RDF>
 </metadata>
 <defs>
  <style type="text/css">*{stroke-linejoin: round; stroke-linecap: butt}</style>
 </defs>
 <g id="figure_1">
  <g id="patch_1">
   <path d="M 0 183.717187 
L 471.223411 183.717187 
L 471.223411 0 
L 0 0 
z
" style="fill: #ffffff"/>
  </g>
  <g id="axes_1">
   <g id="patch_2">
    <path d="M 53.084801 151.5 
L 458.457317 151.5 
L 458.457317 7.2 
L 53.084801 7.2 
z
" style="fill: #ffffff"/>
   </g>
   <g id="matplotlib.axis_1">
    <g id="xtick_1">
     <g id="line2d_1">
      <defs>
       <path id="mcb54a53694" d="M 0 0 
L 0 3 
" style="stroke: #222222; stroke-width: 0.8"/>
      </defs>
      <g>
       <use xlink:href="#mcb54a53694" x="53.084801" y="151.5" style="fill: #222222; stroke: #222222; stroke-width: 0.8"/>
      </g>
     </g>
     <g id="text_1">
      <text style="font-size: 7px; font-family: 'Arial', 'Helvetica', 'DejaVu Sans', sans-serif; text-anchor: middle; fill: #222222" x="53.084801" y="163.318906" transform="rotate(-0 53.084801 163.318906)">0.0</text>
     </g>
    </g>
    <g id="xtick_2">
     <g id="line2d_2">
      <g>
       <use xlink:href="#mcb54a53694" x="134.159304" y="151.5" style="fill: #222222; stroke: #222222; stroke-width: 0.8"/>
      </g>
     </g>
     <g id="text_2">
      <text style="font-size: 7px; font-family: 'Arial', 'Helvetica', 'DejaVu Sans', sans-serif; text-anchor: middle; fill: #222222" x="134.159304" y="163.318906" transform="rotate(-0 134.159304 163.318906)">0.2</text>
     </g>
    </g>
    <g id="xtick_3">
     <g id="line2d_3">
      <g>
       <use xlink:href="#mcb54a53694" x="215.233808" y="151.5" style="fill: #222222; stroke: #222222; stroke-width: 0.8"/>
      </g>
     </g>
     <g id="text_3">
      <text style="font-size: 7px; font-family: 'Arial', 'Helvetica', 'DejaVu Sans', sans-serif; text-anchor: middle; fill: #222222" x="215.233808" y="163.318906" transform="rotate(-0 215.233808 163.318906)">0.4</text>
     </g>
    </g>
    <g id="xtick_4">
     <g id="line2d_4">
      <g>
       <use xlink:href="#mcb54a53694" x="296.308311" y="151.5" style="fill: #222222; stroke: #222222; stroke-width: 0.8"/>
      </g>
     </g>
     <g id="text_4">
      <text style="font-size: 7px; font-family: 'Arial', 'Helvetica', 'DejaVu Sans', sans-serif; text-anchor: middle; fill: #222222" x="296.308311" y="163.318906" transform="rotate(-0 296.308311 163.318906)">0.6</text>
     </g>
    </g>
    <g id="xtick_5">
     <g id="line2d_5">
      <g>
       <use xlink:href="#mcb54a53694" x="377.382814" y="151.5" style="fill: #222222; stroke: #222222; stroke-width: 0.8"/>
      </g>
     </g>
     <g id="text_5">
      <text style="font-size: 7px; font-family: 'Arial', 'Helvetica', 'DejaVu Sans', sans-serif; text-anchor: middle; fill: #222222" x="377.382814" y="163.318906" transform="rotate(-0 377.382814 163.318906)">0.8</text>
     </g>
    </g>
    <g id="xtick_6">
     <g id="line2d_6">
      <g>
       <use xlink:href="#mcb54a53694" x="458.457317" y="151.5" style="fill: #222222; stroke: #222222; stroke-width: 0.8"/>
      </g>
     </g>
     <g id="text_6">
      <text style="font-size: 7px; font-family: 'Arial', 'Helvetica', 'DejaVu Sans', sans-serif; text-anchor: middle; fill: #222222" x="458.457317" y="163.318906" transform="rotate(-0 458.457317 163.318906)">1.0</text>
     </g>
    </g>
    <g id="text_7">
     <text style="font-size: 8px; font-family: 'Arial', 'Helvetica', 'DejaVu Sans', sans-serif; text-anchor: middle" x="255.771059" y="174.853437" transform="rotate(-0 255.771059 174.853437)">Normalized scan progress</text>
    </g>
   </g>
   <g id="matplotlib.axis_2">
    <g id="ytick_1">
     <g id="line2d_7">
      <defs>
       <path id="m311e1acb58" d="M 0 0 
L -3 0 
" style="stroke: #222222; stroke-width: 0.8"/>
      </defs>
      <g>
       <use xlink:href="#m311e1acb58" x="53.084801" y="151.5" style="fill: #222222; stroke: #222222; stroke-width: 0.8"/>
      </g>
     </g>
     <g id="text_8">
      <text style="font-size: 7px; font-family: 'Arial', 'Helvetica', 'DejaVu Sans', sans-serif; text-anchor: end; fill: #222222" x="46.584801" y="154.159453" transform="rotate(-0 46.584801 154.159453)">0.0</text>
     </g>
    </g>
    <g id="ytick_2">
     <g id="line2d_8">
      <g>
       <use xlink:href="#m311e1acb58" x="53.084801" y="126.697759" style="fill: #222222; stroke: #222222; stroke-width: 0.8"/>
      </g>
     </g>
     <g id="text_9">
      <text style="font-size: 7px; font-family: 'Arial', 'Helvetica', 'DejaVu Sans', sans-serif; text-anchor: end; fill: #222222" x="46.584801" y="129.357212" transform="rotate(-0 46.584801 129.357212)">0.1</text>
     </g>
    </g>
    <g id="ytick_3">
     <g id="line2d_9">
      <g>
       <use xlink:href="#m311e1acb58" x="53.084801" y="101.895517" style="fill: #222222; stroke: #222222; stroke-width: 0.8"/>
      </g>
     </g>
     <g id="text_10">
      <text style="font-size: 7px; font-family: 'Arial', 'Helvetica', 'DejaVu Sans', sans-serif; text-anchor: end; fill: #222222" x="46.584801" y="104.55497" transform="rotate(-0 46.584801 104.55497)">0.2</text>
     </g>
    </g>
    <g id="ytick_4">
     <g id="line2d_10">
      <g>
       <use xlink:href="#m311e1acb58" x="53.084801" y="77.093276" style="fill: #222222; stroke: #222222; stroke-width: 0.8"/>
      </g>
     </g>
     <g id="text_11">
      <text style="font-size: 7px; font-family: 'Arial', 'Helvetica', 'DejaVu Sans', sans-serif; text-anchor: end; fill: #222222" x="46.584801" y="79.752729" transform="rotate(-0 46.584801 79.752729)">0.3</text>
     </g>
    </g>
    <g id="ytick_5">
     <g id="line2d_11">
      <g>
       <use xlink:href="#m311e1acb58" x="53.084801" y="52.291034" style="fill: #222222; stroke: #222222; stroke-width: 0.8"/>
      </g>
     </g>
     <g id="text_12">
      <text style="font-size: 7px; font-family: 'Arial', 'Helvetica', 'DejaVu Sans', sans-serif; text-anchor: end; fill: #222222" x="46.584801" y="54.950488" transform="rotate(-0 46.584801 54.950488)">0.4</text>
     </g>
    </g>
    <g id="ytick_6">
     <g id="line2d_12">
      <g>
       <use xlink:href="#m311e1acb58" x="53.084801" y="27.488793" style="fill: #222222; stroke: #222222; stroke-width: 0.8"/>
      </g>
     </g>
     <g id="text_13">
      <text style="font-size: 7px; font-family: 'Arial', 'Helvetica', 'DejaVu Sans', sans-serif; text-anchor: end; fill: #222222" x="46.584801" y="30.148246" transform="rotate(-0 46.584801 30.148246)">0.5</text>
     </g>
    </g>
    <g id="text_14">
     <!-- $\tau_t$ -->
     <g transform="translate(17.235 67.021969)">
      <text>
       <tspan x="0" y="-0.125" style="font-size: 9px; font-family: 'cmmi10'">¿</tspan>
       <tspan x="3.933105" y="1.405563" style="font-size: 6.3px; font-family: 'cmmi10'">t</tspan>
      </text>
     </g>
     <!-- $(\mathrm{N\cdot m})$ -->
     <g transform="translate(7.2 77.1)">
      <text>
       <tspan x="0" y="-0.25" style="font-size: 9px; font-family: 'cmr10'">(</tspan>
       <tspan x="3.493652" y="-0.25" style="font-size: 9px; font-family: 'cmr10'">N</tspan>
       <tspan x="15.895898" y="-0.25" style="font-size: 9px; font-family: 'cmr10'">m</tspan>
       <tspan x="23.392969" y="-0.25" style="font-size: 9px; font-family: 'cmr10'">)</tspan>
       <tspan x="11.823926" y="-0.25" style="font-size: 9px; font-family: 'cmsy10'">¢</tspan>
      </text>
     </g>
    </g>
   </g>
   <g id="line2d_13">
    <path d="M 53.084801 74.657581 
L 60.381507 74.657581 
L 61.192252 118.23799 
L 62.002997 95.302599 
L 62.813742 109.220365 
L 63.624487 118.746323 
L 64.435232 130.492104 
L 65.245977 136.902758 
L 66.867467 141.402151 
L 67.678212 142.045268 
L 70.110447 137.133572 
L 71.731937 137.558836 
L 72.542682 137.257513 
L 73.353427 136.052494 
L 74.974917 137.361958 
L 75.785662 139.131906 
L 76.596407 133.480068 
L 77.407152 131.826717 
L 78.217897 134.419732 
L 79.028642 130.894846 
L 79.839387 135.200982 
L 80.650132 134.635709 
L 81.460877 136.144129 
L 83.082367 141.607925 
L 83.893112 145.257357 
L 85.514603 144.396037 
L 86.325348 144.776929 
L 87.136093 144.633405 
L 87.946838 144.299517 
L 88.757583 143.727639 
L 89.568328 144.014155 
L 90.379073 143.716526 
L 91.189818 145.149072 
L 92.000563 143.013984 
L 92.811308 136.717816 
L 93.622053 138.061473 
L 94.432798 142.243966 
L 95.243543 139.517049 
L 96.054288 140.854346 
L 96.865033 143.59846 
L 97.675778 143.217126 
L 98.486523 143.990942 
L 99.297268 147.319601 
L 100.108013 146.902642 
L 100.918758 147.46622 
L 101.729503 146.481444 
L 102.540248 145.699597 
L 103.350993 146.739764 
L 104.161738 146.540408 
L 104.972483 145.538632 
L 105.783228 146.308034 
L 106.593973 147.235559 
L 107.404718 145.147284 
L 108.215463 144.906618 
L 109.026208 145.221609 
L 109.836953 144.753378 
L 110.647698 145.035659 
L 111.458444 144.905273 
L 112.269189 145.46553 
L 113.079934 146.389739 
L 113.890679 146.607435 
L 114.701424 145.824342 
L 115.512169 140.055078 
L 116.322914 135.966096 
L 117.133659 139.867116 
L 117.944404 146.060875 
L 118.755149 135.35067 
L 119.565894 146.523081 
L 120.376639 147.556156 
L 121.187384 141.202109 
L 121.998129 145.040208 
L 122.808874 146.845563 
L 123.619619 146.589685 
L 125.241109 147.590878 
L 126.051854 146.523679 
L 126.862599 144.805654 
L 127.673344 143.83637 
L 128.484089 142.565105 
L 129.294834 142.660725 
L 130.105579 144.618815 
L 130.916324 149.664718 
L 131.727069 140.633453 
L 132.537814 145.784891 
L 133.348559 147.706774 
L 134.159304 136.401751 
L 134.970049 150.284213 
L 135.780794 138.744084 
L 136.591539 148.434483 
L 137.402285 150.88284 
L 138.21303 147.257333 
L 139.83452 136.528759 
L 140.645265 135.882292 
L 141.45601 133.443175 
L 142.266755 133.680653 
L 143.0775 142.328373 
L 143.888245 147.334401 
L 144.69899 146.158894 
L 145.509735 140.748669 
L 146.32048 139.463881 
L 147.131225 137.567894 
L 147.94197 143.024554 
L 148.752715 147.65821 
L 149.56346 145.497755 
L 151.18495 137.011497 
L 151.995695 137.240457 
L 152.80644 142.268189 
L 153.617185 146.033463 
L 154.42793 147.935217 
L 155.238675 148.03613 
L 156.04942 147.14916 
L 157.67091 140.971143 
L 158.481655 139.03372 
L 159.2924 138.597701 
L 160.103145 138.703953 
L 160.91389 149.028765 
L 161.724635 147.175002 
L 162.53538 143.759746 
L 163.346126 143.637574 
L 164.156871 140.753577 
L 164.967616 140.556324 
L 165.778361 140.815786 
L 166.589106 141.649889 
L 167.399851 144.962178 
L 168.210596 145.027275 
L 169.021341 131.864673 
L 169.832086 120.747441 
L 170.642831 112.370047 
L 171.453576 105.716036 
L 172.264321 102.43904 
L 173.075066 103.447822 
L 173.885811 93.073363 
L 174.696556 109.52715 
L 175.507301 102.473114 
L 176.318046 101.655253 
L 177.128791 100.489683 
L 177.939536 97.2019 
L 178.750281 89.624446 
L 179.561026 86.71707 
L 181.182516 86.139409 
L 181.993261 86.658246 
L 182.804006 88.354596 
L 184.425496 110.491244 
L 185.236241 101.213458 
L 186.046986 105.473814 
L 186.857731 113.522587 
L 187.668476 114.046015 
L 188.479221 105.422393 
L 189.289967 111.725783 
L 190.100712 126.470695 
L 190.911457 122.5555 
L 191.722202 115.103075 
L 192.532947 98.890403 
L 193.343692 105.628529 
L 194.154437 102.678718 
L 194.965182 91.955077 
L 195.775927 96.764636 
L 196.586672 97.434481 
L 197.397417 97.403799 
L 198.208162 99.542236 
L 199.018907 98.97929 
L 199.829652 97.180907 
L 200.640397 78.72322 
L 201.451142 79.066604 
L 202.261887 88.930528 
L 203.072632 107.477391 
L 203.883377 117.620024 
L 204.694122 122.635243 
L 205.504867 123.99417 
L 206.315612 128.431174 
L 207.126357 134.30809 
L 208.747847 123.687585 
L 209.558592 123.78837 
L 210.369337 123.61053 
L 211.180082 122.059151 
L 211.990827 123.915788 
L 212.801572 128.83549 
L 213.612317 114.105091 
L 214.423062 123.52495 
L 215.233808 117.951974 
L 216.044553 126.359019 
L 216.855298 116.536795 
L 217.666043 140.568183 
L 218.476788 121.579719 
L 219.287533 134.985476 
L 220.098278 121.427064 
L 220.909023 133.331903 
L 221.719768 126.216379 
L 222.530513 128.476456 
L 223.341258 134.070122 
L 224.152003 127.020575 
L 224.962748 128.502997 
L 225.773493 133.106449 
L 226.584238 136.736853 
L 227.394983 138.52852 
L 228.205728 140.670121 
L 229.016473 140.698856 
L 229.827218 149.407593 
L 230.637963 142.862032 
L 231.448708 147.902765 
L 232.259453 147.110134 
L 233.070198 148.037007 
L 233.880943 147.520158 
L 234.691688 147.880925 
L 235.502433 143.016854 
L 236.313178 142.504912 
L 237.123923 146.055584 
L 237.934668 146.06309 
L 238.745413 146.82524 
L 239.556158 146.371063 
L 240.366903 147.220784 
L 241.177649 147.496693 
L 241.988394 148.445497 
L 242.799139 146.957095 
L 243.609884 149.145135 
L 244.420629 147.567143 
L 245.231374 147.061942 
L 246.042119 147.395882 
L 246.852864 143.410143 
L 247.663609 141.781524 
L 248.474354 139.437288 
L 249.285099 136.318061 
L 250.095844 133.869398 
L 250.906589 133.742175 
L 251.717334 135.768271 
L 252.528079 142.497859 
L 253.338824 145.049962 
L 254.149569 144.069591 
L 254.960314 145.394405 
L 255.771059 143.235578 
L 257.392549 122.954117 
L 258.203294 129.697261 
L 259.014039 125.706451 
L 259.824784 90.179788 
L 260.635529 15.92009 
L 261.446274 14.116679 
L 262.257019 21.417169 
L 263.067764 21.863209 
L 263.878509 93.928892 
L 264.689254 93.772314 
L 265.499999 116.174702 
L 266.310744 112.420424 
L 267.12149 129.86415 
L 267.932235 141.939279 
L 268.74298 149.133428 
L 269.553725 147.861566 
L 270.36447 145.11497 
L 271.175215 146.775261 
L 271.98596 140.393608 
L 272.796705 146.657461 
L 273.60745 142.693801 
L 274.418195 148.005437 
L 275.22894 145.185873 
L 276.039685 144.317405 
L 276.85043 145.136973 
L 277.661175 147.92318 
L 278.47192 147.77629 
L 279.282665 147.864891 
L 280.09341 145.15888 
L 281.7149 137.203382 
L 282.525645 136.010405 
L 283.33639 132.189126 
L 284.147135 131.738201 
L 284.95788 130.211279 
L 285.768625 136.818305 
L 286.57937 133.458818 
L 287.390115 134.41087 
L 288.20086 137.026823 
L 289.82235 139.591794 
L 290.633095 139.808901 
L 291.44384 146.027965 
L 292.254585 148.262382 
L 293.065331 149.790422 
L 293.876076 149.262027 
L 294.686821 148.938926 
L 295.497566 150.069556 
L 296.308311 150.047009 
L 297.119056 150.237373 
L 297.929801 148.165735 
L 298.740546 134.830372 
L 299.551291 131.280734 
L 300.362036 128.722589 
L 301.172781 121.086171 
L 301.983526 120.174441 
L 302.794271 118.653418 
L 303.605016 114.551513 
L 304.415761 115.168885 
L 305.226506 119.221796 
L 306.037251 118.788162 
L 306.847996 117.54168 
L 308.469486 107.750047 
L 309.280231 112.761666 
L 310.090976 117.029844 
L 310.901721 118.821726 
L 311.712466 118.02358 
L 312.523211 117.871657 
L 313.333956 119.137937 
L 314.144701 122.053274 
L 314.955446 119.688044 
L 315.766191 118.854953 
L 316.576936 119.044772 
L 317.387681 118.742057 
L 318.198426 120.487679 
L 319.009172 125.006042 
L 319.819917 126.526663 
L 320.630662 124.187489 
L 321.441407 131.044944 
L 322.252152 130.394113 
L 323.062897 116.389827 
L 323.873642 113.849106 
L 324.684387 104.66964 
L 325.495132 102.523272 
L 326.305877 114.472309 
L 327.116622 99.944776 
L 327.927367 92.255244 
L 328.738112 114.951319 
L 329.548857 115.719208 
L 330.359602 101.546752 
L 331.170347 80.022844 
L 331.981092 73.326181 
L 332.791837 93.460895 
L 333.602582 101.419639 
L 334.413327 91.811738 
L 335.224072 69.366716 
L 336.034817 58.890393 
L 336.845562 83.103677 
L 339.277797 51.056229 
L 340.088542 37.75917 
L 340.899287 28.206664 
L 341.710032 28.57122 
L 342.520777 38.979101 
L 343.331522 55.430251 
L 344.142267 69.091996 
L 344.953012 72.640293 
L 345.763758 74.964188 
L 346.574503 70.961317 
L 347.385248 61.071526 
L 348.195993 48.938427 
L 349.006738 40.788554 
L 349.817483 43.745759 
L 350.628228 56.905144 
L 351.438973 78.723771 
L 352.249718 93.276389 
L 353.060463 102.131127 
L 353.871208 104.111323 
L 354.681953 103.185907 
L 356.303443 116.040708 
L 357.114188 118.223108 
L 357.924933 119.536516 
L 359.546423 126.427638 
L 360.357168 126.348204 
L 361.167913 110.090925 
L 361.978658 136.634783 
L 362.789403 114.496878 
L 363.600148 99.77621 
L 364.410893 130.074275 
L 365.221638 109.496338 
L 366.032383 98.906562 
L 366.843128 93.832175 
L 367.653873 94.656763 
L 368.464618 118.927333 
L 370.086108 69.867949 
L 370.896854 94.156147 
L 371.707599 69.176379 
L 372.518344 50.077176 
L 373.329089 81.175834 
L 374.139834 54.641579 
L 374.950579 48.248336 
L 375.761324 47.540097 
L 376.572069 46.204794 
L 377.382814 42.556123 
L 378.193559 40.770523 
L 379.004304 104.559144 
L 379.815049 104.137169 
L 380.625794 105.279889 
L 381.436539 98.623823 
L 382.247284 83.17521 
L 383.058029 97.330249 
L 383.868774 85.021879 
L 384.679519 113.575641 
L 385.490264 95.577002 
L 386.301009 91.77593 
L 387.111754 109.651409 
L 387.922499 87.490798 
L 388.733244 81.587887 
L 389.543989 109.97213 
L 390.354734 108.718024 
L 391.165479 145.669934 
L 391.976224 135.318006 
L 392.786969 126.896593 
L 393.597714 131.680987 
L 394.408459 122.076704 
L 395.219204 122.445754 
L 396.029949 123.931416 
L 396.840694 123.987975 
L 397.65144 107.558261 
L 398.462185 110.970244 
L 399.27293 118.46079 
L 400.083675 106.999767 
L 400.89442 108.331355 
L 401.705165 124.332459 
L 402.51591 89.183374 
L 403.326655 82.100232 
L 404.1374 88.28153 
L 404.948145 102.735664 
L 405.75889 114.356633 
L 406.569635 116.327549 
L 407.38038 146.320371 
L 408.191125 139.778955 
L 409.00187 127.449596 
L 409.812615 132.458775 
L 410.62336 133.393549 
L 411.434105 134.019688 
L 412.24485 134.212267 
L 413.055595 131.748289 
L 413.86634 123.576998 
L 414.677085 142.729811 
L 415.48783 138.2714 
L 416.298575 139.776581 
L 417.10932 137.800077 
L 417.920065 137.993987 
L 418.73081 127.021304 
L 419.541555 121.117045 
L 420.3523 119.414093 
L 421.163045 118.354631 
L 421.97379 118.224182 
L 422.784536 115.938443 
L 423.595281 115.648205 
L 424.406026 113.629519 
L 425.216771 114.643221 
L 426.027516 116.974809 
L 426.838261 115.74563 
L 427.649006 116.018665 
L 428.459751 116.425793 
L 429.270496 122.139888 
L 430.081241 122.143746 
L 431.702731 113.75952 
L 433.324221 108.284375 
L 434.134966 105.894735 
L 434.945711 106.496491 
L 435.756456 108.756541 
L 436.567201 119.71513 
L 437.377946 127.447197 
L 438.188691 131.826867 
L 438.999436 129.905784 
L 439.810181 127.518633 
L 440.620926 124.173069 
L 441.431671 122.178045 
L 442.242416 124.338396 
L 443.053161 128.346408 
L 444.674651 140.122239 
L 445.485396 140.276976 
L 446.296141 136.669561 
L 447.106886 135.447068 
L 447.917631 137.014755 
L 448.728376 137.758304 
L 449.539122 136.894693 
L 450.349867 132.049111 
L 451.160612 130.013488 
L 451.971357 139.142505 
L 452.782102 136.167999 
L 453.592847 134.166044 
L 454.403592 133.314995 
L 455.214337 140.510137 
L 456.025082 137.404358 
L 457.646572 144.346268 
L 458.457317 142.621405 
L 458.457317 142.621405 
" clip-path="url(#pf484579187)" style="fill: none; stroke: #d95f5f; stroke-opacity: 0.2; stroke-width: 0.45; stroke-linecap: square"/>
   </g>
   <g id="line2d_14">
    <path d="M 53.084801 58.956637 
L 55.517036 74.372677 
L 57.949271 88.212499 
L 60.381507 100.4761 
L 62.002997 107.776157 
L 63.624487 114.375671 
L 65.245977 120.274644 
L 66.867467 125.473075 
L 68.488957 129.970963 
L 70.921192 135.923237 
L 71.731937 137.57385 
L 72.542682 138.968628 
L 73.353427 140.044567 
L 74.164172 140.792854 
L 74.974917 141.124757 
L 75.785662 141.137678 
L 76.596407 140.917228 
L 77.407152 140.133006 
L 78.217897 140.476401 
L 79.028642 139.842053 
L 80.650132 138.958751 
L 81.460877 138.897267 
L 83.082367 139.143016 
L 84.703857 139.794047 
L 92.811308 143.905975 
L 93.622053 144.171794 
L 95.243543 144.455735 
L 98.486523 144.195716 
L 99.297268 144.36758 
L 100.918758 144.943364 
L 101.729503 144.948683 
L 102.540248 145.307399 
L 104.161738 145.181749 
L 104.972483 145.343791 
L 109.026208 145.273443 
L 110.647698 144.856599 
L 112.269189 144.690887 
L 113.890679 144.390122 
L 114.701424 144.045412 
L 116.322914 143.97979 
L 117.133659 143.859725 
L 117.944404 144.171493 
L 118.755149 143.945592 
L 119.565894 144.126047 
L 121.998129 143.811386 
L 122.808874 144.022616 
L 124.430364 144.75455 
L 126.051854 145.305735 
L 126.862599 145.169067 
L 128.484089 144.674879 
L 130.105579 144.797114 
L 130.916324 144.957593 
L 131.727069 144.891015 
L 134.159304 143.676442 
L 134.970049 143.748451 
L 135.780794 143.339906 
L 137.402285 142.810713 
L 138.21303 142.258057 
L 139.023775 141.882487 
L 139.83452 141.665964 
L 140.645265 141.598765 
L 142.266755 141.88281 
L 143.888245 142.137301 
L 145.509735 141.605311 
L 147.131225 141.534767 
L 147.94197 141.867747 
L 148.752715 141.879406 
L 150.374205 142.301822 
L 151.18495 142.012484 
L 152.80644 142.547493 
L 153.617185 143.469443 
L 155.238675 145.70725 
L 156.04942 146.433239 
L 157.67091 146.760221 
L 161.724635 142.410908 
L 162.53538 141.319393 
L 163.346126 139.98657 
L 165.778361 134.72368 
L 166.589106 132.623071 
L 167.399851 129.864694 
L 169.021341 123.50066 
L 171.453576 114.674888 
L 173.075066 109.982172 
L 174.696556 104.770004 
L 175.507301 102.764395 
L 177.128791 100.029058 
L 177.939536 99.25875 
L 178.750281 98.991745 
L 179.561026 98.572979 
L 181.182516 98.122104 
L 181.993261 98.057316 
L 182.804006 98.25228 
L 183.614751 98.786198 
L 185.236241 101.977482 
L 186.046986 102.965028 
L 186.857731 103.06631 
L 187.668476 102.738383 
L 189.289967 101.781684 
L 190.100712 101.439293 
L 190.911457 100.725883 
L 191.722202 101.065049 
L 193.343692 102.155989 
L 194.965182 103.611269 
L 195.775927 104.052678 
L 196.586672 104.217071 
L 197.397417 104.847671 
L 198.208162 105.016888 
L 199.018907 105.30832 
L 199.829652 105.259716 
L 200.640397 105.913699 
L 201.451142 106.192494 
L 202.261887 106.942235 
L 203.072632 107.412659 
L 203.883377 108.77706 
L 205.504867 110.968133 
L 206.315612 112.298103 
L 207.126357 114.148683 
L 208.747847 118.341292 
L 211.180082 122.437776 
L 216.855298 128.551023 
L 217.666043 128.472765 
L 218.476788 128.132515 
L 219.287533 128.068439 
L 220.098278 128.519345 
L 220.909023 129.153025 
L 222.530513 130.867062 
L 223.341258 131.982194 
L 224.962748 134.634329 
L 230.637963 142.084041 
L 231.448708 143.108681 
L 232.259453 143.858649 
L 233.070198 144.855849 
L 233.880943 145.369124 
L 234.691688 146.603433 
L 236.313178 147.376749 
L 237.123923 147.141791 
L 237.934668 147.281867 
L 239.556158 146.826832 
L 240.366903 147.079963 
L 241.177649 147.18545 
L 242.799139 146.536792 
L 243.609884 147.319704 
L 244.420629 150.081564 
L 245.231374 151.899517 
L 246.042119 152.450254 
L 246.852864 152.431263 
L 248.474354 145.681817 
L 251.717334 128.51953 
L 253.338824 119.670449 
L 254.960314 112.753889 
L 256.581804 107.534328 
L 258.203294 103.757544 
L 259.014039 102.521114 
L 259.824784 101.653809 
L 260.635529 101.232872 
L 261.446274 101.067924 
L 262.257019 101.308727 
L 263.067764 101.976159 
L 263.878509 102.98585 
L 264.689254 104.423325 
L 266.310744 108.123131 
L 267.932235 112.629639 
L 269.553725 118.10774 
L 271.175215 125.018292 
L 276.039685 148.163073 
L 276.85043 150.776204 
L 277.661175 150.234895 
L 278.47192 148.796073 
L 279.282665 146.710664 
L 280.09341 143.752305 
L 280.904155 142.818132 
L 281.7149 141.621973 
L 282.525645 141.415477 
L 283.33639 140.87558 
L 284.147135 140.771633 
L 284.95788 141.179872 
L 286.57937 142.161746 
L 287.390115 142.484802 
L 288.20086 142.680779 
L 290.633095 141.68783 
L 292.254585 141.266537 
L 293.065331 140.667703 
L 297.119056 136.624154 
L 299.551291 133.027019 
L 301.172781 130.030912 
L 306.037251 119.844397 
L 307.658741 118.045155 
L 308.469486 117.755116 
L 309.280231 117.622144 
L 310.090976 117.182107 
L 310.901721 117.342099 
L 311.712466 117.776364 
L 312.523211 117.515563 
L 313.333956 117.449506 
L 314.144701 118.091664 
L 314.955446 119.482536 
L 315.766191 120.496499 
L 316.576936 120.517632 
L 318.198426 119.798282 
L 319.819917 120.234156 
L 320.630662 119.108941 
L 321.441407 118.173976 
L 323.873642 116.203157 
L 324.684387 115.217376 
L 325.495132 113.469715 
L 326.305877 111.037263 
L 327.116622 107.864058 
L 331.170347 89.512007 
L 333.602582 81.106039 
L 334.413327 77.730993 
L 336.845562 66.315336 
L 337.656307 63.151246 
L 338.467052 60.910824 
L 340.088542 57.25571 
L 340.899287 55.903514 
L 341.710032 54.793745 
L 342.520777 54.070302 
L 343.331522 54.319076 
L 344.142267 54.692886 
L 344.953012 55.854853 
L 345.763758 57.453377 
L 346.574503 60.588264 
L 347.385248 64.212421 
L 348.195993 66.309235 
L 349.006738 69.192238 
L 349.817483 73.386248 
L 351.438973 83.02692 
L 352.249718 86.219187 
L 353.060463 89.959954 
L 353.871208 95.299762 
L 356.303443 107.58759 
L 357.924933 111.321523 
L 358.735678 112.56287 
L 360.357168 114.075601 
L 361.167913 114.798611 
L 361.978658 115.155812 
L 363.600148 110.743198 
L 364.410893 108.019053 
L 366.032383 101.632473 
L 367.653873 93.907016 
L 368.464618 89.882933 
L 369.275363 87.06903 
L 370.086108 84.739271 
L 370.896854 81.958796 
L 371.707599 80.077272 
L 372.518344 78.686039 
L 373.329089 76.670204 
L 374.139834 75.137099 
L 374.950579 72.828057 
L 375.761324 71.692129 
L 376.572069 71.598344 
L 377.382814 71.930152 
L 378.193559 72.524759 
L 379.004304 74.589818 
L 380.625794 77.899107 
L 381.436539 81.556331 
L 385.490264 97.624337 
L 386.301009 102.002831 
L 387.922499 109.550689 
L 388.733244 111.968865 
L 389.543989 113.033424 
L 390.354734 115.033385 
L 392.786969 114.896009 
L 393.597714 114.424862 
L 394.408459 113.447897 
L 395.219204 111.988084 
L 396.029949 112.715011 
L 396.840694 113.623569 
L 397.65144 114.925007 
L 398.462185 115.343149 
L 399.27293 115.370989 
L 400.083675 115.835535 
L 400.89442 115.878606 
L 401.705165 116.96585 
L 403.326655 118.480213 
L 404.1374 119.715896 
L 404.948145 119.957408 
L 405.75889 119.624603 
L 406.569635 120.132442 
L 407.38038 120.423898 
L 408.191125 122.115 
L 409.00187 123.481646 
L 409.812615 124.486405 
L 410.62336 125.739338 
L 412.24485 127.505074 
L 413.86634 128.99768 
L 414.677085 129.27598 
L 415.48783 129.678173 
L 416.298575 130.328242 
L 417.920065 130.5391 
L 418.73081 130.99242 
L 419.541555 129.835869 
L 420.3523 127.643938 
L 421.97379 122.721363 
L 423.595281 118.990752 
L 425.216771 118.018224 
L 426.838261 116.312436 
L 428.459751 114.736636 
L 429.270496 114.222197 
L 430.891986 113.627686 
L 432.513476 114.713109 
L 433.324221 115.65145 
L 434.134966 116.933943 
L 434.945711 118.500813 
L 437.377946 121.690697 
L 438.188691 122.853584 
L 442.242416 127.474798 
L 458.457317 143.082052 
L 458.457317 143.082052 
" clip-path="url(#pf484579187)" style="fill: none; stroke: #d95f5f; stroke-width: 1.35; stroke-linecap: square"/>
   </g>
   <g id="line2d_15">
    <path d="M 53.084801 75.333831 
L 60.381507 75.333831 
L 61.192252 116.608994 
L 62.002997 96.479019 
L 64.435232 126.281581 
L 65.245977 136.837156 
L 66.056722 142.931967 
L 66.867467 144.701063 
L 67.678212 142.701556 
L 68.488957 139.27732 
L 69.299702 137.207264 
L 70.110447 131.161172 
L 70.921192 133.480542 
L 71.731937 136.828319 
L 72.542682 137.439433 
L 73.353427 137.433162 
L 74.164172 136.596465 
L 74.974917 137.682488 
L 75.785662 139.04851 
L 77.407152 130.854744 
L 78.217897 131.607195 
L 79.028642 128.620048 
L 79.839387 132.273154 
L 80.650132 131.919834 
L 81.460877 134.010281 
L 82.271622 137.313973 
L 83.082367 139.884971 
L 83.893112 143.777291 
L 84.703857 143.055226 
L 85.514603 143.865041 
L 86.325348 144.36483 
L 87.136093 145.162233 
L 87.946838 145.092577 
L 89.568328 145.815169 
L 91.189818 145.73898 
L 92.000563 145.564385 
L 92.811308 141.645796 
L 94.432798 143.972434 
L 95.243543 143.023816 
L 96.054288 143.077314 
L 96.865033 145.251673 
L 97.675778 145.319734 
L 98.486523 145.805381 
L 99.297268 148.16958 
L 100.108013 146.948695 
L 100.918758 146.155666 
L 101.729503 146.593297 
L 102.540248 144.364344 
L 103.350993 145.046357 
L 104.161738 146.450132 
L 104.972483 147.269209 
L 105.783228 146.264235 
L 106.593973 143.856152 
L 108.215463 143.255899 
L 109.026208 144.675719 
L 109.836953 144.214758 
L 110.647698 144.295777 
L 111.458444 145.927338 
L 112.269189 146.010319 
L 113.079934 147.144334 
L 113.890679 147.044457 
L 114.701424 147.108877 
L 115.512169 142.811859 
L 116.322914 139.91872 
L 117.133659 139.124194 
L 117.944404 147.295657 
L 118.755149 146.637089 
L 119.565894 140.26037 
L 120.376639 148.514274 
L 121.187384 146.630657 
L 121.998129 148.036921 
L 122.808874 147.056911 
L 123.619619 148.721152 
L 124.430364 149.169282 
L 125.241109 149.930275 
L 126.051854 148.901516 
L 126.862599 148.203621 
L 127.673344 146.920088 
L 128.484089 144.910908 
L 129.294834 143.499836 
L 130.105579 150.281469 
L 130.916324 125.764048 
L 131.727069 136.293233 
L 132.537814 114.590288 
L 133.348559 128.569285 
L 134.159304 117.964346 
L 134.970049 120.941812 
L 135.780794 118.629564 
L 136.591539 121.489999 
L 139.023775 126.704324 
L 139.83452 122.529734 
L 140.645265 119.228781 
L 141.45601 118.35711 
L 142.266755 118.630839 
L 143.0775 121.106758 
L 143.888245 125.256684 
L 144.69899 128.537852 
L 145.509735 135.421078 
L 146.32048 128.053468 
L 147.131225 117.247823 
L 147.94197 115.283077 
L 148.752715 129.463953 
L 149.56346 122.416993 
L 150.374205 111.454724 
L 151.18495 125.307097 
L 151.995695 124.782872 
L 152.80644 112.951991 
L 153.617185 119.318583 
L 154.42793 134.206937 
L 155.238675 136.294683 
L 156.04942 126.653246 
L 156.860165 123.906138 
L 157.67091 139.759132 
L 158.481655 144.285684 
L 159.2924 133.49317 
L 160.103145 127.67858 
L 161.724635 132.044203 
L 162.53538 135.890829 
L 163.346126 137.459782 
L 164.156871 138.310781 
L 164.967616 139.406179 
L 166.589106 139.080325 
L 167.399851 138.318516 
L 168.210596 139.732268 
L 169.021341 132.136657 
L 170.642831 106.428321 
L 171.453576 107.748289 
L 172.264321 92.452574 
L 173.075066 103.778904 
L 173.885811 89.244357 
L 174.696556 94.870979 
L 175.507301 103.449431 
L 177.128791 107.745058 
L 179.561026 88.607795 
L 180.371771 87.817568 
L 181.182516 89.549603 
L 181.993261 92.890826 
L 183.614751 102.015937 
L 184.425496 108.395876 
L 185.236241 104.156029 
L 186.046986 104.261576 
L 186.857731 109.487836 
L 187.668476 111.274961 
L 189.289967 111.900972 
L 190.100712 113.039158 
L 190.911457 113.051028 
L 191.722202 112.401307 
L 192.532947 95.647349 
L 193.343692 97.741314 
L 194.154437 92.957083 
L 194.965182 92.071547 
L 195.775927 94.063785 
L 196.586672 95.053793 
L 197.397417 97.654912 
L 198.208162 84.140029 
L 199.018907 82.472853 
L 199.829652 83.588774 
L 200.640397 80.523171 
L 201.451142 82.427644 
L 202.261887 86.309053 
L 203.883377 100.97833 
L 204.694122 105.965312 
L 205.504867 110.078617 
L 206.315612 120.560896 
L 207.126357 124.933398 
L 207.937102 104.99122 
L 208.747847 116.895601 
L 210.369337 89.800657 
L 211.180082 118.649918 
L 211.990827 93.329912 
L 212.801572 92.742078 
L 213.612317 120.724396 
L 214.423062 84.215148 
L 215.233808 90.025797 
L 216.044553 124.965762 
L 216.855298 131.204301 
L 217.666043 116.780512 
L 218.476788 113.06018 
L 219.287533 119.99134 
L 220.098278 114.719593 
L 220.909023 134.708142 
L 221.719768 125.72352 
L 222.530513 132.759206 
L 223.341258 141.998253 
L 224.152003 147.813818 
L 224.962748 148.132092 
L 225.773493 143.289615 
L 226.584238 140.385267 
L 227.394983 136.395337 
L 228.205728 135.761313 
L 229.827218 147.73455 
L 230.637963 145.866794 
L 231.448708 145.744562 
L 232.259453 146.152583 
L 233.880943 147.713548 
L 234.691688 145.982778 
L 235.502433 147.988672 
L 236.313178 150.297691 
L 237.123923 150.425334 
L 237.934668 147.075708 
L 238.745413 149.017209 
L 239.556158 149.372037 
L 240.366903 149.932885 
L 241.177649 149.797448 
L 242.799139 146.394696 
L 243.609884 145.621731 
L 245.231374 142.387607 
L 246.042119 142.823188 
L 246.852864 139.410019 
L 248.474354 135.897069 
L 249.285099 132.40554 
L 250.095844 130.997818 
L 250.906589 131.90839 
L 251.717334 132.142852 
L 252.528079 138.99214 
L 253.338824 141.872418 
L 254.149569 143.430565 
L 254.960314 142.229718 
L 255.771059 141.681903 
L 256.581804 139.877263 
L 257.392549 136.356736 
L 258.203294 100.870019 
L 259.014039 94.944449 
L 259.824784 94.430823 
L 260.635529 65.569847 
L 261.446274 51.245213 
L 262.257019 64.29828 
L 263.067764 72.34199 
L 263.878509 84.54991 
L 264.689254 101.611263 
L 265.499999 103.231942 
L 266.310744 124.8661 
L 267.12149 133.456352 
L 267.932235 123.29362 
L 268.74298 132.138276 
L 269.553725 127.410041 
L 270.36447 126.607056 
L 271.98596 137.777888 
L 272.796705 144.981466 
L 273.60745 150.641765 
L 274.418195 149.770831 
L 275.22894 145.230352 
L 276.039685 143.761873 
L 277.661175 135.73184 
L 278.47192 135.941132 
L 279.282665 135.820655 
L 280.09341 136.669643 
L 280.904155 137.053958 
L 281.7149 137.120345 
L 282.525645 136.643697 
L 283.33639 138.30235 
L 284.147135 133.539426 
L 284.95788 133.851749 
L 285.768625 132.589864 
L 286.57937 132.337612 
L 287.390115 132.771459 
L 288.20086 132.317506 
L 289.011605 132.580913 
L 289.82235 134.442141 
L 290.633095 135.160168 
L 291.44384 139.385536 
L 292.254585 138.149929 
L 293.065331 138.461739 
L 293.876076 139.551598 
L 294.686821 139.959764 
L 295.497566 141.314188 
L 297.119056 144.609626 
L 297.929801 145.597932 
L 298.740546 141.527114 
L 299.551291 134.07619 
L 300.362036 122.912602 
L 301.172781 124.996209 
L 301.983526 109.457939 
L 302.794271 121.430608 
L 303.605016 103.569817 
L 304.415761 120.706873 
L 305.226506 114.368256 
L 306.037251 119.891881 
L 306.847996 122.638201 
L 307.658741 120.114166 
L 308.469486 114.443212 
L 309.280231 110.330995 
L 310.090976 106.965615 
L 310.901721 104.149182 
L 312.523211 100.505847 
L 314.144701 108.136568 
L 314.955446 102.238922 
L 315.766191 105.769674 
L 317.387681 119.686777 
L 319.819917 131.133356 
L 320.630662 130.380101 
L 321.441407 138.127524 
L 322.252152 137.220275 
L 323.062897 125.914463 
L 323.873642 129.586453 
L 324.684387 127.226644 
L 325.495132 121.878228 
L 327.116622 115.451742 
L 327.927367 115.292462 
L 328.738112 115.842916 
L 329.548857 117.813158 
L 330.359602 113.053417 
L 331.170347 104.541521 
L 331.981092 97.761851 
L 332.791837 97.038804 
L 333.602582 105.430855 
L 334.413327 109.962352 
L 335.224072 111.074366 
L 336.034817 108.853826 
L 336.845562 112.008739 
L 338.467052 78.372115 
L 339.277797 76.232798 
L 340.899287 52.104489 
L 341.710032 49.004753 
L 342.520777 51.906645 
L 343.331522 60.035632 
L 344.142267 69.940596 
L 344.953012 72.632726 
L 345.763758 76.533286 
L 346.574503 74.393911 
L 347.385248 71.205593 
L 348.195993 72.267936 
L 349.006738 80.172041 
L 350.628228 108.085611 
L 351.438973 112.47158 
L 352.249718 114.723112 
L 353.060463 120.22312 
L 354.681953 124.123985 
L 355.492698 133.04119 
L 356.303443 137.052537 
L 357.114188 139.863664 
L 357.924933 141.430335 
L 358.735678 141.79575 
L 359.546423 140.471994 
L 360.357168 142.627994 
L 361.978658 126.652884 
L 362.789403 121.513131 
L 363.600148 123.621983 
L 364.410893 133.576114 
L 365.221638 132.409968 
L 366.032383 129.208254 
L 366.843128 129.481946 
L 367.653873 135.603192 
L 368.464618 135.736359 
L 369.275363 107.222612 
L 370.086108 104.699352 
L 370.896854 105.433561 
L 371.707599 114.534093 
L 372.518344 84.249074 
L 373.329089 74.021402 
L 374.139834 89.644006 
L 374.950579 102.892754 
L 375.761324 103.500122 
L 376.572069 100.529231 
L 377.382814 100.343399 
L 378.193559 104.497055 
L 379.004304 107.017244 
L 379.815049 112.556499 
L 380.625794 119.753095 
L 381.436539 124.501525 
L 382.247284 113.274919 
L 383.058029 126.561164 
L 383.868774 120.849321 
L 384.679519 127.18299 
L 385.490264 91.169787 
L 386.301009 86.841462 
L 387.922499 109.433233 
L 388.733244 78.111733 
L 389.543989 82.203403 
L 390.354734 87.780328 
L 391.165479 91.597185 
L 391.976224 99.685347 
L 392.786969 105.124799 
L 393.597714 109.040367 
L 394.408459 115.703369 
L 395.219204 124.41044 
L 396.029949 129.877234 
L 396.840694 133.732318 
L 397.65144 139.835622 
L 399.27293 133.488592 
L 400.083675 135.62413 
L 400.89442 136.482749 
L 401.705165 137.935146 
L 402.51591 138.354798 
L 403.326655 140.481 
L 404.1374 142.243321 
L 404.948145 136.258765 
L 405.75889 120.849073 
L 406.569635 122.028098 
L 407.38038 120.774224 
L 408.191125 123.808166 
L 409.00187 108.889989 
L 409.812615 138.1152 
L 410.62336 144.34911 
L 411.434105 149.18807 
L 412.24485 137.952178 
L 413.055595 138.548203 
L 413.86634 145.089416 
L 414.677085 134.683522 
L 415.48783 136.781635 
L 416.298575 146.515931 
L 417.10932 140.168143 
L 417.920065 141.734983 
L 418.73081 144.591194 
L 419.541555 145.056463 
L 420.3523 138.912343 
L 421.97379 141.897875 
L 422.784536 140.471394 
L 423.595281 138.399387 
L 424.406026 138.77713 
L 425.216771 141.191022 
L 426.027516 147.102855 
L 426.838261 148.663677 
L 427.649006 149.628659 
L 428.459751 142.97977 
L 429.270496 134.391371 
L 430.081241 135.737783 
L 430.891986 139.08702 
L 431.702731 139.224926 
L 432.513476 139.523246 
L 433.324221 139.247838 
L 434.134966 136.623285 
L 434.945711 135.49239 
L 435.756456 132.970342 
L 437.377946 117.739362 
L 438.188691 118.185526 
L 438.999436 114.207642 
L 439.810181 112.452343 
L 440.620926 113.453548 
L 441.431671 116.259085 
L 443.053161 123.488857 
L 443.863906 125.689021 
L 444.674651 126.391888 
L 445.485396 128.929079 
L 447.106886 134.641522 
L 447.917631 126.411191 
L 448.728376 125.761223 
L 449.539122 127.573271 
L 451.160612 134.873132 
L 451.971357 127.855514 
L 452.782102 115.119945 
L 454.403592 142.96584 
L 456.025082 113.985347 
L 456.835827 131.909748 
L 457.646572 146.125307 
L 458.457317 134.220831 
L 458.457317 134.220831 
" clip-path="url(#pf484579187)" style="fill: none; stroke: #4daf7c; stroke-opacity: 0.2; stroke-width: 0.45; stroke-linecap: square"/>
   </g>
   <g id="line2d_16">
    <path d="M 53.084801 59.780066 
L 55.517036 74.911204 
L 57.949271 88.482291 
L 60.381507 100.493327 
L 62.002997 107.633989 
L 63.624487 114.081295 
L 65.245977 119.835245 
L 66.867467 124.895839 
L 68.488957 129.263077 
L 70.921192 134.921465 
L 71.731937 136.462734 
L 72.542682 137.744168 
L 73.353427 138.736129 
L 74.164172 139.425331 
L 74.974917 139.780609 
L 75.785662 139.775367 
L 76.596407 139.498448 
L 77.407152 138.718758 
L 78.217897 139.127278 
L 79.839387 138.189698 
L 80.650132 137.869087 
L 81.460877 137.793709 
L 82.271622 138.065881 
L 83.082367 138.535592 
L 86.325348 141.241407 
L 88.757583 142.520396 
L 91.189818 144.276503 
L 92.811308 145.448565 
L 93.622053 145.870482 
L 94.432798 146.057613 
L 95.243543 146.126714 
L 97.675778 145.621023 
L 98.486523 145.387376 
L 99.297268 145.353428 
L 100.918758 145.607679 
L 102.540248 145.309915 
L 103.350993 145.422457 
L 104.972483 145.179522 
L 106.593973 145.073241 
L 111.458444 144.902924 
L 113.079934 145.062342 
L 113.890679 144.975567 
L 114.701424 145.717491 
L 115.512169 145.962094 
L 116.322914 146.931693 
L 117.133659 147.166343 
L 117.944404 147.600669 
L 118.755149 147.756682 
L 119.565894 147.737079 
L 120.376639 147.465382 
L 121.187384 147.047263 
L 121.998129 146.498086 
L 124.430364 144.284626 
L 126.051854 142.460724 
L 126.862599 141.304979 
L 128.484089 138.510885 
L 129.294834 136.881926 
L 130.105579 135.626468 
L 131.727069 133.910856 
L 133.348559 131.009123 
L 134.159304 129.92428 
L 135.780794 127.349623 
L 137.402285 125.303572 
L 139.023775 122.528491 
L 139.83452 121.733568 
L 140.645265 121.239561 
L 141.45601 120.396053 
L 142.266755 119.732067 
L 143.0775 119.718771 
L 144.69899 120.57311 
L 146.32048 121.651865 
L 147.131225 122.682074 
L 147.94197 122.996744 
L 148.752715 123.817391 
L 149.56346 123.956243 
L 150.374205 124.681272 
L 151.995695 125.637945 
L 152.80644 126.353348 
L 153.617185 127.533091 
L 156.04942 132.151194 
L 157.67091 133.998663 
L 158.481655 134.377029 
L 159.2924 134.163764 
L 161.724635 132.935891 
L 162.53538 132.988299 
L 163.346126 132.819831 
L 164.156871 132.003768 
L 165.778361 129.629866 
L 166.589106 127.954115 
L 168.210596 123.2686 
L 169.021341 121.11146 
L 170.642831 115.668793 
L 173.885811 106.751742 
L 174.696556 105.106749 
L 175.507301 103.888963 
L 176.318046 103.035333 
L 177.128791 101.912073 
L 178.750281 100.320566 
L 179.561026 99.723513 
L 181.182516 98.917967 
L 181.993261 99.248896 
L 183.614751 100.31149 
L 186.046986 102.734211 
L 186.857731 102.866747 
L 188.479221 101.865726 
L 190.911457 98.398467 
L 192.532947 97.525755 
L 193.343692 97.798947 
L 194.154437 98.649223 
L 194.965182 98.287745 
L 195.775927 98.654763 
L 196.586672 98.672026 
L 197.397417 97.581113 
L 198.208162 97.800088 
L 199.018907 97.718379 
L 200.640397 95.494969 
L 201.451142 95.451426 
L 202.261887 95.535118 
L 203.072632 95.505941 
L 203.883377 96.02587 
L 204.694122 96.133565 
L 206.315612 97.689102 
L 207.126357 98.556958 
L 207.937102 99.635144 
L 210.369337 104.208068 
L 216.044553 116.91195 
L 217.666043 119.699508 
L 220.098278 123.55386 
L 220.909023 125.119687 
L 222.530513 128.922992 
L 225.773493 138.321095 
L 226.584238 140.230904 
L 227.394983 141.481355 
L 228.205728 143.676758 
L 229.016473 144.813873 
L 229.827218 145.584762 
L 230.637963 147.269901 
L 231.448708 147.364869 
L 232.259453 147.252057 
L 233.880943 149.251118 
L 234.691688 149.504484 
L 235.502433 149.301754 
L 236.313178 148.829205 
L 237.123923 147.826445 
L 237.934668 147.345622 
L 239.556158 145.738308 
L 240.366903 145.339366 
L 241.177649 145.253733 
L 241.988394 146.313538 
L 242.799139 147.056073 
L 243.609884 147.311141 
L 244.420629 147.939916 
L 245.231374 148.348005 
L 246.042119 147.826077 
L 246.852864 146.741115 
L 247.663609 144.792269 
L 249.285099 139.097912 
L 251.717334 128.442491 
L 252.528079 125.120648 
L 254.149569 119.720166 
L 255.771059 114.573805 
L 257.392549 110.065983 
L 258.203294 108.415055 
L 259.014039 107.291262 
L 259.824784 106.539146 
L 260.635529 106.256651 
L 261.446274 106.360127 
L 262.257019 106.670966 
L 263.878509 107.987392 
L 264.689254 108.870982 
L 266.310744 111.073307 
L 267.12149 112.302489 
L 268.74298 115.676448 
L 269.553725 117.922135 
L 271.175215 123.378816 
L 272.796705 129.796837 
L 274.418195 136.756031 
L 276.039685 140.789514 
L 276.85043 142.490879 
L 277.661175 142.795913 
L 279.282665 141.177319 
L 280.904155 138.949425 
L 282.525645 137.29913 
L 283.33639 137.334625 
L 284.147135 137.947275 
L 284.95788 137.916319 
L 285.768625 138.523033 
L 286.57937 138.267747 
L 287.390115 138.344438 
L 288.20086 137.731178 
L 290.633095 136.743146 
L 293.876076 136.100281 
L 295.497566 135.115602 
L 296.308311 134.449029 
L 297.119056 133.510132 
L 299.551291 130.039388 
L 300.362036 128.546444 
L 302.794271 122.622638 
L 305.226506 116.654146 
L 306.037251 114.891182 
L 307.658741 112.677502 
L 308.469486 111.996075 
L 309.280231 111.618628 
L 310.090976 111.494536 
L 310.901721 111.624278 
L 311.712466 111.880579 
L 312.523211 112.292539 
L 313.333956 112.853209 
L 314.144701 113.825822 
L 316.576936 118.333452 
L 318.198426 119.571074 
L 319.009172 119.508307 
L 319.819917 119.921005 
L 320.630662 119.496688 
L 322.252152 121.072415 
L 323.062897 121.907491 
L 324.684387 124.034154 
L 325.495132 124.52491 
L 326.305877 124.282964 
L 327.116622 123.184809 
L 327.927367 121.258769 
L 328.738112 118.858029 
L 331.170347 110.137074 
L 332.791837 102.993403 
L 335.224072 90.915902 
L 336.845562 84.397547 
L 337.656307 81.713504 
L 339.277797 78.115136 
L 340.088542 76.515413 
L 340.899287 75.569873 
L 341.710032 75.12329 
L 342.520777 75.077852 
L 343.331522 75.514964 
L 344.142267 76.286346 
L 344.953012 77.819613 
L 345.763758 80.059922 
L 348.195993 88.341259 
L 349.817483 93.80168 
L 351.438973 100.768323 
L 352.249718 104.716994 
L 354.681953 119.789387 
L 355.492698 123.368774 
L 356.303443 127.654589 
L 357.114188 131.288802 
L 357.924933 133.243259 
L 358.735678 133.975175 
L 359.546423 134.20825 
L 360.357168 134.282805 
L 361.167913 134.210568 
L 361.978658 133.62719 
L 362.789403 132.682693 
L 363.600148 131.074292 
L 364.410893 128.718867 
L 366.032383 123.402836 
L 366.843128 120.697186 
L 368.464618 116.370134 
L 370.086108 114.536726 
L 370.896854 113.121028 
L 371.707599 111.275968 
L 372.518344 110.80321 
L 373.329089 110.17888 
L 374.950579 108.575342 
L 378.193559 104.551924 
L 380.625794 100.326366 
L 381.436539 99.620816 
L 382.247284 99.451186 
L 383.058029 99.706035 
L 383.868774 100.290799 
L 384.679519 101.506995 
L 385.490264 103.15031 
L 387.111754 105.063594 
L 387.922499 106.21335 
L 388.733244 108.136262 
L 389.543989 109.529779 
L 390.354734 110.260763 
L 391.165479 111.37298 
L 391.976224 112.744757 
L 392.786969 114.57124 
L 393.597714 115.147167 
L 395.219204 116.036648 
L 396.029949 117.122546 
L 397.65144 119.961478 
L 398.462185 122.192935 
L 399.27293 124.033253 
L 400.89442 128.492444 
L 401.705165 131.169313 
L 402.51591 132.460761 
L 403.326655 133.432026 
L 404.1374 134.869349 
L 404.948145 136.573905 
L 405.75889 136.882725 
L 407.38038 137.169764 
L 409.00187 136.930551 
L 411.434105 135.802071 
L 412.24485 135.96929 
L 418.73081 140.751577 
L 419.541555 141.515433 
L 420.3523 142.560992 
L 421.163045 143.853521 
L 421.97379 144.758102 
L 422.784536 144.987088 
L 423.595281 144.982816 
L 424.406026 144.55477 
L 425.216771 143.82253 
L 426.027516 142.076458 
L 427.649006 140.077189 
L 428.459751 139.297825 
L 432.513476 133.093731 
L 433.324221 132.214643 
L 434.945711 129.834131 
L 435.756456 129.080946 
L 436.567201 128.827241 
L 437.377946 127.863692 
L 438.188691 126.53222 
L 438.999436 125.899716 
L 439.810181 125.764092 
L 440.620926 124.904864 
L 441.431671 123.687685 
L 442.242416 123.168414 
L 443.863906 122.806676 
L 445.485396 122.855477 
L 447.106886 123.314818 
L 448.728376 124.184699 
L 450.349867 125.465119 
L 451.971357 127.156079 
L 453.592847 129.257579 
L 455.214337 131.769618 
L 456.835827 134.692197 
L 458.457317 138.025315 
L 458.457317 138.025315 
" clip-path="url(#pf484579187)" style="fill: none; stroke: #4daf7c; stroke-width: 1.35; stroke-linecap: square"/>
   </g>
   <g id="patch_3">
    <path d="M 53.084801 151.5 
L 53.084801 7.2 
" style="fill: none; stroke: #222222; stroke-width: 0.8; stroke-linejoin: miter; stroke-linecap: square"/>
   </g>
   <g id="patch_4">
    <path d="M 53.084801 151.5 
L 458.457317 151.5 
" style="fill: none; stroke: #222222; stroke-width: 0.8; stroke-linejoin: miter; stroke-linecap: square"/>
   </g>
   <g id="legend_1">
    <g id="line2d_17">
     <path d="M 59.384801 16.368906 
L 66.384801 16.368906 
L 73.384801 16.368906 
" style="fill: none; stroke: #d95f5f; stroke-width: 1.35; stroke-linecap: square"/>
    </g>
    <g id="text_15">
     <text style="font-size: 7px; font-family: 'Arial', 'Helvetica', 'DejaVu Sans', sans-serif; text-anchor: start" x="78.984801" y="18.818906" transform="rotate(-0 78.984801 18.818906)">Original (Clinical)</text>
    </g>
    <g id="line2d_18">
     <path d="M 153.305114 16.368906 
L 160.305114 16.368906 
L 167.305114 16.368906 
" style="fill: none; stroke: #4daf7c; stroke-width: 1.35; stroke-linecap: square"/>
    </g>
    <g id="text_16">
     <text style="font-size: 7px; font-family: 'Arial', 'Helvetica', 'DejaVu Sans', sans-serif; text-anchor: start" x="172.905114" y="18.818906" transform="rotate(-0 172.905114 18.818906)">Geodesic (Ours)</text>
    </g>
   </g>
  </g>
 </g>
 <defs>
  <clipPath id="pf484579187">
   <rect x="53.084801" y="7.2" width="405.372516" height="144.3"/>
  </clipPath>
 </defs>
</svg>
