<?xml version="1.0" encoding="utf-8" standalone="no"?>
<!DOCTYPE svg PUBLIC "-//W3C//DTD SVG 1.1//EN"
  "http://www.w3.org/Graphics/SVG/1.1/DTD/svg11.dtd">
<svg xmlns:xlink="http://www.w3.org/1999/xlink" width="471.599049pt" height="184.035937pt" viewBox="0 0 471.599049 184.035937" xmlns="http://www.w3.org/2000/svg" version="1.1">
 <metadata>
  <rdf:RDF xmlns:dc="http://purl.org/dc/elements/1.1/" xmlns:cc="http://creativecommons.org/ns#" xmlns:rdf="http://www.w3.org/1999/02/22-rdf-syntax-ns#">
   <cc:Work>
    <dc:type rdf:resource="http://purl.org/dc/dcmitype/StillImage"/>
    <dc:date>2026-07-02T13:16:05.981143</dc:date>
    <dc:format>image/svg+xml</dc:format>
    <dc:creator>
     <cc:Agent>
      <dc:title>Matplotlib v3.10.8, https://matplotlib.org/</dc:title>
     </cc:Agent>
    </dc:creator>
   </cc:Work>
  </rdf:RDF>
 </metadata>
 <defs>
  <style type="text/css">*{stroke-linejoin: round; stroke-linecap: butt}</style>
 </defs>
 <g id="figure_1">
  <g id="patch_1">
   <path d="M 0 184.035937 
L 471.599049 184.035937 
L 471.599049 -0 
L 0 -0 
z
" style="fill: #ffffff"/>
  </g>
  <g id="axes_1">
   <g id="patch_2">
    <path d="M 61.888851 151.81875 
L 458.832955 151.81875 
L 458.832955 19.27875 
L 61.888851 19.27875 
z
" style="fill: #ffffff"/>
   </g>
   <g id="matplotlib.axis_1">
    <g id="xtick_1">
     <g id="line2d_1">
      <defs>
       <path id="mbb628f55c0" d="M 0 0 
L 0 3 
" style="stroke: #222222; stroke-width: 0.8"/>
      </defs>
      <g>
       <use xlink:href="#mbb628f55c0" x="61.888851" y="151.81875" style="fill: #222222; stroke: #222222; stroke-width: 0.8"/>
      </g>
     </g>
     <g id="text_1">
      <text style="font-size: 7px; font-family: 'Arial', 'Helvetica', 'DejaVu Sans', sans-serif; text-anchor: middle; fill: #222222" x="61.888851" y="163.637656" transform="rotate(-0 61.888851 163.637656)">0.0</text>
     </g>
    </g>
    <g id="xtick_2">
     <g id="line2d_2">
      <g>
       <use xlink:href="#mbb628f55c0" x="141.277672" y="151.81875" style="fill: #222222; stroke: #222222; stroke-width: 0.8"/>
      </g>
     </g>
     <g id="text_2">
      <text style="font-size: 7px; font-family: 'Arial', 'Helvetica', 'DejaVu Sans', sans-serif; text-anchor: middle; fill: #222222" x="141.277672" y="163.637656" transform="rotate(-0 141.277672 163.637656)">0.2</text>
     </g>
    </g>
    <g id="xtick_3">
     <g id="line2d_3">
      <g>
       <use xlink:href="#mbb628f55c0" x="220.666493" y="151.81875" style="fill: #222222; stroke: #222222; stroke-width: 0.8"/>
      </g>
     </g>
     <g id="text_3">
      <text style="font-size: 7px; font-family: 'Arial', 'Helvetica', 'DejaVu Sans', sans-serif; text-anchor: middle; fill: #222222" x="220.666493" y="163.637656" transform="rotate(-0 220.666493 163.637656)">0.4</text>
     </g>
    </g>
    <g id="xtick_4">
     <g id="line2d_4">
      <g>
       <use xlink:href="#mbb628f55c0" x="300.055313" y="151.81875" style="fill: #222222; stroke: #222222; stroke-width: 0.8"/>
      </g>
     </g>
     <g id="text_4">
      <text style="font-size: 7px; font-family: 'Arial', 'Helvetica', 'DejaVu Sans', sans-serif; text-anchor: middle; fill: #222222" x="300.055313" y="163.637656" transform="rotate(-0 300.055313 163.637656)">0.6</text>
     </g>
    </g>
    <g id="xtick_5">
     <g id="line2d_5">
      <g>
       <use xlink:href="#mbb628f55c0" x="379.444134" y="151.81875" style="fill: #222222; stroke: #222222; stroke-width: 0.8"/>
      </g>
     </g>
     <g id="text_5">
      <text style="font-size: 7px; font-family: 'Arial', 'Helvetica', 'DejaVu Sans', sans-serif; text-anchor: middle; fill: #222222" x="379.444134" y="163.637656" transform="rotate(-0 379.444134 163.637656)">0.8</text>
     </g>
    </g>
    <g id="xtick_6">
     <g id="line2d_6">
      <g>
       <use xlink:href="#mbb628f55c0" x="458.832955" y="151.81875" style="fill: #222222; stroke: #222222; stroke-width: 0.8"/>
      </g>
     </g>
     <g id="text_6">
      <text style="font-size: 7px; font-family: 'Arial', 'Helvetica', 'DejaVu Sans', sans-serif; text-anchor: middle; fill: #222222" x="458.832955" y="163.637656" transform="rotate(-0 458.832955 163.637656)">1.0</text>
     </g>
    </g>
    <g id="text_7">
     <text style="font-size: 8px; font-family: 'Arial', 'Helvetica', 'DejaVu Sans', sans-serif; text-anchor: middle" x="260.360903" y="175.172187" transform="rotate(-0 260.360903 175.172187)">Normalized scan progress</text>
    </g>
   </g>
   <g id="matplotlib.axis_2">
    <g id="ytick_1">
     <g id="line2d_7">
      <defs>
       <path id="m5f7158ef76" d="M 0 0 
L -3 0 
" style="stroke: #222222; stroke-width: 0.8"/>
      </defs>
      <g>
       <use xlink:href="#m5f7158ef76" x="61.888851" y="151.81875" style="fill: #222222; stroke: #222222; stroke-width: 0.8"/>
      </g>
     </g>
     <g id="text_8">
      <text style="font-size: 7px; font-family: 'Arial', 'Helvetica', 'DejaVu Sans', sans-serif; text-anchor: end; fill: #222222" x="55.388851" y="154.478203" transform="rotate(-0 55.388851 154.478203)">0</text>
     </g>
    </g>
    <g id="ytick_2">
     <g id="line2d_8">
      <g>
       <use xlink:href="#m5f7158ef76" x="61.888851" y="133.676717" style="fill: #222222; stroke: #222222; stroke-width: 0.8"/>
      </g>
     </g>
     <g id="text_9">
      <text style="font-size: 7px; font-family: 'Arial', 'Helvetica', 'DejaVu Sans', sans-serif; text-anchor: end; fill: #222222" x="55.388851" y="136.33617" transform="rotate(-0 55.388851 136.33617)">100</text>
     </g>
    </g>
    <g id="ytick_3">
     <g id="line2d_9">
      <g>
       <use xlink:href="#m5f7158ef76" x="61.888851" y="115.534684" style="fill: #222222; stroke: #222222; stroke-width: 0.8"/>
      </g>
     </g>
     <g id="text_10">
      <text style="font-size: 7px; font-family: 'Arial', 'Helvetica', 'DejaVu Sans', sans-serif; text-anchor: end; fill: #222222" x="55.388851" y="118.194138" transform="rotate(-0 55.388851 118.194138)">200</text>
     </g>
    </g>
    <g id="ytick_4">
     <g id="line2d_10">
      <g>
       <use xlink:href="#m5f7158ef76" x="61.888851" y="97.392652" style="fill: #222222; stroke: #222222; stroke-width: 0.8"/>
      </g>
     </g>
     <g id="text_11">
      <text style="font-size: 7px; font-family: 'Arial', 'Helvetica', 'DejaVu Sans', sans-serif; text-anchor: end; fill: #222222" x="55.388851" y="100.052105" transform="rotate(-0 55.388851 100.052105)">300</text>
     </g>
    </g>
    <g id="ytick_5">
     <g id="line2d_11">
      <g>
       <use xlink:href="#m5f7158ef76" x="61.888851" y="79.250619" style="fill: #222222; stroke: #222222; stroke-width: 0.8"/>
      </g>
     </g>
     <g id="text_12">
      <text style="font-size: 7px; font-family: 'Arial', 'Helvetica', 'DejaVu Sans', sans-serif; text-anchor: end; fill: #222222" x="55.388851" y="81.910072" transform="rotate(-0 55.388851 81.910072)">400</text>
     </g>
    </g>
    <g id="ytick_6">
     <g id="line2d_12">
      <g>
       <use xlink:href="#m5f7158ef76" x="61.888851" y="61.108586" style="fill: #222222; stroke: #222222; stroke-width: 0.8"/>
      </g>
     </g>
     <g id="text_13">
      <text style="font-size: 7px; font-family: 'Arial', 'Helvetica', 'DejaVu Sans', sans-serif; text-anchor: end; fill: #222222" x="55.388851" y="63.768039" transform="rotate(-0 55.388851 63.768039)">500</text>
     </g>
    </g>
    <g id="ytick_7">
     <g id="line2d_13">
      <g>
       <use xlink:href="#m5f7158ef76" x="61.888851" y="42.966553" style="fill: #222222; stroke: #222222; stroke-width: 0.8"/>
      </g>
     </g>
     <g id="text_14">
      <text style="font-size: 7px; font-family: 'Arial', 'Helvetica', 'DejaVu Sans', sans-serif; text-anchor: end; fill: #222222" x="55.388851" y="45.626006" transform="rotate(-0 55.388851 45.626006)">600</text>
     </g>
    </g>
    <g id="ytick_8">
     <g id="line2d_14">
      <g>
       <use xlink:href="#m5f7158ef76" x="61.888851" y="24.82452" style="fill: #222222; stroke: #222222; stroke-width: 0.8"/>
      </g>
     </g>
     <g id="text_15">
      <text style="font-size: 7px; font-family: 'Arial', 'Helvetica', 'DejaVu Sans', sans-serif; text-anchor: end; fill: #222222" x="55.388851" y="27.483974" transform="rotate(-0 55.388851 27.483974)">700</text>
     </g>
    </g>
    <g id="text_16">
     <!-- $V_o(S)$ -->
     <g transform="translate(7.515 72.842437)">
      <text>
       <tspan x="0" y="-0.25" style="font-size: 9px; font-family: 'cmmi10'">V</tspan>
       <tspan x="12.36317" y="-0.25" style="font-size: 9px; font-family: 'cmmi10'">S</tspan>
       <tspan x="5.24707" y="1.280563" style="font-size: 6.3px; font-family: 'cmmi10'">o</tspan>
       <tspan x="8.869518" y="-0.25" style="font-size: 9px; font-family: 'cmr10'">(</tspan>
       <tspan x="17.878307" y="-0.25" style="font-size: 9px; font-family: 'cmr10'">)</tspan>
      </text>
     </g>
     <!-- $(\mathrm{mm})$ -->
     <g transform="translate(7.2 83.29875)">
      <text>
       <tspan x="0" y="-0.25" style="font-size: 9px; font-family: 'cmr10'">(</tspan>
       <tspan x="3.493652" y="-0.25" style="font-size: 9px; font-family: 'cmr10'">m</tspan>
       <tspan x="10.990723" y="-0.25" style="font-size: 9px; font-family: 'cmr10'">m</tspan>
       <tspan x="18.487793" y="-0.25" style="font-size: 9px; font-family: 'cmr10'">)</tspan>
      </text>
     </g>
    </g>
   </g>
   <g id="line2d_15">
    <path d="M 61.888851 151.81875 
L 69.033845 151.787909 
L 69.827733 151.483823 
L 70.621622 151.302402 
L 71.41551 150.967769 
L 73.797174 150.967769 
L 74.591063 150.771835 
L 75.384951 149.98882 
L 76.178839 149.385779 
L 78.560504 148.505718 
L 83.323833 147.107765 
L 84.911609 146.197975 
L 85.705498 146.053201 
L 88.88105 144.465773 
L 90.468827 143.830802 
L 92.056603 143.757466 
L 95.232156 143.746805 
L 96.026044 143.581245 
L 100.789374 143.559283 
L 103.964926 143.498203 
L 104.758815 143.349367 
L 105.552703 143.349367 
L 106.346591 142.747402 
L 107.934367 142.173066 
L 108.728256 141.711558 
L 109.522144 141.466958 
L 111.10992 141.466958 
L 111.903808 141.311581 
L 134.132678 140.978073 
L 134.926566 140.382289 
L 137.308231 137.973223 
L 138.102119 136.975945 
L 138.896007 136.512744 
L 139.689896 135.862624 
L 142.865449 135.862624 
L 146.83489 135.317999 
L 150.010442 135.21205 
L 150.804331 134.773738 
L 153.185995 134.354215 
L 156.361548 134.354215 
L 157.155436 134.201822 
L 157.949324 133.851317 
L 158.743213 133.758253 
L 160.330989 133.30707 
L 161.124877 133.30707 
L 165.888207 131.75923 
L 166.682095 131.482951 
L 167.475983 131.346885 
L 168.269871 131.346885 
L 169.063759 130.965198 
L 171.445424 130.454589 
L 173.0332 129.715414 
L 179.384306 129.631236 
L 182.559859 128.942437 
L 184.147635 128.254965 
L 184.941523 127.780369 
L 185.735412 127.599581 
L 188.910965 127.599581 
L 190.498741 127.220289 
L 192.086517 126.854823 
L 192.880406 126.651632 
L 194.468182 126.036071 
L 195.26207 125.950078 
L 196.849847 125.126338 
L 198.437623 125.042885 
L 202.407064 124.940061 
L 203.200952 124.883458 
L 204.788729 124.63577 
L 205.582617 124.622604 
L 206.376505 124.332403 
L 211.933723 124.332403 
L 212.727611 124.169805 
L 213.521499 124.169805 
L 214.315387 123.467708 
L 215.903164 122.588417 
L 216.697052 121.874838 
L 218.284828 121.874838 
L 219.078716 121.037038 
L 219.872605 120.550469 
L 220.666493 119.162604 
L 221.460381 118.993113 
L 222.254269 117.551228 
L 226.22371 117.331347 
L 227.017598 117.157909 
L 232.574816 117.088969 
L 233.368704 116.795068 
L 238.925922 115.986932 
L 242.101474 115.928192 
L 244.483139 115.779113 
L 246.864804 115.692394 
L 247.658692 115.326651 
L 250.834245 114.854143 
L 252.422021 114.354158 
L 253.215909 114.296184 
L 254.009797 112.86417 
L 255.597574 108.836699 
L 256.391462 107.439762 
L 257.18535 105.589275 
L 257.979239 105.589275 
L 258.773127 104.591463 
L 260.360903 101.598028 
L 261.154791 101.162323 
L 261.94868 100.963486 
L 263.536456 100.143414 
L 264.330344 99.981979 
L 265.124232 99.573784 
L 265.918121 99.387758 
L 266.712009 98.94647 
L 267.505897 98.737836 
L 273.063114 98.533872 
L 275.444779 98.527341 
L 277.032555 98.209223 
L 279.41422 97.809197 
L 284.971438 97.740258 
L 286.559214 97.423054 
L 288.14699 97.340712 
L 290.528655 96.331111 
L 292.116431 95.439483 
L 292.91032 95.133971 
L 294.498096 94.260968 
L 296.879761 94.219242 
L 301.64309 89.23812 
L 302.436978 88.221602 
L 303.230866 87.858589 
L 309.581972 80.992664 
L 310.37586 80.378012 
L 311.963637 80.290568 
L 313.551413 80.261178 
L 316.726966 79.5376 
L 318.314742 79.406562 
L 319.902519 79.21304 
L 321.490295 79.180385 
L 324.665848 78.506952 
L 325.459736 78.146471 
L 327.047513 77.693058 
L 327.841401 77.421493 
L 328.635289 77.331949 
L 329.429177 76.754102 
L 330.223065 76.596997 
L 331.016954 75.998675 
L 331.810842 75.700782 
L 333.398618 75.475842 
L 336.574171 74.686194 
L 337.368059 74.646638 
L 338.161947 74.471023 
L 339.749724 73.69914 
L 340.543612 73.19588 
L 341.3375 72.919395 
L 342.925277 71.941585 
L 343.719165 71.846521 
L 345.306941 70.920814 
L 346.10083 70.685057 
L 348.482494 70.609345 
L 350.864159 70.564965 
L 351.658047 70.564965 
L 354.039712 69.437339 
L 354.8336 69.425821 
L 356.421376 68.418938 
L 357.215264 67.611618 
L 359.596929 67.611618 
L 361.184705 67.067357 
L 361.978594 67.043697 
L 363.56637 66.781928 
L 364.360258 65.981737 
L 365.948035 65.362006 
L 369.123588 65.209121 
L 369.917476 64.289449 
L 370.711364 64.164631 
L 371.505252 63.379233 
L 372.29914 62.854928 
L 373.093029 62.854928 
L 373.886917 62.570743 
L 374.680805 62.048333 
L 376.268581 61.539631 
L 377.856358 61.534037 
L 378.650246 60.59709 
L 380.238022 60.058634 
L 381.825799 59.983163 
L 383.413575 57.857999 
L 384.207463 57.496972 
L 385.001352 56.178937 
L 385.79524 55.722152 
L 386.589128 54.755305 
L 387.383016 54.755305 
L 388.176904 53.548513 
L 388.970793 53.316295 
L 389.764681 53.316295 
L 390.558569 52.513526 
L 391.352457 52.056347 
L 392.146346 51.793287 
L 392.940234 50.709757 
L 393.734122 50.252578 
L 395.321898 50.181824 
L 396.115787 50.181824 
L 396.909675 49.733297 
L 400.085228 49.093302 
L 404.054669 49.093302 
L 405.642445 47.892662 
L 406.436333 47.746092 
L 407.230221 47.746092 
L 408.02411 46.871675 
L 408.817998 46.32814 
L 411.199662 46.022599 
L 416.75688 46.022599 
L 418.344656 44.807082 
L 419.138545 43.491785 
L 419.932433 42.433742 
L 420.726321 41.593403 
L 421.520209 40.915616 
L 423.107986 40.814021 
L 423.901874 40.288991 
L 427.077427 39.281019 
L 429.459091 38.749998 
L 432.634644 37.67112 
L 433.428532 37.586215 
L 435.016309 37.020406 
L 436.604085 36.428491 
L 437.397973 36.320001 
L 440.573526 35.464234 
L 444.542967 34.669613 
L 447.71852 33.051707 
L 448.512408 32.814496 
L 450.894073 31.624717 
L 451.687961 31.356312 
L 452.481849 30.741018 
L 453.275737 29.833625 
L 458.039067 26.131625 
L 458.832955 25.590179 
L 458.832955 25.590179 
" clip-path="url(#p34008e3de4)" style="fill: none; stroke: #d95f5f; stroke-width: 1.35; stroke-linecap: square"/>
   </g>
   <g id="line2d_16">
    <path d="M 61.888851 151.81875 
L 69.033845 151.787909 
L 71.41551 150.953973 
L 73.797174 150.953973 
L 74.591063 150.576619 
L 76.178839 149.417119 
L 76.972727 149.211544 
L 77.766616 148.85596 
L 81.736057 147.983602 
L 83.323833 147.244133 
L 84.117721 146.756475 
L 84.911609 146.480984 
L 85.705498 146.408924 
L 88.88105 144.574765 
L 89.674939 144.473881 
L 90.468827 144.142245 
L 99.201597 143.690873 
L 99.995485 143.240001 
L 100.789374 143.04321 
L 101.583262 143.034384 
L 103.964926 142.331954 
L 105.552703 142.331954 
L 106.346591 141.744896 
L 107.934367 141.290285 
L 108.728256 140.794162 
L 109.522144 140.562842 
L 111.10992 140.555464 
L 112.697697 140.271497 
L 118.254914 140.25762 
L 119.048802 140.030844 
L 120.636579 139.916337 
L 122.224355 139.282778 
L 124.60602 139.219192 
L 126.193796 139.125162 
L 133.33879 139.125162 
L 134.132678 138.597229 
L 134.926566 137.835284 
L 135.720455 136.841332 
L 136.514343 136.374431 
L 137.308231 135.679842 
L 138.102119 134.507868 
L 138.896007 133.884645 
L 140.483784 133.172015 
L 142.07156 133.072597 
L 149.216554 133.072597 
L 150.010442 132.611063 
L 152.392107 132.084249 
L 153.185995 132.084249 
L 153.979883 131.800508 
L 155.56766 131.721408 
L 160.330989 131.687642 
L 161.918765 131.575745 
L 162.712654 131.575745 
L 164.30043 130.972348 
L 165.888207 130.592013 
L 166.682095 130.143835 
L 167.475983 129.951058 
L 169.857648 129.846817 
L 170.651536 129.455831 
L 173.0332 129.144761 
L 173.827089 128.719424 
L 177.79653 128.664694 
L 179.384306 128.62587 
L 182.559859 128.044181 
L 184.147635 127.496455 
L 185.735412 126.561777 
L 187.323188 126.478082 
L 189.704853 126.342681 
L 192.086517 125.504519 
L 193.674294 125.352851 
L 195.26207 125.269549 
L 196.849847 125.269549 
L 198.437623 124.904627 
L 202.407064 124.832059 
L 203.200952 124.262358 
L 203.99484 124.035582 
L 205.582617 124.035582 
L 206.376505 123.77791 
L 208.75817 123.735244 
L 210.345946 123.631471 
L 211.933723 122.506801 
L 212.727611 122.506801 
L 213.521499 122.319029 
L 214.315387 122.319029 
L 215.109275 121.25772 
L 215.903164 121.25772 
L 216.697052 120.069417 
L 230.987039 120.069417 
L 231.780928 119.9319 
L 232.574816 119.483429 
L 235.750369 118.846165 
L 238.132033 118.846165 
L 240.513698 118.301904 
L 245.277027 118.135112 
L 246.070915 118.0288 
L 247.658692 117.548865 
L 250.040356 117.528546 
L 251.628133 116.934195 
L 253.215909 116.661237 
L 254.009797 115.261776 
L 254.803686 113.119992 
L 255.597574 112.203819 
L 257.18535 108.20967 
L 257.979239 108.094649 
L 258.773127 107.096837 
L 260.360903 104.148757 
L 261.154791 103.749239 
L 261.94868 103.556003 
L 262.742568 103.108983 
L 265.124232 102.262581 
L 265.918121 101.868541 
L 267.505897 101.284477 
L 274.650891 100.812462 
L 275.444779 100.812462 
L 276.238667 100.486559 
L 277.032555 100.379201 
L 277.826444 100.130707 
L 279.41422 99.926947 
L 280.208108 99.594589 
L 281.001997 99.417318 
L 281.795885 99.080239 
L 282.589773 98.947753 
L 289.734767 98.847609 
L 290.528655 98.080302 
L 291.322543 97.737305 
L 292.116431 97.032572 
L 292.91032 96.877888 
L 293.704208 96.877888 
L 294.498096 96.583001 
L 295.291984 96.572119 
L 296.085872 96.165583 
L 296.879761 95.51501 
L 298.467537 93.554057 
L 299.261425 92.862987 
L 300.849202 90.928574 
L 302.436978 88.558145 
L 303.230866 87.78472 
L 304.024755 87.469774 
L 305.612531 87.157369 
L 309.581972 85.691664 
L 310.37586 85.5839 
L 311.169748 85.032706 
L 311.963637 84.745099 
L 312.757525 84.065148 
L 313.551413 83.736748 
L 315.139189 82.517264 
L 315.933078 82.127841 
L 319.10863 81.981689 
L 320.696407 81.520882 
L 323.87196 80.403332 
L 324.665848 79.94071 
L 326.253624 79.373876 
L 331.016954 75.929792 
L 331.810842 75.771231 
L 338.161947 75.565102 
L 338.955836 75.168909 
L 339.749724 74.97853 
L 340.543612 74.97853 
L 341.3375 74.696912 
L 343.719165 74.658119 
L 346.894718 74.658119 
L 347.688606 74.383543 
L 354.8336 74.370843 
L 355.627488 74.14393 
L 360.390817 74.125154 
L 367.535811 74.125154 
L 369.123588 73.054774 
L 369.917476 73.036632 
L 370.711364 72.127353 
L 371.505252 71.684325 
L 372.29914 71.684325 
L 373.093029 71.000398 
L 373.886917 70.51782 
L 374.680805 70.387923 
L 376.268581 70.387923 
L 377.06247 69.672832 
L 378.650246 68.973178 
L 379.444134 68.973178 
L 380.238022 68.138939 
L 381.031911 67.654547 
L 381.825799 66.495932 
L 382.619687 65.997027 
L 384.207463 63.598351 
L 385.001352 62.714834 
L 385.79524 62.346551 
L 386.589128 61.067538 
L 388.176904 59.779453 
L 395.321898 59.779453 
L 396.909675 58.593327 
L 397.703563 57.683346 
L 398.497451 57.083934 
L 400.085228 56.974356 
L 400.879116 55.913766 
L 401.673004 55.470737 
L 418.344656 55.470737 
L 419.138545 54.237079 
L 420.726321 52.894569 
L 422.314097 52.808266 
L 423.901874 52.082584 
L 426.283538 51.908346 
L 429.459091 51.908346 
L 431.840756 51.281513 
L 432.634644 51.266682 
L 435.016309 50.402419 
L 435.810197 50.357064 
L 437.397973 49.712298 
L 439.779638 49.354199 
L 442.161303 49.179924 
L 446.130744 48.412717 
L 450.894073 45.876461 
L 451.687961 45.44976 
L 452.481849 44.749478 
L 454.069626 44.099312 
L 458.832955 40.738558 
L 458.832955 40.738558 
" clip-path="url(#p34008e3de4)" style="fill: none; stroke: #4daf7c; stroke-width: 1.35; stroke-linecap: square"/>
   </g>
   <g id="patch_3">
    <path d="M 61.888851 151.81875 
L 61.888851 19.27875 
" style="fill: none; stroke: #222222; stroke-width: 0.8; stroke-linejoin: miter; stroke-linecap: square"/>
   </g>
   <g id="patch_4">
    <path d="M 61.888851 151.81875 
L 458.832955 151.81875 
" style="fill: none; stroke: #222222; stroke-width: 0.8; stroke-linejoin: miter; stroke-linecap: square"/>
   </g>
   <g id="text_17">
    <text style="font-size: 8px; font-family: 'Arial', 'Helvetica', 'DejaVu Sans', sans-serif; text-anchor: middle" x="260.360903" y="13.27875" transform="rotate(-0 260.360903 13.27875)">Cumulative force-control correction</text>
   </g>
   <g id="legend_1">
    <g id="line2d_17">
     <path d="M 68.188851 28.447656 
L 75.188851 28.447656 
L 82.188851 28.447656 
" style="fill: none; stroke: #d95f5f; stroke-width: 1.35; stroke-linecap: square"/>
    </g>
    <g id="text_18">
     <text style="font-size: 7px; font-family: 'Arial', 'Helvetica', 'DejaVu Sans', sans-serif; text-anchor: start" x="87.788851" y="30.897656" transform="rotate(-0 87.788851 30.897656)">Original (Clinical)</text>
    </g>
    <g id="line2d_18">
     <path d="M 162.109164 28.447656 
L 169.109164 28.447656 
L 176.109164 28.447656 
" style="fill: none; stroke: #4daf7c; stroke-width: 1.35; stroke-linecap: square"/>
    </g>
    <g id="text_19">
     <text style="font-size: 7px; font-family: 'Arial', 'Helvetica', 'DejaVu Sans', sans-serif; text-anchor: start" x="181.709164" y="30.897656" transform="rotate(-0 181.709164 30.897656)">Geodesic (Ours)</text>
    </g>
   </g>
  </g>
 </g>
 <defs>
  <clipPath id="p34008e3de4">
   <rect x="61.888851" y="19.27875" width="396.944104" height="132.54"/>
  </clipPath>
 </defs>
</svg>
