<?xml version="1.0" encoding="utf-8" standalone="no"?>
<!DOCTYPE svg PUBLIC "-//W3C//DTD SVG 1.1//EN"
  "http://www.w3.org/Graphics/SVG/1.1/DTD/svg11.dtd">
<svg xmlns:xlink="http://www.w3.org/1999/xlink" width="471.51546pt" height="183.717187pt" viewBox="0 0 471.51546 183.717187" xmlns="http://www.w3.org/2000/svg" version="1.1">
 <metadata>
  <rdf:RDF xmlns:dc="http://purl.org/dc/elements/1.1/" xmlns:cc="http://creativecommons.org/ns#" xmlns:rdf="http://www.w3.org/1999/02/22-rdf-syntax-ns#">
   <cc:Work>
    <dc:type rdf:resource="http://purl.org/dc/dcmitype/StillImage"/>
    <dc:date>2026-07-09T18:21:36.022591</dc:date>
    <dc:format>image/svg+xml</dc:format>
    <dc:creator>
     <cc:Agent>
      <dc:title>Matplotlib v3.10.8, https://matplotlib.org/</dc:title>
     </cc:Agent>
    </dc:creator>
   </cc:Work>
  </rdf:RDF>
 </metadata>
 <defs>
  <style type="text/css">*{stroke-linejoin: round; stroke-linecap: butt}</style>
 </defs>
 <g id="figure_1">
  <g id="patch_1">
   <path d="M 0 183.717187 
L 471.51546 183.717187 
L 471.51546 0 
L 0 0 
z
" style="fill: #ffffff"/>
  </g>
  <g id="axes_1">
   <g id="patch_2">
    <path d="M 43.175192 151.5 
L 458.749366 151.5 
L 458.749366 7.2 
L 43.175192 7.2 
z
" style="fill: #ffffff"/>
   </g>
   <g id="matplotlib.axis_1">
    <g id="xtick_1">
     <g id="line2d_1">
      <defs>
       <path id="m756c1faf9b" d="M 0 0 
L 0 3 
" style="stroke: #222222; stroke-width: 0.8"/>
      </defs>
      <g>
       <use xlink:href="#m756c1faf9b" x="43.175192" y="151.5" style="fill: #222222; stroke: #222222; stroke-width: 0.8"/>
      </g>
     </g>
     <g id="text_1">
      <text style="font-size: 7px; font-family: 'Arial', 'Helvetica', 'DejaVu Sans', sans-serif; text-anchor: middle; fill: #222222" x="43.175192" y="163.318906" transform="rotate(-0 43.175192 163.318906)">0.0</text>
     </g>
    </g>
    <g id="xtick_2">
     <g id="line2d_2">
      <g>
       <use xlink:href="#m756c1faf9b" x="126.290027" y="151.5" style="fill: #222222; stroke: #222222; stroke-width: 0.8"/>
      </g>
     </g>
     <g id="text_2">
      <text style="font-size: 7px; font-family: 'Arial', 'Helvetica', 'DejaVu Sans', sans-serif; text-anchor: middle; fill: #222222" x="126.290027" y="163.318906" transform="rotate(-0 126.290027 163.318906)">0.2</text>
     </g>
    </g>
    <g id="xtick_3">
     <g id="line2d_3">
      <g>
       <use xlink:href="#m756c1faf9b" x="209.404862" y="151.5" style="fill: #222222; stroke: #222222; stroke-width: 0.8"/>
      </g>
     </g>
     <g id="text_3">
      <text style="font-size: 7px; font-family: 'Arial', 'Helvetica', 'DejaVu Sans', sans-serif; text-anchor: middle; fill: #222222" x="209.404862" y="163.318906" transform="rotate(-0 209.404862 163.318906)">0.4</text>
     </g>
    </g>
    <g id="xtick_4">
     <g id="line2d_4">
      <g>
       <use xlink:href="#m756c1faf9b" x="292.519696" y="151.5" style="fill: #222222; stroke: #222222; stroke-width: 0.8"/>
      </g>
     </g>
     <g id="text_4">
      <text style="font-size: 7px; font-family: 'Arial', 'Helvetica', 'DejaVu Sans', sans-serif; text-anchor: middle; fill: #222222" x="292.519696" y="163.318906" transform="rotate(-0 292.519696 163.318906)">0.6</text>
     </g>
    </g>
    <g id="xtick_5">
     <g id="line2d_5">
      <g>
       <use xlink:href="#m756c1faf9b" x="375.634531" y="151.5" style="fill: #222222; stroke: #222222; stroke-width: 0.8"/>
      </g>
     </g>
     <g id="text_5">
      <text style="font-size: 7px; font-family: 'Arial', 'Helvetica', 'DejaVu Sans', sans-serif; text-anchor: middle; fill: #222222" x="375.634531" y="163.318906" transform="rotate(-0 375.634531 163.318906)">0.8</text>
     </g>
    </g>
    <g id="xtick_6">
     <g id="line2d_6">
      <g>
       <use xlink:href="#m756c1faf9b" x="458.749366" y="151.5" style="fill: #222222; stroke: #222222; stroke-width: 0.8"/>
      </g>
     </g>
     <g id="text_6">
      <text style="font-size: 7px; font-family: 'Arial', 'Helvetica', 'DejaVu Sans', sans-serif; text-anchor: middle; fill: #222222" x="458.749366" y="163.318906" transform="rotate(-0 458.749366 163.318906)">1.0</text>
     </g>
    </g>
    <g id="text_7">
     <text style="font-size: 8px; font-family: 'Arial', 'Helvetica', 'DejaVu Sans', sans-serif; text-anchor: middle" x="250.962279" y="174.853437" transform="rotate(-0 250.962279 174.853437)">Normalized scan progress</text>
    </g>
   </g>
   <g id="matplotlib.axis_2">
    <g id="ytick_1">
     <g id="line2d_7">
      <defs>
       <path id="mf49292a37f" d="M 0 0 
L -3 0 
" style="stroke: #222222; stroke-width: 0.8"/>
      </defs>
      <g>
       <use xlink:href="#mf49292a37f" x="43.175192" y="151.5" style="fill: #222222; stroke: #222222; stroke-width: 0.8"/>
      </g>
     </g>
     <g id="text_8">
      <text style="font-size: 7px; font-family: 'Arial', 'Helvetica', 'DejaVu Sans', sans-serif; text-anchor: end; fill: #222222" x="36.675192" y="154.159453" transform="rotate(-0 36.675192 154.159453)">0.0</text>
     </g>
    </g>
    <g id="ytick_2">
     <g id="line2d_8">
      <g>
       <use xlink:href="#mf49292a37f" x="43.175192" y="135.383828" style="fill: #222222; stroke: #222222; stroke-width: 0.8"/>
      </g>
     </g>
     <g id="text_9">
      <text style="font-size: 7px; font-family: 'Arial', 'Helvetica', 'DejaVu Sans', sans-serif; text-anchor: end; fill: #222222" x="36.675192" y="138.043281" transform="rotate(-0 36.675192 138.043281)">0.5</text>
     </g>
    </g>
    <g id="ytick_3">
     <g id="line2d_9">
      <g>
       <use xlink:href="#mf49292a37f" x="43.175192" y="119.267655" style="fill: #222222; stroke: #222222; stroke-width: 0.8"/>
      </g>
     </g>
     <g id="text_10">
      <text style="font-size: 7px; font-family: 'Arial', 'Helvetica', 'DejaVu Sans', sans-serif; text-anchor: end; fill: #222222" x="36.675192" y="121.927108" transform="rotate(-0 36.675192 121.927108)">1.0</text>
     </g>
    </g>
    <g id="ytick_4">
     <g id="line2d_10">
      <g>
       <use xlink:href="#mf49292a37f" x="43.175192" y="103.151483" style="fill: #222222; stroke: #222222; stroke-width: 0.8"/>
      </g>
     </g>
     <g id="text_11">
      <text style="font-size: 7px; font-family: 'Arial', 'Helvetica', 'DejaVu Sans', sans-serif; text-anchor: end; fill: #222222" x="36.675192" y="105.810936" transform="rotate(-0 36.675192 105.810936)">1.5</text>
     </g>
    </g>
    <g id="ytick_5">
     <g id="line2d_11">
      <g>
       <use xlink:href="#mf49292a37f" x="43.175192" y="87.03531" style="fill: #222222; stroke: #222222; stroke-width: 0.8"/>
      </g>
     </g>
     <g id="text_12">
      <text style="font-size: 7px; font-family: 'Arial', 'Helvetica', 'DejaVu Sans', sans-serif; text-anchor: end; fill: #222222" x="36.675192" y="89.694764" transform="rotate(-0 36.675192 89.694764)">2.0</text>
     </g>
    </g>
    <g id="ytick_6">
     <g id="line2d_12">
      <g>
       <use xlink:href="#mf49292a37f" x="43.175192" y="70.919138" style="fill: #222222; stroke: #222222; stroke-width: 0.8"/>
      </g>
     </g>
     <g id="text_13">
      <text style="font-size: 7px; font-family: 'Arial', 'Helvetica', 'DejaVu Sans', sans-serif; text-anchor: end; fill: #222222" x="36.675192" y="73.578591" transform="rotate(-0 36.675192 73.578591)">2.5</text>
     </g>
    </g>
    <g id="ytick_7">
     <g id="line2d_13">
      <g>
       <use xlink:href="#mf49292a37f" x="43.175192" y="54.802966" style="fill: #222222; stroke: #222222; stroke-width: 0.8"/>
      </g>
     </g>
     <g id="text_14">
      <text style="font-size: 7px; font-family: 'Arial', 'Helvetica', 'DejaVu Sans', sans-serif; text-anchor: end; fill: #222222" x="36.675192" y="57.462419" transform="rotate(-0 36.675192 57.462419)">3.0</text>
     </g>
    </g>
    <g id="ytick_8">
     <g id="line2d_14">
      <g>
       <use xlink:href="#mf49292a37f" x="43.175192" y="38.686793" style="fill: #222222; stroke: #222222; stroke-width: 0.8"/>
      </g>
     </g>
     <g id="text_15">
      <text style="font-size: 7px; font-family: 'Arial', 'Helvetica', 'DejaVu Sans', sans-serif; text-anchor: end; fill: #222222" x="36.675192" y="41.346246" transform="rotate(-0 36.675192 41.346246)">3.5</text>
     </g>
    </g>
    <g id="ytick_9">
     <g id="line2d_15">
      <g>
       <use xlink:href="#mf49292a37f" x="43.175192" y="22.570621" style="fill: #222222; stroke: #222222; stroke-width: 0.8"/>
      </g>
     </g>
     <g id="text_16">
      <text style="font-size: 7px; font-family: 'Arial', 'Helvetica', 'DejaVu Sans', sans-serif; text-anchor: end; fill: #222222" x="36.675192" y="25.230074" transform="rotate(-0 36.675192 25.230074)">4.0</text>
     </g>
    </g>
    <g id="text_17">
     <!-- $F_t$ -->
     <g transform="translate(9.765 67.021969)">
      <text>
       <tspan x="0" y="-0.859375" style="font-size: 9px; font-family: 'cmmi10'">F</tspan>
       <tspan x="5.787598" y="0.671188" style="font-size: 6.3px; font-family: 'cmmi10'">t</tspan>
      </text>
     </g>
     <!-- $(\mathrm{N})$ -->
     <g transform="translate(7.2 77.1)">
      <text>
       <tspan x="0" y="-0.25" style="font-size: 9px; font-family: 'cmr10'">(</tspan>
       <tspan x="3.493652" y="-0.25" style="font-size: 9px; font-family: 'cmr10'">N</tspan>
       <tspan x="10.243652" y="-0.25" style="font-size: 9px; font-family: 'cmr10'">)</tspan>
      </text>
     </g>
    </g>
   </g>
   <g id="line2d_16">
    <path d="M 43.175192 29.531426 
L 50.655527 29.531426 
L 51.486676 88.078239 
L 52.317824 68.508441 
L 53.148972 83.822974 
L 53.980121 89.762367 
L 54.811269 94.004444 
L 55.642417 99.06774 
L 56.473566 104.825954 
L 57.304714 100.074531 
L 58.135862 104.072655 
L 58.967011 105.711273 
L 59.798159 88.059358 
L 60.629307 85.019112 
L 62.291604 80.841813 
L 63.122753 81.690372 
L 63.953901 81.034093 
L 64.785049 80.631541 
L 65.616198 78.891515 
L 66.447346 82.164292 
L 67.278494 78.644888 
L 68.109643 77.673329 
L 68.940791 79.184405 
L 69.771939 76.643377 
L 70.603088 76.038068 
L 71.434236 76.183834 
L 72.265384 76.473522 
L 73.096533 79.906611 
L 73.927681 79.163964 
L 74.758829 83.190048 
L 76.421126 104.711945 
L 77.252274 107.221969 
L 78.083423 108.440735 
L 78.914571 110.965399 
L 79.745719 108.87289 
L 80.576868 110.162173 
L 81.408016 112.135713 
L 82.239165 112.948492 
L 83.070313 98.94064 
L 83.901461 89.615065 
L 84.73261 86.880843 
L 85.563758 90.164449 
L 86.394906 89.203453 
L 87.226055 91.905277 
L 88.057203 92.206831 
L 88.888351 93.093604 
L 89.7195 90.179924 
L 90.550648 94.307247 
L 91.381796 107.213637 
L 92.212945 111.811293 
L 93.044093 112.046839 
L 93.875241 111.198662 
L 94.70639 112.619872 
L 95.537538 115.985553 
L 96.368686 116.406419 
L 98.030983 114.082375 
L 98.862131 108.062816 
L 99.69328 103.775654 
L 100.524428 97.627942 
L 101.355577 96.418003 
L 102.186725 95.962702 
L 103.017873 94.372677 
L 103.849022 93.507186 
L 104.68017 94.744925 
L 105.511318 96.52772 
L 106.342467 97.216996 
L 107.173615 95.577791 
L 108.004763 92.229802 
L 109.66706 99.52954 
L 110.498208 91.565663 
L 111.329357 96.4671 
L 112.160505 98.66818 
L 112.991653 94.033957 
L 113.822802 94.984107 
L 114.65395 113.913605 
L 115.485098 117.057534 
L 116.316247 115.054032 
L 117.147395 116.615383 
L 117.978543 118.632576 
L 118.809692 117.858368 
L 119.64084 121.716023 
L 120.471989 119.80978 
L 121.303137 119.428923 
L 122.134285 103.6769 
L 122.965434 98.513289 
L 123.796582 89.852834 
L 124.62773 88.506454 
L 125.458879 90.284549 
L 126.290027 82.692494 
L 127.121175 96.781715 
L 127.952324 87.567514 
L 128.783472 97.006778 
L 129.61462 97.831747 
L 130.445769 103.344492 
L 131.276917 105.20632 
L 132.108065 104.349571 
L 132.939214 104.170772 
L 133.770362 100.398374 
L 134.60151 99.985922 
L 135.432659 96.203988 
L 136.263807 100.523479 
L 137.094955 110.615081 
L 137.926104 109.934868 
L 138.757252 106.785764 
L 139.5884 104.268351 
L 140.419549 103.919115 
L 141.250697 109.536324 
L 142.081846 113.205172 
L 143.744142 106.125844 
L 144.575291 104.831407 
L 145.406439 100.796459 
L 146.237587 104.185119 
L 147.068736 110.566799 
L 147.899884 114.565963 
L 148.731032 115.068857 
L 149.562181 112.697408 
L 150.393329 111.652588 
L 151.224477 110.08925 
L 152.055626 109.919312 
L 152.886774 109.294506 
L 153.717922 117.899351 
L 154.549071 115.909079 
L 156.211367 109.472905 
L 157.042516 109.740091 
L 157.873664 106.69563 
L 158.704812 107.762233 
L 159.535961 106.933426 
L 160.367109 111.635599 
L 161.198258 102.712124 
L 162.029406 86.692187 
L 162.860554 79.58303 
L 163.691703 71.481918 
L 164.522851 66.637779 
L 165.353999 60.659648 
L 166.185148 59.055872 
L 167.016296 53.927729 
L 167.847444 65.849338 
L 168.678593 63.99722 
L 169.509741 64.085188 
L 170.340889 66.993223 
L 172.003186 57.463834 
L 172.834334 54.126888 
L 174.496631 52.074209 
L 176.158928 51.358228 
L 176.990076 63.660573 
L 177.821224 79.058032 
L 178.652373 73.935128 
L 179.483521 78.69505 
L 180.31467 86.172759 
L 181.145818 87.529534 
L 181.976966 79.101526 
L 182.808115 85.998698 
L 183.639263 94.525693 
L 184.470411 95.146416 
L 185.30156 74.591303 
L 186.132708 64.579073 
L 186.963856 65.167817 
L 187.795005 64.65818 
L 188.626153 57.841016 
L 190.28845 60.372109 
L 191.119598 59.538004 
L 191.950746 58.87472 
L 192.781895 62.059377 
L 193.613043 66.679656 
L 194.444191 53.319725 
L 195.27534 44.227553 
L 196.106488 53.21369 
L 196.937636 65.453355 
L 197.768785 71.308353 
L 198.599933 75.930343 
L 199.431082 75.376944 
L 200.26223 74.370526 
L 201.093378 103.328644 
L 201.924527 102.655796 
L 202.755675 98.416974 
L 203.586823 98.570083 
L 204.417972 99.217812 
L 205.24912 96.653373 
L 206.080268 97.589915 
L 206.911417 101.750545 
L 207.742565 90.72681 
L 208.573713 72.302343 
L 209.404862 59.65137 
L 210.23601 58.740375 
L 211.067158 44.005517 
L 211.898307 59.932228 
L 212.729455 46.332569 
L 213.560603 58.343683 
L 214.391752 44.980664 
L 215.2229 56.323414 
L 216.054048 54.500897 
L 217.716345 86.983717 
L 218.547494 91.654566 
L 219.378642 101.050406 
L 220.20979 108.681386 
L 221.040939 110.898731 
L 221.872087 110.450538 
L 222.703235 110.999821 
L 223.534384 111.751821 
L 224.365532 102.537317 
L 225.19668 89.526385 
L 226.027829 79.738258 
L 226.858977 80.445258 
L 227.690125 77.650302 
L 228.521274 78.638516 
L 229.352422 78.980784 
L 230.18357 78.207077 
L 231.014719 75.883387 
L 231.845867 76.005315 
L 232.677015 77.22247 
L 233.508164 79.540228 
L 234.339312 79.445723 
L 235.17046 81.213549 
L 236.001609 79.894096 
L 236.832757 84.390031 
L 237.663906 82.713465 
L 238.495054 85.178613 
L 239.326202 81.968431 
L 240.157351 84.076292 
L 240.988499 83.637861 
L 241.819647 83.894519 
L 242.650796 84.294319 
L 243.481944 83.221566 
L 244.313092 83.256055 
L 245.144241 82.093945 
L 246.806537 85.059327 
L 247.637686 105.11089 
L 248.468834 111.634183 
L 249.299982 114.224332 
L 250.131131 114.955293 
L 252.624576 100.536982 
L 253.455724 103.602901 
L 254.286872 101.599206 
L 255.118021 73.009038 
L 255.949169 16.534394 
L 256.780318 14.395552 
L 257.611466 23.459748 
L 258.442614 23.229398 
L 259.273763 83.977806 
L 260.104911 76.395272 
L 260.936059 81.19574 
L 261.767208 78.163109 
L 262.598356 93.27286 
L 264.260653 103.5905 
L 265.091801 101.431386 
L 265.922949 96.914477 
L 266.754098 97.869485 
L 267.585246 95.949169 
L 268.416394 94.954208 
L 269.247543 97.96407 
L 270.078691 94.294831 
L 270.909839 95.128586 
L 271.740988 97.562783 
L 272.572136 93.263387 
L 273.403284 94.939311 
L 274.234433 94.972 
L 275.065581 97.606116 
L 275.89673 94.674301 
L 276.727878 93.510991 
L 277.559026 91.163293 
L 278.390175 89.65576 
L 279.221323 90.076628 
L 280.052471 88.919141 
L 280.88362 85.716822 
L 281.714768 91.061341 
L 282.545916 89.695153 
L 283.377065 89.145341 
L 284.208213 90.086451 
L 285.039361 90.281867 
L 285.87051 93.337907 
L 286.701658 97.251742 
L 287.532806 116.348594 
L 288.363955 119.749906 
L 289.195103 121.244548 
L 290.026251 125.004648 
L 290.8574 122.467548 
L 291.688548 126.938408 
L 292.519696 127.297758 
L 293.350845 126.347183 
L 294.181993 127.058871 
L 295.013142 100.057592 
L 295.84429 93.103008 
L 296.675438 89.790487 
L 297.506587 82.889696 
L 300.000032 77.035792 
L 300.83118 77.982219 
L 301.662328 80.875734 
L 302.493477 84.43894 
L 303.324625 87.28471 
L 304.155773 87.987408 
L 304.986922 87.818194 
L 305.81807 94.889215 
L 306.649218 96.83182 
L 308.311515 99.529361 
L 309.142663 100.214317 
L 309.973812 99.496198 
L 310.80496 102.304672 
L 311.636108 100.37571 
L 312.467257 100.675114 
L 313.298405 101.791313 
L 314.129554 101.623664 
L 314.960702 101.570645 
L 315.79185 105.509873 
L 316.622999 108.319548 
L 317.454147 107.995365 
L 318.285295 109.934053 
L 319.116444 106.156546 
L 319.947592 92.312568 
L 320.77874 86.988252 
L 321.609889 83.937613 
L 322.441037 75.801255 
L 323.272185 87.14257 
L 324.103334 82.659206 
L 324.934482 70.374868 
L 325.76563 88.156738 
L 326.596779 91.832234 
L 327.427927 83.216837 
L 328.259075 59.009965 
L 329.090224 54.037869 
L 329.921372 68.211242 
L 330.75252 75.022989 
L 331.583669 68.111582 
L 332.414817 47.824227 
L 333.245966 41.103468 
L 334.077114 68.8452 
L 334.908262 59.299587 
L 335.739411 53.925829 
L 336.570559 45.176608 
L 337.401707 33.166524 
L 338.232856 26.904245 
L 339.064004 25.834354 
L 340.726301 49.46574 
L 341.557449 62.127779 
L 342.388597 68.599675 
L 343.219746 66.481691 
L 344.050894 63.187779 
L 344.882042 54.082352 
L 345.713191 43.496069 
L 346.544339 35.793563 
L 347.375487 38.208009 
L 348.206636 47.90481 
L 349.868932 75.738142 
L 350.700081 82.275859 
L 351.531229 85.968924 
L 352.362377 87.773123 
L 354.024674 101.003073 
L 354.855823 102.439585 
L 355.686971 103.587248 
L 356.518119 105.347731 
L 357.349268 109.722239 
L 358.180416 106.861342 
L 359.011564 93.976127 
L 359.842713 104.698234 
L 360.673861 98.227319 
L 361.505009 90.268901 
L 362.336158 97.397004 
L 363.167306 95.913586 
L 363.998454 86.784322 
L 364.829603 84.484746 
L 365.660751 81.787824 
L 366.491899 97.720347 
L 367.323048 73.608601 
L 368.154196 58.290332 
L 368.985344 74.36253 
L 370.647641 41.117815 
L 371.478789 60.092143 
L 372.309938 44.501303 
L 373.141086 39.412798 
L 373.972235 42.884857 
L 375.634531 37.806742 
L 376.46568 36.908377 
L 377.296828 77.876591 
L 378.127976 87.453769 
L 378.959125 91.522477 
L 379.790273 86.958029 
L 380.621421 73.893356 
L 381.45257 67.243643 
L 382.283718 42.396788 
L 383.114866 61.005314 
L 383.946015 48.578939 
L 384.777163 57.025661 
L 385.608311 57.348031 
L 386.43946 44.265237 
L 387.270608 41.234641 
L 388.101756 59.780576 
L 388.932905 74.513202 
L 389.764053 86.961778 
L 390.595201 87.234259 
L 391.42635 83.993305 
L 392.257498 87.149101 
L 393.088647 81.66411 
L 393.919795 84.068873 
L 394.750943 93.233024 
L 395.582092 90.575683 
L 396.41324 79.095717 
L 397.244388 83.196995 
L 398.075537 86.697994 
L 398.906685 84.545882 
L 399.737833 87.581635 
L 400.568982 91.610805 
L 401.40013 72.629177 
L 402.231278 70.818316 
L 403.062427 76.100483 
L 404.724723 91.793382 
L 405.555872 87.106723 
L 406.38702 90.137268 
L 407.218168 97.019735 
L 408.049317 98.009654 
L 408.880465 95.085585 
L 409.711613 89.825189 
L 410.542762 89.046213 
L 411.37391 88.880747 
L 412.205059 91.799923 
L 413.036207 84.544597 
L 413.867355 107.325848 
L 414.698504 107.445477 
L 415.529652 97.773781 
L 416.3608 112.942219 
L 417.191949 98.372093 
L 418.023097 113.995146 
L 418.854245 113.151681 
L 419.685394 114.634319 
L 420.516542 114.564276 
L 421.34769 108.110582 
L 423.009987 89.059709 
L 423.841135 93.381993 
L 424.672284 96.392877 
L 425.503432 94.455429 
L 426.33458 95.580088 
L 427.165729 96.272013 
L 427.996877 101.899708 
L 428.828025 106.251803 
L 429.659174 108.76899 
L 431.321471 111.898099 
L 432.152619 110.727812 
L 432.983767 110.121057 
L 434.646064 113.333994 
L 435.477212 116.164049 
L 436.308361 117.996777 
L 437.139509 118.223891 
L 437.970657 110.32106 
L 438.801806 100.37811 
L 439.632954 92.115401 
L 440.464102 92.781433 
L 441.295251 99.848293 
L 442.126399 96.626527 
L 442.957547 99.379188 
L 443.788696 108.963527 
L 444.619844 114.788999 
L 445.450992 112.666874 
L 446.282141 109.117193 
L 447.113289 108.528722 
L 448.775586 120.886485 
L 449.606734 122.207521 
L 450.437883 119.562914 
L 451.269031 118.296108 
L 452.100179 126.766414 
L 452.931328 118.537699 
L 453.762476 121.072847 
L 454.593624 126.095953 
L 455.424773 128.703536 
L 456.255921 119.273016 
L 457.087069 125.397779 
L 457.918218 126.841213 
L 458.749366 129.332185 
L 458.749366 129.332185 
" clip-path="url(#p5951230fe1)" style="fill: none; stroke: #d95f5f; stroke-opacity: 0.2; stroke-width: 0.45; stroke-linecap: square"/>
   </g>
   <g id="line2d_17">
    <path d="M 43.175192 18.112987 
L 45.668637 33.50931 
L 48.162082 47.08114 
L 49.824379 55.115419 
L 51.486676 62.338813 
L 53.148972 68.751321 
L 54.811269 74.352942 
L 56.473566 79.143678 
L 58.135862 83.123528 
L 59.798159 86.292492 
L 60.629307 86.860466 
L 61.460456 87.288496 
L 63.122753 87.663804 
L 63.953901 87.584739 
L 64.785049 87.227867 
L 65.616198 86.612326 
L 67.278494 85.648405 
L 68.109643 84.670328 
L 68.940791 85.426451 
L 69.771939 85.381816 
L 70.603088 85.665212 
L 71.434236 86.124896 
L 72.265384 86.726645 
L 73.096533 87.673503 
L 73.927681 88.789612 
L 74.758829 89.450353 
L 75.589978 90.355329 
L 76.421126 91.621692 
L 78.914571 94.112888 
L 79.745719 94.889261 
L 81.408016 96.819872 
L 83.070313 99.271128 
L 83.901461 100.742598 
L 84.73261 101.972934 
L 86.394906 103.920754 
L 87.226055 104.558642 
L 88.057203 104.880581 
L 88.888351 104.897446 
L 90.550648 104.369694 
L 91.381796 103.92191 
L 93.044093 102.675987 
L 93.875241 102.722737 
L 95.537538 102.582213 
L 97.199835 102.956277 
L 98.030983 102.576134 
L 98.862131 102.387073 
L 99.69328 102.551232 
L 100.524428 102.330052 
L 103.849022 100.114983 
L 104.68017 99.748282 
L 106.342467 100.182339 
L 108.004763 100.640133 
L 108.835912 101.079634 
L 109.66706 101.85452 
L 110.498208 102.069678 
L 111.329357 102.568597 
L 112.160505 102.762164 
L 117.978543 105.126601 
L 118.809692 105.344479 
L 119.64084 105.321412 
L 121.303137 104.396922 
L 122.134285 104.088268 
L 123.796582 103.737772 
L 124.62773 103.281852 
L 125.458879 102.56447 
L 126.290027 102.09815 
L 127.121175 101.886893 
L 127.952324 101.370861 
L 128.783472 101.081087 
L 129.61462 100.671957 
L 131.276917 98.817644 
L 132.108065 98.579284 
L 132.939214 98.711759 
L 133.770362 98.968525 
L 134.60151 99.487707 
L 135.432659 100.245899 
L 137.094955 102.122757 
L 137.926104 103.343204 
L 138.757252 104.899782 
L 140.419549 107.149184 
L 141.250697 107.915886 
L 142.912994 108.997475 
L 143.744142 108.927347 
L 145.406439 110.202985 
L 148.731032 113.713978 
L 149.562181 114.173064 
L 150.393329 114.417606 
L 151.224477 113.72249 
L 152.055626 112.759688 
L 152.886774 111.322842 
L 153.717922 109.636143 
L 155.380219 106.836354 
L 156.211367 105.17053 
L 157.873664 100.964239 
L 159.535961 96.508504 
L 160.367109 93.623027 
L 164.522851 76.233513 
L 167.847444 66.308183 
L 168.678593 65.012527 
L 170.340889 63.522365 
L 171.172038 63.330455 
L 173.665483 63.909802 
L 175.327779 64.902217 
L 176.990076 66.354219 
L 178.652373 69.929635 
L 179.483521 70.977069 
L 180.31467 71.407611 
L 181.145818 71.438798 
L 181.976966 71.224913 
L 183.639263 70.535725 
L 184.470411 69.046489 
L 185.30156 68.26607 
L 186.132708 67.825795 
L 186.963856 67.594246 
L 190.28845 67.775854 
L 191.119598 68.044947 
L 191.950746 68.809734 
L 192.781895 69.729885 
L 193.613043 70.307846 
L 194.444191 71.497742 
L 196.106488 73.47923 
L 196.937636 74.091449 
L 197.768785 75.350921 
L 198.599933 76.171562 
L 199.431082 76.702355 
L 201.093378 77.067965 
L 201.924527 77.469722 
L 202.755675 77.124541 
L 203.586823 76.41329 
L 204.417972 75.908021 
L 206.911417 75.19194 
L 207.742565 75.544842 
L 208.573713 76.340304 
L 211.067158 79.32765 
L 211.898307 79.653439 
L 213.560603 79.035127 
L 216.054048 79.048651 
L 216.885197 78.846335 
L 217.716345 78.509281 
L 218.547494 79.202026 
L 221.872087 82.87254 
L 223.534384 85.577538 
L 225.19668 88.936974 
L 226.027829 89.867853 
L 226.858977 90.284491 
L 227.690125 90.502631 
L 228.521274 89.971832 
L 229.352422 89.710165 
L 230.18357 88.651529 
L 231.014719 87.123323 
L 232.677015 82.684141 
L 233.508164 80.445881 
L 234.339312 78.972771 
L 235.17046 78.314892 
L 236.001609 78.113178 
L 236.832757 78.296845 
L 237.663906 79.067304 
L 238.495054 81.114101 
L 240.157351 88.569434 
L 240.988499 91.468317 
L 241.819647 93.721496 
L 243.481944 92.528111 
L 245.144241 90.920571 
L 246.806537 88.226928 
L 248.468834 85.467717 
L 250.131131 83.424733 
L 251.793427 81.996826 
L 252.624576 81.350481 
L 253.455724 80.850107 
L 255.118021 80.154364 
L 255.949169 80.084419 
L 256.780318 79.882031 
L 259.273763 79.697472 
L 260.936059 79.99418 
L 264.260653 80.847411 
L 265.091801 81.76857 
L 265.922949 83.18457 
L 266.754098 84.962374 
L 271.740988 97.042181 
L 272.572136 98.267477 
L 273.403284 97.216672 
L 275.065581 94.216165 
L 275.89673 92.238528 
L 276.727878 92.399417 
L 277.559026 92.341051 
L 279.221323 94.358952 
L 280.052471 95.7922 
L 282.545916 100.985181 
L 284.208213 103.527129 
L 285.039361 104.342433 
L 286.701658 105.217283 
L 288.363955 105.402798 
L 289.195103 105.236208 
L 293.350845 103.066072 
L 295.013142 101.839521 
L 296.675438 100.299356 
L 297.506587 99.409071 
L 300.000032 95.993648 
L 302.493477 92.168559 
L 303.324625 91.474182 
L 304.155773 90.964847 
L 304.986922 91.185596 
L 305.81807 91.810679 
L 306.649218 92.108482 
L 307.480367 92.813835 
L 308.311515 93.93104 
L 309.973812 95.525353 
L 310.80496 96.899669 
L 311.636108 99.296343 
L 312.467257 100.769152 
L 313.298405 101.260634 
L 314.129554 101.23456 
L 314.960702 101.024249 
L 315.79185 101.149831 
L 316.622999 100.979003 
L 319.116444 96.263123 
L 321.609889 91.993779 
L 322.441037 90.081377 
L 323.272185 87.663937 
L 324.103334 84.70034 
L 327.427927 71.472133 
L 329.090224 66.769045 
L 330.75252 62.854871 
L 331.583669 60.558668 
L 334.077114 52.992267 
L 334.908262 51.103282 
L 335.739411 49.811182 
L 338.232856 46.714569 
L 339.895152 45.862174 
L 340.726301 46.266007 
L 341.557449 47.151175 
L 342.388597 48.443532 
L 343.219746 50.385403 
L 345.713191 58.69256 
L 346.544339 60.994431 
L 347.375487 64.26179 
L 349.037784 71.712651 
L 349.868932 74.13247 
L 350.700081 77.06037 
L 351.531229 81.344549 
L 354.024674 91.220057 
L 354.855823 92.830354 
L 355.686971 94.19687 
L 356.518119 94.991227 
L 359.842713 96.49832 
L 360.673861 95.01957 
L 361.505009 93.070384 
L 363.167306 87.868813 
L 364.829603 82.073199 
L 365.660751 79.889542 
L 366.491899 77.118385 
L 368.154196 72.64885 
L 368.985344 70.302852 
L 371.478789 64.579789 
L 373.141086 59.741689 
L 373.972235 57.791425 
L 374.803383 56.583872 
L 376.46568 54.821449 
L 378.959125 54.497788 
L 380.621421 56.804768 
L 381.45257 57.936824 
L 383.114866 60.909983 
L 386.43946 70.083914 
L 387.270608 71.651066 
L 388.101756 72.325053 
L 388.932905 73.867805 
L 389.764053 74.71912 
L 392.257498 75.678193 
L 393.088647 75.865077 
L 393.919795 75.799384 
L 394.750943 77.151603 
L 395.582092 78.886474 
L 396.41324 81.215464 
L 398.906685 85.708191 
L 399.737833 85.797937 
L 400.568982 87.039952 
L 401.40013 87.19688 
L 403.062427 88.070411 
L 404.724723 87.648547 
L 405.555872 88.172226 
L 407.218168 90.762278 
L 409.711613 94.380511 
L 410.542762 95.290394 
L 411.37391 96.034007 
L 413.036207 97.861945 
L 414.698504 98.822408 
L 417.191949 101.027581 
L 418.023097 101.939054 
L 418.854245 102.044366 
L 420.516542 101.893356 
L 421.34769 102.36033 
L 423.009987 104.34862 
L 424.672284 105.876593 
L 425.503432 106.629813 
L 426.33458 107.072768 
L 427.165729 106.884743 
L 428.828025 105.942419 
L 429.659174 105.646942 
L 430.490322 104.987238 
L 431.321471 104.911444 
L 432.152619 104.722403 
L 432.983767 104.233429 
L 433.814916 104.512678 
L 434.646064 104.397253 
L 435.477212 104.668241 
L 437.139509 106.24445 
L 438.801806 107.82467 
L 439.632954 108.623573 
L 441.295251 109.109877 
L 442.126399 109.418538 
L 444.619844 111.408615 
L 447.113289 113.713816 
L 449.606734 116.334142 
L 452.100179 119.269593 
L 454.593624 122.520169 
L 457.087069 126.08587 
L 458.749366 128.638073 
L 458.749366 128.638073 
" clip-path="url(#p5951230fe1)" style="fill: none; stroke: #d95f5f; stroke-width: 1.35; stroke-linecap: square"/>
   </g>
   <g id="line2d_18">
    <path d="M 43.175192 25.729672 
L 50.655527 25.729672 
L 51.486676 74.918801 
L 52.317824 65.127397 
L 53.148972 81.245148 
L 54.811269 91.280856 
L 55.642417 94.301323 
L 56.473566 102.088992 
L 57.304714 101.303056 
L 58.135862 95.584364 
L 58.967011 104.745712 
L 59.798159 96.784283 
L 60.629307 81.370182 
L 61.460456 76.560288 
L 62.291604 79.595951 
L 63.122753 75.763974 
L 63.953901 75.363181 
L 64.785049 75.133972 
L 65.616198 74.536185 
L 66.447346 76.741559 
L 67.278494 75.975471 
L 68.109643 71.324278 
L 68.940791 71.726623 
L 69.771939 68.593097 
L 70.603088 70.126862 
L 71.434236 69.96341 
L 72.265384 67.974029 
L 73.096533 74.80086 
L 73.927681 76.575382 
L 74.758829 78.905847 
L 75.589978 91.885852 
L 76.421126 100.491219 
L 77.252274 101.377004 
L 78.083423 104.100372 
L 78.914571 103.928115 
L 80.576868 107.096821 
L 81.408016 105.869863 
L 82.239165 105.898549 
L 83.070313 98.124637 
L 83.901461 83.190151 
L 84.73261 81.49796 
L 85.563758 85.925324 
L 86.394906 86.883266 
L 87.226055 83.091783 
L 88.057203 86.654407 
L 88.888351 87.809319 
L 89.7195 88.260908 
L 90.550648 92.892876 
L 91.381796 106.863122 
L 92.212945 106.900918 
L 93.044093 109.41626 
L 93.875241 112.903074 
L 94.70639 115.452924 
L 95.537538 110.142354 
L 96.368686 110.996337 
L 97.199835 113.188629 
L 98.030983 113.796047 
L 98.862131 115.793859 
L 99.69328 113.189281 
L 100.524428 112.403777 
L 101.355577 115.449101 
L 102.186725 111.939103 
L 103.017873 111.681877 
L 103.849022 112.461333 
L 104.68017 111.560938 
L 105.511318 112.961889 
L 106.342467 106.138328 
L 107.173615 94.387636 
L 108.004763 90.313254 
L 108.835912 89.99486 
L 109.66706 97.775042 
L 111.329357 90.058209 
L 112.160505 93.833481 
L 112.991653 99.362776 
L 113.822802 96.225677 
L 115.485098 111.234172 
L 116.316247 113.793108 
L 117.147395 111.398878 
L 117.978543 112.929678 
L 118.809692 118.069533 
L 119.64084 118.303661 
L 120.471989 118.892955 
L 121.303137 118.529414 
L 122.134285 94.726002 
L 122.965434 79.730284 
L 123.796582 82.326783 
L 124.62773 67.744883 
L 125.458879 75.873205 
L 126.290027 66.232431 
L 127.952324 66.909482 
L 128.783472 69.274199 
L 129.61462 69.51335 
L 130.445769 82.105009 
L 131.276917 91.793294 
L 132.108065 90.097017 
L 132.939214 87.585748 
L 133.770362 88.908186 
L 134.60151 91.015937 
L 135.432659 93.981882 
L 136.263807 99.184188 
L 137.094955 102.477265 
L 137.926104 101.66053 
L 138.757252 95.058037 
L 139.5884 90.632996 
L 140.419549 83.378542 
L 141.250697 90.523273 
L 142.081846 92.325804 
L 142.912994 81.545103 
L 143.744142 84.956283 
L 144.575291 88.897841 
L 145.406439 85.278395 
L 147.068736 105.412886 
L 147.899884 105.857707 
L 148.731032 97.801685 
L 149.562181 99.150837 
L 150.393329 107.77551 
L 151.224477 108.365336 
L 152.055626 102.83743 
L 152.886774 98.692203 
L 153.717922 98.769339 
L 154.549071 99.817919 
L 155.380219 100.309058 
L 156.211367 100.469225 
L 157.042516 103.438232 
L 157.873664 104.699403 
L 158.704812 106.319161 
L 159.535961 106.503275 
L 161.198258 103.920424 
L 162.029406 99.373035 
L 162.860554 83.570928 
L 163.691703 74.632948 
L 164.522851 70.03594 
L 165.353999 58.065052 
L 166.185148 64.577307 
L 167.016296 53.18089 
L 167.847444 56.368561 
L 168.678593 57.343291 
L 169.509741 63.708118 
L 170.340889 67.002879 
L 171.172038 66.781279 
L 172.003186 63.958278 
L 172.834334 59.903845 
L 174.496631 62.269982 
L 175.327779 66.220123 
L 176.158928 68.128222 
L 176.990076 73.897084 
L 177.821224 77.187212 
L 178.652373 76.227257 
L 179.483521 77.577586 
L 180.31467 80.334336 
L 181.145818 83.918241 
L 181.976966 82.408185 
L 182.808115 83.65057 
L 183.639263 83.934055 
L 184.470411 83.334953 
L 185.30156 84.459301 
L 186.132708 70.701045 
L 186.963856 67.916503 
L 187.795005 67.307233 
L 188.626153 60.081491 
L 189.457301 62.966348 
L 190.28845 59.643247 
L 191.119598 58.404322 
L 191.950746 51.757938 
L 192.781895 48.524232 
L 194.444191 56.628886 
L 195.27534 58.030252 
L 196.106488 60.902626 
L 197.768785 73.438994 
L 198.599933 76.57753 
L 199.431082 80.94665 
L 200.26223 86.761025 
L 201.093378 90.726572 
L 201.924527 79.748624 
L 202.755675 86.650376 
L 203.586823 73.505089 
L 204.417972 62.527578 
L 205.24912 82.443033 
L 206.080268 63.211662 
L 206.911417 61.145013 
L 207.742565 85.283133 
L 208.573713 33.250538 
L 209.404862 33.299738 
L 210.23601 99.937599 
L 211.067158 107.434312 
L 211.898307 97.610612 
L 212.729455 91.590013 
L 213.560603 89.797761 
L 214.391752 82.784145 
L 215.2229 103.994447 
L 216.054048 99.395563 
L 216.885197 106.935045 
L 217.716345 112.69601 
L 218.547494 116.434852 
L 219.378642 122.968439 
L 220.20979 123.53809 
L 221.040939 125.332537 
L 221.872087 129.170358 
L 223.534384 129.33421 
L 224.365532 130.731649 
L 225.19668 135.135224 
L 226.027829 132.601582 
L 226.858977 135.313785 
L 227.690125 133.15452 
L 228.521274 137.136974 
L 229.352422 135.245887 
L 230.18357 136.986853 
L 231.014719 134.073213 
L 231.845867 134.705167 
L 232.677015 132.971122 
L 233.508164 133.798115 
L 234.339312 135.101724 
L 235.17046 134.467745 
L 236.832757 138.55826 
L 237.663906 138.593092 
L 238.495054 141.108174 
L 239.326202 139.011804 
L 240.157351 138.775201 
L 240.988499 139.432853 
L 241.819647 140.863612 
L 242.650796 140.046811 
L 243.481944 138.904163 
L 244.313092 137.206657 
L 245.144241 136.242316 
L 245.975389 137.684799 
L 246.806537 138.510548 
L 247.637686 140.705483 
L 248.468834 142.065729 
L 249.299982 134.743054 
L 250.131131 134.428014 
L 250.962279 133.504354 
L 251.793427 131.640439 
L 252.624576 128.15254 
L 253.455724 95.458505 
L 254.286872 88.845845 
L 255.118021 92.91533 
L 255.949169 65.122925 
L 256.780318 53.887652 
L 257.611466 66.809106 
L 258.442614 74.403538 
L 259.273763 84.382553 
L 260.104911 98.497793 
L 260.936059 100.161278 
L 261.767208 118.765492 
L 262.598356 126.465039 
L 263.429504 115.731607 
L 264.260653 122.007657 
L 265.091801 118.449543 
L 265.922949 118.781265 
L 266.754098 122.824579 
L 268.416394 135.349039 
L 269.247543 141.249321 
L 270.078691 138.869721 
L 270.909839 141.624131 
L 271.740988 138.710734 
L 272.572136 146.062032 
L 273.403284 149.701366 
L 274.234433 149.140976 
L 275.065581 147.446634 
L 275.89673 147.279762 
L 276.727878 146.928984 
L 277.559026 147.367964 
L 278.390175 146.962727 
L 280.88362 146.618975 
L 281.714768 144.208113 
L 282.545916 145.46202 
L 283.377065 144.535787 
L 284.208213 142.452954 
L 285.039361 141.166336 
L 285.87051 141.688251 
L 286.701658 139.636325 
L 287.532806 138.421914 
L 288.363955 137.985007 
L 289.195103 139.892993 
L 290.026251 138.915657 
L 290.8574 137.073614 
L 291.688548 138.285051 
L 292.519696 136.529794 
L 293.350845 135.630384 
L 294.181993 136.302684 
L 296.675438 109.874665 
L 297.506587 112.129518 
L 298.337735 96.659378 
L 299.168883 109.911645 
L 300.000032 91.168247 
L 300.83118 110.558214 
L 301.662328 103.826625 
L 302.493477 107.744769 
L 303.324625 113.522474 
L 304.155773 109.610929 
L 304.986922 104.736938 
L 306.649218 101.40094 
L 307.480367 98.757866 
L 308.311515 95.483927 
L 309.142663 93.82558 
L 309.973812 96.874982 
L 310.80496 97.564349 
L 311.636108 94.206256 
L 312.467257 98.106305 
L 314.129554 110.964408 
L 315.79185 117.567761 
L 316.622999 119.700249 
L 317.454147 118.868928 
L 318.285295 125.128305 
L 319.116444 124.350172 
L 319.947592 113.710624 
L 320.77874 119.013345 
L 321.609889 114.440273 
L 322.441037 113.010777 
L 323.272185 108.436358 
L 324.103334 107.874885 
L 324.934482 105.550346 
L 325.76563 106.957759 
L 326.596779 108.657685 
L 327.427927 104.210505 
L 328.259075 95.496051 
L 329.090224 89.517236 
L 329.921372 89.759378 
L 330.75252 98.771619 
L 332.414817 101.557137 
L 333.245966 100.97646 
L 334.077114 104.51336 
L 334.908262 86.751001 
L 335.739411 75.484932 
L 336.570559 72.525075 
L 337.401707 61.407547 
L 338.232856 53.29069 
L 339.064004 48.238035 
L 340.726301 57.425107 
L 341.557449 67.973143 
L 342.388597 73.210247 
L 343.219746 74.872499 
L 344.050894 73.470319 
L 344.882042 70.207488 
L 345.713191 71.235306 
L 346.544339 77.732474 
L 347.375487 90.734867 
L 348.206636 100.912389 
L 349.037784 106.213493 
L 349.868932 108.548499 
L 350.700081 112.572323 
L 351.531229 113.34771 
L 352.362377 115.942753 
L 353.193526 124.391262 
L 354.024674 127.392286 
L 354.855823 128.981695 
L 355.686971 129.370475 
L 356.518119 130.673978 
L 357.349268 132.230651 
L 358.180416 131.783839 
L 359.842713 118.745813 
L 360.673861 117.025981 
L 361.505009 115.964049 
L 362.336158 127.909926 
L 363.167306 126.273507 
L 363.998454 122.001596 
L 364.829603 128.212273 
L 365.660751 120.163232 
L 366.491899 124.884862 
L 367.323048 99.674494 
L 368.154196 97.721661 
L 368.985344 96.77552 
L 369.816493 109.116916 
L 370.647641 81.300232 
L 371.478789 75.928179 
L 372.309938 88.806259 
L 373.141086 103.654481 
L 373.972235 102.936224 
L 374.803383 98.882152 
L 376.46568 102.505101 
L 377.296828 106.210507 
L 378.127976 107.580219 
L 378.959125 114.973878 
L 379.790273 117.660215 
L 380.621421 103.007916 
L 381.45257 102.592717 
L 382.283718 95.912582 
L 383.114866 110.494326 
L 383.946015 86.221312 
L 384.777163 77.687648 
L 385.608311 85.341451 
L 386.43946 94.441902 
L 387.270608 73.874103 
L 388.101756 78.118482 
L 388.932905 83.267667 
L 389.764053 91.515895 
L 390.595201 97.333478 
L 392.257498 102.907292 
L 393.088647 106.420895 
L 393.919795 110.80528 
L 395.582092 117.0183 
L 396.41324 119.509862 
L 397.244388 125.049676 
L 398.075537 123.177067 
L 398.906685 126.388792 
L 399.737833 125.921338 
L 400.568982 127.976954 
L 401.40013 129.431941 
L 402.231278 131.509934 
L 403.062427 133.887771 
L 403.893575 128.125845 
L 404.724723 117.701444 
L 405.555872 117.831747 
L 406.38702 115.26494 
L 407.218168 117.30375 
L 408.049317 106.421758 
L 408.880465 144.773173 
L 409.711613 136.800481 
L 410.542762 137.613969 
L 411.37391 149.349899 
L 412.205059 146.992705 
L 413.036207 139.675266 
L 413.867355 134.971959 
L 414.698504 145.339519 
L 415.529652 138.750259 
L 416.3608 138.622068 
L 417.191949 147.764941 
L 418.023097 142.328339 
L 418.854245 142.789111 
L 419.685394 145.485394 
L 420.516542 145.605478 
L 421.34769 141.766636 
L 422.178839 140.433043 
L 423.009987 141.968638 
L 423.841135 142.049018 
L 424.672284 142.264268 
L 426.33458 137.127456 
L 427.165729 135.209958 
L 428.828025 126.052511 
L 429.659174 126.360963 
L 430.490322 129.329555 
L 431.321471 129.957577 
L 432.152619 129.532921 
L 432.983767 128.947555 
L 433.814916 126.486822 
L 434.646064 125.921177 
L 435.477212 121.029012 
L 436.308361 117.956644 
L 437.139509 112.715558 
L 437.970657 111.348121 
L 438.801806 108.557265 
L 439.632954 108.723024 
L 440.464102 106.94351 
L 442.126399 114.804322 
L 444.619844 121.437762 
L 445.450992 122.571252 
L 446.282141 124.099032 
L 447.113289 126.553423 
L 447.944437 120.646568 
L 448.775586 118.517946 
L 449.606734 119.888569 
L 450.437883 124.93584 
L 451.269031 123.375384 
L 452.100179 118.610971 
L 452.931328 108.731615 
L 453.762476 120.948485 
L 454.593624 131.195642 
L 455.424773 119.976248 
L 456.255921 105.715657 
L 457.087069 122.391345 
L 457.918218 131.680915 
L 458.749366 123.193407 
L 458.749366 123.193407 
" clip-path="url(#p5951230fe1)" style="fill: none; stroke: #4daf7c; stroke-opacity: 0.2; stroke-width: 0.45; stroke-linecap: square"/>
   </g>
   <g id="line2d_19">
    <path d="M 43.175192 13.985779 
L 45.668637 29.54614 
L 48.162082 43.23842 
L 49.824379 51.328784 
L 51.486676 58.588889 
L 53.148972 65.018736 
L 54.811269 70.618325 
L 56.473566 75.387655 
L 58.135862 79.326728 
L 59.798159 82.435541 
L 60.629307 82.98565 
L 62.291604 83.572884 
L 63.122753 83.597785 
L 63.953901 83.398946 
L 64.785049 83.041391 
L 67.278494 81.280223 
L 68.109643 80.26827 
L 68.940791 80.565203 
L 69.771939 80.323495 
L 71.434236 81.032804 
L 72.265384 81.558175 
L 73.096533 82.244258 
L 73.927681 83.186358 
L 75.589978 84.57886 
L 77.252274 87.081274 
L 78.083423 87.888463 
L 78.914571 88.853414 
L 80.576868 91.008998 
L 83.070313 94.222866 
L 84.73261 96.623488 
L 86.394906 98.697946 
L 88.057203 100.159062 
L 89.7195 101.143752 
L 91.381796 102.817534 
L 93.044093 103.89592 
L 95.537538 106.500255 
L 96.368686 107.068224 
L 97.199835 107.805797 
L 98.030983 108.357884 
L 100.524428 109.310558 
L 101.355577 108.959022 
L 103.017873 107.719584 
L 103.849022 107.130643 
L 104.68017 106.35449 
L 105.511318 106.399885 
L 106.342467 106.698118 
L 107.173615 106.531106 
L 108.004763 106.656649 
L 110.498208 106.569183 
L 111.329357 106.297165 
L 112.160505 105.847344 
L 112.991653 105.028107 
L 113.822802 103.666892 
L 115.485098 100.582735 
L 121.303137 92.130908 
L 122.134285 91.582846 
L 123.796582 91.323385 
L 124.62773 90.561778 
L 125.458879 89.567339 
L 127.952324 87.370066 
L 128.783472 86.408225 
L 131.276917 82.712919 
L 132.108065 82.195135 
L 133.770362 82.06697 
L 134.60151 82.252851 
L 135.432659 83.003024 
L 136.263807 84.390404 
L 137.094955 86.093338 
L 137.926104 88.106387 
L 138.757252 90.431216 
L 139.5884 92.120119 
L 141.250697 94.429819 
L 142.081846 95.018145 
L 142.912994 95.847849 
L 144.575291 96.654702 
L 145.406439 97.010104 
L 147.068736 98.454489 
L 147.899884 99.396853 
L 148.731032 100.77783 
L 150.393329 102.235632 
L 151.224477 102.48937 
L 152.055626 102.443943 
L 153.717922 101.454084 
L 155.380219 100.366475 
L 156.211367 99.569968 
L 157.042516 98.372679 
L 158.704812 94.843307 
L 159.535961 92.92487 
L 164.522851 77.381729 
L 167.016296 71.506434 
L 167.847444 70.168066 
L 168.678593 69.070592 
L 170.340889 67.905388 
L 171.172038 67.436847 
L 172.834334 67.184424 
L 173.665483 67.246271 
L 174.496631 67.549412 
L 175.327779 68.233309 
L 179.483521 72.954264 
L 180.31467 73.289299 
L 181.145818 73.197223 
L 181.976966 72.942105 
L 183.639263 71.500796 
L 184.470411 70.373965 
L 185.30156 69.785666 
L 186.132708 68.986602 
L 186.963856 68.905066 
L 187.795005 69.279327 
L 188.626153 68.898671 
L 189.457301 69.090707 
L 190.28845 69.052711 
L 191.119598 68.099834 
L 191.950746 68.90805 
L 192.781895 69.466709 
L 194.444191 65.944917 
L 195.27534 65.096862 
L 196.106488 64.678868 
L 196.937636 64.580443 
L 197.768785 65.019166 
L 198.599933 65.077522 
L 200.26223 66.223831 
L 201.093378 67.057205 
L 201.924527 68.163293 
L 205.24912 73.847142 
L 206.080268 75.457503 
L 212.729455 91.090514 
L 213.560603 93.270538 
L 215.2229 98.535111 
L 216.885197 104.621853 
L 221.040939 121.099574 
L 221.872087 123.359078 
L 222.703235 126.295284 
L 223.534384 128.366948 
L 224.365532 130.046545 
L 225.19668 132.343939 
L 226.027829 132.392241 
L 226.858977 131.832394 
L 229.352422 136.319967 
L 230.18357 137.059966 
L 231.014719 137.403113 
L 231.845867 137.142268 
L 232.677015 137.646693 
L 234.339312 137.869639 
L 236.001609 138.284624 
L 237.663906 140.741991 
L 238.495054 141.323799 
L 239.326202 142.544187 
L 240.157351 143.525389 
L 240.988499 143.421471 
L 241.819647 142.601684 
L 242.650796 141.218017 
L 244.313092 136.688791 
L 246.806537 127.753224 
L 249.299982 119.800115 
L 252.624576 109.236925 
L 254.286872 105.274553 
L 255.949169 102.664473 
L 256.780318 101.647489 
L 257.611466 101.049476 
L 258.442614 100.932358 
L 259.273763 101.265891 
L 260.104911 101.971757 
L 260.936059 102.997524 
L 261.767208 104.3376 
L 262.598356 105.990575 
L 263.429504 108.042431 
L 264.260653 110.470524 
L 265.922949 116.71013 
L 267.585246 123.827795 
L 270.909839 139.368283 
L 272.572136 144.673367 
L 273.403284 145.935812 
L 274.234433 146.297073 
L 275.065581 146.502249 
L 278.390175 146.490629 
L 279.221323 147.1069 
L 280.052471 148.014854 
L 280.88362 148.0603 
L 281.714768 148.444124 
L 282.545916 147.760605 
L 283.377065 147.295192 
L 286.701658 141.240463 
L 290.8574 132.513342 
L 292.519696 129.179472 
L 295.84429 121.223307 
L 300.000032 109.729509 
L 302.493477 104.387612 
L 304.155773 102.493146 
L 304.986922 101.888412 
L 305.81807 101.531811 
L 306.649218 101.616012 
L 307.480367 101.882054 
L 308.311515 102.351026 
L 309.973812 103.748531 
L 310.80496 104.827983 
L 312.467257 107.971427 
L 313.298405 109.213604 
L 314.960702 110.271917 
L 315.79185 110.134389 
L 316.622999 110.440538 
L 317.454147 109.85383 
L 319.947592 111.693824 
L 320.77874 112.638242 
L 321.609889 113.412188 
L 322.441037 113.793852 
L 323.272185 113.537118 
L 324.103334 112.695158 
L 324.934482 111.077884 
L 325.76563 108.915102 
L 328.259075 101.303754 
L 329.921372 95.16618 
L 332.414817 85.062781 
L 334.077114 79.666186 
L 334.908262 77.496382 
L 336.570559 74.565361 
L 337.401707 73.245298 
L 338.232856 72.597469 
L 339.064004 72.310357 
L 339.895152 72.440202 
L 340.726301 72.840174 
L 341.557449 73.703313 
L 342.388597 75.142351 
L 343.219746 77.204086 
L 345.713191 84.540297 
L 346.544339 86.78922 
L 348.206636 92.26347 
L 349.868932 99.301607 
L 352.362377 112.828652 
L 353.193526 115.94331 
L 354.024674 119.681259 
L 354.855823 122.70101 
L 355.686971 124.382541 
L 356.518119 124.815724 
L 357.349268 124.967434 
L 358.180416 124.954777 
L 359.011564 124.825915 
L 359.842713 124.449487 
L 360.673861 123.671718 
L 361.505009 122.475977 
L 362.336158 120.575529 
L 363.167306 118.317082 
L 364.829603 114.84832 
L 365.660751 113.555604 
L 366.491899 111.766551 
L 367.323048 110.790929 
L 368.154196 110.003091 
L 368.985344 108.720475 
L 369.816493 107.059033 
L 370.647641 106.333574 
L 371.478789 105.43068 
L 372.309938 104.349139 
L 374.803383 100.437257 
L 376.46568 98.101131 
L 378.959125 94.123457 
L 379.790273 93.550771 
L 380.621421 93.122328 
L 381.45257 93.004448 
L 382.283718 93.409952 
L 383.114866 93.954287 
L 383.946015 95.004308 
L 385.608311 95.865445 
L 386.43946 96.409161 
L 387.270608 97.842623 
L 388.101756 98.709574 
L 388.932905 99.237255 
L 389.764053 100.200988 
L 390.595201 101.613872 
L 391.42635 103.396225 
L 392.257498 103.713301 
L 393.088647 104.586922 
L 394.750943 106.693745 
L 395.582092 108.134958 
L 396.41324 110.377202 
L 397.244388 113.131563 
L 398.075537 115.169522 
L 400.568982 122.320098 
L 401.40013 124.231264 
L 403.062427 127.191107 
L 403.893575 128.944383 
L 405.555872 130.792896 
L 408.049317 133.132411 
L 411.37391 136.47973 
L 413.036207 138.294878 
L 415.529652 140.089785 
L 417.191949 141.025252 
L 418.854245 141.900126 
L 420.516542 143.0177 
L 421.34769 143.256789 
L 422.178839 142.920676 
L 423.009987 142.235208 
L 423.841135 141.158576 
L 424.672284 139.657442 
L 425.503432 137.262799 
L 426.33458 135.99512 
L 428.828025 131.182898 
L 429.659174 129.783223 
L 431.321471 126.501387 
L 432.152619 125.37094 
L 433.814916 122.468671 
L 435.477212 120.521983 
L 436.308361 120.005038 
L 437.139509 119.210147 
L 437.970657 118.238754 
L 438.801806 117.720512 
L 439.632954 117.731968 
L 441.295251 116.675806 
L 442.126399 116.627013 
L 443.788696 116.255885 
L 445.450992 116.186946 
L 447.113289 116.420197 
L 448.775586 116.955637 
L 450.437883 117.793266 
L 452.100179 118.933085 
L 453.762476 120.375092 
L 455.424773 122.11929 
L 457.087069 124.165676 
L 458.749366 126.514252 
L 458.749366 126.514252 
" clip-path="url(#p5951230fe1)" style="fill: none; stroke: #4daf7c; stroke-width: 1.35; stroke-linecap: square"/>
   </g>
   <g id="patch_3">
    <path d="M 43.175192 151.5 
L 43.175192 7.2 
" style="fill: none; stroke: #222222; stroke-width: 0.8; stroke-linejoin: miter; stroke-linecap: square"/>
   </g>
   <g id="patch_4">
    <path d="M 43.175192 151.5 
L 458.749366 151.5 
" style="fill: none; stroke: #222222; stroke-width: 0.8; stroke-linejoin: miter; stroke-linecap: square"/>
   </g>
   <g id="legend_1">
    <g id="line2d_20">
     <path d="M 282.565928 16.368906 
L 289.565928 16.368906 
L 296.565928 16.368906 
" style="fill: none; stroke: #d95f5f; stroke-width: 1.35; stroke-linecap: square"/>
    </g>
    <g id="text_18">
     <text style="font-size: 7px; font-family: 'Arial', 'Helvetica', 'DejaVu Sans', sans-serif; text-anchor: start" x="302.165928" y="18.818906" transform="rotate(-0 302.165928 18.818906)">Original (Clinical)</text>
    </g>
    <g id="line2d_21">
     <path d="M 376.486241 16.368906 
L 383.486241 16.368906 
L 390.486241 16.368906 
" style="fill: none; stroke: #4daf7c; stroke-width: 1.35; stroke-linecap: square"/>
    </g>
    <g id="text_19">
     <text style="font-size: 7px; font-family: 'Arial', 'Helvetica', 'DejaVu Sans', sans-serif; text-anchor: start" x="396.086241" y="18.818906" transform="rotate(-0 396.086241 18.818906)">Geodesic (Ours)</text>
    </g>
   </g>
  </g>
 </g>
 <defs>
  <clipPath id="p5951230fe1">
   <rect x="43.175192" y="7.2" width="415.574174" height="144.3"/>
  </clipPath>
 </defs>
</svg>
