<?xml version="1.0" encoding="utf-8" standalone="no"?>
<!DOCTYPE svg PUBLIC "-//W3C//DTD SVG 1.1//EN"
  "http://www.w3.org/Graphics/SVG/1.1/DTD/svg11.dtd">
<svg xmlns:xlink="http://www.w3.org/1999/xlink" width="420.881054pt" height="169.317187pt" viewBox="0 0 420.881054 169.317187" xmlns="http://www.w3.org/2000/svg" version="1.1">
 <metadata>
  <rdf:RDF xmlns:dc="http://purl.org/dc/elements/1.1/" xmlns:cc="http://creativecommons.org/ns#" xmlns:rdf="http://www.w3.org/1999/02/22-rdf-syntax-ns#">
   <cc:Work>
    <dc:type rdf:resource="http://purl.org/dc/dcmitype/StillImage"/>
    <dc:date>2026-06-15T20:39:41.661912</dc:date>
    <dc:format>image/svg+xml</dc:format>
    <dc:creator>
     <cc:Agent>
      <dc:title>Matplotlib v3.10.8, https://matplotlib.org/</dc:title>
     </cc:Agent>
    </dc:creator>
   </cc:Work>
  </rdf:RDF>
 </metadata>
 <defs>
  <style type="text/css">*{stroke-linejoin: round; stroke-linecap: butt}</style>
 </defs>
 <g id="figure_1">
  <g id="patch_1">
   <path d="M 0 169.317187 
L 420.881054 169.317187 
L 420.881054 0 
L 0 0 
z
" style="fill: #ffffff"/>
  </g>
  <g id="axes_1">
   <g id="patch_2">
    <path d="M 55.889771 137.1 
L 408.11496 137.1 
L 408.11496 7.2 
L 55.889771 7.2 
z
" style="fill: #ffffff"/>
   </g>
   <g id="matplotlib.axis_1">
    <g id="xtick_1">
     <g id="line2d_1">
      <defs>
       <path id="mea256fecbb" d="M 0 0 
L 0 3 
" style="stroke: #222222; stroke-width: 0.8"/>
      </defs>
      <g>
       <use xlink:href="#mea256fecbb" x="55.889771" y="137.1" style="fill: #222222; stroke: #222222; stroke-width: 0.8"/>
      </g>
     </g>
     <g id="text_1">
      <text style="font-size: 7px; font-family: 'Arial', 'Helvetica', 'DejaVu Sans', sans-serif; text-anchor: middle; fill: #222222" x="55.889771" y="148.918906" transform="rotate(-0 55.889771 148.918906)">0.0</text>
     </g>
    </g>
    <g id="xtick_2">
     <g id="line2d_2">
      <g>
       <use xlink:href="#mea256fecbb" x="126.334809" y="137.1" style="fill: #222222; stroke: #222222; stroke-width: 0.8"/>
      </g>
     </g>
     <g id="text_2">
      <text style="font-size: 7px; font-family: 'Arial', 'Helvetica', 'DejaVu Sans', sans-serif; text-anchor: middle; fill: #222222" x="126.334809" y="148.918906" transform="rotate(-0 126.334809 148.918906)">0.2</text>
     </g>
    </g>
    <g id="xtick_3">
     <g id="line2d_3">
      <g>
       <use xlink:href="#mea256fecbb" x="196.779846" y="137.1" style="fill: #222222; stroke: #222222; stroke-width: 0.8"/>
      </g>
     </g>
     <g id="text_3">
      <text style="font-size: 7px; font-family: 'Arial', 'Helvetica', 'DejaVu Sans', sans-serif; text-anchor: middle; fill: #222222" x="196.779846" y="148.918906" transform="rotate(-0 196.779846 148.918906)">0.4</text>
     </g>
    </g>
    <g id="xtick_4">
     <g id="line2d_4">
      <g>
       <use xlink:href="#mea256fecbb" x="267.224884" y="137.1" style="fill: #222222; stroke: #222222; stroke-width: 0.8"/>
      </g>
     </g>
     <g id="text_4">
      <text style="font-size: 7px; font-family: 'Arial', 'Helvetica', 'DejaVu Sans', sans-serif; text-anchor: middle; fill: #222222" x="267.224884" y="148.918906" transform="rotate(-0 267.224884 148.918906)">0.6</text>
     </g>
    </g>
    <g id="xtick_5">
     <g id="line2d_5">
      <g>
       <use xlink:href="#mea256fecbb" x="337.669922" y="137.1" style="fill: #222222; stroke: #222222; stroke-width: 0.8"/>
      </g>
     </g>
     <g id="text_5">
      <text style="font-size: 7px; font-family: 'Arial', 'Helvetica', 'DejaVu Sans', sans-serif; text-anchor: middle; fill: #222222" x="337.669922" y="148.918906" transform="rotate(-0 337.669922 148.918906)">0.8</text>
     </g>
    </g>
    <g id="xtick_6">
     <g id="line2d_6">
      <g>
       <use xlink:href="#mea256fecbb" x="408.11496" y="137.1" style="fill: #222222; stroke: #222222; stroke-width: 0.8"/>
      </g>
     </g>
     <g id="text_6">
      <text style="font-size: 7px; font-family: 'Arial', 'Helvetica', 'DejaVu Sans', sans-serif; text-anchor: middle; fill: #222222" x="408.11496" y="148.918906" transform="rotate(-0 408.11496 148.918906)">1.0</text>
     </g>
    </g>
    <g id="text_7">
     <text style="font-size: 8px; font-family: 'Arial', 'Helvetica', 'DejaVu Sans', sans-serif; text-anchor: middle" x="232.002365" y="160.453437" transform="rotate(-0 232.002365 160.453437)">Normalized arc length</text>
    </g>
   </g>
   <g id="matplotlib.axis_2">
    <g id="ytick_1">
     <g id="line2d_7">
      <defs>
       <path id="m39224a05f9" d="M 0 0 
L -3 0 
" style="stroke: #222222; stroke-width: 0.8"/>
      </defs>
      <g>
       <use xlink:href="#m39224a05f9" x="55.889771" y="131.195455" style="fill: #222222; stroke: #222222; stroke-width: 0.8"/>
      </g>
     </g>
     <g id="text_8">
      <text style="font-size: 7px; font-family: 'Arial', 'Helvetica', 'DejaVu Sans', sans-serif; text-anchor: end; fill: #222222" x="49.389771" y="133.854908" transform="rotate(-0 49.389771 133.854908)">0</text>
     </g>
    </g>
    <g id="ytick_2">
     <g id="line2d_8">
      <g>
       <use xlink:href="#m39224a05f9" x="55.889771" y="114.774796" style="fill: #222222; stroke: #222222; stroke-width: 0.8"/>
      </g>
     </g>
     <g id="text_9">
      <text style="font-size: 7px; font-family: 'Arial', 'Helvetica', 'DejaVu Sans', sans-serif; text-anchor: end; fill: #222222" x="49.389771" y="117.434249" transform="rotate(-0 49.389771 117.434249)">50</text>
     </g>
    </g>
    <g id="ytick_3">
     <g id="line2d_9">
      <g>
       <use xlink:href="#m39224a05f9" x="55.889771" y="98.354137" style="fill: #222222; stroke: #222222; stroke-width: 0.8"/>
      </g>
     </g>
     <g id="text_10">
      <text style="font-size: 7px; font-family: 'Arial', 'Helvetica', 'DejaVu Sans', sans-serif; text-anchor: end; fill: #222222" x="49.389771" y="101.01359" transform="rotate(-0 49.389771 101.01359)">100</text>
     </g>
    </g>
    <g id="ytick_4">
     <g id="line2d_10">
      <g>
       <use xlink:href="#m39224a05f9" x="55.889771" y="81.933478" style="fill: #222222; stroke: #222222; stroke-width: 0.8"/>
      </g>
     </g>
     <g id="text_11">
      <text style="font-size: 7px; font-family: 'Arial', 'Helvetica', 'DejaVu Sans', sans-serif; text-anchor: end; fill: #222222" x="49.389771" y="84.592931" transform="rotate(-0 49.389771 84.592931)">150</text>
     </g>
    </g>
    <g id="ytick_5">
     <g id="line2d_11">
      <g>
       <use xlink:href="#m39224a05f9" x="55.889771" y="65.512819" style="fill: #222222; stroke: #222222; stroke-width: 0.8"/>
      </g>
     </g>
     <g id="text_12">
      <text style="font-size: 7px; font-family: 'Arial', 'Helvetica', 'DejaVu Sans', sans-serif; text-anchor: end; fill: #222222" x="49.389771" y="68.172272" transform="rotate(-0 49.389771 68.172272)">200</text>
     </g>
    </g>
    <g id="ytick_6">
     <g id="line2d_12">
      <g>
       <use xlink:href="#m39224a05f9" x="55.889771" y="49.09216" style="fill: #222222; stroke: #222222; stroke-width: 0.8"/>
      </g>
     </g>
     <g id="text_13">
      <text style="font-size: 7px; font-family: 'Arial', 'Helvetica', 'DejaVu Sans', sans-serif; text-anchor: end; fill: #222222" x="49.389771" y="51.751613" transform="rotate(-0 49.389771 51.751613)">250</text>
     </g>
    </g>
    <g id="ytick_7">
     <g id="line2d_13">
      <g>
       <use xlink:href="#m39224a05f9" x="55.889771" y="32.671501" style="fill: #222222; stroke: #222222; stroke-width: 0.8"/>
      </g>
     </g>
     <g id="text_14">
      <text style="font-size: 7px; font-family: 'Arial', 'Helvetica', 'DejaVu Sans', sans-serif; text-anchor: end; fill: #222222" x="49.389771" y="35.330955" transform="rotate(-0 49.389771 35.330955)">300</text>
     </g>
    </g>
    <g id="ytick_8">
     <g id="line2d_14">
      <g>
       <use xlink:href="#m39224a05f9" x="55.889771" y="16.250843" style="fill: #222222; stroke: #222222; stroke-width: 0.8"/>
      </g>
     </g>
     <g id="text_15">
      <text style="font-size: 7px; font-family: 'Arial', 'Helvetica', 'DejaVu Sans', sans-serif; text-anchor: end; fill: #222222" x="49.389771" y="18.910296" transform="rotate(-0 49.389771 18.910296)">350</text>
     </g>
    </g>
    <g id="text_16">
     <!-- $|\kappa_g|$ -->
     <g transform="translate(7.2 67.99)">
      <text>
       <tspan x="0" y="-0.25" style="font-size: 13px; font-family: 'cmsy10'">j</tspan>
       <tspan x="16.259572" y="-0.25" style="font-size: 13px; font-family: 'cmsy10'">j</tspan>
       <tspan x="3.599121" y="-0.25" style="font-size: 13px; font-family: 'cmmi10'">∙</tspan>
       <tspan x="11.089355" y="1.960812" style="font-size: 9.1px; font-family: 'cmmi10'">g</tspan>
      </text>
     </g>
    </g>
   </g>
   <g id="line2d_15">
    <path d="M 62.835586 121.998664 
L 70.34466 127.380738 
L 76.568251 123.96251 
L 82.42295 114.764958 
L 88.82976 128.891424 
L 95.617675 122.867954 
L 101.878691 117.161683 
L 108.31286 122.199746 
L 115.550499 121.115628 
L 123.999414 128.430914 
L 131.118614 58.816084 
L 146.498141 82.4204 
L 153.791689 130.903113 
L 162.214897 131.132654 
L 169.850641 128.823069 
L 178.187262 130.247105 
L 185.336413 121.928463 
L 191.390947 126.902997 
L 197.462366 128.770411 
L 204.537165 129.447724 
L 210.591208 120.936389 
L 218.24615 125.645462 
L 225.975301 60.624105 
L 240.539617 87.11131 
L 247.869881 123.577482 
L 254.15301 122.157196 
L 261.044569 126.95034 
L 268.023596 130.369203 
L 273.91933 131.195455 
L 279.815063 124.254483 
L 288.549088 130.375884 
L 297.363976 129.145378 
L 304.351171 129.459341 
L 312.717796 130.409599 
L 321.939479 26.996591 
L 339.592126 107.695326 
L 346.144207 129.552127 
L 355.654079 114.943319 
L 361.776086 120.45963 
L 370.328194 120.839291 
L 374.255095 102.876074 
L 385.727639 128.048745 
L 388.212183 130.292801 
L 391.846021 112.833225 
L 404.336568 119.061305 
" clip-path="url(#p8763c8d6e9)" style="fill: none; stroke: #c73e3a; stroke-width: 1.55; stroke-linecap: square"/>
   </g>
   <g id="line2d_16">
    <path d="M 70.909067 126.478599 
L 75.07434 130.345979 
L 83.822628 126.962581 
L 91.453361 128.740597 
L 99.965228 127.888933 
L 108.65125 128.614865 
L 117.518538 129.272292 
L 126.367342 127.47327 
L 134.492591 123.507511 
L 141.068611 103.896941 
L 145.676805 40.647707 
L 149.828504 63.860269 
L 155.130899 110.007104 
L 162.483437 123.759652 
L 171.359153 126.060572 
L 180.983412 126.458662 
L 190.492046 128.488739 
L 199.523754 128.04734 
L 208.337391 130.192 
L 216.806161 127.635887 
L 224.310787 122.807144 
L 230.416484 102.107196 
L 234.909078 46.264971 
L 238.988776 64.553849 
L 243.855333 107.217735 
L 250.299855 122.948974 
L 258.107232 127.079369 
L 266.612972 128.256989 
L 275.239721 130.985061 
L 284.04156 130.41314 
L 293.507297 127.866814 
L 302.66597 125.929504 
L 310.645778 120.134249 
L 316.727374 87.83393 
L 320.761407 13.104545 
L 325.38329 91.804749 
L 331.584942 120.089545 
L 339.669689 126.015674 
L 348.625033 129.332849 
L 357.730455 129.072169 
L 366.288617 128.7847 
L 374.779245 130.406379 
L 382.020297 129.419217 
L 390.255277 130.237295 
L 394.298248 127.349717 
" clip-path="url(#p8763c8d6e9)" style="fill: none; stroke-dasharray: 4.995,2.16; stroke-dashoffset: 0; stroke: #6c6c6c; stroke-width: 1.35"/>
   </g>
   <g id="line2d_17">
    <path d="M 64.072906 130.954801 
L 70.162636 126.604055 
L 74.925483 126.949303 
L 82.128899 127.529028 
L 86.895205 124.953905 
L 94.629599 128.657065 
L 101.452922 126.072345 
L 107.846878 125.982488 
L 113.462085 130.051237 
L 126.953349 112.107495 
L 130.946837 98.330023 
L 147.278595 102.876514 
L 151.018825 115.309983 
L 164.116349 127.85325 
L 172.972047 131.100051 
L 179.012743 127.459542 
L 185.470524 125.441114 
L 192.077502 127.011266 
L 198.110975 128.770411 
L 205.141556 124.499723 
L 208.738158 122.965898 
L 219.689799 118.036187 
L 222.394593 94.400971 
L 239.299591 100.352606 
L 243.111977 110.859127 
L 253.976052 127.021764 
L 258.983498 130.491969 
L 266.527865 127.99937 
L 271.393491 124.503282 
L 278.274327 127.12448 
L 286.953764 130.375884 
L 295.71356 127.713282 
L 301.867707 128.503252 
L 317.654414 105.397556 
L 321.843927 121.747361 
L 341.963678 107.370327 
L 346.712823 126.611652 
L 350.537509 131.050851 
L 361.832022 129.687295 
L 370.836617 122.60699 
L 374.466719 118.298659 
L 385.867559 128.048745 
L 388.336575 130.292801 
L 391.947702 112.833225 
L 404.360183 119.061305 
" clip-path="url(#p8763c8d6e9)" style="fill: none; stroke: #1b8a3a; stroke-width: 1.75; stroke-linecap: square"/>
   </g>
   <g id="patch_3">
    <path d="M 55.889771 137.1 
L 55.889771 7.2 
" style="fill: none; stroke: #222222; stroke-width: 0.8; stroke-linejoin: miter; stroke-linecap: square"/>
   </g>
   <g id="patch_4">
    <path d="M 55.889771 137.1 
L 408.11496 137.1 
" style="fill: none; stroke: #222222; stroke-width: 0.8; stroke-linejoin: miter; stroke-linecap: square"/>
   </g>
   <g id="legend_1">
    <g id="patch_5">
     <path d="M 327.964179 33.217187 
L 404.61496 33.217187 
Q 405.61496 33.217187 405.61496 32.217187 
L 405.61496 10.7 
Q 405.61496 9.7 404.61496 9.7 
L 327.964179 9.7 
Q 326.964179 9.7 326.964179 10.7 
L 326.964179 32.217187 
Q 326.964179 33.217187 327.964179 33.217187 
z
" style="fill: #ffffff; opacity: 0.8; stroke: #cccccc; stroke-linejoin: miter"/>
    </g>
    <g id="line2d_18">
     <path d="M 328.964179 13.749219 
L 333.964179 13.749219 
L 338.964179 13.749219 
" style="fill: none; stroke: #c73e3a; stroke-width: 1.55; stroke-linecap: square"/>
    </g>
    <g id="text_17">
     <text style="font-size: 5px; font-family: 'Arial', 'Helvetica', 'DejaVu Sans', sans-serif; text-anchor: start" x="342.964179" y="15.499219" transform="rotate(-0 342.964179 15.499219)">Original</text>
    </g>
    <g id="line2d_19">
     <path d="M 328.964179 21.088281 
L 333.964179 21.088281 
L 338.964179 21.088281 
" style="fill: none; stroke-dasharray: 4.995,2.16; stroke-dashoffset: 0; stroke: #6c6c6c; stroke-width: 1.35"/>
    </g>
    <g id="text_18">
     <text style="font-size: 5px; font-family: 'Arial', 'Helvetica', 'DejaVu Sans', sans-serif; text-anchor: start" x="342.964179" y="22.838281" transform="rotate(-0 342.964179 22.838281)">Moving-average smooth</text>
    </g>
    <g id="line2d_20">
     <path d="M 328.964179 28.427344 
L 333.964179 28.427344 
L 338.964179 28.427344 
" style="fill: none; stroke: #1b8a3a; stroke-width: 1.75; stroke-linecap: square"/>
    </g>
    <g id="text_19">
     <text style="font-size: 5px; font-family: 'Arial', 'Helvetica', 'DejaVu Sans', sans-serif; text-anchor: start" x="342.964179" y="30.177344" transform="rotate(-0 342.964179 30.177344)">Geodesic optimized</text>
    </g>
   </g>
  </g>
 </g>
 <defs>
  <clipPath id="p8763c8d6e9">
   <rect x="55.889771" y="7.2" width="352.225189" height="129.9"/>
  </clipPath>
 </defs>
</svg>
