<?xml version="1.0" encoding="utf-8" standalone="no"?>
<!DOCTYPE svg PUBLIC "-//W3C//DTD SVG 1.1//EN"
  "http://www.w3.org/Graphics/SVG/1.1/DTD/svg11.dtd">
<svg xmlns:xlink="http://www.w3.org/1999/xlink" width="420.881054pt" height="169.317187pt" viewBox="0 0 420.881054 169.317187" xmlns="http://www.w3.org/2000/svg" version="1.1">
 <metadata>
  <rdf:RDF xmlns:dc="http://purl.org/dc/elements/1.1/" xmlns:cc="http://creativecommons.org/ns#" xmlns:rdf="http://www.w3.org/1999/02/22-rdf-syntax-ns#">
   <cc:Work>
    <dc:type rdf:resource="http://purl.org/dc/dcmitype/StillImage"/>
    <dc:date>2026-06-15T20:39:34.356159</dc:date>
    <dc:format>image/svg+xml</dc:format>
    <dc:creator>
     <cc:Agent>
      <dc:title>Matplotlib v3.10.8, https://matplotlib.org/</dc:title>
     </cc:Agent>
    </dc:creator>
   </cc:Work>
  </rdf:RDF>
 </metadata>
 <defs>
  <style type="text/css">*{stroke-linejoin: round; stroke-linecap: butt}</style>
 </defs>
 <g id="figure_1">
  <g id="patch_1">
   <path d="M 0 169.317187 
L 420.881054 169.317187 
L 420.881054 0 
L 0 0 
z
" style="fill: #ffffff"/>
  </g>
  <g id="axes_1">
   <g id="patch_2">
    <path d="M 55.889771 137.1 
L 408.11496 137.1 
L 408.11496 7.2 
L 55.889771 7.2 
z
" style="fill: #ffffff"/>
   </g>
   <g id="matplotlib.axis_1">
    <g id="xtick_1">
     <g id="line2d_1">
      <defs>
       <path id="m4f86301de0" d="M 0 0 
L 0 3 
" style="stroke: #222222; stroke-width: 0.8"/>
      </defs>
      <g>
       <use xlink:href="#m4f86301de0" x="55.889771" y="137.1" style="fill: #222222; stroke: #222222; stroke-width: 0.8"/>
      </g>
     </g>
     <g id="text_1">
      <text style="font-size: 7px; font-family: 'Arial', 'Helvetica', 'DejaVu Sans', sans-serif; text-anchor: middle; fill: #222222" x="55.889771" y="148.918906" transform="rotate(-0 55.889771 148.918906)">0.0</text>
     </g>
    </g>
    <g id="xtick_2">
     <g id="line2d_2">
      <g>
       <use xlink:href="#m4f86301de0" x="126.334809" y="137.1" style="fill: #222222; stroke: #222222; stroke-width: 0.8"/>
      </g>
     </g>
     <g id="text_2">
      <text style="font-size: 7px; font-family: 'Arial', 'Helvetica', 'DejaVu Sans', sans-serif; text-anchor: middle; fill: #222222" x="126.334809" y="148.918906" transform="rotate(-0 126.334809 148.918906)">0.2</text>
     </g>
    </g>
    <g id="xtick_3">
     <g id="line2d_3">
      <g>
       <use xlink:href="#m4f86301de0" x="196.779846" y="137.1" style="fill: #222222; stroke: #222222; stroke-width: 0.8"/>
      </g>
     </g>
     <g id="text_3">
      <text style="font-size: 7px; font-family: 'Arial', 'Helvetica', 'DejaVu Sans', sans-serif; text-anchor: middle; fill: #222222" x="196.779846" y="148.918906" transform="rotate(-0 196.779846 148.918906)">0.4</text>
     </g>
    </g>
    <g id="xtick_4">
     <g id="line2d_4">
      <g>
       <use xlink:href="#m4f86301de0" x="267.224884" y="137.1" style="fill: #222222; stroke: #222222; stroke-width: 0.8"/>
      </g>
     </g>
     <g id="text_4">
      <text style="font-size: 7px; font-family: 'Arial', 'Helvetica', 'DejaVu Sans', sans-serif; text-anchor: middle; fill: #222222" x="267.224884" y="148.918906" transform="rotate(-0 267.224884 148.918906)">0.6</text>
     </g>
    </g>
    <g id="xtick_5">
     <g id="line2d_5">
      <g>
       <use xlink:href="#m4f86301de0" x="337.669922" y="137.1" style="fill: #222222; stroke: #222222; stroke-width: 0.8"/>
      </g>
     </g>
     <g id="text_5">
      <text style="font-size: 7px; font-family: 'Arial', 'Helvetica', 'DejaVu Sans', sans-serif; text-anchor: middle; fill: #222222" x="337.669922" y="148.918906" transform="rotate(-0 337.669922 148.918906)">0.8</text>
     </g>
    </g>
    <g id="xtick_6">
     <g id="line2d_6">
      <g>
       <use xlink:href="#m4f86301de0" x="408.11496" y="137.1" style="fill: #222222; stroke: #222222; stroke-width: 0.8"/>
      </g>
     </g>
     <g id="text_6">
      <text style="font-size: 7px; font-family: 'Arial', 'Helvetica', 'DejaVu Sans', sans-serif; text-anchor: middle; fill: #222222" x="408.11496" y="148.918906" transform="rotate(-0 408.11496 148.918906)">1.0</text>
     </g>
    </g>
    <g id="text_7">
     <text style="font-size: 8px; font-family: 'Arial', 'Helvetica', 'DejaVu Sans', sans-serif; text-anchor: middle" x="232.002365" y="160.453437" transform="rotate(-0 232.002365 160.453437)">Normalized arc length</text>
    </g>
   </g>
   <g id="matplotlib.axis_2">
    <g id="ytick_1">
     <g id="line2d_7">
      <defs>
       <path id="m454d208fb0" d="M 0 0 
L -3 0 
" style="stroke: #222222; stroke-width: 0.8"/>
      </defs>
      <g>
       <use xlink:href="#m454d208fb0" x="55.889771" y="131.195455" style="fill: #222222; stroke: #222222; stroke-width: 0.8"/>
      </g>
     </g>
     <g id="text_8">
      <text style="font-size: 7px; font-family: 'Arial', 'Helvetica', 'DejaVu Sans', sans-serif; text-anchor: end; fill: #222222" x="49.389771" y="133.854908" transform="rotate(-0 49.389771 133.854908)">0</text>
     </g>
    </g>
    <g id="ytick_2">
     <g id="line2d_8">
      <g>
       <use xlink:href="#m454d208fb0" x="55.889771" y="113.368972" style="fill: #222222; stroke: #222222; stroke-width: 0.8"/>
      </g>
     </g>
     <g id="text_9">
      <text style="font-size: 7px; font-family: 'Arial', 'Helvetica', 'DejaVu Sans', sans-serif; text-anchor: end; fill: #222222" x="49.389771" y="116.028425" transform="rotate(-0 49.389771 116.028425)">50</text>
     </g>
    </g>
    <g id="ytick_3">
     <g id="line2d_9">
      <g>
       <use xlink:href="#m454d208fb0" x="55.889771" y="95.542489" style="fill: #222222; stroke: #222222; stroke-width: 0.8"/>
      </g>
     </g>
     <g id="text_10">
      <text style="font-size: 7px; font-family: 'Arial', 'Helvetica', 'DejaVu Sans', sans-serif; text-anchor: end; fill: #222222" x="49.389771" y="98.201942" transform="rotate(-0 49.389771 98.201942)">100</text>
     </g>
    </g>
    <g id="ytick_4">
     <g id="line2d_10">
      <g>
       <use xlink:href="#m454d208fb0" x="55.889771" y="77.716006" style="fill: #222222; stroke: #222222; stroke-width: 0.8"/>
      </g>
     </g>
     <g id="text_11">
      <text style="font-size: 7px; font-family: 'Arial', 'Helvetica', 'DejaVu Sans', sans-serif; text-anchor: end; fill: #222222" x="49.389771" y="80.375459" transform="rotate(-0 49.389771 80.375459)">150</text>
     </g>
    </g>
    <g id="ytick_5">
     <g id="line2d_11">
      <g>
       <use xlink:href="#m454d208fb0" x="55.889771" y="59.889523" style="fill: #222222; stroke: #222222; stroke-width: 0.8"/>
      </g>
     </g>
     <g id="text_12">
      <text style="font-size: 7px; font-family: 'Arial', 'Helvetica', 'DejaVu Sans', sans-serif; text-anchor: end; fill: #222222" x="49.389771" y="62.548976" transform="rotate(-0 49.389771 62.548976)">200</text>
     </g>
    </g>
    <g id="ytick_6">
     <g id="line2d_12">
      <g>
       <use xlink:href="#m454d208fb0" x="55.889771" y="42.06304" style="fill: #222222; stroke: #222222; stroke-width: 0.8"/>
      </g>
     </g>
     <g id="text_13">
      <text style="font-size: 7px; font-family: 'Arial', 'Helvetica', 'DejaVu Sans', sans-serif; text-anchor: end; fill: #222222" x="49.389771" y="44.722493" transform="rotate(-0 49.389771 44.722493)">250</text>
     </g>
    </g>
    <g id="ytick_7">
     <g id="line2d_13">
      <g>
       <use xlink:href="#m454d208fb0" x="55.889771" y="24.236557" style="fill: #222222; stroke: #222222; stroke-width: 0.8"/>
      </g>
     </g>
     <g id="text_14">
      <text style="font-size: 7px; font-family: 'Arial', 'Helvetica', 'DejaVu Sans', sans-serif; text-anchor: end; fill: #222222" x="49.389771" y="26.89601" transform="rotate(-0 49.389771 26.89601)">300</text>
     </g>
    </g>
    <g id="text_15">
     <!-- $|\kappa_g|$ -->
     <g transform="translate(7.2 67.99)">
      <text>
       <tspan x="0" y="-0.25" style="font-size: 13px; font-family: 'cmsy10'">j</tspan>
       <tspan x="16.259572" y="-0.25" style="font-size: 13px; font-family: 'cmsy10'">j</tspan>
       <tspan x="3.599121" y="-0.25" style="font-size: 13px; font-family: 'cmmi10'">∙</tspan>
       <tspan x="11.089355" y="1.960812" style="font-size: 9.1px; font-family: 'cmmi10'">g</tspan>
      </text>
     </g>
    </g>
   </g>
   <g id="line2d_14">
    <path d="M 63.274661 129.387373 
L 69.196418 121.270668 
L 74.357631 131.174806 
L 79.48492 126.55883 
L 84.622612 118.599078 
L 89.200433 126.333745 
L 93.358357 128.048359 
L 98.700604 122.808319 
L 103.782595 68.106224 
L 115.115602 68.104827 
L 120.649611 129.840646 
L 125.168195 129.610021 
L 129.936952 130.485108 
L 134.396971 131.184382 
L 138.827993 123.343024 
L 143.852644 126.94646 
L 148.849746 129.529697 
L 153.844366 121.591546 
L 160.557017 125.984543 
L 166.223523 59.874795 
L 177.257243 79.646438 
L 183.719193 127.116689 
L 189.792678 124.98484 
L 194.767464 125.482767 
L 199.625008 128.249245 
L 203.970049 130.47462 
L 208.875798 125.485427 
L 213.633454 124.371683 
L 218.354393 130.779707 
L 222.844687 125.167329 
L 227.836895 60.613496 
L 239.018808 66.574155 
L 245.001941 129.010072 
L 249.47952 127.903851 
L 254.181839 128.525721 
L 258.569309 131.170629 
L 262.927809 129.2285 
L 267.816465 129.942067 
L 272.744818 131.1221 
L 277.7398 122.80295 
L 282.974187 130.132065 
L 289.771668 91.823684 
L 301.973126 36.631116 
L 309.626132 127.26412 
L 315.152665 124.736569 
L 320.230826 126.632164 
L 325.93918 127.948471 
L 330.854949 121.577188 
L 335.272873 126.671777 
L 339.994801 125.690444 
L 344.478939 130.936302 
L 349.028759 13.104545 
L 358.958976 112.453136 
L 362.312867 122.538678 
L 367.39 130.608106 
L 373.29653 127.605319 
L 377.699166 120.553916 
L 398.917215 126.94844 
L 403.847117 127.343977 
" clip-path="url(#p2f05406169)" style="fill: none; stroke: #c73e3a; stroke-width: 1.55; stroke-linecap: square"/>
   </g>
   <g id="line2d_15">
    <path d="M 70.188002 127.359135 
L 73.892933 131.065209 
L 81.715619 126.827882 
L 88.187306 128.934573 
L 95.1848 130.777365 
L 101.896645 127.641124 
L 107.959329 122.507097 
L 113.062728 108.557855 
L 116.962518 67.042805 
L 120.348659 53.055488 
L 123.822779 94.536469 
L 128.331361 115.94148 
L 133.9068 123.513154 
L 140.213717 124.2178 
L 146.917757 129.265642 
L 153.814962 127.649525 
L 160.667214 126.532164 
L 166.872324 122.372854 
L 171.89291 100.303264 
L 175.437919 34.930056 
L 178.652949 59.694723 
L 182.657052 107.971513 
L 188.026368 122.82667 
L 194.406026 126.121271 
L 201.247969 127.76509 
L 208.057529 130.044097 
L 214.738516 127.162991 
L 221.128944 125.494481 
L 226.790926 119.579035 
L 231.348348 96.738114 
L 234.696101 43.013447 
L 237.829969 56.573411 
L 241.440671 104.173732 
L 246.212952 120.684811 
L 251.977886 125.770585 
L 258.346475 127.948156 
L 264.913897 130.460018 
L 271.653204 125.009484 
L 278.471572 124.379041 
L 284.812346 120.554798 
L 290.21875 108.543554 
L 294.41697 65.731243 
L 297.839212 37.802062 
L 301.517158 102.812801 
L 306.610259 121.576745 
L 312.903881 127.066119 
L 319.874097 130.351845 
L 326.822008 123.628663 
L 332.906982 120.27092 
L 337.970558 107.797076 
L 341.788798 62.632419 
L 344.758671 49.160764 
L 348.535675 110.263992 
L 353.912961 122.423758 
L 361.03623 127.997696 
L 369.499854 130.596155 
L 378.124487 129.62609 
L 388.020588 131.095174 
L 392.886034 130.759567 
" clip-path="url(#p2f05406169)" style="fill: none; stroke-dasharray: 4.995,2.16; stroke-dashoffset: 0; stroke: #6c6c6c; stroke-width: 1.35"/>
   </g>
   <g id="line2d_16">
    <path d="M 63.081207 129.387373 
L 68.847838 123.892705 
L 75.318984 131.157867 
L 80.39697 125.613301 
L 83.269496 131.195455 
L 88.296417 120.143066 
L 91.664517 129.328522 
L 99.956991 117.384656 
L 102.532871 89.776537 
L 113.569 92.080652 
L 115.827999 113.554251 
L 126.007675 129.321801 
L 128.322722 130.230959 
L 132.665907 130.834704 
L 136.297539 124.043934 
L 141.87644 126.823877 
L 145.318414 131.170903 
L 148.783776 123.094425 
L 161.735295 100.543653 
L 163.780225 106.616052 
L 175.236032 99.260979 
L 180.794089 111.93666 
L 189.529193 129.055378 
L 193.691082 122.416861 
L 197.746029 127.746914 
L 201.977248 130.47462 
L 206.754487 125.485427 
L 211.387511 123.100112 
L 214.348313 127.823268 
L 222.674848 115.090481 
L 225.560708 88.420676 
L 236.45206 98.614499 
L 238.391177 106.210605 
L 249.951829 119.909263 
L 252.006351 126.971078 
L 256.278887 131.170629 
L 260.523212 129.2285 
L 265.283806 130.172307 
L 270.746099 130.842345 
L 274.953566 127.632043 
L 280.105998 119.320033 
L 287.726863 99.313642 
L 300.2898 99.469664 
L 303.309718 103.547501 
L 314.572375 130.042723 
L 319.81906 121.923425 
L 325.377878 128.515902 
L 329.482717 128.961247 
L 333.677402 127.481404 
L 336.004103 117.682468 
L 349.867254 113.293974 
L 352.016781 100.662993 
L 362.073262 115.579408 
L 364.321699 129.892554 
L 367.256873 122.867506 
L 374.417715 128.56173 
L 377.378697 124.122521 
L 399.158158 127.015088 
L 403.958917 127.343977 
" clip-path="url(#p2f05406169)" style="fill: none; stroke: #1b8a3a; stroke-width: 1.75; stroke-linecap: square"/>
   </g>
   <g id="patch_3">
    <path d="M 55.889771 137.1 
L 55.889771 7.2 
" style="fill: none; stroke: #222222; stroke-width: 0.8; stroke-linejoin: miter; stroke-linecap: square"/>
   </g>
   <g id="patch_4">
    <path d="M 55.889771 137.1 
L 408.11496 137.1 
" style="fill: none; stroke: #222222; stroke-width: 0.8; stroke-linejoin: miter; stroke-linecap: square"/>
   </g>
   <g id="legend_1">
    <g id="patch_5">
     <path d="M 327.964179 33.217187 
L 404.61496 33.217187 
Q 405.61496 33.217187 405.61496 32.217187 
L 405.61496 10.7 
Q 405.61496 9.7 404.61496 9.7 
L 327.964179 9.7 
Q 326.964179 9.7 326.964179 10.7 
L 326.964179 32.217187 
Q 326.964179 33.217187 327.964179 33.217187 
z
" style="fill: #ffffff; opacity: 0.8; stroke: #cccccc; stroke-linejoin: miter"/>
    </g>
    <g id="line2d_17">
     <path d="M 328.964179 13.749219 
L 333.964179 13.749219 
L 338.964179 13.749219 
" style="fill: none; stroke: #c73e3a; stroke-width: 1.55; stroke-linecap: square"/>
    </g>
    <g id="text_16">
     <text style="font-size: 5px; font-family: 'Arial', 'Helvetica', 'DejaVu Sans', sans-serif; text-anchor: start" x="342.964179" y="15.499219" transform="rotate(-0 342.964179 15.499219)">Original</text>
    </g>
    <g id="line2d_18">
     <path d="M 328.964179 21.088281 
L 333.964179 21.088281 
L 338.964179 21.088281 
" style="fill: none; stroke-dasharray: 4.995,2.16; stroke-dashoffset: 0; stroke: #6c6c6c; stroke-width: 1.35"/>
    </g>
    <g id="text_17">
     <text style="font-size: 5px; font-family: 'Arial', 'Helvetica', 'DejaVu Sans', sans-serif; text-anchor: start" x="342.964179" y="22.838281" transform="rotate(-0 342.964179 22.838281)">Moving-average smooth</text>
    </g>
    <g id="line2d_19">
     <path d="M 328.964179 28.427344 
L 333.964179 28.427344 
L 338.964179 28.427344 
" style="fill: none; stroke: #1b8a3a; stroke-width: 1.75; stroke-linecap: square"/>
    </g>
    <g id="text_18">
     <text style="font-size: 5px; font-family: 'Arial', 'Helvetica', 'DejaVu Sans', sans-serif; text-anchor: start" x="342.964179" y="30.177344" transform="rotate(-0 342.964179 30.177344)">Geodesic optimized</text>
    </g>
   </g>
  </g>
 </g>
 <defs>
  <clipPath id="p2f05406169">
   <rect x="55.889771" y="7.2" width="352.225189" height="129.9"/>
  </clipPath>
 </defs>
</svg>
