<?xml version="1.0" encoding="utf-8" standalone="no"?>
<!DOCTYPE svg PUBLIC "-//W3C//DTD SVG 1.1//EN"
  "http://www.w3.org/Graphics/SVG/1.1/DTD/svg11.dtd">
<svg xmlns:xlink="http://www.w3.org/1999/xlink" width="420.222356pt" height="169.200156pt" viewBox="0 0 420.222356 169.200156" xmlns="http://www.w3.org/2000/svg" version="1.1">
 <metadata>
  <rdf:RDF xmlns:dc="http://purl.org/dc/elements/1.1/" xmlns:cc="http://creativecommons.org/ns#" xmlns:rdf="http://www.w3.org/1999/02/22-rdf-syntax-ns#">
   <cc:Work>
    <dc:type rdf:resource="http://purl.org/dc/dcmitype/StillImage"/>
    <dc:date>2026-06-23T12:37:45.814470</dc:date>
    <dc:format>image/svg+xml</dc:format>
    <dc:creator>
     <cc:Agent>
      <dc:title>Matplotlib v3.11.0, https://matplotlib.org/</dc:title>
     </cc:Agent>
    </dc:creator>
   </cc:Work>
  </rdf:RDF>
 </metadata>
 <defs>
  <style type="text/css">*{stroke-linejoin: round; stroke-linecap: butt}</style>
 </defs>
 <g id="figure_1">
  <g id="patch_1">
   <path d="M 0 169.200156 
L 420.222356 169.200156 
L 420.222356 0 
L 0 0 
z
" style="fill: #ffffff"/>
  </g>
  <g id="axes_1">
   <g id="patch_2">
    <path d="M 60.177756 137.422852 
L 408.157356 137.422852 
L 408.157356 7.2 
L 60.177756 7.2 
z
" style="fill: #ffffff"/>
   </g>
   <g id="matplotlib.axis_1">
    <g id="xtick_1">
     <g id="line2d_1">
      <defs>
       <path id="m23fde6aabf" d="M 0 0 
L 0 3 
" style="stroke: #222222; stroke-width: 0.8"/>
      </defs>
      <g>
       <use xlink:href="#m23fde6aabf" x="60.177756" y="137.422852" style="fill: #222222; stroke: #222222; stroke-width: 0.8"/>
      </g>
     </g>
     <g id="text_1">
      <text style="font-size: 7px; font-family: 'Arial', 'Helvetica', 'DejaVu Sans', sans-serif; text-anchor: middle; fill: #222222" x="60.177756" y="149.019043" transform="rotate(-0 60.177756 149.019043)">0.0</text>
     </g>
    </g>
    <g id="xtick_2">
     <g id="line2d_2">
      <g>
       <use xlink:href="#m23fde6aabf" x="129.773676" y="137.422852" style="fill: #222222; stroke: #222222; stroke-width: 0.8"/>
      </g>
     </g>
     <g id="text_2">
      <text style="font-size: 7px; font-family: 'Arial', 'Helvetica', 'DejaVu Sans', sans-serif; text-anchor: middle; fill: #222222" x="129.773676" y="149.019043" transform="rotate(-0 129.773676 149.019043)">0.2</text>
     </g>
    </g>
    <g id="xtick_3">
     <g id="line2d_3">
      <g>
       <use xlink:href="#m23fde6aabf" x="199.369596" y="137.422852" style="fill: #222222; stroke: #222222; stroke-width: 0.8"/>
      </g>
     </g>
     <g id="text_3">
      <text style="font-size: 7px; font-family: 'Arial', 'Helvetica', 'DejaVu Sans', sans-serif; text-anchor: middle; fill: #222222" x="199.369596" y="149.019043" transform="rotate(-0 199.369596 149.019043)">0.4</text>
     </g>
    </g>
    <g id="xtick_4">
     <g id="line2d_4">
      <g>
       <use xlink:href="#m23fde6aabf" x="268.965516" y="137.422852" style="fill: #222222; stroke: #222222; stroke-width: 0.8"/>
      </g>
     </g>
     <g id="text_4">
      <text style="font-size: 7px; font-family: 'Arial', 'Helvetica', 'DejaVu Sans', sans-serif; text-anchor: middle; fill: #222222" x="268.965516" y="149.019043" transform="rotate(-0 268.965516 149.019043)">0.6</text>
     </g>
    </g>
    <g id="xtick_5">
     <g id="line2d_5">
      <g>
       <use xlink:href="#m23fde6aabf" x="338.561436" y="137.422852" style="fill: #222222; stroke: #222222; stroke-width: 0.8"/>
      </g>
     </g>
     <g id="text_5">
      <text style="font-size: 7px; font-family: 'Arial', 'Helvetica', 'DejaVu Sans', sans-serif; text-anchor: middle; fill: #222222" x="338.561436" y="149.019043" transform="rotate(-0 338.561436 149.019043)">0.8</text>
     </g>
    </g>
    <g id="xtick_6">
     <g id="line2d_6">
      <g>
       <use xlink:href="#m23fde6aabf" x="408.157356" y="137.422852" style="fill: #222222; stroke: #222222; stroke-width: 0.8"/>
      </g>
     </g>
     <g id="text_6">
      <text style="font-size: 7px; font-family: 'Arial', 'Helvetica', 'DejaVu Sans', sans-serif; text-anchor: middle; fill: #222222" x="408.157356" y="149.019043" transform="rotate(-0 408.157356 149.019043)">1.0</text>
     </g>
    </g>
    <g id="text_7">
     <text style="font-size: 8px; font-family: 'Arial', 'Helvetica', 'DejaVu Sans', sans-serif; text-anchor: middle" x="234.167556" y="160.316406" transform="rotate(-0 234.167556 160.316406)">Normalized arc length</text>
    </g>
   </g>
   <g id="matplotlib.axis_2">
    <g id="ytick_1">
     <g id="line2d_7">
      <defs>
       <path id="m59a8534a16" d="M 0 0 
L -3 0 
" style="stroke: #222222; stroke-width: 0.8"/>
      </defs>
      <g>
       <use xlink:href="#m59a8534a16" x="60.177756" y="131.503631" style="fill: #222222; stroke: #222222; stroke-width: 0.8"/>
      </g>
     </g>
     <g id="text_8">
      <text style="font-size: 7px; font-family: 'Arial', 'Helvetica', 'DejaVu Sans', sans-serif; text-anchor: end; fill: #222222" x="53.677756" y="134.051727" transform="rotate(-0 53.677756 134.051727)">0</text>
     </g>
    </g>
    <g id="ytick_2">
     <g id="line2d_8">
      <g>
       <use xlink:href="#m59a8534a16" x="60.177756" y="116.665016" style="fill: #222222; stroke: #222222; stroke-width: 0.8"/>
      </g>
     </g>
     <g id="text_9">
      <text style="font-size: 7px; font-family: 'Arial', 'Helvetica', 'DejaVu Sans', sans-serif; text-anchor: end; fill: #222222" x="53.677756" y="119.213112" transform="rotate(-0 53.677756 119.213112)">2</text>
     </g>
    </g>
    <g id="ytick_3">
     <g id="line2d_9">
      <g>
       <use xlink:href="#m59a8534a16" x="60.177756" y="101.826401" style="fill: #222222; stroke: #222222; stroke-width: 0.8"/>
      </g>
     </g>
     <g id="text_10">
      <text style="font-size: 7px; font-family: 'Arial', 'Helvetica', 'DejaVu Sans', sans-serif; text-anchor: end; fill: #222222" x="53.677756" y="104.374497" transform="rotate(-0 53.677756 104.374497)">4</text>
     </g>
    </g>
    <g id="ytick_4">
     <g id="line2d_10">
      <g>
       <use xlink:href="#m59a8534a16" x="60.177756" y="86.987786" style="fill: #222222; stroke: #222222; stroke-width: 0.8"/>
      </g>
     </g>
     <g id="text_11">
      <text style="font-size: 7px; font-family: 'Arial', 'Helvetica', 'DejaVu Sans', sans-serif; text-anchor: end; fill: #222222" x="53.677756" y="89.535882" transform="rotate(-0 53.677756 89.535882)">6</text>
     </g>
    </g>
    <g id="ytick_5">
     <g id="line2d_11">
      <g>
       <use xlink:href="#m59a8534a16" x="60.177756" y="72.149171" style="fill: #222222; stroke: #222222; stroke-width: 0.8"/>
      </g>
     </g>
     <g id="text_12">
      <text style="font-size: 7px; font-family: 'Arial', 'Helvetica', 'DejaVu Sans', sans-serif; text-anchor: end; fill: #222222" x="53.677756" y="74.697267" transform="rotate(-0 53.677756 74.697267)">8</text>
     </g>
    </g>
    <g id="ytick_6">
     <g id="line2d_12">
      <g>
       <use xlink:href="#m59a8534a16" x="60.177756" y="57.310556" style="fill: #222222; stroke: #222222; stroke-width: 0.8"/>
      </g>
     </g>
     <g id="text_13">
      <text style="font-size: 7px; font-family: 'Arial', 'Helvetica', 'DejaVu Sans', sans-serif; text-anchor: end; fill: #222222" x="53.677756" y="59.858652" transform="rotate(-0 53.677756 59.858652)">10</text>
     </g>
    </g>
    <g id="ytick_7">
     <g id="line2d_13">
      <g>
       <use xlink:href="#m59a8534a16" x="60.177756" y="42.471941" style="fill: #222222; stroke: #222222; stroke-width: 0.8"/>
      </g>
     </g>
     <g id="text_14">
      <text style="font-size: 7px; font-family: 'Arial', 'Helvetica', 'DejaVu Sans', sans-serif; text-anchor: end; fill: #222222" x="53.677756" y="45.020037" transform="rotate(-0 53.677756 45.020037)">12</text>
     </g>
    </g>
    <g id="ytick_8">
     <g id="line2d_14">
      <g>
       <use xlink:href="#m59a8534a16" x="60.177756" y="27.633326" style="fill: #222222; stroke: #222222; stroke-width: 0.8"/>
      </g>
     </g>
     <g id="text_15">
      <text style="font-size: 7px; font-family: 'Arial', 'Helvetica', 'DejaVu Sans', sans-serif; text-anchor: end; fill: #222222" x="53.677756" y="30.181422" transform="rotate(-0 53.677756 30.181422)">14</text>
     </g>
    </g>
    <g id="ytick_9">
     <g id="line2d_15">
      <g>
       <use xlink:href="#m59a8534a16" x="60.177756" y="12.794711" style="fill: #222222; stroke: #222222; stroke-width: 0.8"/>
      </g>
     </g>
     <g id="text_16">
      <text style="font-size: 7px; font-family: 'Arial', 'Helvetica', 'DejaVu Sans', sans-serif; text-anchor: end; fill: #222222" x="53.677756" y="15.342807" transform="rotate(-0 53.677756 15.342807)">16</text>
     </g>
    </g>
    <g id="text_17">
     <!-- $d$ -->
     <g transform="translate(18.72 55.087793)">
      <text>
       <tspan x="0" y="-0.671875" style="font-size: 12px; font-family: 'cmmi10'">d</tspan>
      </text>
     </g>
     <!-- $(\mathrm{mm})$ -->
     <g transform="translate(7.2 68.412012)">
      <text>
       <tspan x="0" y="-0" style="font-size: 12px; font-family: 'cmr10'">(</tspan>
       <tspan x="4.658203" y="-0" style="font-size: 12px; font-family: 'cmr10'">m</tspan>
       <tspan x="14.654297" y="-0" style="font-size: 12px; font-family: 'cmr10'">m</tspan>
       <tspan x="24.650391" y="-0" style="font-size: 12px; font-family: 'cmr10'">)</tspan>
      </text>
     </g>
    </g>
   </g>
   <g id="line2d_16">
    <path d="M 60.177756 131.503631 
L 67.473879 97.982412 
L 73.324208 105.802394 
L 78.422791 118.080068 
L 83.488525 117.297292 
L 88.564443 112.913856 
L 93.086752 116.630896 
L 97.195042 113.933859 
L 102.47247 92.50074 
L 107.49342 46.015412 
L 118.689698 41.197522 
L 124.157037 85.611861 
L 128.621274 105.987508 
L 133.332483 116.492567 
L 137.738702 121.457727 
L 142.116452 116.841678 
L 147.080559 113.10641 
L 152.017061 118.866736 
L 156.951577 110.722493 
L 163.583091 77.653428 
L 169.181547 28.415269 
L 180.082346 38.843924 
L 186.466177 86.857334 
L 192.4666 109.883771 
L 197.381335 111.956477 
L 202.180383 113.966761 
L 206.473385 123.001669 
L 211.319714 117.112512 
L 216.020182 121.197354 
L 220.683877 110.575845 
L 225.120143 89.852188 
L 230.052454 43.243657 
L 241.099601 44.144673 
L 247.01056 91.248107 
L 251.434434 111.683556 
L 256.080159 118.784741 
L 260.414516 120.852684 
L 264.720441 117.049068 
L 269.550087 114.147533 
L 274.419382 115.493227 
L 279.353585 104.012156 
L 284.525386 88.702614 
L 291.240973 42.305395 
L 303.29523 13.119221 
L 310.855675 84.450034 
L 316.315681 111.192548 
L 321.332873 116.905881 
L 326.972383 113.449751 
L 331.828499 110.132346 
L 336.193233 111.852713 
L 340.858267 103.226583 
L 345.288238 81.004566 
L 349.78369 36.839029 
L 359.593968 90.05291 
L 362.907216 95.217293 
L 367.923173 100.083388 
L 373.758615 79.804063 
L 378.108026 48.780935 
L 399.070466 31.615585 
L 403.941177 36.567796 
L 408.157356 131.503631 
" clip-path="url(#pdd26aec058)" style="fill: none; stroke-dasharray: 4.625,2; stroke-dashoffset: 0; stroke: #6c6c6c; stroke-width: 1.25"/>
   </g>
   <g id="line2d_17">
    <path d="M 60.177756 117.844135 
L 67.473879 113.954081 
L 73.324208 120.839491 
L 78.422791 121.234546 
L 83.488525 129.114098 
L 88.564443 110.319342 
L 93.086752 107.418377 
L 97.195042 112.986233 
L 102.47247 122.96608 
L 107.49342 83.713001 
L 118.689698 83.546324 
L 124.157037 122.132175 
L 128.621274 116.603237 
L 133.332483 112.400836 
L 137.738702 115.609261 
L 142.116452 124.660725 
L 147.080559 123.427879 
L 152.017061 112.749003 
L 156.951577 100.971516 
L 163.583091 115.652495 
L 169.181547 87.338493 
L 180.082346 77.46895 
L 186.466177 111.396122 
L 192.4666 114.387301 
L 197.381335 114.039757 
L 202.180383 113.814996 
L 206.473385 120.216582 
L 211.319714 111.201593 
L 216.020182 109.469344 
L 220.683877 115.030678 
L 225.120143 125.242391 
L 230.052454 85.462722 
L 241.099601 77.113687 
L 247.01056 122.095689 
L 251.434434 112.666241 
L 256.080159 110.673858 
L 260.414516 118.109507 
L 264.720441 123.664414 
L 269.550087 119.99659 
L 274.419382 119.031277 
L 279.353585 112.515598 
L 284.525386 103.288333 
L 291.240973 92.951852 
L 303.29523 59.656596 
L 310.855675 105.950128 
L 316.315681 123.31076 
L 321.332873 124.237264 
L 326.972383 113.323625 
L 331.828499 103.769228 
L 336.193233 107.469627 
L 340.858267 114.201004 
L 345.288238 107.871201 
L 349.78369 78.704392 
L 359.593968 89.752368 
L 362.907216 92.733938 
L 367.923173 112.254421 
L 373.758615 119.389797 
L 378.108026 96.623741 
L 399.070466 104.541418 
L 403.941177 127.858799 
L 408.157356 119.185228 
" clip-path="url(#pdd26aec058)" style="fill: none; stroke-dasharray: 4.995,2.16; stroke-dashoffset: 0; stroke: #4c78a8; stroke-width: 1.35"/>
   </g>
   <g id="line2d_18">
    <path d="M 60.177756 131.503631 
L 67.473879 131.503631 
L 73.324208 131.503631 
L 78.422791 113.482335 
L 83.488525 112.187337 
L 88.564443 121.022413 
L 93.086752 131.503631 
L 97.195042 122.808067 
L 102.47247 98.810319 
L 107.49342 131.503631 
L 118.689698 131.503631 
L 124.157037 89.170768 
L 128.621274 103.495717 
L 133.332483 131.503631 
L 137.738702 131.503631 
L 142.116452 123.179399 
L 147.080559 131.503631 
L 152.017061 113.961532 
L 156.951577 97.775129 
L 163.583091 82.01412 
L 169.181547 119.209138 
L 180.082346 131.503631 
L 186.466177 101.281785 
L 192.4666 108.531283 
L 197.381335 123.293085 
L 202.180383 131.503631 
L 206.473385 131.503631 
L 211.319714 131.503631 
L 216.020182 131.503631 
L 220.683877 111.623622 
L 225.120143 102.449435 
L 230.052454 122.976261 
L 241.099601 122.954184 
L 247.01056 74.649275 
L 251.434434 99.403069 
L 256.080159 131.503631 
L 260.414516 131.503631 
L 264.720441 131.503631 
L 269.550087 131.503631 
L 274.419382 123.271031 
L 279.353585 131.503631 
L 284.525386 114.740112 
L 291.240973 118.485939 
L 303.29523 119.865272 
L 310.855675 49.297743 
L 316.315681 110.769746 
L 321.332873 131.503631 
L 326.972383 131.503631 
L 331.828499 123.209944 
L 336.193233 115.258551 
L 340.858267 86.681301 
L 345.288238 59.778795 
L 349.78369 119.410501 
L 359.593968 110.564748 
L 362.907216 122.95352 
L 367.923173 114.287277 
L 373.758615 131.503631 
L 378.108026 112.581944 
L 399.070466 131.503631 
L 403.941177 131.503631 
L 408.157356 131.503631 
" clip-path="url(#pdd26aec058)" style="fill: none; stroke-dasharray: 4.995,2.16; stroke-dashoffset: 0; stroke: #4daf7c; stroke-width: 1.35"/>
   </g>
   <g id="patch_3">
    <path d="M 60.177756 137.422852 
L 60.177756 7.2 
" style="fill: none; stroke: #222222; stroke-width: 0.8; stroke-linejoin: miter; stroke-linecap: square"/>
   </g>
   <g id="patch_4">
    <path d="M 60.177756 137.422852 
L 408.157356 137.422852 
" style="fill: none; stroke: #222222; stroke-width: 0.8; stroke-linejoin: miter; stroke-linecap: square"/>
   </g>
   <g id="legend_1">
    <g id="patch_5">
     <path d="M 335.023762 32.777246 
L 404.657356 32.777246 
Q 405.657356 32.777246 405.657356 31.777246 
L 405.657356 10.7 
Q 405.657356 9.7 404.657356 9.7 
L 335.023762 9.7 
Q 334.023762 9.7 334.023762 10.7 
L 334.023762 31.777246 
Q 334.023762 32.777246 335.023762 32.777246 
z
" style="fill: #ffffff; opacity: 0.8; stroke: #cccccc; stroke-linejoin: miter"/>
    </g>
    <g id="line2d_19">
     <path d="M 336.023762 13.590137 
L 341.023762 13.590137 
L 346.023762 13.590137 
" style="fill: none; stroke-dasharray: 4.625,2; stroke-dashoffset: 0; stroke: #6c6c6c; stroke-width: 1.25"/>
    </g>
    <g id="text_18">
     <text style="font-size: 5px; font-family: 'Arial', 'Helvetica', 'DejaVu Sans', sans-serif; text-anchor: start" x="350.023762" y="15.340137" transform="rotate(-0 350.023762 15.340137)">Moving-average smooth</text>
    </g>
    <g id="line2d_20">
     <path d="M 336.023762 20.782617 
L 341.023762 20.782617 
L 346.023762 20.782617 
" style="fill: none; stroke-dasharray: 4.995,2.16; stroke-dashoffset: 0; stroke: #4c78a8; stroke-width: 1.35"/>
    </g>
    <g id="text_19">
     <text style="font-size: 5px; font-family: 'Arial', 'Helvetica', 'DejaVu Sans', sans-serif; text-anchor: start" x="350.023762" y="22.532617" transform="rotate(-0 350.023762 22.532617)">B-spline</text>
    </g>
    <g id="line2d_21">
     <path d="M 336.023762 27.975 
L 341.023762 27.975 
L 346.023762 27.975 
" style="fill: none; stroke-dasharray: 4.995,2.16; stroke-dashoffset: 0; stroke: #4daf7c; stroke-width: 1.35"/>
    </g>
    <g id="text_20">
     <text style="font-size: 5px; font-family: 'Arial', 'Helvetica', 'DejaVu Sans', sans-serif; text-anchor: start" x="350.023762" y="29.725" transform="rotate(-0 350.023762 29.725)">Geodesic optimized</text>
    </g>
   </g>
  </g>
 </g>
 <defs>
  <clipPath id="pdd26aec058">
   <rect x="60.177756" y="7.2" width="347.9796" height="130.222852"/>
  </clipPath>
 </defs>
</svg>
