<?xml version="1.0" encoding="utf-8" standalone="no"?>
<!DOCTYPE svg PUBLIC "-//W3C//DTD SVG 1.1//EN"
  "http://www.w3.org/Graphics/SVG/1.1/DTD/svg11.dtd">
<svg xmlns:xlink="http://www.w3.org/1999/xlink" width="420.222356pt" height="169.200156pt" viewBox="0 0 420.222356 169.200156" xmlns="http://www.w3.org/2000/svg" version="1.1">
 <metadata>
  <rdf:RDF xmlns:dc="http://purl.org/dc/elements/1.1/" xmlns:cc="http://creativecommons.org/ns#" xmlns:rdf="http://www.w3.org/1999/02/22-rdf-syntax-ns#">
   <cc:Work>
    <dc:type rdf:resource="http://purl.org/dc/dcmitype/StillImage"/>
    <dc:date>2026-06-23T12:37:45.354288</dc:date>
    <dc:format>image/svg+xml</dc:format>
    <dc:creator>
     <cc:Agent>
      <dc:title>Matplotlib v3.11.0, https://matplotlib.org/</dc:title>
     </cc:Agent>
    </dc:creator>
   </cc:Work>
  </rdf:RDF>
 </metadata>
 <defs>
  <style type="text/css">*{stroke-linejoin: round; stroke-linecap: butt}</style>
 </defs>
 <g id="figure_1">
  <g id="patch_1">
   <path d="M 0 169.200156 
L 420.222356 169.200156 
L 420.222356 0 
L 0 0 
z
" style="fill: #ffffff"/>
  </g>
  <g id="axes_1">
   <g id="patch_2">
    <path d="M 60.177756 137.422852 
L 408.157356 137.422852 
L 408.157356 7.2 
L 60.177756 7.2 
z
" style="fill: #ffffff"/>
   </g>
   <g id="matplotlib.axis_1">
    <g id="xtick_1">
     <g id="line2d_1">
      <defs>
       <path id="m91b5892ced" d="M 0 0 
L 0 3 
" style="stroke: #222222; stroke-width: 0.8"/>
      </defs>
      <g>
       <use xlink:href="#m91b5892ced" x="60.177756" y="137.422852" style="fill: #222222; stroke: #222222; stroke-width: 0.8"/>
      </g>
     </g>
     <g id="text_1">
      <text style="font-size: 7px; font-family: 'Arial', 'Helvetica', 'DejaVu Sans', sans-serif; text-anchor: middle; fill: #222222" x="60.177756" y="149.019043" transform="rotate(-0 60.177756 149.019043)">0.0</text>
     </g>
    </g>
    <g id="xtick_2">
     <g id="line2d_2">
      <g>
       <use xlink:href="#m91b5892ced" x="129.773676" y="137.422852" style="fill: #222222; stroke: #222222; stroke-width: 0.8"/>
      </g>
     </g>
     <g id="text_2">
      <text style="font-size: 7px; font-family: 'Arial', 'Helvetica', 'DejaVu Sans', sans-serif; text-anchor: middle; fill: #222222" x="129.773676" y="149.019043" transform="rotate(-0 129.773676 149.019043)">0.2</text>
     </g>
    </g>
    <g id="xtick_3">
     <g id="line2d_3">
      <g>
       <use xlink:href="#m91b5892ced" x="199.369596" y="137.422852" style="fill: #222222; stroke: #222222; stroke-width: 0.8"/>
      </g>
     </g>
     <g id="text_3">
      <text style="font-size: 7px; font-family: 'Arial', 'Helvetica', 'DejaVu Sans', sans-serif; text-anchor: middle; fill: #222222" x="199.369596" y="149.019043" transform="rotate(-0 199.369596 149.019043)">0.4</text>
     </g>
    </g>
    <g id="xtick_4">
     <g id="line2d_4">
      <g>
       <use xlink:href="#m91b5892ced" x="268.965516" y="137.422852" style="fill: #222222; stroke: #222222; stroke-width: 0.8"/>
      </g>
     </g>
     <g id="text_4">
      <text style="font-size: 7px; font-family: 'Arial', 'Helvetica', 'DejaVu Sans', sans-serif; text-anchor: middle; fill: #222222" x="268.965516" y="149.019043" transform="rotate(-0 268.965516 149.019043)">0.6</text>
     </g>
    </g>
    <g id="xtick_5">
     <g id="line2d_5">
      <g>
       <use xlink:href="#m91b5892ced" x="338.561436" y="137.422852" style="fill: #222222; stroke: #222222; stroke-width: 0.8"/>
      </g>
     </g>
     <g id="text_5">
      <text style="font-size: 7px; font-family: 'Arial', 'Helvetica', 'DejaVu Sans', sans-serif; text-anchor: middle; fill: #222222" x="338.561436" y="149.019043" transform="rotate(-0 338.561436 149.019043)">0.8</text>
     </g>
    </g>
    <g id="xtick_6">
     <g id="line2d_6">
      <g>
       <use xlink:href="#m91b5892ced" x="408.157356" y="137.422852" style="fill: #222222; stroke: #222222; stroke-width: 0.8"/>
      </g>
     </g>
     <g id="text_6">
      <text style="font-size: 7px; font-family: 'Arial', 'Helvetica', 'DejaVu Sans', sans-serif; text-anchor: middle; fill: #222222" x="408.157356" y="149.019043" transform="rotate(-0 408.157356 149.019043)">1.0</text>
     </g>
    </g>
    <g id="text_7">
     <text style="font-size: 8px; font-family: 'Arial', 'Helvetica', 'DejaVu Sans', sans-serif; text-anchor: middle" x="234.167556" y="160.316406" transform="rotate(-0 234.167556 160.316406)">Normalized arc length</text>
    </g>
   </g>
   <g id="matplotlib.axis_2">
    <g id="ytick_1">
     <g id="line2d_7">
      <defs>
       <path id="m6ea6dfb4a6" d="M 0 0 
L -3 0 
" style="stroke: #222222; stroke-width: 0.8"/>
      </defs>
      <g>
       <use xlink:href="#m6ea6dfb4a6" x="60.177756" y="131.503631" style="fill: #222222; stroke: #222222; stroke-width: 0.8"/>
      </g>
     </g>
     <g id="text_8">
      <text style="font-size: 7px; font-family: 'Arial', 'Helvetica', 'DejaVu Sans', sans-serif; text-anchor: end; fill: #222222" x="53.677756" y="134.051727" transform="rotate(-0 53.677756 134.051727)">0</text>
     </g>
    </g>
    <g id="ytick_2">
     <g id="line2d_8">
      <g>
       <use xlink:href="#m6ea6dfb4a6" x="60.177756" y="114.624559" style="fill: #222222; stroke: #222222; stroke-width: 0.8"/>
      </g>
     </g>
     <g id="text_9">
      <text style="font-size: 7px; font-family: 'Arial', 'Helvetica', 'DejaVu Sans', sans-serif; text-anchor: end; fill: #222222" x="53.677756" y="117.172654" transform="rotate(-0 53.677756 117.172654)">2</text>
     </g>
    </g>
    <g id="ytick_3">
     <g id="line2d_9">
      <g>
       <use xlink:href="#m6ea6dfb4a6" x="60.177756" y="97.745486" style="fill: #222222; stroke: #222222; stroke-width: 0.8"/>
      </g>
     </g>
     <g id="text_10">
      <text style="font-size: 7px; font-family: 'Arial', 'Helvetica', 'DejaVu Sans', sans-serif; text-anchor: end; fill: #222222" x="53.677756" y="100.293582" transform="rotate(-0 53.677756 100.293582)">4</text>
     </g>
    </g>
    <g id="ytick_4">
     <g id="line2d_10">
      <g>
       <use xlink:href="#m6ea6dfb4a6" x="60.177756" y="80.866414" style="fill: #222222; stroke: #222222; stroke-width: 0.8"/>
      </g>
     </g>
     <g id="text_11">
      <text style="font-size: 7px; font-family: 'Arial', 'Helvetica', 'DejaVu Sans', sans-serif; text-anchor: end; fill: #222222" x="53.677756" y="83.41451" transform="rotate(-0 53.677756 83.41451)">6</text>
     </g>
    </g>
    <g id="ytick_5">
     <g id="line2d_11">
      <g>
       <use xlink:href="#m6ea6dfb4a6" x="60.177756" y="63.987342" style="fill: #222222; stroke: #222222; stroke-width: 0.8"/>
      </g>
     </g>
     <g id="text_12">
      <text style="font-size: 7px; font-family: 'Arial', 'Helvetica', 'DejaVu Sans', sans-serif; text-anchor: end; fill: #222222" x="53.677756" y="66.535437" transform="rotate(-0 53.677756 66.535437)">8</text>
     </g>
    </g>
    <g id="ytick_6">
     <g id="line2d_12">
      <g>
       <use xlink:href="#m6ea6dfb4a6" x="60.177756" y="47.108269" style="fill: #222222; stroke: #222222; stroke-width: 0.8"/>
      </g>
     </g>
     <g id="text_13">
      <text style="font-size: 7px; font-family: 'Arial', 'Helvetica', 'DejaVu Sans', sans-serif; text-anchor: end; fill: #222222" x="53.677756" y="49.656365" transform="rotate(-0 53.677756 49.656365)">10</text>
     </g>
    </g>
    <g id="ytick_7">
     <g id="line2d_13">
      <g>
       <use xlink:href="#m6ea6dfb4a6" x="60.177756" y="30.229197" style="fill: #222222; stroke: #222222; stroke-width: 0.8"/>
      </g>
     </g>
     <g id="text_14">
      <text style="font-size: 7px; font-family: 'Arial', 'Helvetica', 'DejaVu Sans', sans-serif; text-anchor: end; fill: #222222" x="53.677756" y="32.777293" transform="rotate(-0 53.677756 32.777293)">12</text>
     </g>
    </g>
    <g id="ytick_8">
     <g id="line2d_14">
      <g>
       <use xlink:href="#m6ea6dfb4a6" x="60.177756" y="13.350125" style="fill: #222222; stroke: #222222; stroke-width: 0.8"/>
      </g>
     </g>
     <g id="text_15">
      <text style="font-size: 7px; font-family: 'Arial', 'Helvetica', 'DejaVu Sans', sans-serif; text-anchor: end; fill: #222222" x="53.677756" y="15.89822" transform="rotate(-0 53.677756 15.89822)">14</text>
     </g>
    </g>
    <g id="text_16">
     <!-- $d$ -->
     <g transform="translate(18.72 55.087793)">
      <text>
       <tspan x="0" y="-0.671875" style="font-size: 12px; font-family: 'cmmi10'">d</tspan>
      </text>
     </g>
     <!-- $(\mathrm{mm})$ -->
     <g transform="translate(7.2 68.412012)">
      <text>
       <tspan x="0" y="-0" style="font-size: 12px; font-family: 'cmr10'">(</tspan>
       <tspan x="4.658203" y="-0" style="font-size: 12px; font-family: 'cmr10'">m</tspan>
       <tspan x="14.654297" y="-0" style="font-size: 12px; font-family: 'cmr10'">m</tspan>
       <tspan x="24.650391" y="-0" style="font-size: 12px; font-family: 'cmr10'">)</tspan>
      </text>
     </g>
    </g>
   </g>
   <g id="line2d_15">
    <path d="M 60.177756 131.503631 
L 67.550388 87.55842 
L 73.751537 114.481807 
L 80.22971 113.802858 
L 85.995718 105.442487 
L 90.945686 115.0172 
L 96.483728 110.163213 
L 102.284844 119.928126 
L 107.957443 110.374379 
L 113.151397 86.958104 
L 119.364115 32.983382 
L 131.624428 35.77718 
L 138.542555 80.770429 
L 143.933753 99.899259 
L 150.01581 111.545245 
L 155.821191 120.287812 
L 161.317381 116.641979 
L 167.121968 107.260119 
L 172.960699 108.023707 
L 178.916811 110.124247 
L 186.920679 74.320043 
L 193.895213 13.119221 
L 206.725458 31.380629 
L 213.633368 80.694039 
L 220.545848 105.49815 
L 226.582408 116.295515 
L 231.995799 119.411596 
L 237.724882 112.59001 
L 244.044729 108.800134 
L 249.941604 111.157076 
L 255.207838 105.071014 
L 261.904586 72.469923 
L 268.650049 22.695084 
L 281.413654 42.929513 
L 286.989138 90.042035 
L 292.284383 108.553425 
L 298.499113 112.422513 
L 304.195 115.30689 
L 309.490137 119.043936 
L 315.162284 115.938282 
L 320.564538 112.112875 
L 326.472617 107.722792 
L 332.198746 77.655962 
L 339.112877 28.023426 
L 352.536661 24.376161 
L 358.739738 70.929792 
L 366.389272 115.199943 
L 372.043781 112.229782 
L 377.446714 116.185001 
L 383.176472 112.547374 
L 388.643231 113.629885 
L 394.617099 108.985035 
L 401.812721 85.718824 
L 408.157356 131.503631 
" clip-path="url(#pbdcb88d4b9)" style="fill: none; stroke-dasharray: 4.625,2; stroke-dashoffset: 0; stroke: #6c6c6c; stroke-width: 1.25"/>
   </g>
   <g id="line2d_16">
    <path d="M 60.177756 121.425792 
L 67.550388 121.253543 
L 73.751537 112.126498 
L 80.22971 121.973997 
L 85.995718 118.062777 
L 90.945686 119.179747 
L 96.483728 104.001588 
L 102.284844 116.262219 
L 107.957443 116.935387 
L 113.151397 110.1193 
L 119.364115 68.71836 
L 131.624428 88.314357 
L 138.542555 110.432475 
L 143.933753 107.108166 
L 150.01581 114.418015 
L 155.821191 117.213991 
L 161.317381 122.686548 
L 167.121968 108.233499 
L 172.960699 100.284057 
L 178.916811 99.764802 
L 186.920679 105.994555 
L 193.895213 71.18063 
L 206.725458 63.875393 
L 213.633368 96.888669 
L 220.545848 109.799302 
L 226.582408 118.317009 
L 231.995799 118.711017 
L 237.724882 110.599804 
L 244.044729 111.01868 
L 249.941604 108.141502 
L 255.207838 112.22922 
L 261.904586 117.893146 
L 268.650049 70.801069 
L 281.413654 75.946493 
L 286.989138 113.211468 
L 292.284383 113.399703 
L 298.499113 106.776347 
L 304.195 107.07203 
L 309.490137 106.950909 
L 315.162284 100.224789 
L 320.564538 103.448111 
L 326.472617 114.368963 
L 332.198746 105.503908 
L 339.112877 57.253693 
L 352.536661 52.534609 
L 358.739738 98.837932 
L 366.389272 100.955452 
L 372.043781 87.563717 
L 377.446714 100.316094 
L 383.176472 113.919911 
L 388.643231 124.102157 
L 394.617099 110.62363 
L 401.812721 105.383113 
L 408.157356 116.505334 
" clip-path="url(#pbdcb88d4b9)" style="fill: none; stroke-dasharray: 4.995,2.16; stroke-dashoffset: 0; stroke: #4c78a8; stroke-width: 1.35"/>
   </g>
   <g id="line2d_17">
    <path d="M 60.177756 131.503631 
L 67.550388 131.503631 
L 73.751537 131.503631 
L 80.22971 131.503631 
L 85.995718 111.431013 
L 90.945686 119.00883 
L 96.483728 117.191429 
L 102.284844 118.946923 
L 107.957443 104.528892 
L 113.151397 78.082334 
L 119.364115 131.503631 
L 131.624428 131.503631 
L 138.542555 79.599441 
L 143.933753 103.256215 
L 150.01581 131.503631 
L 155.821191 131.503631 
L 161.317381 107.165223 
L 167.121968 131.503631 
L 172.960699 131.503631 
L 178.916811 93.565227 
L 186.920679 41.974794 
L 193.895213 117.05257 
L 206.725458 102.366459 
L 213.633368 106.840177 
L 220.545848 107.230771 
L 226.582408 119.400639 
L 231.995799 131.503631 
L 237.724882 131.503631 
L 244.044729 107.625545 
L 249.941604 131.503631 
L 255.207838 131.503631 
L 261.904586 70.124344 
L 268.650049 119.206975 
L 281.413654 131.503631 
L 286.989138 99.80077 
L 292.284383 119.500795 
L 298.499113 119.563525 
L 304.195 114.61466 
L 309.490137 131.503631 
L 315.162284 131.503631 
L 320.564538 107.690381 
L 326.472617 117.897251 
L 332.198746 75.756707 
L 339.112877 131.503631 
L 352.536661 131.503631 
L 358.739738 80.112816 
L 366.389272 119.239719 
L 372.043781 131.503631 
L 377.446714 111.859442 
L 383.176472 131.503631 
L 388.643231 131.503631 
L 394.617099 102.988284 
L 401.812721 119.233561 
L 408.157356 131.503631 
" clip-path="url(#pbdcb88d4b9)" style="fill: none; stroke-dasharray: 4.995,2.16; stroke-dashoffset: 0; stroke: #4daf7c; stroke-width: 1.35"/>
   </g>
   <g id="patch_3">
    <path d="M 60.177756 137.422852 
L 60.177756 7.2 
" style="fill: none; stroke: #222222; stroke-width: 0.8; stroke-linejoin: miter; stroke-linecap: square"/>
   </g>
   <g id="patch_4">
    <path d="M 60.177756 137.422852 
L 408.157356 137.422852 
" style="fill: none; stroke: #222222; stroke-width: 0.8; stroke-linejoin: miter; stroke-linecap: square"/>
   </g>
   <g id="legend_1">
    <g id="patch_5">
     <path d="M 335.023762 32.777246 
L 404.657356 32.777246 
Q 405.657356 32.777246 405.657356 31.777246 
L 405.657356 10.7 
Q 405.657356 9.7 404.657356 9.7 
L 335.023762 9.7 
Q 334.023762 9.7 334.023762 10.7 
L 334.023762 31.777246 
Q 334.023762 32.777246 335.023762 32.777246 
z
" style="fill: #ffffff; opacity: 0.8; stroke: #cccccc; stroke-linejoin: miter"/>
    </g>
    <g id="line2d_18">
     <path d="M 336.023762 13.590137 
L 341.023762 13.590137 
L 346.023762 13.590137 
" style="fill: none; stroke-dasharray: 4.625,2; stroke-dashoffset: 0; stroke: #6c6c6c; stroke-width: 1.25"/>
    </g>
    <g id="text_17">
     <text style="font-size: 5px; font-family: 'Arial', 'Helvetica', 'DejaVu Sans', sans-serif; text-anchor: start" x="350.023762" y="15.340137" transform="rotate(-0 350.023762 15.340137)">Moving-average smooth</text>
    </g>
    <g id="line2d_19">
     <path d="M 336.023762 20.782617 
L 341.023762 20.782617 
L 346.023762 20.782617 
" style="fill: none; stroke-dasharray: 4.995,2.16; stroke-dashoffset: 0; stroke: #4c78a8; stroke-width: 1.35"/>
    </g>
    <g id="text_18">
     <text style="font-size: 5px; font-family: 'Arial', 'Helvetica', 'DejaVu Sans', sans-serif; text-anchor: start" x="350.023762" y="22.532617" transform="rotate(-0 350.023762 22.532617)">B-spline</text>
    </g>
    <g id="line2d_20">
     <path d="M 336.023762 27.975 
L 341.023762 27.975 
L 346.023762 27.975 
" style="fill: none; stroke-dasharray: 4.995,2.16; stroke-dashoffset: 0; stroke: #4daf7c; stroke-width: 1.35"/>
    </g>
    <g id="text_19">
     <text style="font-size: 5px; font-family: 'Arial', 'Helvetica', 'DejaVu Sans', sans-serif; text-anchor: start" x="350.023762" y="29.725" transform="rotate(-0 350.023762 29.725)">Geodesic optimized</text>
    </g>
   </g>
  </g>
 </g>
 <defs>
  <clipPath id="pbdcb88d4b9">
   <rect x="60.177756" y="7.2" width="347.9796" height="130.222852"/>
  </clipPath>
 </defs>
</svg>
