<?xml version="1.0" encoding="utf-8" standalone="no"?>
<!DOCTYPE svg PUBLIC "-//W3C//DTD SVG 1.1//EN"
  "http://www.w3.org/Graphics/SVG/1.1/DTD/svg11.dtd">
<svg xmlns:xlink="http://www.w3.org/1999/xlink" width="420.180072pt" height="169.115129pt" viewBox="0 0 420.180072 169.115129" xmlns="http://www.w3.org/2000/svg" version="1.1">
 <metadata>
  <rdf:RDF xmlns:dc="http://purl.org/dc/elements/1.1/" xmlns:cc="http://creativecommons.org/ns#" xmlns:rdf="http://www.w3.org/1999/02/22-rdf-syntax-ns#">
   <cc:Work>
    <dc:type rdf:resource="http://purl.org/dc/dcmitype/StillImage"/>
    <dc:date>2026-06-29T19:50:51.397996</dc:date>
    <dc:format>image/svg+xml</dc:format>
    <dc:creator>
     <cc:Agent>
      <dc:title>Matplotlib v3.10.8, https://matplotlib.org/</dc:title>
     </cc:Agent>
    </dc:creator>
   </cc:Work>
  </rdf:RDF>
 </metadata>
 <defs>
  <style type="text/css">*{stroke-linejoin: round; stroke-linecap: butt}</style>
 </defs>
 <g id="figure_1">
  <g id="patch_1">
   <path d="M 0 169.115129 
L 420.180072 169.115129 
L 420.180072 0 
L 0 0 
z
" style="fill: #ffffff"/>
  </g>
  <g id="axes_1">
   <g id="patch_2">
    <path d="M 60.104088 136.897941 
L 407.413978 136.897941 
L 407.413978 7.741232 
L 60.104088 7.741232 
z
" style="fill: #ffffff"/>
   </g>
   <g id="matplotlib.axis_1">
    <g id="xtick_1">
     <g id="line2d_1">
      <defs>
       <path id="mf9b6591f44" d="M 0 0 
L 0 3 
" style="stroke: #222222; stroke-width: 0.8"/>
      </defs>
      <g>
       <use xlink:href="#mf9b6591f44" x="60.104088" y="136.897941" style="fill: #222222; stroke: #222222; stroke-width: 0.8"/>
      </g>
     </g>
     <g id="text_1">
      <text style="font-size: 7px; font-family: 'Arial', 'Helvetica', 'DejaVu Sans', sans-serif; text-anchor: middle; fill: #222222" x="60.104088" y="148.716847" transform="rotate(-0 60.104088 148.716847)">0.0</text>
     </g>
    </g>
    <g id="xtick_2">
     <g id="line2d_2">
      <g>
       <use xlink:href="#mf9b6591f44" x="129.566066" y="136.897941" style="fill: #222222; stroke: #222222; stroke-width: 0.8"/>
      </g>
     </g>
     <g id="text_2">
      <text style="font-size: 7px; font-family: 'Arial', 'Helvetica', 'DejaVu Sans', sans-serif; text-anchor: middle; fill: #222222" x="129.566066" y="148.716847" transform="rotate(-0 129.566066 148.716847)">0.2</text>
     </g>
    </g>
    <g id="xtick_3">
     <g id="line2d_3">
      <g>
       <use xlink:href="#mf9b6591f44" x="199.028044" y="136.897941" style="fill: #222222; stroke: #222222; stroke-width: 0.8"/>
      </g>
     </g>
     <g id="text_3">
      <text style="font-size: 7px; font-family: 'Arial', 'Helvetica', 'DejaVu Sans', sans-serif; text-anchor: middle; fill: #222222" x="199.028044" y="148.716847" transform="rotate(-0 199.028044 148.716847)">0.4</text>
     </g>
    </g>
    <g id="xtick_4">
     <g id="line2d_4">
      <g>
       <use xlink:href="#mf9b6591f44" x="268.490022" y="136.897941" style="fill: #222222; stroke: #222222; stroke-width: 0.8"/>
      </g>
     </g>
     <g id="text_4">
      <text style="font-size: 7px; font-family: 'Arial', 'Helvetica', 'DejaVu Sans', sans-serif; text-anchor: middle; fill: #222222" x="268.490022" y="148.716847" transform="rotate(-0 268.490022 148.716847)">0.6</text>
     </g>
    </g>
    <g id="xtick_5">
     <g id="line2d_5">
      <g>
       <use xlink:href="#mf9b6591f44" x="337.952" y="136.897941" style="fill: #222222; stroke: #222222; stroke-width: 0.8"/>
      </g>
     </g>
     <g id="text_5">
      <text style="font-size: 7px; font-family: 'Arial', 'Helvetica', 'DejaVu Sans', sans-serif; text-anchor: middle; fill: #222222" x="337.952" y="148.716847" transform="rotate(-0 337.952 148.716847)">0.8</text>
     </g>
    </g>
    <g id="xtick_6">
     <g id="line2d_6">
      <g>
       <use xlink:href="#mf9b6591f44" x="407.413978" y="136.897941" style="fill: #222222; stroke: #222222; stroke-width: 0.8"/>
      </g>
     </g>
     <g id="text_6">
      <text style="font-size: 7px; font-family: 'Arial', 'Helvetica', 'DejaVu Sans', sans-serif; text-anchor: middle; fill: #222222" x="407.413978" y="148.716847" transform="rotate(-0 407.413978 148.716847)">1.0</text>
     </g>
    </g>
    <g id="text_7">
     <text style="font-size: 8px; font-family: 'Arial', 'Helvetica', 'DejaVu Sans', sans-serif; text-anchor: middle" x="233.759033" y="160.251379" transform="rotate(-0 233.759033 160.251379)">Normalized arc length</text>
    </g>
   </g>
   <g id="matplotlib.axis_2">
    <g id="ytick_1">
     <g id="line2d_7">
      <defs>
       <path id="mca47023aaf" d="M 0 0 
L -3 0 
" style="stroke: #222222; stroke-width: 0.8"/>
      </defs>
      <g>
       <use xlink:href="#mca47023aaf" x="60.104088" y="131.027182" style="fill: #222222; stroke: #222222; stroke-width: 0.8"/>
      </g>
     </g>
     <g id="text_8">
      <text style="font-size: 7px; font-family: 'Arial', 'Helvetica', 'DejaVu Sans', sans-serif; text-anchor: end; fill: #222222" x="53.604088" y="133.686635" transform="rotate(-0 53.604088 133.686635)">0</text>
     </g>
    </g>
    <g id="ytick_2">
     <g id="line2d_8">
      <g>
       <use xlink:href="#mca47023aaf" x="60.104088" y="113.717506" style="fill: #222222; stroke: #222222; stroke-width: 0.8"/>
      </g>
     </g>
     <g id="text_9">
      <text style="font-size: 7px; font-family: 'Arial', 'Helvetica', 'DejaVu Sans', sans-serif; text-anchor: end; fill: #222222" x="53.604088" y="116.376959" transform="rotate(-0 53.604088 116.376959)">2</text>
     </g>
    </g>
    <g id="ytick_3">
     <g id="line2d_9">
      <g>
       <use xlink:href="#mca47023aaf" x="60.104088" y="96.407831" style="fill: #222222; stroke: #222222; stroke-width: 0.8"/>
      </g>
     </g>
     <g id="text_10">
      <text style="font-size: 7px; font-family: 'Arial', 'Helvetica', 'DejaVu Sans', sans-serif; text-anchor: end; fill: #222222" x="53.604088" y="99.067284" transform="rotate(-0 53.604088 99.067284)">4</text>
     </g>
    </g>
    <g id="ytick_4">
     <g id="line2d_10">
      <g>
       <use xlink:href="#mca47023aaf" x="60.104088" y="79.098155" style="fill: #222222; stroke: #222222; stroke-width: 0.8"/>
      </g>
     </g>
     <g id="text_11">
      <text style="font-size: 7px; font-family: 'Arial', 'Helvetica', 'DejaVu Sans', sans-serif; text-anchor: end; fill: #222222" x="53.604088" y="81.757608" transform="rotate(-0 53.604088 81.757608)">6</text>
     </g>
    </g>
    <g id="ytick_5">
     <g id="line2d_11">
      <g>
       <use xlink:href="#mca47023aaf" x="60.104088" y="61.78848" style="fill: #222222; stroke: #222222; stroke-width: 0.8"/>
      </g>
     </g>
     <g id="text_12">
      <text style="font-size: 7px; font-family: 'Arial', 'Helvetica', 'DejaVu Sans', sans-serif; text-anchor: end; fill: #222222" x="53.604088" y="64.447933" transform="rotate(-0 53.604088 64.447933)">8</text>
     </g>
    </g>
    <g id="ytick_6">
     <g id="line2d_12">
      <g>
       <use xlink:href="#mca47023aaf" x="60.104088" y="44.478804" style="fill: #222222; stroke: #222222; stroke-width: 0.8"/>
      </g>
     </g>
     <g id="text_13">
      <text style="font-size: 7px; font-family: 'Arial', 'Helvetica', 'DejaVu Sans', sans-serif; text-anchor: end; fill: #222222" x="53.604088" y="47.138257" transform="rotate(-0 53.604088 47.138257)">10</text>
     </g>
    </g>
    <g id="ytick_7">
     <g id="line2d_13">
      <g>
       <use xlink:href="#mca47023aaf" x="60.104088" y="27.169129" style="fill: #222222; stroke: #222222; stroke-width: 0.8"/>
      </g>
     </g>
     <g id="text_14">
      <text style="font-size: 7px; font-family: 'Arial', 'Helvetica', 'DejaVu Sans', sans-serif; text-anchor: end; fill: #222222" x="53.604088" y="29.828582" transform="rotate(-0 53.604088 29.828582)">12</text>
     </g>
    </g>
    <g id="ytick_8">
     <g id="line2d_14">
      <g>
       <use xlink:href="#mca47023aaf" x="60.104088" y="9.859453" style="fill: #222222; stroke: #222222; stroke-width: 0.8"/>
      </g>
     </g>
     <g id="text_15">
      <text style="font-size: 7px; font-family: 'Arial', 'Helvetica', 'DejaVu Sans', sans-serif; text-anchor: end; fill: #222222" x="53.604088" y="12.518906" transform="rotate(-0 53.604088 12.518906)">14</text>
     </g>
    </g>
    <g id="text_16">
     <!-- $d$ -->
     <g transform="translate(18.72 55.882212)">
      <text>
       <tspan x="0" y="-0.671875" style="font-size: 12px; font-family: 'cmmi10'">d</tspan>
      </text>
     </g>
     <!-- $(\mathrm{mm})$ -->
     <g transform="translate(7.2 69.319587)">
      <text>
       <tspan x="0" y="-0" style="font-size: 12px; font-family: 'cmr10'">(</tspan>
       <tspan x="4.658203" y="-0" style="font-size: 12px; font-family: 'cmr10'">m</tspan>
       <tspan x="14.654297" y="-0" style="font-size: 12px; font-family: 'cmr10'">m</tspan>
       <tspan x="24.650391" y="-0" style="font-size: 12px; font-family: 'cmr10'">)</tspan>
      </text>
     </g>
    </g>
   </g>
   <g id="line2d_15">
    <path d="M 60.104088 131.027182 
L 65.522577 93.952492 
L 70.187967 119.603139 
L 75.462651 118.578773 
L 79.519286 114.170504 
L 84.530951 123.07398 
L 89.412155 121.783976 
L 93.302293 117.805681 
L 98.3292 110.453637 
L 102.407499 87.163442 
L 106.762608 41.621855 
L 118.055981 21.065412 
L 123.601077 74.469926 
L 128.790978 104.583931 
L 133.725426 117.283391 
L 138.635922 112.670803 
L 143.510833 108.243969 
L 148.510184 122.699273 
L 153.413862 118.009443 
L 158.44386 111.405933 
L 164.187997 73.07115 
L 169.531999 24.731879 
L 180.545837 17.571786 
L 186.422196 76.506392 
L 192.945704 106.677917 
L 198.088379 118.431284 
L 203.080203 113.308825 
L 207.799408 117.314978 
L 212.63083 104.028762 
L 217.471243 107.316024 
L 222.558727 105.707835 
L 228.351737 78.947492 
L 234.232857 22.431891 
L 244.886263 25.754585 
L 250.767469 86.00906 
L 255.335061 107.865731 
L 260.315128 113.679205 
L 265.181963 112.282684 
L 269.912875 108.011139 
L 274.700241 110.541914 
L 280.677722 114.588312 
L 285.992255 106.349769 
L 291.39336 73.767284 
L 297.2931 23.391949 
L 307.699992 25.209915 
L 313.215606 78.205974 
L 318.94028 109.568461 
L 324.044305 113.456954 
L 328.933512 111.649075 
L 334.760838 112.29019 
L 339.565371 109.74049 
L 344.509714 97.018706 
L 349.706533 65.697122 
L 354.104313 13.611991 
L 367.334059 46.716794 
L 371.43709 75.077092 
L 375.787013 108.247288 
L 380.855029 114.132629 
L 384.79121 109.184626 
L 389.728251 104.838394 
L 395.297014 111.465366 
L 401.459 84.379343 
L 407.413978 131.027182 
" clip-path="url(#p4dba0f040a)" style="fill: none; stroke-dasharray: 4.625,2; stroke-dashoffset: 0; stroke: #6c6c6c; stroke-width: 1.25"/>
   </g>
   <g id="line2d_16">
    <path d="M 60.104088 114.302891 
L 65.522577 111.288988 
L 70.187967 116.35583 
L 75.462651 122.957731 
L 79.519286 120.402618 
L 84.530951 121.828175 
L 89.412155 111.177928 
L 93.302293 104.534411 
L 98.3292 116.925663 
L 102.407499 112.937528 
L 106.762608 74.503905 
L 118.055981 73.004678 
L 123.601077 117.300872 
L 128.790978 110.426151 
L 133.725426 106.777949 
L 138.635922 112.981469 
L 143.510833 118.195546 
L 148.510184 118.454391 
L 153.413862 107.453734 
L 158.44386 101.925919 
L 164.187997 108.093089 
L 169.531999 82.253364 
L 180.545837 56.125196 
L 186.422196 102.444608 
L 192.945704 109.909364 
L 198.088379 106.681058 
L 203.080203 108.488645 
L 207.799408 110.126694 
L 212.63083 92.590417 
L 217.471243 97.414333 
L 222.558727 108.275381 
L 228.351737 110.341587 
L 234.232857 64.2423 
L 244.886263 59.240383 
L 250.767469 116.477428 
L 255.335061 110.054589 
L 260.315128 106.88892 
L 265.181963 109.268737 
L 269.912875 116.37401 
L 274.700241 124.984946 
L 280.677722 112.788997 
L 285.992255 110.100939 
L 291.39336 105.803785 
L 297.2931 85.071658 
L 307.699992 69.012278 
L 313.215606 102.091805 
L 318.94028 116.117072 
L 324.044305 114.0268 
L 328.933512 115.93419 
L 334.760838 111.238846 
L 339.565371 109.045613 
L 344.509714 116.062633 
L 349.706533 117.256218 
L 354.104313 70.047802 
L 367.334059 85.509809 
L 371.43709 99.895616 
L 375.787013 113.403548 
L 380.855029 106.086139 
L 384.79121 110.985853 
L 389.728251 112.193187 
L 395.297014 117.991884 
L 401.459 105.932062 
L 407.413978 118.339952 
" clip-path="url(#p4dba0f040a)" style="fill: none; stroke-dasharray: 4.995,2.16; stroke-dashoffset: 0; stroke: #4c78a8; stroke-width: 1.35"/>
   </g>
   <g id="line2d_17">
    <path d="M 60.104088 131.027182 
L 65.522577 115.022989 
L 70.187967 109.383107 
L 75.462651 131.027182 
L 79.519286 101.035726 
L 84.530951 131.027182 
L 89.412155 131.027182 
L 93.302293 131.027182 
L 98.3292 131.027182 
L 102.407499 117.61445 
L 106.762608 117.545289 
L 118.055981 131.027182 
L 123.601077 67.105405 
L 128.790978 87.69727 
L 133.725426 114.828668 
L 138.635922 131.027182 
L 143.510833 112.577282 
L 148.510184 131.027182 
L 153.413862 131.027182 
L 158.44386 100.71889 
L 164.187997 109.883565 
L 169.531999 117.4765 
L 180.545837 131.027182 
L 186.422196 65.194384 
L 192.945704 97.556649 
L 198.088379 110.933895 
L 203.080203 131.027182 
L 207.799408 118.108518 
L 212.63083 118.177679 
L 217.471243 131.027182 
L 222.558727 114.280777 
L 228.351737 77.83002 
L 234.232857 117.815062 
L 244.886263 131.027182 
L 250.767469 87.731906 
L 255.335061 102.001217 
L 260.315128 118.082458 
L 265.181963 131.027182 
L 269.912875 131.027182 
L 274.700241 118.048001 
L 280.677722 131.027182 
L 285.992255 109.786027 
L 291.39336 70.603304 
L 297.2931 131.027182 
L 307.699992 131.027182 
L 313.215606 90.179635 
L 318.94028 90.727155 
L 324.044305 131.027182 
L 328.933512 112.436129 
L 334.760838 117.917542 
L 339.565371 114.848384 
L 344.509714 95.101968 
L 349.706533 88.383804 
L 354.104313 117.745099 
L 367.334059 131.027182 
L 371.43709 98.577042 
L 375.787013 101.541223 
L 380.855029 131.027182 
L 384.79121 131.027182 
L 389.728251 109.823986 
L 395.297014 131.027182 
L 401.459 111.400645 
L 407.413978 131.027182 
" clip-path="url(#p4dba0f040a)" style="fill: none; stroke-dasharray: 4.995,2.16; stroke-dashoffset: 0; stroke: #4daf7c; stroke-width: 1.35"/>
   </g>
   <g id="patch_3">
    <path d="M 60.104088 136.897941 
L 60.104088 7.741232 
" style="fill: none; stroke: #222222; stroke-width: 0.8; stroke-linejoin: miter; stroke-linecap: square"/>
   </g>
   <g id="patch_4">
    <path d="M 60.104088 136.897941 
L 407.413978 136.897941 
" style="fill: none; stroke: #222222; stroke-width: 0.8; stroke-linejoin: miter; stroke-linecap: square"/>
   </g>
   <g id="legend_1">
    <g id="patch_5">
     <path d="M 327.263197 33.758419 
L 403.913978 33.758419 
Q 404.913978 33.758419 404.913978 32.758419 
L 404.913978 11.241232 
Q 404.913978 10.241232 403.913978 10.241232 
L 327.263197 10.241232 
Q 326.263197 10.241232 326.263197 11.241232 
L 326.263197 32.758419 
Q 326.263197 33.758419 327.263197 33.758419 
z
" style="fill: #ffffff; opacity: 0.8; stroke: #cccccc; stroke-linejoin: miter"/>
    </g>
    <g id="line2d_18">
     <path d="M 328.263197 14.290451 
L 333.263197 14.290451 
L 338.263197 14.290451 
" style="fill: none; stroke-dasharray: 4.625,2; stroke-dashoffset: 0; stroke: #6c6c6c; stroke-width: 1.25"/>
    </g>
    <g id="text_17">
     <text style="font-size: 5px; font-family: 'Arial', 'Helvetica', 'DejaVu Sans', sans-serif; text-anchor: start" x="342.263197" y="16.040451" transform="rotate(-0 342.263197 16.040451)">Moving-average smooth</text>
    </g>
    <g id="line2d_19">
     <path d="M 328.263197 21.629513 
L 333.263197 21.629513 
L 338.263197 21.629513 
" style="fill: none; stroke-dasharray: 4.995,2.16; stroke-dashoffset: 0; stroke: #4c78a8; stroke-width: 1.35"/>
    </g>
    <g id="text_18">
     <text style="font-size: 5px; font-family: 'Arial', 'Helvetica', 'DejaVu Sans', sans-serif; text-anchor: start" x="342.263197" y="23.379513" transform="rotate(-0 342.263197 23.379513)">B-spline</text>
    </g>
    <g id="line2d_20">
     <path d="M 328.263197 28.968576 
L 333.263197 28.968576 
L 338.263197 28.968576 
" style="fill: none; stroke-dasharray: 4.995,2.16; stroke-dashoffset: 0; stroke: #4daf7c; stroke-width: 1.35"/>
    </g>
    <g id="text_19">
     <text style="font-size: 5px; font-family: 'Arial', 'Helvetica', 'DejaVu Sans', sans-serif; text-anchor: start" x="342.263197" y="30.718576" transform="rotate(-0 342.263197 30.718576)">Geodesic optimized</text>
    </g>
   </g>
  </g>
 </g>
 <defs>
  <clipPath id="p4dba0f040a">
   <rect x="60.104088" y="7.741232" width="347.30989" height="129.156709"/>
  </clipPath>
 </defs>
</svg>
