<?xml version="1.0" encoding="utf-8" standalone="no"?>
<!DOCTYPE svg PUBLIC "-//W3C//DTD SVG 1.1//EN"
  "http://www.w3.org/Graphics/SVG/1.1/DTD/svg11.dtd">
<svg xmlns:xlink="http://www.w3.org/1999/xlink" width="420.222356pt" height="169.200156pt" viewBox="0 0 420.222356 169.200156" xmlns="http://www.w3.org/2000/svg" version="1.1">
 <metadata>
  <rdf:RDF xmlns:dc="http://purl.org/dc/elements/1.1/" xmlns:cc="http://creativecommons.org/ns#" xmlns:rdf="http://www.w3.org/1999/02/22-rdf-syntax-ns#">
   <cc:Work>
    <dc:type rdf:resource="http://purl.org/dc/dcmitype/StillImage"/>
    <dc:date>2026-06-23T12:37:44.015435</dc:date>
    <dc:format>image/svg+xml</dc:format>
    <dc:creator>
     <cc:Agent>
      <dc:title>Matplotlib v3.11.0, https://matplotlib.org/</dc:title>
     </cc:Agent>
    </dc:creator>
   </cc:Work>
  </rdf:RDF>
 </metadata>
 <defs>
  <style type="text/css">*{stroke-linejoin: round; stroke-linecap: butt}</style>
 </defs>
 <g id="figure_1">
  <g id="patch_1">
   <path d="M 0 169.200156 
L 420.222356 169.200156 
L 420.222356 0 
L 0 0 
z
" style="fill: #ffffff"/>
  </g>
  <g id="axes_1">
   <g id="patch_2">
    <path d="M 60.177756 137.422852 
L 408.157356 137.422852 
L 408.157356 7.2 
L 60.177756 7.2 
z
" style="fill: #ffffff"/>
   </g>
   <g id="matplotlib.axis_1">
    <g id="xtick_1">
     <g id="line2d_1">
      <defs>
       <path id="md0ecfa8062" d="M 0 0 
L 0 3 
" style="stroke: #222222; stroke-width: 0.8"/>
      </defs>
      <g>
       <use xlink:href="#md0ecfa8062" x="60.177756" y="137.422852" style="fill: #222222; stroke: #222222; stroke-width: 0.8"/>
      </g>
     </g>
     <g id="text_1">
      <text style="font-size: 7px; font-family: 'Arial', 'Helvetica', 'DejaVu Sans', sans-serif; text-anchor: middle; fill: #222222" x="60.177756" y="149.019043" transform="rotate(-0 60.177756 149.019043)">0.0</text>
     </g>
    </g>
    <g id="xtick_2">
     <g id="line2d_2">
      <g>
       <use xlink:href="#md0ecfa8062" x="129.773676" y="137.422852" style="fill: #222222; stroke: #222222; stroke-width: 0.8"/>
      </g>
     </g>
     <g id="text_2">
      <text style="font-size: 7px; font-family: 'Arial', 'Helvetica', 'DejaVu Sans', sans-serif; text-anchor: middle; fill: #222222" x="129.773676" y="149.019043" transform="rotate(-0 129.773676 149.019043)">0.2</text>
     </g>
    </g>
    <g id="xtick_3">
     <g id="line2d_3">
      <g>
       <use xlink:href="#md0ecfa8062" x="199.369596" y="137.422852" style="fill: #222222; stroke: #222222; stroke-width: 0.8"/>
      </g>
     </g>
     <g id="text_3">
      <text style="font-size: 7px; font-family: 'Arial', 'Helvetica', 'DejaVu Sans', sans-serif; text-anchor: middle; fill: #222222" x="199.369596" y="149.019043" transform="rotate(-0 199.369596 149.019043)">0.4</text>
     </g>
    </g>
    <g id="xtick_4">
     <g id="line2d_4">
      <g>
       <use xlink:href="#md0ecfa8062" x="268.965516" y="137.422852" style="fill: #222222; stroke: #222222; stroke-width: 0.8"/>
      </g>
     </g>
     <g id="text_4">
      <text style="font-size: 7px; font-family: 'Arial', 'Helvetica', 'DejaVu Sans', sans-serif; text-anchor: middle; fill: #222222" x="268.965516" y="149.019043" transform="rotate(-0 268.965516 149.019043)">0.6</text>
     </g>
    </g>
    <g id="xtick_5">
     <g id="line2d_5">
      <g>
       <use xlink:href="#md0ecfa8062" x="338.561436" y="137.422852" style="fill: #222222; stroke: #222222; stroke-width: 0.8"/>
      </g>
     </g>
     <g id="text_5">
      <text style="font-size: 7px; font-family: 'Arial', 'Helvetica', 'DejaVu Sans', sans-serif; text-anchor: middle; fill: #222222" x="338.561436" y="149.019043" transform="rotate(-0 338.561436 149.019043)">0.8</text>
     </g>
    </g>
    <g id="xtick_6">
     <g id="line2d_6">
      <g>
       <use xlink:href="#md0ecfa8062" x="408.157356" y="137.422852" style="fill: #222222; stroke: #222222; stroke-width: 0.8"/>
      </g>
     </g>
     <g id="text_6">
      <text style="font-size: 7px; font-family: 'Arial', 'Helvetica', 'DejaVu Sans', sans-serif; text-anchor: middle; fill: #222222" x="408.157356" y="149.019043" transform="rotate(-0 408.157356 149.019043)">1.0</text>
     </g>
    </g>
    <g id="text_7">
     <text style="font-size: 8px; font-family: 'Arial', 'Helvetica', 'DejaVu Sans', sans-serif; text-anchor: middle" x="234.167556" y="160.316406" transform="rotate(-0 234.167556 160.316406)">Normalized arc length</text>
    </g>
   </g>
   <g id="matplotlib.axis_2">
    <g id="ytick_1">
     <g id="line2d_7">
      <defs>
       <path id="mf4e8605324" d="M 0 0 
L -3 0 
" style="stroke: #222222; stroke-width: 0.8"/>
      </defs>
      <g>
       <use xlink:href="#mf4e8605324" x="60.177756" y="131.503631" style="fill: #222222; stroke: #222222; stroke-width: 0.8"/>
      </g>
     </g>
     <g id="text_8">
      <text style="font-size: 7px; font-family: 'Arial', 'Helvetica', 'DejaVu Sans', sans-serif; text-anchor: end; fill: #222222" x="53.677756" y="134.051727" transform="rotate(-0 53.677756 134.051727)">0</text>
     </g>
    </g>
    <g id="ytick_2">
     <g id="line2d_8">
      <g>
       <use xlink:href="#mf4e8605324" x="60.177756" y="114.534931" style="fill: #222222; stroke: #222222; stroke-width: 0.8"/>
      </g>
     </g>
     <g id="text_9">
      <text style="font-size: 7px; font-family: 'Arial', 'Helvetica', 'DejaVu Sans', sans-serif; text-anchor: end; fill: #222222" x="53.677756" y="117.083026" transform="rotate(-0 53.677756 117.083026)">2</text>
     </g>
    </g>
    <g id="ytick_3">
     <g id="line2d_9">
      <g>
       <use xlink:href="#mf4e8605324" x="60.177756" y="97.56623" style="fill: #222222; stroke: #222222; stroke-width: 0.8"/>
      </g>
     </g>
     <g id="text_10">
      <text style="font-size: 7px; font-family: 'Arial', 'Helvetica', 'DejaVu Sans', sans-serif; text-anchor: end; fill: #222222" x="53.677756" y="100.114326" transform="rotate(-0 53.677756 100.114326)">4</text>
     </g>
    </g>
    <g id="ytick_4">
     <g id="line2d_10">
      <g>
       <use xlink:href="#mf4e8605324" x="60.177756" y="80.59753" style="fill: #222222; stroke: #222222; stroke-width: 0.8"/>
      </g>
     </g>
     <g id="text_11">
      <text style="font-size: 7px; font-family: 'Arial', 'Helvetica', 'DejaVu Sans', sans-serif; text-anchor: end; fill: #222222" x="53.677756" y="83.145626" transform="rotate(-0 53.677756 83.145626)">6</text>
     </g>
    </g>
    <g id="ytick_5">
     <g id="line2d_11">
      <g>
       <use xlink:href="#mf4e8605324" x="60.177756" y="63.62883" style="fill: #222222; stroke: #222222; stroke-width: 0.8"/>
      </g>
     </g>
     <g id="text_12">
      <text style="font-size: 7px; font-family: 'Arial', 'Helvetica', 'DejaVu Sans', sans-serif; text-anchor: end; fill: #222222" x="53.677756" y="66.176926" transform="rotate(-0 53.677756 66.176926)">8</text>
     </g>
    </g>
    <g id="ytick_6">
     <g id="line2d_12">
      <g>
       <use xlink:href="#mf4e8605324" x="60.177756" y="46.66013" style="fill: #222222; stroke: #222222; stroke-width: 0.8"/>
      </g>
     </g>
     <g id="text_13">
      <text style="font-size: 7px; font-family: 'Arial', 'Helvetica', 'DejaVu Sans', sans-serif; text-anchor: end; fill: #222222" x="53.677756" y="49.208225" transform="rotate(-0 53.677756 49.208225)">10</text>
     </g>
    </g>
    <g id="ytick_7">
     <g id="line2d_13">
      <g>
       <use xlink:href="#mf4e8605324" x="60.177756" y="29.691429" style="fill: #222222; stroke: #222222; stroke-width: 0.8"/>
      </g>
     </g>
     <g id="text_14">
      <text style="font-size: 7px; font-family: 'Arial', 'Helvetica', 'DejaVu Sans', sans-serif; text-anchor: end; fill: #222222" x="53.677756" y="32.239525" transform="rotate(-0 53.677756 32.239525)">12</text>
     </g>
    </g>
    <g id="ytick_8">
     <g id="line2d_14">
      <g>
       <use xlink:href="#mf4e8605324" x="60.177756" y="12.722729" style="fill: #222222; stroke: #222222; stroke-width: 0.8"/>
      </g>
     </g>
     <g id="text_15">
      <text style="font-size: 7px; font-family: 'Arial', 'Helvetica', 'DejaVu Sans', sans-serif; text-anchor: end; fill: #222222" x="53.677756" y="15.270825" transform="rotate(-0 53.677756 15.270825)">14</text>
     </g>
    </g>
    <g id="text_16">
     <!-- $d$ -->
     <g transform="translate(18.72 55.087793)">
      <text>
       <tspan x="0" y="-0.671875" style="font-size: 12px; font-family: 'cmmi10'">d</tspan>
      </text>
     </g>
     <!-- $(\mathrm{mm})$ -->
     <g transform="translate(7.2 68.412012)">
      <text>
       <tspan x="0" y="-0" style="font-size: 12px; font-family: 'cmr10'">(</tspan>
       <tspan x="4.658203" y="-0" style="font-size: 12px; font-family: 'cmr10'">m</tspan>
       <tspan x="14.654297" y="-0" style="font-size: 12px; font-family: 'cmr10'">m</tspan>
       <tspan x="24.650391" y="-0" style="font-size: 12px; font-family: 'cmr10'">)</tspan>
      </text>
     </g>
    </g>
   </g>
   <g id="line2d_15">
    <path d="M 60.177756 131.503631 
L 66.395267 90.570619 
L 72.144532 114.061042 
L 77.453866 107.372545 
L 82.277701 111.740252 
L 86.995179 111.714951 
L 91.831591 120.150044 
L 96.692625 112.410774 
L 101.795417 84.139163 
L 106.355073 39.822528 
L 118.218899 27.240313 
L 122.417983 70.796575 
L 127.764376 101.758087 
L 132.561943 116.713825 
L 137.334952 115.638544 
L 142.912979 111.986568 
L 147.647698 110.422635 
L 152.600393 118.195329 
L 157.620071 107.585152 
L 163.037969 84.511138 
L 169.188609 21.110493 
L 179.955772 25.276449 
L 186.085037 79.013845 
L 191.416908 104.859089 
L 197.494346 113.652795 
L 202.489897 112.781313 
L 208.06578 108.868346 
L 212.637011 104.112825 
L 217.647627 112.201466 
L 222.618205 106.796594 
L 227.936133 81.789171 
L 233.688631 30.439348 
L 244.200274 29.632933 
L 249.692718 78.507488 
L 254.574928 103.436024 
L 259.364994 114.244764 
L 265.050865 110.009179 
L 269.767676 116.538205 
L 274.495094 124.31126 
L 279.176103 114.364765 
L 284.17068 105.15018 
L 289.234089 77.279969 
L 295.066187 35.795364 
L 306.963529 13.119221 
L 312.569749 77.802093 
L 317.966385 114.406894 
L 323.276155 111.239372 
L 328.027517 113.593588 
L 331.825174 120.774745 
L 336.571264 122.160574 
L 341.411512 114.632454 
L 346.296388 102.754097 
L 350.515081 85.739268 
L 356.360838 40.865652 
L 364.151748 55.657014 
L 369.904117 81.04397 
L 373.938427 93.33557 
L 378.246654 118.971459 
L 383.265848 121.027459 
L 387.294502 106.257757 
L 392.538644 122.231498 
L 397.460242 112.319765 
L 401.55406 97.01972 
L 408.157356 131.503631 
" clip-path="url(#p73f27e78f3)" style="fill: none; stroke-dasharray: 4.625,2; stroke-dashoffset: 0; stroke: #6c6c6c; stroke-width: 1.25"/>
   </g>
   <g id="line2d_16">
    <path d="M 60.177756 114.136892 
L 66.395267 111.960767 
L 72.144532 110.719097 
L 77.453866 123.046638 
L 82.277701 126.325813 
L 86.995179 111.336843 
L 91.831591 108.569822 
L 96.692625 111.711808 
L 101.795417 117.032423 
L 106.355073 80.190719 
L 118.218899 73.654768 
L 122.417983 113.126014 
L 127.764376 115.395545 
L 132.561943 106.757794 
L 137.334952 110.415238 
L 142.912979 122.459237 
L 147.647698 118.592008 
L 152.600393 114.278526 
L 157.620071 110.371569 
L 163.037969 114.519501 
L 169.188609 84.842282 
L 179.955772 77.322012 
L 186.085037 117.497786 
L 191.416908 117.882906 
L 197.494346 114.722601 
L 202.489897 115.185004 
L 208.06578 113.78972 
L 212.637011 99.536764 
L 217.647627 109.423595 
L 222.618205 119.615531 
L 227.936133 105.739389 
L 233.688631 57.823654 
L 244.200274 81.949157 
L 249.692718 110.40412 
L 254.574928 104.449683 
L 259.364994 99.987401 
L 265.050865 100.259081 
L 269.767676 107.863654 
L 274.495094 114.186173 
L 279.176103 114.037705 
L 284.17068 111.422176 
L 289.234089 100.457203 
L 295.066187 73.147125 
L 306.963529 80.264703 
L 312.569749 117.417857 
L 317.966385 106.200252 
L 323.276155 104.23427 
L 328.027517 114.01848 
L 331.825174 110.530169 
L 336.571264 106.46178 
L 341.411512 114.047272 
L 346.296388 114.390256 
L 350.515081 99.849623 
L 356.360838 62.022378 
L 364.151748 93.850366 
L 369.904117 100.597896 
L 373.938427 93.38233 
L 378.246654 100.003247 
L 383.265848 107.328251 
L 387.294502 108.656563 
L 392.538644 115.300381 
L 397.460242 110.397401 
L 401.55406 116.716882 
L 408.157356 117.174605 
" clip-path="url(#p73f27e78f3)" style="fill: none; stroke-dasharray: 4.995,2.16; stroke-dashoffset: 0; stroke: #4c78a8; stroke-width: 1.35"/>
   </g>
   <g id="line2d_17">
    <path d="M 60.177756 131.503631 
L 66.395267 110.774882 
L 72.144532 115.523306 
L 77.453866 118.848262 
L 82.277701 131.503631 
L 86.995179 105.610709 
L 91.831591 118.8822 
L 96.692625 113.604501 
L 101.795417 79.802477 
L 106.355073 118.678403 
L 118.218899 118.878185 
L 122.417983 103.421623 
L 127.764376 131.503631 
L 132.561943 131.503631 
L 137.334952 131.503631 
L 142.912979 113.975307 
L 147.647698 131.503631 
L 152.600393 131.503631 
L 157.620071 112.200586 
L 163.037969 72.424827 
L 169.188609 131.503631 
L 179.955772 131.503631 
L 186.085037 87.454171 
L 191.416908 105.287211 
L 197.494346 112.325094 
L 202.489897 131.503631 
L 208.06578 119.238905 
L 212.637011 131.503631 
L 217.647627 115.650555 
L 222.618205 103.858431 
L 227.936133 84.999351 
L 233.688631 131.503631 
L 244.200274 131.503631 
L 249.692718 100.714903 
L 254.574928 113.92682 
L 259.364994 113.969039 
L 265.050865 103.202044 
L 269.767676 119.103339 
L 274.495094 131.503631 
L 279.176103 131.503631 
L 284.17068 131.503631 
L 289.234089 131.503631 
L 295.066187 111.703254 
L 306.963529 131.503631 
L 312.569749 61.10918 
L 317.966385 86.42863 
L 323.276155 118.814398 
L 328.027517 131.503631 
L 331.825174 131.503631 
L 336.571264 131.503631 
L 341.411512 103.202498 
L 346.296388 77.547328 
L 350.515081 85.509542 
L 356.360838 131.503631 
L 364.151748 131.503631 
L 369.904117 111.24954 
L 373.938427 131.503631 
L 378.246654 131.503631 
L 383.265848 118.457655 
L 387.294502 131.503631 
L 392.538644 108.706297 
L 397.460242 114.974985 
L 401.55406 131.503631 
L 408.157356 131.503631 
" clip-path="url(#p73f27e78f3)" style="fill: none; stroke-dasharray: 4.995,2.16; stroke-dashoffset: 0; stroke: #4daf7c; stroke-width: 1.35"/>
   </g>
   <g id="patch_3">
    <path d="M 60.177756 137.422852 
L 60.177756 7.2 
" style="fill: none; stroke: #222222; stroke-width: 0.8; stroke-linejoin: miter; stroke-linecap: square"/>
   </g>
   <g id="patch_4">
    <path d="M 60.177756 137.422852 
L 408.157356 137.422852 
" style="fill: none; stroke: #222222; stroke-width: 0.8; stroke-linejoin: miter; stroke-linecap: square"/>
   </g>
   <g id="legend_1">
    <g id="patch_5">
     <path d="M 335.023762 32.777246 
L 404.657356 32.777246 
Q 405.657356 32.777246 405.657356 31.777246 
L 405.657356 10.7 
Q 405.657356 9.7 404.657356 9.7 
L 335.023762 9.7 
Q 334.023762 9.7 334.023762 10.7 
L 334.023762 31.777246 
Q 334.023762 32.777246 335.023762 32.777246 
z
" style="fill: #ffffff; opacity: 0.8; stroke: #cccccc; stroke-linejoin: miter"/>
    </g>
    <g id="line2d_18">
     <path d="M 336.023762 13.590137 
L 341.023762 13.590137 
L 346.023762 13.590137 
" style="fill: none; stroke-dasharray: 4.625,2; stroke-dashoffset: 0; stroke: #6c6c6c; stroke-width: 1.25"/>
    </g>
    <g id="text_17">
     <text style="font-size: 5px; font-family: 'Arial', 'Helvetica', 'DejaVu Sans', sans-serif; text-anchor: start" x="350.023762" y="15.340137" transform="rotate(-0 350.023762 15.340137)">Moving-average smooth</text>
    </g>
    <g id="line2d_19">
     <path d="M 336.023762 20.782617 
L 341.023762 20.782617 
L 346.023762 20.782617 
" style="fill: none; stroke-dasharray: 4.995,2.16; stroke-dashoffset: 0; stroke: #4c78a8; stroke-width: 1.35"/>
    </g>
    <g id="text_18">
     <text style="font-size: 5px; font-family: 'Arial', 'Helvetica', 'DejaVu Sans', sans-serif; text-anchor: start" x="350.023762" y="22.532617" transform="rotate(-0 350.023762 22.532617)">B-spline</text>
    </g>
    <g id="line2d_20">
     <path d="M 336.023762 27.975 
L 341.023762 27.975 
L 346.023762 27.975 
" style="fill: none; stroke-dasharray: 4.995,2.16; stroke-dashoffset: 0; stroke: #4daf7c; stroke-width: 1.35"/>
    </g>
    <g id="text_19">
     <text style="font-size: 5px; font-family: 'Arial', 'Helvetica', 'DejaVu Sans', sans-serif; text-anchor: start" x="350.023762" y="29.725" transform="rotate(-0 350.023762 29.725)">Geodesic optimized</text>
    </g>
   </g>
  </g>
 </g>
 <defs>
  <clipPath id="p73f27e78f3">
   <rect x="60.177756" y="7.2" width="347.9796" height="130.222852"/>
  </clipPath>
 </defs>
</svg>
