<?xml version="1.0" encoding="utf-8" standalone="no"?>
<!DOCTYPE svg PUBLIC "-//W3C//DTD SVG 1.1//EN"
  "http://www.w3.org/Graphics/SVG/1.1/DTD/svg11.dtd">
<svg xmlns:xlink="http://www.w3.org/1999/xlink" width="461.191953pt" height="198.341469pt" viewBox="0 0 461.191953 198.341469" xmlns="http://www.w3.org/2000/svg" version="1.1">
 <metadata>
  <rdf:RDF xmlns:dc="http://purl.org/dc/elements/1.1/" xmlns:cc="http://creativecommons.org/ns#" xmlns:rdf="http://www.w3.org/1999/02/22-rdf-syntax-ns#">
   <cc:Work>
    <dc:type rdf:resource="http://purl.org/dc/dcmitype/StillImage"/>
    <dc:date>2026-07-10T18:12:59.336129</dc:date>
    <dc:format>image/svg+xml</dc:format>
    <dc:creator>
     <cc:Agent>
      <dc:title>Matplotlib v3.10.8, https://matplotlib.org/</dc:title>
     </cc:Agent>
    </dc:creator>
   </cc:Work>
  </rdf:RDF>
 </metadata>
 <defs>
  <style type="text/css">*{stroke-linejoin: round; stroke-linecap: butt}</style>
 </defs>
 <g id="figure_1">
  <g id="patch_1">
   <path d="M 0 198.341469 
L 461.191953 198.341469 
L 461.191953 0 
L 0 0 
z
" style="fill: #ffffff"/>
  </g>
  <g id="axes_1">
   <g id="patch_2">
    <path d="M 52.231953 167.976 
L 453.991953 167.976 
L 453.991953 7.2 
L 52.231953 7.2 
z
" style="fill: #ffffff"/>
   </g>
   <g id="matplotlib.axis_1">
    <g id="xtick_1">
     <g id="line2d_1">
      <defs>
       <path id="m8af6a7794e" d="M 0 0 
L 0 2.6 
" style="stroke: #222222; stroke-width: 0.65"/>
      </defs>
      <g>
       <use xlink:href="#m8af6a7794e" x="70.493771" y="167.976" style="fill: #222222; stroke: #222222; stroke-width: 0.65"/>
      </g>
     </g>
     <g id="text_1">
      <text style="font-size: 6.5px; font-family: 'Arial', 'Helvetica', 'DejaVu Sans', sans-serif; text-anchor: middle; fill: #222222" x="70.493771" y="179.014984" transform="rotate(-0 70.493771 179.014984)">0</text>
     </g>
    </g>
    <g id="xtick_2">
     <g id="line2d_2">
      <g>
       <use xlink:href="#m8af6a7794e" x="137.694838" y="167.976" style="fill: #222222; stroke: #222222; stroke-width: 0.65"/>
      </g>
     </g>
     <g id="text_2">
      <text style="font-size: 6.5px; font-family: 'Arial', 'Helvetica', 'DejaVu Sans', sans-serif; text-anchor: middle; fill: #222222" x="137.694838" y="179.014984" transform="rotate(-0 137.694838 179.014984)">5</text>
     </g>
    </g>
    <g id="xtick_3">
     <g id="line2d_3">
      <g>
       <use xlink:href="#m8af6a7794e" x="204.895904" y="167.976" style="fill: #222222; stroke: #222222; stroke-width: 0.65"/>
      </g>
     </g>
     <g id="text_3">
      <text style="font-size: 6.5px; font-family: 'Arial', 'Helvetica', 'DejaVu Sans', sans-serif; text-anchor: middle; fill: #222222" x="204.895904" y="179.014984" transform="rotate(-0 204.895904 179.014984)">10</text>
     </g>
    </g>
    <g id="xtick_4">
     <g id="line2d_4">
      <g>
       <use xlink:href="#m8af6a7794e" x="272.096971" y="167.976" style="fill: #222222; stroke: #222222; stroke-width: 0.65"/>
      </g>
     </g>
     <g id="text_4">
      <text style="font-size: 6.5px; font-family: 'Arial', 'Helvetica', 'DejaVu Sans', sans-serif; text-anchor: middle; fill: #222222" x="272.096971" y="179.014984" transform="rotate(-0 272.096971 179.014984)">15</text>
     </g>
    </g>
    <g id="xtick_5">
     <g id="line2d_5">
      <g>
       <use xlink:href="#m8af6a7794e" x="339.298038" y="167.976" style="fill: #222222; stroke: #222222; stroke-width: 0.65"/>
      </g>
     </g>
     <g id="text_5">
      <text style="font-size: 6.5px; font-family: 'Arial', 'Helvetica', 'DejaVu Sans', sans-serif; text-anchor: middle; fill: #222222" x="339.298038" y="179.014984" transform="rotate(-0 339.298038 179.014984)">20</text>
     </g>
    </g>
    <g id="xtick_6">
     <g id="line2d_6">
      <g>
       <use xlink:href="#m8af6a7794e" x="406.499104" y="167.976" style="fill: #222222; stroke: #222222; stroke-width: 0.65"/>
      </g>
     </g>
     <g id="text_6">
      <text style="font-size: 6.5px; font-family: 'Arial', 'Helvetica', 'DejaVu Sans', sans-serif; text-anchor: middle; fill: #222222" x="406.499104" y="179.014984" transform="rotate(-0 406.499104 179.014984)">25</text>
     </g>
    </g>
    <g id="text_7">
     <text style="font-size: 7px; font-family: 'Arial', 'Helvetica', 'DejaVu Sans', sans-serif; text-anchor: middle" x="253.111953" y="189.685688" transform="rotate(-0 253.111953 189.685688)">Time (s)</text>
    </g>
   </g>
   <g id="matplotlib.axis_2">
    <g id="ytick_1">
     <g id="line2d_7">
      <defs>
       <path id="m7b8dd67c13" d="M 0 0 
L -2.6 0 
" style="stroke: #222222; stroke-width: 0.65"/>
      </defs>
      <g>
       <use xlink:href="#m7b8dd67c13" x="52.231953" y="167.961776" style="fill: #222222; stroke: #222222; stroke-width: 0.65"/>
      </g>
     </g>
     <g id="text_8">
      <text style="font-size: 6.5px; font-family: 'Arial', 'Helvetica', 'DejaVu Sans', sans-serif; text-anchor: end; fill: #222222" x="46.131953" y="170.431269" transform="rotate(-0 46.131953 170.431269)">−5</text>
     </g>
    </g>
    <g id="ytick_2">
     <g id="line2d_8">
      <g>
       <use xlink:href="#m7b8dd67c13" x="52.231953" y="149.890826" style="fill: #222222; stroke: #222222; stroke-width: 0.65"/>
      </g>
     </g>
     <g id="text_9">
      <text style="font-size: 6.5px; font-family: 'Arial', 'Helvetica', 'DejaVu Sans', sans-serif; text-anchor: end; fill: #222222" x="46.131953" y="152.360318" transform="rotate(-0 46.131953 152.360318)">0</text>
     </g>
    </g>
    <g id="ytick_3">
     <g id="line2d_9">
      <g>
       <use xlink:href="#m7b8dd67c13" x="52.231953" y="131.819875" style="fill: #222222; stroke: #222222; stroke-width: 0.65"/>
      </g>
     </g>
     <g id="text_10">
      <text style="font-size: 6.5px; font-family: 'Arial', 'Helvetica', 'DejaVu Sans', sans-serif; text-anchor: end; fill: #222222" x="46.131953" y="134.289368" transform="rotate(-0 46.131953 134.289368)">5</text>
     </g>
    </g>
    <g id="ytick_4">
     <g id="line2d_10">
      <g>
       <use xlink:href="#m7b8dd67c13" x="52.231953" y="113.748925" style="fill: #222222; stroke: #222222; stroke-width: 0.65"/>
      </g>
     </g>
     <g id="text_11">
      <text style="font-size: 6.5px; font-family: 'Arial', 'Helvetica', 'DejaVu Sans', sans-serif; text-anchor: end; fill: #222222" x="46.131953" y="116.218417" transform="rotate(-0 46.131953 116.218417)">10</text>
     </g>
    </g>
    <g id="ytick_5">
     <g id="line2d_11">
      <g>
       <use xlink:href="#m7b8dd67c13" x="52.231953" y="95.677974" style="fill: #222222; stroke: #222222; stroke-width: 0.65"/>
      </g>
     </g>
     <g id="text_12">
      <text style="font-size: 6.5px; font-family: 'Arial', 'Helvetica', 'DejaVu Sans', sans-serif; text-anchor: end; fill: #222222" x="46.131953" y="98.147467" transform="rotate(-0 46.131953 98.147467)">15</text>
     </g>
    </g>
    <g id="ytick_6">
     <g id="line2d_12">
      <g>
       <use xlink:href="#m7b8dd67c13" x="52.231953" y="77.607024" style="fill: #222222; stroke: #222222; stroke-width: 0.65"/>
      </g>
     </g>
     <g id="text_13">
      <text style="font-size: 6.5px; font-family: 'Arial', 'Helvetica', 'DejaVu Sans', sans-serif; text-anchor: end; fill: #222222" x="46.131953" y="80.076516" transform="rotate(-0 46.131953 80.076516)">20</text>
     </g>
    </g>
    <g id="ytick_7">
     <g id="line2d_13">
      <g>
       <use xlink:href="#m7b8dd67c13" x="52.231953" y="59.536073" style="fill: #222222; stroke: #222222; stroke-width: 0.65"/>
      </g>
     </g>
     <g id="text_14">
      <text style="font-size: 6.5px; font-family: 'Arial', 'Helvetica', 'DejaVu Sans', sans-serif; text-anchor: end; fill: #222222" x="46.131953" y="62.005566" transform="rotate(-0 46.131953 62.005566)">25</text>
     </g>
    </g>
    <g id="ytick_8">
     <g id="line2d_14">
      <g>
       <use xlink:href="#m7b8dd67c13" x="52.231953" y="41.465123" style="fill: #222222; stroke: #222222; stroke-width: 0.65"/>
      </g>
     </g>
     <g id="text_15">
      <text style="font-size: 6.5px; font-family: 'Arial', 'Helvetica', 'DejaVu Sans', sans-serif; text-anchor: end; fill: #222222" x="46.131953" y="43.934615" transform="rotate(-0 46.131953 43.934615)">30</text>
     </g>
    </g>
    <g id="ytick_9">
     <g id="line2d_15">
      <g>
       <use xlink:href="#m7b8dd67c13" x="52.231953" y="23.394172" style="fill: #222222; stroke: #222222; stroke-width: 0.65"/>
      </g>
     </g>
     <g id="text_16">
      <text style="font-size: 6.5px; font-family: 'Arial', 'Helvetica', 'DejaVu Sans', sans-serif; text-anchor: end; fill: #222222" x="46.131953" y="25.863665" transform="rotate(-0 46.131953 25.863665)">35</text>
     </g>
    </g>
    <g id="text_17">
     <!-- $F_n$ -->
     <g transform="translate(8.594531 78.29375)">
      <text>
       <tspan x="0" y="-0.21875" style="font-size: 7px; font-family: 'cmmi10'">F</tspan>
       <tspan x="4.501465" y="0.971687" style="font-size: 4.9px; font-family: 'cmmi10'">n</tspan>
      </text>
     </g>
     <text style="font-size: 7px; font-family: 'Arial', 'Helvetica', 'DejaVu Sans', sans-serif" transform="translate(7.2 86.132219)">(N)</text>
    </g>
   </g>
   <g id="line2d_16">
    <path d="M 70.493771 132.84522 
L 71.217331 132.77255 
L 71.741883 132.846406 
L 75.53225 132.9208 
L 76.169187 133.029417 
L 79.703519 133.466332 
L 80.653556 133.683517 
L 81.998667 133.793909 
L 85.758669 134.225005 
L 86.683398 134.980557 
L 87.06928 135.376307 
L 87.332545 135.845879 
L 87.918547 136.100799 
L 88.208397 135.852567 
L 88.494932 134.988287 
L 88.736455 134.667233 
L 89.549188 130.028217 
L 90.446463 122.323819 
L 90.683512 119.258817 
L 91.059596 116.478116 
L 91.302557 113.304806 
L 91.553069 111.679966 
L 92.194263 109.050951 
L 92.421657 107.861066 
L 93.026084 105.698859 
L 93.592078 103.493837 
L 94.085627 103.052228 
L 94.495946 103.409218 
L 94.802328 104.525421 
L 95.054554 104.919167 
L 95.36017 106.072961 
L 95.969267 107.155027 
L 96.372577 107.479608 
L 96.627067 107.983142 
L 97.232672 108.667938 
L 98.705003 111.522117 
L 99.01795 111.524364 
L 99.305645 111.273388 
L 99.88631 110.086036 
L 100.133038 109.262907 
L 101.930385 100.505398 
L 103.949837 93.98482 
L 104.466362 93.012604 
L 105.621652 91.723482 
L 105.858838 91.292061 
L 106.279569 90.251158 
L 107.388712 85.967151 
L 109.570231 75.364029 
L 109.832392 74.822082 
L 110.363558 72.906301 
L 111.169843 71.645236 
L 112.286468 70.673227 
L 112.859515 70.424346 
L 113.682739 70.540773 
L 114.010408 70.397678 
L 114.806887 69.466578 
L 115.358685 68.246849 
L 115.904466 66.196386 
L 117.061212 61.187459 
L 117.622047 58.592269 
L 117.907231 58.125659 
L 118.184196 57.046655 
L 119.265017 55.322905 
L 119.582844 55.215844 
L 119.921125 55.362304 
L 121.125433 57.246528 
L 121.975931 58.874058 
L 122.765612 60.065802 
L 123.736184 63.568559 
L 124.329585 65.878644 
L 124.636311 66.961735 
L 124.888968 68.732586 
L 125.157136 69.200438 
L 125.7075 71.802526 
L 127.355373 76.85344 
L 128.200525 78.72734 
L 128.440915 79.916941 
L 129.552063 82.726823 
L 130.617759 84.815715 
L 131.586822 85.860226 
L 132.210451 86.509013 
L 132.714452 86.832923 
L 133.249746 87.193351 
L 134.116488 87.91457 
L 134.541663 88.240774 
L 134.971689 89.14375 
L 135.624791 91.818865 
L 136.75943 100.64283 
L 137.757662 106.350932 
L 138.053396 109.275738 
L 138.406553 111.334474 
L 138.903423 116.568048 
L 139.957266 123.465752 
L 140.86426 127.00463 
L 142.247235 132.425178 
L 142.673312 133.435028 
L 142.919301 134.84487 
L 143.430049 136.217363 
L 144.62479 137.700841 
L 145.207799 138.064201 
L 146.170579 138.181439 
L 149.638616 138.718892 
L 150.155663 138.897359 
L 150.826951 138.966164 
L 151.146327 138.857386 
L 151.494752 138.892274 
L 152.224244 139.213203 
L 153.078595 140.000929 
L 153.949191 141.460796 
L 154.191245 142.275968 
L 154.778995 143.114758 
L 155.649399 144.156312 
L 157.067933 145.880236 
L 157.652918 146.125736 
L 157.915438 146.62404 
L 158.723119 146.976182 
L 159.278727 147.269782 
L 160.669824 147.053483 
L 161.374147 146.333031 
L 162.767427 141.845613 
L 163.718197 138.117835 
L 164.574972 133.661878 
L 165.120063 130.848733 
L 166.296313 123.384003 
L 166.601986 120.007659 
L 166.960815 117.527127 
L 167.815026 109.231109 
L 168.398513 105.564301 
L 168.686202 103.442925 
L 169.896441 98.958775 
L 170.470282 95.76655 
L 171.635456 84.1824 
L 172.246186 77.99029 
L 172.651976 75.79302 
L 172.910262 73.020973 
L 173.437587 70.573986 
L 173.968042 69.175025 
L 174.566637 68.064745 
L 175.148569 66.953698 
L 176.342021 64.446171 
L 177.166127 62.251118 
L 177.42061 62.037036 
L 177.969734 60.922814 
L 178.847521 59.776402 
L 179.68664 58.015564 
L 179.955834 57.078817 
L 180.550845 53.622585 
L 181.534612 47.246447 
L 181.805685 43.924966 
L 182.299439 41.004165 
L 182.928272 39.922348 
L 183.281877 40.06923 
L 183.564119 40.538466 
L 183.875171 41.513883 
L 184.4194 44.405515 
L 185.303721 52.359096 
L 186.639226 69.072401 
L 187.014249 72.003732 
L 187.278762 76.559875 
L 187.728372 79.559943 
L 187.972291 84.336479 
L 188.558892 90.663485 
L 188.951278 93.806867 
L 189.191454 98.002189 
L 190.042357 105.017362 
L 190.320215 107.114945 
L 190.835974 109.139224 
L 191.11431 112.826734 
L 192.409661 118.932733 
L 192.653879 120.559294 
L 193.208765 122.223895 
L 194.016785 124.065282 
L 195.090751 125.406025 
L 195.400615 125.624584 
L 195.995851 125.378718 
L 197.339175 121.902206 
L 198.090251 114.670044 
L 198.384519 111.823924 
L 198.688048 107.205537 
L 198.907967 105.731502 
L 199.537171 99.092607 
L 199.982882 96.789056 
L 200.254336 96.179791 
L 200.52308 96.075589 
L 200.886445 96.585478 
L 201.233331 97.930972 
L 202.418222 100.693483 
L 202.692664 100.877993 
L 203.251895 100.881347 
L 203.492342 100.737408 
L 203.89276 100.194684 
L 204.443663 100.049032 
L 204.683976 100.120464 
L 205.028035 99.826937 
L 205.343764 99.27841 
L 205.920631 96.917785 
L 206.161218 95.540459 
L 206.920108 92.238765 
L 207.778757 86.115833 
L 208.235494 84.562152 
L 208.638786 84.057139 
L 209.293125 85.291224 
L 209.831621 87.029908 
L 210.092665 87.611392 
L 211.163393 88.842517 
L 211.487756 89.996051 
L 211.812571 89.989815 
L 212.270027 89.148639 
L 213.137634 86.285087 
L 213.461913 85.190418 
L 214.05469 81.831295 
L 214.410302 80.478531 
L 214.716393 78.585791 
L 215.659238 75.462369 
L 215.885753 75.356414 
L 216.204778 75.794953 
L 216.47619 76.921213 
L 216.809241 78.951269 
L 217.126125 81.847014 
L 217.389087 87.022883 
L 217.749815 90.67946 
L 218.558085 101.643696 
L 218.863603 105.265538 
L 219.0964 110.509835 
L 219.559045 113.774065 
L 219.864458 117.694721 
L 221.67793 129.924248 
L 221.969886 129.793916 
L 222.294187 128.833292 
L 222.552124 125.77662 
L 222.816258 121.198696 
L 223.052286 114.920725 
L 223.557494 107.272093 
L 224.185049 75.128863 
L 224.760825 49.654697 
L 225.54465 -1 
M 236.408941 -1 
L 237.374155 65.661793 
L 237.725369 81.921207 
L 237.960705 98.266764 
L 238.828575 135.37023 
L 239.172584 144.890217 
L 239.415308 147.793332 
L 239.668046 148.622496 
L 240.312059 148.076262 
L 240.624403 148.077203 
L 241.128556 147.944065 
L 241.377869 147.460847 
L 241.652014 147.256942 
L 241.960784 147.727631 
L 242.275417 147.994633 
L 242.554898 148.069432 
L 243.341902 147.788553 
L 244.306892 148.394931 
L 245.281338 148.582229 
L 246.170913 148.011424 
L 247.813517 148.256306 
L 248.703294 148.545059 
L 249.312608 148.704878 
L 250.100076 148.427216 
L 250.576563 148.45496 
L 250.95533 148.62097 
L 251.549807 148.387496 
L 252.297984 148.380692 
L 253.066696 148.556132 
L 255.934233 148.769951 
L 256.512796 148.697742 
L 260.608128 148.664526 
L 261.214366 148.522564 
L 261.754615 148.488275 
L 261.754615 148.488275 
" clip-path="url(#pc1d699197f)" style="fill: none; stroke: #0b6fff; stroke-opacity: 0.45; stroke-width: 1.85; stroke-linecap: square"/>
   </g>
   <g id="line2d_17">
    <path d="M 70.493771 148.283174 
L 77.546109 148.229122 
L 77.827872 148.158481 
L 78.258657 148.270338 
L 79.079415 148.16581 
L 87.989116 148.216043 
L 88.576669 148.289524 
L 90.250042 148.195881 
L 96.983732 148.174077 
L 97.321522 148.104468 
L 97.625637 148.249728 
L 97.94784 148.215164 
L 98.308689 148.324669 
L 99.25077 148.257211 
L 100.799328 148.261106 
L 101.040477 148.404254 
L 102.219111 148.330662 
L 103.352972 148.255444 
L 107.039893 148.353096 
L 108.590777 148.449028 
L 110.304642 148.344571 
L 110.808112 148.202145 
L 114.005629 148.277642 
L 114.504275 148.390599 
L 117.594948 148.124255 
L 118.45457 148.200473 
L 119.119019 148.273441 
L 120.112865 148.275104 
L 124.296602 148.313312 
L 124.619279 148.205014 
L 125.10721 148.243216 
L 129.94987 148.158772 
L 130.913461 148.157712 
L 132.281212 148.085427 
L 133.227919 148.06856 
L 134.05352 148.122478 
L 135.212752 147.924811 
L 135.470451 147.776193 
L 135.834927 147.701569 
L 137.867484 146.502014 
L 138.667464 146.210064 
L 139.520017 146.02404 
L 143.691496 145.321946 
L 144.323717 144.960257 
L 144.888816 144.739088 
L 145.433864 144.486766 
L 145.686694 144.449175 
L 146.894293 143.943426 
L 150.942497 143.615362 
L 151.720917 143.687015 
L 152.372593 143.543341 
L 153.065587 143.614946 
L 153.357944 143.508596 
L 154.762563 143.652059 
L 155.781651 143.65153 
L 158.588296 143.687771 
L 158.92553 143.796375 
L 159.850473 143.687287 
L 161.824398 143.795872 
L 162.101552 143.868214 
L 162.987804 143.832306 
L 163.281665 143.904457 
L 164.248022 143.868573 
L 164.479284 143.97613 
L 165.104797 143.904842 
L 165.74163 143.831312 
L 165.974761 143.904364 
L 166.644297 143.904365 
L 167.167921 143.976388 
L 169.701961 143.904206 
L 170.084979 143.831922 
L 173.719212 143.975186 
L 175.345395 143.940355 
L 176.35079 143.723998 
L 176.686038 143.72324 
L 179.841601 142.479839 
L 180.164722 142.479139 
L 180.701405 142.333571 
L 182.301217 141.641279 
L 183.177306 141.058327 
L 183.513636 140.656845 
L 184.02014 140.399802 
L 184.26746 139.999526 
L 184.975159 139.703591 
L 185.589684 139.593227 
L 187.343996 139.447174 
L 188.208364 139.554792 
L 188.471709 139.481464 
L 188.789497 139.553815 
L 190.800195 138.934611 
L 191.109124 138.715199 
L 192.49257 138.821339 
L 193.562523 139.001431 
L 194.790562 139.035052 
L 195.426158 138.997934 
L 196.285169 139.103819 
L 205.641488 139.103587 
L 207.170446 139.632472 
L 208.63254 140.703222 
L 209.47294 140.694061 
L 210.779942 139.668933 
L 211.641956 139.476302 
L 212.215087 139.250639 
L 213.806454 138.605972 
L 214.340565 138.019424 
L 214.584111 138.014174 
L 215.133875 137.862784 
L 216.162324 137.704894 
L 217.274623 137.439969 
L 218.652198 137.458787 
L 219.64147 137.767681 
L 220.762676 137.667986 
L 221.191872 137.513132 
L 221.523794 137.248734 
L 222.526178 137.155158 
L 222.837753 137.32958 
L 224.08359 137.455948 
L 224.692982 137.593398 
L 225.882867 137.871227 
L 226.145607 138.010733 
L 228.582662 138.129726 
L 228.855575 137.978987 
L 229.109662 137.971886 
L 229.705253 137.816107 
L 231.228856 137.71927 
L 231.993595 137.56476 
L 232.887425 137.737872 
L 234.253587 138.973697 
L 235.325378 139.245752 
L 236.675053 139.667067 
L 237.066266 139.816191 
L 237.321956 140.107276 
L 237.594737 140.073611 
L 238.19909 140.251547 
L 239.269975 140.205453 
L 242.902514 140.668447 
L 243.715284 140.956537 
L 244.275341 141.499947 
L 244.84846 142.514903 
L 246.092593 143.783287 
L 246.672921 144.037459 
L 246.933659 144.038943 
L 247.641812 144.330752 
L 248.79158 144.618502 
L 249.351842 144.357328 
L 250.877916 142.952295 
L 251.233603 142.766532 
L 251.461629 142.401064 
L 252.854966 141.627611 
L 253.393424 141.367624 
L 254.603134 140.92649 
L 256.08954 140.81522 
L 256.923616 140.776991 
L 258.308611 140.847991 
L 258.982417 140.960126 
L 260.111407 141.756966 
L 260.689823 141.975297 
L 260.954747 141.865046 
L 261.612739 141.752764 
L 262.260122 141.601366 
L 263.781222 141.66237 
L 264.339268 141.733656 
L 265.614622 141.953086 
L 266.51275 142.458022 
L 266.848789 142.818064 
L 267.487747 142.813202 
L 271.57654 141.540436 
L 272.411063 141.612763 
L 272.961978 141.830947 
L 274.205471 142.018109 
L 275.183605 142.058746 
L 275.517873 141.950945 
L 276.146895 142.025611 
L 276.466325 141.919269 
L 278.559296 142.179589 
L 279.372646 141.741414 
L 280.858306 140.43585 
L 281.169002 140.25503 
L 281.393121 139.893404 
L 282.307391 139.433026 
L 283.241587 139.550693 
L 285.439545 140.765919 
L 285.78651 140.842105 
L 287.761716 140.060645 
L 288.119863 140.062963 
L 289.061844 140.329305 
L 289.362596 140.331825 
L 289.624412 140.189439 
L 290.206926 140.043382 
L 293.48888 137.920338 
L 296.283462 137.709271 
L 298.178709 137.936682 
L 299.066476 137.614712 
L 301.595422 135.376039 
L 302.64337 134.689869 
L 302.986212 134.364852 
L 304.570435 133.835487 
L 304.881138 133.908574 
L 306.349945 133.194443 
L 306.863117 132.976632 
L 307.484418 132.759323 
L 308.168597 132.724524 
L 308.835897 132.50959 
L 309.362186 132.514012 
L 310.036894 133.062504 
L 310.528452 133.208192 
L 312.459476 132.856209 
L 313.288547 133.042494 
L 313.550627 133.223336 
L 314.164142 133.453451 
L 314.449578 133.571231 
L 315.131098 133.41223 
L 316.191818 133.635585 
L 318.137237 134.094173 
L 320.779202 135.348981 
L 321.672104 136.09948 
L 322.221407 136.752294 
L 322.517268 137.135519 
L 323.417409 137.304623 
L 323.978527 137.013565 
L 324.656394 136.543885 
L 324.984456 136.272405 
L 325.527322 136.159747 
L 325.845467 136.3139 
L 326.15549 136.652762 
L 326.545886 136.736411 
L 326.844024 137.151544 
L 327.375075 137.385088 
L 327.893851 137.726599 
L 328.481581 138.031161 
L 329.084358 138.121974 
L 329.4077 138.307176 
L 330.566881 138.36049 
L 331.332324 138.559966 
L 332.436547 139.46217 
L 332.988091 139.913658 
L 333.456706 140.182796 
L 333.827148 140.163121 
L 336.083636 138.475215 
L 337.436807 137.87762 
L 338.322493 137.935143 
L 338.680108 137.836608 
L 339.640812 138.029413 
L 340.514418 138.436645 
L 341.038765 138.69074 
L 342.044743 138.877611 
L 342.585569 139.178638 
L 343.475336 139.488515 
L 343.697989 139.645746 
L 344.333351 139.716267 
L 344.677695 139.492251 
L 345.005231 139.541659 
L 345.305266 139.456173 
L 345.955701 139.610019 
L 346.530454 139.707195 
L 347.374721 139.773693 
L 348.343076 139.650758 
L 348.984579 139.552161 
L 349.517154 139.519242 
L 350.706507 139.314269 
L 351.698781 139.028329 
L 352.859981 139.364835 
L 353.090678 139.583628 
L 354.84629 140.23715 
L 355.407736 140.467197 
L 356.248857 141.05998 
L 356.928043 141.245612 
L 357.239424 141.390406 
L 357.658291 141.431365 
L 357.983415 141.654736 
L 358.623742 141.561154 
L 359.36806 141.051163 
L 359.683211 140.466887 
L 361.130866 139.130152 
L 363.909104 138.929023 
L 364.901275 138.544197 
L 365.67516 138.492052 
L 366.649914 138.83 
L 367.881332 139.345504 
L 369.078421 139.131956 
L 370.735594 138.234074 
L 371.153258 138.162254 
L 371.712237 137.837212 
L 371.980584 137.838562 
L 372.269815 137.438792 
L 372.793541 137.3257 
L 373.659464 137.069672 
L 375.050534 137.206331 
L 378.27747 136.406377 
L 378.548926 136.226229 
L 379.024412 136.083074 
L 379.842546 135.393979 
L 380.911194 134.818905 
L 381.323255 134.639426 
L 382.236353 133.847628 
L 383.939031 133.850638 
L 384.764563 134.250803 
L 385.321325 134.360421 
L 386.254746 134.256064 
L 386.531837 134.041222 
L 388.177459 133.540936 
L 389.003075 133.650606 
L 389.584748 133.90738 
L 390.123504 133.873687 
L 391.070283 133.588867 
L 391.317158 133.264008 
L 392.21679 132.978273 
L 392.76485 132.692585 
L 393.392769 132.620512 
L 394.165227 132.734149 
L 394.7553 132.879692 
L 395.35223 132.955697 
L 396.594059 132.957594 
L 398.631926 131.250409 
L 399.490027 131.041749 
L 400.024964 131.010437 
L 400.637294 131.166739 
L 401.596161 130.892879 
L 402.219584 130.180875 
L 402.828953 129.786679 
L 403.367542 129.864289 
L 403.676819 129.936228 
L 403.93174 130.192214 
L 404.953984 130.708765 
L 405.79139 130.394466 
L 406.334971 130.185462 
L 406.909309 130.052024 
L 407.589192 129.675298 
L 408.52248 128.723313 
L 409.318826 127.846617 
L 410.859675 127.052791 
L 412.57829 127.280976 
L 413.416766 127.272887 
L 414.189869 127.661902 
L 415.344991 127.998698 
L 416.422174 127.794389 
L 416.984675 127.865219 
L 417.562714 127.683448 
L 417.958574 127.405714 
L 419.071483 125.873795 
L 419.385375 125.813001 
L 419.98744 125.940892 
L 420.253968 126.314315 
L 420.963448 126.129111 
L 421.842534 125.611897 
L 422.742677 125.355132 
L 423.355461 125.387908 
L 423.903183 125.52985 
L 424.450777 125.337289 
L 425.60439 124.878488 
L 425.983034 125.01988 
L 426.568511 125.514572 
L 427.377318 125.865348 
L 427.695812 125.851818 
L 428.642742 126.145073 
L 429.205723 125.87004 
L 429.483473 125.560806 
L 430.066049 125.594896 
L 430.970363 125.897561 
L 431.89753 125.738483 
L 432.695128 125.451709 
L 432.989355 125.224046 
L 433.266152 125.173488 
L 433.944229 125.393043 
L 434.210133 125.516211 
L 434.475881 125.852627 
L 435.391104 126.339242 
L 435.730135 126.167802 
L 435.730135 126.167802 
" clip-path="url(#pc1d699197f)" style="fill: none; stroke: #f04a4a; stroke-opacity: 0.45; stroke-width: 1.85; stroke-linecap: square"/>
   </g>
   <g id="patch_3">
    <path d="M 52.231953 167.976 
L 52.231953 7.2 
" style="fill: none; stroke: #222222; stroke-width: 0.75; stroke-linejoin: miter; stroke-linecap: square"/>
   </g>
   <g id="patch_4">
    <path d="M 52.231953 167.976 
L 453.991953 167.976 
" style="fill: none; stroke: #222222; stroke-width: 0.75; stroke-linejoin: miter; stroke-linecap: square"/>
   </g>
   <g id="line2d_18">
    <path d="M 70.493771 132.829411 
L 74.949032 132.920403 
L 78.108338 133.248355 
L 85.391539 134.309721 
L 86.087441 134.661344 
L 87.06928 135.290456 
L 87.648895 135.396452 
L 87.918547 135.205335 
L 88.208397 134.830589 
L 88.494932 134.236357 
L 89.029762 132.159615 
L 89.549188 128.78509 
L 91.913082 111.162338 
L 92.421657 108.10059 
L 93.592078 104.749535 
L 93.817554 104.422658 
L 94.085627 104.348087 
L 94.495946 104.457908 
L 94.802328 104.732093 
L 97.845973 109.903668 
L 98.433123 110.539026 
L 98.705003 110.696593 
L 99.01795 110.678577 
L 99.305645 110.432184 
L 99.603925 109.985676 
L 100.133038 108.415052 
L 100.810195 106.18672 
L 101.303669 103.653217 
L 103.404504 95.927574 
L 103.627002 95.171375 
L 105.072274 92.31627 
L 105.621652 91.214157 
L 105.858838 90.559262 
L 106.279569 89.812259 
L 107.084667 86.873908 
L 107.953249 83.247392 
L 109.303507 77.047405 
L 110.124324 74.142972 
L 110.363558 73.388744 
L 111.462127 71.485055 
L 111.991751 70.997982 
L 112.859515 70.601743 
L 113.682739 70.254896 
L 114.296833 69.830707 
L 114.806887 68.998539 
L 115.358685 67.628665 
L 115.904466 65.809394 
L 118.415562 56.891355 
L 119.024307 56.109998 
L 119.265017 55.899479 
L 119.921125 55.931597 
L 120.480584 56.476769 
L 121.125433 57.333967 
L 121.469978 57.856578 
L 123.466753 62.520953 
L 126.487706 74.344361 
L 126.860138 75.226038 
L 127.355373 77.01689 
L 128.200525 78.779125 
L 129.003408 81.177727 
L 129.839978 83.147212 
L 130.373001 84.183801 
L 130.617759 84.63616 
L 131.321887 85.42846 
L 131.8275 86.060558 
L 132.714452 86.801101 
L 133.249746 87.265733 
L 133.813441 88.000052 
L 134.541663 89.389475 
L 134.971689 90.421815 
L 135.624791 93.097508 
L 135.952916 94.716438 
L 138.053396 109.358911 
L 138.687111 113.973314 
L 139.219781 118.402575 
L 139.717768 120.372452 
L 139.957266 122.237912 
L 140.58493 125.363799 
L 141.418095 129.144476 
L 142.247235 132.363826 
L 142.673312 133.315604 
L 143.430049 135.700728 
L 144.339511 137.183361 
L 144.931797 137.679563 
L 145.743327 138.089687 
L 151.494752 139.099436 
L 152.224244 139.392735 
L 153.078595 140.280495 
L 155.649399 144.182838 
L 156.227559 144.859464 
L 157.067933 145.829184 
L 157.652918 146.107904 
L 158.46655 146.75905 
L 159.036213 147.004401 
L 159.704786 147.059008 
L 160.035517 146.99948 
L 160.669824 146.547103 
L 161.374147 145.676925 
L 161.668887 145.088711 
L 163.391854 139.115821 
L 164.305465 135.103241 
L 165.384867 128.600365 
L 165.713592 126.660728 
L 166.601986 119.721668 
L 167.303199 114.852523 
L 167.815026 110.051067 
L 168.177147 107.963431 
L 168.686202 104.387932 
L 169.614834 99.831721 
L 170.470282 94.246772 
L 170.692991 91.921105 
L 171.061483 89.459506 
L 172.246186 78.924255 
L 172.910262 74.717653 
L 173.437587 71.628177 
L 173.968042 69.479662 
L 175.398427 66.308559 
L 175.64078 65.670981 
L 176.342021 64.418807 
L 176.910664 63.174035 
L 177.969734 61.019245 
L 178.847521 59.530967 
L 179.357149 58.048923 
L 179.68664 57.061362 
L 180.550845 52.776196 
L 181.18796 49.064336 
L 182.299439 42.748268 
L 182.928272 41.366784 
L 183.281877 41.420179 
L 183.564119 41.910964 
L 183.875171 42.835197 
L 184.4194 46.101776 
L 186.007531 61.118614 
L 189.478425 99.413087 
L 190.320215 107.51949 
L 190.835974 109.845106 
L 191.11431 112.062055 
L 192.409661 117.797624 
L 192.939102 120.652683 
L 193.505496 122.600474 
L 194.016785 123.882539 
L 194.623568 124.683476 
L 195.400615 124.92506 
L 195.649802 124.820038 
L 195.995851 124.523361 
L 196.29494 123.902936 
L 196.832892 121.632691 
L 197.339175 120.106897 
L 199.537171 101.217292 
L 200.52308 98.063132 
L 200.886445 97.932378 
L 201.233331 98.110253 
L 201.603606 98.564579 
L 202.418222 100.081969 
L 202.928867 100.472047 
L 203.492342 100.498098 
L 204.190443 100.224084 
L 204.683976 99.476934 
L 205.343764 98.189024 
L 205.65437 97.321124 
L 206.920108 91.762592 
L 207.475466 88.831835 
L 207.778757 87.693031 
L 208.638786 86.293574 
L 208.971775 85.988998 
L 209.293125 85.958176 
L 209.59555 86.197415 
L 210.656973 88.360177 
L 211.487756 88.556676 
L 212.270027 88.103789 
L 212.576863 87.615173 
L 212.873143 86.836149 
L 215.011781 78.364038 
L 215.342304 77.591789 
L 215.659238 77.271786 
L 215.885753 77.42384 
L 216.204778 78.361295 
L 216.809241 81.82683 
L 217.389087 87.266818 
L 217.749815 90.541327 
L 219.0964 109.31838 
L 219.559045 112.705624 
L 220.503233 121.621611 
L 221.080734 125.437534 
L 221.390383 126.335523 
L 221.67793 126.498676 
L 221.969886 125.633604 
L 222.294187 123.675938 
L 222.816258 113.353822 
L 223.052286 105.852394 
L 223.557494 96.948037 
L 223.908403 85.930318 
L 224.478469 59.232397 
L 225.35216 -1 
M 236.613038 -1 
L 237.725369 79.691378 
L 237.960705 94.560808 
L 238.828575 127.045257 
L 239.668046 143.808491 
L 240.312059 147.603743 
L 240.624403 147.919011 
L 241.377869 147.879926 
L 242.275417 147.790718 
L 242.834857 147.923512 
L 244.306892 148.261094 
L 245.849949 148.274733 
L 247.012168 148.150528 
L 249.048454 148.470466 
L 250.100076 148.537054 
L 252.714895 148.53176 
L 256.248614 148.721535 
L 260.379762 148.63627 
L 261.754615 148.519284 
L 261.754615 148.519284 
" clip-path="url(#pc1d699197f)" style="fill: none; stroke: #0b6fff; stroke-opacity: 0.98; stroke-width: 1.25; stroke-linecap: square"/>
   </g>
   <g id="line2d_19">
    <path d="M 70.493771 148.277253 
L 73.157655 148.257412 
L 75.097994 148.233292 
L 98.69142 148.246164 
L 100.47493 148.30717 
L 103.59408 148.27875 
L 106.445286 148.335754 
L 109.412175 148.394793 
L 112.438511 148.239436 
L 115.354882 148.29291 
L 118.845739 148.224301 
L 120.630558 148.232357 
L 131.195619 148.139015 
L 134.956233 147.90987 
L 136.118095 147.461673 
L 137.867484 146.587057 
L 139.003611 146.188405 
L 140.862847 145.829124 
L 143.691496 145.20954 
L 146.616881 144.108061 
L 147.287018 143.954488 
L 151.328696 143.639686 
L 155.141745 143.619724 
L 168.347061 143.944422 
L 171.210884 143.896156 
L 174.332084 143.931689 
L 176.35079 143.702307 
L 177.656243 143.28844 
L 179.463628 142.654491 
L 181.286002 142.038838 
L 182.301217 141.573392 
L 183.513636 140.664115 
L 184.640074 140.037845 
L 185.589684 139.630513 
L 186.779682 139.499303 
L 189.145799 139.379792 
L 192.124274 138.842871 
L 202.545723 139.062283 
L 204.731417 139.143055 
L 205.999424 139.268659 
L 206.900551 139.619435 
L 207.816607 140.123292 
L 209.057327 140.328718 
L 210.175281 140.144731 
L 212.215087 139.236258 
L 213.463705 138.67347 
L 215.597432 137.785273 
L 217.274623 137.509072 
L 218.107039 137.462171 
L 220.141698 137.633028 
L 222.837753 137.298461 
L 224.375588 137.540784 
L 227.921317 138.080377 
L 232.284692 137.7606 
L 233.417899 138.274468 
L 234.693382 138.970087 
L 236.359068 139.599882 
L 238.506144 140.183546 
L 241.547752 140.493535 
L 243.151484 140.84896 
L 243.715284 141.234797 
L 244.602081 142.059738 
L 245.163265 142.724048 
L 246.092593 143.56225 
L 247.305028 144.208653 
L 248.284817 144.397474 
L 248.79158 144.35798 
L 249.614231 143.960836 
L 250.548382 143.257611 
L 252.555596 141.786806 
L 253.983252 141.180125 
L 255.541168 140.880021 
L 257.187577 140.817379 
L 258.308611 140.946775 
L 259.278433 141.261843 
L 260.446938 141.692362 
L 261.32077 141.76896 
L 263.781222 141.672803 
L 264.952346 141.891249 
L 266.51275 142.367738 
L 267.487747 142.564087 
L 268.148149 142.541255 
L 270.304377 141.895476 
L 271.151437 141.705758 
L 272.411063 141.714211 
L 275.183605 142.005853 
L 278.797153 141.907971 
L 279.372646 141.605091 
L 281.935531 139.755919 
L 282.591054 139.641337 
L 283.241587 139.716198 
L 283.816808 139.947804 
L 284.745655 140.371195 
L 285.78651 140.507392 
L 287.444099 140.33503 
L 288.759456 140.191358 
L 289.936117 140.047033 
L 291.096502 139.460207 
L 293.48888 138.065664 
L 294.6877 137.782856 
L 296.515106 137.75242 
L 297.766382 137.726467 
L 299.066476 137.341063 
L 299.880414 136.90527 
L 301.595422 135.348502 
L 303.488064 134.325303 
L 307.852709 132.753161 
L 308.835897 132.76577 
L 311.879781 132.985337 
L 312.779969 133.002347 
L 318.401721 134.228355 
L 320.779202 135.386983 
L 322.811632 136.940378 
L 323.417409 137.039085 
L 324.320069 136.765549 
L 325.260887 136.524933 
L 326.15549 136.683938 
L 326.844024 136.999944 
L 328.229165 137.826404 
L 329.084358 138.133202 
L 330.943551 138.639534 
L 332.436547 139.376923 
L 332.988091 139.679911 
L 333.827148 139.793255 
L 334.360165 139.643828 
L 335.339791 139.032055 
L 336.083636 138.595537 
L 337.983903 138.013922 
L 338.680108 137.951339 
L 339.640812 138.112712 
L 340.806479 138.504953 
L 341.667856 138.846494 
L 344.333351 139.555608 
L 347.684489 139.69388 
L 349.851507 139.430747 
L 351.334484 139.216891 
L 352.212195 139.283895 
L 352.859981 139.463292 
L 353.743713 139.837545 
L 355.407736 140.528849 
L 356.649925 141.093056 
L 357.239424 141.323029 
L 357.983415 141.384514 
L 358.623742 141.181552 
L 358.861145 140.990417 
L 359.36806 140.768511 
L 360.388667 139.923498 
L 361.536925 139.260552 
L 362.475273 139.00023 
L 363.909104 138.805742 
L 365.67516 138.641144 
L 368.424115 139.174929 
L 369.346538 138.916808 
L 372.793541 137.382742 
L 373.939444 137.151436 
L 376.184658 136.85929 
L 378.27747 136.291701 
L 382.614621 134.037211 
L 383.229052 133.946356 
L 384.258428 134.060739 
L 385.321325 134.228647 
L 386.254746 134.096124 
L 387.615207 133.751952 
L 388.480114 133.666574 
L 390.123504 133.732573 
L 391.070283 133.487353 
L 392.461306 132.878998 
L 393.392769 132.766555 
L 394.7553 132.84771 
L 395.6032 132.90778 
L 396.594059 132.640236 
L 397.580447 132.122691 
L 398.631926 131.376783 
L 399.490027 131.13028 
L 400.862976 130.870627 
L 403.133196 130.061931 
L 403.93174 130.225937 
L 405.211488 130.447964 
L 405.79139 130.403884 
L 406.909309 129.889926 
L 407.960478 129.274175 
L 409.318826 127.907794 
L 410.859675 127.300801 
L 411.975026 127.209905 
L 412.900411 127.346399 
L 414.511169 127.689028 
L 416.422174 127.855125 
L 416.984675 127.658175 
L 417.562714 127.250945 
L 419.640884 126.131169 
L 420.612861 125.950775 
L 421.588621 125.792564 
L 422.491247 125.519208 
L 424.844042 125.237928 
L 425.983034 125.301372 
L 428.642742 125.877511 
L 431.338535 125.726795 
L 432.16358 125.581751 
L 432.989355 125.427778 
L 433.944229 125.571319 
L 435.730135 126.147654 
L 435.730135 126.147654 
" clip-path="url(#pc1d699197f)" style="fill: none; stroke: #f04a4a; stroke-opacity: 0.98; stroke-width: 1.25; stroke-linecap: square"/>
   </g>
   <g id="legend_1">
    <g id="line2d_20">
     <path d="M 309.238281 18.333672 
L 317.738281 18.333672 
L 326.238281 18.333672 
" style="fill: none; stroke: #0b6fff; stroke-width: 2; stroke-linecap: square"/>
    </g>
    <g id="text_18">
     <text style="font-size: 8.5px; font-family: 'Arial', 'Helvetica', 'DejaVu Sans', sans-serif; text-anchor: start" x="333.038281" y="21.308672" transform="rotate(-0 333.038281 21.308672)">Full-joint</text>
    </g>
    <g id="line2d_21">
     <path d="M 386.278828 18.333672 
L 394.778828 18.333672 
L 403.278828 18.333672 
" style="fill: none; stroke: #f04a4a; stroke-width: 2; stroke-linecap: square"/>
    </g>
    <g id="text_19">
     <text style="font-size: 8.5px; font-family: 'Arial', 'Helvetica', 'DejaVu Sans', sans-serif; text-anchor: start" x="410.078828" y="21.308672" transform="rotate(-0 410.078828 21.308672)">Darboux</text>
    </g>
   </g>
  </g>
 </g>
 <defs>
  <clipPath id="pc1d699197f">
   <rect x="52.231953" y="7.2" width="401.76" height="160.776"/>
  </clipPath>
 </defs>
</svg>
