<?xml version="1.0" encoding="utf-8" standalone="no"?>
<!DOCTYPE svg PUBLIC "-//W3C//DTD SVG 1.1//EN"
  "http://www.w3.org/Graphics/SVG/1.1/DTD/svg11.dtd">
<svg xmlns:xlink="http://www.w3.org/1999/xlink" width="466.52625pt" height="198.341469pt" viewBox="0 0 466.52625 198.341469" xmlns="http://www.w3.org/2000/svg" version="1.1">
 <metadata>
  <rdf:RDF xmlns:dc="http://purl.org/dc/elements/1.1/" xmlns:cc="http://creativecommons.org/ns#" xmlns:rdf="http://www.w3.org/1999/02/22-rdf-syntax-ns#">
   <cc:Work>
    <dc:type rdf:resource="http://purl.org/dc/dcmitype/StillImage"/>
    <dc:date>2026-07-10T18:12:59.024644</dc:date>
    <dc:format>image/svg+xml</dc:format>
    <dc:creator>
     <cc:Agent>
      <dc:title>Matplotlib v3.10.8, https://matplotlib.org/</dc:title>
     </cc:Agent>
    </dc:creator>
   </cc:Work>
  </rdf:RDF>
 </metadata>
 <defs>
  <style type="text/css">*{stroke-linejoin: round; stroke-linecap: butt}</style>
 </defs>
 <g id="figure_1">
  <g id="patch_1">
   <path d="M 0 198.341469 
L 466.52625 198.341469 
L 466.52625 0 
L 0 0 
z
" style="fill: #ffffff"/>
  </g>
  <g id="axes_1">
   <g id="patch_2">
    <path d="M 57.56625 167.976 
L 459.32625 167.976 
L 459.32625 7.2 
L 57.56625 7.2 
z
" style="fill: #ffffff"/>
   </g>
   <g id="matplotlib.axis_1">
    <g id="xtick_1">
     <g id="line2d_1">
      <defs>
       <path id="m32b4eb6013" d="M 0 0 
L 0 2.6 
" style="stroke: #222222; stroke-width: 0.65"/>
      </defs>
      <g>
       <use xlink:href="#m32b4eb6013" x="75.828068" y="167.976" style="fill: #222222; stroke: #222222; stroke-width: 0.65"/>
      </g>
     </g>
     <g id="text_1">
      <text style="font-size: 6.5px; font-family: 'Arial', 'Helvetica', 'DejaVu Sans', sans-serif; text-anchor: middle; fill: #222222" x="75.828068" y="179.014984" transform="rotate(-0 75.828068 179.014984)">0</text>
     </g>
    </g>
    <g id="xtick_2">
     <g id="line2d_2">
      <g>
       <use xlink:href="#m32b4eb6013" x="143.029135" y="167.976" style="fill: #222222; stroke: #222222; stroke-width: 0.65"/>
      </g>
     </g>
     <g id="text_2">
      <text style="font-size: 6.5px; font-family: 'Arial', 'Helvetica', 'DejaVu Sans', sans-serif; text-anchor: middle; fill: #222222" x="143.029135" y="179.014984" transform="rotate(-0 143.029135 179.014984)">5</text>
     </g>
    </g>
    <g id="xtick_3">
     <g id="line2d_3">
      <g>
       <use xlink:href="#m32b4eb6013" x="210.230201" y="167.976" style="fill: #222222; stroke: #222222; stroke-width: 0.65"/>
      </g>
     </g>
     <g id="text_3">
      <text style="font-size: 6.5px; font-family: 'Arial', 'Helvetica', 'DejaVu Sans', sans-serif; text-anchor: middle; fill: #222222" x="210.230201" y="179.014984" transform="rotate(-0 210.230201 179.014984)">10</text>
     </g>
    </g>
    <g id="xtick_4">
     <g id="line2d_4">
      <g>
       <use xlink:href="#m32b4eb6013" x="277.431268" y="167.976" style="fill: #222222; stroke: #222222; stroke-width: 0.65"/>
      </g>
     </g>
     <g id="text_4">
      <text style="font-size: 6.5px; font-family: 'Arial', 'Helvetica', 'DejaVu Sans', sans-serif; text-anchor: middle; fill: #222222" x="277.431268" y="179.014984" transform="rotate(-0 277.431268 179.014984)">15</text>
     </g>
    </g>
    <g id="xtick_5">
     <g id="line2d_5">
      <g>
       <use xlink:href="#m32b4eb6013" x="344.632334" y="167.976" style="fill: #222222; stroke: #222222; stroke-width: 0.65"/>
      </g>
     </g>
     <g id="text_5">
      <text style="font-size: 6.5px; font-family: 'Arial', 'Helvetica', 'DejaVu Sans', sans-serif; text-anchor: middle; fill: #222222" x="344.632334" y="179.014984" transform="rotate(-0 344.632334 179.014984)">20</text>
     </g>
    </g>
    <g id="xtick_6">
     <g id="line2d_6">
      <g>
       <use xlink:href="#m32b4eb6013" x="411.833401" y="167.976" style="fill: #222222; stroke: #222222; stroke-width: 0.65"/>
      </g>
     </g>
     <g id="text_6">
      <text style="font-size: 6.5px; font-family: 'Arial', 'Helvetica', 'DejaVu Sans', sans-serif; text-anchor: middle; fill: #222222" x="411.833401" y="179.014984" transform="rotate(-0 411.833401 179.014984)">25</text>
     </g>
    </g>
    <g id="text_7">
     <text style="font-size: 7px; font-family: 'Arial', 'Helvetica', 'DejaVu Sans', sans-serif; text-anchor: middle" x="258.44625" y="189.685688" transform="rotate(-0 258.44625 189.685688)">Time (s)</text>
    </g>
   </g>
   <g id="matplotlib.axis_2">
    <g id="ytick_1">
     <g id="line2d_7">
      <defs>
       <path id="mb9e2b940ad" d="M 0 0 
L -2.6 0 
" style="stroke: #222222; stroke-width: 0.65"/>
      </defs>
      <g>
       <use xlink:href="#mb9e2b940ad" x="57.56625" y="148.807355" style="fill: #222222; stroke: #222222; stroke-width: 0.65"/>
      </g>
     </g>
     <g id="text_8">
      <text style="font-size: 6.5px; font-family: 'Arial', 'Helvetica', 'DejaVu Sans', sans-serif; text-anchor: end; fill: #222222" x="51.46625" y="151.276847" transform="rotate(-0 51.46625 151.276847)">0</text>
     </g>
    </g>
    <g id="ytick_2">
     <g id="line2d_8">
      <g>
       <use xlink:href="#mb9e2b940ad" x="57.56625" y="127.054122" style="fill: #222222; stroke: #222222; stroke-width: 0.65"/>
      </g>
     </g>
     <g id="text_9">
      <text style="font-size: 6.5px; font-family: 'Arial', 'Helvetica', 'DejaVu Sans', sans-serif; text-anchor: end; fill: #222222" x="51.46625" y="129.523614" transform="rotate(-0 51.46625 129.523614)">10</text>
     </g>
    </g>
    <g id="ytick_3">
     <g id="line2d_9">
      <g>
       <use xlink:href="#mb9e2b940ad" x="57.56625" y="105.300889" style="fill: #222222; stroke: #222222; stroke-width: 0.65"/>
      </g>
     </g>
     <g id="text_10">
      <text style="font-size: 6.5px; font-family: 'Arial', 'Helvetica', 'DejaVu Sans', sans-serif; text-anchor: end; fill: #222222" x="51.46625" y="107.770381" transform="rotate(-0 51.46625 107.770381)">20</text>
     </g>
    </g>
    <g id="ytick_4">
     <g id="line2d_10">
      <g>
       <use xlink:href="#mb9e2b940ad" x="57.56625" y="83.547656" style="fill: #222222; stroke: #222222; stroke-width: 0.65"/>
      </g>
     </g>
     <g id="text_11">
      <text style="font-size: 6.5px; font-family: 'Arial', 'Helvetica', 'DejaVu Sans', sans-serif; text-anchor: end; fill: #222222" x="51.46625" y="86.017148" transform="rotate(-0 51.46625 86.017148)">30</text>
     </g>
    </g>
    <g id="ytick_5">
     <g id="line2d_11">
      <g>
       <use xlink:href="#mb9e2b940ad" x="57.56625" y="61.794423" style="fill: #222222; stroke: #222222; stroke-width: 0.65"/>
      </g>
     </g>
     <g id="text_12">
      <text style="font-size: 6.5px; font-family: 'Arial', 'Helvetica', 'DejaVu Sans', sans-serif; text-anchor: end; fill: #222222" x="51.46625" y="64.263915" transform="rotate(-0 51.46625 64.263915)">40</text>
     </g>
    </g>
    <g id="ytick_6">
     <g id="line2d_12">
      <g>
       <use xlink:href="#mb9e2b940ad" x="57.56625" y="40.04119" style="fill: #222222; stroke: #222222; stroke-width: 0.65"/>
      </g>
     </g>
     <g id="text_13">
      <text style="font-size: 6.5px; font-family: 'Arial', 'Helvetica', 'DejaVu Sans', sans-serif; text-anchor: end; fill: #222222" x="51.46625" y="42.510682" transform="rotate(-0 51.46625 42.510682)">50</text>
     </g>
    </g>
    <g id="ytick_7">
     <g id="line2d_13">
      <g>
       <use xlink:href="#mb9e2b940ad" x="57.56625" y="18.287957" style="fill: #222222; stroke: #222222; stroke-width: 0.65"/>
      </g>
     </g>
     <g id="text_14">
      <text style="font-size: 6.5px; font-family: 'Arial', 'Helvetica', 'DejaVu Sans', sans-serif; text-anchor: end; fill: #222222" x="51.46625" y="20.757449" transform="rotate(-0 51.46625 20.757449)">60</text>
     </g>
    </g>
    <g id="text_15">
     <text style="font-size: 7px; font-family: 'Arial', 'Helvetica', 'DejaVu Sans', sans-serif" transform="translate(12.221953 78.107375)">Speed</text>
     <!-- (mm s$^{-1}$) -->
     <g transform="translate(7.2 86.132219)">
      <text>
       <tspan x="0" y="-0.062141" style="font-size: 7px; font-family: 'DejaVu Sans'">(</tspan>
       <tspan x="2.730957" y="-0.062141" style="font-size: 7px; font-family: 'DejaVu Sans'">m</tspan>
       <tspan x="9.549805" y="-0.062141" style="font-size: 7px; font-family: 'DejaVu Sans'">m</tspan>
       <tspan x="16.368652" y="-0.062141" style="font-size: 7px; font-family: 'DejaVu Sans'"> </tspan>
       <tspan x="18.59375" y="-0.062141" style="font-size: 7px; font-family: 'DejaVu Sans'">s</tspan>
       <tspan x="29.256218" y="-0.062141" style="font-size: 7px; font-family: 'DejaVu Sans'">)</tspan>
       <tspan x="22.553213" y="-2.740625" style="font-size: 4.9px; font-family: 'cmsy10'">¡</tspan>
       <tspan x="26.359804" y="-2.740625" style="font-size: 4.9px; font-family: 'cmr10'">1</tspan>
      </text>
     </g>
    </g>
   </g>
   <g id="line2d_14">
    <path d="M 75.828068 144.328754 
L 76.551628 147.586865 
L 76.839141 145.964831 
L 77.07618 147.224721 
L 77.36388 147.396301 
L 77.660809 146.090029 
L 77.943728 145.521587 
L 78.254406 146.670737 
L 78.872794 143.514413 
L 79.150856 145.051906 
L 79.509419 144.591553 
L 79.74248 145.544021 
L 80.055383 140.886015 
L 80.283329 139.462814 
L 80.613543 144.331976 
L 80.866547 144.749063 
L 81.269789 146.196291 
L 81.503484 145.980747 
L 81.829991 140.330791 
L 82.150198 141.59489 
L 82.490286 144.834346 
L 82.743252 143.688038 
L 83.200081 138.198462 
L 83.442635 138.171991 
L 83.736618 142.6811 
L 84.342365 146.532133 
L 84.720073 144.995224 
L 85.037816 147.033478 
L 85.352451 147.358556 
L 85.697116 144.999399 
L 85.987853 144.310921 
L 86.277883 146.177264 
L 86.560644 144.956642 
L 87.081959 147.749164 
L 87.332964 146.373241 
L 87.623411 147.031684 
L 88.003731 147.242998 
L 88.314356 146.827408 
L 88.563851 147.254949 
L 88.827167 145.528402 
L 89.110056 145.528847 
L 89.367465 145.243265 
L 89.665124 146.475485 
L 89.923697 145.215799 
L 90.201088 146.480937 
L 90.725836 146.209032 
L 91.421738 142.368461 
L 91.729063 142.998288 
L 92.017695 144.779363 
L 92.403577 142.539171 
L 92.666841 142.451306 
L 92.983192 141.217638 
L 93.252844 133.60522 
L 94.070752 127.336689 
L 94.364059 119.288429 
L 94.638783 101.258308 
L 94.883485 101.936947 
L 95.148867 106.430244 
L 95.500381 105.489364 
L 95.78076 98.829113 
L 96.017809 104.963414 
L 96.393892 91.041536 
L 96.636854 88.747248 
L 96.887366 107.634501 
L 97.247379 97.469565 
L 97.52856 96.491806 
L 97.755954 100.536359 
L 98.108459 80.465942 
L 98.360381 77.419676 
L 98.622242 76.790778 
L 99.15185 44.814666 
L 99.419924 52.02299 
L 99.830243 39.924592 
L 100.136625 6.574615 
L 100.388851 42.046142 
L 100.694467 62.54763 
L 100.994928 49.558967 
L 101.303564 67.711763 
L 101.706874 67.784399 
L 101.961364 64.58298 
L 102.269712 88.653422 
L 102.566969 98.892977 
L 102.927479 71.538278 
L 103.18027 80.831961 
L 103.50577 100.469334 
L 103.767419 102.219967 
L 104.0393 110.40187 
L 104.352247 106.152197 
L 104.639942 107.704554 
L 104.938222 115.22075 
L 105.220607 109.049497 
L 105.467335 106.335825 
L 105.780399 123.383354 
L 106.144491 119.595148 
L 106.370285 113.789966 
L 107.264681 132.084163 
L 107.574349 133.295833 
L 108.180681 123.533517 
L 108.411062 125.116357 
L 108.7388 120.573163 
L 109.284134 96.654671 
L 109.550018 93.441432 
L 109.800659 93.844066 
L 110.094369 96.562973 
L 110.40657 97.191234 
L 110.684572 84.700033 
L 110.955949 86.628745 
L 111.193135 91.897865 
L 111.613866 92.391173 
L 111.8681 93.521256 
L 112.172027 89.210334 
L 112.418964 96.366944 
L 112.723009 100.101356 
L 112.958204 100.413161 
L 113.287546 114.313672 
L 113.55892 117.210325 
L 113.804152 114.009993 
L 114.07004 118.181241 
L 114.356764 120.820035 
L 114.637804 116.514739 
L 114.904528 126.064598 
L 115.166689 129.425761 
L 115.458621 128.283959 
L 115.697855 129.934889 
L 116.00164 125.947542 
L 116.254495 118.402902 
L 116.796423 121.32683 
L 117.065303 119.979296 
L 117.326048 126.223432 
L 118.193812 131.354823 
L 118.505749 135.052565 
L 119.017036 128.558979 
L 119.344705 135.306697 
L 119.63113 134.024093 
L 119.902793 127.527418 
L 120.141184 127.55169 
L 120.440122 125.318378 
L 120.692982 124.771844 
L 120.978813 125.679394 
L 121.238763 125.101831 
L 121.54107 127.709907 
L 121.814991 132.086355 
L 122.096053 131.187183 
L 122.715771 119.980652 
L 123.241528 122.414647 
L 123.518493 120.113402 
L 123.749858 121.064676 
L 124.045285 124.319854 
L 124.358604 119.510216 
L 124.599314 120.259066 
L 124.917141 128.885361 
L 125.255422 122.649803 
L 125.814881 134.263715 
L 126.16965 131.942674 
L 126.45973 134.474131 
L 127.050918 132.582529 
L 127.310228 131.297429 
L 127.68288 126.520985 
L 128.099909 116.181309 
L 128.428728 114.892614 
L 128.80105 116.077303 
L 129.070481 111.551974 
L 129.342663 114.66998 
L 129.663882 124.094446 
L 129.970607 122.467871 
L 130.223264 124.178114 
L 130.491433 129.163907 
L 130.773183 127.586328 
L 131.041797 132.081799 
L 131.32509 129.584747 
L 131.564297 132.346273 
L 131.822003 138.405449 
L 132.194435 132.110787 
L 132.68967 142.013132 
L 133.1432 137.458323 
L 133.534822 131.891054 
L 133.775212 131.814598 
L 134.058921 139.41002 
L 134.337705 137.09337 
L 134.595477 137.429758 
L 134.88636 138.746881 
L 135.174275 137.355488 
L 135.412612 142.357115 
L 135.707298 142.994007 
L 135.952056 141.152479 
L 136.371929 146.433553 
L 136.656184 144.378738 
L 136.921119 146.465996 
L 137.161796 147.100814 
L 137.544748 142.471034 
L 137.805358 145.386907 
L 138.048749 144.410687 
L 138.355379 144.824279 
L 138.584043 144.714063 
L 138.847641 144.177347 
L 139.147738 139.403337 
L 139.450785 128.539137 
L 139.87596 107.433278 
L 140.305986 92.655369 
L 140.64926 101.333484 
L 140.959088 89.605347 
L 141.287213 89.125975 
L 141.535522 91.478642 
L 141.810422 92.889465 
L 142.093727 101.980326 
L 142.416257 95.033972 
L 142.701422 104.641309 
L 143.091959 93.187918 
L 143.387692 90.571249 
L 143.74085 99.858662 
L 144.021408 82.18172 
L 144.23772 94.741295 
L 144.554077 121.598545 
L 145.052065 93.26275 
L 145.291563 94.231928 
L 145.655643 112.731047 
L 145.919227 110.750721 
L 146.198557 116.839539 
L 146.752392 112.072558 
L 147.00406 117.008347 
L 147.330375 112.81924 
L 148.253598 124.256443 
L 148.541855 124.944414 
L 148.764346 122.5062 
L 149.113202 132.103129 
L 149.374295 133.604714 
L 149.673807 132.083092 
L 149.959087 132.209482 
L 150.266094 125.713133 
L 150.542096 128.258418 
L 150.85811 126.999084 
L 151.077623 123.26136 
L 151.504876 133.787632 
L 152.266073 145.723467 
L 152.564263 145.36296 
L 152.799747 144.191659 
L 153.108252 143.567724 
L 153.425137 139.540024 
L 153.729809 133.885364 
L 154.009437 133.143798 
L 154.330452 132.727851 
L 154.663651 131.794502 
L 154.972913 132.746 
L 155.253518 132.912548 
L 155.48996 132.295926 
L 155.784582 134.970345 
L 156.161248 135.487473 
L 156.480624 133.229877 
L 156.829049 134.705107 
L 157.285039 135.554428 
L 157.79071 129.977617 
L 158.1213 131.577531 
L 158.941019 111.134446 
L 159.283488 79.355261 
L 159.525542 73.636575 
L 159.857343 86.819954 
L 160.113292 84.663453 
L 160.439861 75.106044 
L 160.719955 83.564509 
L 160.983696 80.470514 
L 161.222528 86.165317 
L 161.561855 103.50836 
L 161.86621 93.11969 
L 162.40223 120.487413 
L 162.987215 99.241282 
L 163.249735 101.102614 
L 163.533674 123.057038 
L 164.057415 131.838841 
L 164.613024 123.08567 
L 165.369814 74.734807 
L 165.652976 61.221412 
L 165.965066 -1 
M 166.271952 -1 
L 166.309056 0.078695 
L 166.343677 -1 
M 167.194442 -1 
L 167.216692 1.83914 
L 167.505878 -0.617803 
L 167.804992 33.011357 
L 168.101724 32.646993 
L 168.374738 37.622729 
L 168.726151 39.244075 
L 169.052494 24.15377 
L 169.639762 59.275868 
L 169.909269 76.237367 
L 170.719164 98.377237 
L 171.047889 116.015914 
L 171.298504 119.451411 
L 171.63061 117.905907 
L 171.936283 124.274824 
L 172.295112 123.145129 
L 172.637496 114.581144 
L 172.883148 112.344951 
L 173.149323 116.966318 
L 173.732809 95.935493 
L 174.020499 112.328945 
L 174.348954 111.470039 
L 174.637935 103.660441 
L 174.949131 111.539518 
L 175.230738 102.863712 
L 175.487447 87.604915 
L 176.027288 79.09842 
L 176.39578 66.661681 
L 176.663426 62.859253 
L 176.969753 85.264142 
L 177.288 77.159824 
L 177.580483 79.977324 
L 177.986273 74.568964 
L 178.244559 75.438803 
L 178.519369 91.669521 
L 178.771884 92.360481 
L 179.302339 97.052354 
L 179.65655 95.59863 
L 179.900934 84.016052 
L 180.143755 99.848155 
L 180.482866 101.185828 
L 180.732724 99.227205 
L 180.975077 112.711464 
L 181.402802 102.464002 
L 181.676318 106.260603 
L 181.905816 116.834236 
L 182.244961 120.431796 
L 182.500424 116.272198 
L 183.076993 122.327882 
L 183.304031 122.361603 
L 183.581573 129.86275 
L 183.914659 128.5681 
L 184.454415 131.637069 
L 184.691446 131.068693 
L 185.020937 131.644342 
L 185.29013 128.981489 
L 185.635334 118.755589 
L 185.885142 121.253293 
L 186.154738 126.943546 
L 186.522257 126.507454 
L 186.868909 125.053921 
L 187.139982 121.996627 
L 187.633736 129.385621 
L 187.987382 128.986729 
L 188.262569 128.132373 
L 188.898416 110.971849 
L 189.209468 106.770227 
L 189.441458 101.309576 
L 189.753697 101.370486 
L 190.024171 90.57166 
L 190.278516 93.31998 
L 190.638018 100.381166 
L 191.011787 85.254598 
L 191.341828 85.779443 
L 191.662536 87.264482 
L 191.973523 94.205157 
L 192.348546 86.890001 
L 192.613058 86.2115 
L 193.062669 71.161379 
L 193.306588 79.220263 
L 193.590849 100.446916 
L 193.893189 99.685782 
L 194.285574 95.163876 
L 194.525751 93.801406 
L 194.812721 107.631079 
L 195.376654 103.124708 
L 195.654512 117.344096 
L 196.170271 101.593634 
L 196.448607 99.868355 
L 196.942221 122.056364 
L 197.352138 120.444878 
L 197.743958 123.858617 
L 198.543062 135.213247 
L 198.839793 138.268519 
L 199.109032 139.863032 
L 199.351082 142.271221 
L 199.724399 143.225762 
L 199.957864 143.46527 
L 200.425048 142.465471 
L 200.984099 135.880047 
L 201.629237 129.028247 
L 201.874031 132.228868 
L 202.167189 133.050866 
L 202.673472 110.771156 
L 202.899008 111.153818 
L 203.180789 128.610087 
L 203.424548 132.478743 
L 203.718816 133.058365 
L 204.022345 124.069723 
L 204.638734 120.656579 
L 204.871468 114.783848 
L 205.317178 99.463251 
L 205.588633 78.393715 
L 205.857377 83.18879 
L 206.220742 72.382808 
L 206.567628 57.733604 
L 206.937903 59.01526 
L 207.207661 52.056289 
L 207.478579 69.79157 
L 207.752519 69.04125 
L 208.02696 61.432452 
L 208.263164 67.481688 
L 208.586192 71.889278 
L 208.826639 70.841155 
L 209.227057 66.085991 
L 209.77796 92.159995 
L 210.362332 76.311684 
L 210.678061 92.272386 
L 210.988667 95.624317 
L 211.254928 94.387383 
L 211.495515 110.467627 
L 212.254405 99.687859 
L 212.50587 115.090546 
L 212.809763 120.49826 
L 213.113054 120.651664 
L 213.569791 121.039774 
L 213.973083 107.129342 
L 214.306072 105.545751 
L 214.929847 109.584338 
L 215.165918 108.713962 
L 215.426962 114.766576 
L 215.746697 116.027992 
L 216.49769 110.294606 
L 216.822053 102.536026 
L 217.146868 106.743866 
L 217.604324 73.802418 
L 217.911159 76.757645 
L 218.20744 87.469241 
L 218.47193 88.684102 
L 219.012988 71.046651 
L 219.388987 99.706526 
L 219.744598 97.347694 
L 220.05069 97.824512 
L 220.346078 97.726707 
L 220.676601 90.40243 
L 220.993535 64.73072 
L 221.22005 70.516012 
L 221.539074 71.343984 
L 221.810487 55.294693 
L 222.143538 78.163711 
L 222.460422 47.97806 
L 222.723384 39.237635 
L 223.084111 75.752122 
L 223.33978 51.614373 
L 223.579865 54.090343 
L 223.892382 71.094597 
L 224.1979 61.00494 
L 224.430697 74.293231 
L 225.198755 41.307141 
L 225.484478 64.380848 
L 225.83753 75.074936 
L 226.155885 69.9699 
L 226.415031 77.120908 
L 226.72468 98.140579 
L 227.012227 102.868628 
L 227.304183 101.192187 
L 227.628484 100.708683 
L 228.150555 112.882237 
L 228.386583 114.532703 
L 228.891791 113.756958 
L 229.2427 103.127062 
L 229.812766 121.400067 
L 230.095122 107.754315 
L 230.387724 106.285195 
L 230.664449 107.017578 
L 230.961053 106.782924 
L 231.416517 95.376141 
L 231.720038 94.459786 
L 231.957743 107.404695 
L 232.319347 104.266726 
L 232.613804 93.181223 
L 232.918793 87.266867 
L 233.731601 126.740295 
L 234.053433 125.559587 
L 234.319059 111.638545 
L 234.65351 119.162795 
L 234.987661 135.147186 
L 235.380041 142.143253 
L 235.639462 142.137492 
L 235.943072 146.277248 
L 236.19079 144.674402 
L 236.457851 144.387397 
L 236.770548 144.214789 
L 237.036698 141.761838 
L 237.272356 141.404635 
L 237.660862 129.043443 
L 237.947577 127.411842 
L 238.444158 115.906948 
L 238.889439 99.733005 
L 239.222398 101.656807 
L 239.660608 92.600504 
L 240.05506 39.4649 
L 240.563997 70.144663 
L 240.924286 54.393852 
L 241.36233 -1 
M 241.875984 -1 
L 242.217633 26.49222 
L 242.424883 -1 
M 242.955909 -1 
L 243.059665 9.333813 
L 243.295001 1.594916 
L 243.635431 2.477719 
L 243.668438 -1 
M 246.951035 -1 
L 246.986311 7.389505 
L 247.295081 15.041352 
L 247.609714 12.839141 
L 247.781654 -1 
M 247.983507 -1 
L 248.169154 16.038047 
L 248.676199 17.175819 
L 248.929083 10.958002 
L 249.228875 36.438108 
L 249.641189 50.688422 
L 249.939939 -1 
M 250.468722 -1 
L 250.615635 26.730976 
L 250.867401 38.782556 
L 251.184246 39.213447 
L 251.50521 61.208429 
L 251.771819 61.00002 
L 252.049826 58.311659 
L 252.346465 81.976912 
L 252.774872 88.739221 
L 253.147814 85.362861 
L 253.442189 90.825301 
L 253.769618 84.206428 
L 254.03759 85.776356 
L 254.382751 98.830327 
L 254.646905 103.629976 
L 255.058858 100.108958 
L 255.434373 103.860184 
L 255.91086 100.042497 
L 256.289626 95.909119 
L 256.567918 110.553563 
L 256.884103 119.818475 
L 257.632281 132.596473 
L 258.049192 131.131633 
L 258.400993 134.879998 
L 258.763596 136.668264 
L 259.00024 136.452892 
L 259.570193 142.97908 
L 260.272197 141.263729 
L 260.720883 142.117731 
L 260.997258 141.234066 
L 261.26853 143.813983 
L 261.582911 144.910497 
L 261.847093 144.667115 
L 262.203217 145.335302 
L 262.521436 144.241306 
L 262.861622 144.551483 
L 263.561253 146.172392 
L 264.028258 146.334194 
L 264.51085 145.602457 
L 264.88492 146.631347 
L 265.144087 146.768683 
L 265.418505 145.726199 
L 265.942425 139.220284 
L 266.224895 143.429086 
L 266.548663 140.9729 
L 266.830632 142.690827 
L 267.088912 145.67554 
L 267.088912 145.67554 
" clip-path="url(#paeb603687a)" style="fill: none; stroke: #0b6fff; stroke-opacity: 0.45; stroke-width: 1.85; stroke-linecap: square"/>
   </g>
   <g id="line2d_15">
    <path d="M 75.828068 143.901167 
L 76.053377 147.119941 
L 76.709963 141.574243 
L 76.991304 138.070826 
L 77.236048 139.476948 
L 77.535982 145.806908 
L 77.919178 147.615829 
L 78.491952 143.07197 
L 78.777067 143.309838 
L 79.038493 143.907511 
L 79.297722 146.530592 
L 79.554735 147.303662 
L 79.840497 142.901418 
L 80.130165 143.37993 
L 80.432291 142.98095 
L 80.673364 141.813721 
L 81.169819 146.360227 
L 81.444951 141.00953 
L 81.703036 139.944861 
L 82.052246 144.883829 
L 82.299916 143.811632 
L 82.582918 143.571656 
L 83.162169 145.460287 
L 83.592954 140.230893 
L 84.413712 137.737368 
L 84.881711 135.706041 
L 85.242894 137.365916 
L 85.570919 137.745347 
L 85.812974 138.393865 
L 86.158373 137.999445 
L 86.542558 130.064663 
L 86.862251 131.34392 
L 87.440097 130.298943 
L 88.240256 130.793137 
L 88.59474 119.530436 
L 88.913098 115.829499 
L 89.167546 123.560256 
L 89.46651 124.893841 
L 89.725335 123.464244 
L 90.04737 124.522788 
L 90.326543 119.947831 
L 90.952151 133.426702 
L 91.420793 128.667351 
L 91.760593 132.084495 
L 92.323504 127.468432 
L 92.70685 128.189371 
L 93.019207 136.292378 
L 93.323413 135.143828 
L 93.568782 137.884882 
L 93.910966 144.891214 
L 94.209268 144.465327 
L 94.506372 145.788127 
L 94.810565 144.663092 
L 95.149779 144.82534 
L 95.841233 146.821386 
L 96.221148 145.944783 
L 96.528434 144.555367 
L 96.787965 145.879617 
L 97.035426 145.606114 
L 97.341309 147.653506 
L 97.611862 148.033977 
L 97.907781 147.465828 
L 98.157034 147.864587 
L 98.473862 147.142483 
L 98.764214 147.893039 
L 99.065564 148.271269 
L 99.327206 147.62977 
L 99.9404 147.434533 
L 100.186356 147.47776 
L 100.457435 147.241636 
L 100.798497 147.799404 
L 101.122376 147.673922 
L 101.472952 147.243138 
L 101.7443 147.151939 
L 101.965645 148.226669 
L 102.318029 145.575659 
L 102.655819 145.286171 
L 102.959934 147.024099 
L 103.282137 146.915974 
L 103.642986 145.954157 
L 104.025717 145.483829 
L 104.268071 146.139875 
L 104.585067 146.608727 
L 105.033598 147.492087 
L 105.300733 144.333787 
L 105.809226 147.162423 
L 106.133624 148.148639 
L 106.374773 146.373976 
L 106.765765 146.514359 
L 107.035104 144.467609 
L 107.26627 145.705607 
L 107.553408 145.653105 
L 107.826628 145.72414 
L 108.136542 148.036408 
L 108.424733 147.114033 
L 108.687269 145.620774 
L 108.928377 147.300753 
L 109.236941 147.507482 
L 109.503869 146.349074 
L 110.034745 147.71225 
L 110.284498 143.909581 
L 110.595417 146.562101 
L 110.867796 146.958195 
L 111.22857 145.091954 
L 111.779583 146.816234 
L 112.657063 142.740862 
L 113.039784 145.390859 
L 113.356997 145.148493 
L 113.650861 143.585498 
L 113.925074 144.797806 
L 114.24709 144.088699 
L 114.47603 142.647147 
L 114.746472 143.137784 
L 115.047729 144.785644 
L 115.291846 145.064583 
L 115.883249 129.660186 
L 116.142409 131.887062 
L 116.575061 127.641092 
L 116.847153 126.452641 
L 117.076645 132.899581 
L 117.529264 122.922532 
L 117.772808 123.617466 
L 118.168006 137.402677 
L 118.626561 136.432556 
L 119.339926 145.16699 
L 119.599667 142.998582 
L 119.838572 143.24307 
L 120.181571 142.38495 
L 120.435297 143.132177 
L 120.689179 148.171001 
L 121.008657 146.896344 
L 121.297623 143.449237 
L 121.530191 145.31961 
L 122.099139 146.864769 
L 122.433591 146.889393 
L 122.681403 146.760272 
L 122.929245 145.739649 
L 123.561687 147.82115 
L 124.180036 144.393561 
L 125.115107 147.428647 
L 125.447162 145.443 
L 125.690949 146.270415 
L 126.233539 145.099189 
L 126.518558 147.02746 
L 126.785722 146.636933 
L 127.039812 147.579125 
L 127.350438 146.473464 
L 127.81629 146.864605 
L 128.114115 145.994313 
L 128.434267 148.223055 
L 128.774035 147.429665 
L 129.119262 148.488 
L 129.393923 147.096316 
L 129.630898 147.832588 
L 129.953576 147.723045 
L 130.197286 145.298272 
L 130.441507 145.521842 
L 130.769022 143.25074 
L 130.99161 144.514944 
L 131.276848 147.395694 
L 131.557889 143.50925 
L 131.855706 147.296259 
L 132.149447 145.231315 
L 132.441522 142.370271 
L 132.838884 145.955948 
L 133.235383 141.18421 
L 133.519055 143.311652 
L 133.759315 143.110828 
L 134.030043 139.634461 
L 134.340116 141.474495 
L 134.65107 141.794385 
L 134.986935 140.898541 
L 135.284167 140.969119 
L 135.612884 145.217957 
L 135.855586 142.347794 
L 136.529916 144.672453 
L 137.066241 145.768701 
L 137.939421 142.288204 
L 138.264402 143.104396 
L 138.562216 142.679948 
L 138.814044 140.878632 
L 139.084577 141.592057 
L 139.387817 143.01882 
L 139.679632 145.495676 
L 140.547049 131.610818 
L 140.804748 132.937356 
L 141.169224 134.214094 
L 141.452392 134.355941 
L 141.695478 133.82212 
L 142.012908 136.270384 
L 142.303196 135.939333 
L 142.601561 132.034657 
L 142.895016 134.453426 
L 143.201781 140.508373 
L 143.452484 139.73718 
L 143.773865 135.56907 
L 144.001761 140.066665 
L 144.337907 140.909686 
L 144.614205 142.829013 
L 144.854314 146.372789 
L 145.296849 142.209267 
L 145.610594 137.86518 
L 146.197144 146.33628 
L 146.460461 143.79876 
L 146.747587 137.670263 
L 147.277244 143.601474 
L 147.506256 143.967922 
L 147.899728 145.11043 
L 148.153015 146.503119 
L 148.423889 146.823357 
L 148.709814 144.992651 
L 149.025793 144.923335 
L 149.28064 143.000641 
L 149.658014 138.495143 
L 149.952737 142.527566 
L 150.223113 144.475018 
L 150.500209 142.563776 
L 150.768161 144.305521 
L 151.020991 143.981232 
L 151.379575 144.292929 
L 151.66674 145.080534 
L 151.951178 147.073789 
L 152.621314 143.745 
L 153.222849 146.550239 
L 153.552484 146.807644 
L 153.894563 143.01833 
L 154.445355 147.407949 
L 155.082862 143.164225 
L 155.579499 148.126348 
L 156.276793 145.973385 
L 156.662993 145.477913 
L 157.055214 146.493219 
L 157.384052 146.823446 
L 158.058156 146.887952 
L 158.399883 145.134536 
L 158.692241 146.305892 
L 158.944029 145.710543 
L 159.249978 147.326696 
L 159.604711 147.206603 
L 159.863068 145.745078 
L 160.09686 146.73185 
L 160.476042 147.368271 
L 160.850042 147.588802 
L 161.115948 147.582329 
L 161.449062 148.092902 
L 161.735255 147.122877 
L 162.249265 147.554309 
L 162.598998 146.761039 
L 162.864772 147.977571 
L 163.095277 146.151982 
L 163.567496 148.24897 
L 163.922593 147.235307 
L 164.259827 148.272882 
L 164.59555 148.091437 
L 164.924103 147.428374 
L 165.184769 147.870955 
L 165.470927 147.846729 
L 165.721452 146.114724 
L 166.042038 148.165568 
L 166.390385 148.25717 
L 166.921637 147.35502 
L 167.435849 147.370618 
L 167.877667 148.288704 
L 168.615962 148.094544 
L 168.986383 147.716968 
L 169.252558 148.043801 
L 169.582319 146.496772 
L 169.813581 147.669659 
L 170.129763 146.505182 
L 170.439093 147.758176 
L 170.789195 146.662307 
L 171.075927 146.994937 
L 171.309058 146.355842 
L 171.661828 146.946933 
L 171.978594 146.825106 
L 172.23893 147.951509 
L 172.502217 147.987052 
L 172.792125 147.600254 
L 173.052246 146.65028 
L 173.368458 147.708436 
L 173.681358 147.859672 
L 173.998435 147.143663 
L 174.405459 147.824213 
L 174.733419 147.120159 
L 175.036258 147.379459 
L 175.419276 148.142749 
L 175.932876 148.340395 
L 176.300291 146.516334 
L 176.545181 146.697668 
L 176.841049 145.833837 
L 177.078168 146.014921 
L 177.393436 146.617129 
L 177.688997 148.351147 
L 177.979297 147.576644 
L 178.241835 147.323261 
L 178.47768 146.753994 
L 178.791728 144.456896 
L 179.33085 146.636553 
L 179.66638 145.843777 
L 179.953948 146.292794 
L 180.377631 144.35564 
L 180.679692 145.20929 
L 181.056878 146.660626 
L 181.343472 144.616855 
L 182.020335 146.285413 
L 182.716146 140.428704 
L 182.99054 142.988087 
L 183.662056 144.289729 
L 184.007883 146.007577 
L 184.392863 143.469332 
L 184.797925 142.594597 
L 185.175898 146.111792 
L 185.499019 145.131318 
L 185.803548 141.150112 
L 186.035702 140.032105 
L 186.324452 143.911848 
L 186.620299 142.947098 
L 187.007332 143.746804 
L 187.293581 141.234599 
L 187.635514 128.902889 
L 187.881803 130.441565 
L 188.197124 137.171507 
L 188.511603 131.752533 
L 188.847933 135.048538 
L 189.601757 133.82775 
L 189.974371 140.906387 
L 190.309456 140.79846 
L 190.606168 140.378218 
L 191.240885 144.819168 
L 191.554516 144.699842 
L 191.809284 146.897762 
L 192.113979 146.394303 
L 192.369871 145.062018 
L 192.678293 145.367227 
L 192.967634 144.892488 
L 193.22798 145.087986 
L 193.542661 145.153297 
L 193.806006 145.803967 
L 194.123794 145.715082 
L 194.480096 147.068209 
L 194.784974 145.92506 
L 195.113452 146.076554 
L 195.463346 145.665838 
L 195.780811 144.994289 
L 196.134492 148.252035 
L 196.443421 146.833812 
L 196.761989 144.553308 
L 197.091484 144.746624 
L 197.458571 146.506262 
L 198.100638 147.154646 
L 198.605098 146.731218 
L 198.89682 146.18076 
L 199.222863 147.612518 
L 199.564992 148.08988 
L 200.124859 145.37999 
L 200.439217 147.028689 
L 201.091691 144.865826 
L 201.342524 146.530478 
L 201.917306 146.860044 
L 202.583881 146.75465 
L 202.865533 147.262158 
L 203.112522 148.097536 
L 203.455397 147.536244 
L 203.756005 144.1877 
L 204.046594 147.835649 
L 204.329222 146.798619 
L 204.588353 147.889526 
L 204.922307 146.653394 
L 205.194212 147.554677 
L 205.481995 147.522997 
L 205.891311 146.925599 
L 206.336268 148.475543 
L 206.723983 146.611173 
L 207.056202 146.467051 
L 207.349861 146.962862 
L 207.604643 148.001672 
L 207.88002 147.091766 
L 208.204025 143.595942 
L 208.805113 144.691609 
L 209.099338 142.685041 
L 209.390341 146.598655 
L 209.758035 144.548676 
L 210.065714 146.525941 
L 210.541385 145.901546 
L 210.975785 142.034881 
L 211.333721 142.380641 
L 211.624689 141.979705 
L 211.956882 139.444722 
L 212.234848 136.29074 
L 212.504742 136.963324 
L 212.857991 138.437911 
L 213.150903 133.945178 
L 213.611887 117.40197 
L 214.391624 106.2007 
L 214.807237 108.893944 
L 215.219429 115.792332 
L 215.509578 111.948787 
L 215.788212 115.039796 
L 216.114239 114.756266 
L 216.434073 107.327643 
L 216.976253 117.148837 
L 217.300374 111.076242 
L 217.549384 115.339379 
L 217.853688 115.219621 
L 218.192526 118.422786 
L 218.4744 127.02403 
L 218.798002 126.47465 
L 219.42533 132.25796 
L 219.674862 131.406592 
L 219.918408 133.416857 
L 220.468172 141.075301 
L 220.931729 139.303554 
L 221.218738 139.061598 
L 221.496621 142.713745 
L 221.843019 145.035745 
L 222.266285 142.529539 
L 222.60892 141.905071 
L 222.879159 141.142085 
L 223.184989 143.558836 
L 223.441336 143.679371 
L 223.742198 143.181974 
L 223.986495 143.410648 
L 224.266999 140.806547 
L 224.590638 141.171313 
L 224.975767 139.265259 
L 225.475995 140.463141 
L 225.754161 141.877743 
L 226.526169 146.771608 
L 226.858091 146.178239 
L 227.263097 139.238912 
L 227.550132 139.262507 
L 227.860475 142.454657 
L 228.17205 140.952405 
L 228.545234 142.079505 
L 228.900317 139.04557 
L 229.417887 143.654516 
L 229.709885 142.523676 
L 230.027279 140.575466 
L 230.26244 136.732595 
L 230.61455 138.779697 
L 230.922632 139.254928 
L 231.217164 138.927391 
L 231.479904 140.904677 
L 231.832381 138.730561 
L 232.688797 141.701359 
L 233.255613 131.3038 
L 233.487795 131.050365 
L 233.916958 145.707158 
L 234.443959 136.225402 
L 234.77814 141.646671 
L 235.285819 137.981319 
L 235.624123 141.548122 
L 235.916101 141.5226 
L 236.244997 136.119725 
L 236.563153 133.092779 
L 236.80399 134.779862 
L 237.327891 134.902321 
L 237.618989 130.780545 
L 237.855999 132.830584 
L 238.451117 121.092079 
L 238.752196 124.263182 
L 239.272776 98.495992 
L 239.587883 109.206917 
L 240.027679 88.391318 
L 240.342448 90.79306 
L 240.659675 110.951464 
L 240.995004 103.525 
L 241.300347 108.945388 
L 241.693365 103.712103 
L 242.009349 108.049064 
L 242.400563 119.948935 
L 242.656253 116.584353 
L 242.929034 125.322083 
L 243.273731 129.916703 
L 243.533387 130.235611 
L 244.119014 139.366563 
L 244.604272 135.240741 
L 244.930841 138.221881 
L 245.216577 135.5763 
L 245.508404 141.296442 
L 245.795983 144.323924 
L 246.106424 142.506312 
L 246.500678 144.119013 
L 246.882049 146.606511 
L 247.190256 147.513602 
L 247.643739 144.929275 
L 247.9614 141.932622 
L 248.485781 145.437984 
L 248.818297 131.179665 
L 249.049581 127.2567 
L 249.348588 126.218697 
L 249.609638 126.853571 
L 249.936377 132.291392 
L 250.182757 133.712767 
L 250.497562 134.495189 
L 250.826598 136.030504 
L 251.114988 138.730779 
L 251.42689 137.993674 
L 251.767682 139.440668 
L 252.007218 139.686747 
L 252.267956 141.018005 
L 252.639325 143.57493 
L 252.976109 141.444361 
L 253.264226 138.82498 
L 253.619114 139.417001 
L 253.87332 144.055281 
L 254.125877 144.740822 
L 254.417589 142.484274 
L 254.686139 137.88441 
L 254.948528 138.987395 
L 255.275066 141.34467 
L 255.602382 141.463222 
L 255.882678 143.976886 
L 256.212213 144.41217 
L 256.5679 142.236116 
L 256.795925 144.718668 
L 257.08141 145.066204 
L 257.35788 145.858238 
L 257.601131 146.107172 
L 257.889893 145.710153 
L 258.189263 143.941797 
L 258.427067 144.109859 
L 258.727721 147.030106 
L 259.030427 146.575714 
L 259.317549 145.694614 
L 259.625923 146.785504 
L 259.937431 146.711689 
L 260.2898 147.19567 
L 260.630963 147.360661 
L 260.875465 146.078406 
L 261.155217 146.328538 
L 261.423837 147.994052 
L 261.670099 146.314264 
L 261.996399 147.029006 
L 262.521874 147.749457 
L 262.954428 145.858499 
L 263.279609 146.224247 
L 263.642908 144.841211 
L 263.999867 138.588511 
L 264.61273 132.533333 
L 264.876798 134.481345 
L 265.445704 142.548467 
L 265.781235 140.835522 
L 266.289044 147.935545 
L 266.655067 145.662071 
L 266.947036 145.347157 
L 267.22234 147.559983 
L 267.594419 146.376571 
L 267.873395 147.725252 
L 268.285086 143.518546 
L 268.612345 141.656084 
L 269.115519 147.209169 
L 269.356507 147.270073 
L 269.97366 138.858235 
L 270.286643 140.546735 
L 270.638768 141.10582 
L 270.948919 139.441631 
L 271.341693 140.518506 
L 271.847047 140.839873 
L 272.183086 142.641096 
L 272.483623 145.602874 
L 272.822044 144.826667 
L 273.163335 145.291401 
L 273.482446 147.26152 
L 274.047973 142.422146 
L 274.305083 143.361102 
L 274.766481 142.013875 
L 275.037268 141.696842 
L 275.315225 144.304611 
L 276.238792 146.856279 
L 276.485734 146.304799 
L 276.910837 143.143131 
L 277.196794 139.817646 
L 277.44497 140.258713 
L 277.745359 141.682415 
L 278.296275 144.834018 
L 278.615261 144.133464 
L 278.906091 144.788267 
L 279.148691 144.991667 
L 279.539768 145.799448 
L 280.085114 147.436935 
L 280.85217 143.318342 
L 281.15273 146.33825 
L 281.800621 143.255884 
L 282.078219 143.981857 
L 282.359067 143.56664 
L 282.746354 141.314343 
L 283.07904 135.65594 
L 283.331544 136.810202 
L 283.581159 140.711308 
L 283.893593 140.651978 
L 284.13145 142.902893 
L 284.440771 142.520708 
L 284.706943 140.812915 
L 284.976349 142.773486 
L 285.373217 143.963184 
L 286.192603 144.245642 
L 286.503299 146.430932 
L 286.727418 145.903363 
L 287.020369 143.891938 
L 287.269828 143.059608 
L 287.641688 139.944832 
L 288.291921 141.574024 
L 288.575884 140.312544 
L 288.894239 137.504256 
L 289.433912 142.673115 
L 289.743664 140.715835 
L 290.079952 140.641021 
L 290.462308 144.29175 
L 291.120806 139.881943 
L 291.941829 143.821304 
L 292.319604 143.043415 
L 292.778396 136.177028 
L 293.096013 135.37918 
L 293.45416 136.959135 
L 293.74037 135.295958 
L 294.093753 137.296369 
L 294.396141 141.189338 
L 294.696892 140.05683 
L 295.270414 144.545229 
L 295.541222 142.959037 
L 295.86158 143.306657 
L 296.430799 145.205254 
L 296.732753 144.432928 
L 297.334291 140.758404 
L 297.563181 141.585114 
L 297.925421 145.417756 
L 298.229643 145.975268 
L 298.492901 147.254882 
L 299.13766 145.935032 
L 299.428243 146.824574 
L 299.747246 144.444039 
L 300.021997 145.243271 
L 300.350152 148.086514 
L 300.953327 146.268303 
L 301.313973 144.718706 
L 301.617758 141.742818 
L 301.849403 142.783986 
L 302.13945 145.641621 
L 302.709954 143.731343 
L 303.100679 146.912347 
L 303.513006 140.257768 
L 303.866639 137.633079 
L 305.214711 144.789724 
L 305.495801 144.128713 
L 305.797104 144.49109 
L 306.349239 143.395606 
L 306.637185 144.464442 
L 307.329354 145.780049 
L 307.977667 144.744363 
L 308.320509 145.538137 
L 308.822361 142.215875 
L 309.224481 140.320699 
L 309.577237 137.546804 
L 309.904732 139.66724 
L 310.215435 139.501377 
L 310.469576 139.14688 
L 310.752802 143.971105 
L 311.004762 146.045836 
L 311.402937 144.39193 
L 311.684242 145.453909 
L 311.943895 147.378638 
L 312.197414 146.889208 
L 312.534624 146.756839 
L 312.818715 145.637613 
L 313.187006 147.092544 
L 313.502894 145.983854 
L 313.825136 146.247728 
L 314.170194 143.775408 
L 314.696483 136.975147 
L 315.056337 137.034724 
L 315.371191 142.090795 
L 315.641416 139.264817 
L 315.862749 135.286553 
L 316.519622 138.668894 
L 316.859652 143.563831 
L 317.214078 142.00889 
L 317.504837 139.609955 
L 317.793772 141.835225 
L 318.114266 138.058614 
L 318.370467 141.002885 
L 318.622844 145.321431 
L 318.884924 140.145201 
L 319.498439 138.376361 
L 320.033037 136.435209 
L 320.465395 136.937959 
L 320.86415 135.738732 
L 321.250856 131.67476 
L 321.526115 135.292849 
L 321.953974 136.83706 
L 322.206477 134.995499 
L 322.817892 139.884295 
L 323.471534 137.883918 
L 323.736017 139.365086 
L 323.982642 140.071583 
L 324.357499 140.058876 
L 324.695386 140.779011 
L 325.091526 141.984199 
L 325.501661 142.341324 
L 325.889484 135.344313 
L 326.113499 135.190415 
L 326.419024 136.026247 
L 327.006401 133.804297 
L 327.296215 130.014866 
L 327.851565 137.875598 
L 328.145929 136.280579 
L 328.449123 133.942936 
L 328.751706 138.649078 
L 329.022323 139.315416 
L 329.312824 138.65221 
L 329.654366 138.766638 
L 329.990691 138.472594 
L 330.318753 137.857413 
L 330.595184 135.667349 
L 330.861619 138.265942 
L 331.179763 136.219826 
L 331.489787 136.479097 
L 331.880183 139.137788 
L 332.178321 139.111499 
L 332.462626 140.181286 
L 332.709371 138.680396 
L 332.966941 136.122886 
L 333.228148 139.108348 
L 333.563462 145.02033 
L 334.174268 142.563574 
L 334.418655 143.510662 
L 335.032813 146.917173 
L 335.273961 146.458193 
L 335.901178 139.677874 
L 336.277848 139.523546 
L 336.666621 141.118536 
L 337.037061 139.920933 
L 337.401744 136.457245 
L 337.770844 138.338924 
L 338.055127 143.407419 
L 338.322388 144.383728 
L 338.791003 144.144115 
L 339.161445 144.104988 
L 339.449344 146.40251 
L 339.694462 145.0033 
L 340.012582 146.39684 
L 340.274689 145.94859 
L 340.674088 144.593638 
L 341.036371 144.547627 
L 341.417933 146.345567 
L 341.957344 146.804229 
L 342.771104 142.496017 
L 343.3182 141.222624 
L 343.65679 142.860963 
L 344.014405 145.305737 
L 344.649878 144.858614 
L 344.975109 145.648747 
L 345.283537 145.18129 
L 345.545392 145.891721 
L 345.848714 145.960438 
L 346.140776 145.492221 
L 346.373061 147.995646 
L 346.720627 145.090494 
L 347.002153 146.076839 
L 347.37904 143.112693 
L 347.617925 144.242122 
L 348.248331 138.528206 
L 348.524193 141.356296 
L 348.809633 142.4477 
L 349.032286 142.56996 
L 349.334831 143.132601 
L 349.667648 137.969292 
L 350.011992 137.387627 
L 350.339528 142.471801 
L 350.639563 141.0976 
L 350.98364 137.953994 
L 351.289997 138.669471 
L 351.864751 143.899672 
L 352.122754 144.359531 
L 352.379336 143.911199 
L 352.709018 144.299892 
L 353.018786 144.174278 
L 353.32769 146.08781 
L 353.677373 147.173551 
L 353.990096 145.60633 
L 354.318876 146.406631 
L 354.616322 146.378488 
L 354.851451 147.792596 
L 355.185804 146.305037 
L 355.479681 146.362343 
L 355.794969 146.945272 
L 356.040804 147.861195 
L 356.41725 146.89214 
L 356.668781 146.582227 
L 357.033078 142.93066 
L 357.299124 146.255936 
L 357.546492 145.836483 
L 358.194278 144.210381 
L 358.424975 145.227577 
L 358.779064 140.507423 
L 359.07801 138.37617 
L 359.430487 140.127117 
L 360.180587 141.43863 
L 360.494655 143.677366 
L 360.742033 144.445763 
L 360.996028 144.302381 
L 361.356612 142.417129 
L 361.583154 142.589782 
L 361.984222 145.561166 
L 362.26234 144.364947 
L 362.57372 145.156497 
L 362.992588 147.126436 
L 363.317712 143.253124 
L 363.564791 141.87874 
L 363.958039 141.726962 
L 364.195442 141.255155 
L 364.702357 141.952613 
L 365.017508 141.689853 
L 365.397791 143.975388 
L 365.722964 144.171903 
L 366.146074 146.14028 
L 366.465163 146.627839 
L 366.871222 144.557747 
L 367.485421 143.565559 
L 367.80957 141.318307 
L 368.130602 138.305747 
L 368.407684 137.235178 
L 368.958402 143.681128 
L 369.604953 143.000518 
L 369.933189 140.400263 
L 370.235572 135.239982 
L 370.492835 134.509281 
L 370.772963 137.401973 
L 371.009457 138.088591 
L 371.307919 137.100869 
L 371.569737 139.679364 
L 371.984211 140.830959 
L 372.343309 139.72923 
L 372.939036 143.727187 
L 373.215628 142.58955 
L 373.485332 143.838288 
L 373.758412 143.282597 
L 374.058396 143.138932 
L 374.412718 146.07052 
L 374.680835 144.213202 
L 374.932465 144.105323 
L 375.22585 145.465712 
L 375.454679 144.583844 
L 375.820372 146.051785 
L 376.069891 145.636761 
L 376.780354 141.354125 
L 377.046534 140.651036 
L 377.314881 139.536875 
L 377.604112 135.294575 
L 377.87628 133.962678 
L 378.127838 134.067761 
L 378.439057 130.622148 
L 378.993761 137.040941 
L 379.520808 133.742831 
L 379.796841 133.956296 
L 380.38483 139.466743 
L 380.684505 136.457185 
L 380.948 138.440606 
L 381.209811 138.670199 
L 381.518955 135.024338 
L 381.88801 133.924048 
L 382.235961 134.584831 
L 382.725327 134.194537 
L 383.127904 134.870902 
L 383.611767 130.622523 
L 383.883223 132.38094 
L 384.358709 133.627111 
L 384.654014 135.706686 
L 384.893702 141.703043 
L 385.454753 143.93662 
L 385.801859 143.665493 
L 386.245491 144.183203 
L 386.657552 143.884513 
L 386.968913 143.835698 
L 387.261495 146.825602 
L 387.57065 145.832109 
L 387.948918 145.318564 
L 388.253748 144.119374 
L 388.870131 139.060549 
L 389.273328 134.165929 
L 389.592725 133.399806 
L 390.09886 141.750418 
L 390.655622 136.833662 
L 391.006725 138.593529 
L 391.589043 145.400746 
L 391.866134 145.214602 
L 392.273929 141.70069 
L 392.70543 140.042936 
L 392.949504 141.347315 
L 393.250786 145.04869 
L 393.511756 145.577811 
L 393.814411 142.615137 
L 394.092819 144.077693 
L 394.337371 144.698655 
L 394.671422 144.475892 
L 394.919045 145.374067 
L 395.169598 144.907757 
L 395.457801 143.584634 
L 396.039362 143.991421 
L 396.40458 143.776985 
L 396.651455 145.308151 
L 396.985327 145.489737 
L 397.249483 145.164876 
L 397.795603 143.339256 
L 398.099147 145.201102 
L 398.727066 143.563608 
L 399.078685 143.134405 
L 399.499524 139.745637 
L 399.822252 141.930263 
L 400.089597 139.996875 
L 400.399126 141.659737 
L 400.686527 144.78444 
L 400.937497 142.945309 
L 401.198006 142.18101 
L 401.455319 143.107235 
L 401.928356 142.726599 
L 402.279364 142.798828 
L 402.537778 145.445158 
L 403.187084 137.095659 
L 403.45242 139.120121 
L 403.682344 139.509071 
L 403.966223 139.289952 
L 404.282374 140.305032 
L 404.824324 134.391451 
L 405.046608 135.702066 
L 405.680457 134.87854 
L 405.971591 136.496068 
L 406.529156 141.584304 
L 406.930458 138.254442 
L 407.262499 138.910229 
L 407.553881 142.23108 
L 407.882799 141.672939 
L 408.16325 137.576359 
L 408.467493 131.046286 
L 408.701839 133.934245 
L 409.266037 136.0855 
L 409.65799 141.716192 
L 409.988542 140.612295 
L 410.288281 143.420271 
L 410.545785 142.93215 
L 410.856991 138.562235 
L 411.125686 136.494903 
L 411.382947 137.645028 
L 411.669268 137.513858 
L 411.923024 138.259162 
L 412.243606 140.634855 
L 412.923489 134.1259 
L 413.294774 127.845097 
L 413.856777 136.276112 
L 414.138214 132.127179 
L 414.653123 138.03894 
L 415.155078 130.654875 
L 415.938227 132.419123 
L 416.193972 133.234418 
L 416.572422 135.569096 
L 416.95356 135.717723 
L 417.309323 136.080994 
L 417.651907 137.963994 
L 417.912587 140.61853 
L 418.234707 140.215491 
L 418.485011 142.923491 
L 418.751063 144.202345 
L 419.181317 142.043378 
L 419.524166 142.21531 
L 419.845466 142.839569 
L 420.265199 142.531482 
L 420.679288 142.815739 
L 421.158784 139.864497 
L 421.501818 135.269825 
L 421.75647 134.986212 
L 422.025742 137.459274 
L 422.54799 138.496674 
L 422.897011 140.4387 
L 423.292871 139.287428 
L 423.757597 135.808343 
L 424.052815 137.276159 
L 424.40578 140.148889 
L 424.719672 133.662471 
L 424.975181 132.996932 
L 425.321737 137.338667 
L 425.588265 138.470023 
L 425.947157 140.522815 
L 426.297745 141.731417 
L 426.652032 143.967033 
L 426.922918 144.568522 
L 427.497317 146.631511 
L 427.825544 140.282702 
L 428.076973 139.401457 
L 428.393096 139.621807 
L 428.997186 133.368119 
L 429.23748 134.147439 
L 429.785074 130.682395 
L 430.178338 132.231528 
L 430.549084 132.03539 
L 430.938687 135.249881 
L 431.317331 134.724046 
L 431.551135 136.185686 
L 431.902808 139.099064 
L 432.389455 133.828243 
L 432.711615 136.053667 
L 433.030109 145.040103 
L 433.36319 145.306607 
L 433.668636 140.858058 
L 433.977039 140.449659 
L 434.29909 141.228017 
L 434.54002 139.241831 
L 434.81777 140.684036 
L 435.162066 139.947995 
L 435.400346 134.787359 
L 435.687656 136.903954 
L 436.008011 137.840696 
L 436.30466 136.382238 
L 436.672832 138.790065 
L 436.983318 137.310766 
L 437.231826 142.184662 
L 437.497877 143.323582 
L 437.805891 141.074354 
L 438.029424 140.816259 
L 438.323652 140.858607 
L 438.600449 142.177556 
L 438.918166 139.54289 
L 439.278526 135.324734 
L 439.54443 134.966733 
L 440.079581 141.743731 
L 440.329364 141.646899 
L 441.064432 137.142436 
L 441.064432 137.142436 
" clip-path="url(#paeb603687a)" style="fill: none; stroke: #f04a4a; stroke-opacity: 0.45; stroke-width: 1.85; stroke-linecap: square"/>
   </g>
   <g id="patch_3">
    <path d="M 57.56625 167.976 
L 57.56625 7.2 
" style="fill: none; stroke: #222222; stroke-width: 0.75; stroke-linejoin: miter; stroke-linecap: square"/>
   </g>
   <g id="patch_4">
    <path d="M 57.56625 167.976 
L 459.32625 167.976 
" style="fill: none; stroke: #222222; stroke-width: 0.75; stroke-linejoin: miter; stroke-linecap: square"/>
   </g>
   <g id="line2d_16">
    <path d="M 75.828068 145.349434 
L 76.156831 145.690273 
L 76.839141 146.018507 
L 77.07618 146.278727 
L 77.36388 146.305404 
L 78.254406 145.625566 
L 78.592581 145.438821 
L 79.150856 143.979099 
L 79.509419 143.84692 
L 79.74248 143.633401 
L 80.055383 143.814228 
L 80.283329 144.088265 
L 80.866547 143.230734 
L 81.269789 143.151882 
L 81.503484 143.463217 
L 81.829991 143.322734 
L 82.150198 142.638291 
L 82.743252 142.258638 
L 83.200081 142.319904 
L 83.736618 143.442461 
L 84.342365 143.868636 
L 84.720073 144.547798 
L 85.037816 145.437273 
L 85.697116 145.850128 
L 86.560644 146.138267 
L 86.83205 146.125428 
L 87.332964 146.655654 
L 87.623411 146.583558 
L 88.003731 146.647137 
L 89.367465 146.084903 
L 89.665124 145.780077 
L 89.923697 145.237134 
L 90.201088 144.95601 
L 90.725836 144.872734 
L 91.092966 144.572279 
L 91.729063 143.680908 
L 92.983192 137.210936 
L 93.252844 134.576507 
L 94.364059 117.257328 
L 95.500381 101.998289 
L 95.78076 100.703408 
L 96.636854 99.022545 
L 96.887366 96.242165 
L 97.247379 93.863339 
L 97.755954 87.428731 
L 98.108459 82.547333 
L 98.926375 59.983591 
L 99.15185 53.484678 
L 99.830243 48.39812 
L 100.136625 47.38934 
L 100.388851 48.109529 
L 100.694467 50.306009 
L 100.994928 54.376056 
L 101.706874 68.146284 
L 103.18027 91.526998 
L 103.767419 99.27021 
L 104.0393 100.398712 
L 104.938222 111.118129 
L 105.467335 113.442706 
L 106.973484 124.660527 
L 107.574349 124.961751 
L 107.881697 124.694479 
L 108.180681 122.127991 
L 108.961299 109.941206 
L 109.284134 106.477992 
L 110.094369 94.700615 
L 110.40657 92.590244 
L 110.955949 91.771964 
L 111.8681 92.80343 
L 114.637804 122.271727 
L 114.904528 123.242529 
L 115.166689 123.73063 
L 116.254495 124.396906 
L 116.50414 124.246363 
L 117.065303 124.486782 
L 117.878072 127.899358 
L 118.505749 131.01321 
L 118.757856 131.158097 
L 119.017036 131.10041 
L 119.344705 130.688253 
L 119.63113 129.95681 
L 120.141184 128.20448 
L 120.440122 128.110139 
L 120.978813 127.437111 
L 121.238763 127.296012 
L 121.814991 125.988954 
L 122.096053 125.727043 
L 122.715771 124.660027 
L 122.956344 124.283355 
L 123.518493 121.671771 
L 124.045285 122.260325 
L 124.358604 123.051355 
L 124.917141 125.682282 
L 126.16965 130.864419 
L 126.45973 130.60171 
L 126.804275 129.882988 
L 128.099909 121.912564 
L 129.070481 118.9594 
L 129.342663 119.253058 
L 129.663882 120.520282 
L 130.491433 126.241496 
L 130.773183 128.87877 
L 131.041797 129.769475 
L 131.822003 134.372934 
L 132.194435 134.851237 
L 132.432876 134.821548 
L 132.68967 135.913244 
L 133.1432 136.4407 
L 133.534822 136.33229 
L 133.775212 137.069633 
L 134.337705 137.061845 
L 134.595477 137.676921 
L 134.88636 138.705968 
L 135.174275 140.330297 
L 135.412612 140.882377 
L 135.952056 142.998341 
L 136.371929 143.412136 
L 136.656184 144.304516 
L 137.544748 145.131786 
L 137.805358 144.881096 
L 138.048749 144.328274 
L 138.355379 142.336401 
L 139.450785 121.409516 
L 141.287213 95.726207 
L 141.535522 95.415988 
L 141.810422 95.47516 
L 142.093727 94.279356 
L 142.416257 95.418613 
L 142.701422 94.647029 
L 143.091959 95.009546 
L 143.387692 98.199444 
L 143.74085 97.230824 
L 144.021408 97.141708 
L 144.23772 98.040568 
L 145.291563 104.514335 
L 145.919227 110.309656 
L 146.198557 109.334177 
L 147.00406 116.098266 
L 147.330375 117.675343 
L 147.581532 118.304972 
L 148.007608 120.284046 
L 148.253598 122.676508 
L 148.541855 124.351479 
L 148.764346 126.505951 
L 149.374295 128.408781 
L 149.673807 128.713518 
L 149.959087 128.526512 
L 150.266094 129.780005 
L 150.85811 131.312869 
L 151.077623 132.828466 
L 151.504876 134.289964 
L 152.266073 139.437605 
L 152.564263 140.61805 
L 152.799747 140.546513 
L 153.108252 140.008527 
L 153.729809 137.439987 
L 154.330452 134.73486 
L 154.663651 133.779595 
L 154.972913 133.329312 
L 155.253518 133.25648 
L 156.161248 133.882473 
L 156.480624 133.574875 
L 156.829049 133.42654 
L 157.285039 132.551074 
L 157.55854 130.703303 
L 157.79071 127.997411 
L 158.412892 115.22595 
L 159.525542 93.004153 
L 160.113292 84.54623 
L 160.439861 83.698887 
L 160.719955 85.228268 
L 161.222528 92.42635 
L 161.561855 94.046109 
L 161.86621 96.934616 
L 162.40223 106.622341 
L 163.249735 114.35378 
L 163.533674 117.683333 
L 163.800847 116.388999 
L 164.37051 107.080946 
L 164.613024 94.871055 
L 165.039082 81.206794 
L 166.309056 20.422572 
L 167.216692 6.447242 
L 167.505878 11.783962 
L 167.804992 14.45897 
L 168.101724 20.332694 
L 168.374738 29.741584 
L 169.639762 61.569408 
L 171.047889 106.013698 
L 171.298504 110.274118 
L 171.936283 115.89587 
L 172.295112 116.377608 
L 172.637496 114.146451 
L 173.149323 112.639969 
L 174.348954 105.00914 
L 174.637935 101.131748 
L 175.230738 95.255274 
L 175.487447 89.758641 
L 176.39578 80.395451 
L 176.663426 77.251591 
L 176.969753 75.8998 
L 177.288 76.966437 
L 177.580483 78.439999 
L 177.986273 81.518039 
L 178.244559 85.317272 
L 178.771884 87.227352 
L 179.65655 95.035807 
L 179.900934 97.373801 
L 180.482866 99.818255 
L 183.304031 124.579165 
L 184.181818 128.525339 
L 184.454415 128.128418 
L 184.691446 128.005272 
L 185.29013 127.451956 
L 185.635334 126.871711 
L 185.885142 125.80055 
L 186.154738 125.190995 
L 186.522257 124.940026 
L 186.868909 124.940608 
L 187.139982 125.982473 
L 187.404401 125.67494 
L 188.616174 116.777228 
L 190.278516 94.669069 
L 191.011787 91.670775 
L 191.973523 86.26311 
L 192.348546 86.270416 
L 192.613058 87.87388 
L 193.306588 89.64292 
L 194.285574 94.994834 
L 194.525751 100.126247 
L 194.812721 102.612177 
L 195.138232 102.547892 
L 195.654512 107.842513 
L 196.942221 116.46298 
L 197.352138 120.028373 
L 197.743958 122.353309 
L 198.273399 131.316894 
L 199.109032 138.294299 
L 199.351082 139.591971 
L 199.724399 139.996661 
L 199.957864 139.647673 
L 200.734911 137.772736 
L 200.984099 136.748252 
L 201.874031 128.012536 
L 202.167189 127.252687 
L 202.673472 126.939167 
L 203.424548 124.064618 
L 203.718816 122.034949 
L 204.022345 120.778515 
L 204.871468 105.414367 
L 205.317178 97.044949 
L 205.857377 81.963794 
L 206.567628 71.229615 
L 206.937903 67.003971 
L 207.478579 64.536022 
L 207.752519 64.364727 
L 208.02696 65.29277 
L 208.826639 74.256545 
L 209.227057 75.06437 
L 212.254405 109.069604 
L 212.809763 111.587759 
L 213.113054 111.277658 
L 213.569791 111.87825 
L 213.973083 112.88115 
L 214.306072 112.845154 
L 214.627422 112.348457 
L 214.929847 111.63028 
L 215.165918 110.436373 
L 215.426962 109.926004 
L 215.746697 110.059128 
L 215.991269 106.295317 
L 217.146868 97.38933 
L 217.604324 92.951214 
L 217.911159 88.157723 
L 218.20744 86.981269 
L 218.47193 86.404788 
L 218.79621 85.413749 
L 219.012988 88.072003 
L 219.388987 89.588091 
L 220.05069 85.042912 
L 220.346078 84.516137 
L 220.676601 82.76592 
L 220.993535 80.372274 
L 221.539074 68.377106 
L 221.810487 65.935485 
L 222.143538 61.625701 
L 222.460422 60.443437 
L 222.723384 60.507724 
L 223.084111 59.358942 
L 223.33978 61.46989 
L 223.579865 58.657883 
L 223.892382 57.916669 
L 224.1979 60.71036 
L 224.430697 60.635117 
L 224.893342 62.67462 
L 225.484478 68.238681 
L 226.415031 81.195979 
L 227.012227 93.898 
L 227.886421 106.036998 
L 228.386583 109.778102 
L 229.2427 111.12684 
L 229.519345 111.115021 
L 229.812766 110.43732 
L 230.387724 106.164683 
L 230.664449 106.639975 
L 230.961053 105.638603 
L 231.720038 100.226793 
L 231.957743 99.597803 
L 232.319347 100.815769 
L 232.613804 103.033254 
L 233.17364 108.295721 
L 233.445633 109.602177 
L 233.731601 113.033339 
L 234.987661 132.608978 
L 235.380041 134.569767 
L 235.639462 136.642567 
L 236.19079 142.460915 
L 236.457851 141.782722 
L 236.770548 140.145898 
L 237.036698 137.231393 
L 237.272356 132.059811 
L 237.660862 127.280078 
L 238.444158 109.887102 
L 239.660608 83.556115 
L 240.05506 70.062202 
L 240.26596 54.202657 
L 240.563997 43.338189 
L 240.924286 34.986568 
L 241.610724 16.484414 
L 241.906309 11.889002 
L 242.460857 -1 
M 247.767946 -1 
L 248.169154 17.434747 
L 248.676199 14.569657 
L 248.929083 9.623097 
L 249.228875 11.166634 
L 249.641189 16.548659 
L 250.040486 19.123704 
L 250.867401 32.006835 
L 251.184246 35.483334 
L 252.049826 67.268934 
L 252.346465 72.316031 
L 253.442189 86.40656 
L 254.03759 93.482179 
L 254.646905 95.909905 
L 255.058858 98.101934 
L 258.400993 133.50867 
L 259.00024 137.771289 
L 259.570193 138.731021 
L 260.997258 143.130367 
L 261.26853 143.270614 
L 261.582911 143.570579 
L 262.521436 145.050507 
L 263.561253 145.67394 
L 264.028258 145.717373 
L 264.51085 145.486135 
L 265.714059 143.689105 
L 265.942425 143.697226 
L 266.830632 143.463936 
L 267.088912 143.854533 
L 267.088912 143.854533 
" clip-path="url(#paeb603687a)" style="fill: none; stroke: #0b6fff; stroke-opacity: 0.98; stroke-width: 1.25; stroke-linecap: square"/>
   </g>
   <g id="line2d_17">
    <path d="M 75.828068 143.447674 
L 76.053377 142.956094 
L 76.344815 143.167843 
L 76.709963 143.580583 
L 76.991304 143.666151 
L 77.236048 143.574018 
L 77.535982 143.150674 
L 77.919178 143.05615 
L 78.238953 143.606856 
L 78.491952 144.632726 
L 78.777067 145.013223 
L 79.038493 144.743559 
L 79.554735 143.911066 
L 79.840497 144.276428 
L 80.130165 144.020838 
L 80.673364 143.39757 
L 81.169819 143.009566 
L 81.703036 143.217895 
L 82.052246 143.493377 
L 82.299916 143.317507 
L 82.582918 142.510853 
L 83.162169 141.6763 
L 83.994453 140.166944 
L 84.881711 138.859945 
L 85.242894 137.14932 
L 86.158373 134.375767 
L 86.542558 133.829889 
L 86.862251 131.848169 
L 88.240256 126.308718 
L 88.913098 124.817434 
L 89.167546 123.667311 
L 89.46651 123.297071 
L 89.725335 123.589689 
L 90.04737 124.604902 
L 90.326543 126.411012 
L 90.952151 127.211424 
L 91.760593 129.816888 
L 92.323504 131.809894 
L 93.910966 140.238173 
L 94.209268 142.227241 
L 94.810565 144.597237 
L 95.149779 145.338402 
L 95.841233 145.574979 
L 96.221148 145.782243 
L 97.035426 146.647241 
L 97.341309 146.682918 
L 97.611862 146.899391 
L 98.157034 147.50673 
L 98.473862 147.713522 
L 100.798497 147.524027 
L 101.7443 147.024737 
L 101.965645 146.988553 
L 102.959934 146.417597 
L 104.268071 146.217389 
L 104.585067 146.232759 
L 105.541172 146.530871 
L 106.374773 146.040386 
L 107.26627 146.41532 
L 107.553408 146.134446 
L 108.424733 146.556819 
L 108.928377 146.951862 
L 109.503869 146.586432 
L 110.034745 146.510359 
L 111.22857 145.825028 
L 111.521821 145.272652 
L 111.779583 145.437239 
L 112.080779 145.280171 
L 112.37419 144.905427 
L 112.657063 144.872744 
L 113.039784 144.645152 
L 113.650861 143.926098 
L 113.925074 144.035866 
L 114.24709 144.294057 
L 115.047729 140.09343 
L 115.638938 136.227566 
L 115.883249 135.144503 
L 116.142409 132.898364 
L 116.575061 130.546344 
L 116.847153 129.695021 
L 117.076645 129.879533 
L 117.529264 131.122534 
L 117.772808 132.598082 
L 118.626561 136.170073 
L 118.993138 137.224003 
L 119.339926 139.469519 
L 119.599667 142.197689 
L 119.838572 143.252541 
L 120.435297 144.529107 
L 120.689179 144.654606 
L 121.297623 145.489329 
L 121.530191 145.975476 
L 121.824176 146.265195 
L 122.099139 146.129416 
L 122.433591 146.232172 
L 122.681403 146.590063 
L 123.283149 146.377605 
L 124.453316 146.339007 
L 124.807221 146.195895 
L 125.115107 145.893455 
L 125.447162 145.933145 
L 125.964855 146.434488 
L 126.785722 146.400721 
L 127.81629 147.190736 
L 128.114115 147.198386 
L 128.434267 147.331237 
L 128.774035 147.347228 
L 129.393923 147.067455 
L 129.953576 146.350601 
L 130.197286 146.346827 
L 130.441507 145.793632 
L 130.769022 145.815848 
L 130.99161 145.526818 
L 131.276848 144.932065 
L 131.557889 145.00514 
L 131.855706 144.523181 
L 132.149447 144.529949 
L 132.441522 144.373936 
L 132.838884 143.511577 
L 133.235383 143.285493 
L 133.759315 142.192754 
L 134.340116 141.955072 
L 135.284167 142.322601 
L 135.855586 143.434284 
L 136.809507 144.220502 
L 137.066241 143.985662 
L 137.347323 144.022568 
L 137.939421 143.345238 
L 138.264402 143.086729 
L 138.562216 143.056393 
L 138.814044 142.54819 
L 140.018164 138.233919 
L 140.804748 135.896023 
L 141.452392 133.941638 
L 141.695478 133.959792 
L 142.303196 135.703945 
L 142.601561 135.854498 
L 143.201781 137.27653 
L 143.773865 139.16454 
L 144.001761 140.295052 
L 144.337907 140.674136 
L 144.614205 140.701623 
L 144.854314 141.434857 
L 145.296849 142.349267 
L 145.84779 141.984264 
L 146.197144 142.070093 
L 146.460461 141.802886 
L 146.747587 142.125237 
L 146.982399 143.085008 
L 147.277244 143.759186 
L 147.506256 143.609893 
L 147.899728 143.734846 
L 148.153015 144.327111 
L 148.709814 144.038241 
L 149.025793 144.094585 
L 149.28064 143.811623 
L 150.223113 143.173907 
L 150.500209 143.191373 
L 150.768161 143.643945 
L 151.020991 144.45312 
L 151.379575 144.588391 
L 151.66674 144.818971 
L 151.951178 145.290512 
L 152.22859 145.147491 
L 152.621314 145.24901 
L 153.222849 145.595123 
L 153.552484 145.507334 
L 153.894563 145.072938 
L 154.445355 145.673419 
L 155.082862 145.461576 
L 156.019297 146.061957 
L 156.276793 145.996584 
L 157.055214 146.504121 
L 157.70689 146.18072 
L 158.399883 146.523164 
L 158.944029 146.42986 
L 159.604711 146.568697 
L 160.09686 147.03923 
L 160.476042 147.196156 
L 161.115948 147.232909 
L 161.735255 147.484207 
L 162.013653 147.349063 
L 162.249265 147.422415 
L 162.864772 147.403855 
L 163.095277 147.511473 
L 163.922593 147.559835 
L 164.259827 147.680467 
L 164.59555 147.473484 
L 164.924103 147.697216 
L 165.721452 147.611123 
L 166.042038 147.531032 
L 166.921637 147.658438 
L 167.158695 147.685973 
L 167.435849 147.864 
L 167.877667 147.85047 
L 168.3221 147.654871 
L 168.615962 147.68983 
L 169.813581 147.326927 
L 170.439093 147.048179 
L 170.789195 146.912768 
L 171.309058 147.109672 
L 171.661828 147.231346 
L 171.978594 147.108247 
L 173.052246 147.505576 
L 174.405459 147.574336 
L 175.036258 147.447146 
L 175.419276 147.222053 
L 176.300291 146.962517 
L 176.545181 147.099293 
L 177.078168 147.030148 
L 177.979297 146.479159 
L 178.47768 146.549333 
L 178.791728 146.513296 
L 179.33085 145.806312 
L 179.66638 145.732685 
L 179.953948 145.495226 
L 180.679692 145.710486 
L 181.056878 145.228164 
L 181.343472 144.626489 
L 181.685087 144.2593 
L 182.99054 143.886738 
L 183.314065 143.564645 
L 183.662056 143.545354 
L 184.007883 143.860428 
L 184.392863 143.940584 
L 184.797925 143.612142 
L 185.175898 143.633157 
L 185.803548 143.232778 
L 186.035702 142.984475 
L 186.620299 139.722038 
L 187.007332 138.837614 
L 187.293581 137.793439 
L 187.635514 137.239709 
L 188.197124 135.147179 
L 188.511603 134.831577 
L 188.847933 134.783117 
L 189.354436 136.058154 
L 189.601757 137.402247 
L 189.974371 138.251988 
L 191.240885 143.610507 
L 192.369871 145.374899 
L 193.22798 145.616064 
L 193.542661 145.563926 
L 194.123794 145.709831 
L 194.480096 145.721143 
L 194.784974 146.072703 
L 195.113452 146.259427 
L 196.134492 145.95042 
L 197.458571 146.430483 
L 197.826867 146.359425 
L 198.100638 146.498988 
L 198.605098 146.590842 
L 198.89682 146.844405 
L 199.222863 146.779954 
L 199.564992 146.552192 
L 200.439217 146.482272 
L 200.760455 146.557748 
L 201.342524 146.321277 
L 201.917306 146.649168 
L 202.222825 146.828061 
L 202.583881 146.752714 
L 203.112522 146.90579 
L 203.455397 147.020177 
L 204.046594 147.090611 
L 204.329222 147.119594 
L 204.588353 146.989378 
L 204.922307 147.093745 
L 205.194212 147.36302 
L 205.481995 147.210953 
L 206.723983 147.290371 
L 207.604643 146.217812 
L 207.88002 145.574423 
L 208.204025 145.573032 
L 208.511924 145.35988 
L 208.805113 145.311333 
L 209.099338 145.077985 
L 209.390341 144.516109 
L 209.758035 144.381076 
L 210.065714 144.149633 
L 210.541385 143.566645 
L 210.975785 142.856167 
L 211.956882 139.708739 
L 213.150903 125.606466 
L 213.611887 122.978423 
L 214.391624 117.837814 
L 215.219429 112.249016 
L 215.509578 111.588337 
L 216.434073 113.320572 
L 216.683617 113.256937 
L 216.976253 113.97627 
L 217.549384 116.609895 
L 218.192526 121.471581 
L 218.4744 123.055776 
L 219.42533 131.019991 
L 219.918408 134.677584 
L 220.468172 138.121374 
L 220.931729 139.262661 
L 221.496621 141.287517 
L 221.843019 141.813941 
L 222.266285 142.103283 
L 222.879159 143.017446 
L 223.184989 142.805535 
L 223.742198 142.013456 
L 223.986495 141.777435 
L 224.975767 141.594413 
L 225.475995 142.300772 
L 226.096973 141.914501 
L 226.858091 142.399047 
L 227.263097 142.578643 
L 228.545234 141.143147 
L 228.900317 141.291653 
L 230.027279 140.063379 
L 230.26244 140.269947 
L 230.61455 140.009279 
L 230.922632 139.6105 
L 231.217164 139.519132 
L 231.479904 138.488946 
L 231.832381 137.857588 
L 232.198145 138.627306 
L 232.688797 138.868691 
L 233.255613 138.56847 
L 233.916958 138.746902 
L 234.189871 138.515326 
L 234.443959 138.498299 
L 235.03955 140.196984 
L 235.285819 138.795386 
L 235.624123 138.056771 
L 235.916101 137.909762 
L 237.327891 132.373185 
L 237.618989 130.455472 
L 238.752196 115.672927 
L 239.272776 108.798859 
L 239.587883 106.275174 
L 240.027679 104.925542 
L 240.342448 102.642088 
L 240.659675 102.452256 
L 240.995004 104.835917 
L 241.300347 105.655632 
L 244.119014 134.042365 
L 244.930841 138.781507 
L 246.106424 142.78814 
L 246.500678 143.200445 
L 247.190256 144.587696 
L 247.643739 143.127223 
L 248.236811 139.443898 
L 248.485781 137.249127 
L 249.049581 134.311491 
L 249.936377 131.863252 
L 250.182757 132.620364 
L 251.767682 139.157206 
L 252.267956 140.014572 
L 252.639325 140.606183 
L 252.976109 141.355866 
L 253.264226 141.694045 
L 253.87332 141.268161 
L 254.125877 141.020355 
L 254.417589 141.02245 
L 254.948528 142.149903 
L 255.275066 141.947774 
L 255.602382 141.945312 
L 255.882678 142.232193 
L 256.795925 144.394314 
L 257.08141 144.669712 
L 257.35788 144.684486 
L 258.189263 145.565984 
L 258.427067 145.757017 
L 259.030427 145.972789 
L 260.2898 146.747205 
L 260.630963 146.718155 
L 261.155217 146.926812 
L 261.423837 147.04212 
L 262.257913 146.629811 
L 262.954428 144.327095 
L 263.642908 141.401696 
L 264.316713 139.980077 
L 264.61273 139.421968 
L 264.876798 139.233418 
L 265.198228 139.577233 
L 265.781235 141.511798 
L 266.289044 144.503117 
L 266.655067 145.390874 
L 267.22234 145.589834 
L 267.594419 145.88782 
L 267.873395 145.813879 
L 268.285086 145.519577 
L 268.612345 144.798586 
L 269.115519 144.019336 
L 269.97366 142.179957 
L 270.286643 142.089267 
L 270.638768 141.581703 
L 270.948919 141.396459 
L 271.341693 141.597937 
L 271.847047 142.312734 
L 272.183086 143.058821 
L 272.822044 143.786454 
L 273.163335 144.102298 
L 273.482446 144.232743 
L 274.047973 143.983574 
L 275.638674 144.294958 
L 275.929908 143.901241 
L 276.238792 143.706223 
L 276.910837 143.612145 
L 277.196794 143.579885 
L 278.002615 143.013517 
L 278.296275 143.308664 
L 278.906091 144.710151 
L 279.539768 145.210356 
L 280.517902 145.122196 
L 281.15273 144.874258 
L 281.481191 144.375913 
L 282.078219 142.128846 
L 282.359067 141.839175 
L 282.746354 141.207367 
L 283.893593 140.46153 
L 284.13145 140.755846 
L 284.706943 142.500292 
L 285.883837 144.020846 
L 286.192603 144.270479 
L 287.020369 143.303857 
L 287.641688 142.135579 
L 287.925351 141.449169 
L 288.894239 140.46862 
L 289.151105 140.951611 
L 289.433912 141.139403 
L 289.743664 140.951394 
L 290.079952 141.11623 
L 290.462308 141.818124 
L 290.773842 142.128143 
L 291.484326 140.813394 
L 291.941829 140.404296 
L 292.319604 139.404764 
L 292.778396 138.850045 
L 293.096013 138.995311 
L 293.74037 138.624019 
L 294.093753 138.790887 
L 294.958709 141.213364 
L 295.541222 143.107348 
L 296.127208 143.38088 
L 296.430799 143.310458 
L 296.732753 143.407405 
L 297.563181 144.445139 
L 297.925421 144.526226 
L 298.823177 145.456337 
L 299.13766 146.178715 
L 299.428243 146.27322 
L 299.747246 146.133602 
L 300.021997 145.52115 
L 300.350152 145.11636 
L 300.953327 145.083759 
L 301.617758 144.760938 
L 301.849403 144.946391 
L 302.709954 142.630055 
L 303.100679 142.697401 
L 303.513006 142.92026 
L 303.866639 142.75216 
L 304.795902 142.738027 
L 305.214711 142.347278 
L 305.495801 142.814687 
L 306.111709 144.239267 
L 306.349239 144.562647 
L 306.637185 144.557607 
L 306.929719 144.71421 
L 307.329354 144.461408 
L 307.672462 144.080936 
L 308.320509 142.898047 
L 308.822361 142.285989 
L 309.224481 141.54897 
L 309.577237 141.405831 
L 309.904732 141.550439 
L 310.215435 141.423083 
L 310.469576 141.782864 
L 310.752802 142.56708 
L 311.004762 143.605125 
L 311.684242 145.074662 
L 311.943895 145.957514 
L 312.197414 146.181153 
L 312.818715 146.135083 
L 313.187006 145.192998 
L 313.502894 144.043674 
L 313.825136 143.510517 
L 315.641416 139.317577 
L 315.862749 139.121297 
L 316.237047 139.414053 
L 316.519622 139.947442 
L 316.859652 139.499422 
L 317.214078 139.692541 
L 317.504837 140.807527 
L 317.793772 141.134992 
L 318.114266 141.205635 
L 318.884924 139.73019 
L 319.498439 138.928285 
L 320.033037 136.77754 
L 321.250856 135.855146 
L 321.526115 136.165389 
L 322.528751 136.954569 
L 322.817892 137.887549 
L 323.736017 139.631625 
L 323.982642 140.148201 
L 324.695386 139.224303 
L 325.091526 139.017895 
L 325.501661 138.501094 
L 325.889484 137.804729 
L 326.113499 136.688728 
L 327.006401 134.835061 
L 327.296215 134.679352 
L 328.449123 136.418075 
L 328.751706 137.357822 
L 329.022323 137.75694 
L 329.312824 137.511579 
L 329.990691 137.985163 
L 330.318753 137.744054 
L 330.861619 137.775349 
L 331.179763 137.932533 
L 331.489787 137.955622 
L 331.880183 137.762897 
L 332.178321 138.14523 
L 334.418655 144.067053 
L 334.741997 144.130334 
L 335.273961 143.221459 
L 335.524554 142.927832 
L 336.277848 141.361624 
L 337.037061 140.741155 
L 337.401744 140.774702 
L 337.770844 141.266604 
L 338.322388 142.462573 
L 338.791003 143.182119 
L 339.449344 144.931681 
L 340.012582 145.276353 
L 340.274689 145.571921 
L 340.674088 145.603524 
L 341.417933 144.749394 
L 341.957344 144.356519 
L 342.385306 144.285091 
L 343.3182 144.372376 
L 344.014405 144.114625 
L 344.352275 144.281548 
L 344.975109 145.140883 
L 345.283537 145.711403 
L 345.545392 145.687487 
L 345.848714 145.799556 
L 346.373061 145.449274 
L 346.720627 144.999557 
L 347.002153 144.181388 
L 347.617925 143.331537 
L 347.919866 142.728683 
L 348.248331 142.511139 
L 348.809633 140.974182 
L 349.032286 140.77748 
L 349.667648 140.709652 
L 350.339528 140.264099 
L 350.98364 140.54817 
L 351.596347 141.976412 
L 351.864751 142.165576 
L 352.122754 142.720044 
L 352.379336 143.744439 
L 353.018786 145.102099 
L 354.851451 146.759049 
L 355.185804 146.727781 
L 355.479681 146.836214 
L 355.794969 146.449995 
L 356.040804 146.436378 
L 357.299124 145.619642 
L 357.929654 143.856337 
L 358.194278 143.139102 
L 358.424975 142.901901 
L 358.779064 142.366645 
L 359.07801 142.126743 
L 359.786358 142.099809 
L 360.180587 141.787537 
L 360.494655 142.01891 
L 360.996028 143.288113 
L 361.356612 143.772629 
L 361.583154 144.404607 
L 361.984222 144.357469 
L 362.57372 143.786087 
L 363.317712 143.586182 
L 363.564791 143.156036 
L 364.195442 143.003352 
L 364.702357 142.89378 
L 365.397791 143.566415 
L 366.146074 144.084422 
L 366.465163 144.013944 
L 366.871222 143.637932 
L 367.177002 142.88902 
L 367.80957 142.188789 
L 368.642385 141.23918 
L 369.243401 139.557557 
L 369.604953 139.457138 
L 369.933189 139.551962 
L 371.009457 138.108946 
L 371.307919 138.243936 
L 371.569737 139.186959 
L 373.485332 143.133853 
L 374.058396 144.047924 
L 374.412718 144.143108 
L 374.932465 144.727631 
L 375.22585 144.673238 
L 375.454679 144.474926 
L 376.069891 143.35317 
L 376.487555 142.374198 
L 377.046534 139.927629 
L 377.604112 137.013402 
L 378.759426 134.279817 
L 378.993761 134.476956 
L 379.273741 135.088519 
L 379.520808 135.35401 
L 379.796841 136.222728 
L 380.086652 136.648488 
L 380.684505 136.305675 
L 381.209811 136.425702 
L 381.518955 136.181488 
L 381.88801 135.198797 
L 382.725327 134.211048 
L 383.127904 133.881769 
L 383.611767 134.623847 
L 383.883223 135.643757 
L 384.358709 136.682845 
L 384.893702 138.769874 
L 385.801859 142.982678 
L 386.245491 144.107725 
L 386.657552 144.509449 
L 386.968913 144.622353 
L 387.261495 144.382524 
L 387.57065 143.870863 
L 388.563349 140.998585 
L 389.273328 139.602931 
L 389.859525 138.046181 
L 390.09886 138.004796 
L 390.428327 138.709262 
L 390.655622 139.936893 
L 391.006725 140.859213 
L 391.288844 141.032076 
L 391.589043 140.987286 
L 392.273929 142.703557 
L 392.949504 143.447291 
L 393.511756 143.287202 
L 394.337371 144.484482 
L 394.919045 144.165295 
L 395.783023 144.519005 
L 396.039362 144.595559 
L 396.651455 144.299603 
L 397.249483 144.544175 
L 397.795603 144.425243 
L 398.099147 143.807186 
L 398.424093 143.411689 
L 398.727066 142.837466 
L 399.078685 142.546441 
L 399.499524 142.707017 
L 400.089597 142.215698 
L 400.686527 142.119678 
L 401.198006 142.849466 
L 401.455319 142.951317 
L 401.928356 142.444197 
L 402.537778 141.433024 
L 403.187084 140.80044 
L 403.45242 140.18032 
L 403.966223 138.163602 
L 404.512982 137.291545 
L 405.046608 136.922789 
L 405.359261 137.177717 
L 405.680457 136.949874 
L 405.971591 137.145952 
L 406.197273 138.017022 
L 406.529156 138.680452 
L 406.930458 138.935365 
L 408.16325 137.21311 
L 408.701839 137.786868 
L 409.65799 138.168454 
L 410.288281 139.186166 
L 410.856991 139.684011 
L 411.125686 139.563862 
L 411.382947 139.10347 
L 411.669268 138.070762 
L 411.923024 136.394423 
L 412.243606 135.579286 
L 412.630547 135.554976 
L 412.923489 134.941881 
L 413.539516 134.701331 
L 413.856777 133.592444 
L 414.138214 133.020659 
L 414.380294 132.831017 
L 414.653123 133.429831 
L 415.155078 133.912397 
L 415.474855 133.850354 
L 416.572422 134.842384 
L 417.309323 137.193651 
L 417.912587 139.481671 
L 418.485011 141.011456 
L 418.751063 141.728177 
L 419.181317 142.267259 
L 419.524166 142.183478 
L 421.158784 139.564072 
L 422.025742 138.523677 
L 422.318972 137.745077 
L 422.54799 137.457484 
L 422.897011 137.999603 
L 423.292871 137.85252 
L 423.757597 137.356704 
L 424.40578 137.269735 
L 424.719672 137.279081 
L 424.975181 137.550635 
L 426.922918 142.336948 
L 427.176831 142.464924 
L 427.497317 141.974556 
L 427.825544 141.045301 
L 428.689758 136.947752 
L 429.23748 134.431385 
L 429.785074 133.425903 
L 430.178338 133.434368 
L 430.549084 134.07114 
L 430.938687 134.035674 
L 431.317331 134.454433 
L 431.551135 136.049734 
L 431.902808 137.502521 
L 433.030109 139.783234 
L 433.668636 140.298913 
L 433.977039 140.978886 
L 434.29909 140.838185 
L 434.81777 139.104623 
L 435.687656 137.98766 
L 436.30466 138.607924 
L 436.672832 138.733075 
L 437.497877 140.324232 
L 437.805891 140.675416 
L 438.029424 140.290379 
L 438.323652 140.029931 
L 438.600449 139.582753 
L 438.918166 139.407214 
L 439.278526 139.470831 
L 439.54443 139.302924 
L 440.329364 138.063842 
L 441.064432 138.507553 
L 441.064432 138.507553 
" clip-path="url(#paeb603687a)" style="fill: none; stroke: #f04a4a; stroke-opacity: 0.98; stroke-width: 1.25; stroke-linecap: square"/>
   </g>
   <g id="legend_1">
    <g id="line2d_18">
     <path d="M 314.572578 18.333672 
L 323.072578 18.333672 
L 331.572578 18.333672 
" style="fill: none; stroke: #0b6fff; stroke-width: 2; stroke-linecap: square"/>
    </g>
    <g id="text_16">
     <text style="font-size: 8.5px; font-family: 'Arial', 'Helvetica', 'DejaVu Sans', sans-serif; text-anchor: start" x="338.372578" y="21.308672" transform="rotate(-0 338.372578 21.308672)">Full-joint</text>
    </g>
    <g id="line2d_19">
     <path d="M 391.613125 18.333672 
L 400.113125 18.333672 
L 408.613125 18.333672 
" style="fill: none; stroke: #f04a4a; stroke-width: 2; stroke-linecap: square"/>
    </g>
    <g id="text_17">
     <text style="font-size: 8.5px; font-family: 'Arial', 'Helvetica', 'DejaVu Sans', sans-serif; text-anchor: start" x="415.413125" y="21.308672" transform="rotate(-0 415.413125 21.308672)">Darboux</text>
    </g>
   </g>
  </g>
 </g>
 <defs>
  <clipPath id="paeb603687a">
   <rect x="57.56625" y="7.2" width="401.76" height="160.776"/>
  </clipPath>
 </defs>
</svg>
