<?xml version="1.0" encoding="utf-8" standalone="no"?>
<!DOCTYPE svg PUBLIC "-//W3C//DTD SVG 1.1//EN"
  "http://www.w3.org/Graphics/SVG/1.1/DTD/svg11.dtd">
<svg xmlns:xlink="http://www.w3.org/1999/xlink" width="420.881054pt" height="169.317187pt" viewBox="0 0 420.881054 169.317187" xmlns="http://www.w3.org/2000/svg" version="1.1">
 <metadata>
  <rdf:RDF xmlns:dc="http://purl.org/dc/elements/1.1/" xmlns:cc="http://creativecommons.org/ns#" xmlns:rdf="http://www.w3.org/1999/02/22-rdf-syntax-ns#">
   <cc:Work>
    <dc:type rdf:resource="http://purl.org/dc/dcmitype/StillImage"/>
    <dc:date>2026-06-15T20:39:39.676810</dc:date>
    <dc:format>image/svg+xml</dc:format>
    <dc:creator>
     <cc:Agent>
      <dc:title>Matplotlib v3.10.8, https://matplotlib.org/</dc:title>
     </cc:Agent>
    </dc:creator>
   </cc:Work>
  </rdf:RDF>
 </metadata>
 <defs>
  <style type="text/css">*{stroke-linejoin: round; stroke-linecap: butt}</style>
 </defs>
 <g id="figure_1">
  <g id="patch_1">
   <path d="M 0 169.317187 
L 420.881054 169.317187 
L 420.881054 0 
L 0 0 
z
" style="fill: #ffffff"/>
  </g>
  <g id="axes_1">
   <g id="patch_2">
    <path d="M 55.889771 137.1 
L 408.11496 137.1 
L 408.11496 7.2 
L 55.889771 7.2 
z
" style="fill: #ffffff"/>
   </g>
   <g id="matplotlib.axis_1">
    <g id="xtick_1">
     <g id="line2d_1">
      <defs>
       <path id="m155542e471" d="M 0 0 
L 0 3 
" style="stroke: #222222; stroke-width: 0.8"/>
      </defs>
      <g>
       <use xlink:href="#m155542e471" x="55.889771" y="137.1" style="fill: #222222; stroke: #222222; stroke-width: 0.8"/>
      </g>
     </g>
     <g id="text_1">
      <text style="font-size: 7px; font-family: 'Arial', 'Helvetica', 'DejaVu Sans', sans-serif; text-anchor: middle; fill: #222222" x="55.889771" y="148.918906" transform="rotate(-0 55.889771 148.918906)">0.0</text>
     </g>
    </g>
    <g id="xtick_2">
     <g id="line2d_2">
      <g>
       <use xlink:href="#m155542e471" x="126.334809" y="137.1" style="fill: #222222; stroke: #222222; stroke-width: 0.8"/>
      </g>
     </g>
     <g id="text_2">
      <text style="font-size: 7px; font-family: 'Arial', 'Helvetica', 'DejaVu Sans', sans-serif; text-anchor: middle; fill: #222222" x="126.334809" y="148.918906" transform="rotate(-0 126.334809 148.918906)">0.2</text>
     </g>
    </g>
    <g id="xtick_3">
     <g id="line2d_3">
      <g>
       <use xlink:href="#m155542e471" x="196.779846" y="137.1" style="fill: #222222; stroke: #222222; stroke-width: 0.8"/>
      </g>
     </g>
     <g id="text_3">
      <text style="font-size: 7px; font-family: 'Arial', 'Helvetica', 'DejaVu Sans', sans-serif; text-anchor: middle; fill: #222222" x="196.779846" y="148.918906" transform="rotate(-0 196.779846 148.918906)">0.4</text>
     </g>
    </g>
    <g id="xtick_4">
     <g id="line2d_4">
      <g>
       <use xlink:href="#m155542e471" x="267.224884" y="137.1" style="fill: #222222; stroke: #222222; stroke-width: 0.8"/>
      </g>
     </g>
     <g id="text_4">
      <text style="font-size: 7px; font-family: 'Arial', 'Helvetica', 'DejaVu Sans', sans-serif; text-anchor: middle; fill: #222222" x="267.224884" y="148.918906" transform="rotate(-0 267.224884 148.918906)">0.6</text>
     </g>
    </g>
    <g id="xtick_5">
     <g id="line2d_5">
      <g>
       <use xlink:href="#m155542e471" x="337.669922" y="137.1" style="fill: #222222; stroke: #222222; stroke-width: 0.8"/>
      </g>
     </g>
     <g id="text_5">
      <text style="font-size: 7px; font-family: 'Arial', 'Helvetica', 'DejaVu Sans', sans-serif; text-anchor: middle; fill: #222222" x="337.669922" y="148.918906" transform="rotate(-0 337.669922 148.918906)">0.8</text>
     </g>
    </g>
    <g id="xtick_6">
     <g id="line2d_6">
      <g>
       <use xlink:href="#m155542e471" x="408.11496" y="137.1" style="fill: #222222; stroke: #222222; stroke-width: 0.8"/>
      </g>
     </g>
     <g id="text_6">
      <text style="font-size: 7px; font-family: 'Arial', 'Helvetica', 'DejaVu Sans', sans-serif; text-anchor: middle; fill: #222222" x="408.11496" y="148.918906" transform="rotate(-0 408.11496 148.918906)">1.0</text>
     </g>
    </g>
    <g id="text_7">
     <text style="font-size: 8px; font-family: 'Arial', 'Helvetica', 'DejaVu Sans', sans-serif; text-anchor: middle" x="232.002365" y="160.453437" transform="rotate(-0 232.002365 160.453437)">Normalized arc length</text>
    </g>
   </g>
   <g id="matplotlib.axis_2">
    <g id="ytick_1">
     <g id="line2d_7">
      <defs>
       <path id="md9dfe687b0" d="M 0 0 
L -3 0 
" style="stroke: #222222; stroke-width: 0.8"/>
      </defs>
      <g>
       <use xlink:href="#md9dfe687b0" x="55.889771" y="131.218749" style="fill: #222222; stroke: #222222; stroke-width: 0.8"/>
      </g>
     </g>
     <g id="text_8">
      <text style="font-size: 7px; font-family: 'Arial', 'Helvetica', 'DejaVu Sans', sans-serif; text-anchor: end; fill: #222222" x="49.389771" y="133.878202" transform="rotate(-0 49.389771 133.878202)">0</text>
     </g>
    </g>
    <g id="ytick_2">
     <g id="line2d_8">
      <g>
       <use xlink:href="#md9dfe687b0" x="55.889771" y="114.438915" style="fill: #222222; stroke: #222222; stroke-width: 0.8"/>
      </g>
     </g>
     <g id="text_9">
      <text style="font-size: 7px; font-family: 'Arial', 'Helvetica', 'DejaVu Sans', sans-serif; text-anchor: end; fill: #222222" x="49.389771" y="117.098368" transform="rotate(-0 49.389771 117.098368)">50</text>
     </g>
    </g>
    <g id="ytick_3">
     <g id="line2d_9">
      <g>
       <use xlink:href="#md9dfe687b0" x="55.889771" y="97.65908" style="fill: #222222; stroke: #222222; stroke-width: 0.8"/>
      </g>
     </g>
     <g id="text_10">
      <text style="font-size: 7px; font-family: 'Arial', 'Helvetica', 'DejaVu Sans', sans-serif; text-anchor: end; fill: #222222" x="49.389771" y="100.318533" transform="rotate(-0 49.389771 100.318533)">100</text>
     </g>
    </g>
    <g id="ytick_4">
     <g id="line2d_10">
      <g>
       <use xlink:href="#md9dfe687b0" x="55.889771" y="80.879246" style="fill: #222222; stroke: #222222; stroke-width: 0.8"/>
      </g>
     </g>
     <g id="text_11">
      <text style="font-size: 7px; font-family: 'Arial', 'Helvetica', 'DejaVu Sans', sans-serif; text-anchor: end; fill: #222222" x="49.389771" y="83.538699" transform="rotate(-0 49.389771 83.538699)">150</text>
     </g>
    </g>
    <g id="ytick_5">
     <g id="line2d_11">
      <g>
       <use xlink:href="#md9dfe687b0" x="55.889771" y="64.099411" style="fill: #222222; stroke: #222222; stroke-width: 0.8"/>
      </g>
     </g>
     <g id="text_12">
      <text style="font-size: 7px; font-family: 'Arial', 'Helvetica', 'DejaVu Sans', sans-serif; text-anchor: end; fill: #222222" x="49.389771" y="66.758864" transform="rotate(-0 49.389771 66.758864)">200</text>
     </g>
    </g>
    <g id="ytick_6">
     <g id="line2d_12">
      <g>
       <use xlink:href="#md9dfe687b0" x="55.889771" y="47.319577" style="fill: #222222; stroke: #222222; stroke-width: 0.8"/>
      </g>
     </g>
     <g id="text_13">
      <text style="font-size: 7px; font-family: 'Arial', 'Helvetica', 'DejaVu Sans', sans-serif; text-anchor: end; fill: #222222" x="49.389771" y="49.97903" transform="rotate(-0 49.389771 49.97903)">250</text>
     </g>
    </g>
    <g id="ytick_7">
     <g id="line2d_13">
      <g>
       <use xlink:href="#md9dfe687b0" x="55.889771" y="30.539742" style="fill: #222222; stroke: #222222; stroke-width: 0.8"/>
      </g>
     </g>
     <g id="text_14">
      <text style="font-size: 7px; font-family: 'Arial', 'Helvetica', 'DejaVu Sans', sans-serif; text-anchor: end; fill: #222222" x="49.389771" y="33.199196" transform="rotate(-0 49.389771 33.199196)">300</text>
     </g>
    </g>
    <g id="ytick_8">
     <g id="line2d_14">
      <g>
       <use xlink:href="#md9dfe687b0" x="55.889771" y="13.759908" style="fill: #222222; stroke: #222222; stroke-width: 0.8"/>
      </g>
     </g>
     <g id="text_15">
      <text style="font-size: 7px; font-family: 'Arial', 'Helvetica', 'DejaVu Sans', sans-serif; text-anchor: end; fill: #222222" x="49.389771" y="16.419361" transform="rotate(-0 49.389771 16.419361)">350</text>
     </g>
    </g>
    <g id="text_16">
     <!-- $|\kappa_g|$ -->
     <g transform="translate(7.2 67.99)">
      <text>
       <tspan x="0" y="-0.25" style="font-size: 13px; font-family: 'cmsy10'">j</tspan>
       <tspan x="16.259572" y="-0.25" style="font-size: 13px; font-family: 'cmsy10'">j</tspan>
       <tspan x="3.599121" y="-0.25" style="font-size: 13px; font-family: 'cmmi10'">∙</tspan>
       <tspan x="11.089355" y="1.960812" style="font-size: 9.1px; font-family: 'cmmi10'">g</tspan>
      </text>
     </g>
    </g>
   </g>
   <g id="line2d_15">
    <path d="M 60.936785 128.563871 
L 65.691913 124.841203 
L 71.33513 129.235446 
L 75.814428 113.765976 
L 81.100879 120.435535 
L 85.843875 119.389467 
L 91.610542 125.538363 
L 96.180356 130.196944 
L 101.675094 124.753993 
L 108.105875 126.245368 
L 113.307821 81.970369 
L 124.077258 51.760161 
L 130.293991 125.216677 
L 135.910263 124.585799 
L 140.968539 126.056582 
L 147.197385 125.37197 
L 151.684514 124.886448 
L 156.970738 123.877473 
L 161.850685 125.386621 
L 166.518111 120.25178 
L 170.903001 122.565328 
L 175.420615 120.094506 
L 180.291728 131.195455 
L 185.245167 72.615977 
L 196.221691 64.019352 
L 201.823214 126.849967 
L 207.278827 122.65268 
L 211.99753 120.598306 
L 216.370759 129.014791 
L 221.547844 129.375832 
L 225.913547 128.366814 
L 231.946183 130.655329 
L 238.548881 126.494828 
L 244.56643 124.767704 
L 250.127998 130.456452 
L 256.280476 131.04803 
L 262.52592 92.720783 
L 274.981973 51.949476 
L 281.097515 130.406159 
L 287.834607 129.248277 
L 292.995691 128.301923 
L 299.026236 129.876795 
L 304.471958 129.268093 
L 309.385167 124.967194 
L 314.354881 123.835423 
L 319.252311 110.574286 
L 323.77136 122.795471 
L 328.193514 127.063022 
L 332.694455 123.869072 
L 337.629783 66.072386 
L 349.667592 90.580155 
L 354.402531 112.606246 
L 359.138974 126.761474 
L 363.731391 130.460472 
L 368.782846 125.95387 
L 372.742405 113.545884 
L 378.193449 130.883837 
L 384.997628 127.222949 
L 390.964642 124.636785 
L 396.679852 123.774349 
L 403.617919 94.760007 
" clip-path="url(#pb968464fee)" style="fill: none; stroke: #c73e3a; stroke-width: 1.55; stroke-linecap: square"/>
   </g>
   <g id="line2d_16">
    <path d="M 66.634222 126.16687 
L 69.668131 131.169565 
L 76.070739 126.684729 
L 81.773468 128.872559 
L 88.164108 128.767881 
L 94.746681 129.126189 
L 101.567569 129.222168 
L 108.36767 127.455967 
L 114.634981 123.884729 
L 119.801022 110.335862 
L 123.507968 55.170345 
L 126.417574 40.025321 
L 129.750808 105.717207 
L 134.575593 122.22027 
L 140.625191 126.518203 
L 147.386854 127.641828 
L 154.187839 130.885088 
L 160.738344 130.351704 
L 167.023832 129.394618 
L 173.10015 128.431622 
L 178.861172 126.333592 
L 184.048839 121.775713 
L 188.261743 103.012169 
L 191.391225 50.048365 
L 194.237205 57.115158 
L 197.559071 105.969448 
L 202.006618 121.374942 
L 207.348747 126.935138 
L 213.275036 128.656008 
L 219.500948 129.413948 
L 225.991725 130.245778 
L 232.969694 130.606073 
L 240.448694 128.106039 
L 248.13319 127.955229 
L 255.298096 125.36635 
L 261.300267 116.655396 
L 265.689941 76.612217 
L 268.827852 13.104545 
L 271.927583 97.372557 
L 276.653766 122.080549 
L 282.738444 127.151264 
L 289.684962 128.880329 
L 296.758708 129.459845 
L 303.451438 128.771731 
L 309.810839 128.595501 
L 315.925195 122.276692 
L 321.416673 120.597964 
L 326.059663 109.48869 
L 329.692625 77.61069 
L 332.63053 65.760948 
L 336.223849 97.374851 
L 340.431459 117.763515 
L 345.601533 124.882433 
L 351.547705 128.182409 
L 357.94701 130.414666 
L 364.467714 127.719438 
L 371.476092 130.040562 
L 378.816755 130.030562 
L 385.619675 129.769169 
L 393.022186 129.002779 
L 396.692661 126.625662 
" clip-path="url(#pb968464fee)" style="fill: none; stroke-dasharray: 4.995,2.16; stroke-dashoffset: 0; stroke: #6c6c6c; stroke-width: 1.35"/>
   </g>
   <g id="line2d_17">
    <path d="M 60.813451 128.563871 
L 65.452378 124.833066 
L 70.152344 123.686669 
L 75.545852 130.632824 
L 80.372527 125.703085 
L 86.439403 128.035153 
L 89.653658 130.205974 
L 94.94821 130.242726 
L 97.016032 125.720867 
L 109.56467 107.982839 
L 112.452618 108.070965 
L 121.163988 101.443105 
L 125.759017 105.107594 
L 135.945598 121.870735 
L 139.811035 127.93956 
L 145.584657 125.170918 
L 149.962134 130.66234 
L 155.091865 125.336868 
L 159.897835 129.895092 
L 164.451202 128.169418 
L 169.678305 123.320239 
L 173.122436 125.44604 
L 180.90007 126.93319 
L 182.960729 91.871953 
L 195.443368 96.059485 
L 197.589041 115.259703 
L 207.280696 129.752228 
L 211.885987 129.263095 
L 216.287431 120.472294 
L 221.338004 129.375832 
L 225.597022 128.366814 
L 231.482238 126.120735 
L 237.961484 126.62972 
L 243.792263 126.409412 
L 247.537122 129.373989 
L 256.565226 114.592747 
L 261.977687 109.992612 
L 272.40224 121.489965 
L 274.925628 97.517623 
L 287.639383 129.274591 
L 291.418809 124.427835 
L 297.301985 129.876795 
L 302.61463 129.268093 
L 307.407775 129.002539 
L 313.370414 118.281168 
L 317.100462 122.418326 
L 321.509079 129.940001 
L 324.268698 128.05876 
L 338.117813 121.268895 
L 340.25282 102.049332 
L 352.159033 107.781853 
L 356.665425 124.567142 
L 361.982325 124.256779 
L 365.676848 124.432381 
L 369.508843 126.039502 
L 374.466926 120.281454 
L 379.784763 130.883837 
L 386.422668 127.222949 
L 392.243866 130.654223 
L 395.306808 119.090065 
L 402.284862 129.490934 
" clip-path="url(#pb968464fee)" style="fill: none; stroke: #1b8a3a; stroke-width: 1.75; stroke-linecap: square"/>
   </g>
   <g id="patch_3">
    <path d="M 55.889771 137.1 
L 55.889771 7.2 
" style="fill: none; stroke: #222222; stroke-width: 0.8; stroke-linejoin: miter; stroke-linecap: square"/>
   </g>
   <g id="patch_4">
    <path d="M 55.889771 137.1 
L 408.11496 137.1 
" style="fill: none; stroke: #222222; stroke-width: 0.8; stroke-linejoin: miter; stroke-linecap: square"/>
   </g>
   <g id="legend_1">
    <g id="patch_5">
     <path d="M 327.964179 33.217187 
L 404.61496 33.217187 
Q 405.61496 33.217187 405.61496 32.217187 
L 405.61496 10.7 
Q 405.61496 9.7 404.61496 9.7 
L 327.964179 9.7 
Q 326.964179 9.7 326.964179 10.7 
L 326.964179 32.217187 
Q 326.964179 33.217187 327.964179 33.217187 
z
" style="fill: #ffffff; opacity: 0.8; stroke: #cccccc; stroke-linejoin: miter"/>
    </g>
    <g id="line2d_18">
     <path d="M 328.964179 13.749219 
L 333.964179 13.749219 
L 338.964179 13.749219 
" style="fill: none; stroke: #c73e3a; stroke-width: 1.55; stroke-linecap: square"/>
    </g>
    <g id="text_17">
     <text style="font-size: 5px; font-family: 'Arial', 'Helvetica', 'DejaVu Sans', sans-serif; text-anchor: start" x="342.964179" y="15.499219" transform="rotate(-0 342.964179 15.499219)">Original</text>
    </g>
    <g id="line2d_19">
     <path d="M 328.964179 21.088281 
L 333.964179 21.088281 
L 338.964179 21.088281 
" style="fill: none; stroke-dasharray: 4.995,2.16; stroke-dashoffset: 0; stroke: #6c6c6c; stroke-width: 1.35"/>
    </g>
    <g id="text_18">
     <text style="font-size: 5px; font-family: 'Arial', 'Helvetica', 'DejaVu Sans', sans-serif; text-anchor: start" x="342.964179" y="22.838281" transform="rotate(-0 342.964179 22.838281)">Moving-average smooth</text>
    </g>
    <g id="line2d_20">
     <path d="M 328.964179 28.427344 
L 333.964179 28.427344 
L 338.964179 28.427344 
" style="fill: none; stroke: #1b8a3a; stroke-width: 1.75; stroke-linecap: square"/>
    </g>
    <g id="text_19">
     <text style="font-size: 5px; font-family: 'Arial', 'Helvetica', 'DejaVu Sans', sans-serif; text-anchor: start" x="342.964179" y="30.177344" transform="rotate(-0 342.964179 30.177344)">Geodesic optimized</text>
    </g>
   </g>
  </g>
 </g>
 <defs>
  <clipPath id="pb968464fee">
   <rect x="55.889771" y="7.2" width="352.225189" height="129.9"/>
  </clipPath>
 </defs>
</svg>
