<?xml version="1.0" encoding="utf-8" standalone="no"?>
<!DOCTYPE svg PUBLIC "-//W3C//DTD SVG 1.1//EN"
  "http://www.w3.org/Graphics/SVG/1.1/DTD/svg11.dtd">
<svg xmlns:xlink="http://www.w3.org/1999/xlink" width="436.661214pt" height="246.753281pt" viewBox="0 0 436.661214 246.753281" xmlns="http://www.w3.org/2000/svg" version="1.1">
 <metadata>
  <rdf:RDF xmlns:dc="http://purl.org/dc/elements/1.1/" xmlns:cc="http://creativecommons.org/ns#" xmlns:rdf="http://www.w3.org/1999/02/22-rdf-syntax-ns#">
   <cc:Work>
    <dc:type rdf:resource="http://purl.org/dc/dcmitype/StillImage"/>
    <dc:date>2026-06-29T19:50:27.214597</dc:date>
    <dc:format>image/svg+xml</dc:format>
    <dc:creator>
     <cc:Agent>
      <dc:title>Matplotlib v3.10.8, https://matplotlib.org/</dc:title>
     </cc:Agent>
    </dc:creator>
   </cc:Work>
  </rdf:RDF>
 </metadata>
 <defs>
  <style type="text/css">*{stroke-linejoin: round; stroke-linecap: butt}</style>
 </defs>
 <g id="figure_1">
  <g id="patch_1">
   <path d="M 0 246.753281 
L 436.661214 246.753281 
L 436.661214 0 
L 0 0 
z
" style="fill: #ffffff"/>
  </g>
  <g id="axes_1">
   <g id="patch_2">
    <path d="M 55.354443 215.02 
L 424.292699 215.02 
L 424.292699 7.2 
L 55.354443 7.2 
z
" style="fill: #ffffff"/>
   </g>
   <g id="FillBetweenPolyCollection_1">
    <defs>
     <path id="m261ef42cde" d="M 55.354443 -230.106918 
L 55.354443 -230.106918 
L 56.09232 -230.036705 
L 56.830196 -226.263285 
L 57.568073 -217.699495 
L 58.305949 -216.085174 
L 59.043826 -210.530369 
L 59.781702 -206.9838 
L 60.519579 -205.192668 
L 61.257455 -204.302315 
L 61.995332 -198.329601 
L 62.733208 -191.884663 
L 63.471085 -190.807149 
L 64.208961 -187.468157 
L 64.946838 -179.067002 
L 65.684714 -178.222028 
L 66.422591 -178.222028 
L 67.160467 -176.790266 
L 67.898344 -162.90892 
L 68.63622 -151.761119 
L 69.374097 -151.60623 
L 70.111973 -151.60623 
L 70.84985 -150.620226 
L 71.587726 -150.620226 
L 72.325603 -150.168528 
L 73.063479 -148.418672 
L 73.801356 -148.24957 
L 74.539232 -148.181151 
L 75.277109 -147.78494 
L 76.014985 -147.78494 
L 76.752862 -145.060228 
L 77.490738 -143.887593 
L 78.228615 -143.753866 
L 78.966491 -143.753866 
L 79.704368 -142.977431 
L 80.442244 -142.296889 
L 81.180121 -142.296889 
L 81.917997 -138.382159 
L 82.655874 -138.382159 
L 83.39375 -138.166593 
L 84.131627 -138.166593 
L 84.869503 -134.362574 
L 85.60738 -133.266584 
L 86.345256 -131.685117 
L 87.083133 -131.600541 
L 87.821009 -131.367101 
L 88.558886 -127.975708 
L 89.296763 -127.193648 
L 90.034639 -127.193648 
L 90.772516 -127.193648 
L 91.510392 -123.768721 
L 92.248269 -123.380871 
L 92.986145 -123.380871 
L 93.724022 -122.050624 
L 94.461898 -121.100721 
L 95.199775 -121.100721 
L 95.937651 -120.56216 
L 96.675528 -119.900462 
L 97.413404 -119.900462 
L 98.151281 -119.900462 
L 98.889157 -117.045288 
L 99.627034 -115.121494 
L 100.36491 -114.992279 
L 101.102787 -114.992279 
L 101.840663 -113.826922 
L 102.57854 -113.162371 
L 103.316416 -113.162371 
L 104.054293 -113.162371 
L 104.792169 -113.162371 
L 105.530046 -113.162371 
L 106.267922 -112.054063 
L 107.005799 -112.054063 
L 107.743675 -111.510122 
L 108.481552 -111.510122 
L 109.219428 -111.001798 
L 109.957305 -111.001798 
L 110.695181 -110.522754 
L 111.433058 -110.370943 
L 112.170934 -110.370943 
L 112.908811 -109.162842 
L 113.646687 -109.162842 
L 114.384564 -109.162842 
L 115.12244 -109.162842 
L 115.860317 -108.836248 
L 116.598193 -108.836248 
L 117.33607 -108.836248 
L 118.073946 -107.426669 
L 118.811823 -107.426669 
L 119.549699 -107.426669 
L 120.287576 -107.426669 
L 121.025452 -107.309216 
L 121.763329 -107.309216 
L 122.501205 -107.309216 
L 123.239082 -107.309216 
L 123.976959 -106.907959 
L 124.714835 -105.542908 
L 125.452712 -105.542908 
L 126.190588 -104.800739 
L 126.928465 -104.800739 
L 127.666341 -104.800739 
L 128.404218 -105.024457 
L 129.142094 -105.024457 
L 129.879971 -105.024457 
L 130.617847 -105.024457 
L 131.355724 -102.065643 
L 132.0936 -102.065643 
L 132.831477 -101.882693 
L 133.569353 -101.882693 
L 134.30723 -101.882693 
L 135.045106 -101.882693 
L 135.782983 -101.829836 
L 136.520859 -101.323888 
L 137.258736 -101.323888 
L 137.996612 -101.094776 
L 138.734489 -101.011011 
L 139.472365 -101.011011 
L 140.210242 -100.896522 
L 140.948118 -100.896522 
L 141.685995 -100.696038 
L 142.423871 -100.696038 
L 143.161748 -99.816461 
L 143.899624 -99.816461 
L 144.637501 -99.816461 
L 145.375377 -99.668852 
L 146.113254 -99.668852 
L 146.85113 -99.668852 
L 147.589007 -99.012252 
L 148.326883 -99.012252 
L 149.06476 -99.05728 
L 149.802636 -98.91349 
L 150.540513 -98.91349 
L 151.278389 -98.91349 
L 152.016266 -98.91349 
L 152.754142 -98.91349 
L 153.492019 -98.91349 
L 154.229895 -98.695347 
L 154.967772 -98.695347 
L 155.705648 -98.695347 
L 156.443525 -98.695347 
L 157.181402 -98.695347 
L 157.919278 -98.106179 
L 158.657155 -97.878429 
L 159.395031 -97.878429 
L 160.132908 -97.878429 
L 160.870784 -95.055627 
L 161.608661 -95.055627 
L 162.346537 -87.901688 
L 163.084414 -87.901688 
L 163.82229 -87.641814 
L 164.560167 -87.641814 
L 165.298043 -87.614436 
L 166.03592 -87.614436 
L 166.773796 -87.614436 
L 167.511673 -87.196019 
L 168.249549 -86.993867 
L 168.987426 -86.993867 
L 169.725302 -86.993867 
L 170.463179 -86.993867 
L 171.201055 -86.993867 
L 171.938932 -86.955502 
L 172.676808 -86.811484 
L 173.414685 -86.769364 
L 174.152561 -86.769364 
L 174.890438 -86.769364 
L 175.628314 -85.254351 
L 176.366191 -85.254351 
L 177.104067 -85.254351 
L 177.841944 -85.254351 
L 178.57982 -83.975381 
L 179.317697 -83.975381 
L 180.055573 -83.975381 
L 180.79345 -83.975381 
L 181.531326 -83.482945 
L 182.269203 -83.482945 
L 183.007079 -83.482945 
L 183.744956 -83.482945 
L 184.482832 -83.482945 
L 185.220709 -83.475239 
L 185.958585 -83.34792 
L 186.696462 -83.34792 
L 187.434338 -83.34792 
L 188.172215 -83.207566 
L 188.910091 -83.250702 
L 189.647968 -83.250702 
L 190.385845 -83.250702 
L 191.123721 -82.965456 
L 191.861598 -82.965456 
L 192.599474 -82.965456 
L 193.337351 -82.965456 
L 194.075227 -82.965456 
L 194.813104 -82.965456 
L 195.55098 -82.965456 
L 196.288857 -82.27984 
L 197.026733 -82.27984 
L 197.76461 -82.27984 
L 198.502486 -81.976827 
L 199.240363 -81.976827 
L 199.978239 -81.976827 
L 200.716116 -81.566144 
L 201.453992 -81.566144 
L 202.191869 -81.566144 
L 202.929745 -81.566144 
L 203.667622 -81.566144 
L 204.405498 -81.566144 
L 205.143375 -80.544298 
L 205.881251 -80.544298 
L 206.619128 -80.544298 
L 207.357004 -80.544298 
L 208.094881 -80.544298 
L 208.832757 -80.544298 
L 209.570634 -80.544298 
L 210.30851 -80.544298 
L 211.046387 -79.299951 
L 211.784263 -79.299951 
L 212.52214 -79.299951 
L 213.260016 -78.821618 
L 213.997893 -78.837965 
L 214.735769 -78.300683 
L 215.473646 -77.62705 
L 216.211522 -77.62705 
L 216.949399 -77.62705 
L 217.687275 -77.62705 
L 218.425152 -77.62705 
L 219.163028 -77.656174 
L 219.900905 -77.656174 
L 220.638781 -77.656174 
L 221.376658 -77.901369 
L 222.114534 -77.422306 
L 222.852411 -77.422306 
L 223.590288 -77.1939 
L 224.328164 -77.1939 
L 225.066041 -77.1939 
L 225.803917 -77.1939 
L 226.541794 -77.1939 
L 227.27967 -77.1939 
L 228.017547 -77.1939 
L 228.755423 -77.123806 
L 229.4933 -77.123806 
L 230.231176 -77.123806 
L 230.969053 -77.123806 
L 231.706929 -77.123806 
L 232.444806 -76.456772 
L 233.182682 -76.456772 
L 233.920559 -76.456772 
L 234.658435 -76.456772 
L 235.396312 -76.456772 
L 236.134188 -76.480677 
L 236.872065 -76.480677 
L 237.609941 -76.480677 
L 238.347818 -76.267119 
L 239.085694 -76.267119 
L 239.823571 -76.267119 
L 240.561447 -76.267119 
L 241.299324 -76.203152 
L 242.0372 -76.203152 
L 242.775077 -76.203152 
L 243.512953 -76.203152 
L 244.25083 -76.468573 
L 244.988706 -76.352254 
L 245.726583 -76.352254 
L 246.464459 -76.352254 
L 247.202336 -76.352254 
L 247.940212 -76.315387 
L 248.678089 -76.315387 
L 249.415965 -76.315387 
L 250.153842 -76.315387 
L 250.891718 -76.315387 
L 251.629595 -76.315387 
L 252.367471 -76.315387 
L 253.105348 -76.844549 
L 253.843224 -76.844549 
L 254.581101 -76.844549 
L 255.318977 -76.844549 
L 256.056854 -76.641797 
L 256.794731 -76.641797 
L 257.532607 -76.641797 
L 258.270484 -76.404488 
L 259.00836 -76.404488 
L 259.746237 -76.404488 
L 260.484113 -76.404488 
L 261.22199 -76.404488 
L 261.959866 -76.465785 
L 262.697743 -75.982966 
L 263.435619 -75.982966 
L 264.173496 -75.982966 
L 264.911372 -75.982966 
L 265.649249 -75.982966 
L 266.387125 -75.982966 
L 267.125002 -75.982966 
L 267.862878 -75.950176 
L 268.600755 -75.804141 
L 269.338631 -75.804141 
L 270.076508 -75.804141 
L 270.814384 -75.559406 
L 271.552261 -75.559406 
L 272.290137 -75.559406 
L 273.028014 -75.559406 
L 273.76589 -75.559406 
L 274.503767 -75.559406 
L 275.241643 -75.559406 
L 275.97952 -75.559406 
L 276.717396 -75.235327 
L 277.455273 -75.235327 
L 278.193149 -74.948265 
L 278.931026 -74.948265 
L 279.668902 -74.927764 
L 280.406779 -74.927764 
L 281.144655 -74.927764 
L 281.882532 -74.927764 
L 282.620408 -74.927764 
L 283.358285 -74.927764 
L 284.096161 -74.927764 
L 284.834038 -74.927667 
L 285.571914 -74.927667 
L 286.309791 -74.927667 
L 287.047667 -74.927667 
L 287.785544 -74.927667 
L 288.52342 -74.927667 
L 289.261297 -74.927667 
L 289.999174 -74.472868 
L 290.73705 -74.472868 
L 291.474927 -74.472868 
L 292.212803 -74.472868 
L 292.95068 -74.472868 
L 293.688556 -74.31558 
L 294.426433 -74.31558 
L 295.164309 -74.31558 
L 295.902186 -74.31558 
L 296.640062 -74.31558 
L 297.377939 -74.31558 
L 298.115815 -74.321958 
L 298.853692 -74.321958 
L 299.591568 -74.245476 
L 300.329445 -74.245476 
L 301.067321 -74.245476 
L 301.805198 -74.245476 
L 302.543074 -74.245476 
L 303.280951 -74.245476 
L 304.018827 -74.245476 
L 304.756704 -74.245476 
L 305.49458 -73.826704 
L 306.232457 -73.826704 
L 306.970333 -73.826704 
L 307.70821 -73.826704 
L 308.446086 -73.826704 
L 309.183963 -73.826704 
L 309.921839 -73.826704 
L 310.659716 -73.826704 
L 311.397592 -73.826704 
L 312.135469 -73.826704 
L 312.873345 -73.826704 
L 313.611222 -73.826704 
L 314.349098 -73.826704 
L 315.086975 -73.761981 
L 315.824851 -73.521392 
L 316.562728 -73.521392 
L 317.300604 -73.521392 
L 318.038481 -73.521392 
L 318.776357 -73.521392 
L 319.514234 -73.521392 
L 320.25211 -73.521392 
L 320.989987 -73.521392 
L 321.727863 -73.219604 
L 322.46574 -73.219604 
L 323.203616 -73.219604 
L 323.941493 -72.493623 
L 324.67937 -72.493623 
L 325.417246 -72.493623 
L 326.155123 -72.493623 
L 326.892999 -72.493623 
L 327.630876 -72.511205 
L 328.368752 -72.511205 
L 329.106629 -72.511205 
L 329.844505 -72.511205 
L 330.582382 -72.511205 
L 331.320258 -72.511205 
L 332.058135 -72.511205 
L 332.796011 -72.511205 
L 333.533888 -72.511205 
L 334.271764 -72.511205 
L 335.009641 -72.511205 
L 335.747517 -70.653097 
L 336.485394 -70.653097 
L 337.22327 -69.715042 
L 337.961147 -69.715042 
L 338.699023 -69.769809 
L 339.4369 -69.769809 
L 340.174776 -69.769809 
L 340.912653 -69.769809 
L 341.650529 -69.769809 
L 342.388406 -69.769809 
L 343.126282 -69.769809 
L 343.864159 -69.769809 
L 344.602035 -69.769809 
L 345.339912 -69.769809 
L 346.077788 -69.769809 
L 346.815665 -69.769809 
L 347.553541 -69.712137 
L 348.291418 -69.712137 
L 349.029294 -69.712137 
L 349.767171 -70.122179 
L 350.505047 -70.083247 
L 351.242924 -70.083247 
L 351.9808 -70.083247 
L 352.718677 -67.91266 
L 353.456553 -67.91266 
L 354.19443 -67.91266 
L 354.932306 -68.036205 
L 355.670183 -68.036205 
L 356.408059 -68.036205 
L 357.145936 -68.036205 
L 357.883813 -68.036205 
L 358.621689 -68.036205 
L 359.359566 -68.036205 
L 360.097442 -68.036205 
L 360.835319 -68.036205 
L 361.573195 -68.036205 
L 362.311072 -68.036205 
L 363.048948 -68.034266 
L 363.786825 -68.034266 
L 364.524701 -68.034266 
L 365.262578 -67.671203 
L 366.000454 -67.671203 
L 366.738331 -67.671203 
L 367.476207 -67.671203 
L 368.214084 -67.671203 
L 368.95196 -67.671203 
L 369.689837 -67.671203 
L 370.427713 -67.476389 
L 371.16559 -67.476389 
L 371.903466 -67.476389 
L 372.641343 -67.476389 
L 373.379219 -67.476389 
L 374.117096 -67.476389 
L 374.854972 -67.475371 
L 375.592849 -67.475371 
L 376.330725 -67.475371 
L 377.068602 -67.475371 
L 377.806478 -67.475371 
L 378.544355 -67.475371 
L 379.282231 -67.475371 
L 380.020108 -67.029444 
L 380.757984 -67.029444 
L 381.495861 -67.029444 
L 382.233737 -67.029444 
L 382.971614 -67.029444 
L 383.70949 -67.029444 
L 384.447367 -67.029444 
L 385.185243 -67.029444 
L 385.92312 -67.029444 
L 386.660996 -67.029444 
L 387.398873 -67.029444 
L 388.136749 -67.029444 
L 388.874626 -67.029444 
L 389.612502 -67.029444 
L 390.350379 -66.962983 
L 391.088256 -66.962983 
L 391.826132 -66.962983 
L 392.564009 -66.962983 
L 393.301885 -66.962983 
L 394.039762 -66.962983 
L 394.777638 -66.962983 
L 395.515515 -66.962983 
L 396.253391 -66.962983 
L 396.991268 -66.962983 
L 397.729144 -66.962983 
L 398.467021 -66.962983 
L 399.204897 -66.962983 
L 399.942774 -66.962983 
L 400.68065 -66.962983 
L 401.418527 -66.962983 
L 402.156403 -66.965817 
L 402.89428 -66.965817 
L 403.632156 -66.965817 
L 404.370033 -66.965817 
L 405.107909 -66.965817 
L 405.845786 -66.965817 
L 406.583662 -66.965817 
L 407.321539 -66.965817 
L 408.059415 -66.965817 
L 408.797292 -66.965817 
L 409.535168 -66.965817 
L 410.273045 -66.965817 
L 411.010921 -66.965817 
L 411.748798 -66.965817 
L 412.486674 -66.965817 
L 413.224551 -66.965817 
L 413.962427 -66.965817 
L 414.700304 -67.184433 
L 415.43818 -67.184433 
L 416.176057 -67.184433 
L 416.913933 -67.184433 
L 417.65181 -67.078665 
L 418.389686 -67.078665 
L 419.127563 -67.078665 
L 419.865439 -67.078665 
L 420.603316 -66.632372 
L 421.341192 -66.632372 
L 422.079069 -66.632372 
L 422.816945 -66.632372 
L 423.554822 -66.632372 
L 424.292699 -66.632372 
L 424.292699 -99.193659 
L 424.292699 -99.193659 
L 423.554822 -99.193659 
L 422.816945 -99.193659 
L 422.079069 -99.193659 
L 421.341192 -99.193659 
L 420.603316 -99.193659 
L 419.865439 -99.193659 
L 419.127563 -99.193659 
L 418.389686 -99.193659 
L 417.65181 -99.193659 
L 416.913933 -99.286726 
L 416.176057 -99.286726 
L 415.43818 -99.286726 
L 414.700304 -99.286726 
L 413.962427 -99.286726 
L 413.224551 -99.286726 
L 412.486674 -99.286726 
L 411.748798 -99.286726 
L 411.010921 -99.34582 
L 410.273045 -99.34582 
L 409.535168 -99.34582 
L 408.797292 -99.34582 
L 408.059415 -99.34582 
L 407.321539 -99.34582 
L 406.583662 -99.34582 
L 405.845786 -99.34582 
L 405.107909 -99.34582 
L 404.370033 -99.34582 
L 403.632156 -99.721074 
L 402.89428 -99.721074 
L 402.156403 -99.721074 
L 401.418527 -99.721074 
L 400.68065 -99.721074 
L 399.942774 -99.721074 
L 399.204897 -99.721074 
L 398.467021 -99.721074 
L 397.729144 -99.721074 
L 396.991268 -99.721074 
L 396.253391 -99.721074 
L 395.515515 -100.043146 
L 394.777638 -100.043146 
L 394.039762 -100.043146 
L 393.301885 -100.043146 
L 392.564009 -99.966475 
L 391.826132 -99.966475 
L 391.088256 -99.966475 
L 390.350379 -100.099677 
L 389.612502 -100.099677 
L 388.874626 -100.14367 
L 388.136749 -100.14367 
L 387.398873 -100.14367 
L 386.660996 -100.14367 
L 385.92312 -100.14367 
L 385.185243 -100.198522 
L 384.447367 -100.198522 
L 383.70949 -100.313607 
L 382.971614 -100.313607 
L 382.233737 -100.313607 
L 381.495861 -100.313607 
L 380.757984 -100.313607 
L 380.020108 -101.166886 
L 379.282231 -101.166886 
L 378.544355 -101.166886 
L 377.806478 -101.166886 
L 377.068602 -101.166886 
L 376.330725 -101.166886 
L 375.592849 -101.166886 
L 374.854972 -101.166886 
L 374.117096 -101.379138 
L 373.379219 -101.379138 
L 372.641343 -101.648681 
L 371.903466 -101.648681 
L 371.16559 -101.648681 
L 370.427713 -101.648681 
L 369.689837 -101.648681 
L 368.95196 -101.648681 
L 368.214084 -101.648681 
L 367.476207 -101.648681 
L 366.738331 -101.793753 
L 366.000454 -101.793753 
L 365.262578 -101.793753 
L 364.524701 -101.793753 
L 363.786825 -101.793753 
L 363.048948 -102.418728 
L 362.311072 -102.418728 
L 361.573195 -102.418728 
L 360.835319 -102.418728 
L 360.097442 -102.418728 
L 359.359566 -102.418728 
L 358.621689 -102.418728 
L 357.883813 -102.418728 
L 357.145936 -102.418728 
L 356.408059 -102.418728 
L 355.670183 -102.418728 
L 354.932306 -102.418728 
L 354.19443 -102.418728 
L 353.456553 -102.418728 
L 352.718677 -102.418728 
L 351.9808 -102.418728 
L 351.242924 -102.418728 
L 350.505047 -102.418728 
L 349.767171 -102.418728 
L 349.029294 -102.418728 
L 348.291418 -102.418728 
L 347.553541 -102.418728 
L 346.815665 -102.418728 
L 346.077788 -102.418728 
L 345.339912 -102.418728 
L 344.602035 -102.418728 
L 343.864159 -102.418728 
L 343.126282 -102.382445 
L 342.388406 -102.382445 
L 341.650529 -102.48998 
L 340.912653 -102.48998 
L 340.174776 -102.48998 
L 339.4369 -102.420359 
L 338.699023 -102.555761 
L 337.961147 -102.555761 
L 337.22327 -102.590425 
L 336.485394 -102.590425 
L 335.747517 -102.590425 
L 335.009641 -102.590425 
L 334.271764 -102.590425 
L 333.533888 -102.590425 
L 332.796011 -102.967258 
L 332.058135 -102.967258 
L 331.320258 -102.967258 
L 330.582382 -102.967258 
L 329.844505 -102.967258 
L 329.106629 -102.967258 
L 328.368752 -103.046548 
L 327.630876 -103.046548 
L 326.892999 -103.046548 
L 326.155123 -103.046548 
L 325.417246 -103.27774 
L 324.67937 -103.766988 
L 323.941493 -103.766988 
L 323.203616 -103.766988 
L 322.46574 -103.766988 
L 321.727863 -103.766988 
L 320.989987 -103.766988 
L 320.25211 -103.766988 
L 319.514234 -103.766988 
L 318.776357 -103.766988 
L 318.038481 -103.766988 
L 317.300604 -103.766988 
L 316.562728 -103.766988 
L 315.824851 -103.766988 
L 315.086975 -103.766988 
L 314.349098 -103.766988 
L 313.611222 -103.766988 
L 312.873345 -104.166929 
L 312.135469 -104.238503 
L 311.397592 -104.783294 
L 310.659716 -104.783294 
L 309.921839 -104.783294 
L 309.183963 -104.783294 
L 308.446086 -104.783294 
L 307.70821 -104.783294 
L 306.970333 -104.783294 
L 306.232457 -105.051908 
L 305.49458 -105.046844 
L 304.756704 -105.507125 
L 304.018827 -106.294109 
L 303.280951 -106.484282 
L 302.543074 -106.484282 
L 301.805198 -106.484282 
L 301.067321 -106.484282 
L 300.329445 -106.484282 
L 299.591568 -106.484282 
L 298.853692 -106.484282 
L 298.115815 -106.871315 
L 297.377939 -106.939316 
L 296.640062 -107.049413 
L 295.902186 -107.049413 
L 295.164309 -107.049413 
L 294.426433 -107.049413 
L 293.688556 -107.049413 
L 292.95068 -107.049413 
L 292.212803 -107.049413 
L 291.474927 -107.049413 
L 290.73705 -107.049413 
L 289.999174 -107.049413 
L 289.261297 -107.049413 
L 288.52342 -107.049413 
L 287.785544 -107.049413 
L 287.047667 -107.049413 
L 286.309791 -107.253936 
L 285.571914 -107.253936 
L 284.834038 -107.253936 
L 284.096161 -108.648376 
L 283.358285 -108.648376 
L 282.620408 -108.648376 
L 281.882532 -108.648376 
L 281.144655 -109.645905 
L 280.406779 -109.645905 
L 279.668902 -109.861978 
L 278.931026 -109.861978 
L 278.193149 -109.861978 
L 277.455273 -109.861978 
L 276.717396 -109.861978 
L 275.97952 -109.861978 
L 275.241643 -110.102899 
L 274.503767 -110.102899 
L 273.76589 -110.102899 
L 273.028014 -110.102899 
L 272.290137 -110.102899 
L 271.552261 -110.102899 
L 270.814384 -110.102899 
L 270.076508 -110.102899 
L 269.338631 -110.102899 
L 268.600755 -110.223832 
L 267.862878 -110.223832 
L 267.125002 -110.223832 
L 266.387125 -110.343985 
L 265.649249 -110.343985 
L 264.911372 -110.666288 
L 264.173496 -110.666288 
L 263.435619 -110.666288 
L 262.697743 -110.666288 
L 261.959866 -110.666288 
L 261.22199 -110.757778 
L 260.484113 -110.993315 
L 259.746237 -110.993315 
L 259.00836 -110.993315 
L 258.270484 -111.036575 
L 257.532607 -111.129814 
L 256.794731 -111.129814 
L 256.056854 -111.129814 
L 255.318977 -111.66248 
L 254.581101 -111.66248 
L 253.843224 -111.66248 
L 253.105348 -111.663518 
L 252.367471 -111.723666 
L 251.629595 -111.723666 
L 250.891718 -111.723666 
L 250.153842 -111.550439 
L 249.415965 -111.550439 
L 248.678089 -111.550439 
L 247.940212 -112.430025 
L 247.202336 -112.430025 
L 246.464459 -112.430025 
L 245.726583 -112.465475 
L 244.988706 -112.465475 
L 244.25083 -112.871463 
L 243.512953 -112.871463 
L 242.775077 -112.871463 
L 242.0372 -113.226794 
L 241.299324 -113.519976 
L 240.561447 -113.519976 
L 239.823571 -113.519976 
L 239.085694 -113.519976 
L 238.347818 -113.519976 
L 237.609941 -113.519976 
L 236.872065 -113.519976 
L 236.134188 -113.519976 
L 235.396312 -115.192296 
L 234.658435 -115.351357 
L 233.920559 -115.351357 
L 233.182682 -115.351357 
L 232.444806 -115.938457 
L 231.706929 -115.938457 
L 230.969053 -115.938457 
L 230.231176 -115.943904 
L 229.4933 -115.943904 
L 228.755423 -115.943904 
L 228.017547 -115.943904 
L 227.27967 -115.943904 
L 226.541794 -115.943904 
L 225.803917 -115.943904 
L 225.066041 -115.943904 
L 224.328164 -115.943904 
L 223.590288 -115.943904 
L 222.852411 -115.943904 
L 222.114534 -115.943904 
L 221.376658 -115.943904 
L 220.638781 -116.349867 
L 219.900905 -116.349867 
L 219.163028 -116.349867 
L 218.425152 -116.609705 
L 217.687275 -116.609705 
L 216.949399 -116.609705 
L 216.211522 -116.609705 
L 215.473646 -116.609705 
L 214.735769 -116.609705 
L 213.997893 -116.609705 
L 213.260016 -116.609705 
L 212.52214 -116.498978 
L 211.784263 -116.498978 
L 211.046387 -116.498978 
L 210.30851 -116.498978 
L 209.570634 -116.498978 
L 208.832757 -116.498978 
L 208.094881 -117.129357 
L 207.357004 -117.129357 
L 206.619128 -117.492225 
L 205.881251 -117.492225 
L 205.143375 -117.492225 
L 204.405498 -117.492225 
L 203.667622 -117.944571 
L 202.929745 -118.043569 
L 202.191869 -118.199852 
L 201.453992 -118.199852 
L 200.716116 -118.229746 
L 199.978239 -118.229746 
L 199.240363 -118.708742 
L 198.502486 -119.479662 
L 197.76461 -120.028741 
L 197.026733 -120.071127 
L 196.288857 -120.071127 
L 195.55098 -120.071127 
L 194.813104 -120.071127 
L 194.075227 -120.071127 
L 193.337351 -120.071127 
L 192.599474 -120.071127 
L 191.861598 -120.071127 
L 191.123721 -120.071127 
L 190.385845 -120.071127 
L 189.647968 -120.32841 
L 188.910091 -120.32841 
L 188.172215 -120.32841 
L 187.434338 -120.32841 
L 186.696462 -120.32841 
L 185.958585 -120.323753 
L 185.220709 -120.665402 
L 184.482832 -120.665402 
L 183.744956 -120.665402 
L 183.007079 -121.354508 
L 182.269203 -121.571259 
L 181.531326 -121.571259 
L 180.79345 -121.571259 
L 180.055573 -121.571259 
L 179.317697 -121.571259 
L 178.57982 -121.571259 
L 177.841944 -121.627852 
L 177.104067 -121.627852 
L 176.366191 -121.627852 
L 175.628314 -121.627852 
L 174.890438 -121.627852 
L 174.152561 -121.627852 
L 173.414685 -121.627852 
L 172.676808 -121.822211 
L 171.938932 -121.760135 
L 171.201055 -121.760135 
L 170.463179 -121.760135 
L 169.725302 -121.760135 
L 168.987426 -121.760135 
L 168.249549 -121.962694 
L 167.511673 -121.962694 
L 166.773796 -121.962694 
L 166.03592 -121.962694 
L 165.298043 -121.962694 
L 164.560167 -121.962694 
L 163.82229 -122.160326 
L 163.084414 -122.160326 
L 162.346537 -122.397694 
L 161.608661 -122.397694 
L 160.870784 -122.397694 
L 160.132908 -122.397694 
L 159.395031 -123.01723 
L 158.657155 -124.022281 
L 157.919278 -124.355596 
L 157.181402 -124.355596 
L 156.443525 -124.355596 
L 155.705648 -124.355596 
L 154.967772 -124.355596 
L 154.229895 -125.432573 
L 153.492019 -125.432573 
L 152.754142 -125.432573 
L 152.016266 -125.432573 
L 151.278389 -125.432573 
L 150.540513 -125.784462 
L 149.802636 -126.612361 
L 149.06476 -127.573227 
L 148.326883 -127.674368 
L 147.589007 -127.674368 
L 146.85113 -127.826162 
L 146.113254 -127.826162 
L 145.375377 -130.442555 
L 144.637501 -130.556339 
L 143.899624 -130.6337 
L 143.161748 -130.6337 
L 142.423871 -130.6337 
L 141.685995 -131.518245 
L 140.948118 -133.272169 
L 140.210242 -133.272169 
L 139.472365 -133.272169 
L 138.734489 -133.34877 
L 137.996612 -133.34877 
L 137.258736 -133.34877 
L 136.520859 -133.34877 
L 135.782983 -133.479935 
L 135.045106 -133.479935 
L 134.30723 -133.479935 
L 133.569353 -133.479935 
L 132.831477 -133.479935 
L 132.0936 -136.087976 
L 131.355724 -136.087976 
L 130.617847 -136.543505 
L 129.879971 -136.543505 
L 129.142094 -136.67662 
L 128.404218 -137.968582 
L 127.666341 -140.200714 
L 126.928465 -140.369751 
L 126.190588 -140.507889 
L 125.452712 -142.193672 
L 124.714835 -142.193672 
L 123.976959 -142.193672 
L 123.239082 -142.375204 
L 122.501205 -142.416776 
L 121.763329 -142.608005 
L 121.025452 -142.608005 
L 120.287576 -142.608005 
L 119.549699 -142.608005 
L 118.811823 -142.608005 
L 118.073946 -143.14369 
L 117.33607 -143.14369 
L 116.598193 -143.14369 
L 115.860317 -143.14369 
L 115.12244 -144.929353 
L 114.384564 -144.929353 
L 113.646687 -145.637939 
L 112.908811 -145.637939 
L 112.170934 -145.637939 
L 111.433058 -145.637939 
L 110.695181 -145.637939 
L 109.957305 -150.3729 
L 109.219428 -150.3729 
L 108.481552 -150.3729 
L 107.743675 -150.3729 
L 107.005799 -150.6447 
L 106.267922 -153.459417 
L 105.530046 -155.397997 
L 104.792169 -155.659698 
L 104.054293 -155.659698 
L 103.316416 -156.009647 
L 102.57854 -156.009647 
L 101.840663 -156.009647 
L 101.102787 -156.009647 
L 100.36491 -156.009647 
L 99.627034 -156.009647 
L 98.889157 -156.009647 
L 98.151281 -156.009647 
L 97.413404 -156.009647 
L 96.675528 -156.009647 
L 95.937651 -156.698157 
L 95.199775 -156.813047 
L 94.461898 -156.813047 
L 93.724022 -156.978978 
L 92.986145 -156.978978 
L 92.248269 -156.978978 
L 91.510392 -157.31024 
L 90.772516 -157.31024 
L 90.034639 -157.31024 
L 89.296763 -157.707864 
L 88.558886 -157.707864 
L 87.821009 -157.707864 
L 87.083133 -159.979553 
L 86.345256 -167.322042 
L 85.60738 -167.322042 
L 84.869503 -167.322042 
L 84.131627 -167.322042 
L 83.39375 -168.401681 
L 82.655874 -168.401681 
L 81.917997 -173.366707 
L 81.180121 -173.366707 
L 80.442244 -173.66091 
L 79.704368 -174.703623 
L 78.966491 -175.481137 
L 78.228615 -175.708769 
L 77.490738 -175.708769 
L 76.752862 -177.213583 
L 76.014985 -181.06985 
L 75.277109 -181.739873 
L 74.539232 -184.784165 
L 73.801356 -184.784165 
L 73.063479 -184.784165 
L 72.325603 -188.379639 
L 71.587726 -190.772036 
L 70.84985 -196.061493 
L 70.111973 -196.061493 
L 69.374097 -197.74782 
L 68.63622 -199.463183 
L 67.898344 -199.463183 
L 67.160467 -204.516062 
L 66.422591 -204.471814 
L 65.684714 -204.471814 
L 64.946838 -204.720983 
L 64.208961 -208.762502 
L 63.471085 -208.762502 
L 62.733208 -209.450229 
L 61.995332 -214.167566 
L 61.257455 -215.306168 
L 60.519579 -217.900874 
L 59.781702 -221.50383 
L 59.043826 -226.969886 
L 58.305949 -228.794128 
L 57.568073 -230.036705 
L 56.830196 -230.106918 
L 56.09232 -230.106918 
L 55.354443 -230.106918 
z
"/>
    </defs>
    <g clip-path="url(#pd497fb9f29)">
     <use xlink:href="#m261ef42cde" x="0" y="246.753281" style="fill: #f4a3a8; fill-opacity: 0.35"/>
    </g>
   </g>
   <g id="matplotlib.axis_1">
    <g id="xtick_1">
     <g id="line2d_1">
      <defs>
       <path id="m2283ea4c86" d="M 0 0 
L 0 3 
" style="stroke: #000000; stroke-width: 0.7"/>
      </defs>
      <g>
       <use xlink:href="#m2283ea4c86" x="55.354443" y="215.02" style="stroke: #000000; stroke-width: 0.7"/>
      </g>
     </g>
     <g id="text_1">
      <text style="font-size: 6.5px; font-family: 'Arial', 'Helvetica', 'DejaVu Sans', sans-serif; text-anchor: middle" x="55.354443" y="226.458984" transform="rotate(-0 55.354443 226.458984)">0.0</text>
     </g>
    </g>
    <g id="xtick_2">
     <g id="line2d_2">
      <g>
       <use xlink:href="#m2283ea4c86" x="129.142094" y="215.02" style="stroke: #000000; stroke-width: 0.7"/>
      </g>
     </g>
     <g id="text_2">
      <text style="font-size: 6.5px; font-family: 'Arial', 'Helvetica', 'DejaVu Sans', sans-serif; text-anchor: middle" x="129.142094" y="226.458984" transform="rotate(-0 129.142094 226.458984)">0.2</text>
     </g>
    </g>
    <g id="xtick_3">
     <g id="line2d_3">
      <g>
       <use xlink:href="#m2283ea4c86" x="202.929745" y="215.02" style="stroke: #000000; stroke-width: 0.7"/>
      </g>
     </g>
     <g id="text_3">
      <text style="font-size: 6.5px; font-family: 'Arial', 'Helvetica', 'DejaVu Sans', sans-serif; text-anchor: middle" x="202.929745" y="226.458984" transform="rotate(-0 202.929745 226.458984)">0.4</text>
     </g>
    </g>
    <g id="xtick_4">
     <g id="line2d_4">
      <g>
       <use xlink:href="#m2283ea4c86" x="276.717396" y="215.02" style="stroke: #000000; stroke-width: 0.7"/>
      </g>
     </g>
     <g id="text_4">
      <text style="font-size: 6.5px; font-family: 'Arial', 'Helvetica', 'DejaVu Sans', sans-serif; text-anchor: middle" x="276.717396" y="226.458984" transform="rotate(-0 276.717396 226.458984)">0.6</text>
     </g>
    </g>
    <g id="xtick_5">
     <g id="line2d_5">
      <g>
       <use xlink:href="#m2283ea4c86" x="350.505047" y="215.02" style="stroke: #000000; stroke-width: 0.7"/>
      </g>
     </g>
     <g id="text_5">
      <text style="font-size: 6.5px; font-family: 'Arial', 'Helvetica', 'DejaVu Sans', sans-serif; text-anchor: middle" x="350.505047" y="226.458984" transform="rotate(-0 350.505047 226.458984)">0.8</text>
     </g>
    </g>
    <g id="xtick_6">
     <g id="line2d_6">
      <g>
       <use xlink:href="#m2283ea4c86" x="424.292699" y="215.02" style="stroke: #000000; stroke-width: 0.7"/>
      </g>
     </g>
     <g id="text_6">
      <text style="font-size: 6.5px; font-family: 'Arial', 'Helvetica', 'DejaVu Sans', sans-serif; text-anchor: middle" x="424.292699" y="226.458984" transform="rotate(-0 424.292699 226.458984)">1.0</text>
     </g>
    </g>
    <g id="text_7">
     <text style="font-size: 8px; font-family: 'Arial', 'Helvetica', 'DejaVu Sans', sans-serif; text-anchor: middle" x="239.823571" y="237.889531" transform="rotate(-0 239.823571 237.889531)">Normalized optimization progress</text>
    </g>
   </g>
   <g id="matplotlib.axis_2">
    <g id="ytick_1">
     <g id="line2d_7">
      <defs>
       <path id="m099d4776d6" d="M 0 0 
L -3 0 
" style="stroke: #000000; stroke-width: 0.7"/>
      </defs>
      <g>
       <use xlink:href="#m099d4776d6" x="55.354443" y="191.261041" style="stroke: #000000; stroke-width: 0.7"/>
      </g>
     </g>
     <g id="text_8">
      <text style="font-size: 6.5px; font-family: 'Arial', 'Helvetica', 'DejaVu Sans', sans-serif; text-anchor: end" x="48.854443" y="193.730533" transform="rotate(-0 48.854443 193.730533)">0.2</text>
     </g>
    </g>
    <g id="ytick_2">
     <g id="line2d_8">
      <g>
       <use xlink:href="#m099d4776d6" x="55.354443" y="147.607372" style="stroke: #000000; stroke-width: 0.7"/>
      </g>
     </g>
     <g id="text_9">
      <text style="font-size: 6.5px; font-family: 'Arial', 'Helvetica', 'DejaVu Sans', sans-serif; text-anchor: end" x="48.854443" y="150.076864" transform="rotate(-0 48.854443 150.076864)">0.4</text>
     </g>
    </g>
    <g id="ytick_3">
     <g id="line2d_9">
      <g>
       <use xlink:href="#m099d4776d6" x="55.354443" y="103.953702" style="stroke: #000000; stroke-width: 0.7"/>
      </g>
     </g>
     <g id="text_10">
      <text style="font-size: 6.5px; font-family: 'Arial', 'Helvetica', 'DejaVu Sans', sans-serif; text-anchor: end" x="48.854443" y="106.423195" transform="rotate(-0 48.854443 106.423195)">0.6</text>
     </g>
    </g>
    <g id="ytick_4">
     <g id="line2d_10">
      <g>
       <use xlink:href="#m099d4776d6" x="55.354443" y="60.300033" style="stroke: #000000; stroke-width: 0.7"/>
      </g>
     </g>
     <g id="text_11">
      <text style="font-size: 6.5px; font-family: 'Arial', 'Helvetica', 'DejaVu Sans', sans-serif; text-anchor: end" x="48.854443" y="62.769525" transform="rotate(-0 48.854443 62.769525)">0.8</text>
     </g>
    </g>
    <g id="ytick_5">
     <g id="line2d_11">
      <g>
       <use xlink:href="#m099d4776d6" x="55.354443" y="16.646364" style="stroke: #000000; stroke-width: 0.7"/>
      </g>
     </g>
     <g id="text_12">
      <text style="font-size: 6.5px; font-family: 'Arial', 'Helvetica', 'DejaVu Sans', sans-serif; text-anchor: end" x="48.854443" y="19.115856" transform="rotate(-0 48.854443 19.115856)">1.0</text>
     </g>
    </g>
   </g>
   <g id="line2d_12">
    <path d="M 55.354443 16.646364 
L 56.830196 16.646364 
L 57.568073 16.809046 
L 59.781702 16.809046 
L 60.519579 19.183642 
L 61.257455 36.572543 
L 61.995332 36.572543 
L 62.733208 47.37737 
L 64.208961 47.37737 
L 64.946838 48.285876 
L 70.84985 48.285876 
L 72.325603 61.985374 
L 74.539232 61.985374 
L 76.014985 62.273615 
L 76.752862 69.986149 
L 77.490738 72.995777 
L 81.917997 72.995777 
L 82.655874 82.53472 
L 83.39375 82.53472 
L 84.131627 83.636165 
L 86.345256 83.636165 
L 87.083133 88.639082 
L 89.296763 88.639082 
L 90.034639 89.434331 
L 91.510392 89.434331 
L 92.248269 87.743265 
L 103.316416 87.743265 
L 104.054293 88.443161 
L 106.267922 88.443161 
L 107.005799 90.918799 
L 107.743675 90.918799 
L 108.481552 91.837328 
L 116.598193 91.837328 
L 117.33607 94.342746 
L 118.073946 95.711208 
L 120.287576 95.711208 
L 121.025452 96.305994 
L 121.763329 100.174658 
L 126.190588 100.174658 
L 126.928465 100.427987 
L 129.142094 100.427987 
L 129.879971 101.028177 
L 137.996612 101.028177 
L 138.734489 101.9753 
L 144.637501 101.9753 
L 145.375377 102.696804 
L 148.326883 102.696804 
L 149.06476 104.53868 
L 149.802636 105.11619 
L 150.540513 105.11619 
L 151.278389 108.024162 
L 153.492019 108.024162 
L 154.229895 109.757284 
L 154.967772 109.757284 
L 155.705648 112.278415 
L 156.443525 112.278415 
L 157.181402 115.863981 
L 166.03592 115.863981 
L 166.773796 120.656074 
L 171.201055 120.656074 
L 171.938932 120.533757 
L 177.841944 120.533757 
L 179.317697 120.809536 
L 185.220709 120.809536 
L 185.958585 121.765425 
L 187.434338 121.765425 
L 188.172215 121.260882 
L 188.910091 122.68809 
L 196.288857 122.730227 
L 197.026733 123.35189 
L 208.832757 123.35189 
L 209.570634 126.111916 
L 236.134188 126.111916 
L 236.872065 127.409442 
L 242.0372 127.409442 
L 242.775077 127.963428 
L 250.891718 127.963428 
L 251.629595 128.554711 
L 252.367471 128.554711 
L 253.105348 131.57211 
L 256.794731 131.57211 
L 257.532607 132.607061 
L 259.00836 132.607061 
L 259.746237 133.24798 
L 281.144655 133.24798 
L 281.882532 133.755127 
L 287.785544 133.755127 
L 288.52342 134.465188 
L 289.261297 134.465188 
L 289.999174 136.792401 
L 312.135469 136.807113 
L 312.873345 137.084651 
L 323.203616 137.084651 
L 323.941493 137.459535 
L 371.903466 137.378948 
L 372.641343 137.632917 
L 374.854972 137.632917 
L 375.592849 138.077281 
L 424.292699 138.072358 
L 424.292699 138.072358 
" clip-path="url(#pd497fb9f29)" style="fill: none; stroke: #b8b8b8; stroke-opacity: 0.28; stroke-width: 0.75; stroke-linecap: square"/>
   </g>
   <g id="line2d_13">
    <path d="M 55.354443 16.646364 
L 56.09232 16.646364 
L 56.830196 17.908259 
L 57.568073 28.120558 
L 58.305949 35.806969 
L 59.043826 48.215135 
L 59.781702 49.374632 
L 60.519579 52.312688 
L 63.471085 52.312688 
L 64.208961 52.909322 
L 64.946838 58.929078 
L 65.684714 58.929078 
L 66.422591 59.107962 
L 70.111973 59.107962 
L 70.84985 65.87166 
L 72.325603 65.87166 
L 73.063479 66.787775 
L 73.801356 66.787775 
L 74.539232 67.912262 
L 75.277109 67.912262 
L 76.014985 69.093248 
L 78.228615 69.093248 
L 78.966491 69.548511 
L 79.704368 71.103539 
L 80.442244 76.284917 
L 81.180121 82.468881 
L 81.917997 82.468881 
L 82.655874 87.43586 
L 83.39375 89.451753 
L 91.510392 89.451753 
L 92.248269 91.805342 
L 93.724022 91.805342 
L 94.461898 92.137205 
L 95.199775 92.137205 
L 95.937651 92.366985 
L 96.675528 93.744005 
L 104.792169 93.744005 
L 105.530046 94.267407 
L 107.005799 94.176977 
L 107.743675 94.720579 
L 115.860317 94.720579 
L 116.598193 95.374093 
L 117.33607 95.535338 
L 127.666341 95.535338 
L 128.404218 96.151215 
L 129.142094 106.240413 
L 132.0936 106.240413 
L 132.831477 112.072419 
L 135.782983 112.072419 
L 136.520859 112.334749 
L 138.734489 112.334749 
L 139.472365 112.487952 
L 140.948118 112.487952 
L 141.685995 116.258305 
L 149.802636 116.258305 
L 150.540513 116.117487 
L 153.492019 116.117487 
L 154.229895 116.465375 
L 154.967772 116.465375 
L 155.705648 117.558322 
L 157.181402 117.46756 
L 157.919278 117.813655 
L 162.346537 117.813655 
L 163.084414 118.129108 
L 166.03592 118.129108 
L 166.773796 119.106985 
L 167.511673 119.434492 
L 168.987426 119.434492 
L 169.725302 118.292221 
L 177.104067 118.292221 
L 178.57982 120.37395 
L 179.317697 120.37395 
L 180.055573 121.470117 
L 180.79345 121.88145 
L 183.007079 121.88145 
L 183.744956 124.05956 
L 185.220709 124.05956 
L 185.958585 124.742859 
L 194.813104 124.733544 
L 199.978239 124.818315 
L 200.716116 125.064211 
L 203.667622 125.064211 
L 204.405498 126.938784 
L 208.094881 126.938784 
L 208.832757 128.199541 
L 237.609941 128.199541 
L 238.347818 129.268935 
L 239.085694 129.965586 
L 244.25083 129.965586 
L 244.988706 130.209771 
L 255.318977 130.209771 
L 256.056854 130.398144 
L 261.959866 130.398144 
L 262.697743 130.759843 
L 276.717396 130.759843 
L 277.455273 130.902889 
L 278.931026 130.902889 
L 279.668902 132.927691 
L 284.096161 132.927691 
L 284.834038 133.504166 
L 287.785544 133.504166 
L 288.52342 133.635414 
L 291.474927 133.635414 
L 292.212803 134.028702 
L 304.018827 134.028702 
L 304.756704 134.457552 
L 319.514234 134.496383 
L 320.25211 134.056772 
L 326.892999 134.056772 
L 327.630876 134.50204 
L 335.747517 134.50204 
L 336.485394 136.198726 
L 366.738331 136.300275 
L 367.476207 136.75447 
L 368.214084 137.797292 
L 372.641343 137.797292 
L 373.379219 138.737285 
L 413.224551 138.842897 
L 414.700304 138.949464 
L 424.292699 138.949464 
L 424.292699 138.949464 
" clip-path="url(#pd497fb9f29)" style="fill: none; stroke: #b8b8b8; stroke-opacity: 0.28; stroke-width: 0.75; stroke-linecap: square"/>
   </g>
   <g id="line2d_14">
    <path d="M 55.354443 16.646364 
L 56.09232 16.646364 
L 56.830196 17.378611 
L 57.568073 17.378611 
L 58.305949 27.74963 
L 59.043826 27.74963 
L 59.781702 29.502477 
L 60.519579 37.423324 
L 64.208961 37.423324 
L 64.946838 41.059552 
L 67.898344 41.154383 
L 68.63622 41.545816 
L 69.374097 42.915742 
L 72.325603 42.915742 
L 73.063479 50.719901 
L 74.539232 50.719901 
L 75.277109 73.490522 
L 77.490738 73.490522 
L 78.228615 73.188966 
L 80.442244 73.188966 
L 81.180121 73.777372 
L 81.917997 73.777372 
L 82.655874 74.168481 
L 83.39375 74.168481 
L 84.131627 75.226313 
L 86.345256 75.226313 
L 87.083133 84.908374 
L 89.296763 84.908374 
L 90.034639 85.429456 
L 103.316416 85.509488 
L 104.054293 86.965471 
L 123.976959 86.965471 
L 124.714835 88.649854 
L 127.666341 88.649854 
L 128.404218 90.487077 
L 129.879971 90.487077 
L 130.617847 94.855185 
L 138.734489 94.86677 
L 139.472365 95.882732 
L 146.113254 95.882732 
L 146.85113 99.563396 
L 147.589007 100.862386 
L 152.754142 100.862386 
L 153.492019 101.466834 
L 157.181402 101.466834 
L 157.919278 100.999735 
L 159.395031 100.999735 
L 160.132908 106.785948 
L 160.870784 107.245924 
L 161.608661 108.117988 
L 164.560167 108.117988 
L 165.298043 110.326528 
L 167.511673 110.326528 
L 168.249549 111.8201 
L 168.987426 111.8201 
L 169.725302 116.870816 
L 170.463179 118.205672 
L 188.172215 118.196065 
L 188.910091 119.8807 
L 194.075227 119.8807 
L 194.813104 120.322136 
L 195.55098 120.322136 
L 196.288857 119.874407 
L 221.376658 119.950685 
L 222.114534 120.140892 
L 223.590288 120.140892 
L 224.328164 120.889793 
L 230.231176 120.889793 
L 230.969053 120.71573 
L 237.609941 120.71573 
L 238.347818 122.025011 
L 239.823571 122.025011 
L 240.561447 121.905632 
L 253.105348 121.905632 
L 253.843224 123.453405 
L 261.959866 123.453405 
L 262.697743 123.802478 
L 264.173496 123.802478 
L 264.911372 124.29743 
L 267.862878 124.29743 
L 268.600755 123.881159 
L 278.193149 123.881159 
L 278.931026 124.314528 
L 303.280951 124.314528 
L 304.018827 129.265861 
L 304.756704 129.550938 
L 306.232457 129.550938 
L 306.970333 130.080414 
L 312.873345 130.080414 
L 313.611222 130.206174 
L 349.767171 130.206174 
L 350.505047 132.223041 
L 378.544355 132.313802 
L 379.282231 133.289248 
L 380.020108 133.289248 
L 380.757984 133.531396 
L 391.826132 133.531396 
L 392.564009 134.337816 
L 396.253391 134.33846 
L 396.991268 135.515933 
L 404.370033 135.515933 
L 405.107909 135.344035 
L 408.797292 135.344035 
L 409.535168 135.462627 
L 412.486674 135.462627 
L 413.224551 135.839006 
L 415.43818 135.839006 
L 416.176057 138.310405 
L 424.292699 138.310405 
L 424.292699 138.310405 
" clip-path="url(#pd497fb9f29)" style="fill: none; stroke: #b8b8b8; stroke-opacity: 0.28; stroke-width: 0.75; stroke-linecap: square"/>
   </g>
   <g id="line2d_15">
    <path d="M 55.354443 16.646364 
L 56.830196 16.646364 
L 57.568073 29.987015 
L 58.305949 29.987015 
L 59.043826 41.078674 
L 61.257455 41.078674 
L 61.995332 48.228972 
L 62.733208 48.228972 
L 63.471085 49.191752 
L 64.946838 49.289836 
L 66.422591 49.289836 
L 67.160467 56.026494 
L 67.898344 56.026494 
L 68.63622 56.182094 
L 69.374097 56.688058 
L 70.111973 56.883125 
L 71.587726 56.883125 
L 72.325603 57.712031 
L 73.063479 61.952858 
L 81.180121 61.952858 
L 81.917997 63.814171 
L 88.558886 63.814171 
L 89.296763 64.286562 
L 91.510392 64.286562 
L 92.248269 70.493903 
L 95.937651 70.493903 
L 96.675528 71.528302 
L 98.151281 71.528302 
L 98.889157 77.110406 
L 101.840663 77.110406 
L 102.57854 82.033614 
L 105.530046 82.033614 
L 106.267922 84.188585 
L 107.005799 84.188585 
L 107.743675 84.972416 
L 108.481552 84.972416 
L 109.219428 85.199959 
L 110.695181 85.199959 
L 111.433058 85.84711 
L 114.384564 85.84711 
L 115.12244 91.54072 
L 117.33607 91.54072 
L 118.073946 92.772353 
L 118.811823 92.458841 
L 120.287576 92.458841 
L 121.025452 94.240135 
L 121.763329 98.609827 
L 122.501205 100.238305 
L 123.976959 100.238305 
L 124.714835 100.736098 
L 125.452712 100.736098 
L 126.190588 101.303161 
L 127.666341 101.303161 
L 128.404218 103.656489 
L 129.879971 103.656489 
L 130.617847 104.869187 
L 131.355724 106.856337 
L 132.0936 106.856337 
L 132.831477 107.699563 
L 133.569353 108.092181 
L 138.734489 108.092181 
L 139.472365 112.087709 
L 140.948118 112.087709 
L 141.685995 114.489214 
L 144.637501 114.489214 
L 145.375377 115.79935 
L 148.326883 115.787781 
L 149.06476 116.460589 
L 149.802636 118.382321 
L 158.657155 118.382321 
L 159.395031 120.392423 
L 160.132908 121.631495 
L 162.346537 121.631495 
L 163.084414 122.106231 
L 168.249549 122.106231 
L 168.987426 122.247847 
L 182.269203 122.247847 
L 183.007079 122.681348 
L 185.958585 122.681348 
L 186.696462 123.524318 
L 188.910091 123.524318 
L 189.647968 123.722517 
L 195.55098 123.722517 
L 196.288857 124.401778 
L 199.240363 124.401778 
L 199.978239 125.776307 
L 202.929745 125.836095 
L 203.667622 126.034092 
L 219.900905 126.040085 
L 220.638781 127.011236 
L 222.852411 127.011236 
L 223.590288 127.907448 
L 230.231176 127.907448 
L 230.969053 128.730111 
L 234.658435 128.730111 
L 235.396312 129.048233 
L 236.134188 132.392873 
L 244.25083 132.392873 
L 244.988706 133.204849 
L 250.153842 133.275748 
L 250.891718 132.929295 
L 255.318977 132.93137 
L 256.056854 133.996702 
L 260.484113 133.996702 
L 261.22199 134.245154 
L 266.387125 134.245154 
L 267.125002 134.48546 
L 279.668902 134.48546 
L 280.406779 134.917606 
L 281.144655 134.917606 
L 281.882532 136.912663 
L 284.096161 136.912663 
L 284.834038 139.701544 
L 286.309791 139.701544 
L 287.047667 141.485376 
L 301.067321 141.485376 
L 301.805198 144.33596 
L 314.349098 144.33596 
L 315.086975 144.577241 
L 317.300604 144.577241 
L 318.038481 147.072707 
L 339.4369 147.072707 
L 340.174776 149.405069 
L 391.088256 149.509171 
L 391.826132 149.901947 
L 396.991268 149.901947 
L 397.729144 150.197138 
L 417.65181 150.133592 
L 418.389686 151.383481 
L 424.292699 151.383481 
L 424.292699 151.383481 
" clip-path="url(#pd497fb9f29)" style="fill: none; stroke: #b8b8b8; stroke-opacity: 0.28; stroke-width: 0.75; stroke-linecap: square"/>
   </g>
   <g id="line2d_16">
    <path d="M 55.354443 16.646364 
L 56.830196 16.646364 
L 57.568073 50.912222 
L 59.043826 50.912222 
L 59.781702 58.821831 
L 60.519579 62.689121 
L 61.995332 62.689121 
L 62.733208 64.726184 
L 64.208961 64.726184 
L 64.946838 71.0182 
L 65.684714 72.832656 
L 66.422591 80.088067 
L 67.160467 85.339128 
L 67.898344 85.339128 
L 68.63622 93.935713 
L 70.111973 93.935713 
L 70.84985 95.907722 
L 72.325603 95.907722 
L 73.063479 99.705786 
L 73.801356 99.705786 
L 74.539232 102.74324 
L 76.014985 102.74324 
L 76.752862 103.24777 
L 79.704368 103.24777 
L 80.442244 103.827157 
L 81.180121 103.827157 
L 81.917997 111.009559 
L 84.869503 111.009559 
L 85.60738 113.201539 
L 86.345256 113.305158 
L 87.083133 114.897327 
L 94.461898 114.897327 
L 95.199775 116.334859 
L 98.151281 116.334859 
L 98.889157 116.891457 
L 99.627034 119.011035 
L 100.36491 119.652061 
L 107.005799 119.652061 
L 107.743675 120.10838 
L 108.481552 121.643192 
L 109.957305 121.643192 
L 110.695181 123.551092 
L 111.433058 124.047996 
L 112.170934 124.047996 
L 112.908811 129.457973 
L 113.646687 129.457973 
L 114.384564 130.120992 
L 118.811823 130.120992 
L 120.287576 130.407997 
L 122.501205 130.407997 
L 123.239082 130.619591 
L 125.452712 130.619591 
L 126.190588 134.582369 
L 126.928465 137.459496 
L 130.617847 137.459496 
L 131.355724 138.322292 
L 135.045106 138.322292 
L 136.520859 140.417308 
L 137.258736 140.417308 
L 137.996612 140.875532 
L 139.472365 140.875532 
L 140.210242 141.27204 
L 149.06476 141.27204 
L 149.802636 141.509568 
L 159.395031 141.56939 
L 160.132908 141.888966 
L 166.03592 141.888966 
L 166.773796 142.012163 
L 174.152561 142.012163 
L 174.890438 143.000621 
L 182.269203 143.000621 
L 183.007079 145.875517 
L 183.744956 147.15589 
L 184.482832 147.432695 
L 194.813104 147.432695 
L 195.55098 148.322333 
L 199.978239 148.322333 
L 200.716116 149.755517 
L 208.094881 149.755517 
L 208.832757 150.12995 
L 229.4933 150.12995 
L 230.231176 150.43231 
L 230.969053 151.801538 
L 244.988706 151.801538 
L 245.726583 152.25278 
L 256.056854 152.25278 
L 256.794731 153.309235 
L 263.435619 153.309235 
L 264.173496 153.870359 
L 267.862878 153.870359 
L 268.600755 154.358864 
L 278.931026 154.358864 
L 279.668902 154.657058 
L 280.406779 156.937676 
L 291.474927 156.937676 
L 292.212803 157.63318 
L 295.164309 157.63318 
L 295.902186 157.978446 
L 301.805198 157.978446 
L 302.543074 158.403554 
L 314.349098 158.403554 
L 315.086975 159.72138 
L 323.203616 159.72138 
L 323.941493 159.846845 
L 355.670183 159.846845 
L 356.408059 160.469539 
L 357.145936 160.469539 
L 357.883813 161.222062 
L 374.854972 161.222062 
L 375.592849 164.073569 
L 393.301885 164.073569 
L 394.039762 164.359456 
L 394.777638 164.359456 
L 395.515515 164.553081 
L 396.991268 164.553081 
L 397.729144 164.240709 
L 402.156403 164.240709 
L 402.89428 164.954418 
L 419.865439 164.954418 
L 420.603316 166.582066 
L 424.292699 166.582066 
L 424.292699 166.582066 
" clip-path="url(#pd497fb9f29)" style="fill: none; stroke: #b8b8b8; stroke-opacity: 0.28; stroke-width: 0.75; stroke-linecap: square"/>
   </g>
   <g id="line2d_17">
    <path d="M 55.354443 16.646364 
L 56.09232 43.189474 
L 62.733208 43.189474 
L 63.471085 47.739211 
L 64.208961 48.032264 
L 65.684714 48.032264 
L 66.422591 48.62071 
L 67.160467 52.694776 
L 67.898344 52.694776 
L 68.63622 53.14708 
L 69.374097 56.196595 
L 70.111973 61.637812 
L 70.84985 63.336659 
L 71.587726 64.038371 
L 72.325603 69.668691 
L 73.063479 77.233493 
L 73.801356 78.095668 
L 74.539232 78.095668 
L 75.277109 79.551569 
L 76.014985 79.551569 
L 76.752862 80.852275 
L 80.442244 80.953723 
L 81.180121 98.951292 
L 81.917997 98.951292 
L 82.655874 99.528058 
L 84.869503 99.528058 
L 85.60738 99.849057 
L 86.345256 99.663824 
L 87.083133 99.912556 
L 90.772516 99.912556 
L 91.510392 102.893181 
L 92.248269 102.893181 
L 92.986145 107.843344 
L 93.724022 118.48681 
L 95.199775 118.48681 
L 95.937651 120.212306 
L 98.151281 120.212306 
L 98.889157 122.813622 
L 100.36491 122.813622 
L 101.102787 123.816616 
L 101.840663 123.816616 
L 102.57854 124.51965 
L 104.792169 124.51965 
L 105.530046 126.644136 
L 106.267922 126.644136 
L 107.005799 128.010883 
L 113.646687 128.010883 
L 114.384564 130.242824 
L 115.12244 130.242824 
L 115.860317 130.77418 
L 118.073946 130.77418 
L 118.811823 132.501294 
L 119.549699 132.501294 
L 120.287576 133.638892 
L 123.976959 133.638892 
L 124.714835 139.747133 
L 127.666341 139.747133 
L 128.404218 139.299697 
L 140.948118 139.299697 
L 141.685995 140.86005 
L 144.637501 140.86005 
L 145.375377 141.340845 
L 149.802636 141.340845 
L 150.540513 142.123324 
L 158.657155 142.123324 
L 159.395031 142.825551 
L 163.084414 142.825551 
L 163.82229 144.620662 
L 182.269203 144.620662 
L 183.007079 146.228531 
L 199.240363 146.316725 
L 199.978239 146.6025 
L 211.784263 146.693082 
L 213.260016 146.77214 
L 222.114534 146.77214 
L 222.852411 147.216474 
L 230.969053 147.216474 
L 231.706929 152.304228 
L 236.134188 152.304228 
L 236.872065 152.570111 
L 256.794731 152.570111 
L 257.532607 153.295884 
L 259.00836 153.236865 
L 266.387125 153.333288 
L 267.862878 153.428397 
L 280.406779 153.428397 
L 281.144655 152.866392 
L 340.174776 152.92346 
L 340.912653 153.629038 
L 421.341192 153.522371 
L 422.079069 154.868766 
L 424.292699 154.868766 
L 424.292699 154.868766 
" clip-path="url(#pd497fb9f29)" style="fill: none; stroke: #b8b8b8; stroke-opacity: 0.28; stroke-width: 0.75; stroke-linecap: square"/>
   </g>
   <g id="line2d_18">
    <path d="M 55.354443 16.646364 
L 59.043826 16.646364 
L 59.781702 17.594531 
L 60.519579 17.594531 
L 61.257455 17.980395 
L 61.995332 17.980395 
L 62.733208 52.700461 
L 64.208961 52.74082 
L 64.946838 61.039144 
L 67.160467 61.039144 
L 67.898344 63.835099 
L 69.374097 63.835099 
L 70.111973 82.154081 
L 70.84985 88.76967 
L 73.063479 88.76967 
L 73.801356 97.301637 
L 76.014985 97.301637 
L 76.752862 102.75106 
L 78.966491 102.75106 
L 79.704368 104.303931 
L 80.442244 105.085628 
L 81.180121 105.085628 
L 81.917997 114.384414 
L 84.131627 114.384414 
L 84.869503 119.853526 
L 85.60738 120.709012 
L 87.083133 120.709012 
L 87.821009 122.190938 
L 92.986145 122.190938 
L 93.724022 122.874689 
L 95.937651 122.874689 
L 96.675528 124.159186 
L 98.889157 124.159186 
L 99.627034 124.703869 
L 103.316416 124.703869 
L 104.054293 125.310074 
L 107.743675 125.359248 
L 108.481552 127.413455 
L 109.957305 127.413455 
L 110.695181 127.994883 
L 112.908811 127.994883 
L 113.646687 128.193775 
L 115.860317 128.41173 
L 116.598193 129.183808 
L 117.33607 129.183808 
L 118.073946 129.393102 
L 121.763329 129.393102 
L 122.501205 133.874382 
L 123.239082 134.795629 
L 132.0936 134.795629 
L 132.831477 135.826669 
L 133.569353 135.826669 
L 134.30723 136.009049 
L 138.734489 136.009049 
L 139.472365 136.860757 
L 141.685995 136.860757 
L 142.423871 138.857797 
L 143.899624 138.943856 
L 144.637501 139.329402 
L 149.06476 139.329402 
L 149.802636 142.656418 
L 150.540513 143.038435 
L 159.395031 143.038435 
L 160.132908 144.975846 
L 163.084414 144.975846 
L 163.82229 145.257503 
L 164.560167 145.257503 
L 165.298043 147.243272 
L 172.676808 147.174921 
L 173.414685 148.160108 
L 174.152561 148.160108 
L 174.890438 148.716323 
L 182.269203 148.696366 
L 183.007079 148.924799 
L 189.647968 148.924799 
L 190.385845 149.929046 
L 191.861598 149.988672 
L 193.337351 149.988672 
L 194.075227 150.491532 
L 201.453992 150.590782 
L 202.191869 152.999998 
L 217.687275 153.000153 
L 218.425152 154.700968 
L 222.114534 154.700968 
L 222.852411 154.974802 
L 236.134188 154.96973 
L 236.872065 155.175887 
L 240.561447 155.175887 
L 241.299324 159.321224 
L 248.678089 159.321224 
L 249.415965 160.129098 
L 261.22199 160.129098 
L 261.959866 160.262909 
L 280.406779 160.262909 
L 281.144655 163.378528 
L 288.52342 163.378528 
L 289.261297 163.553129 
L 298.115815 163.553129 
L 298.853692 164.304389 
L 309.183963 164.405285 
L 310.659716 164.481657 
L 311.397592 164.481657 
L 312.135469 164.826393 
L 327.630876 164.918651 
L 328.368752 165.125711 
L 342.388406 165.217067 
L 343.126282 165.422381 
L 408.059415 165.422381 
L 408.797292 166.225448 
L 424.292699 166.225448 
L 424.292699 166.225448 
" clip-path="url(#pd497fb9f29)" style="fill: none; stroke: #b8b8b8; stroke-opacity: 0.28; stroke-width: 0.75; stroke-linecap: square"/>
   </g>
   <g id="line2d_19">
    <path d="M 55.354443 16.646364 
L 59.043826 16.646364 
L 59.781702 31.763699 
L 60.519579 31.763699 
L 61.257455 32.664315 
L 64.208961 32.664315 
L 64.946838 37.547785 
L 65.684714 37.547785 
L 66.422591 39.936682 
L 70.111973 39.936682 
L 70.84985 40.565132 
L 71.587726 40.565132 
L 72.325603 40.331413 
L 75.277109 40.331413 
L 76.014985 47.021692 
L 76.752862 47.021692 
L 77.490738 48.559378 
L 79.704368 48.559378 
L 80.442244 55.306997 
L 81.917997 55.306997 
L 82.655874 55.829095 
L 83.39375 55.829095 
L 84.131627 59.210148 
L 89.296763 59.210148 
L 90.034639 59.701031 
L 92.248269 59.701031 
L 92.986145 61.878866 
L 97.413404 61.878866 
L 98.151281 62.527413 
L 99.627034 62.527413 
L 100.36491 63.898058 
L 104.054293 63.898058 
L 104.792169 64.287244 
L 105.530046 64.287244 
L 106.267922 64.811375 
L 107.005799 98.040184 
L 113.646687 98.040184 
L 114.384564 99.457356 
L 115.12244 99.457356 
L 115.860317 99.909028 
L 118.073946 99.909028 
L 118.811823 100.980398 
L 123.239082 101.063541 
L 123.976959 101.426606 
L 126.190588 101.426606 
L 126.928465 101.60998 
L 136.520859 101.60998 
L 137.258736 101.922266 
L 140.210242 101.922266 
L 140.948118 105.343658 
L 141.685995 105.343658 
L 142.423871 124.607878 
L 150.540513 124.607878 
L 151.278389 127.3146 
L 153.492019 127.3146 
L 154.229895 127.609253 
L 158.657155 127.609253 
L 159.395031 143.615469 
L 160.132908 143.615469 
L 160.870784 151.365857 
L 161.608661 151.365857 
L 162.346537 166.186444 
L 163.084414 166.186444 
L 163.82229 168.660729 
L 164.560167 169.587116 
L 168.987426 169.587116 
L 169.725302 169.955902 
L 180.79345 169.912871 
L 181.531326 170.897744 
L 185.220709 170.913155 
L 185.958585 171.167794 
L 187.434338 171.167794 
L 188.172215 171.448501 
L 189.647968 171.36223 
L 190.385845 171.36223 
L 191.123721 171.932721 
L 195.55098 171.932721 
L 196.288857 174.769436 
L 197.026733 175.811573 
L 205.881251 175.852271 
L 206.619128 177.634336 
L 209.570634 177.634336 
L 210.30851 178.1245 
L 211.046387 178.34997 
L 211.784263 180.484799 
L 213.260016 180.484799 
L 214.735769 180.775698 
L 215.473646 180.775698 
L 216.211522 181.085331 
L 216.949399 181.255318 
L 219.163028 181.255318 
L 219.900905 181.577548 
L 224.328164 181.577548 
L 225.066041 182.621917 
L 267.862878 182.731701 
L 269.338631 182.840362 
L 273.028014 182.840362 
L 273.76589 183.481686 
L 275.241643 183.592168 
L 305.49458 183.637652 
L 306.232457 183.79257 
L 309.183963 183.844173 
L 309.921839 184.306128 
L 332.796011 184.306128 
L 333.533888 184.467349 
L 389.612502 184.473264 
L 390.350379 184.606186 
L 416.913933 184.600518 
L 417.65181 184.812055 
L 424.292699 184.812055 
L 424.292699 184.812055 
" clip-path="url(#pd497fb9f29)" style="fill: none; stroke: #b8b8b8; stroke-opacity: 0.28; stroke-width: 0.75; stroke-linecap: square"/>
   </g>
   <g id="line2d_20">
    <path d="M 55.354443 16.646364 
L 56.09232 31.349199 
L 59.781702 31.349199 
L 60.519579 37.698774 
L 61.257455 37.698774 
L 61.995332 42.001994 
L 62.733208 54.59517 
L 63.471085 65.067905 
L 64.208961 65.067905 
L 64.946838 68.936021 
L 66.422591 68.936021 
L 67.160467 71.68233 
L 67.898344 94.04822 
L 68.63622 96.048612 
L 69.374097 97.261785 
L 78.228615 97.261785 
L 79.704368 100.311094 
L 83.39375 100.311094 
L 84.131627 105.644089 
L 84.869503 113.771855 
L 85.60738 113.771855 
L 86.345256 114.728176 
L 88.558886 114.728176 
L 89.296763 116.928327 
L 90.772516 116.928327 
L 91.510392 123.778182 
L 92.248269 124.553882 
L 92.986145 124.553882 
L 93.724022 129.507554 
L 99.627034 129.507554 
L 100.36491 129.765982 
L 101.102787 129.765982 
L 101.840663 132.096697 
L 102.57854 133.425799 
L 108.481552 133.425799 
L 109.219428 134.442448 
L 109.957305 134.442448 
L 110.695181 135.400537 
L 117.33607 135.400537 
L 118.073946 135.979611 
L 120.287576 135.979611 
L 121.025452 136.214516 
L 123.239082 136.214516 
L 123.976959 137.017031 
L 125.452712 137.017031 
L 126.190588 138.523485 
L 128.404218 138.523485 
L 129.142094 139.158956 
L 137.996612 139.158956 
L 138.734489 141.043061 
L 142.423871 141.043061 
L 143.161748 143.031194 
L 146.85113 143.031194 
L 147.589007 144.344393 
L 149.06476 144.254338 
L 149.802636 144.541918 
L 157.181402 144.541918 
L 157.919278 145.720254 
L 160.870784 145.720254 
L 161.608661 147.223882 
L 168.987426 147.223882 
L 169.725302 147.544527 
L 182.269203 147.544527 
L 183.007079 148.020482 
L 185.220709 148.020482 
L 185.958585 149.04835 
L 187.434338 149.04835 
L 188.172215 149.739289 
L 191.123721 149.752563 
L 191.861598 150.11181 
L 199.978239 150.11181 
L 200.716116 150.233594 
L 214.735769 150.233594 
L 215.473646 151.446963 
L 228.755423 151.446963 
L 229.4933 152.172205 
L 240.561447 152.172205 
L 241.299324 153.324806 
L 292.212803 153.328374 
L 292.95068 153.736623 
L 318.038481 153.736623 
L 319.514234 154.09836 
L 348.291418 154.09836 
L 349.029294 154.234305 
L 424.292699 154.162033 
L 424.292699 154.162033 
" clip-path="url(#pd497fb9f29)" style="fill: none; stroke: #b8b8b8; stroke-opacity: 0.28; stroke-width: 0.75; stroke-linecap: square"/>
   </g>
   <g id="line2d_21">
    <path d="M 55.354443 16.646364 
L 56.09232 20.792828 
L 56.830196 20.792828 
L 58.305949 41.712459 
L 61.257455 41.712459 
L 62.733208 56.445485 
L 63.471085 56.445485 
L 64.208961 57.788437 
L 66.422591 57.788437 
L 67.160467 60.243168 
L 67.898344 82.349593 
L 68.63622 82.349593 
L 69.374097 88.507746 
L 70.111973 89.282442 
L 70.84985 89.282442 
L 71.587726 92.308605 
L 72.325603 92.308605 
L 73.063479 92.687536 
L 73.801356 96.330848 
L 81.180121 96.330848 
L 81.917997 96.552662 
L 82.655874 97.34209 
L 83.39375 97.565188 
L 87.083133 97.565188 
L 87.821009 98.661919 
L 93.724022 98.661919 
L 94.461898 99.653833 
L 98.889157 99.653833 
L 99.627034 100.000822 
L 102.57854 100.000822 
L 103.316416 106.768911 
L 104.792169 106.768911 
L 105.530046 112.151659 
L 107.743675 112.151659 
L 108.481552 112.317309 
L 109.219428 113.497292 
L 109.957305 113.497292 
L 110.695181 112.858452 
L 111.433058 114.338801 
L 112.170934 114.338801 
L 112.908811 114.823603 
L 122.501205 114.823603 
L 123.239082 117.566621 
L 137.258736 117.566621 
L 137.996612 119.234834 
L 138.734489 119.452964 
L 139.472365 121.865829 
L 140.210242 121.865829 
L 140.948118 122.817049 
L 146.85113 122.817049 
L 148.326883 125.732024 
L 152.754142 125.732024 
L 153.492019 126.413049 
L 157.919278 126.413049 
L 158.657155 127.738446 
L 171.938932 127.738446 
L 172.676808 127.614294 
L 173.414685 128.116198 
L 189.647968 128.116198 
L 190.385845 128.630765 
L 197.76461 128.630765 
L 198.502486 129.728924 
L 199.240363 131.636055 
L 199.978239 131.888823 
L 205.881251 131.888823 
L 206.619128 132.309064 
L 212.52214 132.309064 
L 213.260016 132.087612 
L 220.638781 132.087612 
L 221.376658 132.899537 
L 232.444806 132.899537 
L 233.182682 134.073737 
L 241.299324 134.073737 
L 242.775077 135.370764 
L 247.940212 135.370764 
L 248.678089 137.129936 
L 252.367471 137.129936 
L 253.105348 137.436712 
L 260.484113 137.52323 
L 261.22199 137.928832 
L 264.911372 137.928832 
L 265.649249 138.573438 
L 268.600755 138.573438 
L 269.338631 138.815306 
L 275.241643 138.815306 
L 275.97952 139.297147 
L 296.640062 139.297147 
L 297.377939 139.517341 
L 298.115815 139.517341 
L 298.853692 140.291407 
L 304.756704 140.291407 
L 305.49458 141.21197 
L 306.232457 141.201841 
L 306.970333 141.739068 
L 311.397592 141.739068 
L 312.135469 142.82865 
L 312.873345 142.971799 
L 313.611222 143.583093 
L 324.67937 143.583093 
L 325.417246 144.56159 
L 326.155123 145.023974 
L 328.368752 145.023974 
L 329.106629 145.182553 
L 332.796011 145.182553 
L 333.533888 145.93622 
L 338.699023 146.005549 
L 339.4369 146.276352 
L 341.650529 146.276352 
L 342.388406 146.491422 
L 374.117096 146.491422 
L 374.854972 146.915927 
L 380.020108 146.915927 
L 380.757984 148.622485 
L 383.70949 148.622485 
L 384.447367 149.050346 
L 390.350379 149.050346 
L 391.088256 149.316748 
L 392.564009 149.316748 
L 393.301885 149.163407 
L 416.913933 149.163407 
L 417.65181 149.349542 
L 424.292699 149.349542 
L 424.292699 149.349542 
" clip-path="url(#pd497fb9f29)" style="fill: none; stroke: #b8b8b8; stroke-opacity: 0.28; stroke-width: 0.75; stroke-linecap: square"/>
   </g>
   <g id="line2d_22">
    <path d="M 55.354443 16.646364 
L 56.09232 16.78679 
L 57.568073 16.78679 
L 58.305949 19.109261 
L 59.043826 19.109261 
L 59.781702 38.460289 
L 65.684714 38.558235 
L 66.422591 39.063935 
L 67.160467 39.063935 
L 68.63622 119.622993 
L 69.374097 123.78338 
L 70.84985 123.78338 
L 71.587726 127.364677 
L 74.539232 127.364677 
L 75.277109 127.757071 
L 76.014985 127.757071 
L 76.752862 129.280163 
L 78.228615 129.280163 
L 78.966491 138.622031 
L 79.704368 140.125686 
L 84.131627 140.125686 
L 84.869503 142.269462 
L 85.60738 143.076781 
L 86.345256 143.076781 
L 87.083133 143.371541 
L 87.821009 144.531054 
L 88.558886 144.531054 
L 89.296763 146.575135 
L 90.772516 146.575135 
L 91.510392 146.978075 
L 92.248269 146.978075 
L 92.986145 147.128484 
L 98.151281 147.128484 
L 98.889157 147.720543 
L 101.840663 147.720543 
L 102.57854 147.841999 
L 106.267922 147.841999 
L 107.743675 150.525789 
L 109.219428 150.525789 
L 109.957305 151.646087 
L 113.646687 151.644506 
L 114.384564 153.402781 
L 116.598193 153.402781 
L 117.33607 154.004032 
L 120.287576 154.004032 
L 121.025452 154.760239 
L 121.763329 154.760239 
L 122.501205 155.231007 
L 123.239082 155.231007 
L 123.976959 157.177705 
L 134.30723 157.217431 
L 135.045106 157.367821 
L 135.782983 158.975358 
L 136.520859 162.735378 
L 137.258736 164.309254 
L 143.161748 164.271299 
L 143.899624 164.654293 
L 144.637501 165.509509 
L 146.113254 165.509509 
L 146.85113 168.298139 
L 147.589007 168.298139 
L 148.326883 168.566259 
L 154.229895 168.566259 
L 154.967772 170.691665 
L 157.919278 170.691665 
L 158.657155 171.050478 
L 160.132908 171.050478 
L 160.870784 171.972394 
L 163.084414 171.972394 
L 166.03592 172.423639 
L 168.249549 172.423639 
L 169.725302 173.026716 
L 171.201055 173.10619 
L 174.890438 173.10619 
L 175.628314 173.430377 
L 176.366191 177.853832 
L 177.104067 178.537822 
L 177.841944 178.800128 
L 178.57982 178.800128 
L 179.317697 179.262502 
L 180.055573 179.943482 
L 182.269203 179.943482 
L 183.007079 180.24456 
L 187.434338 180.24456 
L 188.172215 185.426618 
L 191.861598 185.426618 
L 192.599474 190.628541 
L 196.288857 190.651343 
L 197.026733 190.763982 
L 199.240363 190.763982 
L 199.978239 191.405481 
L 202.929745 191.405481 
L 203.667622 192.03319 
L 208.832757 192.03319 
L 209.570634 192.611841 
L 212.52214 192.611841 
L 213.260016 194.383634 
L 213.997893 194.617617 
L 228.017547 194.586075 
L 228.755423 195.215654 
L 229.4933 195.349639 
L 235.396312 195.349639 
L 236.134188 196.520321 
L 236.872065 196.520321 
L 237.609941 200.045219 
L 238.347818 200.666021 
L 239.823571 200.666021 
L 240.561447 201.836937 
L 247.940212 201.877447 
L 248.678089 202.364176 
L 254.581101 202.364176 
L 255.318977 202.502249 
L 270.814384 202.502249 
L 271.552261 202.372198 
L 272.290137 202.515998 
L 306.970333 202.602307 
L 307.70821 202.826216 
L 323.203616 202.826216 
L 323.941493 203.086914 
L 339.4369 203.086621 
L 340.174776 203.257365 
L 345.339912 203.257365 
L 346.077788 203.767716 
L 405.107909 203.824512 
L 405.845786 203.973434 
L 417.65181 203.973434 
L 418.389686 204.129107 
L 424.292699 204.129107 
L 424.292699 204.129107 
" clip-path="url(#pd497fb9f29)" style="fill: none; stroke: #b8b8b8; stroke-opacity: 0.28; stroke-width: 0.75; stroke-linecap: square"/>
   </g>
   <g id="line2d_23">
    <path d="M 55.354443 16.646364 
L 56.09232 16.646364 
L 56.830196 21.766529 
L 58.305949 21.766529 
L 59.043826 23.999878 
L 59.781702 23.999878 
L 60.519579 30.387111 
L 61.257455 30.387111 
L 61.995332 36.088255 
L 62.733208 44.145745 
L 63.471085 44.145745 
L 64.208961 46.313832 
L 64.946838 53.673483 
L 65.684714 54.117989 
L 66.422591 54.117989 
L 67.160467 55.464912 
L 67.898344 62.748072 
L 68.63622 65.73796 
L 69.374097 69.875855 
L 70.111973 69.466394 
L 70.84985 69.466394 
L 71.587726 75.801649 
L 72.325603 76.032649 
L 73.063479 80.215299 
L 73.801356 81.962091 
L 76.752862 81.962091 
L 77.490738 83.245535 
L 78.228615 83.245535 
L 78.966491 89.751282 
L 84.869503 89.751282 
L 85.60738 92.413829 
L 87.083133 92.413829 
L 87.821009 92.888025 
L 88.558886 95.520553 
L 95.199775 95.520553 
L 95.937651 97.950552 
L 97.413404 97.955684 
L 98.151281 99.089703 
L 101.840663 99.089703 
L 102.57854 99.750681 
L 103.316416 103.793648 
L 104.792169 103.793648 
L 105.530046 105.103536 
L 106.267922 111.109674 
L 107.743675 111.109674 
L 108.481552 111.80817 
L 109.219428 111.80817 
L 109.957305 112.273534 
L 123.976959 112.273534 
L 124.714835 113.477853 
L 126.928465 113.477853 
L 127.666341 113.91291 
L 129.142094 113.91291 
L 129.879971 114.17914 
L 130.617847 114.17914 
L 131.355724 114.474273 
L 143.899624 114.474273 
L 144.637501 116.135579 
L 145.375377 116.363147 
L 146.113254 121.595933 
L 146.85113 121.595933 
L 147.589007 121.89952 
L 149.802636 121.89952 
L 150.540513 123.555319 
L 151.278389 124.259096 
L 154.229895 124.259096 
L 154.967772 127.607847 
L 155.705648 127.010477 
L 163.82229 127.07968 
L 164.560167 127.474943 
L 168.249549 127.474943 
L 168.987426 128.003011 
L 177.841944 128.003011 
L 178.57982 129.634145 
L 179.317697 130.182577 
L 188.910091 130.182577 
L 189.647968 130.326865 
L 196.288857 130.326865 
L 197.026733 131.104809 
L 197.76461 131.270763 
L 202.191869 131.270763 
L 202.929745 131.583329 
L 206.619128 131.583329 
L 207.357004 133.316676 
L 209.570634 133.316676 
L 210.30851 134.111114 
L 213.997893 134.111114 
L 214.735769 134.324334 
L 216.211522 134.324334 
L 216.949399 134.933539 
L 223.590288 134.933539 
L 224.328164 135.098378 
L 228.017547 135.098378 
L 228.755423 135.870436 
L 231.706929 135.870436 
L 232.444806 136.625201 
L 236.134188 136.61016 
L 236.872065 136.969532 
L 244.25083 137.071904 
L 244.988706 137.303231 
L 257.532607 137.250233 
L 258.270484 137.745853 
L 261.22199 137.745853 
L 261.959866 139.656532 
L 264.173496 139.656532 
L 264.911372 140.033273 
L 297.377939 140.110589 
L 298.115815 140.246591 
L 303.280951 140.246591 
L 304.018827 140.626937 
L 304.756704 142.200906 
L 312.873345 142.200906 
L 313.611222 142.389492 
L 339.4369 142.389492 
L 340.174776 142.25025 
L 363.048948 142.177684 
L 363.786825 143.427634 
L 366.738331 143.427634 
L 367.476207 143.717778 
L 372.641343 143.717778 
L 373.379219 144.256864 
L 395.515515 144.256864 
L 396.253391 144.901007 
L 403.632156 144.901007 
L 404.370033 145.651516 
L 411.010921 145.651516 
L 411.748798 145.769704 
L 424.292699 145.769704 
L 424.292699 145.769704 
" clip-path="url(#pd497fb9f29)" style="fill: none; stroke: #b8b8b8; stroke-opacity: 0.28; stroke-width: 0.75; stroke-linecap: square"/>
   </g>
   <g id="line2d_24">
    <path d="M 55.354443 16.646364 
L 56.09232 16.646364 
L 56.830196 20.187165 
L 57.568073 20.187165 
L 58.305949 20.81572 
L 59.043826 20.81572 
L 59.781702 21.341091 
L 60.519579 21.493352 
L 61.257455 28.685138 
L 62.733208 28.685138 
L 63.471085 31.458857 
L 64.946838 31.458857 
L 65.684714 36.871182 
L 66.422591 39.284027 
L 69.374097 39.284027 
L 70.111973 51.658529 
L 70.84985 51.658529 
L 71.587726 53.862986 
L 72.325603 54.318834 
L 74.539232 54.318834 
L 75.277109 54.911367 
L 76.014985 54.911367 
L 76.752862 58.112595 
L 77.490738 58.112595 
L 78.228615 59.043442 
L 78.966491 59.043442 
L 79.704368 63.75018 
L 81.917997 63.75018 
L 82.655874 64.471086 
L 83.39375 67.649723 
L 84.131627 67.649723 
L 84.869503 70.836326 
L 90.034639 70.836326 
L 90.772516 73.933442 
L 91.510392 73.933442 
L 92.248269 77.158057 
L 92.986145 77.158057 
L 93.724022 76.586677 
L 94.461898 77.245139 
L 95.199775 77.245139 
L 95.937651 78.37699 
L 100.36491 78.37699 
L 101.102787 78.60868 
L 104.792169 78.60868 
L 105.530046 80.710157 
L 106.267922 92.320322 
L 109.957305 92.320322 
L 110.695181 104.190501 
L 115.12244 104.190501 
L 115.860317 107.310155 
L 121.763329 107.310155 
L 122.501205 107.692612 
L 125.452712 107.692612 
L 126.190588 111.064178 
L 126.928465 111.157081 
L 127.666341 111.495155 
L 128.404218 114.757679 
L 129.879971 114.757679 
L 130.617847 115.271704 
L 134.30723 115.271704 
L 135.045106 116.106146 
L 135.782983 116.106146 
L 136.520859 115.980858 
L 149.06476 115.980858 
L 149.802636 116.75428 
L 154.229895 116.75428 
L 154.967772 117.238134 
L 160.870784 117.277455 
L 161.608661 118.535847 
L 179.317697 118.535847 
L 180.055573 119.057996 
L 183.744956 119.057996 
L 184.482832 119.32208 
L 186.696462 119.32208 
L 187.434338 120.465636 
L 189.647968 120.465636 
L 190.385845 121.110799 
L 191.123721 121.110799 
L 191.861598 121.428096 
L 199.978239 121.428096 
L 200.716116 123.254314 
L 201.453992 123.517279 
L 202.191869 124.823084 
L 218.425152 124.823084 
L 219.163028 128.719217 
L 237.609941 128.719217 
L 238.347818 129.753325 
L 251.629595 129.753325 
L 252.367471 130.547035 
L 256.794731 130.547035 
L 257.532607 132.157805 
L 273.76589 132.073328 
L 274.503767 132.674688 
L 275.241643 132.674688 
L 275.97952 132.879331 
L 278.193149 132.879331 
L 278.931026 133.246456 
L 279.668902 133.246456 
L 280.406779 132.777481 
L 300.329445 132.777481 
L 301.067321 133.484666 
L 316.562728 133.484666 
L 317.300604 134.202351 
L 318.038481 133.98723 
L 349.029294 133.98723 
L 349.767171 135.265289 
L 391.826132 135.265289 
L 392.564009 135.400765 
L 405.107909 135.400765 
L 405.845786 137.485129 
L 409.535168 137.485129 
L 411.010921 137.81022 
L 424.292699 137.81022 
L 424.292699 137.81022 
" clip-path="url(#pd497fb9f29)" style="fill: none; stroke: #b8b8b8; stroke-opacity: 0.28; stroke-width: 0.75; stroke-linecap: square"/>
   </g>
   <g id="line2d_25">
    <path d="M 55.354443 16.646364 
L 59.043826 16.646364 
L 60.519579 37.18278 
L 62.733208 37.18278 
L 63.471085 39.408348 
L 64.208961 43.005045 
L 67.160467 43.005045 
L 67.898344 46.29432 
L 68.63622 46.29432 
L 69.374097 49.725047 
L 70.84985 49.725047 
L 71.587726 59.035254 
L 72.325603 59.035254 
L 73.063479 76.684619 
L 73.801356 83.484892 
L 79.704368 83.484892 
L 80.442244 84.029375 
L 81.180121 84.029375 
L 81.917997 88.586783 
L 82.655874 90.251214 
L 85.60738 90.251214 
L 86.345256 90.867875 
L 87.083133 91.200195 
L 87.821009 91.200195 
L 88.558886 103.555043 
L 91.510392 103.555043 
L 92.248269 105.193262 
L 93.724022 105.193262 
L 94.461898 106.764443 
L 95.199775 106.764443 
L 95.937651 108.623954 
L 98.151281 108.623954 
L 98.889157 109.135773 
L 101.102787 109.135773 
L 101.840663 109.329541 
L 102.57854 110.638718 
L 104.054293 110.638718 
L 104.792169 110.772186 
L 109.957305 110.695121 
L 110.695181 114.602412 
L 115.860317 114.602412 
L 116.598193 117.090688 
L 122.501205 117.090688 
L 123.239082 124.413968 
L 124.714835 124.413968 
L 125.452712 124.979091 
L 129.879971 124.979091 
L 130.617847 126.257146 
L 131.355724 127.127541 
L 135.045106 127.127541 
L 135.782983 128.179673 
L 144.637501 128.179673 
L 145.375377 129.983323 
L 146.113254 129.983323 
L 146.85113 130.627927 
L 147.589007 131.575269 
L 148.326883 131.833622 
L 149.06476 131.833622 
L 149.802636 132.238237 
L 152.754142 132.238237 
L 153.492019 132.521289 
L 154.967772 132.521289 
L 155.705648 132.351497 
L 157.919278 132.351497 
L 158.657155 132.935155 
L 178.57982 132.935155 
L 179.317697 135.34115 
L 183.007079 135.34115 
L 183.744956 135.770062 
L 184.482832 136.637066 
L 185.958585 136.637066 
L 186.696462 137.220508 
L 191.861598 137.220508 
L 192.599474 137.742117 
L 205.881251 137.742117 
L 206.619128 141.594731 
L 215.473646 141.594731 
L 216.211522 142.274506 
L 222.852411 142.274506 
L 223.590288 143.798909 
L 226.541794 143.798909 
L 227.27967 144.250052 
L 234.658435 144.250052 
L 235.396312 145.089044 
L 243.512953 145.089044 
L 244.25083 144.85607 
L 248.678089 144.85607 
L 249.415965 145.743908 
L 250.891718 145.743908 
L 251.629595 146.339082 
L 279.668902 146.384192 
L 280.406779 145.520441 
L 281.144655 145.520441 
L 281.882532 146.316793 
L 290.73705 146.316793 
L 291.474927 147.64338 
L 299.591568 147.64338 
L 300.329445 147.907917 
L 329.844505 147.907917 
L 330.582382 148.073703 
L 335.009641 148.073703 
L 335.747517 148.287041 
L 348.291418 148.348398 
L 349.029294 148.8427 
L 385.185243 148.852655 
L 386.660996 148.962358 
L 388.874626 148.962358 
L 389.612502 149.829004 
L 396.253391 149.829004 
L 396.991268 149.690495 
L 411.010921 149.690495 
L 411.748798 149.871233 
L 424.292699 149.871233 
L 424.292699 149.871233 
" clip-path="url(#pd497fb9f29)" style="fill: none; stroke: #b8b8b8; stroke-opacity: 0.28; stroke-width: 0.75; stroke-linecap: square"/>
   </g>
   <g id="line2d_26">
    <path d="M 55.354443 16.646364 
L 56.09232 25.542042 
L 56.830196 26.073605 
L 58.305949 26.073605 
L 59.043826 31.36715 
L 59.781702 31.36715 
L 60.519579 41.408768 
L 61.257455 66.194476 
L 62.733208 66.194476 
L 63.471085 91.81241 
L 64.208961 92.907231 
L 66.422591 92.907231 
L 67.160467 96.358389 
L 71.587726 96.358389 
L 72.325603 97.685704 
L 73.063479 99.407434 
L 73.801356 99.842623 
L 74.539232 99.842623 
L 75.277109 100.635046 
L 76.752862 100.635046 
L 78.228615 105.006609 
L 78.966491 106.143262 
L 79.704368 106.143262 
L 80.442244 105.732686 
L 82.655874 105.732686 
L 83.39375 106.163817 
L 84.131627 106.163817 
L 84.869503 107.819806 
L 85.60738 111.559823 
L 86.345256 113.083039 
L 87.083133 113.083039 
L 87.821009 115.364209 
L 89.296763 115.364209 
L 90.034639 116.824191 
L 91.510392 116.824191 
L 92.248269 117.97825 
L 92.986145 117.97825 
L 93.724022 122.082628 
L 95.937651 122.082628 
L 96.675528 124.198085 
L 98.889157 124.198085 
L 99.627034 124.347396 
L 102.57854 124.353075 
L 103.316416 126.878403 
L 107.005799 126.878403 
L 107.743675 127.682276 
L 111.433058 127.682276 
L 112.170934 129.249412 
L 115.860317 129.249412 
L 116.598193 129.934148 
L 117.33607 131.224346 
L 118.811823 131.224346 
L 119.549699 131.481903 
L 123.239082 131.481903 
L 123.976959 131.730964 
L 145.375377 131.730964 
L 146.113254 135.22265 
L 149.06476 135.22265 
L 149.802636 135.507631 
L 151.278389 135.507631 
L 152.016266 137.59462 
L 155.705648 137.59462 
L 156.443525 141.378997 
L 170.463179 141.457265 
L 171.201055 142.646205 
L 173.414685 142.646205 
L 174.152561 142.883905 
L 177.104067 142.883905 
L 177.841944 144.14046 
L 178.57982 144.14046 
L 179.317697 145.124849 
L 180.055573 148.541297 
L 180.79345 149.077672 
L 183.744956 149.077672 
L 184.482832 149.803939 
L 189.647968 149.803939 
L 190.385845 150.336803 
L 196.288857 150.336803 
L 197.76461 153.221407 
L 199.240363 153.221407 
L 199.978239 154.002353 
L 200.716116 155.578981 
L 208.094881 155.611292 
L 208.832757 156.206855 
L 216.211522 156.206855 
L 216.949399 158.963648 
L 217.687275 158.963648 
L 218.425152 160.569261 
L 237.609941 160.623971 
L 238.347818 161.272166 
L 244.25083 161.272166 
L 244.988706 162.206848 
L 255.318977 162.206848 
L 256.056854 163.634409 
L 257.532607 163.634409 
L 258.270484 164.109028 
L 278.931026 164.136015 
L 279.668902 164.4421 
L 302.543074 164.4421 
L 303.280951 165.029942 
L 309.921839 165.029942 
L 311.397592 165.408281 
L 313.611222 165.408281 
L 314.349098 164.95325 
L 315.824851 164.95325 
L 316.562728 165.175171 
L 320.989987 165.175171 
L 321.727863 166.909507 
L 323.203616 166.909507 
L 323.941493 168.361469 
L 346.077788 168.326305 
L 346.815665 168.206675 
L 363.786825 168.206675 
L 364.524701 169.16355 
L 381.495861 169.16355 
L 382.233737 169.436581 
L 388.874626 169.436581 
L 389.612502 170.177644 
L 424.292699 170.177644 
L 424.292699 170.177644 
" clip-path="url(#pd497fb9f29)" style="fill: none; stroke: #b8b8b8; stroke-opacity: 0.28; stroke-width: 0.75; stroke-linecap: square"/>
   </g>
   <g id="line2d_27">
    <path d="M 55.354443 16.646364 
L 57.568073 16.646364 
L 58.305949 27.317704 
L 61.257455 27.317704 
L 61.995332 27.048601 
L 62.733208 87.712086 
L 63.471085 89.480633 
L 64.208961 92.895834 
L 65.684714 92.895834 
L 66.422591 98.730551 
L 67.160467 102.12798 
L 70.84985 102.12798 
L 71.587726 128.567427 
L 75.277109 128.567427 
L 76.014985 129.104503 
L 78.228615 129.104503 
L 78.966491 133.992208 
L 79.704368 134.550784 
L 81.180121 134.550784 
L 81.917997 135.00336 
L 83.39375 135.00336 
L 84.131627 135.358553 
L 85.60738 135.358553 
L 86.345256 135.561265 
L 87.821009 135.561265 
L 88.558886 137.178995 
L 89.296763 138.172182 
L 90.034639 138.172182 
L 90.772516 143.099951 
L 94.461898 143.099951 
L 95.199775 144.962875 
L 98.151281 144.962875 
L 98.889157 146.963614 
L 99.627034 146.963614 
L 100.36491 147.67322 
L 106.267922 147.67322 
L 107.005799 147.971569 
L 109.219428 147.971569 
L 109.957305 148.370284 
L 114.384564 148.370284 
L 115.12244 150.842422 
L 118.073946 150.842422 
L 118.811823 151.933423 
L 119.549699 152.232363 
L 122.501205 152.232363 
L 123.239082 152.394869 
L 124.714835 152.394869 
L 125.452712 153.881832 
L 126.190588 157.915498 
L 141.685995 157.915498 
L 142.423871 157.726389 
L 143.899624 157.726389 
L 144.637501 159.137892 
L 146.113254 159.137892 
L 146.85113 160.885511 
L 147.589007 160.885511 
L 148.326883 163.689371 
L 149.06476 164.030862 
L 152.754142 164.030862 
L 153.492019 164.304652 
L 154.229895 164.304652 
L 154.967772 164.666372 
L 155.705648 165.498258 
L 156.443525 165.498258 
L 157.181402 165.62789 
L 158.657155 165.62789 
L 159.395031 166.510568 
L 171.938932 166.510568 
L 172.676808 166.798605 
L 174.152561 166.882844 
L 174.890438 166.882844 
L 175.628314 171.181214 
L 179.317697 171.206387 
L 180.055573 172.527252 
L 183.007079 172.527252 
L 183.744956 172.87164 
L 189.647968 172.980095 
L 190.385845 173.303953 
L 197.76461 173.303953 
L 198.502486 173.909979 
L 212.52214 173.909979 
L 213.260016 174.866644 
L 213.997893 174.833951 
L 214.735769 175.908516 
L 222.852411 175.850268 
L 223.590288 176.30708 
L 235.396312 176.30708 
L 236.134188 176.785461 
L 237.609941 176.785461 
L 238.347818 177.212577 
L 240.561447 177.212577 
L 241.299324 177.340511 
L 244.25083 177.340511 
L 244.988706 177.573149 
L 252.367471 177.646883 
L 253.105348 176.588559 
L 261.22199 176.588559 
L 261.959866 176.465965 
L 262.697743 177.431602 
L 270.076508 177.497183 
L 270.814384 177.986651 
L 275.97952 177.986651 
L 276.717396 178.634809 
L 277.455273 178.634809 
L 278.193149 179.208934 
L 292.95068 179.209129 
L 293.688556 179.523706 
L 298.853692 179.523706 
L 299.591568 179.676669 
L 315.086975 179.676669 
L 315.824851 180.157848 
L 351.9808 180.126176 
L 352.718677 190.481322 
L 353.456553 190.992 
L 366.000454 191.033859 
L 368.214084 191.53257 
L 374.117096 191.53257 
L 374.854972 192.279981 
L 386.660996 192.279981 
L 387.398873 192.633268 
L 424.292699 192.735064 
L 424.292699 192.735064 
" clip-path="url(#pd497fb9f29)" style="fill: none; stroke: #b8b8b8; stroke-opacity: 0.28; stroke-width: 0.75; stroke-linecap: square"/>
   </g>
   <g id="line2d_28">
    <path d="M 55.354443 16.646364 
L 58.305949 16.646364 
L 59.043826 27.415303 
L 59.781702 27.415303 
L 60.519579 50.06308 
L 61.257455 50.06308 
L 61.995332 55.142066 
L 62.733208 55.142066 
L 63.471085 55.44678 
L 64.208961 60.781813 
L 64.946838 68.818805 
L 66.422591 68.818805 
L 67.160467 80.550939 
L 67.898344 109.866955 
L 69.374097 109.866955 
L 70.111973 111.321741 
L 73.801356 111.321741 
L 74.539232 119.580483 
L 77.490738 119.691302 
L 78.228615 124.064041 
L 87.083133 124.064041 
L 88.558886 126.536602 
L 90.772516 126.536602 
L 91.510392 127.897725 
L 92.248269 130.134855 
L 92.986145 130.134855 
L 93.724022 131.523489 
L 97.413404 131.523489 
L 98.151281 135.306271 
L 100.36491 135.306271 
L 101.102787 147.946691 
L 101.840663 149.734064 
L 104.792169 149.734064 
L 105.530046 149.918921 
L 106.267922 150.361275 
L 107.005799 150.361275 
L 107.743675 152.250317 
L 109.957305 152.250317 
L 110.695181 153.329838 
L 112.908811 153.287758 
L 113.646687 153.900712 
L 115.860317 153.848414 
L 116.598193 153.98185 
L 121.763329 153.98185 
L 122.501205 155.750178 
L 123.239082 157.191401 
L 128.404218 157.191401 
L 129.142094 160.136645 
L 133.569353 160.221316 
L 134.30723 162.646122 
L 136.520859 162.646122 
L 137.258736 164.423468 
L 140.210242 164.423468 
L 140.948118 165.280789 
L 160.132908 165.280789 
L 160.870784 165.673735 
L 166.773796 165.673735 
L 167.511673 172.010361 
L 173.414685 172.010361 
L 174.152561 174.186666 
L 175.628314 174.186666 
L 176.366191 177.763188 
L 178.57982 177.763188 
L 179.317697 178.422705 
L 180.79345 178.422705 
L 181.531326 177.809371 
L 185.220709 177.809371 
L 185.958585 178.771077 
L 199.240363 178.771077 
L 199.978239 179.591435 
L 211.784263 179.591435 
L 212.52214 180.032703 
L 218.425152 180.032703 
L 219.163028 180.353763 
L 225.066041 180.353763 
L 225.803917 187.141711 
L 227.27967 187.141711 
L 228.017547 183.749269 
L 230.231176 183.749269 
L 230.969053 184.144993 
L 246.464459 184.144993 
L 247.202336 185.058059 
L 248.678089 185.058059 
L 249.415965 185.337017 
L 264.911372 185.337017 
L 265.649249 185.793809 
L 266.387125 185.971126 
L 267.125002 185.971126 
L 267.862878 186.890157 
L 269.338631 186.982853 
L 274.503767 186.982853 
L 275.241643 187.559697 
L 279.668902 187.559697 
L 280.406779 187.699069 
L 281.882532 187.699069 
L 282.620408 187.540929 
L 316.562728 187.57954 
L 318.038481 187.671738 
L 343.864159 187.568518 
L 344.602035 187.266487 
L 346.077788 187.266487 
L 346.815665 187.964021 
L 388.874626 188.038754 
L 389.612502 188.216747 
L 396.991268 188.216747 
L 397.729144 189.162351 
L 418.389686 189.162351 
L 419.127563 190.92398 
L 424.292699 190.92398 
L 424.292699 190.92398 
" clip-path="url(#pd497fb9f29)" style="fill: none; stroke: #b8b8b8; stroke-opacity: 0.28; stroke-width: 0.75; stroke-linecap: square"/>
   </g>
   <g id="line2d_29">
    <path d="M 55.354443 16.646364 
L 56.09232 16.646364 
L 56.830196 18.482482 
L 57.568073 23.197721 
L 60.519579 23.197721 
L 61.257455 23.472912 
L 61.995332 23.472912 
L 62.733208 24.555509 
L 64.208961 24.555509 
L 64.946838 66.553753 
L 65.684714 68.2437 
L 67.898344 68.2437 
L 68.63622 69.594821 
L 72.325603 69.594821 
L 73.063479 71.240361 
L 74.539232 71.240361 
L 76.014985 73.495017 
L 80.442244 73.50954 
L 81.180121 83.634687 
L 81.917997 83.634687 
L 82.655874 86.211375 
L 83.39375 104.366459 
L 84.131627 104.366459 
L 84.869503 110.073113 
L 85.60738 110.073113 
L 86.345256 115.408153 
L 87.821009 115.408153 
L 88.558886 124.655227 
L 89.296763 124.655227 
L 90.034639 125.520936 
L 92.986145 125.520936 
L 93.724022 126.530626 
L 94.461898 128.430432 
L 95.199775 128.430432 
L 95.937651 129.908432 
L 98.889157 129.908432 
L 99.627034 133.756021 
L 105.530046 133.756021 
L 106.267922 135.972637 
L 107.005799 135.972637 
L 107.743675 137.060519 
L 110.695181 137.060519 
L 111.433058 137.364139 
L 112.170934 137.364139 
L 112.908811 139.780341 
L 115.12244 139.780341 
L 115.860317 140.433529 
L 117.33607 140.433529 
L 118.073946 142.673614 
L 125.452712 142.673614 
L 126.190588 144.157952 
L 130.617847 144.157952 
L 131.355724 150.075579 
L 132.0936 150.075579 
L 132.831477 150.441479 
L 140.948118 150.441479 
L 141.685995 150.842447 
L 144.637501 150.842447 
L 145.375377 151.137665 
L 153.492019 151.137665 
L 154.229895 151.573951 
L 157.919278 151.573951 
L 158.657155 152.029451 
L 163.084414 152.029451 
L 163.82229 152.549199 
L 167.511673 152.603956 
L 168.249549 153.008261 
L 177.841944 153.08499 
L 178.57982 155.642929 
L 199.978239 155.642929 
L 200.716116 156.464295 
L 204.405498 156.464295 
L 205.143375 158.507987 
L 210.30851 158.507987 
L 211.046387 160.996681 
L 214.735769 160.996681 
L 215.473646 162.343946 
L 220.638781 162.343946 
L 221.376658 161.853556 
L 222.114534 162.811681 
L 228.017547 162.811681 
L 228.755423 162.95187 
L 231.706929 162.95187 
L 232.444806 164.285939 
L 235.396312 164.285939 
L 236.134188 163.759747 
L 243.512953 163.759747 
L 244.25083 163.228905 
L 267.862878 163.228905 
L 268.600755 164.401099 
L 289.261297 164.401099 
L 289.999174 165.351697 
L 304.756704 165.338941 
L 305.49458 166.176485 
L 314.349098 166.176485 
L 315.086975 166.30593 
L 323.203616 166.22423 
L 323.941493 166.657619 
L 332.796011 166.657619 
L 333.533888 167.465137 
L 335.009641 167.465137 
L 335.747517 172.042521 
L 336.485394 172.042521 
L 337.22327 173.918631 
L 346.815665 173.918631 
L 347.553541 174.033976 
L 349.029294 174.033976 
L 349.767171 173.213893 
L 354.19443 173.213893 
L 354.932306 172.966804 
L 364.524701 172.966804 
L 365.262578 173.692928 
L 369.689837 173.692928 
L 370.427713 174.082556 
L 379.282231 174.082556 
L 380.020108 174.974411 
L 413.962427 174.974411 
L 414.700304 174.537177 
L 419.865439 174.537177 
L 420.603316 175.429764 
L 424.292699 175.429764 
L 424.292699 175.429764 
" clip-path="url(#pd497fb9f29)" style="fill: none; stroke: #b8b8b8; stroke-opacity: 0.28; stroke-width: 0.75; stroke-linecap: square"/>
   </g>
   <g id="line2d_30">
    <path d="M 55.354443 16.646364 
L 56.09232 16.646364 
L 56.830196 17.116276 
L 57.568073 17.116276 
L 58.305949 20.45753 
L 59.043826 20.45753 
L 59.781702 31.73525 
L 60.519579 31.73525 
L 61.257455 32.507116 
L 61.995332 32.507116 
L 62.733208 34.415794 
L 63.471085 35.072135 
L 64.208961 35.446006 
L 64.946838 38.947085 
L 65.684714 41.55789 
L 67.898344 41.469393 
L 68.63622 43.138438 
L 69.374097 43.967236 
L 73.063479 43.967236 
L 73.801356 45.199282 
L 78.228615 45.199282 
L 78.966491 46.791176 
L 81.917997 46.791176 
L 82.655874 47.848334 
L 83.39375 47.848334 
L 84.131627 49.207664 
L 86.345256 49.207664 
L 87.083133 51.220902 
L 87.821009 107.234887 
L 88.558886 107.234887 
L 89.296763 107.670889 
L 92.248269 107.670889 
L 92.986145 108.235905 
L 98.151281 108.235905 
L 98.889157 134.68728 
L 101.840663 134.68728 
L 102.57854 135.290868 
L 103.316416 135.290868 
L 104.054293 137.783801 
L 104.792169 137.783801 
L 105.530046 138.05134 
L 106.267922 147.281115 
L 109.219428 147.281115 
L 109.957305 148.191117 
L 114.384564 148.191117 
L 115.12244 151.856643 
L 123.239082 151.856643 
L 123.976959 152.505431 
L 126.928465 152.505431 
L 127.666341 153.365722 
L 129.879971 153.365722 
L 130.617847 154.047852 
L 135.782983 154.047852 
L 136.520859 154.360291 
L 137.258736 163.91601 
L 142.423871 163.940648 
L 143.161748 184.366602 
L 154.229895 184.366602 
L 154.967772 190.700839 
L 160.870784 190.696337 
L 161.608661 193.69738 
L 163.82229 193.69738 
L 164.560167 193.877813 
L 165.298043 194.419864 
L 172.676808 194.360224 
L 173.414685 194.657917 
L 174.152561 194.657917 
L 174.890438 195.817161 
L 177.841944 195.817161 
L 178.57982 196.343225 
L 180.79345 196.343225 
L 181.531326 197.481168 
L 183.744956 197.481168 
L 184.482832 201.746834 
L 185.220709 202.157618 
L 198.502486 202.157618 
L 199.240363 202.925475 
L 202.191869 202.925475 
L 202.929745 203.95678 
L 203.667622 204.530317 
L 215.473646 204.530317 
L 216.211522 204.670387 
L 248.678089 204.607137 
L 249.415965 205.228963 
L 276.717396 205.228963 
L 277.455273 205.347595 
L 295.164309 205.347595 
L 295.902186 205.522532 
L 316.562728 205.573636 
L 317.300604 204.701801 
L 324.67937 204.701801 
L 325.417246 205.304512 
L 424.292699 205.304512 
L 424.292699 205.304512 
" clip-path="url(#pd497fb9f29)" style="fill: none; stroke: #b8b8b8; stroke-opacity: 0.28; stroke-width: 0.75; stroke-linecap: square"/>
   </g>
   <g id="line2d_31">
    <path d="M 55.354443 16.646364 
L 56.09232 19.511022 
L 56.830196 20.221165 
L 57.568073 24.042708 
L 59.043826 28.66501 
L 60.519579 36.099602 
L 61.257455 38.820651 
L 61.995332 40.34015 
L 62.733208 47.697646 
L 63.471085 50.296195 
L 64.208961 51.260113 
L 64.946838 56.249712 
L 65.684714 56.879819 
L 66.422591 57.893489 
L 67.160467 60.056751 
L 67.898344 66.790928 
L 68.63622 69.810548 
L 69.374097 71.118682 
L 70.111973 73.126565 
L 70.84985 74.057017 
L 71.587726 77.130282 
L 72.325603 77.927423 
L 73.063479 80.553854 
L 73.801356 81.77763 
L 74.539232 82.43135 
L 75.277109 83.868487 
L 76.014985 84.376356 
L 76.752862 85.419349 
L 78.228615 86.219578 
L 78.966491 87.56306 
L 80.442244 88.870669 
L 81.180121 90.707253 
L 83.39375 94.411603 
L 84.131627 95.074121 
L 84.869503 96.4578 
L 86.345256 97.464678 
L 87.083133 98.473425 
L 87.821009 101.823902 
L 88.558886 103.254071 
L 90.772516 104.217418 
L 91.510392 104.827657 
L 92.248269 105.660788 
L 92.986145 106.0736 
L 93.724022 107.242664 
L 96.675528 108.483451 
L 97.413404 108.483451 
L 98.151281 108.776364 
L 98.889157 110.791943 
L 99.627034 111.160793 
L 100.36491 111.31762 
L 101.102787 112.047888 
L 101.840663 112.274828 
L 102.57854 112.78305 
L 103.316416 113.484965 
L 104.054293 113.761545 
L 104.792169 113.789053 
L 105.530046 114.415074 
L 106.267922 116.107509 
L 107.005799 118.139061 
L 108.481552 118.786411 
L 109.957305 119.066335 
L 110.695181 120.101365 
L 112.170934 120.335654 
L 112.908811 120.773074 
L 113.646687 120.815803 
L 114.384564 121.136796 
L 115.12244 121.766716 
L 118.811823 122.990429 
L 120.287576 123.094697 
L 121.025452 123.271918 
L 122.501205 124.165058 
L 123.239082 124.843269 
L 123.976959 125.054328 
L 124.714835 125.554051 
L 125.452712 125.662056 
L 126.190588 126.447628 
L 127.666341 126.712899 
L 128.404218 127.114032 
L 129.142094 127.833501 
L 129.879971 127.879102 
L 131.355724 128.830301 
L 132.0936 128.830301 
L 132.831477 129.255152 
L 133.569353 129.277907 
L 136.520859 129.93937 
L 137.258736 130.635118 
L 138.734489 130.907529 
L 139.472365 131.351174 
L 140.210242 131.372043 
L 140.948118 131.6486 
L 141.685995 132.076662 
L 143.161748 134.367943 
L 143.899624 134.3881 
L 145.375377 134.869808 
L 146.85113 135.795386 
L 148.326883 136.3268 
L 149.06476 136.472385 
L 149.802636 136.883668 
L 150.540513 137.024693 
L 151.278389 137.357245 
L 152.754142 137.467086 
L 154.229895 137.712047 
L 154.967772 138.378046 
L 157.181402 138.961604 
L 158.657155 139.167379 
L 159.395031 140.201092 
L 161.608661 141.54406 
L 162.346537 142.324091 
L 163.084414 142.36568 
L 163.82229 142.639547 
L 164.560167 142.722749 
L 165.298043 142.987535 
L 166.03592 142.987535 
L 167.511673 143.648445 
L 171.938932 144.185193 
L 173.414685 144.292188 
L 174.890438 144.561553 
L 175.628314 144.80258 
L 176.366191 145.224957 
L 177.841944 145.390913 
L 180.055573 146.348791 
L 182.269203 146.478117 
L 184.482832 147.349527 
L 185.220709 147.371959 
L 185.958585 147.576348 
L 187.434338 147.71614 
L 188.172215 148.018106 
L 188.910091 148.177347 
L 189.647968 148.195372 
L 190.385845 148.355055 
L 191.861598 148.423827 
L 192.599474 148.725065 
L 195.55098 148.825006 
L 198.502486 149.375645 
L 199.978239 149.740388 
L 200.716116 150.059639 
L 201.453992 150.076626 
L 202.191869 150.272153 
L 205.881251 150.624453 
L 206.619128 150.943133 
L 218.425152 152.461101 
L 219.163028 152.679993 
L 222.852411 152.86724 
L 224.328164 153.066508 
L 225.066041 153.121475 
L 225.803917 153.478735 
L 227.27967 153.50248 
L 228.017547 153.32393 
L 230.969053 153.593244 
L 231.706929 153.86102 
L 233.182682 154.02943 
L 235.396312 154.092419 
L 236.134188 154.327551 
L 237.609941 154.625121 
L 238.347818 154.89401 
L 240.561447 154.988247 
L 241.299324 155.273819 
L 248.678089 155.665384 
L 249.415965 155.805593 
L 252.367471 155.888789 
L 253.843224 156.089615 
L 255.318977 156.096882 
L 257.532607 156.471051 
L 259.746237 156.55967 
L 261.22199 156.594094 
L 262.697743 156.783479 
L 264.911372 156.859519 
L 268.600755 157.073089 
L 278.193149 157.332907 
L 279.668902 157.513411 
L 281.144655 157.72778 
L 281.882532 157.901389 
L 284.096161 157.895459 
L 284.834038 158.072782 
L 287.785544 158.166667 
L 295.902186 158.586482 
L 299.591568 158.69615 
L 301.067321 158.747293 
L 301.805198 158.897324 
L 303.280951 158.950637 
L 304.018827 159.236562 
L 305.49458 159.450718 
L 311.397592 159.582005 
L 313.611222 159.732912 
L 315.086975 159.80269 
L 335.009641 160.426383 
L 335.747517 160.678511 
L 337.961147 160.869577 
L 339.4369 160.878065 
L 340.912653 161.039615 
L 349.029294 161.141772 
L 351.9808 161.271884 
L 352.718677 161.816891 
L 357.883813 161.910767 
L 363.786825 161.977638 
L 366.000454 162.069901 
L 372.641343 162.228134 
L 376.330725 162.528238 
L 380.020108 162.635792 
L 381.495861 162.738355 
L 405.107909 163.215844 
L 405.845786 163.333385 
L 415.43818 163.415082 
L 416.176057 163.545155 
L 418.389686 163.63962 
L 420.603316 163.864981 
L 424.292699 163.94036 
L 424.292699 163.94036 
" clip-path="url(#pd497fb9f29)" style="fill: none; stroke: #b2182b; stroke-width: 2.5; stroke-linecap: square"/>
   </g>
   <g id="line2d_32">
    <path d="M 55.354443 16.646364 
L 424.292699 16.646364 
" clip-path="url(#pd497fb9f29)" style="fill: none; stroke-dasharray: 2.96,1.28; stroke-dashoffset: 0; stroke: #555555; stroke-opacity: 0.7; stroke-width: 0.8"/>
   </g>
   <g id="patch_3">
    <path d="M 55.354443 215.02 
L 55.354443 7.2 
" style="fill: none; stroke: #222222; stroke-width: 0.8; stroke-linejoin: miter; stroke-linecap: square"/>
   </g>
   <g id="patch_4">
    <path d="M 55.354443 215.02 
L 424.292699 215.02 
" style="fill: none; stroke: #222222; stroke-width: 0.8; stroke-linejoin: miter; stroke-linecap: square"/>
   </g>
   <g id="text_13">
    <!-- $\frac{\sum_i \kappa_{g,i}^{2}}{\sum_i \kappa_{g,i,0}^{2}}$ -->
    <g transform="translate(7.2 113.64)">
     <text>
      <tspan x="0" y="-0.841406" style="font-size: 8.05px; font-family: 'cmex10'">X</tspan>
      <tspan x="3" y="-21" style="font-size: 8.05px; font-family: 'cmex10'">X</tspan>
      <tspan x="5" y="15.662188" style="font-size: 5.635px; font-family: 'cmmi10'">i</tspan>
      <tspan x="8" y="-4.496406" style="font-size: 5.635px; font-family: 'cmmi10'">i</tspan>
      <tspan x="15.345996" y="9.528244" style="font-size: 5.635px; font-family: 'cmmi10'">g</tspan>
      <tspan x="18.034177" y="9.528244" style="font-size: 5.635px; font-family: 'cmmi10'">;</tspan>
      <tspan x="18.345996" y="-10.630349" style="font-size: 5.635px; font-family: 'cmmi10'">g</tspan>
      <tspan x="20.583685" y="9.528244" style="font-size: 5.635px; font-family: 'cmmi10'">i</tspan>
      <tspan x="21.034177" y="-10.630349" style="font-size: 5.635px; font-family: 'cmmi10'">;</tspan>
      <tspan x="22.523467" y="9.528244" style="font-size: 5.635px; font-family: 'cmmi10'">;</tspan>
      <tspan x="23.583685" y="-10.630349" style="font-size: 5.635px; font-family: 'cmmi10'">i</tspan>
      <tspan x="10.707812" y="7.47474" style="font-size: 8.05px; font-family: 'cmmi10'">∙</tspan>
      <tspan x="13.707812" y="-12.683854" style="font-size: 8.05px; font-family: 'cmmi10'">∙</tspan>
      <tspan x="15.852905" y="4.394483" style="font-size: 5.635px; font-family: 'cmr10'">2</tspan>
      <tspan x="18.852905" y="-15.764111" style="font-size: 5.635px; font-family: 'cmr10'">2</tspan>
      <tspan x="25.072975" y="9.528244" style="font-size: 5.635px; font-family: 'cmr10'">0</tspan>
     </text>
     <rect x="0" y="-2.560156" width="28.403851" height="0.71875"/>
    </g>
   </g>
  </g>
 </g>
 <defs>
  <clipPath id="pd497fb9f29">
   <rect x="55.354443" y="7.2" width="368.938256" height="207.82"/>
  </clipPath>
 </defs>
</svg>
