<?xml version="1.0" encoding="utf-8" standalone="no"?>
<!DOCTYPE svg PUBLIC "-//W3C//DTD SVG 1.1//EN"
  "http://www.w3.org/Graphics/SVG/1.1/DTD/svg11.dtd">
<svg xmlns:xlink="http://www.w3.org/1999/xlink" width="437.687056pt" height="246.753281pt" viewBox="0 0 437.687056 246.753281" xmlns="http://www.w3.org/2000/svg" version="1.1">
 <metadata>
  <rdf:RDF xmlns:dc="http://purl.org/dc/elements/1.1/" xmlns:cc="http://creativecommons.org/ns#" xmlns:rdf="http://www.w3.org/1999/02/22-rdf-syntax-ns#">
   <cc:Work>
    <dc:type rdf:resource="http://purl.org/dc/dcmitype/StillImage"/>
    <dc:date>2026-06-29T19:50:26.726051</dc:date>
    <dc:format>image/svg+xml</dc:format>
    <dc:creator>
     <cc:Agent>
      <dc:title>Matplotlib v3.10.8, https://matplotlib.org/</dc:title>
     </cc:Agent>
    </dc:creator>
   </cc:Work>
  </rdf:RDF>
 </metadata>
 <defs>
  <style type="text/css">*{stroke-linejoin: round; stroke-linecap: butt}</style>
 </defs>
 <g id="figure_1">
  <g id="patch_1">
   <path d="M 0 246.753281 
L 437.687056 246.753281 
L 437.687056 0 
L 0 0 
z
" style="fill: #ffffff"/>
  </g>
  <g id="axes_1">
   <g id="patch_2">
    <path d="M 48.191439 215.02 
L 425.31854 215.02 
L 425.31854 7.2 
L 48.191439 7.2 
z
" style="fill: #ffffff"/>
   </g>
   <g id="FillBetweenPolyCollection_1">
    <defs>
     <path id="m0d541c0c04" d="M 48.191439 -230.106918 
L 48.191439 -230.106918 
L 48.945693 -230.045192 
L 49.699947 -227.017502 
L 50.454202 -219.384564 
L 51.208456 -215.954692 
L 51.96271 -210.845894 
L 52.716964 -206.891949 
L 53.471219 -205.954016 
L 54.225473 -204.417728 
L 54.979727 -199.432444 
L 55.733981 -193.433534 
L 56.488235 -192.675863 
L 57.24249 -190.436399 
L 57.996744 -181.597545 
L 58.750998 -181.597545 
L 59.505252 -181.597545 
L 60.259506 -179.95598 
L 61.013761 -164.139989 
L 61.768015 -155.307355 
L 62.522269 -154.942433 
L 63.276523 -154.942433 
L 64.030777 -154.039155 
L 64.785032 -154.039155 
L 65.539286 -154.039155 
L 66.29354 -152.678708 
L 67.047794 -149.284654 
L 67.802048 -149.284654 
L 68.556303 -148.883675 
L 69.310557 -148.883675 
L 70.064811 -146.51706 
L 70.819065 -145.50434 
L 71.573319 -145.342799 
L 72.327574 -144.784654 
L 73.081828 -144.784654 
L 73.836082 -144.34396 
L 74.590336 -144.34396 
L 75.34459 -140.912915 
L 76.098845 -140.912915 
L 76.853099 -140.5398 
L 77.607353 -140.5398 
L 78.361607 -138.602013 
L 79.115861 -137.150341 
L 79.870116 -136.414484 
L 80.62437 -135.665703 
L 81.378624 -134.510457 
L 82.132878 -131.037815 
L 82.887132 -131.037815 
L 83.641387 -130.167357 
L 84.395641 -130.167357 
L 85.149895 -128.765903 
L 85.904149 -128.311036 
L 86.658403 -128.311036 
L 87.412658 -124.996724 
L 88.166912 -124.694586 
L 88.921166 -124.694586 
L 89.67542 -124.694586 
L 90.429674 -124.082646 
L 91.183929 -124.082646 
L 91.938183 -124.082646 
L 92.692437 -122.881244 
L 93.446691 -120.544942 
L 94.200945 -120.544942 
L 94.9552 -120.544942 
L 95.709454 -119.936566 
L 96.463708 -119.279734 
L 97.217962 -119.279734 
L 97.972216 -119.279734 
L 98.726471 -119.279734 
L 99.480725 -119.279734 
L 100.234979 -118.448267 
L 100.989233 -118.448267 
L 101.743487 -117.811082 
L 102.497742 -117.811082 
L 103.251996 -117.665648 
L 104.00625 -117.665648 
L 104.760504 -117.284051 
L 105.514758 -117.168601 
L 106.269013 -117.168601 
L 107.023267 -115.686923 
L 107.777521 -115.686923 
L 108.531775 -115.686923 
L 109.286029 -115.686923 
L 110.040284 -115.564961 
L 110.794538 -115.564961 
L 111.548792 -115.564961 
L 112.303046 -114.421546 
L 113.0573 -114.421546 
L 113.811555 -114.421546 
L 114.565809 -114.421546 
L 115.320063 -114.347111 
L 116.074317 -114.347111 
L 116.828571 -113.157029 
L 117.582826 -112.709767 
L 118.33708 -112.709767 
L 119.091334 -112.709767 
L 119.845588 -112.709767 
L 120.599842 -112.068909 
L 121.354097 -110.958123 
L 122.108351 -110.958123 
L 122.862605 -110.958123 
L 123.616859 -110.958123 
L 124.371113 -110.958123 
L 125.125368 -110.958123 
L 125.879622 -107.753469 
L 126.633876 -107.753469 
L 127.38813 -107.454496 
L 128.142385 -107.454496 
L 128.896639 -107.454496 
L 129.650893 -107.454496 
L 130.405147 -106.916451 
L 131.159401 -106.447274 
L 131.913656 -106.447274 
L 132.66791 -106.245503 
L 133.422164 -106.245503 
L 134.176418 -106.245503 
L 134.930672 -106.069036 
L 135.684927 -106.069036 
L 136.439181 -106.043337 
L 137.193435 -106.043337 
L 137.947689 -106.043337 
L 138.701943 -106.043337 
L 139.456198 -106.043337 
L 140.210452 -105.934697 
L 140.964706 -105.934697 
L 141.71896 -105.934697 
L 142.473214 -105.934697 
L 143.227469 -105.934697 
L 143.981723 -105.934697 
L 144.735977 -104.869821 
L 145.490231 -104.718159 
L 146.244485 -104.718159 
L 146.99874 -104.718159 
L 147.752994 -104.718159 
L 148.507248 -104.718159 
L 149.261502 -104.489585 
L 150.015756 -104.489585 
L 150.770011 -104.489585 
L 151.524265 -104.489585 
L 152.278519 -104.489585 
L 153.032773 -104.489585 
L 153.787027 -104.332637 
L 154.541282 -101.676074 
L 155.295536 -101.676074 
L 156.04979 -97.635305 
L 156.804044 -97.635305 
L 157.558298 -95.149823 
L 158.312553 -95.149823 
L 159.066807 -94.669062 
L 159.821061 -94.669062 
L 160.575315 -94.488596 
L 161.329569 -94.488596 
L 162.083824 -94.488596 
L 162.838078 -93.136971 
L 163.592332 -93.095773 
L 164.346586 -93.095773 
L 165.10084 -93.095773 
L 165.855095 -93.095773 
L 166.609349 -93.095773 
L 167.363603 -92.955126 
L 168.117857 -92.955126 
L 168.872111 -92.955126 
L 169.626366 -92.682066 
L 170.38062 -92.682066 
L 171.134874 -92.682066 
L 171.889128 -90.723855 
L 172.643382 -90.723855 
L 173.397637 -90.723855 
L 174.151891 -89.782829 
L 174.906145 -89.633723 
L 175.660399 -89.633723 
L 176.414653 -89.633723 
L 177.168908 -89.380805 
L 177.923162 -89.380805 
L 178.677416 -89.380805 
L 179.43167 -89.380805 
L 180.185924 -89.380805 
L 180.940179 -89.380805 
L 181.694433 -89.112861 
L 182.448687 -89.112861 
L 183.202941 -89.112861 
L 183.957195 -89.112861 
L 184.71145 -89.112861 
L 185.465704 -89.112861 
L 186.219958 -89.112861 
L 186.974212 -89.112861 
L 187.728466 -89.112861 
L 188.482721 -89.112861 
L 189.236975 -89.112861 
L 189.991229 -89.112861 
L 190.745483 -89.112861 
L 191.499737 -89.112861 
L 192.253992 -89.112861 
L 193.008246 -89.112861 
L 193.7625 -89.112861 
L 194.516754 -89.112861 
L 195.271008 -89.112861 
L 196.025263 -88.713808 
L 196.779517 -88.428346 
L 197.533771 -88.428346 
L 198.288025 -88.428346 
L 199.04228 -88.428346 
L 199.796534 -88.428346 
L 200.550788 -88.428346 
L 201.305042 -87.42273 
L 202.059296 -87.42273 
L 202.813551 -87.42273 
L 203.567805 -87.42273 
L 204.322059 -87.42273 
L 205.076313 -87.42273 
L 205.830567 -87.42273 
L 206.584822 -87.42273 
L 207.339076 -86.510397 
L 208.09333 -86.510397 
L 208.847584 -86.399518 
L 209.601838 -86.399518 
L 210.356093 -86.399518 
L 211.110347 -86.399518 
L 211.864601 -85.42714 
L 212.618855 -85.42714 
L 213.373109 -85.42714 
L 214.127364 -85.42714 
L 214.881618 -85.42714 
L 215.635872 -85.422776 
L 216.390126 -85.422776 
L 217.14438 -85.422776 
L 217.898635 -85.345578 
L 218.652889 -84.800039 
L 219.407143 -84.800039 
L 220.161397 -84.800039 
L 220.915651 -84.800039 
L 221.669906 -84.800039 
L 222.42416 -84.292199 
L 223.178414 -84.292199 
L 223.932668 -84.292199 
L 224.686922 -84.203677 
L 225.441177 -84.190219 
L 226.195431 -84.190219 
L 226.949685 -84.190219 
L 227.703939 -83.54901 
L 228.458193 -83.54901 
L 229.212448 -83.351572 
L 229.966702 -83.351572 
L 230.720956 -83.351572 
L 231.47521 -83.351572 
L 232.229464 -83.351572 
L 232.983719 -83.301431 
L 233.737973 -83.301431 
L 234.492227 -83.301431 
L 235.246481 -83.301431 
L 236.000735 -83.301431 
L 236.75499 -83.301431 
L 237.509244 -83.301431 
L 238.263498 -83.301431 
L 239.017752 -83.301431 
L 239.772006 -83.301431 
L 240.526261 -83.301431 
L 241.280515 -83.20735 
L 242.034769 -83.20735 
L 242.789023 -83.20735 
L 243.543277 -83.20735 
L 244.297532 -82.783815 
L 245.051786 -82.783815 
L 245.80604 -82.783815 
L 246.560294 -82.599115 
L 247.314548 -82.599115 
L 248.068803 -82.599115 
L 248.823057 -82.599115 
L 249.577311 -82.599115 
L 250.331565 -82.599115 
L 251.085819 -82.599115 
L 251.840074 -82.599115 
L 252.594328 -82.599115 
L 253.348582 -82.599115 
L 254.102836 -82.599115 
L 254.85709 -82.599115 
L 255.611345 -82.599115 
L 256.365599 -82.599115 
L 257.119853 -82.599115 
L 257.874107 -82.599115 
L 258.628361 -82.599115 
L 259.382616 -82.599115 
L 260.13687 -82.599115 
L 260.891124 -82.599115 
L 261.645378 -82.599115 
L 262.399632 -82.599115 
L 263.153887 -82.328169 
L 263.908141 -82.188053 
L 264.662395 -82.188053 
L 265.416649 -81.822394 
L 266.170903 -81.511767 
L 266.925158 -81.511767 
L 267.679412 -81.511767 
L 268.433666 -81.511767 
L 269.18792 -81.511767 
L 269.942174 -81.511767 
L 270.696429 -81.511767 
L 271.450683 -81.511767 
L 272.204937 -81.511767 
L 272.959191 -81.109226 
L 273.713446 -81.109226 
L 274.4677 -81.109226 
L 275.221954 -81.109226 
L 275.976208 -81.109226 
L 276.730462 -81.109226 
L 277.484717 -81.109226 
L 278.238971 -81.104552 
L 278.993225 -81.104552 
L 279.747479 -81.104552 
L 280.501733 -80.951451 
L 281.255988 -80.951451 
L 282.010242 -80.951451 
L 282.764496 -80.951451 
L 283.51875 -80.951451 
L 284.273004 -80.951451 
L 285.027259 -80.951451 
L 285.781513 -80.951451 
L 286.535767 -80.951451 
L 287.290021 -80.951451 
L 288.044275 -80.578812 
L 288.79853 -80.578812 
L 289.552784 -80.578812 
L 290.307038 -80.578812 
L 291.061292 -80.578812 
L 291.815546 -80.578812 
L 292.569801 -80.578812 
L 293.324055 -80.578812 
L 294.078309 -80.578812 
L 294.832563 -80.578812 
L 295.586817 -80.578812 
L 296.341072 -80.439941 
L 297.095326 -80.439941 
L 297.84958 -80.439941 
L 298.603834 -80.439941 
L 299.358088 -80.439941 
L 300.112343 -80.439941 
L 300.866597 -80.439941 
L 301.620851 -80.439941 
L 302.375105 -80.439941 
L 303.129359 -80.439941 
L 303.883614 -80.011398 
L 304.637868 -80.011398 
L 305.392122 -80.011398 
L 306.146376 -80.011398 
L 306.90063 -80.011398 
L 307.654885 -80.011398 
L 308.409139 -80.011398 
L 309.163393 -79.984022 
L 309.917647 -79.984022 
L 310.671901 -79.984022 
L 311.426156 -79.984022 
L 312.18041 -79.984022 
L 312.934664 -79.984022 
L 313.688918 -79.951764 
L 314.443172 -79.951764 
L 315.197427 -79.951764 
L 315.951681 -79.827123 
L 316.705935 -79.827123 
L 317.460189 -79.827123 
L 318.214443 -79.827123 
L 318.968698 -79.827123 
L 319.722952 -79.827123 
L 320.477206 -79.820766 
L 321.23146 -79.820766 
L 321.985714 -79.820766 
L 322.739969 -79.637334 
L 323.494223 -79.637334 
L 324.248477 -79.637334 
L 325.002731 -79.637334 
L 325.756985 -79.637334 
L 326.51124 -79.637334 
L 327.265494 -79.637334 
L 328.019748 -79.637334 
L 328.774002 -79.637334 
L 329.528256 -79.637334 
L 330.282511 -79.637334 
L 331.036765 -79.637334 
L 331.791019 -79.637334 
L 332.545273 -79.461123 
L 333.299527 -79.461123 
L 334.053782 -79.461123 
L 334.808036 -77.140244 
L 335.56229 -77.140244 
L 336.316544 -76.661721 
L 337.070798 -76.661721 
L 337.825053 -76.661721 
L 338.579307 -76.661721 
L 339.333561 -76.661721 
L 340.087815 -76.661721 
L 340.842069 -76.661721 
L 341.596324 -76.661721 
L 342.350578 -76.661721 
L 343.104832 -76.661721 
L 343.859086 -76.643811 
L 344.61334 -76.643811 
L 345.367595 -76.643811 
L 346.121849 -76.585694 
L 346.876103 -76.584819 
L 347.630357 -76.584819 
L 348.384612 -76.584819 
L 349.138866 -76.471679 
L 349.89312 -76.471679 
L 350.647374 -76.471679 
L 351.401628 -76.471679 
L 352.155883 -76.471679 
L 352.910137 -76.471679 
L 353.664391 -76.471679 
L 354.418645 -76.380626 
L 355.172899 -76.380626 
L 355.927154 -76.380626 
L 356.681408 -76.380626 
L 357.435662 -76.380626 
L 358.189916 -76.380626 
L 358.94417 -76.380626 
L 359.698425 -76.380626 
L 360.452679 -76.380626 
L 361.206933 -76.380626 
L 361.961187 -76.380626 
L 362.715441 -76.380626 
L 363.469696 -76.380626 
L 364.22395 -76.380626 
L 364.978204 -76.125474 
L 365.732458 -76.125474 
L 366.486712 -76.125474 
L 367.240967 -76.033623 
L 367.995221 -76.033623 
L 368.749475 -76.033623 
L 369.503729 -76.033623 
L 370.257983 -75.951441 
L 371.012238 -75.951441 
L 371.766492 -75.951441 
L 372.520746 -75.951441 
L 373.275 -75.951441 
L 374.029254 -75.951441 
L 374.783509 -75.951441 
L 375.537763 -75.951441 
L 376.292017 -75.951441 
L 377.046271 -75.951441 
L 377.800525 -75.951441 
L 378.55478 -75.951441 
L 379.309034 -75.951441 
L 380.063288 -75.675678 
L 380.817542 -75.675678 
L 381.571796 -75.675678 
L 382.326051 -75.675678 
L 383.080305 -75.675678 
L 383.834559 -75.675678 
L 384.588813 -75.675678 
L 385.343067 -75.675678 
L 386.097322 -75.421021 
L 386.851576 -75.421021 
L 387.60583 -75.421021 
L 388.360084 -75.421021 
L 389.114338 -75.421021 
L 389.868593 -75.358234 
L 390.622847 -75.358234 
L 391.377101 -75.358234 
L 392.131355 -75.358234 
L 392.885609 -75.358234 
L 393.639864 -75.358234 
L 394.394118 -75.358234 
L 395.148372 -75.358234 
L 395.902626 -75.358234 
L 396.65688 -75.358234 
L 397.411135 -75.358234 
L 398.165389 -75.010801 
L 398.919643 -75.010801 
L 399.673897 -75.010801 
L 400.428151 -75.010801 
L 401.182406 -75.010801 
L 401.93666 -75.010801 
L 402.690914 -75.010801 
L 403.445168 -75.010801 
L 404.199422 -75.010801 
L 404.953677 -75.010801 
L 405.707931 -75.010801 
L 406.462185 -75.010801 
L 407.216439 -75.010801 
L 407.970693 -75.010801 
L 408.724948 -75.010801 
L 409.479202 -75.010801 
L 410.233456 -75.010801 
L 410.98771 -75.010801 
L 411.741964 -75.010801 
L 412.496219 -75.010801 
L 413.250473 -75.010801 
L 414.004727 -75.010801 
L 414.758981 -75.010801 
L 415.513235 -75.00763 
L 416.26749 -75.00763 
L 417.021744 -75.00763 
L 417.775998 -75.00763 
L 418.530252 -75.00763 
L 419.284507 -75.00763 
L 420.038761 -74.15415 
L 420.793015 -74.15415 
L 421.547269 -73.69096 
L 422.301523 -73.69096 
L 423.055778 -73.69096 
L 423.810032 -73.69096 
L 424.564286 -73.69096 
L 425.31854 -73.69096 
L 425.31854 -107.97285 
L 425.31854 -107.97285 
L 424.564286 -107.97285 
L 423.810032 -107.97285 
L 423.055778 -107.97285 
L 422.301523 -107.97285 
L 421.547269 -107.97285 
L 420.793015 -107.97285 
L 420.038761 -107.97285 
L 419.284507 -107.97285 
L 418.530252 -108.033455 
L 417.775998 -108.072999 
L 417.021744 -108.072999 
L 416.26749 -108.072999 
L 415.513235 -108.072999 
L 414.758981 -108.072999 
L 414.004727 -108.072999 
L 413.250473 -108.074445 
L 412.496219 -108.074445 
L 411.741964 -108.152445 
L 410.98771 -108.152445 
L 410.233456 -108.152445 
L 409.479202 -108.152445 
L 408.724948 -108.152445 
L 407.970693 -108.152445 
L 407.216439 -108.152445 
L 406.462185 -108.152445 
L 405.707931 -108.152445 
L 404.953677 -108.152445 
L 404.199422 -108.474292 
L 403.445168 -108.474292 
L 402.690914 -108.474292 
L 401.93666 -108.474292 
L 401.182406 -108.474292 
L 400.428151 -108.474292 
L 399.673897 -108.474292 
L 398.919643 -108.474292 
L 398.165389 -108.474292 
L 397.411135 -108.474292 
L 396.65688 -108.474292 
L 395.902626 -108.683722 
L 395.148372 -108.683722 
L 394.394118 -108.683722 
L 393.639864 -108.683722 
L 392.885609 -108.747491 
L 392.131355 -108.747491 
L 391.377101 -108.747491 
L 390.622847 -108.794011 
L 389.868593 -108.794011 
L 389.114338 -108.794011 
L 388.360084 -108.794011 
L 387.60583 -108.794011 
L 386.851576 -108.794011 
L 386.097322 -108.794011 
L 385.343067 -108.794011 
L 384.588813 -108.794011 
L 383.834559 -108.950949 
L 383.080305 -108.950949 
L 382.326051 -108.950949 
L 381.571796 -108.950949 
L 380.817542 -108.950949 
L 380.063288 -109.520998 
L 379.309034 -109.520998 
L 378.55478 -109.520998 
L 377.800525 -109.520998 
L 377.046271 -109.520998 
L 376.292017 -109.520998 
L 375.537763 -109.520998 
L 374.783509 -109.520998 
L 374.029254 -109.602359 
L 373.275 -109.602359 
L 372.520746 -109.887253 
L 371.766492 -109.887253 
L 371.012238 -109.887253 
L 370.257983 -109.887253 
L 369.503729 -109.887253 
L 368.749475 -109.887253 
L 367.995221 -109.887253 
L 367.240967 -109.887253 
L 366.486712 -110.06546 
L 365.732458 -110.06546 
L 364.978204 -110.06546 
L 364.22395 -110.06546 
L 363.469696 -110.06546 
L 362.715441 -110.613663 
L 361.961187 -110.613663 
L 361.206933 -110.613663 
L 360.452679 -110.613663 
L 359.698425 -110.613663 
L 358.94417 -110.613663 
L 358.189916 -110.613663 
L 357.435662 -110.613663 
L 356.681408 -110.613663 
L 355.927154 -110.613663 
L 355.172899 -110.613663 
L 354.418645 -110.613663 
L 353.664391 -110.613663 
L 352.910137 -110.613663 
L 352.155883 -110.613663 
L 351.401628 -110.613663 
L 350.647374 -110.613663 
L 349.89312 -110.613663 
L 349.138866 -110.613663 
L 348.384612 -110.613663 
L 347.630357 -110.613663 
L 346.876103 -110.613663 
L 346.121849 -110.613663 
L 345.367595 -110.613663 
L 344.61334 -110.613663 
L 343.859086 -110.613663 
L 343.104832 -110.613663 
L 342.350578 -110.651968 
L 341.596324 -110.651968 
L 340.842069 -110.735677 
L 340.087815 -110.735677 
L 339.333561 -110.735677 
L 338.579307 -110.768833 
L 337.825053 -110.895856 
L 337.070798 -110.895856 
L 336.316544 -110.898103 
L 335.56229 -110.898103 
L 334.808036 -110.898103 
L 334.053782 -110.898103 
L 333.299527 -110.898103 
L 332.545273 -110.898103 
L 331.791019 -111.292907 
L 331.036765 -111.292907 
L 330.282511 -111.292907 
L 329.528256 -111.292907 
L 328.774002 -111.292907 
L 328.019748 -111.292907 
L 327.265494 -111.337024 
L 326.51124 -111.337024 
L 325.756985 -111.337024 
L 325.002731 -111.337024 
L 324.248477 -111.463235 
L 323.494223 -111.809419 
L 322.739969 -111.809419 
L 321.985714 -111.809419 
L 321.23146 -111.809419 
L 320.477206 -111.809419 
L 319.722952 -111.809419 
L 318.968698 -111.809419 
L 318.214443 -111.809419 
L 317.460189 -111.809419 
L 316.705935 -111.809419 
L 315.951681 -111.809419 
L 315.197427 -111.809419 
L 314.443172 -111.809419 
L 313.688918 -111.809419 
L 312.934664 -111.809419 
L 312.18041 -111.809419 
L 311.426156 -112.360704 
L 310.671901 -112.522693 
L 309.917647 -112.798167 
L 309.163393 -112.798167 
L 308.409139 -112.798167 
L 307.654885 -112.798167 
L 306.90063 -112.798167 
L 306.146376 -112.798167 
L 305.392122 -112.798167 
L 304.637868 -113.008905 
L 303.883614 -113.100355 
L 303.129359 -113.358545 
L 302.375105 -114.105089 
L 301.620851 -114.185191 
L 300.866597 -114.185191 
L 300.112343 -114.185191 
L 299.358088 -115.043142 
L 298.603834 -115.043142 
L 297.84958 -115.043142 
L 297.095326 -115.043142 
L 296.341072 -115.148187 
L 295.586817 -115.148187 
L 294.832563 -115.261077 
L 294.078309 -115.261077 
L 293.324055 -115.261077 
L 292.569801 -115.261077 
L 291.815546 -115.261077 
L 291.061292 -115.261077 
L 290.307038 -115.261077 
L 289.552784 -115.261077 
L 288.79853 -115.261077 
L 288.044275 -115.261077 
L 287.290021 -115.261077 
L 286.535767 -115.261077 
L 285.781513 -115.261077 
L 285.027259 -115.261077 
L 284.273004 -115.571979 
L 283.51875 -115.571979 
L 282.764496 -115.571979 
L 282.010242 -116.982746 
L 281.255988 -116.982746 
L 280.501733 -116.982746 
L 279.747479 -116.982746 
L 278.993225 -117.832865 
L 278.238971 -117.832865 
L 277.484717 -118.191424 
L 276.730462 -118.191424 
L 275.976208 -118.191424 
L 275.221954 -118.191424 
L 274.4677 -118.191424 
L 273.713446 -118.191424 
L 272.959191 -118.372119 
L 272.204937 -118.372119 
L 271.450683 -118.372119 
L 270.696429 -118.372119 
L 269.942174 -118.372119 
L 269.18792 -118.372119 
L 268.433666 -118.372119 
L 267.679412 -118.372119 
L 266.925158 -118.372119 
L 266.170903 -118.497411 
L 265.416649 -118.497411 
L 264.662395 -118.497411 
L 263.908141 -118.662837 
L 263.153887 -118.662837 
L 262.399632 -118.784081 
L 261.645378 -118.784081 
L 260.891124 -118.784081 
L 260.13687 -118.784081 
L 259.382616 -118.784081 
L 258.628361 -118.784081 
L 257.874107 -119.07937 
L 257.119853 -119.07937 
L 256.365599 -119.07937 
L 255.611345 -119.290781 
L 254.85709 -119.290781 
L 254.102836 -119.290781 
L 253.348582 -119.290781 
L 252.594328 -119.618031 
L 251.840074 -119.618031 
L 251.085819 -119.618031 
L 250.331565 -119.747944 
L 249.577311 -119.920392 
L 248.823057 -119.920392 
L 248.068803 -119.920392 
L 247.314548 -120.029905 
L 246.560294 -120.029905 
L 245.80604 -120.029905 
L 245.051786 -120.825434 
L 244.297532 -120.825434 
L 243.543277 -120.825434 
L 242.789023 -120.984732 
L 242.034769 -120.984732 
L 241.280515 -121.358117 
L 240.526261 -121.358117 
L 239.772006 -121.358117 
L 239.017752 -121.645346 
L 238.263498 -121.836536 
L 237.509244 -121.836536 
L 236.75499 -121.836536 
L 236.000735 -121.836536 
L 235.246481 -121.836536 
L 234.492227 -121.836536 
L 233.737973 -121.836536 
L 232.983719 -121.836536 
L 232.229464 -122.749299 
L 231.47521 -122.749299 
L 230.720956 -122.749299 
L 229.966702 -122.749299 
L 229.212448 -123.280708 
L 228.458193 -123.280708 
L 227.703939 -123.280708 
L 226.949685 -123.280708 
L 226.195431 -123.280708 
L 225.441177 -123.280708 
L 224.686922 -123.280708 
L 223.932668 -123.280708 
L 223.178414 -123.280708 
L 222.42416 -123.280708 
L 221.669906 -123.280708 
L 220.915651 -123.280708 
L 220.161397 -123.280708 
L 219.407143 -123.280708 
L 218.652889 -123.280708 
L 217.898635 -123.280708 
L 217.14438 -123.361006 
L 216.390126 -123.361006 
L 215.635872 -123.361006 
L 214.881618 -125.235565 
L 214.127364 -125.235565 
L 213.373109 -125.235565 
L 212.618855 -125.235565 
L 211.864601 -125.235565 
L 211.110347 -125.235565 
L 210.356093 -125.235565 
L 209.601838 -125.235565 
L 208.847584 -125.983219 
L 208.09333 -125.983219 
L 207.339076 -125.983219 
L 206.584822 -125.983219 
L 205.830567 -125.983219 
L 205.076313 -125.983219 
L 204.322059 -125.983219 
L 203.567805 -125.983219 
L 202.813551 -125.983219 
L 202.059296 -125.994335 
L 201.305042 -125.994335 
L 200.550788 -125.994335 
L 199.796534 -125.994335 
L 199.04228 -125.994335 
L 198.288025 -125.994335 
L 197.533771 -126.216432 
L 196.779517 -126.297536 
L 196.025263 -126.297536 
L 195.271008 -127.032092 
L 194.516754 -128.008969 
L 193.7625 -128.40937 
L 193.008246 -128.47787 
L 192.253992 -128.47787 
L 191.499737 -128.544537 
L 190.745483 -128.544537 
L 189.991229 -128.544537 
L 189.236975 -128.544537 
L 188.482721 -128.544537 
L 187.728466 -128.544537 
L 186.974212 -128.544537 
L 186.219958 -128.544537 
L 185.465704 -128.654004 
L 184.71145 -128.654004 
L 183.957195 -128.654004 
L 183.202941 -128.654004 
L 182.448687 -128.654004 
L 181.694433 -128.687341 
L 180.940179 -129.086964 
L 180.185924 -129.086964 
L 179.43167 -129.086964 
L 178.677416 -129.316308 
L 177.923162 -129.575439 
L 177.168908 -129.575439 
L 176.414653 -129.575439 
L 175.660399 -129.575439 
L 174.906145 -129.575439 
L 174.151891 -129.575439 
L 173.397637 -129.575439 
L 172.643382 -129.575439 
L 171.889128 -129.575439 
L 171.134874 -129.575439 
L 170.38062 -129.575439 
L 169.626366 -129.575439 
L 168.872111 -129.575439 
L 168.117857 -129.742276 
L 167.363603 -129.769079 
L 166.609349 -129.769079 
L 165.855095 -129.769079 
L 165.10084 -129.769079 
L 164.346586 -129.769079 
L 163.592332 -129.803051 
L 162.838078 -129.803051 
L 162.083824 -129.803051 
L 161.329569 -129.803051 
L 160.575315 -129.803051 
L 159.821061 -129.803051 
L 159.066807 -129.803051 
L 158.312553 -129.803051 
L 157.558298 -129.927032 
L 156.804044 -129.927032 
L 156.04979 -129.927032 
L 155.295536 -129.927032 
L 154.541282 -130.538448 
L 153.787027 -130.692698 
L 153.032773 -131.297847 
L 152.278519 -131.297847 
L 151.524265 -131.297847 
L 150.770011 -131.297847 
L 150.015756 -131.297847 
L 149.261502 -132.064082 
L 148.507248 -132.064082 
L 147.752994 -132.064082 
L 146.99874 -132.064082 
L 146.244485 -132.064082 
L 145.490231 -132.104786 
L 144.735977 -132.564935 
L 143.981723 -132.928969 
L 143.227469 -132.928969 
L 142.473214 -132.928969 
L 141.71896 -133.486661 
L 140.964706 -133.486661 
L 140.210452 -135.722129 
L 139.456198 -135.900325 
L 138.701943 -136.561745 
L 137.947689 -136.561745 
L 137.193435 -136.561745 
L 136.439181 -137.905669 
L 135.684927 -139.040129 
L 134.930672 -139.040129 
L 134.176418 -139.040129 
L 133.422164 -139.763065 
L 132.66791 -139.763065 
L 131.913656 -139.763065 
L 131.159401 -139.763065 
L 130.405147 -140.115252 
L 129.650893 -140.115252 
L 128.896639 -140.115252 
L 128.142385 -140.115252 
L 127.38813 -140.115252 
L 126.633876 -141.657661 
L 125.879622 -141.657661 
L 125.125368 -141.672166 
L 124.371113 -141.672166 
L 123.616859 -141.680644 
L 122.862605 -141.680644 
L 122.108351 -143.088959 
L 121.354097 -143.32465 
L 120.599842 -143.598311 
L 119.845588 -145.382221 
L 119.091334 -145.382221 
L 118.33708 -145.382221 
L 117.582826 -145.546414 
L 116.828571 -145.547363 
L 116.074317 -145.634751 
L 115.320063 -145.634751 
L 114.565809 -145.634751 
L 113.811555 -145.634751 
L 113.0573 -145.634751 
L 112.303046 -146.102141 
L 111.548792 -146.102141 
L 110.794538 -146.102141 
L 110.040284 -146.102141 
L 109.286029 -147.656051 
L 108.531775 -147.656051 
L 107.777521 -148.277383 
L 107.023267 -148.277383 
L 106.269013 -148.277383 
L 105.514758 -148.277383 
L 104.760504 -148.277383 
L 104.00625 -154.266783 
L 103.251996 -154.266783 
L 102.497742 -154.266783 
L 101.743487 -154.266783 
L 100.989233 -154.273041 
L 100.234979 -160.287324 
L 99.480725 -161.236716 
L 98.726471 -161.470916 
L 97.972216 -161.470916 
L 97.217962 -162.101666 
L 96.463708 -162.101666 
L 95.709454 -162.101666 
L 94.9552 -162.101666 
L 94.200945 -162.101666 
L 93.446691 -162.101666 
L 92.692437 -162.101666 
L 91.938183 -162.101666 
L 91.183929 -162.101666 
L 90.429674 -162.101666 
L 89.67542 -162.132612 
L 88.921166 -162.39046 
L 88.166912 -162.39046 
L 87.412658 -162.816453 
L 86.658403 -162.816453 
L 85.904149 -162.816453 
L 85.149895 -163.666074 
L 84.395641 -163.666074 
L 83.641387 -163.666074 
L 82.887132 -164.018038 
L 82.132878 -164.018038 
L 81.378624 -164.018038 
L 80.62437 -164.415472 
L 79.870116 -169.768421 
L 79.115861 -169.768421 
L 78.361607 -169.768421 
L 77.607353 -169.768421 
L 76.853099 -170.500045 
L 76.098845 -170.500045 
L 75.34459 -175.355056 
L 74.590336 -175.355056 
L 73.836082 -177.010733 
L 73.081828 -179.384702 
L 72.327574 -179.991086 
L 71.573319 -179.998306 
L 70.819065 -179.998306 
L 70.064811 -180.971304 
L 69.310557 -184.50285 
L 68.556303 -185.078782 
L 67.802048 -187.125983 
L 67.047794 -187.125983 
L 66.29354 -187.125983 
L 65.539286 -191.343066 
L 64.785032 -193.688087 
L 64.030777 -198.286461 
L 63.276523 -198.286461 
L 62.522269 -200.013994 
L 61.768015 -201.457016 
L 61.013761 -201.457016 
L 60.259506 -205.420876 
L 59.505252 -205.420876 
L 58.750998 -205.434224 
L 57.996744 -205.434224 
L 57.24249 -208.47894 
L 56.488235 -209.026267 
L 55.733981 -210.156628 
L 54.979727 -215.19966 
L 54.225473 -216.088172 
L 53.471219 -218.414231 
L 52.716964 -221.83008 
L 51.96271 -227.438985 
L 51.208456 -228.854618 
L 50.454202 -230.068588 
L 49.699947 -230.106918 
L 48.945693 -230.106918 
L 48.191439 -230.106918 
z
"/>
    </defs>
    <g clip-path="url(#p4aefd5275b)">
     <use xlink:href="#m0d541c0c04" x="0" y="246.753281" style="fill: #f4a3a8; fill-opacity: 0.35"/>
    </g>
   </g>
   <g id="matplotlib.axis_1">
    <g id="xtick_1">
     <g id="line2d_1">
      <defs>
       <path id="m5ea9d9878d" d="M 0 0 
L 0 3 
" style="stroke: #000000; stroke-width: 0.7"/>
      </defs>
      <g>
       <use xlink:href="#m5ea9d9878d" x="48.191439" y="215.02" style="stroke: #000000; stroke-width: 0.7"/>
      </g>
     </g>
     <g id="text_1">
      <text style="font-size: 6.5px; font-family: 'Arial', 'Helvetica', 'DejaVu Sans', sans-serif; text-anchor: middle" x="48.191439" y="226.458984" transform="rotate(-0 48.191439 226.458984)">0.0</text>
     </g>
    </g>
    <g id="xtick_2">
     <g id="line2d_2">
      <g>
       <use xlink:href="#m5ea9d9878d" x="123.616859" y="215.02" style="stroke: #000000; stroke-width: 0.7"/>
      </g>
     </g>
     <g id="text_2">
      <text style="font-size: 6.5px; font-family: 'Arial', 'Helvetica', 'DejaVu Sans', sans-serif; text-anchor: middle" x="123.616859" y="226.458984" transform="rotate(-0 123.616859 226.458984)">0.2</text>
     </g>
    </g>
    <g id="xtick_3">
     <g id="line2d_3">
      <g>
       <use xlink:href="#m5ea9d9878d" x="199.04228" y="215.02" style="stroke: #000000; stroke-width: 0.7"/>
      </g>
     </g>
     <g id="text_3">
      <text style="font-size: 6.5px; font-family: 'Arial', 'Helvetica', 'DejaVu Sans', sans-serif; text-anchor: middle" x="199.04228" y="226.458984" transform="rotate(-0 199.04228 226.458984)">0.4</text>
     </g>
    </g>
    <g id="xtick_4">
     <g id="line2d_4">
      <g>
       <use xlink:href="#m5ea9d9878d" x="274.4677" y="215.02" style="stroke: #000000; stroke-width: 0.7"/>
      </g>
     </g>
     <g id="text_4">
      <text style="font-size: 6.5px; font-family: 'Arial', 'Helvetica', 'DejaVu Sans', sans-serif; text-anchor: middle" x="274.4677" y="226.458984" transform="rotate(-0 274.4677 226.458984)">0.6</text>
     </g>
    </g>
    <g id="xtick_5">
     <g id="line2d_5">
      <g>
       <use xlink:href="#m5ea9d9878d" x="349.89312" y="215.02" style="stroke: #000000; stroke-width: 0.7"/>
      </g>
     </g>
     <g id="text_5">
      <text style="font-size: 6.5px; font-family: 'Arial', 'Helvetica', 'DejaVu Sans', sans-serif; text-anchor: middle" x="349.89312" y="226.458984" transform="rotate(-0 349.89312 226.458984)">0.8</text>
     </g>
    </g>
    <g id="xtick_6">
     <g id="line2d_6">
      <g>
       <use xlink:href="#m5ea9d9878d" x="425.31854" y="215.02" style="stroke: #000000; stroke-width: 0.7"/>
      </g>
     </g>
     <g id="text_6">
      <text style="font-size: 6.5px; font-family: 'Arial', 'Helvetica', 'DejaVu Sans', sans-serif; text-anchor: middle" x="425.31854" y="226.458984" transform="rotate(-0 425.31854 226.458984)">1.0</text>
     </g>
    </g>
    <g id="text_7">
     <text style="font-size: 8px; font-family: 'Arial', 'Helvetica', 'DejaVu Sans', sans-serif; text-anchor: middle" x="236.75499" y="237.889531" transform="rotate(-0 236.75499 237.889531)">Normalized optimization progress</text>
    </g>
   </g>
   <g id="matplotlib.axis_2">
    <g id="ytick_1">
     <g id="line2d_7">
      <defs>
       <path id="m17a08b6dca" d="M 0 0 
L -3 0 
" style="stroke: #000000; stroke-width: 0.7"/>
      </defs>
      <g>
       <use xlink:href="#m17a08b6dca" x="48.191439" y="199.596764" style="stroke: #000000; stroke-width: 0.7"/>
      </g>
     </g>
     <g id="text_8">
      <text style="font-size: 6.5px; font-family: 'Arial', 'Helvetica', 'DejaVu Sans', sans-serif; text-anchor: end" x="41.691439" y="202.066256" transform="rotate(-0 41.691439 202.066256)">0.2</text>
     </g>
    </g>
    <g id="ytick_2">
     <g id="line2d_8">
      <g>
       <use xlink:href="#m17a08b6dca" x="48.191439" y="153.859164" style="stroke: #000000; stroke-width: 0.7"/>
      </g>
     </g>
     <g id="text_9">
      <text style="font-size: 6.5px; font-family: 'Arial', 'Helvetica', 'DejaVu Sans', sans-serif; text-anchor: end" x="41.691439" y="156.328656" transform="rotate(-0 41.691439 156.328656)">0.4</text>
     </g>
    </g>
    <g id="ytick_3">
     <g id="line2d_9">
      <g>
       <use xlink:href="#m17a08b6dca" x="48.191439" y="108.121564" style="stroke: #000000; stroke-width: 0.7"/>
      </g>
     </g>
     <g id="text_10">
      <text style="font-size: 6.5px; font-family: 'Arial', 'Helvetica', 'DejaVu Sans', sans-serif; text-anchor: end" x="41.691439" y="110.591056" transform="rotate(-0 41.691439 110.591056)">0.6</text>
     </g>
    </g>
    <g id="ytick_4">
     <g id="line2d_10">
      <g>
       <use xlink:href="#m17a08b6dca" x="48.191439" y="62.383964" style="stroke: #000000; stroke-width: 0.7"/>
      </g>
     </g>
     <g id="text_11">
      <text style="font-size: 6.5px; font-family: 'Arial', 'Helvetica', 'DejaVu Sans', sans-serif; text-anchor: end" x="41.691439" y="64.853456" transform="rotate(-0 41.691439 64.853456)">0.8</text>
     </g>
    </g>
    <g id="ytick_5">
     <g id="line2d_11">
      <g>
       <use xlink:href="#m17a08b6dca" x="48.191439" y="16.646364" style="stroke: #000000; stroke-width: 0.7"/>
      </g>
     </g>
     <g id="text_12">
      <text style="font-size: 6.5px; font-family: 'Arial', 'Helvetica', 'DejaVu Sans', sans-serif; text-anchor: end" x="41.691439" y="19.115856" transform="rotate(-0 41.691439 19.115856)">1.0</text>
     </g>
    </g>
   </g>
   <g id="line2d_12">
    <path d="M 48.191439 16.646364 
L 52.716964 16.723024 
L 53.471219 18.607122 
L 54.225473 36.216701 
L 54.979727 36.216701 
L 55.733981 45.335838 
L 57.24249 45.335838 
L 57.996744 45.653028 
L 64.030777 45.653028 
L 64.785032 51.882737 
L 65.539286 60.846923 
L 69.310557 60.915583 
L 70.064811 67.978675 
L 70.819065 69.924671 
L 75.34459 69.924671 
L 76.098845 79.295484 
L 76.853099 79.295484 
L 77.607353 79.975384 
L 79.870116 79.975384 
L 80.62437 82.36559 
L 82.887132 82.36559 
L 83.641387 82.941315 
L 97.217962 82.955102 
L 97.972216 83.135083 
L 100.234979 83.135083 
L 100.989233 85.505231 
L 101.743487 85.505231 
L 102.497742 86.090302 
L 110.794538 86.090302 
L 111.548792 88.568296 
L 112.303046 89.904205 
L 114.565809 89.904205 
L 115.320063 90.427616 
L 116.074317 93.796522 
L 120.599842 93.796522 
L 121.354097 93.966708 
L 123.616859 93.966708 
L 124.371113 94.320992 
L 132.66791 94.320992 
L 133.422164 95.763566 
L 139.456198 95.763566 
L 140.210452 96.017949 
L 143.227469 96.017949 
L 143.981723 97.189398 
L 144.735977 97.912194 
L 145.490231 97.912194 
L 146.244485 101.048925 
L 148.507248 101.048925 
L 149.261502 102.269931 
L 150.015756 102.269931 
L 150.770011 103.706379 
L 151.524265 103.706379 
L 152.278519 106.702773 
L 161.329569 106.702773 
L 162.083824 110.634646 
L 166.609349 110.634646 
L 167.363603 110.84592 
L 180.940179 110.923102 
L 181.694433 111.45662 
L 183.202941 111.45662 
L 183.957195 111.615405 
L 184.71145 112.484981 
L 189.991229 112.484981 
L 190.745483 113.734166 
L 192.253992 113.734166 
L 193.008246 114.068782 
L 205.076313 114.068782 
L 205.830567 115.899211 
L 232.983719 115.899211 
L 233.737973 117.082816 
L 239.017752 117.082816 
L 239.772006 117.387618 
L 248.068803 117.387618 
L 248.823057 117.88528 
L 249.577311 117.88528 
L 250.331565 120.540846 
L 254.102836 120.540846 
L 254.85709 121.471247 
L 256.365599 121.471247 
L 257.119853 122.315354 
L 278.993225 122.315354 
L 279.747479 122.749013 
L 285.781513 122.749013 
L 286.535767 123.302289 
L 287.290021 123.302289 
L 288.044275 124.527913 
L 305.392122 124.527913 
L 306.146376 124.898458 
L 310.671901 124.949413 
L 311.426156 125.113201 
L 321.985714 125.113201 
L 322.739969 125.406097 
L 348.384612 125.406097 
L 349.138866 125.640796 
L 371.766492 125.640796 
L 372.520746 125.868336 
L 374.783509 125.868336 
L 375.537763 126.241957 
L 386.851576 126.241957 
L 387.60583 126.612448 
L 425.31854 126.612448 
L 425.31854 126.612448 
" clip-path="url(#p4aefd5275b)" style="fill: none; stroke: #b8b8b8; stroke-opacity: 0.28; stroke-width: 0.75; stroke-linecap: square"/>
   </g>
   <g id="line2d_13">
    <path d="M 48.191439 16.646364 
L 48.945693 16.646364 
L 49.699947 17.137267 
L 51.208456 32.981312 
L 51.96271 44.816915 
L 52.716964 45.243791 
L 53.471219 48.167055 
L 56.488235 48.167055 
L 57.24249 48.657307 
L 57.996744 54.840388 
L 63.276523 54.909131 
L 64.030777 61.387509 
L 65.539286 61.387509 
L 66.29354 62.264946 
L 67.047794 62.264946 
L 67.802048 62.497723 
L 68.556303 62.497723 
L 69.310557 63.58528 
L 72.327574 63.599719 
L 73.081828 64.812487 
L 73.836082 69.560426 
L 74.590336 75.887513 
L 75.34459 75.887513 
L 76.098845 80.930111 
L 76.853099 82.310028 
L 85.149895 82.310028 
L 85.904149 84.493258 
L 87.412658 84.493258 
L 88.166912 85.345244 
L 88.921166 85.345244 
L 90.429674 85.528915 
L 98.726471 85.528915 
L 99.480725 85.997317 
L 100.234979 85.997317 
L 100.989233 86.644121 
L 101.743487 86.947113 
L 110.040284 86.947113 
L 110.794538 87.223993 
L 111.548792 88.11445 
L 122.108351 88.11445 
L 122.862605 88.784659 
L 123.616859 98.231125 
L 126.633876 98.231125 
L 127.38813 103.991754 
L 130.405147 103.991754 
L 131.159401 104.696128 
L 135.684927 104.780974 
L 136.439181 106.463146 
L 144.735977 106.463146 
L 145.490231 106.868735 
L 148.507248 106.868735 
L 149.261502 107.07423 
L 150.015756 107.07423 
L 150.770011 108.142151 
L 152.278519 108.156773 
L 153.032773 108.705097 
L 161.329569 108.781048 
L 162.083824 108.865562 
L 162.838078 110.071513 
L 164.346586 110.071513 
L 165.10084 110.380804 
L 172.643382 110.380804 
L 173.397637 111.250038 
L 174.151891 111.90157 
L 174.906145 111.90157 
L 176.414653 113.231306 
L 178.677416 113.231306 
L 179.43167 115.079234 
L 180.940179 115.079234 
L 181.694433 115.878481 
L 183.202941 115.945154 
L 193.008246 115.945154 
L 193.7625 116.215486 
L 196.025263 116.215486 
L 196.779517 116.34401 
L 199.796534 116.34401 
L 200.550788 117.147111 
L 204.322059 117.147111 
L 205.076313 117.822077 
L 234.492227 117.822077 
L 235.246481 119.569278 
L 236.000735 120.142476 
L 241.280515 120.142476 
L 242.034769 120.769011 
L 259.382616 120.791725 
L 260.13687 120.908726 
L 276.730462 120.98374 
L 277.484717 122.577417 
L 282.010242 122.577417 
L 282.764496 122.783656 
L 289.552784 122.842007 
L 291.061292 122.949959 
L 302.375105 122.949959 
L 303.129359 123.241127 
L 306.146376 123.241127 
L 306.90063 123.355155 
L 325.756985 123.382774 
L 326.51124 123.733166 
L 334.808036 123.733166 
L 335.56229 125.270225 
L 355.172899 125.270225 
L 355.927154 125.531416 
L 366.486712 125.569133 
L 367.240967 125.965864 
L 367.995221 127.029846 
L 372.520746 127.029846 
L 373.275 127.933144 
L 378.55478 127.938315 
L 380.063288 128.04658 
L 425.31854 128.081802 
L 425.31854 128.081802 
" clip-path="url(#p4aefd5275b)" style="fill: none; stroke: #b8b8b8; stroke-opacity: 0.28; stroke-width: 0.75; stroke-linecap: square"/>
   </g>
   <g id="line2d_14">
    <path d="M 48.191439 16.646364 
L 48.945693 16.646364 
L 49.699947 17.339069 
L 50.454202 17.339069 
L 51.208456 27.494842 
L 51.96271 27.494842 
L 52.716964 27.733697 
L 53.471219 37.285653 
L 57.24249 37.285653 
L 57.996744 40.853895 
L 61.013761 40.88059 
L 62.522269 41.456924 
L 65.539286 41.456924 
L 66.29354 49.202937 
L 67.802048 49.202937 
L 68.556303 72.099881 
L 70.819065 72.099881 
L 71.573319 72.360761 
L 73.836082 72.360761 
L 74.590336 72.871779 
L 75.34459 72.871779 
L 76.098845 73.210989 
L 76.853099 73.210989 
L 77.607353 73.994338 
L 79.870116 73.994338 
L 80.62437 83.104897 
L 82.887132 83.104897 
L 83.641387 83.2331 
L 85.149895 83.2331 
L 85.904149 83.380398 
L 88.921166 83.380398 
L 89.67542 83.774315 
L 97.217962 83.774315 
L 97.972216 85.035814 
L 118.33708 85.035814 
L 119.091334 86.488354 
L 122.108351 86.488354 
L 122.862605 88.175068 
L 124.371113 88.175068 
L 125.125368 92.678045 
L 140.964706 92.766772 
L 141.71896 94.724121 
L 142.473214 95.25811 
L 147.752994 95.25811 
L 148.507248 96.195416 
L 152.278519 96.195416 
L 153.032773 96.488572 
L 154.541282 96.488572 
L 155.295536 102.158865 
L 156.04979 102.565406 
L 156.804044 103.258924 
L 159.821061 103.258924 
L 160.575315 103.649441 
L 162.838078 103.649441 
L 163.592332 103.816762 
L 164.346586 103.816762 
L 165.10084 108.695032 
L 165.855095 110.017873 
L 178.677416 110.017873 
L 179.43167 111.310524 
L 183.957195 111.333889 
L 184.71145 112.209202 
L 189.991229 112.209202 
L 190.745483 112.461485 
L 191.499737 112.461485 
L 192.253992 112.60744 
L 217.898635 112.618414 
L 218.652889 112.784615 
L 220.161397 112.784615 
L 220.915651 113.465306 
L 234.492227 113.532607 
L 235.246481 114.757545 
L 250.331565 114.866711 
L 251.085819 115.884831 
L 261.645378 115.935545 
L 262.399632 116.162062 
L 265.416649 116.162062 
L 266.170903 116.592199 
L 275.976208 116.592199 
L 276.730462 116.905432 
L 301.620851 116.905432 
L 302.375105 121.804003 
L 303.883614 121.905745 
L 304.637868 121.905745 
L 305.392122 122.387435 
L 349.138866 122.402324 
L 349.89312 123.476294 
L 378.55478 123.547367 
L 379.309034 124.082628 
L 380.063288 124.082628 
L 380.817542 124.31826 
L 392.131355 124.31826 
L 392.885609 124.796048 
L 396.65688 124.796693 
L 397.411135 125.131372 
L 413.250473 125.220767 
L 414.004727 125.545185 
L 416.26749 125.545185 
L 417.021744 128.747417 
L 425.31854 128.747417 
L 425.31854 128.747417 
" clip-path="url(#p4aefd5275b)" style="fill: none; stroke: #b8b8b8; stroke-opacity: 0.28; stroke-width: 0.75; stroke-linecap: square"/>
   </g>
   <g id="line2d_15">
    <path d="M 48.191439 16.646364 
L 49.699947 16.646364 
L 50.454202 30.317686 
L 51.208456 30.317686 
L 51.96271 40.535281 
L 54.225473 40.535281 
L 54.979727 47.871304 
L 55.733981 47.871304 
L 56.488235 48.619091 
L 59.505252 48.641424 
L 60.259506 54.06642 
L 61.768015 54.117824 
L 62.522269 54.245636 
L 64.785032 54.247651 
L 65.539286 54.789186 
L 66.29354 58.407674 
L 74.590336 58.407674 
L 75.34459 60.201376 
L 82.132878 60.201376 
L 82.887132 60.735933 
L 85.149895 60.735933 
L 85.904149 67.081223 
L 89.67542 67.081223 
L 90.429674 68.07946 
L 91.938183 68.07946 
L 92.692437 73.375356 
L 95.709454 73.375356 
L 96.463708 78.737748 
L 99.480725 78.737748 
L 100.234979 80.912379 
L 100.989233 80.912379 
L 101.743487 81.843359 
L 102.497742 81.843359 
L 103.251996 82.00478 
L 104.760504 82.00478 
L 105.514758 83.071961 
L 108.531775 83.071961 
L 109.286029 86.8742 
L 111.548792 86.8742 
L 112.303046 87.970561 
L 113.0573 88.296396 
L 114.565809 88.296396 
L 115.320063 89.274148 
L 116.074317 93.369268 
L 116.828571 94.930399 
L 118.33708 94.930399 
L 119.091334 95.365212 
L 119.845588 95.365212 
L 120.599842 95.850614 
L 122.108351 95.850614 
L 122.862605 97.931415 
L 124.371113 97.931415 
L 125.125368 99.458065 
L 125.879622 100.692183 
L 126.633876 100.692183 
L 128.142385 101.724849 
L 133.422164 101.724849 
L 134.176418 106.141999 
L 135.684927 106.141999 
L 136.439181 108.41092 
L 139.456198 108.41092 
L 140.210452 108.664467 
L 141.71896 108.664467 
L 142.473214 108.909898 
L 143.227469 108.909898 
L 143.981723 109.396471 
L 144.735977 110.945671 
L 153.787027 110.945671 
L 154.541282 112.563548 
L 155.295536 113.786379 
L 157.558298 113.786379 
L 158.312553 114.034342 
L 177.923162 114.102285 
L 178.677416 114.620547 
L 181.694433 114.620547 
L 182.448687 115.385591 
L 184.71145 115.385591 
L 185.465704 115.593252 
L 191.499737 115.593252 
L 192.253992 116.078487 
L 195.271008 116.078487 
L 196.025263 117.3604 
L 196.779517 117.3604 
L 197.533771 117.522609 
L 204.322059 117.606127 
L 205.830567 117.687244 
L 216.390126 117.687244 
L 217.14438 118.352356 
L 219.407143 118.352356 
L 220.161397 119.184991 
L 226.949685 119.184991 
L 227.703939 119.655967 
L 231.47521 119.655967 
L 232.229464 119.837976 
L 232.983719 123.541446 
L 241.280515 123.541446 
L 242.034769 124.288216 
L 242.789023 124.288216 
L 243.543277 124.606811 
L 247.314548 124.606811 
L 248.068803 124.825837 
L 250.331565 124.825837 
L 251.085819 125.085664 
L 252.594328 125.085664 
L 253.348582 125.740164 
L 257.874107 125.740164 
L 258.628361 126.08722 
L 263.908141 126.08722 
L 264.662395 126.418072 
L 277.484717 126.418072 
L 278.238971 127.13519 
L 278.993225 127.13519 
L 279.747479 128.835429 
L 282.010242 128.835429 
L 282.764496 131.656962 
L 284.273004 131.656962 
L 285.027259 132.278766 
L 299.358088 132.278766 
L 300.112343 135.94587 
L 312.934664 135.94587 
L 313.688918 136.089594 
L 315.951681 136.089594 
L 316.705935 137.983431 
L 338.579307 137.983431 
L 339.333561 138.144383 
L 386.097322 138.144383 
L 386.851576 138.374386 
L 391.377101 138.374386 
L 392.131355 138.669319 
L 397.411135 138.669319 
L 398.165389 139.021897 
L 411.741964 139.021897 
L 412.496219 139.177896 
L 418.530252 139.180789 
L 419.284507 140.26841 
L 425.31854 140.26841 
L 425.31854 140.26841 
" clip-path="url(#p4aefd5275b)" style="fill: none; stroke: #b8b8b8; stroke-opacity: 0.28; stroke-width: 0.75; stroke-linecap: square"/>
   </g>
   <g id="line2d_16">
    <path d="M 48.191439 16.646364 
L 49.699947 16.646364 
L 50.454202 51.67707 
L 51.96271 51.67707 
L 52.716964 58.877355 
L 53.471219 63.295345 
L 54.979727 63.295345 
L 55.733981 64.128961 
L 57.24249 64.128961 
L 57.996744 69.858297 
L 58.750998 71.492103 
L 59.505252 78.801893 
L 60.259506 83.754982 
L 61.013761 83.754982 
L 61.768015 92.473736 
L 63.276523 92.473736 
L 64.030777 94.280292 
L 65.539286 94.280292 
L 66.29354 98.02103 
L 67.047794 98.02103 
L 67.802048 101.222091 
L 69.310557 101.222091 
L 70.064811 102.292497 
L 73.081828 102.292497 
L 73.836082 102.550557 
L 74.590336 102.550557 
L 75.34459 109.412647 
L 78.361607 109.412647 
L 79.115861 110.914377 
L 79.870116 110.941708 
L 80.62437 112.439272 
L 88.166912 112.439272 
L 88.921166 113.308396 
L 91.938183 113.308396 
L 92.692437 113.819875 
L 93.446691 115.518901 
L 94.200945 116.118851 
L 100.989233 116.118851 
L 101.743487 116.562882 
L 102.497742 117.871946 
L 104.00625 117.871946 
L 104.760504 119.615569 
L 105.514758 119.863228 
L 106.269013 119.863228 
L 107.023267 125.418116 
L 107.777521 125.418116 
L 108.531775 126.057922 
L 113.0573 126.057922 
L 113.811555 126.253157 
L 114.565809 126.617589 
L 119.845588 126.684709 
L 120.599842 130.49497 
L 121.354097 132.925443 
L 125.125368 132.925443 
L 125.879622 133.556475 
L 129.650893 133.556475 
L 131.159401 135.570919 
L 131.913656 135.570919 
L 132.66791 135.974461 
L 134.176418 135.974461 
L 134.930672 136.327396 
L 143.981723 136.327396 
L 144.735977 136.453189 
L 153.032773 136.453189 
L 153.787027 137.085292 
L 154.541282 137.085292 
L 155.295536 137.380377 
L 161.329569 137.380377 
L 162.083824 137.521178 
L 169.626366 137.521178 
L 170.38062 138.273131 
L 177.923162 138.273131 
L 178.677416 141.209718 
L 179.43167 142.477123 
L 180.185924 142.701378 
L 190.745483 142.701378 
L 191.499737 143.426036 
L 196.025263 143.426036 
L 196.779517 144.461966 
L 204.322059 144.461966 
L 205.076313 144.824099 
L 226.195431 144.824099 
L 226.949685 145.057834 
L 227.703939 146.327694 
L 242.034769 146.327694 
L 242.789023 146.699432 
L 253.348582 146.699432 
L 254.102836 147.642556 
L 260.891124 147.642556 
L 261.645378 147.92738 
L 265.416649 147.92738 
L 266.170903 148.285076 
L 276.730462 148.285076 
L 277.484717 148.679392 
L 278.238971 150.389401 
L 289.552784 150.389401 
L 290.307038 151.062959 
L 293.324055 151.062959 
L 294.078309 151.32607 
L 300.112343 151.32607 
L 300.866597 151.580551 
L 312.934664 151.580551 
L 313.688918 152.805808 
L 355.172899 152.829171 
L 355.927154 153.294081 
L 356.681408 153.294081 
L 357.435662 153.811421 
L 374.783509 153.811421 
L 375.537763 156.571135 
L 393.639864 156.571135 
L 394.394118 156.706829 
L 397.411135 156.749954 
L 398.165389 156.911381 
L 402.690914 156.911381 
L 403.445168 157.590049 
L 420.793015 157.590049 
L 421.547269 158.908526 
L 425.31854 158.908526 
L 425.31854 158.908526 
" clip-path="url(#p4aefd5275b)" style="fill: none; stroke: #b8b8b8; stroke-opacity: 0.28; stroke-width: 0.75; stroke-linecap: square"/>
   </g>
   <g id="line2d_17">
    <path d="M 48.191439 16.646364 
L 48.945693 43.607858 
L 55.733981 43.607858 
L 56.488235 47.680262 
L 57.24249 47.889933 
L 58.750998 47.889933 
L 59.505252 48.393421 
L 60.259506 51.276146 
L 61.768015 51.309866 
L 62.522269 53.594264 
L 63.276523 58.346213 
L 64.030777 59.680298 
L 64.785032 59.941272 
L 65.539286 65.51598 
L 66.29354 71.983516 
L 67.047794 72.20889 
L 67.802048 72.20889 
L 68.556303 73.568776 
L 69.310557 73.568776 
L 70.064811 74.846565 
L 73.081828 74.846565 
L 73.836082 75.015243 
L 74.590336 91.636112 
L 75.34459 91.636112 
L 76.098845 92.36673 
L 79.870116 92.407748 
L 80.62437 92.558893 
L 84.395641 92.558893 
L 85.149895 95.599952 
L 85.904149 95.599952 
L 86.658403 99.98092 
L 87.412658 110.902854 
L 88.921166 110.902854 
L 89.67542 112.183679 
L 91.938183 112.183679 
L 92.692437 115.314662 
L 94.200945 115.314662 
L 94.9552 116.265316 
L 95.709454 116.265316 
L 96.463708 116.902368 
L 98.726471 116.902368 
L 99.480725 118.073889 
L 100.234979 118.073889 
L 100.989233 119.118187 
L 107.777521 119.118187 
L 108.531775 120.282204 
L 109.286029 120.282204 
L 110.040284 120.754411 
L 112.303046 120.754411 
L 113.0573 122.781309 
L 113.811555 122.781309 
L 114.565809 123.541269 
L 118.33708 123.541269 
L 119.091334 127.11071 
L 122.108351 127.11071 
L 122.862605 127.367436 
L 135.684927 127.367436 
L 136.439181 128.016801 
L 139.456198 128.016801 
L 140.210452 128.211963 
L 144.735977 128.211963 
L 145.490231 129.385987 
L 153.787027 129.385987 
L 154.541282 130.040317 
L 158.312553 130.040317 
L 159.066807 131.601791 
L 177.923162 131.601791 
L 178.677416 133.208426 
L 183.202941 133.208426 
L 183.957195 133.746692 
L 195.271008 133.746692 
L 196.025263 134.145652 
L 218.652889 134.166724 
L 219.407143 134.406603 
L 227.703939 134.406603 
L 228.458193 138.809662 
L 232.983719 138.809662 
L 233.737973 138.962331 
L 254.102836 138.962331 
L 254.85709 139.573172 
L 257.874107 139.609051 
L 261.645378 139.609051 
L 262.399632 139.864251 
L 278.238971 139.963952 
L 278.993225 140.128111 
L 302.375105 140.128111 
L 303.129359 140.305746 
L 308.409139 140.305746 
L 309.163393 140.48129 
L 339.333561 140.490498 
L 340.087815 140.934674 
L 352.910137 140.934674 
L 353.664391 141.456682 
L 361.961187 141.54683 
L 363.469696 141.611142 
L 422.301523 141.612222 
L 423.055778 142.785325 
L 425.31854 142.785325 
L 425.31854 142.785325 
" clip-path="url(#p4aefd5275b)" style="fill: none; stroke: #b8b8b8; stroke-opacity: 0.28; stroke-width: 0.75; stroke-linecap: square"/>
   </g>
   <g id="line2d_18">
    <path d="M 48.191439 16.646364 
L 51.96271 16.646364 
L 52.716964 17.600623 
L 53.471219 17.600623 
L 54.225473 17.821939 
L 54.979727 17.821939 
L 55.733981 53.828445 
L 57.24249 53.835594 
L 57.996744 61.602628 
L 60.259506 61.602628 
L 61.013761 64.384497 
L 62.522269 64.384497 
L 63.276523 82.933997 
L 64.030777 89.007362 
L 66.29354 89.007362 
L 67.047794 97.559268 
L 69.310557 97.559268 
L 70.064811 102.954591 
L 72.327574 102.954591 
L 73.081828 104.491546 
L 73.836082 105.234603 
L 74.590336 105.234603 
L 75.34459 114.113047 
L 77.607353 114.113047 
L 78.361607 119.507851 
L 79.115861 119.998211 
L 80.62437 119.998211 
L 81.378624 121.438114 
L 86.658403 121.438114 
L 87.412658 121.966399 
L 89.67542 121.966399 
L 90.429674 123.19028 
L 99.480725 123.295783 
L 100.989233 123.386475 
L 101.743487 123.386475 
L 102.497742 125.101882 
L 104.00625 125.101882 
L 104.760504 125.54323 
L 110.040284 125.648325 
L 110.794538 125.896548 
L 116.074317 125.922737 
L 116.828571 129.809347 
L 117.582826 130.703871 
L 126.633876 130.703871 
L 127.38813 131.696431 
L 128.142385 131.696431 
L 128.896639 132.150672 
L 136.439181 132.209693 
L 137.193435 134.097535 
L 138.701943 134.133649 
L 139.456198 134.95994 
L 143.981723 134.95994 
L 144.735977 138.457148 
L 145.490231 138.760473 
L 154.541282 138.760473 
L 155.295536 139.840698 
L 159.821061 139.950513 
L 160.575315 141.955394 
L 165.855095 141.955394 
L 166.609349 142.201555 
L 168.117857 142.201555 
L 168.872111 142.828003 
L 169.626366 142.828003 
L 170.38062 143.195566 
L 185.465704 143.284245 
L 186.219958 143.453248 
L 189.236975 143.477887 
L 189.991229 143.934654 
L 195.271008 143.934654 
L 196.025263 144.214715 
L 197.533771 144.214715 
L 198.288025 146.944716 
L 214.127364 146.94494 
L 214.881618 147.071062 
L 218.652889 147.071062 
L 219.407143 147.336739 
L 220.915651 147.428353 
L 232.983719 147.428353 
L 233.737973 147.698405 
L 237.509244 147.698405 
L 238.263498 149.026438 
L 245.80604 149.026438 
L 246.560294 150.060985 
L 258.628361 150.060985 
L 259.382616 150.31395 
L 278.238971 150.31395 
L 278.993225 153.492806 
L 296.341072 153.522348 
L 297.095326 154.012104 
L 309.917647 154.105121 
L 310.671901 155.525561 
L 335.56229 155.621308 
L 337.070798 155.697405 
L 341.596324 155.697405 
L 342.350578 155.877632 
L 408.724948 155.877632 
L 409.479202 156.577632 
L 425.31854 156.577632 
L 425.31854 156.577632 
" clip-path="url(#p4aefd5275b)" style="fill: none; stroke: #b8b8b8; stroke-opacity: 0.28; stroke-width: 0.75; stroke-linecap: square"/>
   </g>
   <g id="line2d_19">
    <path d="M 48.191439 16.646364 
L 51.96271 16.646364 
L 52.716964 31.505044 
L 53.471219 31.505044 
L 54.225473 31.952235 
L 57.24249 31.952235 
L 57.996744 36.274422 
L 58.750998 36.274422 
L 59.505252 38.604003 
L 63.276523 38.604003 
L 64.030777 39.605059 
L 64.785032 39.605059 
L 65.539286 39.748727 
L 68.556303 39.748727 
L 69.310557 46.006234 
L 70.064811 46.006234 
L 70.819065 47.18431 
L 73.081828 47.18431 
L 73.836082 54.019077 
L 75.34459 54.019077 
L 76.098845 54.535649 
L 76.853099 54.535649 
L 77.607353 57.986972 
L 82.887132 57.986972 
L 83.641387 58.292786 
L 85.904149 58.292786 
L 86.658403 60.290054 
L 91.183929 60.290054 
L 91.938183 60.915996 
L 93.446691 60.915996 
L 94.200945 62.525642 
L 97.972216 62.525642 
L 98.726471 62.888576 
L 99.480725 62.888576 
L 100.234979 63.390373 
L 100.989233 98.025883 
L 107.777521 98.025883 
L 108.531775 99.268546 
L 109.286029 99.268546 
L 110.040284 99.52346 
L 112.303046 99.52346 
L 113.0573 100.458239 
L 117.582826 100.460137 
L 118.33708 100.788524 
L 120.599842 100.788524 
L 121.354097 100.906936 
L 131.159401 100.906936 
L 131.913656 101.15776 
L 134.930672 101.15776 
L 135.684927 104.077933 
L 136.439181 104.077933 
L 137.193435 123.776805 
L 145.490231 123.776805 
L 146.244485 126.537679 
L 148.507248 126.537679 
L 149.261502 126.826567 
L 153.787027 126.826567 
L 154.541282 144.073599 
L 155.295536 144.073599 
L 156.04979 152.155136 
L 156.804044 152.155136 
L 157.558298 166.540717 
L 158.312553 166.540717 
L 159.066807 168.649334 
L 159.821061 169.527065 
L 164.346586 169.527065 
L 165.10084 169.700059 
L 176.414653 169.70233 
L 177.168908 170.281955 
L 180.940179 170.311615 
L 181.694433 170.728886 
L 183.202941 170.728886 
L 183.957195 170.976193 
L 185.465704 171.077172 
L 186.219958 171.077172 
L 186.974212 171.666745 
L 191.499737 171.666745 
L 192.253992 173.055291 
L 193.008246 173.511837 
L 196.025263 173.511837 
L 196.779517 173.748122 
L 202.059296 173.748122 
L 202.813551 174.606927 
L 205.830567 174.606927 
L 206.584822 174.894697 
L 207.339076 174.906 
L 208.09333 176.394679 
L 210.356093 176.419907 
L 211.110347 176.744888 
L 211.864601 176.744888 
L 212.618855 177.051014 
L 214.127364 177.139164 
L 215.635872 177.139164 
L 216.390126 177.326282 
L 220.915651 177.326282 
L 221.669906 179.431692 
L 235.246481 179.431692 
L 236.000735 179.660432 
L 270.696429 179.701265 
L 271.450683 180.327844 
L 272.959191 180.390087 
L 303.883614 180.44968 
L 304.637868 180.685709 
L 307.654885 180.777042 
L 308.409139 181.223428 
L 331.791019 181.223428 
L 332.545273 181.445062 
L 361.961187 181.445062 
L 362.715441 181.616548 
L 374.029254 181.616548 
L 374.783509 181.759041 
L 389.868593 181.759041 
L 390.622847 181.953813 
L 425.31854 182.008513 
L 425.31854 182.008513 
" clip-path="url(#p4aefd5275b)" style="fill: none; stroke: #b8b8b8; stroke-opacity: 0.28; stroke-width: 0.75; stroke-linecap: square"/>
   </g>
   <g id="line2d_20">
    <path d="M 48.191439 16.646364 
L 48.945693 31.279492 
L 52.716964 31.279492 
L 53.471219 36.78325 
L 54.225473 36.78325 
L 54.979727 40.583368 
L 55.733981 52.811048 
L 56.488235 62.555238 
L 57.24249 62.555238 
L 57.996744 64.517949 
L 59.505252 64.517949 
L 60.259506 66.588079 
L 61.013761 88.088025 
L 61.768015 90.418116 
L 62.522269 91.147959 
L 71.573319 91.147959 
L 73.081828 94.099795 
L 76.853099 94.099795 
L 77.607353 98.674655 
L 78.361607 106.88989 
L 79.115861 106.88989 
L 79.870116 107.414949 
L 82.132878 107.414949 
L 82.887132 109.489437 
L 84.395641 109.489437 
L 85.149895 116.211225 
L 85.904149 117.120959 
L 86.658403 117.120959 
L 87.412658 122.150991 
L 93.446691 122.150991 
L 94.200945 122.356837 
L 94.9552 122.356837 
L 95.709454 124.41067 
L 96.463708 125.724333 
L 102.497742 125.724333 
L 103.251996 126.015201 
L 104.00625 126.015201 
L 104.760504 126.778396 
L 111.548792 126.778396 
L 112.303046 127.280313 
L 114.565809 127.280313 
L 115.320063 127.429183 
L 117.582826 127.429183 
L 118.33708 128.116469 
L 119.845588 128.116469 
L 120.599842 129.157486 
L 122.862605 129.157486 
L 123.616859 130.055011 
L 132.66791 130.055011 
L 133.422164 130.691603 
L 137.193435 130.691603 
L 137.947689 132.552352 
L 141.71896 132.552352 
L 142.473214 133.151446 
L 143.227469 133.151446 
L 143.981723 133.505654 
L 144.735977 133.731001 
L 152.278519 133.731001 
L 153.032773 134.458955 
L 156.04979 134.458955 
L 156.804044 135.769999 
L 164.346586 135.769999 
L 165.10084 135.899967 
L 180.940179 135.997335 
L 181.694433 137.028168 
L 183.202941 137.028168 
L 183.957195 137.609523 
L 185.465704 137.609523 
L 186.219958 138.20356 
L 186.974212 138.20356 
L 187.728466 138.72318 
L 196.025263 138.72318 
L 196.779517 139.345836 
L 211.110347 139.345836 
L 211.864601 139.723293 
L 225.441177 139.723293 
L 226.195431 140.560657 
L 237.509244 140.560657 
L 238.263498 141.32897 
L 290.307038 141.4097 
L 291.061292 141.53032 
L 316.705935 141.53032 
L 317.460189 141.68893 
L 321.23146 141.714787 
L 374.029254 141.77558 
L 374.783509 141.930211 
L 425.31854 141.930211 
L 425.31854 141.930211 
" clip-path="url(#p4aefd5275b)" style="fill: none; stroke: #b8b8b8; stroke-opacity: 0.28; stroke-width: 0.75; stroke-linecap: square"/>
   </g>
   <g id="line2d_21">
    <path d="M 48.191439 16.646364 
L 48.945693 19.201221 
L 49.699947 19.201221 
L 51.208456 41.063249 
L 54.225473 41.063249 
L 54.979727 46.77037 
L 55.733981 54.319243 
L 56.488235 54.319243 
L 57.24249 55.150006 
L 59.505252 55.150006 
L 60.259506 55.725406 
L 61.013761 78.338251 
L 61.768015 78.338251 
L 62.522269 82.015787 
L 63.276523 83.29625 
L 64.030777 83.29625 
L 64.785032 84.746128 
L 65.539286 84.746128 
L 66.29354 85.07801 
L 67.047794 88.318377 
L 74.590336 88.318377 
L 75.34459 88.48717 
L 76.098845 88.998788 
L 76.853099 89.168536 
L 80.62437 89.168536 
L 81.378624 89.93232 
L 87.412658 89.93232 
L 88.166912 90.914298 
L 92.692437 90.914298 
L 93.446691 91.541909 
L 96.463708 91.541909 
L 97.217962 97.662882 
L 98.726471 97.662882 
L 99.480725 103.114739 
L 101.743487 103.114739 
L 102.497742 103.624212 
L 103.251996 104.800296 
L 104.00625 104.800296 
L 104.760504 105.833849 
L 105.514758 107.24894 
L 106.269013 107.24894 
L 107.023267 107.525443 
L 116.828571 107.525443 
L 117.582826 110.302151 
L 131.913656 110.302151 
L 132.66791 112.3381 
L 133.422164 112.485798 
L 134.176418 114.731453 
L 134.930672 114.731453 
L 135.684927 115.434473 
L 141.71896 115.434473 
L 143.227469 118.04346 
L 147.752994 118.04346 
L 148.507248 118.655821 
L 153.032773 118.655821 
L 153.787027 119.866119 
L 168.117857 119.919725 
L 168.872111 120.2534 
L 185.465704 120.2534 
L 186.219958 120.472336 
L 193.7625 120.472336 
L 194.516754 121.273138 
L 195.271008 123.226892 
L 196.025263 123.55109 
L 208.847584 123.573323 
L 209.601838 125.06863 
L 217.14438 125.06863 
L 217.898635 125.229226 
L 229.212448 125.229226 
L 229.966702 126.292044 
L 238.263498 126.292044 
L 239.017752 126.674425 
L 239.772006 127.248883 
L 245.051786 127.248883 
L 245.80604 128.839941 
L 249.577311 128.839941 
L 250.331565 129.184836 
L 255.611345 129.184836 
L 256.365599 129.607658 
L 257.874107 129.607658 
L 258.628361 129.851179 
L 262.399632 129.851179 
L 263.153887 130.093668 
L 266.170903 130.093668 
L 266.925158 130.344252 
L 272.959191 130.344252 
L 273.713446 130.705642 
L 294.832563 130.705642 
L 295.586817 130.931421 
L 296.341072 130.931421 
L 297.095326 131.141512 
L 303.129359 131.141512 
L 303.883614 131.657891 
L 304.637868 131.84079 
L 305.392122 132.262268 
L 309.917647 132.262268 
L 310.671901 132.813215 
L 311.426156 133.137192 
L 312.18041 134.093912 
L 323.494223 134.093912 
L 324.248477 134.786281 
L 325.002731 135.038702 
L 331.791019 135.126935 
L 332.545273 135.916543 
L 337.825053 135.921039 
L 338.579307 136.175085 
L 340.842069 136.175085 
L 341.596324 136.342502 
L 374.029254 136.342502 
L 374.783509 136.505224 
L 380.063288 136.505224 
L 380.817542 137.645323 
L 383.834559 137.645323 
L 384.588813 137.959199 
L 392.885609 138.052239 
L 393.639864 138.179776 
L 425.31854 138.258863 
L 425.31854 138.258863 
" clip-path="url(#p4aefd5275b)" style="fill: none; stroke: #b8b8b8; stroke-opacity: 0.28; stroke-width: 0.75; stroke-linecap: square"/>
   </g>
   <g id="line2d_22">
    <path d="M 48.191439 16.646364 
L 48.945693 16.769815 
L 50.454202 16.769815 
L 51.208456 19.074303 
L 51.96271 19.074303 
L 52.716964 39.187382 
L 58.750998 39.26303 
L 59.505252 39.765537 
L 60.259506 39.765537 
L 61.768015 123.556511 
L 62.522269 127.417366 
L 64.030777 127.417366 
L 64.785032 131.029059 
L 67.802048 131.029059 
L 68.556303 131.391936 
L 69.310557 131.391936 
L 70.064811 132.791845 
L 71.573319 132.791845 
L 72.327574 141.824406 
L 73.081828 142.988418 
L 77.607353 142.988418 
L 78.361607 144.756257 
L 79.115861 145.576456 
L 80.62437 145.65098 
L 81.378624 146.766381 
L 82.132878 146.766381 
L 82.887132 148.193212 
L 84.395641 148.193212 
L 85.149895 148.587884 
L 85.904149 148.587884 
L 86.658403 148.719258 
L 91.938183 148.719258 
L 92.692437 149.107221 
L 100.234979 149.209304 
L 100.989233 150.443651 
L 101.743487 151.358651 
L 103.251996 151.358651 
L 104.00625 152.320927 
L 107.777521 152.404035 
L 108.531775 153.881555 
L 110.794538 153.881555 
L 111.548792 154.402597 
L 114.565809 154.402597 
L 115.320063 154.69234 
L 116.074317 154.69234 
L 116.828571 155.108679 
L 117.582826 155.108679 
L 118.33708 157.129065 
L 127.38813 157.129065 
L 128.142385 157.742267 
L 129.650893 157.771755 
L 130.405147 159.261341 
L 131.159401 162.63362 
L 131.913656 164.448109 
L 137.947689 164.482564 
L 138.701943 165.048673 
L 139.456198 165.89347 
L 140.964706 165.89347 
L 141.71896 168.345901 
L 149.261502 168.395661 
L 150.015756 168.950845 
L 153.032773 168.950845 
L 153.787027 169.450466 
L 155.295536 169.450466 
L 156.04979 170.494503 
L 158.312553 170.494503 
L 159.066807 170.839174 
L 161.329569 171.072205 
L 163.592332 171.072205 
L 165.855095 171.873413 
L 170.38062 171.873413 
L 171.134874 172.134372 
L 171.889128 176.746275 
L 172.643382 177.364555 
L 173.397637 177.594014 
L 174.151891 177.594014 
L 174.906145 177.909203 
L 175.660399 178.43248 
L 177.923162 178.43248 
L 178.677416 178.69769 
L 183.202941 178.69769 
L 183.957195 182.336354 
L 187.728466 182.336354 
L 188.482721 187.523931 
L 192.253992 187.551339 
L 193.008246 187.822645 
L 195.271008 187.822645 
L 196.025263 188.362362 
L 199.04228 188.362362 
L 199.796534 189.382085 
L 205.076313 189.382085 
L 205.830567 189.949872 
L 208.847584 189.949872 
L 209.601838 190.084138 
L 224.686922 190.104438 
L 225.441177 190.714347 
L 226.195431 190.883361 
L 232.229464 190.883361 
L 232.983719 191.354696 
L 233.737973 191.354696 
L 234.492227 192.301754 
L 235.246481 192.867533 
L 236.75499 192.867533 
L 237.509244 193.914756 
L 245.051786 193.941568 
L 245.80604 194.16226 
L 268.433666 194.203891 
L 269.942174 194.483378 
L 297.095326 194.536394 
L 298.603834 194.630192 
L 305.392122 194.630192 
L 306.146376 194.813864 
L 321.985714 194.813864 
L 322.739969 195.056452 
L 338.579307 195.110389 
L 339.333561 195.50264 
L 344.61334 195.50264 
L 345.367595 195.906246 
L 399.673897 195.906246 
L 400.428151 196.026903 
L 405.707931 196.026903 
L 406.462185 196.156551 
L 418.530252 196.156551 
L 419.284507 196.319708 
L 425.31854 196.319708 
L 425.31854 196.319708 
" clip-path="url(#p4aefd5275b)" style="fill: none; stroke: #b8b8b8; stroke-opacity: 0.28; stroke-width: 0.75; stroke-linecap: square"/>
   </g>
   <g id="line2d_23">
    <path d="M 48.191439 16.646364 
L 48.945693 16.646364 
L 49.699947 21.747558 
L 51.208456 21.747558 
L 51.96271 23.744897 
L 52.716964 23.744897 
L 53.471219 30.17521 
L 54.225473 30.17521 
L 55.733981 42.684365 
L 56.488235 42.684365 
L 57.24249 44.616444 
L 57.996744 50.795523 
L 58.750998 51.210764 
L 59.505252 51.210764 
L 60.259506 52.849647 
L 61.013761 58.684529 
L 61.768015 61.652994 
L 62.522269 65.244683 
L 63.276523 65.484667 
L 64.030777 65.484667 
L 64.785032 72.07019 
L 65.539286 72.23391 
L 66.29354 76.316967 
L 67.047794 78.095311 
L 70.064811 78.095311 
L 70.819065 78.832445 
L 71.573319 78.832445 
L 72.327574 84.947918 
L 78.361607 84.947918 
L 79.115861 88.061929 
L 80.62437 88.061929 
L 81.378624 88.412759 
L 82.132878 90.923457 
L 88.921166 90.923457 
L 89.67542 92.08396 
L 90.429674 92.475276 
L 91.183929 92.475276 
L 91.938183 93.55801 
L 95.709454 93.55801 
L 96.463708 93.789869 
L 97.217962 98.329921 
L 98.726471 98.329921 
L 99.480725 99.603724 
L 100.234979 104.846463 
L 101.743487 104.846463 
L 102.497742 105.32469 
L 103.251996 105.32469 
L 104.00625 105.7004 
L 118.33708 105.7004 
L 119.091334 108.581604 
L 121.354097 108.581604 
L 122.108351 109.238338 
L 138.701943 109.284304 
L 139.456198 110.607144 
L 140.210452 110.963537 
L 140.964706 116.389 
L 141.71896 116.389 
L 142.473214 116.549857 
L 144.735977 116.549857 
L 145.490231 117.470156 
L 146.99874 117.551562 
L 149.261502 117.551562 
L 150.015756 119.925247 
L 150.770011 121.082898 
L 152.278519 121.082898 
L 153.032773 121.507137 
L 159.066807 121.507137 
L 159.821061 121.717843 
L 163.592332 121.717843 
L 164.346586 122.412175 
L 173.397637 122.412175 
L 174.151891 124.068774 
L 174.906145 124.197323 
L 184.71145 124.197323 
L 185.465704 124.445475 
L 192.253992 124.445475 
L 193.008246 124.687179 
L 193.7625 125.235058 
L 198.288025 125.235058 
L 199.04228 125.493669 
L 202.813551 125.493669 
L 203.567805 126.73017 
L 205.830567 126.73017 
L 206.584822 127.509784 
L 210.356093 127.509784 
L 211.110347 128.139429 
L 212.618855 128.139429 
L 213.373109 128.695315 
L 220.161397 128.695315 
L 220.915651 128.814939 
L 224.686922 128.814939 
L 225.441177 129.430298 
L 228.458193 129.430298 
L 229.212448 129.96669 
L 230.720956 129.96669 
L 231.47521 130.32532 
L 232.983719 130.32532 
L 233.737973 130.913008 
L 241.280515 130.970617 
L 242.789023 131.073342 
L 254.85709 131.11643 
L 255.611345 131.295297 
L 258.628361 131.295297 
L 259.382616 132.791879 
L 261.645378 132.791879 
L 262.399632 133.138555 
L 263.908141 133.138555 
L 264.662395 133.678037 
L 295.586817 133.69495 
L 296.341072 133.994668 
L 301.620851 133.994668 
L 302.375105 134.154872 
L 303.129359 135.647962 
L 311.426156 135.647962 
L 312.18041 135.793813 
L 342.350578 135.860124 
L 343.859086 135.936734 
L 362.715441 135.936734 
L 363.469696 137.033141 
L 366.486712 137.033141 
L 367.240967 137.389555 
L 372.520746 137.389555 
L 373.275 137.959342 
L 395.902626 137.959342 
L 396.65688 138.378204 
L 404.199422 138.378204 
L 404.953677 139.112061 
L 411.741964 139.112061 
L 412.496219 139.301999 
L 425.31854 139.301999 
L 425.31854 139.301999 
" clip-path="url(#p4aefd5275b)" style="fill: none; stroke: #b8b8b8; stroke-opacity: 0.28; stroke-width: 0.75; stroke-linecap: square"/>
   </g>
   <g id="line2d_24">
    <path d="M 48.191439 16.646364 
L 48.945693 16.646364 
L 49.699947 20.270336 
L 50.454202 20.270336 
L 51.208456 20.850178 
L 51.96271 20.850178 
L 52.716964 21.296665 
L 53.471219 21.373922 
L 54.225473 28.418351 
L 55.733981 28.418351 
L 56.488235 30.624947 
L 57.996744 30.624947 
L 58.750998 35.991276 
L 59.505252 37.494754 
L 62.522269 37.494754 
L 63.276523 49.108094 
L 64.030777 49.108094 
L 64.785032 51.24751 
L 65.539286 51.55877 
L 67.802048 51.55877 
L 68.556303 53.20414 
L 69.310557 53.20414 
L 70.064811 54.953013 
L 70.819065 54.953013 
L 71.573319 55.843814 
L 72.327574 55.843814 
L 73.081828 60.050479 
L 75.34459 60.050479 
L 76.098845 60.651363 
L 76.853099 62.628868 
L 77.607353 62.628868 
L 78.361607 65.851034 
L 83.641387 65.851034 
L 84.395641 68.837895 
L 85.149895 68.837895 
L 85.904149 71.741437 
L 87.412658 71.799528 
L 88.166912 72.407559 
L 88.921166 72.407559 
L 89.67542 72.911861 
L 98.726471 72.99396 
L 99.480725 75.109467 
L 100.234979 86.934598 
L 104.00625 86.934598 
L 104.760504 98.925914 
L 109.286029 98.925914 
L 110.040284 101.778821 
L 116.074317 101.778821 
L 116.828571 101.953597 
L 119.845588 101.953597 
L 120.599842 105.521416 
L 122.108351 106.421707 
L 122.862605 109.618489 
L 128.896639 109.65474 
L 129.650893 110.4432 
L 130.405147 110.4432 
L 131.159401 111.098768 
L 143.981723 111.098768 
L 144.735977 111.826836 
L 149.261502 111.826836 
L 150.015756 112.255047 
L 156.04979 112.296267 
L 156.804044 113.529719 
L 174.906145 113.529719 
L 175.660399 113.887128 
L 179.43167 113.887128 
L 180.185924 114.004388 
L 182.448687 114.004388 
L 183.202941 114.945532 
L 185.465704 114.945532 
L 186.219958 115.647222 
L 186.974212 115.647222 
L 187.728466 115.897862 
L 196.025263 115.897862 
L 196.779517 116.861582 
L 197.533771 117.059997 
L 198.288025 117.966802 
L 214.881618 117.966802 
L 215.635872 121.715921 
L 234.492227 121.715921 
L 235.246481 122.721006 
L 248.823057 122.721006 
L 249.577311 122.864502 
L 254.102836 122.864502 
L 254.85709 124.633969 
L 271.450683 124.65325 
L 272.204937 124.963161 
L 275.976208 125.014813 
L 276.730462 125.669068 
L 298.603834 125.701737 
L 299.358088 126.187875 
L 315.197427 126.187875 
L 315.951681 126.531788 
L 317.460189 126.637968 
L 348.384612 126.637968 
L 349.138866 127.27605 
L 405.707931 127.336597 
L 406.462185 128.975956 
L 410.98771 129.080737 
L 412.496219 129.150469 
L 425.31854 129.150469 
L 425.31854 129.150469 
" clip-path="url(#p4aefd5275b)" style="fill: none; stroke: #b8b8b8; stroke-opacity: 0.28; stroke-width: 0.75; stroke-linecap: square"/>
   </g>
   <g id="line2d_25">
    <path d="M 48.191439 16.646364 
L 51.96271 16.646364 
L 53.471219 35.907653 
L 55.733981 35.907653 
L 56.488235 38.168375 
L 57.24249 41.78422 
L 60.259506 41.78422 
L 61.013761 44.939502 
L 61.768015 44.939502 
L 62.522269 47.825547 
L 64.030777 47.825547 
L 64.785032 56.031245 
L 65.539286 56.031245 
L 66.29354 73.396044 
L 67.047794 80.342738 
L 73.081828 80.342738 
L 73.836082 80.826621 
L 74.590336 80.826621 
L 75.34459 84.683395 
L 76.098845 86.013287 
L 79.115861 86.013287 
L 80.62437 86.470565 
L 81.378624 86.470565 
L 82.132878 99.169141 
L 85.149895 99.169141 
L 85.904149 100.843739 
L 87.412658 100.843739 
L 88.166912 102.140175 
L 88.921166 102.140175 
L 89.67542 103.825863 
L 94.9552 103.825936 
L 95.709454 104.13496 
L 96.463708 105.419314 
L 99.480725 105.484748 
L 100.989233 105.577572 
L 104.00625 105.577572 
L 104.760504 108.853134 
L 110.040284 108.853134 
L 110.794538 111.175351 
L 116.828571 111.175351 
L 117.582826 118.667393 
L 119.091334 118.667393 
L 119.845588 119.123995 
L 124.371113 119.123995 
L 125.125368 120.222116 
L 125.879622 121.830751 
L 129.650893 121.830751 
L 130.405147 122.343623 
L 139.456198 122.343623 
L 140.210452 123.692876 
L 140.964706 123.692876 
L 141.71896 123.870925 
L 142.473214 124.791359 
L 143.227469 124.950667 
L 147.752994 125.005146 
L 148.507248 125.603287 
L 153.032773 125.695174 
L 153.787027 126.145241 
L 174.151891 126.145241 
L 174.906145 128.237049 
L 178.677416 128.237049 
L 179.43167 128.558865 
L 180.185924 129.39626 
L 181.694433 129.39626 
L 182.448687 129.730551 
L 187.728466 129.730551 
L 188.482721 130.205701 
L 202.059296 130.205701 
L 202.813551 133.845668 
L 211.864601 133.845668 
L 212.618855 134.103566 
L 219.407143 134.103566 
L 220.161397 134.493277 
L 223.178414 134.493277 
L 223.932668 134.832478 
L 231.47521 134.832478 
L 232.229464 135.334614 
L 240.526261 135.334614 
L 241.280515 135.921663 
L 245.80604 135.921663 
L 246.560294 136.109609 
L 248.068803 136.109609 
L 248.823057 136.598461 
L 254.85709 136.598461 
L 255.611345 136.733098 
L 278.993225 136.800266 
L 280.501733 136.875306 
L 288.79853 136.875306 
L 289.552784 138.054433 
L 334.053782 138.159589 
L 334.808036 138.457853 
L 344.61334 138.457853 
L 345.367595 138.708631 
L 347.630357 138.708631 
L 348.384612 138.904601 
L 383.080305 138.904601 
L 383.834559 139.230517 
L 389.114338 139.274508 
L 389.868593 139.549171 
L 411.741964 139.619513 
L 412.496219 140.24497 
L 425.31854 140.24497 
L 425.31854 140.24497 
" clip-path="url(#p4aefd5275b)" style="fill: none; stroke: #b8b8b8; stroke-opacity: 0.28; stroke-width: 0.75; stroke-linecap: square"/>
   </g>
   <g id="line2d_26">
    <path d="M 48.191439 16.646364 
L 48.945693 25.015204 
L 50.454202 25.085482 
L 51.208456 25.085482 
L 51.96271 29.843791 
L 52.716964 29.843791 
L 53.471219 39.613591 
L 54.225473 64.470552 
L 55.733981 64.470552 
L 56.488235 89.950769 
L 57.24249 90.950951 
L 59.505252 90.950951 
L 60.259506 94.491055 
L 64.785032 94.491055 
L 65.539286 95.518522 
L 66.29354 97.001186 
L 67.047794 97.377988 
L 67.802048 97.377988 
L 68.556303 98.179945 
L 70.064811 98.179945 
L 70.819065 100.205385 
L 71.573319 100.528468 
L 72.327574 101.644757 
L 73.081828 101.644757 
L 73.836082 102.268086 
L 76.098845 102.268086 
L 76.853099 103.014316 
L 77.607353 103.014316 
L 78.361607 104.563163 
L 79.115861 108.291503 
L 79.870116 109.735886 
L 80.62437 109.735886 
L 81.378624 112.046376 
L 82.887132 112.046376 
L 83.641387 113.408317 
L 85.149895 113.408317 
L 85.904149 113.720973 
L 86.658403 113.720973 
L 87.412658 114.358798 
L 89.67542 114.358798 
L 90.429674 115.718114 
L 92.692437 115.718114 
L 93.446691 115.883618 
L 95.709454 115.883618 
L 96.463708 116.044998 
L 97.217962 118.210217 
L 100.989233 118.210217 
L 101.743487 118.555537 
L 105.514758 118.555537 
L 106.269013 119.958969 
L 110.040284 119.958969 
L 110.794538 120.222766 
L 111.548792 121.44577 
L 113.0573 121.44577 
L 113.811555 121.607809 
L 140.210452 121.714517 
L 140.964706 123.636786 
L 143.981723 123.636786 
L 144.735977 123.8781 
L 146.244485 123.8781 
L 146.99874 125.421208 
L 150.770011 125.421208 
L 151.524265 128.483816 
L 165.855095 128.489674 
L 166.609349 129.649436 
L 168.872111 129.649436 
L 169.626366 130.032357 
L 172.643382 130.032357 
L 173.397637 131.025446 
L 174.151891 131.025446 
L 174.906145 131.690446 
L 175.660399 133.419541 
L 176.414653 133.631002 
L 179.43167 133.631002 
L 180.185924 134.480532 
L 185.465704 134.480532 
L 186.219958 134.9499 
L 192.253992 134.9499 
L 193.008246 135.134927 
L 193.7625 136.447605 
L 195.271008 136.447605 
L 196.025263 136.984617 
L 196.779517 138.238701 
L 204.322059 138.3487 
L 205.830567 138.416144 
L 212.618855 138.416144 
L 213.373109 140.5232 
L 214.127364 140.5232 
L 214.881618 142.198924 
L 229.966702 142.198924 
L 230.720956 142.458541 
L 234.492227 142.458541 
L 235.246481 142.656392 
L 252.594328 142.696969 
L 253.348582 144.094511 
L 254.85709 144.094511 
L 255.611345 144.283816 
L 272.204937 144.283816 
L 272.959191 144.89519 
L 276.730462 144.89519 
L 277.484717 145.112476 
L 300.866597 145.112476 
L 301.620851 146.260981 
L 309.163393 146.352994 
L 309.917647 146.486761 
L 312.18041 146.486761 
L 312.934664 146.623682 
L 314.443172 146.623682 
L 315.197427 146.768419 
L 319.722952 146.768419 
L 320.477206 147.941387 
L 321.985714 147.941387 
L 322.739969 149.517704 
L 325.756985 149.517704 
L 326.51124 149.847243 
L 363.469696 149.924645 
L 364.22395 150.660175 
L 381.571796 150.660175 
L 382.326051 150.872552 
L 389.114338 150.872552 
L 389.868593 151.325962 
L 425.31854 151.325962 
L 425.31854 151.325962 
" clip-path="url(#p4aefd5275b)" style="fill: none; stroke: #b8b8b8; stroke-opacity: 0.28; stroke-width: 0.75; stroke-linecap: square"/>
   </g>
   <g id="line2d_27">
    <path d="M 48.191439 16.646364 
L 50.454202 16.646364 
L 51.208456 26.502891 
L 54.225473 26.502891 
L 54.979727 27.109167 
L 55.733981 90.109837 
L 56.488235 91.696534 
L 57.24249 95.185526 
L 58.750998 95.185526 
L 59.505252 101.198173 
L 60.259506 104.369269 
L 64.030777 104.369269 
L 64.785032 130.642 
L 68.556303 130.642 
L 69.310557 131.089314 
L 71.573319 131.089314 
L 72.327574 136.108498 
L 73.081828 136.564158 
L 74.590336 136.564158 
L 75.34459 136.840501 
L 76.853099 136.840501 
L 77.607353 137.076669 
L 81.378624 137.150762 
L 82.132878 138.410553 
L 82.887132 139.395452 
L 83.641387 139.395452 
L 84.395641 144.484494 
L 88.166912 144.484494 
L 88.921166 146.311686 
L 91.938183 146.311686 
L 92.692437 147.8497 
L 93.446691 147.8497 
L 94.200945 148.541362 
L 100.234979 148.541362 
L 100.989233 148.692173 
L 103.251996 148.692173 
L 104.00625 148.921646 
L 108.531775 148.921646 
L 109.286029 150.363592 
L 112.303046 150.363592 
L 113.0573 151.454769 
L 113.811555 151.692731 
L 116.828571 151.692731 
L 117.582826 151.960781 
L 119.091334 151.960781 
L 119.845588 153.179457 
L 120.599842 156.582377 
L 136.439181 156.582377 
L 137.193435 157.371443 
L 138.701943 157.371443 
L 139.456198 158.612822 
L 140.964706 158.612822 
L 141.71896 160.047553 
L 142.473214 160.047553 
L 143.227469 162.256711 
L 143.981723 162.563957 
L 147.752994 162.563957 
L 148.507248 162.906517 
L 149.261502 162.906517 
L 150.015756 163.069269 
L 150.770011 163.790077 
L 153.787027 163.875636 
L 154.541282 164.672097 
L 167.363603 164.672097 
L 168.117857 164.816156 
L 170.38062 164.828734 
L 171.134874 166.692874 
L 173.397637 166.731515 
L 174.906145 166.731515 
L 175.660399 167.918062 
L 178.677416 167.918062 
L 179.43167 168.120056 
L 182.448687 168.120056 
L 183.202941 168.306677 
L 193.7625 168.350757 
L 194.516754 168.743581 
L 208.847584 168.743581 
L 209.601838 169.475673 
L 210.356093 169.61491 
L 211.110347 170.518195 
L 219.407143 170.521144 
L 220.161397 170.944062 
L 232.229464 170.944062 
L 232.983719 171.387419 
L 234.492227 171.387419 
L 235.246481 171.568834 
L 241.280515 171.6469 
L 242.789023 171.722309 
L 249.577311 171.735481 
L 250.331565 172.587487 
L 259.382616 172.657571 
L 260.13687 173.618849 
L 267.679412 173.694418 
L 268.433666 174.009927 
L 273.713446 174.009927 
L 274.4677 174.584386 
L 275.221954 174.584386 
L 275.976208 175.030296 
L 282.010242 175.030296 
L 282.764496 175.265782 
L 291.061292 175.265782 
L 291.815546 175.646686 
L 297.095326 175.646686 
L 297.84958 175.822078 
L 313.688918 175.822078 
L 314.443172 175.983747 
L 337.070798 175.983747 
L 337.825053 176.1151 
L 351.401628 176.145851 
L 352.155883 183.271671 
L 353.664391 183.37383 
L 354.418645 183.37383 
L 355.172899 183.562967 
L 365.732458 183.562967 
L 367.240967 184.099137 
L 374.029254 184.099137 
L 374.783509 184.532705 
L 386.851576 184.532705 
L 387.60583 184.690715 
L 412.496219 184.690715 
L 413.250473 184.838826 
L 425.31854 184.926733 
L 425.31854 184.926733 
" clip-path="url(#p4aefd5275b)" style="fill: none; stroke: #b8b8b8; stroke-opacity: 0.28; stroke-width: 0.75; stroke-linecap: square"/>
   </g>
   <g id="line2d_28">
    <path d="M 48.191439 16.646364 
L 51.208456 16.646364 
L 51.96271 27.864439 
L 52.716964 27.864439 
L 53.471219 48.077313 
L 54.225473 48.077313 
L 54.979727 51.705045 
L 55.733981 51.705045 
L 56.488235 51.961012 
L 57.24249 57.483758 
L 57.996744 65.793522 
L 59.505252 65.793522 
L 60.259506 76.812354 
L 61.013761 107.789658 
L 62.522269 107.789658 
L 63.276523 109.124041 
L 67.047794 109.124041 
L 67.802048 117.26889 
L 70.819065 117.323671 
L 71.573319 121.610157 
L 80.62437 121.610157 
L 81.378624 122.692402 
L 82.132878 123.545603 
L 84.395641 123.545603 
L 85.149895 124.776827 
L 85.904149 126.376865 
L 86.658403 126.376865 
L 87.412658 127.72676 
L 91.183929 127.72676 
L 91.938183 130.228553 
L 94.200945 130.228553 
L 94.9552 143.002036 
L 95.709454 144.264766 
L 98.726471 144.264766 
L 99.480725 144.400163 
L 100.234979 144.930603 
L 100.989233 144.930603 
L 101.743487 145.702388 
L 104.00625 145.702388 
L 104.760504 147.02832 
L 107.023267 147.028678 
L 107.777521 148.019433 
L 116.074317 148.076426 
L 116.828571 148.819406 
L 117.582826 150.66062 
L 122.862605 150.66062 
L 123.616859 152.873446 
L 128.142385 152.89519 
L 128.896639 154.915396 
L 131.159401 154.915396 
L 131.913656 155.388951 
L 134.930672 155.388951 
L 135.684927 156.647427 
L 155.295536 156.647427 
L 156.04979 157.126101 
L 162.083824 157.126101 
L 162.838078 159.829352 
L 168.872111 159.829352 
L 169.626366 160.375473 
L 171.134874 160.375473 
L 171.889128 164.291895 
L 174.151891 164.291895 
L 174.906145 164.590108 
L 176.414653 164.590108 
L 177.168908 165.095943 
L 180.940179 165.095943 
L 181.694433 165.631831 
L 195.271008 165.631831 
L 196.025263 166.429937 
L 208.09333 166.429937 
L 208.847584 166.651694 
L 221.669906 166.660423 
L 222.42416 167.676102 
L 223.932668 167.676102 
L 224.686922 167.853146 
L 226.949685 167.853146 
L 227.703939 169.135564 
L 243.543277 169.135564 
L 244.297532 169.982634 
L 245.80604 169.982634 
L 246.560294 170.352035 
L 262.399632 170.352035 
L 263.153887 170.893927 
L 263.908141 171.174159 
L 264.662395 171.174159 
L 265.416649 171.905476 
L 269.942174 171.92547 
L 272.204937 171.92547 
L 272.959191 172.730552 
L 279.747479 172.739898 
L 280.501733 173.046101 
L 315.197427 173.100853 
L 315.951681 173.350134 
L 345.367595 173.428586 
L 346.121849 173.54482 
L 366.486712 173.54482 
L 367.240967 173.728521 
L 385.343067 173.728521 
L 386.097322 174.237835 
L 389.114338 174.237835 
L 389.868593 174.36341 
L 397.411135 174.36341 
L 398.165389 175.058276 
L 419.284507 175.058276 
L 420.038761 176.765237 
L 425.31854 176.765237 
L 425.31854 176.765237 
" clip-path="url(#p4aefd5275b)" style="fill: none; stroke: #b8b8b8; stroke-opacity: 0.28; stroke-width: 0.75; stroke-linecap: square"/>
   </g>
   <g id="line2d_29">
    <path d="M 48.191439 16.646364 
L 48.945693 16.646364 
L 49.699947 16.770674 
L 50.454202 21.588586 
L 53.471219 21.588586 
L 54.225473 21.735007 
L 54.979727 21.735007 
L 55.733981 22.460214 
L 57.24249 22.460214 
L 57.996744 65.807098 
L 58.750998 67.006524 
L 61.013761 67.006524 
L 61.768015 68.191279 
L 65.539286 68.191279 
L 66.29354 69.760913 
L 67.802048 69.760913 
L 68.556303 70.902215 
L 69.310557 71.669614 
L 70.064811 71.942161 
L 73.836082 71.942161 
L 74.590336 80.820944 
L 75.34459 80.820944 
L 76.098845 81.947803 
L 76.853099 99.130514 
L 77.607353 99.130514 
L 78.361607 104.939846 
L 79.115861 104.939846 
L 79.870116 109.624994 
L 81.378624 109.624994 
L 82.132878 118.991661 
L 82.887132 118.991661 
L 83.641387 119.763531 
L 86.658403 119.763531 
L 88.166912 123.314149 
L 88.921166 123.314149 
L 89.67542 124.553794 
L 92.692437 124.553794 
L 93.446691 129.222762 
L 99.480725 129.222762 
L 100.234979 130.885695 
L 100.989233 130.885695 
L 101.743487 132.160065 
L 104.760504 132.160065 
L 105.514758 132.390966 
L 106.269013 132.390966 
L 107.023267 135.354321 
L 109.286029 135.354321 
L 110.040284 135.598244 
L 111.548792 135.598244 
L 112.303046 137.383157 
L 119.845588 137.383157 
L 120.599842 138.664873 
L 125.125368 138.664873 
L 125.879622 144.443149 
L 126.633876 144.443149 
L 127.38813 145.041096 
L 139.456198 145.092493 
L 140.210452 145.309772 
L 148.507248 145.309772 
L 149.261502 145.76692 
L 153.032773 145.76692 
L 153.787027 146.080816 
L 158.312553 146.080816 
L 159.066807 147.042337 
L 159.821061 147.042337 
L 160.575315 147.40327 
L 166.609349 147.485666 
L 167.363603 147.766958 
L 173.397637 147.766958 
L 174.151891 149.649009 
L 196.025263 149.649009 
L 196.779517 150.219933 
L 200.550788 150.219933 
L 201.305042 152.231166 
L 206.584822 152.231166 
L 207.339076 154.055832 
L 211.110347 154.055832 
L 211.864601 156.000588 
L 217.14438 156.000588 
L 217.898635 156.154984 
L 218.652889 157.246062 
L 228.458193 157.272979 
L 229.212448 157.667854 
L 240.526261 157.768137 
L 241.280515 157.956298 
L 265.416649 157.956298 
L 266.170903 158.557559 
L 287.290021 158.557559 
L 288.044275 159.302836 
L 295.586817 159.302836 
L 296.341072 159.580578 
L 303.129359 159.580578 
L 303.883614 160.437666 
L 321.985714 160.514896 
L 322.739969 160.881761 
L 331.791019 160.881761 
L 332.545273 161.234183 
L 334.053782 161.234183 
L 334.808036 165.875941 
L 335.56229 165.875941 
L 336.316544 166.790355 
L 348.384612 166.792104 
L 349.138866 167.018385 
L 353.664391 167.018385 
L 354.418645 167.20049 
L 364.22395 167.20049 
L 364.978204 167.710795 
L 369.503729 167.710795 
L 370.257983 167.875159 
L 379.309034 167.875159 
L 380.063288 168.426685 
L 420.793015 168.433026 
L 421.547269 169.359406 
L 425.31854 169.359406 
L 425.31854 169.359406 
" clip-path="url(#p4aefd5275b)" style="fill: none; stroke: #b8b8b8; stroke-opacity: 0.28; stroke-width: 0.75; stroke-linecap: square"/>
   </g>
   <g id="line2d_30">
    <path d="M 48.191439 16.646364 
L 48.945693 16.646364 
L 49.699947 17.046494 
L 50.454202 17.046494 
L 51.208456 19.55429 
L 51.96271 19.55429 
L 52.716964 30.597162 
L 53.471219 30.597162 
L 54.225473 31.155008 
L 54.979727 31.155008 
L 55.733981 33.11579 
L 57.24249 33.878072 
L 57.996744 37.221877 
L 58.750998 39.501022 
L 61.013761 39.537027 
L 61.768015 40.769619 
L 62.522269 41.265013 
L 66.29354 41.265013 
L 67.047794 42.378106 
L 71.573319 42.378106 
L 72.327574 43.977509 
L 75.34459 43.977509 
L 76.098845 44.424967 
L 76.853099 44.424967 
L 77.607353 46.028781 
L 79.870116 46.028781 
L 80.62437 47.679782 
L 81.378624 105.495997 
L 82.132878 105.495997 
L 82.887132 105.652929 
L 85.904149 105.652929 
L 86.658403 106.211913 
L 91.938183 106.211913 
L 92.692437 132.859739 
L 95.709454 132.859739 
L 96.463708 133.427322 
L 97.217962 133.427322 
L 97.972216 135.952696 
L 98.726471 135.952696 
L 99.480725 136.159015 
L 100.234979 145.794778 
L 103.251996 145.794778 
L 104.00625 146.712038 
L 108.531775 146.712038 
L 109.286029 150.478777 
L 117.582826 150.478777 
L 118.33708 151.035319 
L 121.354097 151.035319 
L 122.108351 151.644945 
L 124.371113 151.644945 
L 125.125368 151.974375 
L 130.405147 151.974375 
L 131.159401 152.115729 
L 131.913656 161.694045 
L 137.193435 161.712784 
L 137.947689 183.00093 
L 149.261502 183.00093 
L 150.015756 189.903595 
L 156.04979 189.991258 
L 156.804044 193.175514 
L 159.821061 193.259166 
L 160.575315 193.74204 
L 164.346586 193.74204 
L 165.10084 194.053492 
L 168.117857 194.053492 
L 168.872111 194.253404 
L 169.626366 194.253404 
L 170.38062 195.392822 
L 173.397637 195.392822 
L 174.151891 196.448747 
L 176.414653 196.448747 
L 177.168908 196.631396 
L 179.43167 196.631396 
L 180.185924 201.023616 
L 180.940179 201.528003 
L 194.516754 201.528003 
L 195.271008 202.231064 
L 198.288025 202.231064 
L 199.04228 203.386767 
L 199.796534 203.931346 
L 228.458193 204.041519 
L 230.720956 204.085757 
L 245.80604 204.085757 
L 246.560294 204.792034 
L 315.197427 204.883235 
L 316.705935 204.974562 
L 323.494223 204.974562 
L 324.248477 205.573636 
L 425.31854 205.573636 
L 425.31854 205.573636 
" clip-path="url(#p4aefd5275b)" style="fill: none; stroke: #b8b8b8; stroke-opacity: 0.28; stroke-width: 0.75; stroke-linecap: square"/>
   </g>
   <g id="line2d_31">
    <path d="M 48.191439 16.646364 
L 48.945693 19.416983 
L 49.699947 19.969799 
L 50.454202 23.759038 
L 51.96271 28.218958 
L 54.225473 38.018839 
L 54.979727 39.436987 
L 55.733981 46.707499 
L 56.488235 49.168865 
L 57.24249 50.088387 
L 57.996744 54.879404 
L 58.750998 55.452769 
L 59.505252 56.41366 
L 60.259506 58.272147 
L 61.013761 65.038894 
L 61.768015 68.141227 
L 62.522269 69.08282 
L 63.276523 71.070801 
L 64.030777 71.949403 
L 64.785032 74.831278 
L 65.539286 75.711623 
L 66.29354 78.200162 
L 67.047794 79.370298 
L 67.802048 79.979702 
L 68.556303 81.464581 
L 69.310557 81.91848 
L 70.064811 82.880728 
L 71.573319 83.493775 
L 72.327574 84.778952 
L 73.081828 85.305631 
L 73.836082 86.035089 
L 74.590336 87.737076 
L 76.853099 91.069117 
L 77.607353 91.665402 
L 78.361607 93.031624 
L 79.115861 93.541158 
L 79.870116 93.911758 
L 80.62437 94.704464 
L 81.378624 98.119141 
L 82.132878 99.523822 
L 84.395641 100.38683 
L 85.149895 100.986238 
L 85.904149 101.833089 
L 86.658403 102.20512 
L 87.412658 103.274028 
L 88.166912 103.56381 
L 88.921166 103.705722 
L 89.67542 104.041862 
L 90.429674 104.254211 
L 91.183929 104.254211 
L 91.938183 104.475815 
L 92.692437 106.450143 
L 93.446691 106.827235 
L 94.200945 106.990767 
L 94.9552 107.717411 
L 95.709454 107.908231 
L 96.463708 108.416671 
L 97.217962 109.091737 
L 97.972216 109.30588 
L 98.726471 109.328426 
L 99.480725 109.898047 
L 100.234979 111.569465 
L 100.989233 113.67904 
L 102.497742 114.183341 
L 104.00625 114.39982 
L 104.760504 115.48269 
L 106.269013 115.716781 
L 107.023267 116.179662 
L 107.777521 116.234381 
L 108.531775 116.4756 
L 109.286029 116.950238 
L 113.811555 118.098323 
L 115.320063 118.259595 
L 116.828571 119.009377 
L 117.582826 119.711564 
L 118.33708 119.906265 
L 119.091334 120.345106 
L 119.845588 120.433279 
L 120.599842 121.148497 
L 122.108351 121.40564 
L 122.862605 121.820968 
L 123.616859 122.481853 
L 124.371113 122.501392 
L 125.879622 123.385405 
L 126.633876 123.385405 
L 127.38813 123.800774 
L 129.650893 124.032854 
L 130.405147 124.194883 
L 131.159401 124.500774 
L 131.913656 125.138521 
L 133.422164 125.384118 
L 134.176418 125.746395 
L 134.930672 125.764971 
L 136.439181 126.267721 
L 137.947689 128.667471 
L 138.701943 128.697266 
L 140.964706 129.445111 
L 141.71896 129.762088 
L 143.981723 130.278219 
L 144.735977 130.65423 
L 145.490231 130.801769 
L 146.244485 131.116454 
L 149.261502 131.443086 
L 150.015756 131.991639 
L 151.524265 132.38834 
L 153.787027 132.81972 
L 154.541282 133.891137 
L 156.804044 135.196138 
L 157.558298 135.953274 
L 158.312553 135.970322 
L 159.066807 136.238011 
L 161.329569 136.482449 
L 162.838078 136.906996 
L 164.346586 136.973683 
L 165.10084 137.295394 
L 167.363603 137.477339 
L 169.626366 137.598355 
L 171.134874 137.829214 
L 171.889128 138.280106 
L 173.397637 138.423658 
L 174.906145 138.887976 
L 175.660399 139.12324 
L 177.923162 139.235641 
L 180.185924 140.122366 
L 180.940179 140.150474 
L 182.448687 140.387639 
L 183.202941 140.446995 
L 183.957195 140.718804 
L 186.219958 140.955583 
L 187.728466 141.02845 
L 188.482721 141.326488 
L 190.745483 141.430996 
L 193.008246 141.653816 
L 196.025263 142.187569 
L 196.779517 142.440839 
L 197.533771 142.459819 
L 199.04228 142.731457 
L 201.305042 142.966307 
L 202.059296 142.966307 
L 202.813551 143.204254 
L 212.618855 144.091412 
L 213.373109 144.236206 
L 214.881618 144.331052 
L 215.635872 144.528989 
L 219.407143 144.68378 
L 222.42416 144.981584 
L 225.441177 145.074659 
L 227.703939 145.302589 
L 228.458193 145.534329 
L 232.229464 145.710156 
L 232.983719 145.958495 
L 236.75499 146.425089 
L 242.789023 146.815396 
L 245.80604 146.972795 
L 246.560294 147.09498 
L 249.577311 147.16825 
L 250.331565 147.371011 
L 251.840074 147.438272 
L 253.348582 147.54966 
L 254.102836 147.599298 
L 254.85709 147.773546 
L 265.416649 148.264012 
L 266.925158 148.352284 
L 272.204937 148.436164 
L 274.4677 148.563578 
L 276.730462 148.641981 
L 280.501733 149.202999 
L 282.010242 149.202999 
L 282.764496 149.378999 
L 287.290021 149.445471 
L 288.79853 149.549203 
L 291.061292 149.661533 
L 300.866597 150.02458 
L 301.620851 150.085028 
L 302.375105 150.353851 
L 303.883614 150.534751 
L 312.934664 150.895867 
L 314.443172 150.979823 
L 315.951681 151.023468 
L 317.460189 151.13708 
L 321.985714 151.202299 
L 322.739969 151.333985 
L 325.756985 151.415241 
L 328.774002 151.458707 
L 334.053782 151.535745 
L 334.808036 151.798585 
L 337.070798 151.934095 
L 349.138866 152.150661 
L 350.647374 152.208805 
L 351.401628 152.208805 
L 352.155883 152.583848 
L 362.715441 152.722578 
L 365.732458 152.847839 
L 374.783509 153.126601 
L 375.537763 153.291785 
L 380.063288 153.354683 
L 381.571796 153.42709 
L 405.707931 153.853385 
L 407.216439 153.94649 
L 413.250473 154.054094 
L 418.530252 154.248592 
L 423.055778 154.586698 
L 425.31854 154.586698 
L 425.31854 154.586698 
" clip-path="url(#p4aefd5275b)" style="fill: none; stroke: #b2182b; stroke-width: 2.5; stroke-linecap: square"/>
   </g>
   <g id="line2d_32">
    <path d="M 48.191439 16.646364 
L 425.31854 16.646364 
" clip-path="url(#p4aefd5275b)" style="fill: none; stroke-dasharray: 2.96,1.28; stroke-dashoffset: 0; stroke: #555555; stroke-opacity: 0.7; stroke-width: 0.8"/>
   </g>
   <g id="patch_3">
    <path d="M 48.191439 215.02 
L 48.191439 7.2 
" style="fill: none; stroke: #222222; stroke-width: 0.8; stroke-linejoin: miter; stroke-linecap: square"/>
   </g>
   <g id="patch_4">
    <path d="M 48.191439 215.02 
L 425.31854 215.02 
" style="fill: none; stroke: #222222; stroke-width: 0.8; stroke-linejoin: miter; stroke-linecap: square"/>
   </g>
   <g id="text_13">
    <!-- $\frac{E}{E_0}$ -->
    <g transform="translate(7.2 113.435)">
     <text>
      <tspan x="0" y="6.0375" style="font-size: 10.5px; font-family: 'cmmi10'">E</tspan>
      <tspan x="2" y="-5.825" style="font-size: 10.5px; font-family: 'cmmi10'">E</tspan>
      <tspan x="7.746826" y="7.823156" style="font-size: 7.35px; font-family: 'cmr10'">0</tspan>
     </text>
     <rect x="0" y="-3.075" width="12.091447" height="0.9375"/>
    </g>
   </g>
  </g>
 </g>
 <defs>
  <clipPath id="p4aefd5275b">
   <rect x="48.191439" y="7.2" width="377.127101" height="207.82"/>
  </clipPath>
 </defs>
</svg>
