<?xml version="1.0" encoding="utf-8" standalone="no"?>
<!DOCTYPE svg PUBLIC "-//W3C//DTD SVG 1.1//EN"
  "http://www.w3.org/Graphics/SVG/1.1/DTD/svg11.dtd">
<svg xmlns:xlink="http://www.w3.org/1999/xlink" width="436.246291pt" height="246.753281pt" viewBox="0 0 436.246291 246.753281" xmlns="http://www.w3.org/2000/svg" version="1.1">
 <metadata>
  <rdf:RDF xmlns:dc="http://purl.org/dc/elements/1.1/" xmlns:cc="http://creativecommons.org/ns#" xmlns:rdf="http://www.w3.org/1999/02/22-rdf-syntax-ns#">
   <cc:Work>
    <dc:type rdf:resource="http://purl.org/dc/dcmitype/StillImage"/>
    <dc:date>2026-06-29T19:50:27.640857</dc:date>
    <dc:format>image/svg+xml</dc:format>
    <dc:creator>
     <cc:Agent>
      <dc:title>Matplotlib v3.10.8, https://matplotlib.org/</dc:title>
     </cc:Agent>
    </dc:creator>
   </cc:Work>
  </rdf:RDF>
 </metadata>
 <defs>
  <style type="text/css">*{stroke-linejoin: round; stroke-linecap: butt}</style>
 </defs>
 <g id="figure_1">
  <g id="patch_1">
   <path d="M 0 246.753281 
L 436.246291 246.753281 
L 436.246291 0 
L 0 0 
z
" style="fill: #ffffff"/>
  </g>
  <g id="axes_1">
   <g id="patch_2">
    <path d="M 59.856881 215.02 
L 423.877775 215.02 
L 423.877775 7.2 
L 59.856881 7.2 
z
" style="fill: #ffffff"/>
   </g>
   <g id="FillBetweenPolyCollection_1">
    <defs>
     <path id="mc3162847e9" d="M 59.856881 -229.589852 
L 59.856881 -229.589852 
L 60.584922 -229.589852 
L 61.312964 -229.589852 
L 62.041006 -229.589852 
L 62.769048 -229.589852 
L 63.497089 -229.071918 
L 64.225131 -225.860837 
L 64.953173 -224.99787 
L 65.681215 -221.691976 
L 66.409257 -215.77676 
L 67.137298 -201.275083 
L 67.86534 -200.558209 
L 68.593382 -200.558209 
L 69.321424 -192.49717 
L 70.049466 -192.49717 
L 70.777507 -192.49717 
L 71.505549 -176.131092 
L 72.233591 -165.228132 
L 72.961633 -165.228132 
L 73.689675 -165.228132 
L 74.417716 -159.006835 
L 75.145758 -159.006835 
L 75.8738 -159.006835 
L 76.601842 -159.006835 
L 77.329883 -159.006835 
L 78.057925 -159.006835 
L 78.785967 -155.496773 
L 79.514009 -155.37577 
L 80.242051 -155.37577 
L 80.970092 -155.37577 
L 81.698134 -155.37577 
L 82.426176 -155.37577 
L 83.154218 -155.37577 
L 83.88226 -155.37577 
L 84.610301 -155.37577 
L 85.338343 -155.37577 
L 86.066385 -155.37577 
L 86.794427 -155.37577 
L 87.522468 -154.477778 
L 88.25051 -154.477778 
L 88.978552 -154.477778 
L 89.706594 -154.477778 
L 90.434636 -154.477778 
L 91.162677 -154.477778 
L 91.890719 -151.958032 
L 92.618761 -141.589448 
L 93.346803 -141.589448 
L 94.074845 -141.589448 
L 94.802886 -141.589448 
L 95.530928 -135.74018 
L 96.25897 -135.74018 
L 96.987012 -135.74018 
L 97.715054 -135.6693 
L 98.443095 -129.363413 
L 99.171137 -129.363413 
L 99.899179 -129.363413 
L 100.627221 -129.363413 
L 101.355262 -129.363413 
L 102.083304 -129.363413 
L 102.811346 -123.69558 
L 103.539388 -123.69558 
L 104.26743 -123.69558 
L 104.995471 -116.165166 
L 105.723513 -121.096643 
L 106.451555 -121.096643 
L 107.179597 -121.096643 
L 107.907639 -121.096643 
L 108.63568 -121.096643 
L 109.363722 -121.096643 
L 110.091764 -116.158454 
L 110.819806 -116.158454 
L 111.547848 -116.158454 
L 112.275889 -116.158454 
L 113.003931 -116.158454 
L 113.731973 -116.158454 
L 114.460015 -116.158454 
L 115.188056 -116.158454 
L 115.916098 -116.158454 
L 116.64414 -116.158454 
L 117.372182 -116.158454 
L 118.100224 -116.158454 
L 118.828265 -116.158454 
L 119.556307 -116.158454 
L 120.284349 -116.158454 
L 121.012391 -116.158454 
L 121.740433 -109.269017 
L 122.468474 -109.269017 
L 123.196516 -109.269017 
L 123.924558 -109.269017 
L 124.6526 -109.269017 
L 125.380642 -109.269017 
L 126.108683 -106.630843 
L 126.836725 -106.630843 
L 127.564767 -106.630843 
L 128.292809 -106.630843 
L 129.02085 -106.630843 
L 129.748892 -106.630843 
L 130.476934 -106.630843 
L 131.204976 -106.630843 
L 131.933018 -106.630843 
L 132.661059 -101.788721 
L 133.389101 -101.788721 
L 134.117143 -101.788721 
L 134.845185 -98.680425 
L 135.573227 -98.680425 
L 136.301268 -98.680425 
L 137.02931 -98.680425 
L 137.757352 -98.680425 
L 138.485394 -98.680425 
L 139.213436 -98.680425 
L 139.941477 -98.680425 
L 140.669519 -97.399349 
L 141.397561 -97.399349 
L 142.125603 -97.399349 
L 142.853644 -97.399349 
L 143.581686 -97.399349 
L 144.309728 -97.399349 
L 145.03777 -97.399349 
L 145.765812 -97.399349 
L 146.493853 -94.070003 
L 147.221895 -94.070003 
L 147.949937 -94.070003 
L 148.677979 -94.070003 
L 149.406021 -94.070003 
L 150.134062 -94.070003 
L 150.862104 -94.070003 
L 151.590146 -94.070003 
L 152.318188 -94.070003 
L 153.04623 -94.070003 
L 153.774271 -94.070003 
L 154.502313 -94.070003 
L 155.230355 -94.070003 
L 155.958397 -94.070003 
L 156.686438 -94.070003 
L 157.41448 -94.070003 
L 158.142522 -94.070003 
L 158.870564 -94.070003 
L 159.598606 -94.070003 
L 160.326647 -94.070003 
L 161.054689 -94.070003 
L 161.782731 -94.070003 
L 162.510773 -94.070003 
L 163.238815 -94.070003 
L 163.966856 -96.678357 
L 164.694898 -96.678357 
L 165.42294 -91.60689 
L 166.150982 -91.60689 
L 166.879024 -91.60689 
L 167.607065 -91.60689 
L 168.335107 -88.466306 
L 169.063149 -88.466306 
L 169.791191 -88.466306 
L 170.519232 -88.466306 
L 171.247274 -88.466306 
L 171.975316 -88.466306 
L 172.703358 -88.466306 
L 173.4314 -88.466306 
L 174.159441 -88.466306 
L 174.887483 -88.466306 
L 175.615525 -88.466306 
L 176.343567 -88.466306 
L 177.071609 -88.466306 
L 177.79965 -88.466306 
L 178.527692 -88.466306 
L 179.255734 -84.465888 
L 179.983776 -84.465888 
L 180.711818 -84.465888 
L 181.439859 -84.465888 
L 182.167901 -84.465888 
L 182.895943 -84.465888 
L 183.623985 -84.465888 
L 184.352026 -84.465888 
L 185.080068 -84.465888 
L 185.80811 -84.465888 
L 186.536152 -84.465888 
L 187.264194 -84.465888 
L 187.992235 -84.465888 
L 188.720277 -84.465888 
L 189.448319 -84.465888 
L 190.176361 -84.465888 
L 190.904403 -84.465888 
L 191.632444 -84.465888 
L 192.360486 -84.465888 
L 193.088528 -83.54557 
L 193.81657 -83.54557 
L 194.544611 -83.54557 
L 195.272653 -83.54557 
L 196.000695 -83.54557 
L 196.728737 -83.422687 
L 197.456779 -83.422687 
L 198.18482 -83.422687 
L 198.912862 -83.422687 
L 199.640904 -83.422687 
L 200.368946 -83.422687 
L 201.096988 -83.422687 
L 201.825029 -83.422687 
L 202.553071 -83.422687 
L 203.281113 -83.422687 
L 204.009155 -83.422687 
L 204.737197 -83.422687 
L 205.465238 -83.422687 
L 206.19328 -83.422687 
L 206.921322 -83.422687 
L 207.649364 -83.422687 
L 208.377405 -83.422687 
L 209.105447 -81.853987 
L 209.833489 -81.853987 
L 210.561531 -81.853987 
L 211.289573 -81.853987 
L 212.017614 -81.853987 
L 212.745656 -81.853987 
L 213.473698 -81.853987 
L 214.20174 -81.853987 
L 214.929782 -81.853987 
L 215.657823 -81.853987 
L 216.385865 -81.853987 
L 217.113907 -81.853987 
L 217.841949 -81.853987 
L 218.569991 -81.853987 
L 219.298032 -81.853987 
L 220.026074 -81.853987 
L 220.754116 -81.853987 
L 221.482158 -81.853987 
L 222.210199 -81.853987 
L 222.938241 -81.853987 
L 223.666283 -81.853987 
L 224.394325 -81.853987 
L 225.122367 -81.853987 
L 225.850408 -81.853987 
L 226.57845 -81.853987 
L 227.306492 -81.853987 
L 228.034534 -80.797718 
L 228.762576 -80.797718 
L 229.490617 -80.797718 
L 230.218659 -84.788717 
L 230.946701 -83.582431 
L 231.674743 -83.582431 
L 232.402785 -83.582431 
L 233.130826 -83.582431 
L 233.858868 -83.582431 
L 234.58691 -83.582431 
L 235.314952 -83.582431 
L 236.042993 -83.582431 
L 236.771035 -83.582431 
L 237.499077 -83.582431 
L 238.227119 -83.582431 
L 238.955161 -83.582431 
L 239.683202 -83.582431 
L 240.411244 -83.582431 
L 241.139286 -83.582431 
L 241.867328 -83.582431 
L 242.59537 -83.582431 
L 243.323411 -86.358244 
L 244.051453 -86.358244 
L 244.779495 -86.358244 
L 245.507537 -86.358244 
L 246.235579 -86.358244 
L 246.96362 -86.358244 
L 247.691662 -86.358244 
L 248.419704 -86.358244 
L 249.147746 -86.358244 
L 249.875787 -86.358244 
L 250.603829 -86.358244 
L 251.331871 -86.358244 
L 252.059913 -86.358244 
L 252.787955 -86.358244 
L 253.515996 -86.358244 
L 254.244038 -86.358244 
L 254.97208 -86.358244 
L 255.700122 -86.358244 
L 256.428164 -86.358244 
L 257.156205 -86.358244 
L 257.884247 -86.358244 
L 258.612289 -86.358244 
L 259.340331 -86.358244 
L 260.068373 -86.358244 
L 260.796414 -86.358244 
L 261.524456 -86.358244 
L 262.252498 -86.358244 
L 262.98054 -86.358244 
L 263.708581 -86.358244 
L 264.436623 -86.358244 
L 265.164665 -86.358244 
L 265.892707 -86.358244 
L 266.620749 -86.358244 
L 267.34879 -82.367245 
L 268.076832 -82.367245 
L 268.804874 -82.367245 
L 269.532916 -82.367245 
L 270.260958 -82.367245 
L 270.988999 -82.367245 
L 271.717041 -82.367245 
L 272.445083 -82.367245 
L 273.173125 -82.367245 
L 273.901167 -82.367245 
L 274.629208 -82.367245 
L 275.35725 -82.367245 
L 276.085292 -82.367245 
L 276.813334 -82.367245 
L 277.541375 -82.367245 
L 278.269417 -82.367245 
L 278.997459 -82.367245 
L 279.725501 -82.367245 
L 280.453543 -82.367245 
L 281.181584 -82.367245 
L 281.909626 -81.793255 
L 282.637668 -81.793255 
L 283.36571 -81.793255 
L 284.093752 -81.793255 
L 284.821793 -81.793255 
L 285.549835 -81.793255 
L 286.277877 -81.793255 
L 287.005919 -81.793255 
L 287.73396 -81.793255 
L 288.462002 -81.793255 
L 289.190044 -81.793255 
L 289.918086 -81.793255 
L 290.646128 -81.793255 
L 291.374169 -81.793255 
L 292.102211 -81.793255 
L 292.830253 -81.793255 
L 293.558295 -81.793255 
L 294.286337 -81.793255 
L 295.014378 -81.793255 
L 295.74242 -81.793255 
L 296.470462 -81.793255 
L 297.198504 -81.793255 
L 297.926546 -81.793255 
L 298.654587 -81.793255 
L 299.382629 -81.793255 
L 300.110671 -81.793255 
L 300.838713 -81.793255 
L 301.566754 -81.793255 
L 302.294796 -81.793255 
L 303.022838 -81.793255 
L 303.75088 -81.793255 
L 304.478922 -81.793255 
L 305.206963 -81.793255 
L 305.935005 -81.793255 
L 306.663047 -81.793255 
L 307.391089 -81.793255 
L 308.119131 -81.793255 
L 308.847172 -81.793255 
L 309.575214 -81.793255 
L 310.303256 -81.793255 
L 311.031298 -81.793255 
L 311.75934 -81.793255 
L 312.487381 -81.793255 
L 313.215423 -81.793255 
L 313.943465 -81.793255 
L 314.671507 -81.793255 
L 315.399548 -81.793255 
L 316.12759 -80.155558 
L 316.855632 -80.155558 
L 317.583674 -80.155558 
L 318.311716 -80.155558 
L 319.039757 -80.155558 
L 319.767799 -80.155558 
L 320.495841 -80.155558 
L 321.223883 -80.155558 
L 321.951925 -80.155558 
L 322.679966 -80.155558 
L 323.408008 -80.155558 
L 324.13605 -80.155558 
L 324.864092 -80.155558 
L 325.592134 -80.155558 
L 326.320175 -80.155558 
L 327.048217 -80.155558 
L 327.776259 -80.155558 
L 328.504301 -80.155558 
L 329.232342 -80.155558 
L 329.960384 -80.155558 
L 330.688426 -80.155558 
L 331.416468 -80.155558 
L 332.14451 -80.155558 
L 332.872551 -80.155558 
L 333.600593 -80.155558 
L 334.328635 -80.155558 
L 335.056677 -80.155558 
L 335.784719 -80.155558 
L 336.51276 -80.155558 
L 337.240802 -80.155558 
L 337.968844 -80.155558 
L 338.696886 -80.155558 
L 339.424928 -80.155558 
L 340.152969 -80.155558 
L 340.881011 -80.155558 
L 341.609053 -80.155558 
L 342.337095 -80.155558 
L 343.065136 -80.155558 
L 343.793178 -80.155558 
L 344.52122 -80.155558 
L 345.249262 -80.155558 
L 345.977304 -80.155558 
L 346.705345 -80.155558 
L 347.433387 -80.155558 
L 348.161429 -80.155558 
L 348.889471 -80.155558 
L 349.617513 -80.155558 
L 350.345554 -80.155558 
L 351.073596 -80.155558 
L 351.801638 -80.155558 
L 352.52968 -80.155558 
L 353.257722 -78.740042 
L 353.985763 -78.740042 
L 354.713805 -78.740042 
L 355.441847 -78.740042 
L 356.169889 -78.740042 
L 356.89793 -78.740042 
L 357.625972 -78.740042 
L 358.354014 -78.740042 
L 359.082056 -78.740042 
L 359.810098 -78.740042 
L 360.538139 -78.740042 
L 361.266181 -78.740042 
L 361.994223 -78.740042 
L 362.722265 -78.740042 
L 363.450307 -78.740042 
L 364.178348 -78.740042 
L 364.90639 -78.740042 
L 365.634432 -78.740042 
L 366.362474 -78.740042 
L 367.090516 -78.740042 
L 367.818557 -78.740042 
L 368.546599 -78.740042 
L 369.274641 -78.740042 
L 370.002683 -78.740042 
L 370.730724 -78.740042 
L 371.458766 -78.740042 
L 372.186808 -78.740042 
L 372.91485 -78.740042 
L 373.642892 -78.740042 
L 374.370933 -78.740042 
L 375.098975 -78.740042 
L 375.827017 -78.740042 
L 376.555059 -78.740042 
L 377.283101 -78.740042 
L 378.011142 -78.740042 
L 378.739184 -78.740042 
L 379.467226 -78.740042 
L 380.195268 -78.740042 
L 380.92331 -78.740042 
L 381.651351 -78.740042 
L 382.379393 -78.740042 
L 383.107435 -78.740042 
L 383.835477 -78.740042 
L 384.563518 -78.740042 
L 385.29156 -78.740042 
L 386.019602 -78.740042 
L 386.747644 -78.740042 
L 387.475686 -78.740042 
L 388.203727 -78.740042 
L 388.931769 -78.740042 
L 389.659811 -78.740042 
L 390.387853 -78.740042 
L 391.115895 -78.740042 
L 391.843936 -78.740042 
L 392.571978 -78.740042 
L 393.30002 -78.740042 
L 394.028062 -78.740042 
L 394.756103 -78.740042 
L 395.484145 -79.885118 
L 396.212187 -79.885118 
L 396.940229 -79.885118 
L 397.668271 -79.885118 
L 398.396312 -79.885118 
L 399.124354 -79.885118 
L 399.852396 -79.885118 
L 400.580438 -79.885118 
L 401.30848 -79.885118 
L 402.036521 -79.885118 
L 402.764563 -79.885118 
L 403.492605 -79.885118 
L 404.220647 -79.885118 
L 404.948689 -79.885118 
L 405.67673 -79.885118 
L 406.404772 -79.885118 
L 407.132814 -79.885118 
L 407.860856 -79.885118 
L 408.588897 -79.885118 
L 409.316939 -79.885118 
L 410.044981 -79.885118 
L 410.773023 -79.885118 
L 411.501065 -79.885118 
L 412.229106 -79.885118 
L 412.957148 -79.885118 
L 413.68519 -79.885118 
L 414.413232 -79.885118 
L 415.141274 -79.885118 
L 415.869315 -79.885118 
L 416.597357 -79.885118 
L 417.325399 -79.885118 
L 418.053441 -79.885118 
L 418.781483 -79.885118 
L 419.509524 -79.885118 
L 420.237566 -79.885118 
L 420.965608 -79.885118 
L 421.69365 -79.885118 
L 422.421691 -79.885118 
L 423.149733 -79.885118 
L 423.877775 -79.885118 
L 423.877775 -131.176429 
L 423.877775 -131.176429 
L 423.149733 -131.176429 
L 422.421691 -131.176429 
L 421.69365 -131.176429 
L 420.965608 -131.176429 
L 420.237566 -131.176429 
L 419.509524 -131.176429 
L 418.781483 -131.176429 
L 418.053441 -131.176429 
L 417.325399 -131.176429 
L 416.597357 -131.176429 
L 415.869315 -131.176429 
L 415.141274 -131.176429 
L 414.413232 -131.176429 
L 413.68519 -131.176429 
L 412.957148 -131.176429 
L 412.229106 -131.176429 
L 411.501065 -131.176429 
L 410.773023 -131.176429 
L 410.044981 -131.176429 
L 409.316939 -131.176429 
L 408.588897 -131.176429 
L 407.860856 -131.176429 
L 407.132814 -131.176429 
L 406.404772 -131.176429 
L 405.67673 -131.176429 
L 404.948689 -131.176429 
L 404.220647 -131.176429 
L 403.492605 -131.176429 
L 402.764563 -131.176429 
L 402.036521 -131.176429 
L 401.30848 -131.176429 
L 400.580438 -131.176429 
L 399.852396 -131.176429 
L 399.124354 -131.176429 
L 398.396312 -131.176429 
L 397.668271 -131.176429 
L 396.940229 -131.176429 
L 396.212187 -131.176429 
L 395.484145 -131.176429 
L 394.756103 -131.176429 
L 394.028062 -131.176429 
L 393.30002 -131.176429 
L 392.571978 -131.176429 
L 391.843936 -131.176429 
L 391.115895 -131.176429 
L 390.387853 -131.176429 
L 389.659811 -131.176429 
L 388.931769 -131.176429 
L 388.203727 -131.176429 
L 387.475686 -131.176429 
L 386.747644 -131.176429 
L 386.019602 -131.176429 
L 385.29156 -131.176429 
L 384.563518 -131.176429 
L 383.835477 -131.176429 
L 383.107435 -131.176429 
L 382.379393 -131.176429 
L 381.651351 -131.176429 
L 380.92331 -131.176429 
L 380.195268 -131.176429 
L 379.467226 -131.176429 
L 378.739184 -131.176429 
L 378.011142 -131.176429 
L 377.283101 -131.176429 
L 376.555059 -131.176429 
L 375.827017 -131.176429 
L 375.098975 -131.176429 
L 374.370933 -131.176429 
L 373.642892 -131.176429 
L 372.91485 -131.176429 
L 372.186808 -131.176429 
L 371.458766 -131.176429 
L 370.730724 -131.176429 
L 370.002683 -131.176429 
L 369.274641 -131.176429 
L 368.546599 -131.176429 
L 367.818557 -131.176429 
L 367.090516 -131.176429 
L 366.362474 -131.176429 
L 365.634432 -131.176429 
L 364.90639 -131.176429 
L 364.178348 -131.176429 
L 363.450307 -131.176429 
L 362.722265 -131.176429 
L 361.994223 -131.176429 
L 361.266181 -131.176429 
L 360.538139 -131.176429 
L 359.810098 -131.176429 
L 359.082056 -131.176429 
L 358.354014 -131.176429 
L 357.625972 -131.176429 
L 356.89793 -131.176429 
L 356.169889 -131.176429 
L 355.441847 -131.176429 
L 354.713805 -131.176429 
L 353.985763 -131.176429 
L 353.257722 -131.176429 
L 352.52968 -131.176429 
L 351.801638 -131.176429 
L 351.073596 -131.176429 
L 350.345554 -131.176429 
L 349.617513 -131.176429 
L 348.889471 -131.176429 
L 348.161429 -131.176429 
L 347.433387 -131.176429 
L 346.705345 -131.176429 
L 345.977304 -131.176429 
L 345.249262 -131.176429 
L 344.52122 -131.176429 
L 343.793178 -131.176429 
L 343.065136 -131.176429 
L 342.337095 -131.176429 
L 341.609053 -131.176429 
L 340.881011 -131.176429 
L 340.152969 -131.176429 
L 339.424928 -131.176429 
L 338.696886 -131.176429 
L 337.968844 -131.176429 
L 337.240802 -131.176429 
L 336.51276 -131.176429 
L 335.784719 -131.176429 
L 335.056677 -131.176429 
L 334.328635 -131.176429 
L 333.600593 -131.176429 
L 332.872551 -131.176429 
L 332.14451 -131.176429 
L 331.416468 -131.176429 
L 330.688426 -131.176429 
L 329.960384 -131.176429 
L 329.232342 -131.176429 
L 328.504301 -131.176429 
L 327.776259 -131.176429 
L 327.048217 -131.176429 
L 326.320175 -131.176429 
L 325.592134 -131.176429 
L 324.864092 -131.176429 
L 324.13605 -131.176429 
L 323.408008 -131.176429 
L 322.679966 -131.176429 
L 321.951925 -131.176429 
L 321.223883 -131.176429 
L 320.495841 -131.176429 
L 319.767799 -131.176429 
L 319.039757 -131.176429 
L 318.311716 -131.176429 
L 317.583674 -131.176429 
L 316.855632 -131.176429 
L 316.12759 -131.176429 
L 315.399548 -131.176429 
L 314.671507 -131.176429 
L 313.943465 -131.176429 
L 313.215423 -131.176429 
L 312.487381 -131.176429 
L 311.75934 -131.176429 
L 311.031298 -131.176429 
L 310.303256 -131.176429 
L 309.575214 -131.176429 
L 308.847172 -131.176429 
L 308.119131 -131.176429 
L 307.391089 -129.439996 
L 306.663047 -129.439996 
L 305.935005 -129.546599 
L 305.206963 -129.546599 
L 304.478922 -133.935722 
L 303.75088 -133.935722 
L 303.022838 -133.935722 
L 302.294796 -137.283355 
L 301.566754 -137.283355 
L 300.838713 -137.283355 
L 300.110671 -137.283355 
L 299.382629 -137.283355 
L 298.654587 -137.283355 
L 297.926546 -137.283355 
L 297.198504 -137.283355 
L 296.470462 -137.283355 
L 295.74242 -137.283355 
L 295.014378 -137.283355 
L 294.286337 -137.283355 
L 293.558295 -137.283355 
L 292.830253 -137.283355 
L 292.102211 -137.283355 
L 291.374169 -137.283355 
L 290.646128 -137.283355 
L 289.918086 -137.283355 
L 289.190044 -137.283355 
L 288.462002 -137.283355 
L 287.73396 -137.283355 
L 287.005919 -137.283355 
L 286.277877 -137.283355 
L 285.549835 -137.283355 
L 284.821793 -137.283355 
L 284.093752 -137.283355 
L 283.36571 -137.283355 
L 282.637668 -137.283355 
L 281.909626 -137.283355 
L 281.181584 -137.283355 
L 280.453543 -137.283355 
L 279.725501 -137.283355 
L 278.997459 -137.283355 
L 278.269417 -137.283355 
L 277.541375 -137.283355 
L 276.813334 -137.283355 
L 276.085292 -137.283355 
L 275.35725 -137.283355 
L 274.629208 -137.283355 
L 273.901167 -137.283355 
L 273.173125 -137.283355 
L 272.445083 -137.283355 
L 271.717041 -137.283355 
L 270.988999 -137.283355 
L 270.260958 -137.283355 
L 269.532916 -137.283355 
L 268.804874 -137.283355 
L 268.076832 -137.283355 
L 267.34879 -137.283355 
L 266.620749 -137.283355 
L 265.892707 -137.283355 
L 265.164665 -137.283355 
L 264.436623 -137.283355 
L 263.708581 -137.283355 
L 262.98054 -137.283355 
L 262.252498 -137.283355 
L 261.524456 -137.283355 
L 260.796414 -137.283355 
L 260.068373 -137.283355 
L 259.340331 -137.283355 
L 258.612289 -137.283355 
L 257.884247 -137.283355 
L 257.156205 -137.283355 
L 256.428164 -137.283355 
L 255.700122 -137.283355 
L 254.97208 -137.283355 
L 254.244038 -137.283355 
L 253.515996 -137.283355 
L 252.787955 -137.283355 
L 252.059913 -137.283355 
L 251.331871 -137.283355 
L 250.603829 -137.283355 
L 249.875787 -137.283355 
L 249.147746 -137.283355 
L 248.419704 -137.283355 
L 247.691662 -137.283355 
L 246.96362 -137.283355 
L 246.235579 -137.283355 
L 245.507537 -137.283355 
L 244.779495 -137.283355 
L 244.051453 -137.283355 
L 243.323411 -137.283355 
L 242.59537 -137.283355 
L 241.867328 -137.283355 
L 241.139286 -137.283355 
L 240.411244 -137.283355 
L 239.683202 -137.283355 
L 238.955161 -137.283355 
L 238.227119 -137.283355 
L 237.499077 -137.283355 
L 236.771035 -137.283355 
L 236.042993 -137.283355 
L 235.314952 -137.283355 
L 234.58691 -137.283355 
L 233.858868 -137.283355 
L 233.130826 -137.283355 
L 232.402785 -137.283355 
L 231.674743 -137.283355 
L 230.946701 -137.283355 
L 230.218659 -137.283355 
L 229.490617 -137.283355 
L 228.762576 -137.283355 
L 228.034534 -137.283355 
L 227.306492 -137.283355 
L 226.57845 -137.283355 
L 225.850408 -137.283355 
L 225.122367 -137.283355 
L 224.394325 -137.283355 
L 223.666283 -137.283355 
L 222.938241 -137.283355 
L 222.210199 -137.283355 
L 221.482158 -137.283355 
L 220.754116 -137.283355 
L 220.026074 -137.283355 
L 219.298032 -137.283355 
L 218.569991 -137.283355 
L 217.841949 -137.283355 
L 217.113907 -138.888866 
L 216.385865 -138.888866 
L 215.657823 -138.888866 
L 214.929782 -138.888866 
L 214.20174 -138.888866 
L 213.473698 -138.888866 
L 212.745656 -138.888866 
L 212.017614 -138.888866 
L 211.289573 -138.888866 
L 210.561531 -138.888866 
L 209.833489 -138.888866 
L 209.105447 -139.606263 
L 208.377405 -139.606263 
L 207.649364 -139.606263 
L 206.921322 -139.606263 
L 206.19328 -139.606263 
L 205.465238 -139.606263 
L 204.737197 -139.606263 
L 204.009155 -139.606263 
L 203.281113 -139.606263 
L 202.553071 -139.606263 
L 201.825029 -139.606263 
L 201.096988 -139.606263 
L 200.368946 -139.606263 
L 199.640904 -139.606263 
L 198.912862 -139.606263 
L 198.18482 -139.606263 
L 197.456779 -139.606263 
L 196.728737 -139.606263 
L 196.000695 -139.606263 
L 195.272653 -139.606263 
L 194.544611 -139.606263 
L 193.81657 -139.606263 
L 193.088528 -139.606263 
L 192.360486 -139.606263 
L 191.632444 -139.606263 
L 190.904403 -139.606263 
L 190.176361 -139.649529 
L 189.448319 -139.649529 
L 188.720277 -139.649529 
L 187.992235 -139.649529 
L 187.264194 -139.649529 
L 186.536152 -139.649529 
L 185.80811 -139.649529 
L 185.080068 -139.649529 
L 184.352026 -139.649529 
L 183.623985 -139.649529 
L 182.895943 -139.649529 
L 182.167901 -139.649529 
L 181.439859 -139.679625 
L 180.711818 -139.679625 
L 179.983776 -139.679625 
L 179.255734 -139.679625 
L 178.527692 -139.679625 
L 177.79965 -139.679625 
L 177.071609 -139.679625 
L 176.343567 -139.679625 
L 175.615525 -140.883098 
L 174.887483 -140.883098 
L 174.159441 -140.883098 
L 173.4314 -140.883098 
L 172.703358 -140.883098 
L 171.975316 -140.883098 
L 171.247274 -140.883098 
L 170.519232 -140.883098 
L 169.791191 -140.883098 
L 169.063149 -141.865457 
L 168.335107 -141.865457 
L 167.607065 -141.865457 
L 166.879024 -141.865457 
L 166.150982 -141.865457 
L 165.42294 -141.865457 
L 164.694898 -141.865457 
L 163.966856 -141.865457 
L 163.238815 -146.732686 
L 162.510773 -147.708611 
L 161.782731 -147.708611 
L 161.054689 -147.708611 
L 160.326647 -147.708611 
L 159.598606 -147.708611 
L 158.870564 -147.708611 
L 158.142522 -147.708611 
L 157.41448 -147.708611 
L 156.686438 -147.708611 
L 155.958397 -147.708611 
L 155.230355 -147.708611 
L 154.502313 -147.708611 
L 153.774271 -147.708611 
L 153.04623 -147.708611 
L 152.318188 -152.665426 
L 151.590146 -152.665426 
L 150.862104 -152.665426 
L 150.134062 -152.665426 
L 149.406021 -152.665426 
L 148.677979 -152.665426 
L 147.949937 -152.665426 
L 147.221895 -152.665426 
L 146.493853 -152.665426 
L 145.765812 -152.665426 
L 145.03777 -156.413067 
L 144.309728 -156.413067 
L 143.581686 -156.413067 
L 142.853644 -156.413067 
L 142.125603 -156.413067 
L 141.397561 -156.413067 
L 140.669519 -156.413067 
L 139.941477 -156.413067 
L 139.213436 -156.413067 
L 138.485394 -156.413067 
L 137.757352 -156.413067 
L 137.02931 -156.413067 
L 136.301268 -156.413067 
L 135.573227 -156.413067 
L 134.845185 -156.413067 
L 134.117143 -156.413067 
L 133.389101 -156.648889 
L 132.661059 -156.648889 
L 131.933018 -163.09172 
L 131.204976 -163.09172 
L 130.476934 -163.09172 
L 129.748892 -163.09172 
L 129.02085 -163.09172 
L 128.292809 -163.09172 
L 127.564767 -163.09172 
L 126.836725 -163.09172 
L 126.108683 -165.935041 
L 125.380642 -165.935041 
L 124.6526 -166.347561 
L 123.924558 -168.798341 
L 123.196516 -168.798341 
L 122.468474 -168.798341 
L 121.740433 -168.798341 
L 121.012391 -168.798341 
L 120.284349 -168.798341 
L 119.556307 -168.798341 
L 118.828265 -168.798341 
L 118.100224 -168.798341 
L 117.372182 -168.798341 
L 116.64414 -168.798341 
L 115.916098 -168.798341 
L 115.188056 -168.798341 
L 114.460015 -168.798341 
L 113.731973 -176.202538 
L 113.003931 -176.202538 
L 112.275889 -176.202538 
L 111.547848 -176.202538 
L 110.819806 -176.202538 
L 110.091764 -176.202538 
L 109.363722 -181.156866 
L 108.63568 -181.156866 
L 107.907639 -181.156866 
L 107.179597 -181.156866 
L 106.451555 -181.156866 
L 105.723513 -181.156866 
L 104.995471 -181.156866 
L 104.26743 -181.156866 
L 103.539388 -181.156866 
L 102.811346 -181.156866 
L 102.083304 -181.156866 
L 101.355262 -181.156866 
L 100.627221 -181.156866 
L 99.899179 -181.156866 
L 99.171137 -181.156866 
L 98.443095 -181.156866 
L 97.715054 -181.156866 
L 96.987012 -185.196087 
L 96.25897 -185.196087 
L 95.530928 -185.196087 
L 94.802886 -185.196087 
L 94.074845 -185.196087 
L 93.346803 -185.196087 
L 92.618761 -185.196087 
L 91.890719 -185.196087 
L 91.162677 -188.968791 
L 90.434636 -188.968791 
L 89.706594 -190.086352 
L 88.978552 -190.086352 
L 88.25051 -196.679071 
L 87.522468 -206.258676 
L 86.794427 -206.258676 
L 86.066385 -210.931921 
L 85.338343 -210.931921 
L 84.610301 -210.931921 
L 83.88226 -210.931921 
L 83.154218 -210.931921 
L 82.426176 -210.931921 
L 81.698134 -210.931921 
L 80.970092 -210.931921 
L 80.242051 -210.931921 
L 79.514009 -210.931921 
L 78.785967 -221.560005 
L 78.057925 -221.560005 
L 77.329883 -221.560005 
L 76.601842 -224.809498 
L 75.8738 -224.809498 
L 75.145758 -224.809498 
L 74.417716 -224.809498 
L 73.689675 -224.809498 
L 72.961633 -224.809498 
L 72.233591 -224.809498 
L 71.505549 -229.589852 
L 70.777507 -229.589852 
L 70.049466 -229.589852 
L 69.321424 -229.589852 
L 68.593382 -229.589852 
L 67.86534 -229.589852 
L 67.137298 -229.589852 
L 66.409257 -229.589852 
L 65.681215 -229.589852 
L 64.953173 -229.589852 
L 64.225131 -229.589852 
L 63.497089 -229.589852 
L 62.769048 -229.589852 
L 62.041006 -229.589852 
L 61.312964 -229.589852 
L 60.584922 -229.589852 
L 59.856881 -229.589852 
z
"/>
    </defs>
    <g clip-path="url(#pc28a29bb79)">
     <use xlink:href="#mc3162847e9" x="0" y="246.753281" style="fill: #f4a3a8; fill-opacity: 0.35"/>
    </g>
   </g>
   <g id="matplotlib.axis_1">
    <g id="xtick_1">
     <g id="line2d_1">
      <defs>
       <path id="m5e6ede9014" d="M 0 0 
L 0 3 
" style="stroke: #000000; stroke-width: 0.7"/>
      </defs>
      <g>
       <use xlink:href="#m5e6ede9014" x="59.856881" y="215.02" style="stroke: #000000; stroke-width: 0.7"/>
      </g>
     </g>
     <g id="text_1">
      <text style="font-size: 6.5px; font-family: 'Arial', 'Helvetica', 'DejaVu Sans', sans-serif; text-anchor: middle" x="59.856881" y="226.458984" transform="rotate(-0 59.856881 226.458984)">0.0</text>
     </g>
    </g>
    <g id="xtick_2">
     <g id="line2d_2">
      <g>
       <use xlink:href="#m5e6ede9014" x="132.661059" y="215.02" style="stroke: #000000; stroke-width: 0.7"/>
      </g>
     </g>
     <g id="text_2">
      <text style="font-size: 6.5px; font-family: 'Arial', 'Helvetica', 'DejaVu Sans', sans-serif; text-anchor: middle" x="132.661059" y="226.458984" transform="rotate(-0 132.661059 226.458984)">0.2</text>
     </g>
    </g>
    <g id="xtick_3">
     <g id="line2d_3">
      <g>
       <use xlink:href="#m5e6ede9014" x="205.465238" y="215.02" style="stroke: #000000; stroke-width: 0.7"/>
      </g>
     </g>
     <g id="text_3">
      <text style="font-size: 6.5px; font-family: 'Arial', 'Helvetica', 'DejaVu Sans', sans-serif; text-anchor: middle" x="205.465238" y="226.458984" transform="rotate(-0 205.465238 226.458984)">0.4</text>
     </g>
    </g>
    <g id="xtick_4">
     <g id="line2d_4">
      <g>
       <use xlink:href="#m5e6ede9014" x="278.269417" y="215.02" style="stroke: #000000; stroke-width: 0.7"/>
      </g>
     </g>
     <g id="text_4">
      <text style="font-size: 6.5px; font-family: 'Arial', 'Helvetica', 'DejaVu Sans', sans-serif; text-anchor: middle" x="278.269417" y="226.458984" transform="rotate(-0 278.269417 226.458984)">0.6</text>
     </g>
    </g>
    <g id="xtick_5">
     <g id="line2d_5">
      <g>
       <use xlink:href="#m5e6ede9014" x="351.073596" y="215.02" style="stroke: #000000; stroke-width: 0.7"/>
      </g>
     </g>
     <g id="text_5">
      <text style="font-size: 6.5px; font-family: 'Arial', 'Helvetica', 'DejaVu Sans', sans-serif; text-anchor: middle" x="351.073596" y="226.458984" transform="rotate(-0 351.073596 226.458984)">0.8</text>
     </g>
    </g>
    <g id="xtick_6">
     <g id="line2d_6">
      <g>
       <use xlink:href="#m5e6ede9014" x="423.877775" y="215.02" style="stroke: #000000; stroke-width: 0.7"/>
      </g>
     </g>
     <g id="text_6">
      <text style="font-size: 6.5px; font-family: 'Arial', 'Helvetica', 'DejaVu Sans', sans-serif; text-anchor: middle" x="423.877775" y="226.458984" transform="rotate(-0 423.877775 226.458984)">1.0</text>
     </g>
    </g>
    <g id="text_7">
     <text style="font-size: 8px; font-family: 'Arial', 'Helvetica', 'DejaVu Sans', sans-serif; text-anchor: middle" x="241.867328" y="237.889531" transform="rotate(-0 241.867328 237.889531)">Normalized optimization progress</text>
    </g>
   </g>
   <g id="matplotlib.axis_2">
    <g id="ytick_1">
     <g id="line2d_7">
      <defs>
       <path id="m6d40a29b14" d="M 0 0 
L -3 0 
" style="stroke: #000000; stroke-width: 0.7"/>
      </defs>
      <g>
       <use xlink:href="#m6d40a29b14" x="59.856881" y="197.810675" style="stroke: #000000; stroke-width: 0.7"/>
      </g>
     </g>
     <g id="text_8">
      <text style="font-size: 6.5px; font-family: 'Arial', 'Helvetica', 'DejaVu Sans', sans-serif; text-anchor: end" x="53.356881" y="200.280167" transform="rotate(-0 53.356881 200.280167)">0.2</text>
     </g>
    </g>
    <g id="ytick_2">
     <g id="line2d_8">
      <g>
       <use xlink:href="#m6d40a29b14" x="59.856881" y="152.648864" style="stroke: #000000; stroke-width: 0.7"/>
      </g>
     </g>
     <g id="text_9">
      <text style="font-size: 6.5px; font-family: 'Arial', 'Helvetica', 'DejaVu Sans', sans-serif; text-anchor: end" x="53.356881" y="155.118356" transform="rotate(-0 53.356881 155.118356)">0.4</text>
     </g>
    </g>
    <g id="ytick_3">
     <g id="line2d_9">
      <g>
       <use xlink:href="#m6d40a29b14" x="59.856881" y="107.487052" style="stroke: #000000; stroke-width: 0.7"/>
      </g>
     </g>
     <g id="text_10">
      <text style="font-size: 6.5px; font-family: 'Arial', 'Helvetica', 'DejaVu Sans', sans-serif; text-anchor: end" x="53.356881" y="109.956544" transform="rotate(-0 53.356881 109.956544)">0.6</text>
     </g>
    </g>
    <g id="ytick_4">
     <g id="line2d_10">
      <g>
       <use xlink:href="#m6d40a29b14" x="59.856881" y="62.325241" style="stroke: #000000; stroke-width: 0.7"/>
      </g>
     </g>
     <g id="text_11">
      <text style="font-size: 6.5px; font-family: 'Arial', 'Helvetica', 'DejaVu Sans', sans-serif; text-anchor: end" x="53.356881" y="64.794733" transform="rotate(-0 53.356881 64.794733)">0.8</text>
     </g>
    </g>
    <g id="ytick_5">
     <g id="line2d_11">
      <g>
       <use xlink:href="#m6d40a29b14" x="59.856881" y="17.163429" style="stroke: #000000; stroke-width: 0.7"/>
      </g>
     </g>
     <g id="text_12">
      <text style="font-size: 6.5px; font-family: 'Arial', 'Helvetica', 'DejaVu Sans', sans-serif; text-anchor: end" x="53.356881" y="19.632921" transform="rotate(-0 53.356881 19.632921)">1.0</text>
     </g>
    </g>
   </g>
   <g id="line2d_12">
    <path d="M 59.856881 17.163429 
L 64.225131 17.163429 
L 64.953173 19.925231 
L 65.681215 26.537018 
L 66.409257 26.537018 
L 67.137298 44.918583 
L 86.066385 44.918583 
L 86.794427 75.346359 
L 123.924558 75.346359 
L 124.6526 80.247921 
L 159.598606 80.247921 
L 160.326647 82.390925 
L 169.063149 82.390925 
L 169.791191 108.112071 
L 190.176361 108.112071 
L 190.904403 114.225494 
L 423.877775 114.225494 
L 423.877775 114.225494 
" clip-path="url(#pc28a29bb79)" style="fill: none; stroke: #b8b8b8; stroke-opacity: 0.28; stroke-width: 0.75; stroke-linecap: square"/>
   </g>
   <g id="line2d_13">
    <path d="M 59.856881 17.163429 
L 62.769048 17.163429 
L 63.497089 33.205767 
L 64.225131 33.205767 
L 64.953173 46.352331 
L 74.417716 46.352331 
L 75.145758 60.512867 
L 86.066385 60.512867 
L 86.794427 71.212564 
L 131.933018 71.212564 
L 132.661059 93.958624 
L 372.91485 93.958624 
L 373.642892 98.077763 
L 423.877775 98.077763 
L 423.877775 98.077763 
" clip-path="url(#pc28a29bb79)" style="fill: none; stroke: #b8b8b8; stroke-opacity: 0.28; stroke-width: 0.75; stroke-linecap: square"/>
   </g>
   <g id="line2d_14">
    <path d="M 59.856881 17.163429 
L 78.785967 17.163429 
L 79.514009 65.466493 
L 90.434636 65.466493 
L 91.162677 69.888922 
L 162.510773 69.888922 
L 163.238815 95.910475 
L 163.966856 105.644933 
L 232.402785 105.644933 
L 233.130826 89.94564 
L 304.478922 89.94564 
L 305.206963 133.048773 
L 307.391089 133.048773 
L 308.119131 116.928212 
L 423.877775 116.928212 
L 423.877775 116.928212 
" clip-path="url(#pc28a29bb79)" style="fill: none; stroke: #b8b8b8; stroke-opacity: 0.28; stroke-width: 0.75; stroke-linecap: square"/>
   </g>
   <g id="line2d_15">
    <path d="M 59.856881 17.163429 
L 70.777507 17.163429 
L 71.505549 64.826363 
L 72.233591 64.826363 
L 72.961633 61.303908 
L 124.6526 61.303908 
L 125.380642 81.072961 
L 133.389101 81.072961 
L 134.117143 86.721804 
L 285.549835 86.721804 
L 286.277877 105.421637 
L 302.294796 105.421637 
L 303.022838 120.765846 
L 340.152969 120.765846 
L 340.881011 118.007772 
L 423.877775 118.007772 
L 423.877775 118.007772 
" clip-path="url(#pc28a29bb79)" style="fill: none; stroke: #b8b8b8; stroke-opacity: 0.28; stroke-width: 0.75; stroke-linecap: square"/>
   </g>
   <g id="line2d_16">
    <path d="M 59.856881 17.163429 
L 61.312964 17.163429 
L 62.041006 121.789146 
L 72.233591 121.789146 
L 72.961633 128.326283 
L 76.601842 128.326283 
L 77.329883 131.014261 
L 102.811346 131.014261 
L 103.539388 157.805992 
L 104.26743 158.281241 
L 115.916098 158.281241 
L 116.64414 152.880433 
L 138.485394 152.880433 
L 139.213436 158.281241 
L 185.80811 158.281241 
L 186.536152 159.188751 
L 281.181584 159.188751 
L 281.909626 162.749304 
L 315.399548 162.749304 
L 316.12759 166.024698 
L 394.756103 166.024698 
L 395.484145 163.734544 
L 423.877775 163.734544 
L 423.877775 163.734544 
" clip-path="url(#pc28a29bb79)" style="fill: none; stroke: #b8b8b8; stroke-opacity: 0.28; stroke-width: 0.75; stroke-linecap: square"/>
   </g>
   <g id="line2d_17">
    <path d="M 59.856881 17.163429 
L 60.584922 46.037813 
L 84.610301 46.037813 
L 85.338343 61.810481 
L 96.987012 61.810481 
L 97.715054 108.472445 
L 110.091764 108.472445 
L 110.819806 115.442251 
L 233.130826 115.442251 
L 233.858868 144.420257 
L 420.965608 144.420257 
L 421.69365 130.619651 
L 423.877775 130.619651 
L 423.877775 130.619651 
" clip-path="url(#pc28a29bb79)" style="fill: none; stroke: #b8b8b8; stroke-opacity: 0.28; stroke-width: 0.75; stroke-linecap: square"/>
   </g>
   <g id="line2d_18">
    <path d="M 59.856881 17.163429 
L 66.409257 17.163429 
L 67.137298 62.159892 
L 73.689675 62.159892 
L 74.417716 108.01782 
L 83.88226 108.01782 
L 84.610301 110.280513 
L 88.25051 110.280513 
L 88.978552 117.614187 
L 91.162677 117.614187 
L 91.890719 128.306725 
L 96.987012 128.306725 
L 97.715054 134.882364 
L 167.607065 134.882364 
L 168.335107 162.653974 
L 192.360486 162.653974 
L 193.088528 164.49461 
L 196.000695 164.49461 
L 196.728737 164.740377 
L 242.59537 164.740377 
L 243.323411 158.958839 
L 281.909626 158.958839 
L 282.637668 161.192336 
L 423.877775 161.192336 
L 423.877775 161.192336 
" clip-path="url(#pc28a29bb79)" style="fill: none; stroke: #b8b8b8; stroke-opacity: 0.28; stroke-width: 0.75; stroke-linecap: square"/>
   </g>
   <g id="line2d_19">
    <path d="M 59.856881 17.163429 
L 110.091764 17.163429 
L 110.819806 59.554836 
L 145.03777 59.554836 
L 145.765812 127.636175 
L 164.694898 127.636175 
L 165.42294 161.920812 
L 208.377405 161.920812 
L 209.105447 177.604345 
L 423.877775 177.604345 
L 423.877775 177.604345 
" clip-path="url(#pc28a29bb79)" style="fill: none; stroke: #b8b8b8; stroke-opacity: 0.28; stroke-width: 0.75; stroke-linecap: square"/>
   </g>
   <g id="line2d_20">
    <path d="M 59.856881 17.163429 
L 60.584922 18.199296 
L 71.505549 18.199296 
L 72.233591 26.724138 
L 87.522468 26.724138 
L 88.25051 45.883348 
L 88.978552 59.068787 
L 89.706594 59.068787 
L 90.434636 78.763291 
L 96.987012 78.763291 
L 97.715054 108.198602 
L 105.723513 108.198602 
L 106.451555 100.723801 
L 113.731973 100.723801 
L 114.460015 107.976095 
L 121.012391 107.976095 
L 121.740433 100.923822 
L 141.397561 100.923822 
L 142.125603 107.976095 
L 145.765812 107.976095 
L 146.493853 108.198602 
L 217.113907 108.198602 
L 217.841949 111.409625 
L 423.877775 111.409625 
L 423.877775 111.409625 
" clip-path="url(#pc28a29bb79)" style="fill: none; stroke: #b8b8b8; stroke-opacity: 0.28; stroke-width: 0.75; stroke-linecap: square"/>
   </g>
   <g id="line2d_21">
    <path d="M 59.856881 17.163429 
L 71.505549 17.163429 
L 72.233591 77.169431 
L 108.63568 77.169431 
L 109.363722 99.081644 
L 112.275889 99.081644 
L 113.003931 101.275686 
L 114.460015 101.275686 
L 115.188056 104.130716 
L 175.615525 104.130716 
L 176.343567 109.402986 
L 192.360486 109.402986 
L 193.088528 113.628939 
L 249.875787 113.628939 
L 250.603829 121.95978 
L 299.382629 121.95978 
L 300.110671 120.18787 
L 305.935005 120.18787 
L 306.663047 121.642209 
L 307.391089 121.642209 
L 308.119131 121.95978 
L 374.370933 121.95978 
L 375.098975 141.319439 
L 383.835477 141.319439 
L 384.563518 146.025585 
L 423.877775 146.025585 
L 423.877775 146.025585 
" clip-path="url(#pc28a29bb79)" style="fill: none; stroke: #b8b8b8; stroke-opacity: 0.28; stroke-width: 0.75; stroke-linecap: square"/>
   </g>
   <g id="line2d_22">
    <path d="M 59.856881 17.163429 
L 63.497089 17.163429 
L 64.225131 35.416025 
L 71.505549 35.416025 
L 72.233591 123.110728 
L 72.961633 158.29271 
L 178.527692 158.29271 
L 179.255734 167.538002 
L 190.176361 167.538002 
L 190.904403 171.546594 
L 194.544611 171.546594 
L 195.272653 199.626385 
L 198.912862 199.626385 
L 199.640904 193.023212 
L 237.499077 193.023212 
L 238.227119 205.573636 
L 340.152969 205.573636 
L 340.881011 203.632662 
L 345.977304 203.632662 
L 346.705345 203.84665 
L 423.877775 203.84665 
L 423.877775 203.84665 
" clip-path="url(#pc28a29bb79)" style="fill: none; stroke: #b8b8b8; stroke-opacity: 0.28; stroke-width: 0.75; stroke-linecap: square"/>
   </g>
   <g id="line2d_23">
    <path d="M 59.856881 17.163429 
L 66.409257 17.163429 
L 67.137298 44.717687 
L 75.145758 44.717687 
L 75.8738 54.265072 
L 109.363722 54.265072 
L 110.091764 94.760726 
L 148.677979 94.760726 
L 149.406021 106.095435 
L 209.105447 106.095435 
L 209.833489 107.530228 
L 423.877775 107.530228 
L 423.877775 107.530228 
" clip-path="url(#pc28a29bb79)" style="fill: none; stroke: #b8b8b8; stroke-opacity: 0.28; stroke-width: 0.75; stroke-linecap: square"/>
   </g>
   <g id="line2d_24">
    <path d="M 59.856881 17.163429 
L 64.225131 17.163429 
L 64.953173 16.646364 
L 94.074845 16.646364 
L 94.802886 30.303309 
L 113.731973 30.303309 
L 114.460015 86.250161 
L 152.318188 86.250161 
L 153.04623 73.559928 
L 193.81657 73.559928 
L 194.544611 83.091612 
L 204.009155 83.091612 
L 204.737197 85.542429 
L 258.612289 85.542429 
L 259.340331 103.273795 
L 279.725501 103.273795 
L 280.453543 100.775521 
L 423.877775 100.775521 
L 423.877775 100.775521 
" clip-path="url(#pc28a29bb79)" style="fill: none; stroke: #b8b8b8; stroke-opacity: 0.28; stroke-width: 0.75; stroke-linecap: square"/>
   </g>
   <g id="line2d_25">
    <path d="M 59.856881 17.163429 
L 76.601842 17.163429 
L 77.329883 23.662415 
L 91.890719 23.662415 
L 92.618761 59.318001 
L 113.731973 59.318001 
L 114.460015 80.563521 
L 126.108683 80.563521 
L 126.836725 108.051878 
L 181.439859 108.051878 
L 182.167901 109.875184 
L 208.377405 109.875184 
L 209.105447 114.663584 
L 225.122367 114.663584 
L 225.850408 121.099373 
L 292.102211 121.099373 
L 292.830253 120.401077 
L 335.784719 120.401077 
L 336.51276 119.642745 
L 388.931769 119.642745 
L 389.659811 120.401077 
L 423.877775 120.401077 
L 423.877775 120.401077 
" clip-path="url(#pc28a29bb79)" style="fill: none; stroke: #b8b8b8; stroke-opacity: 0.28; stroke-width: 0.75; stroke-linecap: square"/>
   </g>
   <g id="line2d_26">
    <path d="M 59.856881 17.163429 
L 67.137298 17.163429 
L 67.86534 76.418016 
L 91.162677 76.418016 
L 91.890719 92.958351 
L 115.188056 92.958351 
L 115.916098 109.628034 
L 122.468474 109.628034 
L 123.196516 94.217086 
L 152.318188 94.217086 
L 153.04623 108.414767 
L 158.870564 108.414767 
L 159.598606 111.724827 
L 182.167901 111.724827 
L 182.895943 120.99785 
L 202.553071 120.99785 
L 203.281113 138.668411 
L 210.561531 138.668411 
L 211.289573 140.117832 
L 220.026074 140.117832 
L 220.754116 143.805348 
L 423.877775 143.805348 
L 423.877775 143.805348 
" clip-path="url(#pc28a29bb79)" style="fill: none; stroke: #b8b8b8; stroke-opacity: 0.28; stroke-width: 0.75; stroke-linecap: square"/>
   </g>
   <g id="line2d_27">
    <path d="M 59.856881 17.163429 
L 66.409257 17.163429 
L 67.137298 90.875061 
L 75.145758 90.875061 
L 75.8738 145.52741 
L 82.426176 145.52741 
L 83.154218 155.806154 
L 129.02085 155.806154 
L 129.748892 161.904866 
L 150.862104 161.904866 
L 151.590146 167.601407 
L 158.142522 167.601407 
L 158.870564 167.170748 
L 352.52968 167.170748 
L 353.257722 186.786993 
L 423.877775 186.786993 
L 423.877775 186.786993 
" clip-path="url(#pc28a29bb79)" style="fill: none; stroke: #b8b8b8; stroke-opacity: 0.28; stroke-width: 0.75; stroke-linecap: square"/>
   </g>
   <g id="line2d_28">
    <path d="M 59.856881 17.163429 
L 62.769048 17.163429 
L 63.497089 23.585592 
L 65.681215 23.585592 
L 66.409257 41.108502 
L 70.777507 41.108502 
L 71.505549 89.612024 
L 78.057925 89.612024 
L 78.785967 96.632148 
L 94.802886 96.632148 
L 95.530928 108.330684 
L 104.26743 108.330684 
L 104.995471 134.868939 
L 105.723513 125.005985 
L 125.380642 125.005985 
L 126.108683 140.158712 
L 131.933018 140.158712 
L 132.661059 156.763892 
L 134.117143 156.763892 
L 134.845185 148.007406 
L 139.941477 148.007406 
L 140.669519 157.228251 
L 163.238815 157.228251 
L 163.966856 152.011541 
L 176.343567 152.011541 
L 177.071609 156.185192 
L 178.527692 156.185192 
L 179.255734 165.058211 
L 227.306492 165.058211 
L 228.034534 173.693219 
L 229.490617 173.693219 
L 230.218659 154.134855 
L 266.620749 154.134855 
L 267.34879 170.001782 
L 423.877775 170.001782 
L 423.877775 170.001782 
" clip-path="url(#pc28a29bb79)" style="fill: none; stroke: #b8b8b8; stroke-opacity: 0.28; stroke-width: 0.75; stroke-linecap: square"/>
   </g>
   <g id="line2d_29">
    <path d="M 59.856881 17.163429 
L 68.593382 17.163429 
L 69.321424 85.880869 
L 78.785967 85.880869 
L 79.514009 86.122874 
L 86.794427 86.122874 
L 87.522468 87.918859 
L 91.890719 87.918859 
L 92.618761 113.695518 
L 97.715054 113.695518 
L 98.443095 126.307291 
L 121.012391 126.307291 
L 121.740433 140.086164 
L 134.117143 140.086164 
L 134.845185 148.138306 
L 180.711818 148.138306 
L 181.439859 148.404942 
L 212.745656 148.404942 
L 213.473698 153.827888 
L 223.666283 153.827888 
L 224.394325 154.529202 
L 230.218659 154.529202 
L 230.946701 161.601324 
L 335.784719 161.601623 
L 336.51276 163.470205 
L 370.002683 163.470205 
L 370.730724 155.758371 
L 379.467226 155.758371 
L 380.195268 162.43601 
L 419.509524 162.43601 
L 420.237566 163.232584 
L 423.877775 163.232584 
L 423.877775 163.232584 
" clip-path="url(#pc28a29bb79)" style="fill: none; stroke: #b8b8b8; stroke-opacity: 0.28; stroke-width: 0.75; stroke-linecap: square"/>
   </g>
   <g id="line2d_30">
    <path d="M 59.856881 17.163429 
L 91.162677 17.163429 
L 91.890719 84.819007 
L 102.083304 84.819007 
L 102.811346 119.808112 
L 109.363722 119.808112 
L 110.091764 141.520684 
L 118.100224 141.520684 
L 118.828265 158.161348 
L 130.476934 158.161348 
L 131.204976 149.842957 
L 139.941477 149.842957 
L 140.669519 150.569558 
L 145.765812 150.569558 
L 146.493853 196.748288 
L 183.623985 196.748288 
L 184.352026 196.417285 
L 423.877775 196.417285 
L 423.877775 196.417285 
" clip-path="url(#pc28a29bb79)" style="fill: none; stroke: #b8b8b8; stroke-opacity: 0.28; stroke-width: 0.75; stroke-linecap: square"/>
   </g>
   <g id="line2d_31">
    <path d="M 59.856881 17.163429 
L 60.584922 18.737653 
L 61.312964 18.737653 
L 62.041006 24.24427 
L 62.769048 24.24427 
L 63.497089 25.426612 
L 64.953173 27.197343 
L 65.681215 27.545332 
L 66.409257 28.46759 
L 67.137298 37.13306 
L 67.86534 40.251722 
L 68.593382 40.251722 
L 69.321424 43.86843 
L 70.777507 43.86843 
L 71.505549 48.929822 
L 72.233591 57.152219 
L 72.961633 59.16257 
L 73.689675 59.16257 
L 74.417716 61.576145 
L 75.145758 62.321436 
L 75.8738 65.70037 
L 76.601842 65.70037 
L 77.329883 66.183894 
L 78.057925 66.183894 
L 78.785967 66.553374 
L 79.514009 69.108378 
L 82.426176 69.108378 
L 83.154218 69.649365 
L 83.88226 69.649365 
L 84.610301 69.768454 
L 85.338343 70.598594 
L 86.066385 70.598594 
L 86.794427 72.763198 
L 87.522468 72.857723 
L 88.978552 74.946056 
L 89.706594 74.946056 
L 90.434636 75.982609 
L 91.162677 76.215368 
L 91.890719 81.209497 
L 92.618761 84.442773 
L 94.074845 84.442773 
L 95.530928 85.777272 
L 96.987012 85.777272 
L 97.715054 90.128479 
L 98.443095 90.792256 
L 102.083304 90.792256 
L 102.811346 92.633788 
L 103.539388 94.043879 
L 104.26743 94.068892 
L 104.995471 95.465642 
L 106.451555 94.553129 
L 108.63568 94.553129 
L 109.363722 95.706403 
L 110.091764 98.980521 
L 110.819806 101.578479 
L 112.275889 101.578479 
L 113.003931 101.693955 
L 113.731973 101.693955 
L 114.460015 106.138411 
L 115.188056 106.288676 
L 115.916098 107.166027 
L 116.64414 106.881774 
L 118.100224 106.881774 
L 118.828265 107.757599 
L 121.012391 107.757599 
L 121.740433 108.11163 
L 122.468474 108.11163 
L 123.196516 107.300528 
L 123.924558 107.300528 
L 124.6526 107.558505 
L 125.380642 108.598981 
L 126.108683 109.396493 
L 126.836725 110.843249 
L 129.02085 110.843249 
L 129.748892 111.164234 
L 130.476934 111.164234 
L 131.204976 110.726424 
L 131.933018 110.726424 
L 132.661059 112.797542 
L 133.389101 112.797542 
L 134.117143 113.094849 
L 137.02931 113.057778 
L 138.485394 113.057778 
L 139.213436 113.342031 
L 139.941477 113.342031 
L 140.669519 113.865581 
L 141.397561 113.865581 
L 142.125603 114.236753 
L 145.03777 114.236753 
L 145.765812 117.819982 
L 146.493853 120.262152 
L 148.677979 120.262152 
L 149.406021 120.858716 
L 150.862104 120.858716 
L 151.590146 121.158534 
L 158.870564 121.215207 
L 160.326647 121.50221 
L 162.510773 121.50221 
L 163.238815 122.871766 
L 163.966856 123.109542 
L 164.694898 123.109542 
L 165.42294 124.913996 
L 167.607065 124.913996 
L 168.335107 126.37566 
L 169.063149 126.37566 
L 169.791191 127.729405 
L 175.615525 127.729405 
L 177.071609 128.226558 
L 178.527692 128.226558 
L 179.255734 129.180154 
L 182.167901 129.290151 
L 182.895943 129.778204 
L 190.176361 129.808547 
L 190.904403 130.341285 
L 192.360486 130.341285 
L 193.088528 130.660579 
L 193.81657 130.660579 
L 194.544611 131.162246 
L 195.272653 132.64013 
L 198.912862 132.653065 
L 199.640904 132.30553 
L 202.553071 132.30553 
L 203.281113 133.235559 
L 204.009155 133.235559 
L 204.737197 133.36455 
L 208.377405 133.36455 
L 209.105447 134.44202 
L 211.289573 134.593821 
L 212.745656 134.593821 
L 213.473698 134.879239 
L 217.113907 134.879239 
L 217.841949 135.04824 
L 220.026074 135.04824 
L 220.754116 135.24232 
L 225.122367 135.279231 
L 225.850408 135.617957 
L 227.306492 135.617957 
L 228.034534 136.072431 
L 229.490617 136.072431 
L 230.218659 135.043043 
L 230.946701 135.41526 
L 232.402785 135.41526 
L 233.130826 134.588982 
L 233.858868 136.11414 
L 237.499077 136.11414 
L 238.227119 136.774689 
L 242.59537 136.774689 
L 243.323411 136.470397 
L 249.875787 136.470397 
L 250.603829 136.908862 
L 258.612289 136.908862 
L 259.340331 137.842092 
L 266.620749 137.842092 
L 267.34879 138.677194 
L 279.725501 138.677194 
L 280.453543 138.545705 
L 281.181584 138.545705 
L 282.637668 138.850655 
L 285.549835 138.850655 
L 286.277877 139.834857 
L 299.382629 139.798105 
L 300.838713 139.704846 
L 302.294796 139.704846 
L 303.022838 140.512436 
L 304.478922 140.512436 
L 305.206963 142.781022 
L 307.391089 142.857582 
L 308.119131 142.025846 
L 315.399548 142.025846 
L 316.12759 142.198235 
L 340.152969 142.256669 
L 340.881011 142.009351 
L 352.52968 142.020613 
L 353.257722 143.053047 
L 370.002683 143.053047 
L 370.730724 142.647161 
L 372.91485 142.647161 
L 373.642892 142.863958 
L 374.370933 142.863958 
L 375.098975 143.882887 
L 379.467226 143.882887 
L 380.195268 144.234342 
L 383.835477 144.234342 
L 384.563518 144.482034 
L 420.965608 144.443337 
L 421.69365 143.716989 
L 423.877775 143.716989 
L 423.877775 143.716989 
" clip-path="url(#pc28a29bb79)" style="fill: none; stroke: #b2182b; stroke-width: 2.5; stroke-linecap: square"/>
   </g>
   <g id="line2d_32">
    <path d="M 59.856881 17.163429 
L 423.877775 17.163429 
" clip-path="url(#pc28a29bb79)" style="fill: none; stroke-dasharray: 2.96,1.28; stroke-dashoffset: 0; stroke: #555555; stroke-opacity: 0.7; stroke-width: 0.8"/>
   </g>
   <g id="patch_3">
    <path d="M 59.856881 215.02 
L 59.856881 7.2 
" style="fill: none; stroke: #222222; stroke-width: 0.8; stroke-linejoin: miter; stroke-linecap: square"/>
   </g>
   <g id="patch_4">
    <path d="M 59.856881 215.02 
L 423.877775 215.02 
" style="fill: none; stroke: #222222; stroke-width: 0.8; stroke-linejoin: miter; stroke-linecap: square"/>
   </g>
   <g id="text_13">
    <!-- $\frac{\max_i |\kappa_{g,i}|}{\max_i |\kappa_{g,i,0}|}$ -->
    <g transform="translate(7.2 113.5825)">
     <text>
      <tspan x="0" y="5.055469" style="font-size: 8.05px; font-family: 'cmr10'">m</tspan>
      <tspan x="3" y="-9.9625" style="font-size: 8.05px; font-family: 'cmr10'">m</tspan>
      <tspan x="6.705713" y="5.055469" style="font-size: 8.05px; font-family: 'cmr10'">a</tspan>
      <tspan x="9.705713" y="-9.9625" style="font-size: 8.05px; font-family: 'cmr10'">a</tspan>
      <tspan x="10.730713" y="5.055469" style="font-size: 8.05px; font-family: 'cmr10'">x</tspan>
      <tspan x="13.730713" y="-9.9625" style="font-size: 8.05px; font-family: 'cmr10'">x</tspan>
      <tspan x="7" y="10.380938" style="font-size: 5.635px; font-family: 'cmmi10'">i</tspan>
      <tspan x="10" y="-4.637031" style="font-size: 5.635px; font-family: 'cmmi10'">i</tspan>
      <tspan x="21.83877" y="6.424472" style="font-size: 5.635px; font-family: 'cmmi10'">g</tspan>
      <tspan x="24.526951" y="6.424472" style="font-size: 5.635px; font-family: 'cmmi10'">;</tspan>
      <tspan x="24.83877" y="-8.593497" style="font-size: 5.635px; font-family: 'cmmi10'">g</tspan>
      <tspan x="27.076458" y="6.424472" style="font-size: 5.635px; font-family: 'cmmi10'">i</tspan>
      <tspan x="27.526951" y="-8.593497" style="font-size: 5.635px; font-family: 'cmmi10'">;</tspan>
      <tspan x="29.016241" y="6.424472" style="font-size: 5.635px; font-family: 'cmmi10'">;</tspan>
      <tspan x="30.076458" y="-8.593497" style="font-size: 5.635px; font-family: 'cmmi10'">i</tspan>
      <tspan x="14.971899" y="5.055469" style="font-size: 8.05px; font-family: 'cmsy10'">j</tspan>
      <tspan x="17.971899" y="-9.9625" style="font-size: 8.05px; font-family: 'cmsy10'">j</tspan>
      <tspan x="33.707529" y="-9.9625" style="font-size: 8.05px; font-family: 'cmsy10'">j</tspan>
      <tspan x="36.074537" y="5.055469" style="font-size: 8.05px; font-family: 'cmsy10'">j</tspan>
      <tspan x="17.200586" y="5.055469" style="font-size: 8.05px; font-family: 'cmmi10'">∙</tspan>
      <tspan x="20.200586" y="-9.9625" style="font-size: 8.05px; font-family: 'cmmi10'">∙</tspan>
      <tspan x="31.565748" y="6.424472" style="font-size: 5.635px; font-family: 'cmr10'">0</tspan>
     </text>
     <rect x="0" y="-2.700781" width="38.303223" height="0.71875"/>
    </g>
   </g>
  </g>
 </g>
 <defs>
  <clipPath id="pc28a29bb79">
   <rect x="59.856881" y="7.2" width="364.020895" height="207.82"/>
  </clipPath>
 </defs>
</svg>
