<?xml version="1.0" encoding="utf-8" standalone="no"?>
<!DOCTYPE svg PUBLIC "-//W3C//DTD SVG 1.1//EN"
  "http://www.w3.org/Graphics/SVG/1.1/DTD/svg11.dtd">
<svg xmlns:xlink="http://www.w3.org/1999/xlink" width="377.362375pt" height="203.688688pt" viewBox="0 0 377.362375 203.688688" xmlns="http://www.w3.org/2000/svg" version="1.1">
 <metadata>
  <rdf:RDF xmlns:dc="http://purl.org/dc/elements/1.1/" xmlns:cc="http://creativecommons.org/ns#" xmlns:rdf="http://www.w3.org/1999/02/22-rdf-syntax-ns#">
   <cc:Work>
    <dc:type rdf:resource="http://purl.org/dc/dcmitype/StillImage"/>
    <dc:date>2026-07-09T18:34:53.083069</dc:date>
    <dc:format>image/svg+xml</dc:format>
    <dc:creator>
     <cc:Agent>
      <dc:title>Matplotlib v3.10.8, https://matplotlib.org/</dc:title>
     </cc:Agent>
    </dc:creator>
   </cc:Work>
  </rdf:RDF>
 </metadata>
 <defs>
  <style type="text/css">*{stroke-linejoin: round; stroke-linecap: butt}</style>
 </defs>
 <g id="figure_1">
  <g id="patch_1">
   <path d="M 0 203.688688 
L 377.362375 203.688688 
L 377.362375 0 
L 0 0 
z
" style="fill: #ffffff"/>
  </g>
  <g id="axes_1">
   <g id="patch_2">
    <path d="M 27.015687 173.52 
L 361.815688 173.52 
L 361.815688 7.2 
L 27.015687 7.2 
z
" style="fill: #ffffff"/>
   </g>
   <g id="FillBetweenPolyCollection_1">
    <defs>
     <path id="mb8fd15dc5e" d="M 42.233869 -188.928688 
L 42.233869 -86.455423 
L 43.755687 -87.922117 
L 45.277506 -89.413996 
L 46.799324 -90.92967 
L 48.321142 -92.467531 
L 49.84296 -94.025727 
L 51.364778 -95.602148 
L 52.886597 -97.194393 
L 54.408415 -98.799746 
L 55.930233 -100.415144 
L 57.452051 -102.03714 
L 58.973869 -103.661867 
L 60.495687 -105.284994 
L 62.017506 -106.901674 
L 63.539324 -108.506494 
L 65.061142 -110.093409 
L 66.58296 -111.655678 
L 68.104778 -113.185792 
L 69.626597 -114.675394 
L 71.148415 -116.115205 
L 72.670233 -117.494949 
L 74.192051 -118.803294 
L 75.713869 -120.02782 
L 77.235687 -121.155042 
L 78.757506 -122.170496 
L 80.279324 -123.058948 
L 81.801142 -123.80474 
L 83.32296 -124.392317 
L 84.844778 -124.806931 
L 86.366597 -125.03551 
L 87.888415 -125.067603 
L 89.410233 -124.896266 
L 90.932051 -124.518746 
L 92.453869 -123.936805 
L 93.975687 -123.156621 
L 95.497506 -122.188273 
L 97.019324 -121.044941 
L 98.541142 -119.741952 
L 100.06296 -118.295852 
L 101.584778 -116.723591 
L 103.106597 -115.041893 
L 104.628415 -113.266821 
L 106.150233 -111.413499 
L 107.672051 -109.495978 
L 109.193869 -107.52719 
L 110.715687 -105.518966 
L 112.237506 -103.482098 
L 113.759324 -101.426412 
L 115.281142 -99.360857 
L 116.80296 -97.293588 
L 118.324778 -95.232051 
L 119.846597 -93.183056 
L 121.368415 -91.152849 
L 122.890233 -89.147171 
L 124.412051 -87.171314 
L 125.933869 -85.23017 
L 127.455687 -83.328272 
L 128.977506 -81.469834 
L 130.499324 -79.658782 
L 132.021142 -77.898786 
L 133.54296 -76.193282 
L 135.064778 -74.5455 
L 136.586597 -72.958479 
L 138.108415 -71.435085 
L 139.630233 -69.97803 
L 141.152051 -68.58988 
L 142.673869 -67.273072 
L 144.195687 -66.029916 
L 145.717506 -64.862611 
L 147.239324 -63.773244 
L 148.761142 -62.7638 
L 150.28296 -61.836164 
L 151.804778 -60.992121 
L 153.326597 -60.233361 
L 154.848415 -59.561475 
L 156.370233 -58.977957 
L 157.892051 -58.4842 
L 159.413869 -58.081492 
L 160.935687 -57.771015 
L 162.457506 -57.553838 
L 163.979324 -57.430914 
L 165.501142 -57.40307 
L 167.02296 -57.471007 
L 168.544778 -57.635289 
L 170.066597 -57.896337 
L 171.588415 -58.254425 
L 173.110233 -58.709671 
L 174.632051 -59.262031 
L 176.153869 -59.911296 
L 177.675687 -60.657077 
L 179.197506 -61.498807 
L 180.719324 -62.435726 
L 182.241142 -63.466874 
L 183.76296 -64.591073 
L 185.284778 -65.80691 
L 186.806597 -67.112699 
L 188.328415 -68.506434 
L 189.850233 -69.985707 
L 191.372051 -71.547571 
L 192.893869 -73.188278 
L 194.415687 -74.860386 
L 195.937506 -73.079788 
L 197.459324 -71.299884 
L 198.981142 -69.565157 
L 200.50296 -67.877278 
L 202.024778 -66.237654 
L 203.546597 -64.647508 
L 205.068415 -63.107877 
L 206.590233 -61.619617 
L 208.112051 -60.183398 
L 209.633869 -58.799706 
L 211.155687 -57.468843 
L 212.677506 -56.190938 
L 214.199324 -54.965945 
L 215.721142 -53.793659 
L 217.24296 -52.673718 
L 218.764778 -51.605614 
L 220.286597 -50.588706 
L 221.808415 -49.622227 
L 223.330233 -48.705297 
L 224.852051 -47.836932 
L 226.373869 -47.016056 
L 227.895688 -46.241511 
L 229.417506 -45.512067 
L 230.939324 -44.826433 
L 232.461142 -44.183267 
L 233.98296 -43.581181 
L 235.504778 -43.018756 
L 237.026597 -42.494546 
L 238.548415 -42.007087 
L 240.070233 -41.554903 
L 241.592051 -41.136514 
L 243.113869 -40.750443 
L 244.635687 -40.395219 
L 246.157506 -40.069384 
L 247.679324 -39.771497 
L 249.201142 -39.500138 
L 250.72296 -39.253912 
L 252.244778 -39.031454 
L 253.766597 -38.831427 
L 255.288415 -38.652531 
L 256.810233 -38.493501 
L 258.332051 -38.353108 
L 259.853869 -38.230165 
L 261.375688 -38.123523 
L 262.897506 -38.032076 
L 264.419324 -37.954759 
L 265.941142 -37.89055 
L 267.46296 -37.838469 
L 268.984778 -37.797581 
L 270.506597 -37.766989 
L 272.028415 -37.745843 
L 273.550233 -37.733333 
L 275.072051 -37.728688 
L 276.593869 -37.731179 
L 278.115687 -37.740119 
L 279.637506 -37.754856 
L 281.159324 -37.774776 
L 282.681142 -37.799306 
L 284.20296 -37.827902 
L 285.724778 -37.86006 
L 287.246597 -37.895306 
L 288.768415 -37.933199 
L 290.290233 -37.973329 
L 291.812051 -38.015316 
L 293.333869 -38.058807 
L 294.855687 -38.103476 
L 296.377506 -38.149024 
L 297.899324 -38.195177 
L 299.421142 -38.241683 
L 300.94296 -38.288312 
L 302.464778 -38.334856 
L 303.986597 -38.381127 
L 305.508415 -38.426954 
L 307.030233 -38.472186 
L 308.552051 -38.516687 
L 310.073869 -38.560337 
L 311.595687 -38.60303 
L 313.117506 -38.644675 
L 314.639324 -38.685192 
L 316.161142 -38.724514 
L 317.68296 -38.762584 
L 319.204778 -38.799357 
L 320.726597 -38.834794 
L 322.248415 -38.868868 
L 323.770233 -38.901558 
L 325.292051 -38.932851 
L 326.813869 -38.96274 
L 328.335688 -38.991224 
L 329.857506 -39.018309 
L 331.379324 -39.044004 
L 332.901142 -39.068323 
L 334.42296 -39.091285 
L 335.944778 -39.11291 
L 337.466597 -39.133224 
L 338.988415 -39.152253 
L 340.510233 -39.170028 
L 342.032051 -39.186581 
L 343.553869 -39.201944 
L 345.075687 -39.216153 
L 346.597506 -39.229244 
L 346.597506 -171.501938 
L 346.597506 -171.501938 
L 345.075687 -171.452771 
L 343.553869 -171.399834 
L 342.032051 -171.342909 
L 340.510233 -171.281764 
L 338.988415 -171.216157 
L 337.466597 -171.145836 
L 335.944778 -171.070536 
L 334.42296 -170.989977 
L 332.901142 -170.903872 
L 331.379324 -170.811915 
L 329.857506 -170.713791 
L 328.335688 -170.609168 
L 326.813869 -170.4977 
L 325.292051 -170.379027 
L 323.770233 -170.252774 
L 322.248415 -170.118548 
L 320.726597 -169.975942 
L 319.204778 -169.824531 
L 317.68296 -169.663874 
L 316.161142 -169.493511 
L 314.639324 -169.312966 
L 313.117506 -169.121743 
L 311.595687 -168.919328 
L 310.073869 -168.70519 
L 308.552051 -168.478775 
L 307.030233 -168.239514 
L 305.508415 -167.986814 
L 303.986597 -167.720065 
L 302.464778 -167.438637 
L 300.94296 -167.141877 
L 299.421142 -166.829116 
L 297.899324 -166.499663 
L 296.377506 -166.152805 
L 294.855687 -165.787813 
L 293.333869 -165.403936 
L 291.812051 -165.000405 
L 290.290233 -164.57643 
L 288.768415 -164.131207 
L 287.246597 -163.66391 
L 285.724778 -163.173699 
L 284.20296 -162.659718 
L 282.681142 -162.121097 
L 281.159324 -161.556949 
L 279.637506 -160.966379 
L 278.115687 -160.34848 
L 276.593869 -159.702336 
L 275.072051 -159.027025 
L 273.550233 -158.32162 
L 272.028415 -157.585191 
L 270.506597 -156.81681 
L 268.984778 -156.015552 
L 267.46296 -155.180499 
L 265.941142 -154.310741 
L 264.419324 -153.405385 
L 262.897506 -152.463554 
L 261.375688 -151.484392 
L 259.853869 -150.467074 
L 258.332051 -149.410802 
L 256.810233 -148.314821 
L 255.288415 -147.178414 
L 253.766597 -146.000917 
L 252.244778 -144.781722 
L 250.72296 -143.520283 
L 249.201142 -142.216125 
L 247.679324 -140.868852 
L 246.157506 -139.478154 
L 244.635687 -138.043817 
L 243.113869 -136.565732 
L 241.592051 -135.043903 
L 240.070233 -133.478459 
L 238.548415 -131.869664 
L 237.026597 -130.217926 
L 235.504778 -128.52381 
L 233.98296 -126.788048 
L 232.461142 -125.011552 
L 230.939324 -123.195423 
L 229.417506 -121.340967 
L 227.895688 -119.449702 
L 226.373869 -117.523374 
L 224.852051 -115.563966 
L 223.330233 -113.573712 
L 221.808415 -111.555102 
L 220.286597 -109.5109 
L 218.764778 -107.444146 
L 217.24296 -105.358166 
L 215.721142 -103.256582 
L 214.199324 -101.143311 
L 212.677506 -99.02257 
L 211.155687 -96.898877 
L 209.633869 -94.777044 
L 208.112051 -92.662177 
L 206.590233 -90.559656 
L 205.068415 -88.475127 
L 203.546597 -86.41448 
L 202.024778 -84.383822 
L 200.50296 -82.389445 
L 198.981142 -80.437794 
L 197.459324 -78.535427 
L 195.937506 -76.689058 
L 194.415687 -74.948062 
L 192.893869 -76.770543 
L 191.372051 -78.67682 
L 189.850233 -80.623379 
L 188.328415 -82.609679 
L 186.806597 -84.635111 
L 185.284778 -86.698679 
L 183.76296 -88.798879 
L 182.241142 -90.933687 
L 180.719324 -93.100586 
L 179.197506 -95.296632 
L 177.675687 -97.518518 
L 176.153869 -99.762644 
L 174.632051 -102.025181 
L 173.110233 -104.302129 
L 171.588415 -106.589373 
L 170.066597 -108.882728 
L 168.544778 -111.17798 
L 167.02296 -113.470918 
L 165.501142 -115.757366 
L 163.979324 -118.033206 
L 162.457506 -120.294394 
L 160.935687 -122.536979 
L 159.413869 -124.757115 
L 157.892051 -126.951065 
L 156.370233 -129.115212 
L 154.848415 -131.246062 
L 153.326597 -133.340245 
L 151.804778 -135.394518 
L 150.28296 -137.405762 
L 148.761142 -139.370985 
L 147.239324 -141.287319 
L 145.717506 -143.15202 
L 144.195687 -144.962465 
L 142.673869 -146.716155 
L 141.152051 -148.410712 
L 139.630233 -150.043881 
L 138.108415 -151.613535 
L 136.586597 -153.117674 
L 135.064778 -154.554436 
L 133.54296 -155.922101 
L 132.021142 -157.219102 
L 130.499324 -158.444037 
L 128.977506 -159.595689 
L 127.455687 -160.673039 
L 125.933869 -161.675296 
L 124.412051 -162.601921 
L 122.890233 -163.452664 
L 121.368415 -164.2276 
L 119.846597 -164.927181 
L 118.324778 -165.552285 
L 116.80296 -166.104284 
L 115.281142 -166.585113 
L 113.759324 -166.997353 
L 112.237506 -167.344326 
L 110.715687 -167.630193 
L 109.193869 -167.860066 
L 107.672051 -168.040121 
L 106.150233 -168.177704 
L 104.628415 -168.281424 
L 103.106597 -168.361213 
L 101.584778 -168.428322 
L 100.06296 -168.49523 
L 98.541142 -168.575415 
L 97.019324 -168.682968 
L 95.497506 -168.832007 
L 93.975687 -169.035914 
L 92.453869 -169.306443 
L 90.932051 -169.652799 
L 89.410233 -170.080858 
L 87.888415 -170.592666 
L 86.366597 -171.186335 
L 84.844778 -171.856352 
L 83.32296 -172.59423 
L 81.801142 -173.38936 
L 80.279324 -174.229913 
L 78.757506 -175.103652 
L 77.235687 -175.998586 
L 75.713869 -176.903448 
L 74.192051 -177.807984 
L 72.670233 -178.703113 
L 71.148415 -179.58097 
L 69.626597 -180.434886 
L 68.104778 -181.259312 
L 66.58296 -182.049731 
L 65.061142 -182.802549 
L 63.539324 -183.514992 
L 62.017506 -184.185005 
L 60.495687 -184.811157 
L 58.973869 -185.392558 
L 57.452051 -185.928778 
L 55.930233 -186.419785 
L 54.408415 -186.865881 
L 52.886597 -187.267651 
L 51.364778 -187.625917 
L 49.84296 -187.941697 
L 48.321142 -188.216173 
L 46.799324 -188.450656 
L 45.277506 -188.646561 
L 43.755687 -188.805386 
L 42.233869 -188.928688 
z
"/>
    </defs>
    <g clip-path="url(#pe1f88aff80)">
     <use xlink:href="#mb8fd15dc5e" x="0" y="203.688688" style="fill: #19d3c5; fill-opacity: 0.55"/>
    </g>
   </g>
   <g id="matplotlib.axis_1">
    <g id="xtick_1">
     <g id="line2d_1">
      <defs>
       <path id="ma1e5038961" d="M 0 0 
L 0 2.5 
" style="stroke: #000000; stroke-width: 0.6"/>
      </defs>
      <g>
       <use xlink:href="#ma1e5038961" x="60.137613" y="173.52" style="stroke: #000000; stroke-width: 0.6"/>
      </g>
     </g>
     <g id="text_1">
      <text style="font-size: 6.4px; font-family: 'Arial', 'Helvetica', 'DejaVu Sans', sans-serif; text-anchor: middle" x="60.137613" y="184.383" transform="rotate(-0 60.137613 184.383)">−0.03</text>
     </g>
    </g>
    <g id="xtick_2">
     <g id="line2d_2">
      <g>
       <use xlink:href="#ma1e5038961" x="104.896971" y="173.52" style="stroke: #000000; stroke-width: 0.6"/>
      </g>
     </g>
     <g id="text_2">
      <text style="font-size: 6.4px; font-family: 'Arial', 'Helvetica', 'DejaVu Sans', sans-serif; text-anchor: middle" x="104.896971" y="184.383" transform="rotate(-0 104.896971 184.383)">−0.02</text>
     </g>
    </g>
    <g id="xtick_3">
     <g id="line2d_3">
      <g>
       <use xlink:href="#ma1e5038961" x="149.656329" y="173.52" style="stroke: #000000; stroke-width: 0.6"/>
      </g>
     </g>
     <g id="text_3">
      <text style="font-size: 6.4px; font-family: 'Arial', 'Helvetica', 'DejaVu Sans', sans-serif; text-anchor: middle" x="149.656329" y="184.383" transform="rotate(-0 149.656329 184.383)">−0.01</text>
     </g>
    </g>
    <g id="xtick_4">
     <g id="line2d_4">
      <g>
       <use xlink:href="#ma1e5038961" x="194.415687" y="173.52" style="stroke: #000000; stroke-width: 0.6"/>
      </g>
     </g>
     <g id="text_4">
      <text style="font-size: 6.4px; font-family: 'Arial', 'Helvetica', 'DejaVu Sans', sans-serif; text-anchor: middle" x="194.415687" y="184.383" transform="rotate(-0 194.415687 184.383)">0.00</text>
     </g>
    </g>
    <g id="xtick_5">
     <g id="line2d_5">
      <g>
       <use xlink:href="#ma1e5038961" x="239.175046" y="173.52" style="stroke: #000000; stroke-width: 0.6"/>
      </g>
     </g>
     <g id="text_5">
      <text style="font-size: 6.4px; font-family: 'Arial', 'Helvetica', 'DejaVu Sans', sans-serif; text-anchor: middle" x="239.175046" y="184.383" transform="rotate(-0 239.175046 184.383)">0.01</text>
     </g>
    </g>
    <g id="xtick_6">
     <g id="line2d_6">
      <g>
       <use xlink:href="#ma1e5038961" x="283.934404" y="173.52" style="stroke: #000000; stroke-width: 0.6"/>
      </g>
     </g>
     <g id="text_6">
      <text style="font-size: 6.4px; font-family: 'Arial', 'Helvetica', 'DejaVu Sans', sans-serif; text-anchor: middle" x="283.934404" y="184.383" transform="rotate(-0 283.934404 184.383)">0.02</text>
     </g>
    </g>
    <g id="xtick_7">
     <g id="line2d_7">
      <g>
       <use xlink:href="#ma1e5038961" x="328.693762" y="173.52" style="stroke: #000000; stroke-width: 0.6"/>
      </g>
     </g>
     <g id="text_7">
      <text style="font-size: 6.4px; font-family: 'Arial', 'Helvetica', 'DejaVu Sans', sans-serif; text-anchor: middle" x="328.693762" y="184.383" transform="rotate(-0 328.693762 184.383)">0.03</text>
     </g>
    </g>
    <g id="text_8">
     <!-- $\Delta r_z$ (rad) -->
     <g transform="translate(179.540687 195.032906)">
      <text>
       <tspan x="0" y="-0.6875" style="font-size: 7px; font-family: 'DejaVu Sans'">Δ</tspan>
       <tspan x="10.429932" y="-0.6875" style="font-size: 7px; font-family: 'DejaVu Sans'"> </tspan>
       <tspan x="12.655029" y="-0.6875" style="font-size: 7px; font-family: 'DejaVu Sans'">(</tspan>
       <tspan x="15.385986" y="-0.6875" style="font-size: 7px; font-family: 'DejaVu Sans'">r</tspan>
       <tspan x="18.263916" y="-0.6875" style="font-size: 7px; font-family: 'DejaVu Sans'">a</tspan>
       <tspan x="22.553467" y="-0.6875" style="font-size: 7px; font-family: 'DejaVu Sans'">d</tspan>
       <tspan x="26.996826" y="-0.6875" style="font-size: 7px; font-family: 'DejaVu Sans'">)</tspan>
       <tspan x="4.788574" y="-0.6875" style="font-style: oblique; font-size: 7px; font-family: 'DejaVu Sans'">r</tspan>
       <tspan x="7.666504" y="0.460938" style="font-style: oblique; font-size: 4.9px; font-family: 'DejaVu Sans'">z</tspan>
      </text>
     </g>
    </g>
   </g>
   <g id="matplotlib.axis_2">
    <g id="ytick_1">
     <g id="line2d_8">
      <defs>
       <path id="m34f2c61110" d="M 0 0 
L -2.5 0 
" style="stroke: #000000; stroke-width: 0.6"/>
      </defs>
      <g>
       <use xlink:href="#m34f2c61110" x="27.015687" y="150.556824" style="stroke: #000000; stroke-width: 0.6"/>
      </g>
     </g>
     <g id="text_9">
      <text style="font-size: 6.4px; font-family: 'Arial', 'Helvetica', 'DejaVu Sans', sans-serif; text-anchor: end" x="24.515687" y="152.988324" transform="rotate(-0 24.515687 152.988324)">−1.0</text>
     </g>
    </g>
    <g id="ytick_2">
     <g id="line2d_9">
      <g>
       <use xlink:href="#m34f2c61110" x="27.015687" y="120.967965" style="stroke: #000000; stroke-width: 0.6"/>
      </g>
     </g>
     <g id="text_10">
      <text style="font-size: 6.4px; font-family: 'Arial', 'Helvetica', 'DejaVu Sans', sans-serif; text-anchor: end" x="24.515687" y="123.399465" transform="rotate(-0 24.515687 123.399465)">−0.5</text>
     </g>
    </g>
    <g id="ytick_3">
     <g id="line2d_10">
      <g>
       <use xlink:href="#m34f2c61110" x="27.015687" y="91.379106" style="stroke: #000000; stroke-width: 0.6"/>
      </g>
     </g>
     <g id="text_11">
      <text style="font-size: 6.4px; font-family: 'Arial', 'Helvetica', 'DejaVu Sans', sans-serif; text-anchor: end" x="24.515687" y="93.810606" transform="rotate(-0 24.515687 93.810606)">0.0</text>
     </g>
    </g>
    <g id="ytick_4">
     <g id="line2d_11">
      <g>
       <use xlink:href="#m34f2c61110" x="27.015687" y="61.790247" style="stroke: #000000; stroke-width: 0.6"/>
      </g>
     </g>
     <g id="text_12">
      <text style="font-size: 6.4px; font-family: 'Arial', 'Helvetica', 'DejaVu Sans', sans-serif; text-anchor: end" x="24.515687" y="64.221747" transform="rotate(-0 24.515687 64.221747)">0.5</text>
     </g>
    </g>
    <g id="ytick_5">
     <g id="line2d_12">
      <g>
       <use xlink:href="#m34f2c61110" x="27.015687" y="32.201388" style="stroke: #000000; stroke-width: 0.6"/>
      </g>
     </g>
     <g id="text_13">
      <text style="font-size: 6.4px; font-family: 'Arial', 'Helvetica', 'DejaVu Sans', sans-serif; text-anchor: end" x="24.515687" y="34.632888" transform="rotate(-0 24.515687 34.632888)">1.0</text>
     </g>
    </g>
    <g id="text_14">
     <!-- $F$ -->
     <g transform="translate(12.518906 92.39) rotate(-90)">
      <text>
       <tspan x="0" y="-0.890625" style="font-style: oblique; font-size: 7px; font-family: 'DejaVu Sans'">F</tspan>
      </text>
     </g>
    </g>
   </g>
   <g id="line2d_13">
    <path d="M 42.233869 65.996632 
L 51.364778 62.074655 
L 57.452051 59.705729 
L 62.017506 58.145348 
L 66.58296 56.835983 
L 71.148415 55.8406 
L 74.192051 55.383049 
L 77.235687 55.111873 
L 80.279324 55.044257 
L 83.32296 55.195414 
L 86.366597 55.577765 
L 89.410233 56.200126 
L 92.453869 57.067063 
L 95.497506 58.178548 
L 98.541142 59.530004 
L 101.584778 61.112731 
L 104.628415 62.914565 
L 107.672051 64.920638 
L 112.237506 68.275475 
L 116.80296 71.989751 
L 121.368415 75.998463 
L 127.455687 81.688032 
L 135.064778 89.138719 
L 148.761142 102.621295 
L 154.848415 108.284919 
L 159.413869 112.269384 
L 163.979324 115.956628 
L 168.544778 119.282053 
L 171.588415 121.266789 
L 174.632051 123.045081 
L 177.675687 124.60089 
L 180.719324 125.920532 
L 183.76296 126.993711 
L 186.806597 127.814782 
L 189.850233 128.384145 
L 192.893869 128.709277 
L 195.937506 128.804264 
L 198.981142 128.687212 
L 202.024778 128.377949 
L 205.068415 127.897185 
L 209.633869 126.900312 
L 214.199324 125.634059 
L 220.286597 123.638885 
L 227.895688 120.843081 
L 247.679324 113.368513 
L 255.288415 110.773215 
L 262.897506 108.440873 
L 268.984778 106.782121 
L 275.072051 105.310831 
L 282.681142 103.728486 
L 290.290233 102.413808 
L 297.899324 101.341267 
L 305.508415 100.481803 
L 314.639324 99.689609 
L 323.770233 99.111522 
L 334.42296 98.648056 
L 346.597506 98.323096 
L 346.597506 98.323096 
" clip-path="url(#pe1f88aff80)" style="fill: none; stroke: #004dff; stroke-width: 1.35; stroke-linecap: square"/>
   </g>
   <g id="line2d_14">
    <path d="M 194.415687 173.52 
L 194.415687 7.2 
" clip-path="url(#pe1f88aff80)" style="fill: none; stroke-dasharray: 2.96,1.28; stroke-dashoffset: 0; stroke: #ff0000; stroke-opacity: 0.8; stroke-width: 0.8"/>
   </g>
   <g id="patch_3">
    <path d="M 27.015687 173.52 
L 27.015687 7.2 
" style="fill: none; stroke: #292929; stroke-width: 0.75; stroke-linejoin: miter; stroke-linecap: square"/>
   </g>
   <g id="patch_4">
    <path d="M 27.015687 173.52 
L 361.815687 173.52 
" style="fill: none; stroke: #292929; stroke-width: 0.75; stroke-linejoin: miter; stroke-linecap: square"/>
   </g>
   <g id="PathCollection_1">
    <defs>
     <path id="m171abae533" d="M 0 1.802776 
C 0.478102 1.802776 0.936686 1.612824 1.274755 1.274755 
C 1.612824 0.936686 1.802776 0.478102 1.802776 0 
C 1.802776 -0.478102 1.612824 -0.936686 1.274755 -1.274755 
C 0.936686 -1.612824 0.478102 -1.802776 0 -1.802776 
C -0.478102 -1.802776 -0.936686 -1.612824 -1.274755 -1.274755 
C -1.612824 -0.936686 -1.802776 -0.478102 -1.802776 0 
C -1.802776 0.478102 -1.612824 0.936686 -1.274755 1.274755 
C -0.936686 1.612824 -0.478102 1.802776 0 1.802776 
z
" style="stroke: #000000"/>
    </defs>
    <g clip-path="url(#pe1f88aff80)">
     <use xlink:href="#m171abae533" x="194.415687" y="128.784451" style="stroke: #000000"/>
     <use xlink:href="#m171abae533" x="295.870233" y="68.488423" style="stroke: #000000"/>
     <use xlink:href="#m171abae533" x="92.961142" y="122.300788" style="stroke: #000000"/>
     <use xlink:href="#m171abae533" x="190.089567" y="128.181328" style="stroke: #000000"/>
     <use xlink:href="#m171abae533" x="166.924617" y="104.384649" style="stroke: #000000"/>
     <use xlink:href="#m171abae533" x="90.288801" y="52.297785" style="stroke: #000000"/>
     <use xlink:href="#m171abae533" x="195.376879" y="117.668066" style="stroke: #000000"/>
     <use xlink:href="#m171abae533" x="56.041878" y="128.713209" style="stroke: #000000"/>
     <use xlink:href="#m171abae533" x="116.264703" y="102.433809" style="stroke: #000000"/>
     <use xlink:href="#m171abae533" x="225.225612" y="30.126732" style="stroke: #000000"/>
    </g>
   </g>
   <g id="PathCollection_2">
    <defs>
     <path id="mbacf4830b2" d="M 0 2.345208 
C 0.621956 2.345208 1.218523 2.098102 1.658312 1.658312 
C 2.098102 1.218523 2.345208 0.621956 2.345208 0 
C 2.345208 -0.621956 2.098102 -1.218523 1.658312 -1.658312 
C 1.218523 -2.098102 0.621956 -2.345208 0 -2.345208 
C -0.621956 -2.345208 -1.218523 -2.098102 -1.658312 -1.658312 
C -2.098102 -1.218523 -2.345208 -0.621956 -2.345208 0 
C -2.345208 0.621956 -2.098102 1.218523 -1.658312 1.658312 
C -1.218523 2.098102 -0.621956 2.345208 0 2.345208 
z
" style="stroke: #ff0000"/>
    </defs>
    <g clip-path="url(#pe1f88aff80)">
     <use xlink:href="#mbacf4830b2" x="194.415687" y="128.784451" style="fill: #ff0000; stroke: #ff0000"/>
    </g>
   </g>
  </g>
  <g id="axes_2">
   <g id="matplotlib.axis_3">
    <g id="ytick_6">
     <g id="line2d_15">
      <path d="M 27.015687 165.96 
L 361.815688 165.96 
" clip-path="url(#pe1f88aff80)" style="fill: none; stroke: #dbdbdb; stroke-width: 0.55; stroke-linecap: square"/>
     </g>
     <g id="line2d_16">
      <defs>
       <path id="ma5c0ff03b0" d="M 0 0 
L 2.5 0 
" style="stroke: #000000; stroke-width: 0.6"/>
      </defs>
      <g>
       <use xlink:href="#ma5c0ff03b0" x="361.815688" y="165.96" style="stroke: #000000; stroke-width: 0.6"/>
      </g>
     </g>
     <g id="text_15">
      <text style="font-size: 6.4px; font-family: 'Arial', 'Helvetica', 'DejaVu Sans', sans-serif; text-anchor: start" x="364.315688" y="168.3915" transform="rotate(-0 364.315688 168.3915)">0</text>
     </g>
    </g>
    <g id="ytick_7">
     <g id="line2d_17">
      <path d="M 27.015687 14.76 
L 361.815688 14.76 
" clip-path="url(#pe1f88aff80)" style="fill: none; stroke: #dbdbdb; stroke-width: 0.55; stroke-linecap: square"/>
     </g>
     <g id="line2d_18">
      <g>
       <use xlink:href="#ma5c0ff03b0" x="361.815688" y="14.76" style="stroke: #000000; stroke-width: 0.6"/>
      </g>
     </g>
     <g id="text_16">
      <text style="font-size: 6.4px; font-family: 'Arial', 'Helvetica', 'DejaVu Sans', sans-serif; text-anchor: start" x="364.315688" y="17.1915" transform="rotate(-0 364.315688 17.1915)">1</text>
     </g>
    </g>
    <g id="text_17">
     <text style="font-size: 7px; font-family: 'Arial', 'Helvetica', 'DejaVu Sans', sans-serif; text-anchor: middle" x="368.706594" y="90.36" transform="rotate(-90 368.706594 90.36)">EI</text>
    </g>
   </g>
   <g id="line2d_19">
    <path d="M 42.233869 163.589781 
L 45.277506 164.433797 
L 48.321142 165.040493 
L 51.364778 165.448684 
L 55.930233 165.784412 
L 62.017506 165.933751 
L 78.757506 165.959998 
L 116.80296 165.869893 
L 119.846597 165.70091 
L 122.890233 165.333035 
L 125.933869 164.641041 
L 127.455687 164.12946 
L 128.977506 163.483704 
L 130.499324 162.686887 
L 132.021142 161.723621 
L 133.54296 160.580555 
L 135.064778 159.246825 
L 136.586597 157.714426 
L 138.108415 155.978481 
L 139.630233 154.037442 
L 141.152051 151.893203 
L 144.195687 147.020236 
L 147.239324 141.444628 
L 150.28296 135.305718 
L 154.848415 125.471156 
L 159.413869 115.648673 
L 162.457506 109.618109 
L 163.979324 106.888961 
L 165.501142 104.413608 
L 167.02296 102.241694 
L 168.544778 100.42457 
L 170.066597 99.01512 
L 171.588415 98.06755 
L 173.110233 97.637141 
L 174.632051 97.779938 
L 176.153869 98.552371 
L 177.675687 100.010782 
L 179.197506 102.210816 
L 180.719324 105.206645 
L 182.241142 109.049944 
L 183.76296 113.78847 
L 185.284778 119.463992 
L 186.806597 126.108856 
L 188.328415 133.739217 
L 189.850233 142.337836 
L 192.893869 161.505628 
L 194.415687 165.96 
L 195.937506 160.575365 
L 200.50296 126.382689 
L 203.546597 106.408701 
L 206.590233 89.09044 
L 208.112051 81.363196 
L 209.633869 74.218701 
L 211.155687 67.628135 
L 212.677506 61.563295 
L 214.199324 55.996773 
L 215.721142 50.902037 
L 217.24296 46.253452 
L 218.764778 42.02629 
L 220.286597 38.196712 
L 221.808415 34.741759 
L 223.330233 31.639333 
L 224.852051 28.86818 
L 226.373869 26.407874 
L 227.895688 24.2388 
L 229.417506 22.342142 
L 230.939324 20.699866 
L 232.461142 19.294706 
L 233.98296 18.110151 
L 235.504778 17.130431 
L 237.026597 16.340499 
L 238.548415 15.726023 
L 240.070233 15.273364 
L 241.592051 14.969563 
L 243.113869 14.802325 
L 244.635687 14.76 
L 247.679324 15.006615 
L 250.72296 15.628449 
L 253.766597 16.5537 
L 256.810233 17.719096 
L 261.375688 19.798333 
L 267.46296 22.953432 
L 285.724778 32.757528 
L 291.812051 35.663614 
L 297.899324 38.272641 
L 302.464778 40.020839 
L 307.030233 41.588253 
L 313.117506 43.403372 
L 319.204778 44.920868 
L 325.292051 46.164896 
L 331.379324 47.163367 
L 337.466597 47.945672 
L 345.075687 48.664029 
L 346.597506 48.777492 
L 346.597506 48.777492 
" clip-path="url(#pe1f88aff80)" style="fill: none; stroke: #ff7f0e; stroke-linecap: square"/>
   </g>
   <g id="patch_5">
    <path d="M 27.015687 173.52 
L 27.015687 7.2 
" style="fill: none; stroke: #292929; stroke-width: 0.75; stroke-linejoin: miter; stroke-linecap: square"/>
   </g>
   <g id="patch_6">
    <path d="M 27.015687 173.52 
L 361.815687 173.52 
" style="fill: none; stroke: #292929; stroke-width: 0.75; stroke-linejoin: miter; stroke-linecap: square"/>
   </g>
   <g id="PathCollection_3">
    <defs>
     <path id="m9805b9760c" d="M 0 -2.345208 
L -0.526532 -0.724709 
L -2.230425 -0.724709 
L -0.851947 0.276814 
L -1.378479 1.897313 
L -0 0.89579 
L 1.378479 1.897313 
L 0.851947 0.276814 
L 2.230425 -0.724709 
L 0.526532 -0.724709 
z
" style="stroke: #ff7f0e"/>
    </defs>
    <g clip-path="url(#pe1f88aff80)">
     <use xlink:href="#m9805b9760c" x="244.635687" y="14.76" style="fill: #ff7f0e; stroke: #ff7f0e"/>
    </g>
   </g>
  </g>
 </g>
 <defs>
  <clipPath id="pe1f88aff80">
   <rect x="27.015687" y="7.2" width="334.8" height="166.32"/>
  </clipPath>
 </defs>
</svg>
