<?xml version="1.0" encoding="utf-8" standalone="no"?>
<!DOCTYPE svg PUBLIC "-//W3C//DTD SVG 1.1//EN"
  "http://www.w3.org/Graphics/SVG/1.1/DTD/svg11.dtd">
<svg xmlns:xlink="http://www.w3.org/1999/xlink" width="377.362375pt" height="203.688688pt" viewBox="0 0 377.362375 203.688688" xmlns="http://www.w3.org/2000/svg" version="1.1">
 <metadata>
  <rdf:RDF xmlns:dc="http://purl.org/dc/elements/1.1/" xmlns:cc="http://creativecommons.org/ns#" xmlns:rdf="http://www.w3.org/1999/02/22-rdf-syntax-ns#">
   <cc:Work>
    <dc:type rdf:resource="http://purl.org/dc/dcmitype/StillImage"/>
    <dc:date>2026-07-09T18:34:52.887326</dc:date>
    <dc:format>image/svg+xml</dc:format>
    <dc:creator>
     <cc:Agent>
      <dc:title>Matplotlib v3.10.8, https://matplotlib.org/</dc:title>
     </cc:Agent>
    </dc:creator>
   </cc:Work>
  </rdf:RDF>
 </metadata>
 <defs>
  <style type="text/css">*{stroke-linejoin: round; stroke-linecap: butt}</style>
 </defs>
 <g id="figure_1">
  <g id="patch_1">
   <path d="M 0 203.688688 
L 377.362375 203.688688 
L 377.362375 0 
L 0 0 
z
" style="fill: #ffffff"/>
  </g>
  <g id="axes_1">
   <g id="patch_2">
    <path d="M 27.015687 173.52 
L 361.815688 173.52 
L 361.815688 7.2 
L 27.015687 7.2 
z
" style="fill: #ffffff"/>
   </g>
   <g id="FillBetweenPolyCollection_1">
    <defs>
     <path id="maf35b6ab93" d="M 42.233869 -158.260432 
L 42.233869 -43.54362 
L 43.755687 -43.97775 
L 45.277506 -44.45329 
L 46.799324 -44.976371 
L 48.321142 -45.554411 
L 49.84296 -46.19615 
L 51.364778 -46.911561 
L 52.886597 -47.71161 
L 54.408415 -48.607808 
L 55.930233 -49.61153 
L 57.452051 -50.73304 
L 58.973869 -51.980188 
L 60.495687 -53.356742 
L 62.017506 -54.8603 
L 63.539324 -56.479779 
L 65.061142 -58.192469 
L 66.58296 -59.960796 
L 68.104778 -61.729156 
L 69.626597 -63.421637 
L 71.148415 -64.942271 
L 72.670233 -66.180279 
L 74.192051 -67.022932 
L 75.713869 -67.376311 
L 77.235687 -67.188646 
L 78.757506 -66.465502 
L 80.279324 -65.267958 
L 81.801142 -63.694986 
L 83.32296 -61.860131 
L 84.844778 -59.872388 
L 86.366597 -57.8252 
L 87.888415 -55.792499 
L 89.410233 -53.829081 
L 90.932051 -51.973002 
L 92.453869 -50.248607 
L 93.975687 -48.66947 
L 95.497506 -47.24099 
L 97.019324 -45.962563 
L 98.541142 -44.82933 
L 100.06296 -43.833577 
L 101.584778 -42.965813 
L 103.106597 -42.215596 
L 104.628415 -41.57215 
L 106.150233 -41.02481 
L 107.672051 -40.563327 
L 109.193869 -40.178067 
L 110.715687 -39.860135 
L 112.237506 -39.601422 
L 113.759324 -39.394625 
L 115.281142 -39.23322 
L 116.80296 -39.111426 
L 118.324778 -39.024153 
L 119.846597 -38.966942 
L 121.368415 -38.93591 
L 122.890233 -38.927692 
L 124.412051 -38.939388 
L 125.933869 -38.968512 
L 127.455687 -39.012948 
L 128.977506 -39.070914 
L 130.499324 -39.140919 
L 132.021142 -39.22174 
L 133.54296 -39.312384 
L 135.064778 -39.412068 
L 136.586597 -39.520195 
L 138.108415 -39.636329 
L 139.630233 -39.760176 
L 141.152051 -39.891563 
L 142.673869 -40.030421 
L 144.195687 -40.176766 
L 145.717506 -40.330676 
L 147.239324 -40.492279 
L 148.761142 -40.661727 
L 150.28296 -40.83918 
L 151.804778 -41.024784 
L 153.326597 -41.218648 
L 154.848415 -41.420824 
L 156.370233 -41.631277 
L 157.892051 -41.849866 
L 159.413869 -42.076314 
L 160.935687 -42.310181 
L 162.457506 -42.550838 
L 163.979324 -42.797441 
L 165.501142 -43.048902 
L 167.02296 -43.30387 
L 168.544778 -43.560709 
L 170.066597 -43.817489 
L 171.588415 -44.071973 
L 173.110233 -44.321624 
L 174.632051 -44.563621 
L 176.153869 -44.794881 
L 177.675687 -45.012105 
L 179.197506 -45.211837 
L 180.719324 -45.390537 
L 182.241142 -45.544676 
L 183.76296 -45.670844 
L 185.284778 -45.765873 
L 186.806597 -45.826971 
L 188.328415 -45.85187 
L 189.850233 -45.838967 
L 191.372051 -45.787471 
L 192.893869 -45.697546 
L 194.415687 -45.570438 
L 195.937506 -45.408594 
L 197.459324 -45.215764 
L 198.981142 -44.997083 
L 200.50296 -44.759145 
L 202.024778 -44.510053 
L 203.546597 -44.259468 
L 205.068415 -44.018636 
L 206.590233 -43.800416 
L 208.112051 -43.6193 
L 209.633869 -43.491423 
L 211.155687 -43.434565 
L 212.677506 -43.468142 
L 214.199324 -43.61317 
L 215.721142 -43.892197 
L 217.24296 -44.329193 
L 218.764778 -44.949374 
L 220.286597 -45.778934 
L 221.808415 -46.844687 
L 223.330233 -48.173551 
L 224.852051 -49.791883 
L 226.373869 -51.724601 
L 227.895688 -53.994065 
L 229.417506 -56.618671 
L 230.939324 -59.611088 
L 232.461142 -62.976056 
L 233.98296 -66.707524 
L 235.504778 -70.784438 
L 237.026597 -75.161357 
L 238.548415 -79.708556 
L 240.070233 -81.008553 
L 241.592051 -76.052262 
L 243.113869 -71.104165 
L 244.635687 -66.443633 
L 246.157506 -62.1296 
L 247.679324 -58.18949 
L 249.201142 -54.634328 
L 250.72296 -51.463973 
L 252.244778 -48.670382 
L 253.766597 -46.240083 
L 255.288415 -44.156152 
L 256.810233 -42.399815 
L 258.332051 -40.951737 
L 259.853869 -39.793038 
L 261.375688 -38.906076 
L 262.897506 -38.275028 
L 264.419324 -37.886285 
L 265.941142 -37.728688 
L 267.46296 -37.793609 
L 268.984778 -38.074901 
L 270.506597 -38.568706 
L 272.028415 -39.273134 
L 273.550233 -40.187801 
L 275.072051 -41.313236 
L 276.593869 -42.650137 
L 278.115687 -44.198475 
L 279.637506 -45.95645 
L 281.159324 -47.919303 
L 282.681142 -50.077999 
L 284.20296 -52.417856 
L 285.724778 -54.917201 
L 287.246597 -57.546273 
L 288.768415 -60.266729 
L 290.290233 -63.032408 
L 291.812051 -65.792551 
L 293.333869 -68.499587 
L 294.855687 -71.124986 
L 296.377506 -71.904625 
L 297.899324 -69.47405 
L 299.421142 -67.47009 
L 300.94296 -65.736748 
L 302.464778 -64.195054 
L 303.986597 -62.843159 
L 305.508415 -61.720558 
L 307.030233 -60.879086 
L 308.552051 -60.36697 
L 310.073869 -60.222114 
L 311.595687 -60.470408 
L 313.117506 -61.126331 
L 314.639324 -62.194426 
L 316.161142 -63.67093 
L 317.68296 -65.545209 
L 319.204778 -67.800864 
L 320.726597 -70.416456 
L 322.248415 -73.365827 
L 323.770233 -76.618049 
L 325.292051 -80.137016 
L 326.813869 -83.880707 
L 328.335688 -87.80017 
L 329.857506 -91.838276 
L 331.379324 -95.92836 
L 332.901142 -99.992897 
L 334.42296 -103.942531 
L 335.944778 -107.675938 
L 337.466597 -111.081285 
L 338.988415 -114.040295 
L 340.510233 -116.435879 
L 342.032051 -118.163615 
L 343.553869 -119.14562 
L 345.075687 -119.343192 
L 346.597506 -118.763569 
L 346.597506 -188.928688 
L 346.597506 -188.928688 
L 345.075687 -188.239576 
L 343.553869 -187.559329 
L 342.032051 -186.881767 
L 340.510233 -186.174598 
L 338.988415 -185.384978 
L 337.466597 -184.449499 
L 335.944778 -183.304472 
L 334.42296 -181.893555 
L 332.901142 -180.171759 
L 331.379324 -178.106466 
L 329.857506 -175.676553 
L 328.335688 -172.870666 
L 326.813869 -169.685339 
L 325.292051 -166.123366 
L 323.770233 -162.192607 
L 322.248415 -157.905311 
L 320.726597 -153.277935 
L 319.204778 -148.331447 
L 317.68296 -143.092061 
L 316.161142 -137.592335 
L 314.639324 -131.872595 
L 313.117506 -125.982565 
L 311.595687 -119.983113 
L 310.073869 -113.947902 
L 308.552051 -107.964629 
L 307.030233 -102.135333 
L 305.508415 -96.574771 
L 303.986597 -91.405103 
L 302.464778 -86.743807 
L 300.94296 -82.680051 
L 299.421142 -79.235162 
L 297.899324 -76.313271 
L 296.377506 -73.69078 
L 294.855687 -74.897658 
L 293.333869 -78.453445 
L 291.812051 -82.485466 
L 290.290233 -86.86673 
L 288.768415 -91.46191 
L 287.246597 -96.14327 
L 285.724778 -100.798132 
L 284.20296 -105.33151 
L 282.681142 -109.666139 
L 281.159324 -113.741159 
L 279.637506 -117.510161 
L 278.115687 -120.93901 
L 276.593869 -124.003681 
L 275.072051 -126.688211 
L 273.550233 -128.98286 
L 272.028415 -130.882499 
L 270.506597 -132.385232 
L 268.984778 -133.491267 
L 267.46296 -134.202008 
L 265.941142 -134.519375 
L 264.419324 -134.445326 
L 262.897506 -133.981595 
L 261.375688 -133.129607 
L 259.853869 -131.890599 
L 258.332051 -130.265912 
L 256.810233 -128.257479 
L 255.288415 -125.868493 
L 253.766597 -123.10426 
L 252.244778 -119.973236 
L 250.72296 -116.488252 
L 249.201142 -112.667915 
L 247.679324 -108.538203 
L 246.157506 -104.134281 
L 244.635687 -99.502752 
L 243.113869 -94.705413 
L 241.592051 -89.832245 
L 240.070233 -85.18744 
L 238.548415 -87.050139 
L 237.026597 -92.411891 
L 235.504778 -97.842861 
L 233.98296 -103.192268 
L 232.461142 -108.388463 
L 230.939324 -113.381629 
L 229.417506 -118.136263 
L 227.895688 -122.62825 
L 226.373869 -126.842859 
L 224.852051 -130.773063 
L 223.330233 -134.418061 
L 221.808415 -137.781982 
L 220.286597 -140.872743 
L 218.764778 -143.701078 
L 217.24296 -146.279713 
L 215.721142 -148.62268 
L 214.199324 -150.744763 
L 212.677506 -152.661048 
L 211.155687 -154.386578 
L 209.633869 -155.936082 
L 208.112051 -157.323782 
L 206.590233 -158.56325 
L 205.068415 -159.667311 
L 203.546597 -160.647983 
L 202.024778 -161.516448 
L 200.50296 -162.283035 
L 198.981142 -162.95723 
L 197.459324 -163.547692 
L 195.937506 -164.062281 
L 194.415687 -164.508101 
L 192.893869 -164.89154 
L 191.372051 -165.218325 
L 189.850233 -165.493581 
L 188.328415 -165.721891 
L 186.806597 -165.907361 
L 185.284778 -166.053687 
L 183.76296 -166.164211 
L 182.241142 -166.241988 
L 180.719324 -166.289829 
L 179.197506 -166.310355 
L 177.675687 -166.306028 
L 176.153869 -166.279182 
L 174.632051 -166.232043 
L 173.110233 -166.166738 
L 171.588415 -166.085307 
L 170.066597 -165.989696 
L 168.544778 -165.881756 
L 167.02296 -165.763235 
L 165.501142 -165.635771 
L 163.979324 -165.50088 
L 162.457506 -165.359947 
L 160.935687 -165.214222 
L 159.413869 -165.064809 
L 157.892051 -164.912665 
L 156.370233 -164.758595 
L 154.848415 -164.603252 
L 153.326597 -164.447139 
L 151.804778 -164.290611 
L 150.28296 -164.133877 
L 148.761142 -163.977005 
L 147.239324 -163.81993 
L 145.717506 -163.662455 
L 144.195687 -163.504258 
L 142.673869 -163.344895 
L 141.152051 -163.183808 
L 139.630233 -163.020325 
L 138.108415 -162.853662 
L 136.586597 -162.682927 
L 135.064778 -162.507115 
L 133.54296 -162.325109 
L 132.021142 -162.135676 
L 130.499324 -161.937456 
L 128.977506 -161.728957 
L 127.455687 -161.508541 
L 125.933869 -161.274404 
L 124.412051 -161.024559 
L 122.890233 -160.756808 
L 121.368415 -160.468712 
L 119.846597 -160.157551 
L 118.324778 -159.820279 
L 116.80296 -159.45348 
L 115.281142 -159.053306 
L 113.759324 -158.615421 
L 112.237506 -158.134941 
L 110.715687 -157.606375 
L 109.193869 -157.023582 
L 107.672051 -156.379739 
L 106.150233 -155.667342 
L 104.628415 -154.87825 
L 103.106597 -154.003786 
L 101.584778 -153.034925 
L 100.06296 -151.962586 
L 98.541142 -150.778057 
L 97.019324 -149.473596 
L 95.497506 -148.043244 
L 93.975687 -146.483885 
L 92.453869 -144.796629 
L 90.932051 -142.988545 
L 89.410233 -141.074812 
L 87.888415 -139.081282 
L 86.366597 -137.0474 
L 84.844778 -135.02918 
L 83.32296 -133.101554 
L 81.801142 -131.358669 
L 80.279324 -129.909856 
L 78.757506 -128.868526 
L 77.235687 -128.332964 
L 75.713869 -128.362929 
L 74.192051 -128.962005 
L 72.670233 -130.075789 
L 71.148415 -131.607156 
L 69.626597 -133.439717 
L 68.104778 -135.458714 
L 66.58296 -137.564043 
L 65.061142 -139.675633 
L 63.539324 -141.733826 
L 62.017506 -143.697202 
L 60.495687 -145.539495 
L 58.973869 -147.246417 
L 57.452051 -148.812762 
L 55.930233 -150.239913 
L 54.408415 -151.533773 
L 52.886597 -152.703091 
L 51.364778 -153.758148 
L 49.84296 -154.709762 
L 48.321142 -155.56857 
L 46.799324 -156.344548 
L 45.277506 -157.046728 
L 43.755687 -157.683067 
L 42.233869 -158.260432 
z
"/>
    </defs>
    <g clip-path="url(#p0b86317ac7)">
     <use xlink:href="#maf35b6ab93" x="0" y="203.688688" style="fill: #19d3c5; fill-opacity: 0.55"/>
    </g>
   </g>
   <g id="matplotlib.axis_1">
    <g id="xtick_1">
     <g id="line2d_1">
      <defs>
       <path id="mb6419cf364" d="M 0 0 
L 0 2.5 
" style="stroke: #000000; stroke-width: 0.6"/>
      </defs>
      <g>
       <use xlink:href="#mb6419cf364" x="60.137613" y="173.52" style="stroke: #000000; stroke-width: 0.6"/>
      </g>
     </g>
     <g id="text_1">
      <text style="font-size: 6.4px; font-family: 'Arial', 'Helvetica', 'DejaVu Sans', sans-serif; text-anchor: middle" x="60.137613" y="184.383" transform="rotate(-0 60.137613 184.383)">−0.03</text>
     </g>
    </g>
    <g id="xtick_2">
     <g id="line2d_2">
      <g>
       <use xlink:href="#mb6419cf364" x="104.896971" y="173.52" style="stroke: #000000; stroke-width: 0.6"/>
      </g>
     </g>
     <g id="text_2">
      <text style="font-size: 6.4px; font-family: 'Arial', 'Helvetica', 'DejaVu Sans', sans-serif; text-anchor: middle" x="104.896971" y="184.383" transform="rotate(-0 104.896971 184.383)">−0.02</text>
     </g>
    </g>
    <g id="xtick_3">
     <g id="line2d_3">
      <g>
       <use xlink:href="#mb6419cf364" x="149.656329" y="173.52" style="stroke: #000000; stroke-width: 0.6"/>
      </g>
     </g>
     <g id="text_3">
      <text style="font-size: 6.4px; font-family: 'Arial', 'Helvetica', 'DejaVu Sans', sans-serif; text-anchor: middle" x="149.656329" y="184.383" transform="rotate(-0 149.656329 184.383)">−0.01</text>
     </g>
    </g>
    <g id="xtick_4">
     <g id="line2d_4">
      <g>
       <use xlink:href="#mb6419cf364" x="194.415687" y="173.52" style="stroke: #000000; stroke-width: 0.6"/>
      </g>
     </g>
     <g id="text_4">
      <text style="font-size: 6.4px; font-family: 'Arial', 'Helvetica', 'DejaVu Sans', sans-serif; text-anchor: middle" x="194.415687" y="184.383" transform="rotate(-0 194.415687 184.383)">0.00</text>
     </g>
    </g>
    <g id="xtick_5">
     <g id="line2d_5">
      <g>
       <use xlink:href="#mb6419cf364" x="239.175046" y="173.52" style="stroke: #000000; stroke-width: 0.6"/>
      </g>
     </g>
     <g id="text_5">
      <text style="font-size: 6.4px; font-family: 'Arial', 'Helvetica', 'DejaVu Sans', sans-serif; text-anchor: middle" x="239.175046" y="184.383" transform="rotate(-0 239.175046 184.383)">0.01</text>
     </g>
    </g>
    <g id="xtick_6">
     <g id="line2d_6">
      <g>
       <use xlink:href="#mb6419cf364" x="283.934404" y="173.52" style="stroke: #000000; stroke-width: 0.6"/>
      </g>
     </g>
     <g id="text_6">
      <text style="font-size: 6.4px; font-family: 'Arial', 'Helvetica', 'DejaVu Sans', sans-serif; text-anchor: middle" x="283.934404" y="184.383" transform="rotate(-0 283.934404 184.383)">0.02</text>
     </g>
    </g>
    <g id="xtick_7">
     <g id="line2d_7">
      <g>
       <use xlink:href="#mb6419cf364" x="328.693762" y="173.52" style="stroke: #000000; stroke-width: 0.6"/>
      </g>
     </g>
     <g id="text_7">
      <text style="font-size: 6.4px; font-family: 'Arial', 'Helvetica', 'DejaVu Sans', sans-serif; text-anchor: middle" x="328.693762" y="184.383" transform="rotate(-0 328.693762 184.383)">0.03</text>
     </g>
    </g>
    <g id="text_8">
     <!-- $\Delta r_x$ (rad) -->
     <g transform="translate(179.365687 195.032906)">
      <text>
       <tspan x="0" y="-0.6875" style="font-size: 7px; font-family: 'DejaVu Sans'">Δ</tspan>
       <tspan x="10.757715" y="-0.6875" style="font-size: 7px; font-family: 'DejaVu Sans'"> </tspan>
       <tspan x="12.982812" y="-0.6875" style="font-size: 7px; font-family: 'DejaVu Sans'">(</tspan>
       <tspan x="15.71377" y="-0.6875" style="font-size: 7px; font-family: 'DejaVu Sans'">r</tspan>
       <tspan x="18.591699" y="-0.6875" style="font-size: 7px; font-family: 'DejaVu Sans'">a</tspan>
       <tspan x="22.88125" y="-0.6875" style="font-size: 7px; font-family: 'DejaVu Sans'">d</tspan>
       <tspan x="27.324609" y="-0.6875" style="font-size: 7px; font-family: 'DejaVu Sans'">)</tspan>
       <tspan x="4.788574" y="-0.6875" style="font-style: oblique; font-size: 7px; font-family: 'DejaVu Sans'">r</tspan>
       <tspan x="7.666504" y="0.460938" style="font-style: oblique; font-size: 4.9px; font-family: 'DejaVu Sans'">x</tspan>
      </text>
     </g>
    </g>
   </g>
   <g id="matplotlib.axis_2">
    <g id="ytick_1">
     <g id="line2d_8">
      <defs>
       <path id="m074130f0bc" d="M 0 0 
L -2.5 0 
" style="stroke: #000000; stroke-width: 0.6"/>
      </defs>
      <g>
       <use xlink:href="#m074130f0bc" x="27.015687" y="151.12798" style="stroke: #000000; stroke-width: 0.6"/>
      </g>
     </g>
     <g id="text_9">
      <text style="font-size: 6.4px; font-family: 'Arial', 'Helvetica', 'DejaVu Sans', sans-serif; text-anchor: end" x="24.515687" y="153.55948" transform="rotate(-0 24.515687 153.55948)">−1.0</text>
     </g>
    </g>
    <g id="ytick_2">
     <g id="line2d_9">
      <g>
       <use xlink:href="#m074130f0bc" x="27.015687" y="123.571728" style="stroke: #000000; stroke-width: 0.6"/>
      </g>
     </g>
     <g id="text_10">
      <text style="font-size: 6.4px; font-family: 'Arial', 'Helvetica', 'DejaVu Sans', sans-serif; text-anchor: end" x="24.515687" y="126.003228" transform="rotate(-0 24.515687 126.003228)">−0.5</text>
     </g>
    </g>
    <g id="ytick_3">
     <g id="line2d_10">
      <g>
       <use xlink:href="#m074130f0bc" x="27.015687" y="96.015477" style="stroke: #000000; stroke-width: 0.6"/>
      </g>
     </g>
     <g id="text_11">
      <text style="font-size: 6.4px; font-family: 'Arial', 'Helvetica', 'DejaVu Sans', sans-serif; text-anchor: end" x="24.515687" y="98.446977" transform="rotate(-0 24.515687 98.446977)">0.0</text>
     </g>
    </g>
    <g id="ytick_4">
     <g id="line2d_11">
      <g>
       <use xlink:href="#m074130f0bc" x="27.015687" y="68.459225" style="stroke: #000000; stroke-width: 0.6"/>
      </g>
     </g>
     <g id="text_12">
      <text style="font-size: 6.4px; font-family: 'Arial', 'Helvetica', 'DejaVu Sans', sans-serif; text-anchor: end" x="24.515687" y="70.890725" transform="rotate(-0 24.515687 70.890725)">0.5</text>
     </g>
    </g>
    <g id="ytick_5">
     <g id="line2d_12">
      <g>
       <use xlink:href="#m074130f0bc" x="27.015687" y="40.902973" style="stroke: #000000; stroke-width: 0.6"/>
      </g>
     </g>
     <g id="text_13">
      <text style="font-size: 6.4px; font-family: 'Arial', 'Helvetica', 'DejaVu Sans', sans-serif; text-anchor: end" x="24.515687" y="43.334473" transform="rotate(-0 24.515687 43.334473)">1.0</text>
     </g>
    </g>
    <g id="ytick_6">
     <g id="line2d_13">
      <g>
       <use xlink:href="#m074130f0bc" x="27.015687" y="13.346722" style="stroke: #000000; stroke-width: 0.6"/>
      </g>
     </g>
     <g id="text_14">
      <text style="font-size: 6.4px; font-family: 'Arial', 'Helvetica', 'DejaVu Sans', sans-serif; text-anchor: end" x="24.515687" y="15.778222" transform="rotate(-0 24.515687 15.778222)">1.5</text>
     </g>
    </g>
    <g id="text_15">
     <!-- $F$ -->
     <g transform="translate(12.518906 92.39) rotate(-90)">
      <text>
       <tspan x="0" y="-0.890625" style="font-style: oblique; font-size: 7px; font-family: 'DejaVu Sans'">F</tspan>
      </text>
     </g>
    </g>
   </g>
   <g id="line2d_14">
    <path d="M 42.233869 102.786661 
L 49.84296 103.235732 
L 57.452051 103.915786 
L 77.235687 105.927882 
L 83.32296 106.207845 
L 89.410233 106.236741 
L 95.497506 106.046571 
L 103.106597 105.578997 
L 115.281142 104.545424 
L 147.239324 101.532583 
L 159.413869 100.118126 
L 174.632051 98.290856 
L 179.197506 97.927591 
L 183.76296 97.77116 
L 188.328415 97.901807 
L 191.372051 98.18579 
L 194.415687 98.649418 
L 197.459324 99.30696 
L 200.50296 100.167597 
L 203.546597 101.234962 
L 206.590233 102.506854 
L 209.633869 103.974935 
L 214.199324 106.509721 
L 218.764778 109.363462 
L 229.417506 116.311221 
L 232.461142 118.006428 
L 235.504778 119.375038 
L 237.026597 119.902064 
L 238.548415 120.30934 
L 240.070233 120.590691 
L 241.592051 120.746434 
L 244.635687 120.715495 
L 247.679324 120.324841 
L 252.244778 119.366878 
L 256.810233 118.360041 
L 259.853869 117.846869 
L 262.897506 117.560376 
L 265.941142 117.564656 
L 268.984778 117.905604 
L 272.028415 118.610871 
L 275.072051 119.687964 
L 278.115687 121.119945 
L 281.159324 122.858456 
L 285.724778 125.831021 
L 290.290233 128.739118 
L 291.812051 129.549679 
L 293.333869 130.212172 
L 294.855687 130.677366 
L 296.377506 130.890985 
L 297.899324 130.795027 
L 299.421142 130.336061 
L 300.94296 129.480288 
L 302.464778 128.219257 
L 303.986597 126.564556 
L 305.508415 124.541023 
L 307.030233 122.181478 
L 308.552051 119.522888 
L 311.595687 113.461927 
L 314.639324 106.655177 
L 319.204778 95.622532 
L 326.813869 76.905664 
L 329.857506 69.931273 
L 332.901142 63.60636 
L 334.42296 60.770645 
L 335.944778 58.198482 
L 337.466597 55.923296 
L 338.988415 53.976051 
L 340.510233 52.383449 
L 342.032051 51.165996 
L 343.553869 50.336213 
L 345.075687 49.897304 
L 346.597506 49.842559 
L 346.597506 49.842559 
" clip-path="url(#p0b86317ac7)" style="fill: none; stroke: #004dff; stroke-width: 1.35; stroke-linecap: square"/>
   </g>
   <g id="line2d_15">
    <path d="M 295.870233 173.52 
L 295.870233 7.2 
" clip-path="url(#p0b86317ac7)" style="fill: none; stroke-dasharray: 2.96,1.28; stroke-dashoffset: 0; stroke: #ff0000; stroke-opacity: 0.8; stroke-width: 0.8"/>
   </g>
   <g id="patch_3">
    <path d="M 27.015687 173.52 
L 27.015687 7.2 
" style="fill: none; stroke: #292929; stroke-width: 0.75; stroke-linejoin: miter; stroke-linecap: square"/>
   </g>
   <g id="patch_4">
    <path d="M 27.015687 173.52 
L 361.815687 173.52 
" style="fill: none; stroke: #292929; stroke-width: 0.75; stroke-linejoin: miter; stroke-linecap: square"/>
   </g>
   <g id="PathCollection_1">
    <defs>
     <path id="m0338b9b47d" d="M 0 1.802776 
C 0.478102 1.802776 0.936686 1.612824 1.274755 1.274755 
C 1.612824 0.936686 1.802776 0.478102 1.802776 0 
C 1.802776 -0.478102 1.612824 -0.936686 1.274755 -1.274755 
C 0.936686 -1.612824 0.478102 -1.802776 0 -1.802776 
C -0.478102 -1.802776 -0.936686 -1.612824 -1.274755 -1.274755 
C -1.612824 -0.936686 -1.802776 -0.478102 -1.802776 0 
C -1.802776 0.478102 -1.612824 0.936686 -1.274755 1.274755 
C -0.936686 1.612824 -0.478102 1.802776 0 1.802776 
z
" style="stroke: #000000"/>
    </defs>
    <g clip-path="url(#p0b86317ac7)">
     <use xlink:href="#m0338b9b47d" x="295.870233" y="130.85126" style="stroke: #000000"/>
     <use xlink:href="#m0338b9b47d" x="194.415687" y="74.69727" style="stroke: #000000"/>
     <use xlink:href="#m0338b9b47d" x="92.961142" y="124.812992" style="stroke: #000000"/>
     <use xlink:href="#m0338b9b47d" x="298.684712" y="130.289568" style="stroke: #000000"/>
     <use xlink:href="#m0338b9b47d" x="76.079877" y="108.127603" style="stroke: #000000"/>
     <use xlink:href="#m0338b9b47d" x="302.383898" y="59.618848" style="stroke: #000000"/>
     <use xlink:href="#m0338b9b47d" x="239.571047" y="120.498515" style="stroke: #000000"/>
     <use xlink:href="#m0338b9b47d" x="88.141501" y="130.784912" style="stroke: #000000"/>
     <use xlink:href="#m0338b9b47d" x="55.438557" y="106.310777" style="stroke: #000000"/>
     <use xlink:href="#m0338b9b47d" x="343.894975" y="38.970836" style="stroke: #000000"/>
    </g>
   </g>
   <g id="PathCollection_2">
    <defs>
     <path id="m0285602391" d="M 0 2.345208 
C 0.621956 2.345208 1.218523 2.098102 1.658312 1.658312 
C 2.098102 1.218523 2.345208 0.621956 2.345208 0 
C 2.345208 -0.621956 2.098102 -1.218523 1.658312 -1.658312 
C 1.218523 -2.098102 0.621956 -2.345208 0 -2.345208 
C -0.621956 -2.345208 -1.218523 -2.098102 -1.658312 -1.658312 
C -2.098102 -1.218523 -2.345208 -0.621956 -2.345208 0 
C -2.345208 0.621956 -2.098102 1.218523 -1.658312 1.658312 
C -1.218523 2.098102 -0.621956 2.345208 0 2.345208 
z
" style="stroke: #ff0000"/>
    </defs>
    <g clip-path="url(#p0b86317ac7)">
     <use xlink:href="#m0285602391" x="295.870233" y="130.85126" style="fill: #ff0000; stroke: #ff0000"/>
    </g>
   </g>
  </g>
  <g id="axes_2">
   <g id="matplotlib.axis_3">
    <g id="ytick_7">
     <g id="line2d_16">
      <path d="M 27.015687 165.96 
L 361.815688 165.96 
" clip-path="url(#p0b86317ac7)" style="fill: none; stroke: #dbdbdb; stroke-width: 0.55; stroke-linecap: square"/>
     </g>
     <g id="line2d_17">
      <defs>
       <path id="m43d9973f85" d="M 0 0 
L 2.5 0 
" style="stroke: #000000; stroke-width: 0.6"/>
      </defs>
      <g>
       <use xlink:href="#m43d9973f85" x="361.815688" y="165.96" style="stroke: #000000; stroke-width: 0.6"/>
      </g>
     </g>
     <g id="text_16">
      <text style="font-size: 6.4px; font-family: 'Arial', 'Helvetica', 'DejaVu Sans', sans-serif; text-anchor: start" x="364.315688" y="168.3915" transform="rotate(-0 364.315688 168.3915)">0</text>
     </g>
    </g>
    <g id="ytick_8">
     <g id="line2d_18">
      <path d="M 27.015687 14.76 
L 361.815688 14.76 
" clip-path="url(#p0b86317ac7)" style="fill: none; stroke: #dbdbdb; stroke-width: 0.55; stroke-linecap: square"/>
     </g>
     <g id="line2d_19">
      <g>
       <use xlink:href="#m43d9973f85" x="361.815688" y="14.76" style="stroke: #000000; stroke-width: 0.6"/>
      </g>
     </g>
     <g id="text_17">
      <text style="font-size: 6.4px; font-family: 'Arial', 'Helvetica', 'DejaVu Sans', sans-serif; text-anchor: start" x="364.315688" y="17.1915" transform="rotate(-0 364.315688 17.1915)">1</text>
     </g>
    </g>
    <g id="text_18">
     <text style="font-size: 7px; font-family: 'Arial', 'Helvetica', 'DejaVu Sans', sans-serif; text-anchor: middle" x="368.706594" y="90.36" transform="rotate(-90 368.706594 90.36)">EI</text>
    </g>
   </g>
   <g id="line2d_20">
    <path d="M 42.233869 79.410905 
L 45.277506 83.101123 
L 46.799324 85.20123 
L 48.321142 87.505235 
L 49.84296 90.043467 
L 51.364778 92.848992 
L 52.886597 95.955624 
L 54.408415 99.394861 
L 55.930233 103.191629 
L 57.452051 107.358779 
L 60.495687 116.754844 
L 68.104778 142.419199 
L 69.626597 146.616297 
L 71.148415 150.056016 
L 72.670233 152.615111 
L 74.192051 154.231833 
L 75.713869 154.884716 
L 77.235687 154.55457 
L 78.757506 153.198288 
L 80.279324 150.758599 
L 81.801142 147.206359 
L 83.32296 142.585715 
L 84.844778 137.032378 
L 87.888415 124.01475 
L 92.453869 103.385681 
L 95.497506 91.080115 
L 97.019324 85.670255 
L 98.541142 80.806875 
L 100.06296 76.495474 
L 101.584778 72.723097 
L 103.106597 69.463899 
L 104.628415 66.683717 
L 106.150233 64.343666 
L 107.672051 62.40288 
L 109.193869 60.820496 
L 110.715687 59.557045 
L 112.237506 58.575354 
L 113.759324 57.841087 
L 115.281142 57.323009 
L 116.80296 56.993056 
L 118.324778 56.826275 
L 119.846597 56.800681 
L 122.890233 57.098748 
L 125.933869 57.762826 
L 128.977506 58.702236 
L 132.021142 59.853503 
L 136.586597 61.890509 
L 141.152051 64.237709 
L 145.717506 66.872308 
L 150.28296 69.797062 
L 154.848415 73.014411 
L 159.413869 76.501186 
L 167.02296 82.681683 
L 171.588415 86.333775 
L 174.632051 88.585106 
L 177.675687 90.574829 
L 180.719324 92.194106 
L 182.241142 92.829981 
L 183.76296 93.331825 
L 185.284778 93.686737 
L 186.806597 93.88278 
L 188.328415 93.909326 
L 189.850233 93.757425 
L 191.372051 93.420202 
L 192.893869 92.893301 
L 194.415687 92.175366 
L 195.937506 91.268579 
L 197.459324 90.179253 
L 198.981142 88.918493 
L 202.024778 85.955471 
L 206.590233 80.864359 
L 209.633869 77.597287 
L 211.155687 76.207729 
L 212.677506 75.100311 
L 214.199324 74.380936 
L 215.721142 74.168764 
L 217.24296 74.595735 
L 218.764778 75.805231 
L 220.286597 77.949451 
L 221.808415 81.184888 
L 223.330233 85.664992 
L 224.852051 91.528489 
L 226.373869 98.880886 
L 227.895688 107.764732 
L 229.417506 118.110535 
L 233.98296 153.298766 
L 235.504778 162.088244 
L 237.026597 165.749864 
L 238.548415 165.96 
L 241.592051 165.919081 
L 243.113869 162.756103 
L 244.635687 151.953487 
L 246.157506 136.270204 
L 249.201142 101.860044 
L 250.72296 85.935812 
L 252.244778 71.619077 
L 253.766597 59.075719 
L 255.288415 48.321556 
L 256.810233 39.291203 
L 258.332051 31.878191 
L 259.853869 25.959223 
L 261.375688 21.40917 
L 262.897506 18.110386 
L 264.419324 15.958372 
L 265.941142 14.864996 
L 267.46296 14.76 
L 268.984778 15.591273 
L 270.506597 17.324163 
L 272.028415 19.940005 
L 273.550233 23.433964 
L 275.072051 27.812233 
L 276.593869 33.088583 
L 278.115687 39.280263 
L 279.637506 46.403258 
L 281.159324 54.46694 
L 282.681142 63.46827 
L 284.20296 73.385899 
L 285.724778 84.174858 
L 288.768415 108.052745 
L 291.812051 134.279356 
L 294.855687 161.688073 
L 296.377506 164.941992 
L 297.899324 151.184662 
L 299.421142 140.808541 
L 300.94296 134.271429 
L 302.464778 130.361552 
L 303.986597 128.314198 
L 305.508415 127.731385 
L 307.030233 128.38322 
L 308.552051 130.085374 
L 310.073869 132.648288 
L 311.595687 135.865685 
L 314.639324 143.394445 
L 317.68296 151.007006 
L 319.204778 154.415305 
L 320.726597 157.399437 
L 322.248415 159.893536 
L 323.770233 161.875949 
L 325.292051 163.366298 
L 326.813869 164.418508 
L 328.335688 165.110126 
L 329.857506 165.529153 
L 331.379324 165.760681 
L 334.42296 165.927845 
L 343.553869 165.959799 
L 346.597506 165.95968 
L 346.597506 165.95968 
" clip-path="url(#p0b86317ac7)" style="fill: none; stroke: #ff7f0e; stroke-linecap: square"/>
   </g>
   <g id="patch_5">
    <path d="M 27.015687 173.52 
L 27.015687 7.2 
" style="fill: none; stroke: #292929; stroke-width: 0.75; stroke-linejoin: miter; stroke-linecap: square"/>
   </g>
   <g id="patch_6">
    <path d="M 27.015687 173.52 
L 361.815687 173.52 
" style="fill: none; stroke: #292929; stroke-width: 0.75; stroke-linejoin: miter; stroke-linecap: square"/>
   </g>
   <g id="PathCollection_3">
    <defs>
     <path id="m323967022e" d="M 0 -2.345208 
L -0.526532 -0.724709 
L -2.230425 -0.724709 
L -0.851947 0.276814 
L -1.378479 1.897313 
L -0 0.89579 
L 1.378479 1.897313 
L 0.851947 0.276814 
L 2.230425 -0.724709 
L 0.526532 -0.724709 
z
" style="stroke: #ff7f0e"/>
    </defs>
    <g clip-path="url(#p0b86317ac7)">
     <use xlink:href="#m323967022e" x="267.46296" y="14.76" style="fill: #ff7f0e; stroke: #ff7f0e"/>
    </g>
   </g>
  </g>
 </g>
 <defs>
  <clipPath id="p0b86317ac7">
   <rect x="27.015687" y="7.2" width="334.8" height="166.32"/>
  </clipPath>
 </defs>
</svg>
