<?xml version="1.0" encoding="utf-8" standalone="no"?>
<!DOCTYPE svg PUBLIC "-//W3C//DTD SVG 1.1//EN"
  "http://www.w3.org/Graphics/SVG/1.1/DTD/svg11.dtd">
<svg xmlns:xlink="http://www.w3.org/1999/xlink" width="233.106885pt" height="182.808675pt" viewBox="0 0 233.106885 182.808675" xmlns="http://www.w3.org/2000/svg" version="1.1">
 <metadata>
  <rdf:RDF xmlns:dc="http://purl.org/dc/elements/1.1/" xmlns:cc="http://creativecommons.org/ns#" xmlns:rdf="http://www.w3.org/1999/02/22-rdf-syntax-ns#">
   <cc:Work>
    <dc:type rdf:resource="http://purl.org/dc/dcmitype/StillImage"/>
    <dc:date>2026-06-23T12:16:40.418571</dc:date>
    <dc:format>image/svg+xml</dc:format>
    <dc:creator>
     <cc:Agent>
      <dc:title>Matplotlib v3.11.0, https://matplotlib.org/</dc:title>
     </cc:Agent>
    </dc:creator>
   </cc:Work>
  </rdf:RDF>
 </metadata>
 <defs>
  <style type="text/css">*{stroke-linejoin: round; stroke-linecap: butt}</style>
 </defs>
 <g id="figure_1">
  <g id="patch_1">
   <path d="M 0 182.808675 
L 233.106885 182.808675 
L 233.106885 0 
L 0 0 
z
" style="fill: #ffffff"/>
  </g>
  <g id="axes_1">
   <g id="patch_2">
    <path d="M 49.016385 141.981766 
L 225.906885 141.981766 
L 225.906885 7.2 
L 49.016385 7.2 
z
" style="fill: #ffffff"/>
   </g>
   <g id="matplotlib.axis_1">
    <g id="xtick_1">
     <g id="line2d_1">
      <defs>
       <path id="me6671616c4" d="M 0 0 
L 0 3 
" style="stroke: #222222; stroke-width: 0.8"/>
      </defs>
      <g>
       <use xlink:href="#me6671616c4" x="71.127698" y="141.981766" style="fill: #222222; stroke: #222222; stroke-width: 0.8"/>
      </g>
     </g>
     <g id="text_1">
      <text style="font-size: 7px; font-family: 'Arial', 'Helvetica', 'DejaVu Sans', sans-serif; fill: #222222" transform="translate(59.354381 164.428784) rotate(-25)">Original</text>
      <text style="font-size: 7px; font-family: 'Arial', 'Helvetica', 'DejaVu Sans', sans-serif; fill: #222222" transform="translate(61.167602 171.989668) rotate(-25)">(Clinical)</text>
     </g>
    </g>
    <g id="xtick_2">
     <g id="line2d_2">
      <g>
       <use xlink:href="#me6671616c4" x="115.350323" y="141.981766" style="fill: #222222; stroke: #222222; stroke-width: 0.8"/>
      </g>
     </g>
     <g id="text_2">
      <text style="font-size: 7px; font-family: 'Arial', 'Helvetica', 'DejaVu Sans', sans-serif; fill: #222222" transform="translate(104.280964 163.688844) rotate(-25)">Moving</text>
      <text style="font-size: 7px; font-family: 'Arial', 'Helvetica', 'DejaVu Sans', sans-serif; fill: #222222" transform="translate(106.263693 171.170686) rotate(-25)">average</text>
     </g>
    </g>
    <g id="xtick_3">
     <g id="line2d_3">
      <g>
       <use xlink:href="#me6671616c4" x="159.572948" y="141.981766" style="fill: #222222; stroke: #222222; stroke-width: 0.8"/>
      </g>
     </g>
     <g id="text_3">
      <text style="font-size: 7px; font-family: 'Arial', 'Helvetica', 'DejaVu Sans', sans-serif; fill: #222222" transform="translate(148.878906 163.787905) rotate(-25)">B-spline</text>
     </g>
    </g>
    <g id="xtick_4">
     <g id="line2d_4">
      <g>
       <use xlink:href="#me6671616c4" x="203.795573" y="141.981766" style="fill: #222222; stroke: #222222; stroke-width: 0.8"/>
      </g>
     </g>
     <g id="text_4">
      <text style="font-weight: 700; font-size: 7px; font-family: 'Arial', 'Helvetica', 'DejaVu Sans', sans-serif; fill: #222222" transform="translate(188.671932 166.893083) rotate(-25)">Geodesic</text>
      <text style="font-weight: 700; font-size: 7px; font-family: 'Arial', 'Helvetica', 'DejaVu Sans', sans-serif; fill: #222222" transform="translate(196.655281 171.576639) rotate(-25)">(Ours)</text>
     </g>
    </g>
   </g>
   <g id="matplotlib.axis_2">
    <g id="ytick_1">
     <g id="line2d_5">
      <defs>
       <path id="m5185b19c37" d="M 0 0 
L -3 0 
" style="stroke: #222222; stroke-width: 0.8"/>
      </defs>
      <g>
       <use xlink:href="#m5185b19c37" x="49.016385" y="135.428571" style="fill: #222222; stroke: #222222; stroke-width: 0.8"/>
      </g>
     </g>
     <g id="text_5">
      <text style="font-size: 7px; font-family: 'Arial', 'Helvetica', 'DejaVu Sans', sans-serif; text-anchor: end; fill: #222222" x="42.516385" y="137.976667" transform="rotate(-0 42.516385 137.976667)">35</text>
     </g>
    </g>
    <g id="ytick_2">
     <g id="line2d_6">
      <g>
       <use xlink:href="#m5185b19c37" x="49.016385" y="112.983136" style="fill: #222222; stroke: #222222; stroke-width: 0.8"/>
      </g>
     </g>
     <g id="text_6">
      <text style="font-size: 7px; font-family: 'Arial', 'Helvetica', 'DejaVu Sans', sans-serif; text-anchor: end; fill: #222222" x="42.516385" y="115.531231" transform="rotate(-0 42.516385 115.531231)">40</text>
     </g>
    </g>
    <g id="ytick_3">
     <g id="line2d_7">
      <g>
       <use xlink:href="#m5185b19c37" x="49.016385" y="90.5377" style="fill: #222222; stroke: #222222; stroke-width: 0.8"/>
      </g>
     </g>
     <g id="text_7">
      <text style="font-size: 7px; font-family: 'Arial', 'Helvetica', 'DejaVu Sans', sans-serif; text-anchor: end; fill: #222222" x="42.516385" y="93.085795" transform="rotate(-0 42.516385 93.085795)">45</text>
     </g>
    </g>
    <g id="ytick_4">
     <g id="line2d_8">
      <g>
       <use xlink:href="#m5185b19c37" x="49.016385" y="68.092264" style="fill: #222222; stroke: #222222; stroke-width: 0.8"/>
      </g>
     </g>
     <g id="text_8">
      <text style="font-size: 7px; font-family: 'Arial', 'Helvetica', 'DejaVu Sans', sans-serif; text-anchor: end; fill: #222222" x="42.516385" y="70.64036" transform="rotate(-0 42.516385 70.64036)">50</text>
     </g>
    </g>
    <g id="ytick_5">
     <g id="line2d_9">
      <g>
       <use xlink:href="#m5185b19c37" x="49.016385" y="45.646828" style="fill: #222222; stroke: #222222; stroke-width: 0.8"/>
      </g>
     </g>
     <g id="text_9">
      <text style="font-size: 7px; font-family: 'Arial', 'Helvetica', 'DejaVu Sans', sans-serif; text-anchor: end; fill: #222222" x="42.516385" y="48.194924" transform="rotate(-0 42.516385 48.194924)">55</text>
     </g>
    </g>
    <g id="ytick_6">
     <g id="line2d_10">
      <g>
       <use xlink:href="#m5185b19c37" x="49.016385" y="23.201392" style="fill: #222222; stroke: #222222; stroke-width: 0.8"/>
      </g>
     </g>
     <g id="text_10">
      <text style="font-size: 7px; font-family: 'Arial', 'Helvetica', 'DejaVu Sans', sans-serif; text-anchor: end; fill: #222222" x="42.516385" y="25.749488" transform="rotate(-0 42.516385 25.749488)">60</text>
     </g>
    </g>
    <g id="text_11">
     <!-- $\overline{\kappa}$ -->
     <g transform="translate(16.335 60.503158)">
      <text>
       <tspan x="0" y="-0.453125" style="font-size: 9px; font-family: 'cmmi10'">∙</tspan>
      </text>
      <rect x="0" y="-7.4375" width="5.185547" height="0.5625"/>
     </g>
     <!-- $(\mathrm{m}^{-1})$ -->
     <g transform="translate(7.2 71.666322)">
      <text>
       <tspan x="0" y="-0.083969" style="font-size: 9px; font-family: 'cmr10'">(</tspan>
       <tspan x="3.493652" y="-0.083969" style="font-size: 9px; font-family: 'cmr10'">m</tspan>
       <tspan x="19.910136" y="-0.083969" style="font-size: 9px; font-family: 'cmr10'">)</tspan>
       <tspan x="11.351109" y="-3.8" style="font-size: 6.3px; font-family: 'cmsy10'">¡</tspan>
       <tspan x="16.245298" y="-3.8" style="font-size: 6.3px; font-family: 'cmr10'">1</tspan>
      </text>
     </g>
    </g>
   </g>
   <g id="patch_3">
    <path d="M 55.649779 122.458907 
L 86.605616 122.458907 
L 86.605616 105.676874 
L 55.649779 105.676874 
L 55.649779 122.458907 
z
" clip-path="url(#paf52f1315d)" style="fill: #d95f5f; opacity: 0.45; stroke: #222222; stroke-width: 0.8; stroke-linejoin: miter"/>
   </g>
   <g id="line2d_11">
    <path d="M 71.127698 122.458907 
L 71.127698 125.034923 
" clip-path="url(#paf52f1315d)" style="fill: none; stroke: #222222; stroke-width: 0.8; stroke-linecap: square"/>
   </g>
   <g id="line2d_12">
    <path d="M 71.127698 105.676874 
L 71.127698 98.136749 
" clip-path="url(#paf52f1315d)" style="fill: none; stroke: #222222; stroke-width: 0.8; stroke-linecap: square"/>
   </g>
   <g id="line2d_13">
    <path d="M 63.388738 125.034923 
L 78.866657 125.034923 
" clip-path="url(#paf52f1315d)" style="fill: none; stroke: #222222; stroke-width: 0.8; stroke-linecap: square"/>
   </g>
   <g id="line2d_14">
    <path d="M 63.388738 98.136749 
L 78.866657 98.136749 
" clip-path="url(#paf52f1315d)" style="fill: none; stroke: #222222; stroke-width: 0.8; stroke-linecap: square"/>
   </g>
   <g id="patch_4">
    <path d="M 99.872404 38.556425 
L 130.828241 38.556425 
L 130.828241 22.942829 
L 99.872404 22.942829 
L 99.872404 38.556425 
z
" clip-path="url(#paf52f1315d)" style="fill: #8c8c8c; opacity: 0.45; stroke: #222222; stroke-width: 0.8; stroke-linejoin: miter"/>
   </g>
   <g id="line2d_15">
    <path d="M 115.350323 38.556425 
L 115.350323 56.196607 
" clip-path="url(#paf52f1315d)" style="fill: none; stroke: #222222; stroke-width: 0.8; stroke-linecap: square"/>
   </g>
   <g id="line2d_16">
    <path d="M 115.350323 22.942829 
L 115.350323 13.326444 
" clip-path="url(#paf52f1315d)" style="fill: none; stroke: #222222; stroke-width: 0.8; stroke-linecap: square"/>
   </g>
   <g id="line2d_17">
    <path d="M 107.611363 56.196607 
L 123.089282 56.196607 
" clip-path="url(#paf52f1315d)" style="fill: none; stroke: #222222; stroke-width: 0.8; stroke-linecap: square"/>
   </g>
   <g id="line2d_18">
    <path d="M 107.611363 13.326444 
L 123.089282 13.326444 
" clip-path="url(#paf52f1315d)" style="fill: none; stroke: #222222; stroke-width: 0.8; stroke-linecap: square"/>
   </g>
   <g id="patch_5">
    <path d="M 144.095029 90.723844 
L 175.050866 90.723844 
L 175.050866 83.572779 
L 144.095029 83.572779 
L 144.095029 90.723844 
z
" clip-path="url(#paf52f1315d)" style="fill: #4c78a8; opacity: 0.45; stroke: #222222; stroke-width: 0.8; stroke-linejoin: miter"/>
   </g>
   <g id="line2d_19">
    <path d="M 159.572948 90.723844 
L 159.572948 97.923593 
" clip-path="url(#paf52f1315d)" style="fill: none; stroke: #222222; stroke-width: 0.8; stroke-linecap: square"/>
   </g>
   <g id="line2d_20">
    <path d="M 159.572948 83.572779 
L 159.572948 73.629514 
" clip-path="url(#paf52f1315d)" style="fill: none; stroke: #222222; stroke-width: 0.8; stroke-linecap: square"/>
   </g>
   <g id="line2d_21">
    <path d="M 151.833988 97.923593 
L 167.311907 97.923593 
" clip-path="url(#paf52f1315d)" style="fill: none; stroke: #222222; stroke-width: 0.8; stroke-linecap: square"/>
   </g>
   <g id="line2d_22">
    <path d="M 151.833988 73.629514 
L 167.311907 73.629514 
" clip-path="url(#paf52f1315d)" style="fill: none; stroke: #222222; stroke-width: 0.8; stroke-linecap: square"/>
   </g>
   <g id="patch_6">
    <path d="M 188.317654 111.413631 
L 219.273491 111.413631 
L 219.273491 102.289621 
L 188.317654 102.289621 
L 188.317654 111.413631 
z
" clip-path="url(#paf52f1315d)" style="fill: #4daf7c; opacity: 0.45; stroke: #222222; stroke-width: 0.8; stroke-linejoin: miter"/>
   </g>
   <g id="line2d_23">
    <path d="M 203.795573 111.413631 
L 203.795573 116.30478 
" clip-path="url(#paf52f1315d)" style="fill: none; stroke: #222222; stroke-width: 0.8; stroke-linecap: square"/>
   </g>
   <g id="line2d_24">
    <path d="M 203.795573 102.289621 
L 203.795573 96.079622 
" clip-path="url(#paf52f1315d)" style="fill: none; stroke: #222222; stroke-width: 0.8; stroke-linecap: square"/>
   </g>
   <g id="line2d_25">
    <path d="M 196.056613 116.30478 
L 211.534532 116.30478 
" clip-path="url(#paf52f1315d)" style="fill: none; stroke: #222222; stroke-width: 0.8; stroke-linecap: square"/>
   </g>
   <g id="line2d_26">
    <path d="M 196.056613 96.079622 
L 211.534532 96.079622 
" clip-path="url(#paf52f1315d)" style="fill: none; stroke: #222222; stroke-width: 0.8; stroke-linecap: square"/>
   </g>
   <g id="line2d_27">
    <path d="M 55.649779 113.910702 
L 86.605616 113.910702 
" clip-path="url(#paf52f1315d)" style="fill: none; stroke: #222222"/>
   </g>
   <g id="line2d_28">
    <path d="M 99.872404 28.737386 
L 130.828241 28.737386 
" clip-path="url(#paf52f1315d)" style="fill: none; stroke: #222222"/>
   </g>
   <g id="line2d_29">
    <path d="M 144.095029 86.182174 
L 175.050866 86.182174 
" clip-path="url(#paf52f1315d)" style="fill: none; stroke: #222222"/>
   </g>
   <g id="line2d_30">
    <path d="M 188.317654 106.209644 
L 219.273491 106.209644 
" clip-path="url(#paf52f1315d)" style="fill: none; stroke: #222222"/>
   </g>
   <g id="patch_7">
    <path d="M 49.016385 141.981766 
L 49.016385 7.2 
" style="fill: none; stroke: #222222; stroke-width: 0.8; stroke-linejoin: miter; stroke-linecap: square"/>
   </g>
   <g id="patch_8">
    <path d="M 49.016385 141.981766 
L 225.906885 141.981766 
" style="fill: none; stroke: #222222; stroke-width: 0.8; stroke-linejoin: miter; stroke-linecap: square"/>
   </g>
   <g id="PathCollection_1">
    <defs>
     <path id="m278c9ad7d1" d="M 0 1.414214 
C 0.375054 1.414214 0.734797 1.265203 1 1 
C 1.265203 0.734797 1.414214 0.375054 1.414214 0 
C 1.414214 -0.375054 1.265203 -0.734797 1 -1 
C 0.734797 -1.265203 0.375054 -1.414214 0 -1.414214 
C -0.375054 -1.414214 -0.734797 -1.265203 -1 -1 
C -1.265203 -0.734797 -1.414214 -0.375054 -1.414214 0 
C -1.414214 0.375054 -1.265203 0.734797 -1 1 
C -0.734797 1.265203 -0.375054 1.414214 0 1.414214 
z
"/>
    </defs>
    <g clip-path="url(#paf52f1315d)">
     <use xlink:href="#m278c9ad7d1" x="71.294501" y="122.509272" style="fill: #d95f5f; fill-opacity: 0.72"/>
     <use xlink:href="#m278c9ad7d1" x="70.952437" y="118.972867" style="fill: #d95f5f; fill-opacity: 0.72"/>
     <use xlink:href="#m278c9ad7d1" x="71.977333" y="118.958586" style="fill: #d95f5f; fill-opacity: 0.72"/>
     <use xlink:href="#m278c9ad7d1" x="71.266866" y="107.577189" style="fill: #d95f5f; fill-opacity: 0.72"/>
     <use xlink:href="#m278c9ad7d1" x="70.417036" y="100.691788" style="fill: #d95f5f; fill-opacity: 0.72"/>
     <use xlink:href="#m278c9ad7d1" x="71.607418" y="100.66603" style="fill: #d95f5f; fill-opacity: 0.72"/>
     <use xlink:href="#m278c9ad7d1" x="72.857687" y="122.408541" style="fill: #d95f5f; fill-opacity: 0.72"/>
     <use xlink:href="#m278c9ad7d1" x="72.38417" y="76.981886" style="fill: #d95f5f; fill-opacity: 0.72"/>
     <use xlink:href="#m278c9ad7d1" x="70.194067" y="123.597505" style="fill: #d95f5f; fill-opacity: 0.72"/>
     <use xlink:href="#m278c9ad7d1" x="69.44889" y="110.54586" style="fill: #d95f5f; fill-opacity: 0.72"/>
     <use xlink:href="#m278c9ad7d1" x="70.300813" y="98.136749" style="fill: #d95f5f; fill-opacity: 0.72"/>
     <use xlink:href="#m278c9ad7d1" x="71.182524" y="111.104622" style="fill: #d95f5f; fill-opacity: 0.72"/>
     <use xlink:href="#m278c9ad7d1" x="68.043129" y="125.034923" style="fill: #d95f5f; fill-opacity: 0.72"/>
     <use xlink:href="#m278c9ad7d1" x="70.837431" y="116.698135" style="fill: #d95f5f; fill-opacity: 0.72"/>
     <use xlink:href="#m278c9ad7d1" x="69.474774" y="123.871908" style="fill: #d95f5f; fill-opacity: 0.72"/>
     <use xlink:href="#m278c9ad7d1" x="70.156214" y="103.776558" style="fill: #d95f5f; fill-opacity: 0.72"/>
     <use xlink:href="#m278c9ad7d1" x="70.405641" y="123.519714" style="fill: #d95f5f; fill-opacity: 0.72"/>
     <use xlink:href="#m278c9ad7d1" x="70.708069" y="113.910702" style="fill: #d95f5f; fill-opacity: 0.72"/>
     <use xlink:href="#m278c9ad7d1" x="71.673799" y="108.261957" style="fill: #d95f5f; fill-opacity: 0.72"/>
    </g>
   </g>
   <g id="PathCollection_2">
    <defs>
     <path id="mfbb9db4bd0" d="M 0 1.414214 
C 0.375054 1.414214 0.734797 1.265203 1 1 
C 1.265203 0.734797 1.414214 0.375054 1.414214 0 
C 1.414214 -0.375054 1.265203 -0.734797 1 -1 
C 0.734797 -1.265203 0.375054 -1.414214 0 -1.414214 
C -0.375054 -1.414214 -0.734797 -1.265203 -1 -1 
C -1.265203 -0.734797 -1.414214 -0.375054 -1.414214 0 
C -1.414214 0.375054 -1.265203 0.734797 -1 1 
C -0.734797 1.265203 -0.375054 1.414214 0 1.414214 
z
"/>
    </defs>
    <g clip-path="url(#paf52f1315d)">
     <use xlink:href="#mfbb9db4bd0" x="116.733403" y="49.816285" style="fill: #8c8c8c; fill-opacity: 0.72"/>
     <use xlink:href="#mfbb9db4bd0" x="115.179798" y="28.737386" style="fill: #8c8c8c; fill-opacity: 0.72"/>
     <use xlink:href="#mfbb9db4bd0" x="117.163181" y="27.931989" style="fill: #8c8c8c; fill-opacity: 0.72"/>
     <use xlink:href="#mfbb9db4bd0" x="114.467823" y="32.919784" style="fill: #8c8c8c; fill-opacity: 0.72"/>
     <use xlink:href="#mfbb9db4bd0" x="115.816663" y="22.358908" style="fill: #8c8c8c; fill-opacity: 0.72"/>
     <use xlink:href="#mfbb9db4bd0" x="116.548937" y="29.489296" style="fill: #8c8c8c; fill-opacity: 0.72"/>
     <use xlink:href="#mfbb9db4bd0" x="115.475047" y="18.922778" style="fill: #8c8c8c; fill-opacity: 0.72"/>
     <use xlink:href="#mfbb9db4bd0" x="114.363938" y="24.772312" style="fill: #8c8c8c; fill-opacity: 0.72"/>
     <use xlink:href="#mfbb9db4bd0" x="114.127489" y="31.01388" style="fill: #8c8c8c; fill-opacity: 0.72"/>
     <use xlink:href="#mfbb9db4bd0" x="114.743067" y="25.876567" style="fill: #8c8c8c; fill-opacity: 0.72"/>
     <use xlink:href="#mfbb9db4bd0" x="115.642451" y="14.87753" style="fill: #8c8c8c; fill-opacity: 0.72"/>
     <use xlink:href="#mfbb9db4bd0" x="114.010884" y="13.326444" style="fill: #8c8c8c; fill-opacity: 0.72"/>
     <use xlink:href="#mfbb9db4bd0" x="115.072814" y="23.52675" style="fill: #8c8c8c; fill-opacity: 0.72"/>
     <use xlink:href="#mfbb9db4bd0" x="115.139082" y="17.982028" style="fill: #8c8c8c; fill-opacity: 0.72"/>
     <use xlink:href="#mfbb9db4bd0" x="116.067851" y="68.223715" style="fill: #8c8c8c; fill-opacity: 0.72"/>
     <use xlink:href="#mfbb9db4bd0" x="115.635106" y="33.681242" style="fill: #8c8c8c; fill-opacity: 0.72"/>
     <use xlink:href="#mfbb9db4bd0" x="115.821788" y="43.431608" style="fill: #8c8c8c; fill-opacity: 0.72"/>
     <use xlink:href="#mfbb9db4bd0" x="114.482902" y="56.196607" style="fill: #8c8c8c; fill-opacity: 0.72"/>
     <use xlink:href="#mfbb9db4bd0" x="115.178367" y="45.339883" style="fill: #8c8c8c; fill-opacity: 0.72"/>
    </g>
   </g>
   <g id="PathCollection_3">
    <defs>
     <path id="mf138179bfd" d="M 0 1.414214 
C 0.375054 1.414214 0.734797 1.265203 1 1 
C 1.265203 0.734797 1.414214 0.375054 1.414214 0 
C 1.414214 -0.375054 1.265203 -0.734797 1 -1 
C 0.734797 -1.265203 0.375054 -1.414214 0 -1.414214 
C -0.375054 -1.414214 -0.734797 -1.265203 -1 -1 
C -1.265203 -0.734797 -1.414214 -0.375054 -1.414214 0 
C -1.414214 0.375054 -1.265203 0.734797 -1 1 
C -0.734797 1.265203 -0.375054 1.414214 0 1.414214 
z
"/>
    </defs>
    <g clip-path="url(#paf52f1315d)">
     <use xlink:href="#mf138179bfd" x="160.613031" y="97.923593" style="fill: #4c78a8; fill-opacity: 0.72"/>
     <use xlink:href="#mf138179bfd" x="161.554251" y="87.007319" style="fill: #4c78a8; fill-opacity: 0.72"/>
     <use xlink:href="#mf138179bfd" x="157.902572" y="82.92257" style="fill: #4c78a8; fill-opacity: 0.72"/>
     <use xlink:href="#mf138179bfd" x="161.581438" y="83.50466" style="fill: #4c78a8; fill-opacity: 0.72"/>
     <use xlink:href="#mf138179bfd" x="161.358492" y="87.70213" style="fill: #4c78a8; fill-opacity: 0.72"/>
     <use xlink:href="#mf138179bfd" x="160.609497" y="82.349168" style="fill: #4c78a8; fill-opacity: 0.72"/>
     <use xlink:href="#mf138179bfd" x="159.923795" y="73.629514" style="fill: #4c78a8; fill-opacity: 0.72"/>
     <use xlink:href="#mf138179bfd" x="159.156473" y="105.645696" style="fill: #4c78a8; fill-opacity: 0.72"/>
     <use xlink:href="#mf138179bfd" x="161.507273" y="86.182174" style="fill: #4c78a8; fill-opacity: 0.72"/>
     <use xlink:href="#mf138179bfd" x="162.173581" y="85.461244" style="fill: #4c78a8; fill-opacity: 0.72"/>
     <use xlink:href="#mf138179bfd" x="161.963138" y="79.479269" style="fill: #4c78a8; fill-opacity: 0.72"/>
     <use xlink:href="#mf138179bfd" x="161.317668" y="83.640899" style="fill: #4c78a8; fill-opacity: 0.72"/>
     <use xlink:href="#mf138179bfd" x="160.047076" y="90.336071" style="fill: #4c78a8; fill-opacity: 0.72"/>
     <use xlink:href="#mf138179bfd" x="157.969897" y="84.543362" style="fill: #4c78a8; fill-opacity: 0.72"/>
     <use xlink:href="#mf138179bfd" x="159.567038" y="118.303169" style="fill: #4c78a8; fill-opacity: 0.72"/>
     <use xlink:href="#mf138179bfd" x="160.443879" y="84.098516" style="fill: #4c78a8; fill-opacity: 0.72"/>
     <use xlink:href="#mf138179bfd" x="157.863706" y="86.883004" style="fill: #4c78a8; fill-opacity: 0.72"/>
     <use xlink:href="#mf138179bfd" x="160.097148" y="92.242627" style="fill: #4c78a8; fill-opacity: 0.72"/>
     <use xlink:href="#mf138179bfd" x="160.143239" y="91.111618" style="fill: #4c78a8; fill-opacity: 0.72"/>
    </g>
   </g>
   <g id="PathCollection_4">
    <defs>
     <path id="m6df81430ac" d="M 0 1.414214 
C 0.375054 1.414214 0.734797 1.265203 1 1 
C 1.265203 0.734797 1.414214 0.375054 1.414214 0 
C 1.414214 -0.375054 1.265203 -0.734797 1 -1 
C 0.734797 -1.265203 0.375054 -1.414214 0 -1.414214 
C -0.375054 -1.414214 -0.734797 -1.265203 -1 -1 
C -1.265203 -0.734797 -1.414214 -0.375054 -1.414214 0 
C -1.414214 0.375054 -1.265203 0.734797 -1 1 
C -0.734797 1.265203 -0.375054 1.414214 0 1.414214 
z
"/>
    </defs>
    <g clip-path="url(#paf52f1315d)">
     <use xlink:href="#m6df81430ac" x="204.718998" y="112.088549" style="fill: #4daf7c; fill-opacity: 0.72"/>
     <use xlink:href="#m6df81430ac" x="202.224628" y="108.27419" style="fill: #4daf7c; fill-opacity: 0.72"/>
     <use xlink:href="#m6df81430ac" x="202.917706" y="102.996829" style="fill: #4daf7c; fill-opacity: 0.72"/>
     <use xlink:href="#m6df81430ac" x="203.216563" y="99.212714" style="fill: #4daf7c; fill-opacity: 0.72"/>
     <use xlink:href="#m6df81430ac" x="202.243621" y="100.535635" style="fill: #4daf7c; fill-opacity: 0.72"/>
     <use xlink:href="#m6df81430ac" x="206.103155" y="105.341081" style="fill: #4daf7c; fill-opacity: 0.72"/>
     <use xlink:href="#m6df81430ac" x="203.137658" y="96.079622" style="fill: #4daf7c; fill-opacity: 0.72"/>
     <use xlink:href="#m6df81430ac" x="204.23201" y="87.496116" style="fill: #4daf7c; fill-opacity: 0.72"/>
     <use xlink:href="#m6df81430ac" x="203.45253" y="106.209644" style="fill: #4daf7c; fill-opacity: 0.72"/>
     <use xlink:href="#m6df81430ac" x="205.896332" y="116.30478" style="fill: #4daf7c; fill-opacity: 0.72"/>
     <use xlink:href="#m6df81430ac" x="205.547267" y="101.582413" style="fill: #4daf7c; fill-opacity: 0.72"/>
     <use xlink:href="#m6df81430ac" x="204.635828" y="110.738714" style="fill: #4daf7c; fill-opacity: 0.72"/>
     <use xlink:href="#m6df81430ac" x="200.872223" y="114.80302" style="fill: #4daf7c; fill-opacity: 0.72"/>
     <use xlink:href="#m6df81430ac" x="203.864598" y="105.653467" style="fill: #4daf7c; fill-opacity: 0.72"/>
     <use xlink:href="#m6df81430ac" x="204.702604" y="109.936342" style="fill: #4daf7c; fill-opacity: 0.72"/>
     <use xlink:href="#m6df81430ac" x="205.127507" y="108.892744" style="fill: #4daf7c; fill-opacity: 0.72"/>
     <use xlink:href="#m6df81430ac" x="202.975808" y="115.550475" style="fill: #4daf7c; fill-opacity: 0.72"/>
     <use xlink:href="#m6df81430ac" x="206.212796" y="105.204387" style="fill: #4daf7c; fill-opacity: 0.72"/>
     <use xlink:href="#m6df81430ac" x="202.043785" y="135.855322" style="fill: #4daf7c; fill-opacity: 0.72"/>
    </g>
   </g>
  </g>
 </g>
 <defs>
  <clipPath id="paf52f1315d">
   <rect x="49.016385" y="7.2" width="176.8905" height="134.781766"/>
  </clipPath>
 </defs>
</svg>
