<?xml version="1.0" encoding="utf-8" standalone="no"?>
<!DOCTYPE svg PUBLIC "-//W3C//DTD SVG 1.1//EN"
  "http://www.w3.org/Graphics/SVG/1.1/DTD/svg11.dtd">
<svg xmlns:xlink="http://www.w3.org/1999/xlink" width="233.106885pt" height="182.808675pt" viewBox="0 0 233.106885 182.808675" xmlns="http://www.w3.org/2000/svg" version="1.1">
 <metadata>
  <rdf:RDF xmlns:dc="http://purl.org/dc/elements/1.1/" xmlns:cc="http://creativecommons.org/ns#" xmlns:rdf="http://www.w3.org/1999/02/22-rdf-syntax-ns#">
   <cc:Work>
    <dc:type rdf:resource="http://purl.org/dc/dcmitype/StillImage"/>
    <dc:date>2026-06-23T12:16:39.729495</dc:date>
    <dc:format>image/svg+xml</dc:format>
    <dc:creator>
     <cc:Agent>
      <dc:title>Matplotlib v3.11.0, https://matplotlib.org/</dc:title>
     </cc:Agent>
    </dc:creator>
   </cc:Work>
  </rdf:RDF>
 </metadata>
 <defs>
  <style type="text/css">*{stroke-linejoin: round; stroke-linecap: butt}</style>
 </defs>
 <g id="figure_1">
  <g id="patch_1">
   <path d="M 0 182.808675 
L 233.106885 182.808675 
L 233.106885 0 
L 0 0 
z
" style="fill: #ffffff"/>
  </g>
  <g id="axes_1">
   <g id="patch_2">
    <path d="M 49.016385 141.981766 
L 225.906885 141.981766 
L 225.906885 7.2 
L 49.016385 7.2 
z
" style="fill: #ffffff"/>
   </g>
   <g id="matplotlib.axis_1">
    <g id="xtick_1">
     <g id="line2d_1">
      <defs>
       <path id="m02805a9b20" d="M 0 0 
L 0 3 
" style="stroke: #222222; stroke-width: 0.8"/>
      </defs>
      <g>
       <use xlink:href="#m02805a9b20" x="71.127698" y="141.981766" style="fill: #222222; stroke: #222222; stroke-width: 0.8"/>
      </g>
     </g>
     <g id="text_1">
      <text style="font-size: 7px; font-family: 'Arial', 'Helvetica', 'DejaVu Sans', sans-serif; fill: #222222" transform="translate(59.354381 164.428784) rotate(-25)">Original</text>
      <text style="font-size: 7px; font-family: 'Arial', 'Helvetica', 'DejaVu Sans', sans-serif; fill: #222222" transform="translate(61.167602 171.989668) rotate(-25)">(Clinical)</text>
     </g>
    </g>
    <g id="xtick_2">
     <g id="line2d_2">
      <g>
       <use xlink:href="#m02805a9b20" x="115.350323" y="141.981766" style="fill: #222222; stroke: #222222; stroke-width: 0.8"/>
      </g>
     </g>
     <g id="text_2">
      <text style="font-size: 7px; font-family: 'Arial', 'Helvetica', 'DejaVu Sans', sans-serif; fill: #222222" transform="translate(104.280964 163.688844) rotate(-25)">Moving</text>
      <text style="font-size: 7px; font-family: 'Arial', 'Helvetica', 'DejaVu Sans', sans-serif; fill: #222222" transform="translate(106.263693 171.170686) rotate(-25)">average</text>
     </g>
    </g>
    <g id="xtick_3">
     <g id="line2d_3">
      <g>
       <use xlink:href="#m02805a9b20" x="159.572948" y="141.981766" style="fill: #222222; stroke: #222222; stroke-width: 0.8"/>
      </g>
     </g>
     <g id="text_3">
      <text style="font-size: 7px; font-family: 'Arial', 'Helvetica', 'DejaVu Sans', sans-serif; fill: #222222" transform="translate(148.878906 163.787905) rotate(-25)">B-spline</text>
     </g>
    </g>
    <g id="xtick_4">
     <g id="line2d_4">
      <g>
       <use xlink:href="#m02805a9b20" x="203.795573" y="141.981766" style="fill: #222222; stroke: #222222; stroke-width: 0.8"/>
      </g>
     </g>
     <g id="text_4">
      <text style="font-weight: 700; font-size: 7px; font-family: 'Arial', 'Helvetica', 'DejaVu Sans', sans-serif; fill: #222222" transform="translate(188.671932 166.893083) rotate(-25)">Geodesic</text>
      <text style="font-weight: 700; font-size: 7px; font-family: 'Arial', 'Helvetica', 'DejaVu Sans', sans-serif; fill: #222222" transform="translate(196.655281 171.576639) rotate(-25)">(Ours)</text>
     </g>
    </g>
   </g>
   <g id="matplotlib.axis_2">
    <g id="ytick_1">
     <g id="line2d_5">
      <defs>
       <path id="m78d42d987d" d="M 0 0 
L -3 0 
" style="stroke: #222222; stroke-width: 0.8"/>
      </defs>
      <g>
       <use xlink:href="#m78d42d987d" x="49.016385" y="131.778042" style="fill: #222222; stroke: #222222; stroke-width: 0.8"/>
      </g>
     </g>
     <g id="text_5">
      <text style="font-size: 7px; font-family: 'Arial', 'Helvetica', 'DejaVu Sans', sans-serif; text-anchor: end; fill: #222222" x="42.516385" y="134.326137" transform="rotate(-0 42.516385 134.326137)">25</text>
     </g>
    </g>
    <g id="ytick_2">
     <g id="line2d_6">
      <g>
       <use xlink:href="#m78d42d987d" x="49.016385" y="115.889771" style="fill: #222222; stroke: #222222; stroke-width: 0.8"/>
      </g>
     </g>
     <g id="text_6">
      <text style="font-size: 7px; font-family: 'Arial', 'Helvetica', 'DejaVu Sans', sans-serif; text-anchor: end; fill: #222222" x="42.516385" y="118.437867" transform="rotate(-0 42.516385 118.437867)">30</text>
     </g>
    </g>
    <g id="ytick_3">
     <g id="line2d_7">
      <g>
       <use xlink:href="#m78d42d987d" x="49.016385" y="100.0015" style="fill: #222222; stroke: #222222; stroke-width: 0.8"/>
      </g>
     </g>
     <g id="text_7">
      <text style="font-size: 7px; font-family: 'Arial', 'Helvetica', 'DejaVu Sans', sans-serif; text-anchor: end; fill: #222222" x="42.516385" y="102.549596" transform="rotate(-0 42.516385 102.549596)">35</text>
     </g>
    </g>
    <g id="ytick_4">
     <g id="line2d_8">
      <g>
       <use xlink:href="#m78d42d987d" x="49.016385" y="84.11323" style="fill: #222222; stroke: #222222; stroke-width: 0.8"/>
      </g>
     </g>
     <g id="text_8">
      <text style="font-size: 7px; font-family: 'Arial', 'Helvetica', 'DejaVu Sans', sans-serif; text-anchor: end; fill: #222222" x="42.516385" y="86.661325" transform="rotate(-0 42.516385 86.661325)">40</text>
     </g>
    </g>
    <g id="ytick_5">
     <g id="line2d_9">
      <g>
       <use xlink:href="#m78d42d987d" x="49.016385" y="68.224959" style="fill: #222222; stroke: #222222; stroke-width: 0.8"/>
      </g>
     </g>
     <g id="text_9">
      <text style="font-size: 7px; font-family: 'Arial', 'Helvetica', 'DejaVu Sans', sans-serif; text-anchor: end; fill: #222222" x="42.516385" y="70.773055" transform="rotate(-0 42.516385 70.773055)">45</text>
     </g>
    </g>
    <g id="ytick_6">
     <g id="line2d_10">
      <g>
       <use xlink:href="#m78d42d987d" x="49.016385" y="52.336688" style="fill: #222222; stroke: #222222; stroke-width: 0.8"/>
      </g>
     </g>
     <g id="text_10">
      <text style="font-size: 7px; font-family: 'Arial', 'Helvetica', 'DejaVu Sans', sans-serif; text-anchor: end; fill: #222222" x="42.516385" y="54.884784" transform="rotate(-0 42.516385 54.884784)">50</text>
     </g>
    </g>
    <g id="ytick_7">
     <g id="line2d_11">
      <g>
       <use xlink:href="#m78d42d987d" x="49.016385" y="36.448418" style="fill: #222222; stroke: #222222; stroke-width: 0.8"/>
      </g>
     </g>
     <g id="text_11">
      <text style="font-size: 7px; font-family: 'Arial', 'Helvetica', 'DejaVu Sans', sans-serif; text-anchor: end; fill: #222222" x="42.516385" y="38.996514" transform="rotate(-0 42.516385 38.996514)">55</text>
     </g>
    </g>
    <g id="ytick_8">
     <g id="line2d_12">
      <g>
       <use xlink:href="#m78d42d987d" x="49.016385" y="20.560147" style="fill: #222222; stroke: #222222; stroke-width: 0.8"/>
      </g>
     </g>
     <g id="text_12">
      <text style="font-size: 7px; font-family: 'Arial', 'Helvetica', 'DejaVu Sans', sans-serif; text-anchor: end; fill: #222222" x="42.516385" y="23.108243" transform="rotate(-0 42.516385 23.108243)">60</text>
     </g>
    </g>
    <g id="text_13">
     <!-- $\overline{|\kappa_g|}$ -->
     <g transform="translate(12.06 59.697201)">
      <text>
       <tspan x="0" y="0.3125" style="font-size: 9px; font-family: 'cmsy10'">j</tspan>
       <tspan x="11.197503" y="0.3125" style="font-size: 9px; font-family: 'cmsy10'">j</tspan>
       <tspan x="2.491699" y="0.3125" style="font-size: 9px; font-family: 'cmmi10'">∙</tspan>
       <tspan x="7.677246" y="1.662497" style="font-size: 6.3px; font-family: 'cmmi10'">g</tspan>
      </text>
      <rect x="0" y="-9.4375" width="13.689203" height="0.5625"/>
     </g>
     <!-- $(\mathrm{m}^{-1})$ -->
     <g transform="translate(7.2 71.666322)">
      <text>
       <tspan x="0" y="-0.083969" style="font-size: 9px; font-family: 'cmr10'">(</tspan>
       <tspan x="3.493652" y="-0.083969" style="font-size: 9px; font-family: 'cmr10'">m</tspan>
       <tspan x="19.910136" y="-0.083969" style="font-size: 9px; font-family: 'cmr10'">)</tspan>
       <tspan x="11.351109" y="-3.8" style="font-size: 6.3px; font-family: 'cmsy10'">¡</tspan>
       <tspan x="16.245298" y="-3.8" style="font-size: 6.3px; font-family: 'cmr10'">1</tspan>
      </text>
     </g>
    </g>
   </g>
   <g id="patch_3">
    <path d="M 55.649779 79.156069 
L 86.605616 79.156069 
L 86.605616 67.131688 
L 55.649779 67.131688 
L 55.649779 79.156069 
z
" clip-path="url(#p63afe38019)" style="fill: #d95f5f; opacity: 0.45; stroke: #222222; stroke-width: 0.8; stroke-linejoin: miter"/>
   </g>
   <g id="line2d_13">
    <path d="M 71.127698 79.156069 
L 71.127698 87.127974 
" clip-path="url(#p63afe38019)" style="fill: none; stroke: #222222; stroke-width: 0.8; stroke-linecap: square"/>
   </g>
   <g id="line2d_14">
    <path d="M 71.127698 67.131688 
L 71.127698 58.284646 
" clip-path="url(#p63afe38019)" style="fill: none; stroke: #222222; stroke-width: 0.8; stroke-linecap: square"/>
   </g>
   <g id="line2d_15">
    <path d="M 63.388738 87.127974 
L 78.866657 87.127974 
" clip-path="url(#p63afe38019)" style="fill: none; stroke: #222222; stroke-width: 0.8; stroke-linecap: square"/>
   </g>
   <g id="line2d_16">
    <path d="M 63.388738 58.284646 
L 78.866657 58.284646 
" clip-path="url(#p63afe38019)" style="fill: none; stroke: #222222; stroke-width: 0.8; stroke-linecap: square"/>
   </g>
   <g id="patch_4">
    <path d="M 99.872404 40.652031 
L 130.828241 40.652031 
L 130.828241 22.825279 
L 99.872404 22.825279 
L 99.872404 40.652031 
z
" clip-path="url(#p63afe38019)" style="fill: #8c8c8c; opacity: 0.45; stroke: #222222; stroke-width: 0.8; stroke-linejoin: miter"/>
   </g>
   <g id="line2d_17">
    <path d="M 115.350323 40.652031 
L 115.350323 57.920618 
" clip-path="url(#p63afe38019)" style="fill: none; stroke: #222222; stroke-width: 0.8; stroke-linecap: square"/>
   </g>
   <g id="line2d_18">
    <path d="M 115.350323 22.825279 
L 115.350323 13.326444 
" clip-path="url(#p63afe38019)" style="fill: none; stroke: #222222; stroke-width: 0.8; stroke-linecap: square"/>
   </g>
   <g id="line2d_19">
    <path d="M 107.611363 57.920618 
L 123.089282 57.920618 
" clip-path="url(#p63afe38019)" style="fill: none; stroke: #222222; stroke-width: 0.8; stroke-linecap: square"/>
   </g>
   <g id="line2d_20">
    <path d="M 107.611363 13.326444 
L 123.089282 13.326444 
" clip-path="url(#p63afe38019)" style="fill: none; stroke: #222222; stroke-width: 0.8; stroke-linecap: square"/>
   </g>
   <g id="patch_5">
    <path d="M 144.095029 69.544708 
L 175.050866 69.544708 
L 175.050866 58.703555 
L 144.095029 58.703555 
L 144.095029 69.544708 
z
" clip-path="url(#p63afe38019)" style="fill: #4c78a8; opacity: 0.45; stroke: #222222; stroke-width: 0.8; stroke-linejoin: miter"/>
   </g>
   <g id="line2d_21">
    <path d="M 159.572948 69.544708 
L 159.572948 79.673511 
" clip-path="url(#p63afe38019)" style="fill: none; stroke: #222222; stroke-width: 0.8; stroke-linecap: square"/>
   </g>
   <g id="line2d_22">
    <path d="M 159.572948 58.703555 
L 159.572948 55.379712 
" clip-path="url(#p63afe38019)" style="fill: none; stroke: #222222; stroke-width: 0.8; stroke-linecap: square"/>
   </g>
   <g id="line2d_23">
    <path d="M 151.833988 79.673511 
L 167.311907 79.673511 
" clip-path="url(#p63afe38019)" style="fill: none; stroke: #222222; stroke-width: 0.8; stroke-linecap: square"/>
   </g>
   <g id="line2d_24">
    <path d="M 151.833988 55.379712 
L 167.311907 55.379712 
" clip-path="url(#p63afe38019)" style="fill: none; stroke: #222222; stroke-width: 0.8; stroke-linecap: square"/>
   </g>
   <g id="patch_6">
    <path d="M 188.317654 123.623126 
L 219.273491 123.623126 
L 219.273491 107.124494 
L 188.317654 107.124494 
L 188.317654 123.623126 
z
" clip-path="url(#p63afe38019)" style="fill: #4daf7c; opacity: 0.45; stroke: #222222; stroke-width: 0.8; stroke-linejoin: miter"/>
   </g>
   <g id="line2d_25">
    <path d="M 203.795573 123.623126 
L 203.795573 135.855322 
" clip-path="url(#p63afe38019)" style="fill: none; stroke: #222222; stroke-width: 0.8; stroke-linecap: square"/>
   </g>
   <g id="line2d_26">
    <path d="M 203.795573 107.124494 
L 203.795573 97.501909 
" clip-path="url(#p63afe38019)" style="fill: none; stroke: #222222; stroke-width: 0.8; stroke-linecap: square"/>
   </g>
   <g id="line2d_27">
    <path d="M 196.056613 135.855322 
L 211.534532 135.855322 
" clip-path="url(#p63afe38019)" style="fill: none; stroke: #222222; stroke-width: 0.8; stroke-linecap: square"/>
   </g>
   <g id="line2d_28">
    <path d="M 196.056613 97.501909 
L 211.534532 97.501909 
" clip-path="url(#p63afe38019)" style="fill: none; stroke: #222222; stroke-width: 0.8; stroke-linecap: square"/>
   </g>
   <g id="line2d_29">
    <path d="M 55.649779 74.097985 
L 86.605616 74.097985 
" clip-path="url(#p63afe38019)" style="fill: none; stroke: #222222"/>
   </g>
   <g id="line2d_30">
    <path d="M 99.872404 30.358476 
L 130.828241 30.358476 
" clip-path="url(#p63afe38019)" style="fill: none; stroke: #222222"/>
   </g>
   <g id="line2d_31">
    <path d="M 144.095029 64.907553 
L 175.050866 64.907553 
" clip-path="url(#p63afe38019)" style="fill: none; stroke: #222222"/>
   </g>
   <g id="line2d_32">
    <path d="M 188.317654 113.000692 
L 219.273491 113.000692 
" clip-path="url(#p63afe38019)" style="fill: none; stroke: #222222"/>
   </g>
   <g id="patch_7">
    <path d="M 49.016385 141.981766 
L 49.016385 7.2 
" style="fill: none; stroke: #222222; stroke-width: 0.8; stroke-linejoin: miter; stroke-linecap: square"/>
   </g>
   <g id="patch_8">
    <path d="M 49.016385 141.981766 
L 225.906885 141.981766 
" style="fill: none; stroke: #222222; stroke-width: 0.8; stroke-linejoin: miter; stroke-linecap: square"/>
   </g>
   <g id="PathCollection_1">
    <defs>
     <path id="m25bc2c3206" d="M 0 1.414214 
C 0.375054 1.414214 0.734797 1.265203 1 1 
C 1.265203 0.734797 1.414214 0.375054 1.414214 0 
C 1.414214 -0.375054 1.265203 -0.734797 1 -1 
C 0.734797 -1.265203 0.375054 -1.414214 0 -1.414214 
C -0.375054 -1.414214 -0.734797 -1.265203 -1 -1 
C -1.265203 -0.734797 -1.414214 -0.375054 -1.414214 0 
C -1.414214 0.375054 -1.265203 0.734797 -1 1 
C -0.734797 1.265203 -0.375054 1.414214 0 1.414214 
z
"/>
    </defs>
    <g clip-path="url(#p63afe38019)">
     <use xlink:href="#m25bc2c3206" x="71.294501" y="87.127974" style="fill: #d95f5f; fill-opacity: 0.72"/>
     <use xlink:href="#m25bc2c3206" x="70.952437" y="74.097985" style="fill: #d95f5f; fill-opacity: 0.72"/>
     <use xlink:href="#m25bc2c3206" x="71.977333" y="75.037981" style="fill: #d95f5f; fill-opacity: 0.72"/>
     <use xlink:href="#m25bc2c3206" x="71.266866" y="68.785099" style="fill: #d95f5f; fill-opacity: 0.72"/>
     <use xlink:href="#m25bc2c3206" x="70.417036" y="58.284646" style="fill: #d95f5f; fill-opacity: 0.72"/>
     <use xlink:href="#m25bc2c3206" x="71.607418" y="65.659096" style="fill: #d95f5f; fill-opacity: 0.72"/>
     <use xlink:href="#m25bc2c3206" x="72.857687" y="81.521661" style="fill: #d95f5f; fill-opacity: 0.72"/>
     <use xlink:href="#m25bc2c3206" x="72.38417" y="15.109153" style="fill: #d95f5f; fill-opacity: 0.72"/>
     <use xlink:href="#m25bc2c3206" x="70.194067" y="76.641908" style="fill: #d95f5f; fill-opacity: 0.72"/>
     <use xlink:href="#m25bc2c3206" x="69.44889" y="69.733302" style="fill: #d95f5f; fill-opacity: 0.72"/>
     <use xlink:href="#m25bc2c3206" x="70.300813" y="45.497835" style="fill: #d95f5f; fill-opacity: 0.72"/>
     <use xlink:href="#m25bc2c3206" x="71.182524" y="68.604281" style="fill: #d95f5f; fill-opacity: 0.72"/>
     <use xlink:href="#m25bc2c3206" x="68.043129" y="86.714038" style="fill: #d95f5f; fill-opacity: 0.72"/>
     <use xlink:href="#m25bc2c3206" x="70.837431" y="74.603862" style="fill: #d95f5f; fill-opacity: 0.72"/>
     <use xlink:href="#m25bc2c3206" x="69.474774" y="82.194219" style="fill: #d95f5f; fill-opacity: 0.72"/>
     <use xlink:href="#m25bc2c3206" x="70.156214" y="71.604583" style="fill: #d95f5f; fill-opacity: 0.72"/>
     <use xlink:href="#m25bc2c3206" x="70.405641" y="80.425565" style="fill: #d95f5f; fill-opacity: 0.72"/>
     <use xlink:href="#m25bc2c3206" x="70.708069" y="77.886573" style="fill: #d95f5f; fill-opacity: 0.72"/>
     <use xlink:href="#m25bc2c3206" x="71.673799" y="64.475481" style="fill: #d95f5f; fill-opacity: 0.72"/>
    </g>
   </g>
   <g id="PathCollection_2">
    <defs>
     <path id="mf255502d6c" d="M 0 1.414214 
C 0.375054 1.414214 0.734797 1.265203 1 1 
C 1.265203 0.734797 1.414214 0.375054 1.414214 0 
C 1.414214 -0.375054 1.265203 -0.734797 1 -1 
C 0.734797 -1.265203 0.375054 -1.414214 0 -1.414214 
C -0.375054 -1.414214 -0.734797 -1.265203 -1 -1 
C -1.265203 -0.734797 -1.414214 -0.375054 -1.414214 0 
C -1.414214 0.375054 -1.265203 0.734797 -1 1 
C -0.734797 1.265203 -0.375054 1.414214 0 1.414214 
z
"/>
    </defs>
    <g clip-path="url(#p63afe38019)">
     <use xlink:href="#mf255502d6c" x="116.733403" y="42.218845" style="fill: #8c8c8c; fill-opacity: 0.72"/>
     <use xlink:href="#mf255502d6c" x="115.179798" y="23.893517" style="fill: #8c8c8c; fill-opacity: 0.72"/>
     <use xlink:href="#mf255502d6c" x="117.163181" y="24.715267" style="fill: #8c8c8c; fill-opacity: 0.72"/>
     <use xlink:href="#mf255502d6c" x="114.467823" y="29.313251" style="fill: #8c8c8c; fill-opacity: 0.72"/>
     <use xlink:href="#mf255502d6c" x="115.816663" y="21.196976" style="fill: #8c8c8c; fill-opacity: 0.72"/>
     <use xlink:href="#mf255502d6c" x="116.548937" y="30.358476" style="fill: #8c8c8c; fill-opacity: 0.72"/>
     <use xlink:href="#mf255502d6c" x="115.475047" y="21.75704" style="fill: #8c8c8c; fill-opacity: 0.72"/>
     <use xlink:href="#mf255502d6c" x="114.363938" y="32.537858" style="fill: #8c8c8c; fill-opacity: 0.72"/>
     <use xlink:href="#mf255502d6c" x="114.127489" y="30.911448" style="fill: #8c8c8c; fill-opacity: 0.72"/>
     <use xlink:href="#mf255502d6c" x="114.743067" y="27.460754" style="fill: #8c8c8c; fill-opacity: 0.72"/>
     <use xlink:href="#mf255502d6c" x="115.642451" y="18.786128" style="fill: #8c8c8c; fill-opacity: 0.72"/>
     <use xlink:href="#mf255502d6c" x="114.010884" y="13.326444" style="fill: #8c8c8c; fill-opacity: 0.72"/>
     <use xlink:href="#mf255502d6c" x="115.072814" y="39.085217" style="fill: #8c8c8c; fill-opacity: 0.72"/>
     <use xlink:href="#mf255502d6c" x="115.139082" y="20.486196" style="fill: #8c8c8c; fill-opacity: 0.72"/>
     <use xlink:href="#mf255502d6c" x="116.067851" y="57.920618" style="fill: #8c8c8c; fill-opacity: 0.72"/>
     <use xlink:href="#mf255502d6c" x="115.635106" y="45.700053" style="fill: #8c8c8c; fill-opacity: 0.72"/>
     <use xlink:href="#mf255502d6c" x="115.821788" y="43.109486" style="fill: #8c8c8c; fill-opacity: 0.72"/>
     <use xlink:href="#mf255502d6c" x="114.482902" y="51.066491" style="fill: #8c8c8c; fill-opacity: 0.72"/>
     <use xlink:href="#mf255502d6c" x="115.178367" y="32.009717" style="fill: #8c8c8c; fill-opacity: 0.72"/>
    </g>
   </g>
   <g id="PathCollection_3">
    <defs>
     <path id="m4f8957b0ea" d="M 0 1.414214 
C 0.375054 1.414214 0.734797 1.265203 1 1 
C 1.265203 0.734797 1.414214 0.375054 1.414214 0 
C 1.414214 -0.375054 1.265203 -0.734797 1 -1 
C 0.734797 -1.265203 0.375054 -1.414214 0 -1.414214 
C -0.375054 -1.414214 -0.734797 -1.265203 -1 -1 
C -1.265203 -0.734797 -1.414214 -0.375054 -1.414214 0 
C -1.414214 0.375054 -1.265203 0.734797 -1 1 
C -0.734797 1.265203 -0.375054 1.414214 0 1.414214 
z
"/>
    </defs>
    <g clip-path="url(#p63afe38019)">
     <use xlink:href="#m4f8957b0ea" x="160.613031" y="72.096062" style="fill: #4c78a8; fill-opacity: 0.72"/>
     <use xlink:href="#m4f8957b0ea" x="161.554251" y="66.766212" style="fill: #4c78a8; fill-opacity: 0.72"/>
     <use xlink:href="#m4f8957b0ea" x="157.902572" y="64.907553" style="fill: #4c78a8; fill-opacity: 0.72"/>
     <use xlink:href="#m4f8957b0ea" x="161.581438" y="59.272669" style="fill: #4c78a8; fill-opacity: 0.72"/>
     <use xlink:href="#m4f8957b0ea" x="161.358492" y="64.989743" style="fill: #4c78a8; fill-opacity: 0.72"/>
     <use xlink:href="#m4f8957b0ea" x="160.609497" y="58.442106" style="fill: #4c78a8; fill-opacity: 0.72"/>
     <use xlink:href="#m4f8957b0ea" x="159.923795" y="55.379712" style="fill: #4c78a8; fill-opacity: 0.72"/>
     <use xlink:href="#m4f8957b0ea" x="159.156473" y="66.524408" style="fill: #4c78a8; fill-opacity: 0.72"/>
     <use xlink:href="#m4f8957b0ea" x="161.507273" y="63.987084" style="fill: #4c78a8; fill-opacity: 0.72"/>
     <use xlink:href="#m4f8957b0ea" x="162.173581" y="58.451981" style="fill: #4c78a8; fill-opacity: 0.72"/>
     <use xlink:href="#m4f8957b0ea" x="161.963138" y="60.740757" style="fill: #4c78a8; fill-opacity: 0.72"/>
     <use xlink:href="#m4f8957b0ea" x="161.317668" y="66.993354" style="fill: #4c78a8; fill-opacity: 0.72"/>
     <use xlink:href="#m4f8957b0ea" x="160.047076" y="76.584383" style="fill: #4c78a8; fill-opacity: 0.72"/>
     <use xlink:href="#m4f8957b0ea" x="157.969897" y="58.95513" style="fill: #4c78a8; fill-opacity: 0.72"/>
     <use xlink:href="#m4f8957b0ea" x="159.567038" y="94.398534" style="fill: #4c78a8; fill-opacity: 0.72"/>
     <use xlink:href="#m4f8957b0ea" x="160.443879" y="79.673511" style="fill: #4c78a8; fill-opacity: 0.72"/>
     <use xlink:href="#m4f8957b0ea" x="157.863706" y="37.803786" style="fill: #4c78a8; fill-opacity: 0.72"/>
     <use xlink:href="#m4f8957b0ea" x="160.097148" y="32.020994" style="fill: #4c78a8; fill-opacity: 0.72"/>
     <use xlink:href="#m4f8957b0ea" x="160.143239" y="75.360812" style="fill: #4c78a8; fill-opacity: 0.72"/>
    </g>
   </g>
   <g id="PathCollection_4">
    <defs>
     <path id="m954ed4dcd9" d="M 0 1.414214 
C 0.375054 1.414214 0.734797 1.265203 1 1 
C 1.265203 0.734797 1.414214 0.375054 1.414214 0 
C 1.414214 -0.375054 1.265203 -0.734797 1 -1 
C 0.734797 -1.265203 0.375054 -1.414214 0 -1.414214 
C -0.375054 -1.414214 -0.734797 -1.265203 -1 -1 
C -1.265203 -0.734797 -1.414214 -0.375054 -1.414214 0 
C -1.414214 0.375054 -1.265203 0.734797 -1 1 
C -0.734797 1.265203 -0.375054 1.414214 0 1.414214 
z
"/>
    </defs>
    <g clip-path="url(#p63afe38019)">
     <use xlink:href="#m954ed4dcd9" x="204.718998" y="108.267857" style="fill: #4daf7c; fill-opacity: 0.72"/>
     <use xlink:href="#m954ed4dcd9" x="202.224628" y="101.751384" style="fill: #4daf7c; fill-opacity: 0.72"/>
     <use xlink:href="#m954ed4dcd9" x="202.917706" y="103.697098" style="fill: #4daf7c; fill-opacity: 0.72"/>
     <use xlink:href="#m954ed4dcd9" x="203.216563" y="115.579687" style="fill: #4daf7c; fill-opacity: 0.72"/>
     <use xlink:href="#m954ed4dcd9" x="202.243621" y="113.000692" style="fill: #4daf7c; fill-opacity: 0.72"/>
     <use xlink:href="#m954ed4dcd9" x="206.103155" y="114.446147" style="fill: #4daf7c; fill-opacity: 0.72"/>
     <use xlink:href="#m954ed4dcd9" x="203.137658" y="110.578536" style="fill: #4daf7c; fill-opacity: 0.72"/>
     <use xlink:href="#m954ed4dcd9" x="204.23201" y="97.501909" style="fill: #4daf7c; fill-opacity: 0.72"/>
     <use xlink:href="#m954ed4dcd9" x="203.45253" y="112.503166" style="fill: #4daf7c; fill-opacity: 0.72"/>
     <use xlink:href="#m954ed4dcd9" x="205.896332" y="105.611226" style="fill: #4daf7c; fill-opacity: 0.72"/>
     <use xlink:href="#m954ed4dcd9" x="205.547267" y="126.284994" style="fill: #4daf7c; fill-opacity: 0.72"/>
     <use xlink:href="#m954ed4dcd9" x="204.635828" y="108.058907" style="fill: #4daf7c; fill-opacity: 0.72"/>
     <use xlink:href="#m954ed4dcd9" x="200.872223" y="115.813199" style="fill: #4daf7c; fill-opacity: 0.72"/>
     <use xlink:href="#m954ed4dcd9" x="203.864598" y="106.19008" style="fill: #4daf7c; fill-opacity: 0.72"/>
     <use xlink:href="#m954ed4dcd9" x="204.702604" y="124.599168" style="fill: #4daf7c; fill-opacity: 0.72"/>
     <use xlink:href="#m954ed4dcd9" x="205.127507" y="126.74556" style="fill: #4daf7c; fill-opacity: 0.72"/>
     <use xlink:href="#m954ed4dcd9" x="202.975808" y="134.144585" style="fill: #4daf7c; fill-opacity: 0.72"/>
     <use xlink:href="#m954ed4dcd9" x="206.212796" y="122.647083" style="fill: #4daf7c; fill-opacity: 0.72"/>
     <use xlink:href="#m954ed4dcd9" x="202.043785" y="135.855322" style="fill: #4daf7c; fill-opacity: 0.72"/>
    </g>
   </g>
  </g>
 </g>
 <defs>
  <clipPath id="p63afe38019">
   <rect x="49.016385" y="7.2" width="176.8905" height="134.781766"/>
  </clipPath>
 </defs>
</svg>
