<?xml version="1.0" encoding="utf-8" standalone="no"?>
<!DOCTYPE svg PUBLIC "-//W3C//DTD SVG 1.1//EN"
  "http://www.w3.org/Graphics/SVG/1.1/DTD/svg11.dtd">
<svg xmlns:xlink="http://www.w3.org/1999/xlink" width="233.229285pt" height="182.808675pt" viewBox="0 0 233.229285 182.808675" xmlns="http://www.w3.org/2000/svg" version="1.1">
 <metadata>
  <rdf:RDF xmlns:dc="http://purl.org/dc/elements/1.1/" xmlns:cc="http://creativecommons.org/ns#" xmlns:rdf="http://www.w3.org/1999/02/22-rdf-syntax-ns#">
   <cc:Work>
    <dc:type rdf:resource="http://purl.org/dc/dcmitype/StillImage"/>
    <dc:date>2026-06-23T12:16:40.207895</dc:date>
    <dc:format>image/svg+xml</dc:format>
    <dc:creator>
     <cc:Agent>
      <dc:title>Matplotlib v3.11.0, https://matplotlib.org/</dc:title>
     </cc:Agent>
    </dc:creator>
   </cc:Work>
  </rdf:RDF>
 </metadata>
 <defs>
  <style type="text/css">*{stroke-linejoin: round; stroke-linecap: butt}</style>
 </defs>
 <g id="figure_1">
  <g id="patch_1">
   <path d="M 0 182.808675 
L 233.229285 182.808675 
L 233.229285 0 
L 0 0 
z
" style="fill: #ffffff"/>
  </g>
  <g id="axes_1">
   <g id="patch_2">
    <path d="M 48.418785 141.981766 
L 226.029285 141.981766 
L 226.029285 7.2 
L 48.418785 7.2 
z
" style="fill: #ffffff"/>
   </g>
   <g id="matplotlib.axis_1">
    <g id="xtick_1">
     <g id="line2d_1">
      <defs>
       <path id="mf61c2c0cab" d="M 0 0 
L 0 3 
" style="stroke: #222222; stroke-width: 0.8"/>
      </defs>
      <g>
       <use xlink:href="#mf61c2c0cab" x="78.020535" y="141.981766" style="fill: #222222; stroke: #222222; stroke-width: 0.8"/>
      </g>
     </g>
     <g id="text_1">
      <text style="font-size: 7px; font-family: 'Arial', 'Helvetica', 'DejaVu Sans', sans-serif; fill: #222222" transform="translate(66.951177 163.688844) rotate(-25)">Moving</text>
      <text style="font-size: 7px; font-family: 'Arial', 'Helvetica', 'DejaVu Sans', sans-serif; fill: #222222" transform="translate(68.933906 171.170686) rotate(-25)">average</text>
     </g>
    </g>
    <g id="xtick_2">
     <g id="line2d_2">
      <g>
       <use xlink:href="#mf61c2c0cab" x="137.224035" y="141.981766" style="fill: #222222; stroke: #222222; stroke-width: 0.8"/>
      </g>
     </g>
     <g id="text_2">
      <text style="font-size: 7px; font-family: 'Arial', 'Helvetica', 'DejaVu Sans', sans-serif; fill: #222222" transform="translate(126.529993 163.787905) rotate(-25)">B-spline</text>
     </g>
    </g>
    <g id="xtick_3">
     <g id="line2d_3">
      <g>
       <use xlink:href="#mf61c2c0cab" x="196.427535" y="141.981766" style="fill: #222222; stroke: #222222; stroke-width: 0.8"/>
      </g>
     </g>
     <g id="text_3">
      <text style="font-weight: 700; font-size: 7px; font-family: 'Arial', 'Helvetica', 'DejaVu Sans', sans-serif; fill: #222222" transform="translate(181.303894 166.893083) rotate(-25)">Geodesic</text>
      <text style="font-weight: 700; font-size: 7px; font-family: 'Arial', 'Helvetica', 'DejaVu Sans', sans-serif; fill: #222222" transform="translate(189.287244 171.576639) rotate(-25)">(Ours)</text>
     </g>
    </g>
   </g>
   <g id="matplotlib.axis_2">
    <g id="ytick_1">
     <g id="line2d_4">
      <defs>
       <path id="m95620c427e" d="M 0 0 
L -3 0 
" style="stroke: #222222; stroke-width: 0.8"/>
      </defs>
      <g>
       <use xlink:href="#m95620c427e" x="48.418785" y="123.596302" style="fill: #222222; stroke: #222222; stroke-width: 0.8"/>
      </g>
     </g>
     <g id="text_4">
      <text style="font-size: 7px; font-family: 'Arial', 'Helvetica', 'DejaVu Sans', sans-serif; text-anchor: end; fill: #222222" x="41.918785" y="126.144397" transform="rotate(-0 41.918785 126.144397)">2</text>
     </g>
    </g>
    <g id="ytick_2">
     <g id="line2d_5">
      <g>
       <use xlink:href="#m95620c427e" x="48.418785" y="98.37146" style="fill: #222222; stroke: #222222; stroke-width: 0.8"/>
      </g>
     </g>
     <g id="text_5">
      <text style="font-size: 7px; font-family: 'Arial', 'Helvetica', 'DejaVu Sans', sans-serif; text-anchor: end; fill: #222222" x="41.918785" y="100.919556" transform="rotate(-0 41.918785 100.919556)">3</text>
     </g>
    </g>
    <g id="ytick_3">
     <g id="line2d_6">
      <g>
       <use xlink:href="#m95620c427e" x="48.418785" y="73.146619" style="fill: #222222; stroke: #222222; stroke-width: 0.8"/>
      </g>
     </g>
     <g id="text_6">
      <text style="font-size: 7px; font-family: 'Arial', 'Helvetica', 'DejaVu Sans', sans-serif; text-anchor: end; fill: #222222" x="41.918785" y="75.694714" transform="rotate(-0 41.918785 75.694714)">4</text>
     </g>
    </g>
    <g id="ytick_4">
     <g id="line2d_7">
      <g>
       <use xlink:href="#m95620c427e" x="48.418785" y="47.921777" style="fill: #222222; stroke: #222222; stroke-width: 0.8"/>
      </g>
     </g>
     <g id="text_7">
      <text style="font-size: 7px; font-family: 'Arial', 'Helvetica', 'DejaVu Sans', sans-serif; text-anchor: end; fill: #222222" x="41.918785" y="50.469873" transform="rotate(-0 41.918785 50.469873)">5</text>
     </g>
    </g>
    <g id="ytick_5">
     <g id="line2d_8">
      <g>
       <use xlink:href="#m95620c427e" x="48.418785" y="22.696936" style="fill: #222222; stroke: #222222; stroke-width: 0.8"/>
      </g>
     </g>
     <g id="text_8">
      <text style="font-size: 7px; font-family: 'Arial', 'Helvetica', 'DejaVu Sans', sans-serif; text-anchor: end; fill: #222222" x="41.918785" y="25.245032" transform="rotate(-0 41.918785 25.245032)">6</text>
     </g>
    </g>
    <g id="text_9">
     <!-- $\bar{d}$ -->
     <g transform="translate(15.84 61.673158)">
      <text>
       <tspan x="0.545044" y="-2.6875" style="font-size: 9px; font-family: 'cmr10'">¹</tspan>
       <tspan x="0" y="-0.3125" style="font-size: 9px; font-family: 'cmmi10'">d</tspan>
      </text>
     </g>
     <!-- $(\mathrm{mm})$ -->
     <g transform="translate(7.2 71.666322)">
      <text>
       <tspan x="0" y="-0.25" style="font-size: 9px; font-family: 'cmr10'">(</tspan>
       <tspan x="3.493652" y="-0.25" style="font-size: 9px; font-family: 'cmr10'">m</tspan>
       <tspan x="10.990723" y="-0.25" style="font-size: 9px; font-family: 'cmr10'">m</tspan>
       <tspan x="18.487793" y="-0.25" style="font-size: 9px; font-family: 'cmr10'">)</tspan>
      </text>
     </g>
    </g>
   </g>
   <g id="patch_3">
    <path d="M 57.29931 64.337784 
L 98.74176 64.337784 
L 98.74176 57.72792 
L 57.29931 57.72792 
L 57.29931 64.337784 
z
" clip-path="url(#pdeb88df888)" style="fill: #8c8c8c; opacity: 0.45; stroke: #222222; stroke-width: 0.8; stroke-linejoin: miter"/>
   </g>
   <g id="line2d_9">
    <path d="M 78.020535 64.337784 
L 78.020535 74.24851 
" clip-path="url(#pdeb88df888)" style="fill: none; stroke: #222222; stroke-width: 0.8; stroke-linecap: square"/>
   </g>
   <g id="line2d_10">
    <path d="M 78.020535 57.72792 
L 78.020535 57.72381 
" clip-path="url(#pdeb88df888)" style="fill: none; stroke: #222222; stroke-width: 0.8; stroke-linecap: square"/>
   </g>
   <g id="line2d_11">
    <path d="M 67.659922 74.24851 
L 88.381148 74.24851 
" clip-path="url(#pdeb88df888)" style="fill: none; stroke: #222222; stroke-width: 0.8; stroke-linecap: square"/>
   </g>
   <g id="line2d_12">
    <path d="M 67.659922 57.72381 
L 88.381148 57.72381 
" clip-path="url(#pdeb88df888)" style="fill: none; stroke: #222222; stroke-width: 0.8; stroke-linecap: square"/>
   </g>
   <g id="patch_4">
    <path d="M 116.50281 100.387362 
L 157.94526 100.387362 
L 157.94526 92.718101 
L 116.50281 92.718101 
L 116.50281 100.387362 
z
" clip-path="url(#pdeb88df888)" style="fill: #4c78a8; opacity: 0.45; stroke: #222222; stroke-width: 0.8; stroke-linejoin: miter"/>
   </g>
   <g id="line2d_13">
    <path d="M 137.224035 100.387362 
L 137.224035 104.639149 
" clip-path="url(#pdeb88df888)" style="fill: none; stroke: #222222; stroke-width: 0.8; stroke-linecap: square"/>
   </g>
   <g id="line2d_14">
    <path d="M 137.224035 92.718101 
L 137.224035 86.600534 
" clip-path="url(#pdeb88df888)" style="fill: none; stroke: #222222; stroke-width: 0.8; stroke-linecap: square"/>
   </g>
   <g id="line2d_15">
    <path d="M 126.863422 104.639149 
L 147.584647 104.639149 
" clip-path="url(#pdeb88df888)" style="fill: none; stroke: #222222; stroke-width: 0.8; stroke-linecap: square"/>
   </g>
   <g id="line2d_16">
    <path d="M 126.863422 86.600534 
L 147.584647 86.600534 
" clip-path="url(#pdeb88df888)" style="fill: none; stroke: #222222; stroke-width: 0.8; stroke-linecap: square"/>
   </g>
   <g id="patch_5">
    <path d="M 175.70631 130.034489 
L 217.14876 130.034489 
L 217.14876 123.86894 
L 175.70631 123.86894 
L 175.70631 130.034489 
z
" clip-path="url(#pdeb88df888)" style="fill: #4daf7c; opacity: 0.45; stroke: #222222; stroke-width: 0.8; stroke-linejoin: miter"/>
   </g>
   <g id="line2d_17">
    <path d="M 196.427535 130.034489 
L 196.427535 135.855322 
" clip-path="url(#pdeb88df888)" style="fill: none; stroke: #222222; stroke-width: 0.8; stroke-linecap: square"/>
   </g>
   <g id="line2d_18">
    <path d="M 196.427535 123.86894 
L 196.427535 121.909393 
" clip-path="url(#pdeb88df888)" style="fill: none; stroke: #222222; stroke-width: 0.8; stroke-linecap: square"/>
   </g>
   <g id="line2d_19">
    <path d="M 186.066923 135.855322 
L 206.788147 135.855322 
" clip-path="url(#pdeb88df888)" style="fill: none; stroke: #222222; stroke-width: 0.8; stroke-linecap: square"/>
   </g>
   <g id="line2d_20">
    <path d="M 186.066923 121.909393 
L 206.788147 121.909393 
" clip-path="url(#pdeb88df888)" style="fill: none; stroke: #222222; stroke-width: 0.8; stroke-linecap: square"/>
   </g>
   <g id="line2d_21">
    <path d="M 57.29931 62.592358 
L 98.74176 62.592358 
" clip-path="url(#pdeb88df888)" style="fill: none; stroke: #222222"/>
   </g>
   <g id="line2d_22">
    <path d="M 116.50281 98.37146 
L 157.94526 98.37146 
" clip-path="url(#pdeb88df888)" style="fill: none; stroke: #222222"/>
   </g>
   <g id="line2d_23">
    <path d="M 175.70631 126.242437 
L 217.14876 126.242437 
" clip-path="url(#pdeb88df888)" style="fill: none; stroke: #222222"/>
   </g>
   <g id="patch_6">
    <path d="M 48.418785 141.981766 
L 48.418785 7.2 
" style="fill: none; stroke: #222222; stroke-width: 0.8; stroke-linejoin: miter; stroke-linecap: square"/>
   </g>
   <g id="patch_7">
    <path d="M 48.418785 141.981766 
L 226.029285 141.981766 
" style="fill: none; stroke: #222222; stroke-width: 0.8; stroke-linejoin: miter; stroke-linecap: square"/>
   </g>
   <g id="PathCollection_1">
    <defs>
     <path id="m877cce8a3c" d="M 0 1.414214 
C 0.375054 1.414214 0.734797 1.265203 1 1 
C 1.265203 0.734797 1.414214 0.375054 1.414214 0 
C 1.414214 -0.375054 1.265203 -0.734797 1 -1 
C 0.734797 -1.265203 0.375054 -1.414214 0 -1.414214 
C -0.375054 -1.414214 -0.734797 -1.265203 -1 -1 
C -1.265203 -0.734797 -1.414214 -0.375054 -1.414214 0 
C -1.414214 0.375054 -1.265203 0.734797 -1 1 
C -0.734797 1.265203 -0.375054 1.414214 0 1.414214 
z
"/>
    </defs>
    <g clip-path="url(#pdeb88df888)">
     <use xlink:href="#m877cce8a3c" x="78.243845" y="74.24851" style="fill: #8c8c8c; fill-opacity: 0.72"/>
     <use xlink:href="#m877cce8a3c" x="77.785903" y="62.310966" style="fill: #8c8c8c; fill-opacity: 0.72"/>
     <use xlink:href="#m877cce8a3c" x="79.157993" y="64.353791" style="fill: #8c8c8c; fill-opacity: 0.72"/>
     <use xlink:href="#m877cce8a3c" x="78.206849" y="66.25477" style="fill: #8c8c8c; fill-opacity: 0.72"/>
     <use xlink:href="#m877cce8a3c" x="77.06913" y="61.747205" style="fill: #8c8c8c; fill-opacity: 0.72"/>
     <use xlink:href="#m877cce8a3c" x="78.662766" y="64.005423" style="fill: #8c8c8c; fill-opacity: 0.72"/>
     <use xlink:href="#m877cce8a3c" x="80.336576" y="45.7422" style="fill: #8c8c8c; fill-opacity: 0.72"/>
     <use xlink:href="#m877cce8a3c" x="79.70265" y="47.453651" style="fill: #8c8c8c; fill-opacity: 0.72"/>
     <use xlink:href="#m877cce8a3c" x="76.770627" y="63.600691" style="fill: #8c8c8c; fill-opacity: 0.72"/>
     <use xlink:href="#m877cce8a3c" x="75.773014" y="63.341058" style="fill: #8c8c8c; fill-opacity: 0.72"/>
     <use xlink:href="#m877cce8a3c" x="76.913534" y="64.321776" style="fill: #8c8c8c; fill-opacity: 0.72"/>
     <use xlink:href="#m877cce8a3c" x="78.093934" y="62.592358" style="fill: #8c8c8c; fill-opacity: 0.72"/>
     <use xlink:href="#m877cce8a3c" x="73.891036" y="36.61835" style="fill: #8c8c8c; fill-opacity: 0.72"/>
     <use xlink:href="#m877cce8a3c" x="77.631938" y="57.72381" style="fill: #8c8c8c; fill-opacity: 0.72"/>
     <use xlink:href="#m877cce8a3c" x="75.807666" y="69.360307" style="fill: #8c8c8c; fill-opacity: 0.72"/>
     <use xlink:href="#m877cce8a3c" x="76.719951" y="13.326444" style="fill: #8c8c8c; fill-opacity: 0.72"/>
     <use xlink:href="#m877cce8a3c" x="77.053874" y="65.518484" style="fill: #8c8c8c; fill-opacity: 0.72"/>
     <use xlink:href="#m877cce8a3c" x="77.458753" y="58.732241" style="fill: #8c8c8c; fill-opacity: 0.72"/>
     <use xlink:href="#m877cce8a3c" x="78.751634" y="57.73203" style="fill: #8c8c8c; fill-opacity: 0.72"/>
    </g>
   </g>
   <g id="PathCollection_2">
    <defs>
     <path id="ma8c37e8ff2" d="M 0 1.414214 
C 0.375054 1.414214 0.734797 1.265203 1 1 
C 1.265203 0.734797 1.414214 0.375054 1.414214 0 
C 1.414214 -0.375054 1.265203 -0.734797 1 -1 
C 0.734797 -1.265203 0.375054 -1.414214 0 -1.414214 
C -0.375054 -1.414214 -0.734797 -1.265203 -1 -1 
C -1.265203 -0.734797 -1.414214 -0.375054 -1.414214 0 
C -1.414214 0.375054 -1.265203 0.734797 -1 1 
C -0.734797 1.265203 -0.375054 1.414214 0 1.414214 
z
"/>
    </defs>
    <g clip-path="url(#pdeb88df888)">
     <use xlink:href="#ma8c37e8ff2" x="139.075648" y="98.103505" style="fill: #4c78a8; fill-opacity: 0.72"/>
     <use xlink:href="#ma8c37e8ff2" x="136.995744" y="98.37146" style="fill: #4c78a8; fill-opacity: 0.72"/>
     <use xlink:href="#ma8c37e8ff2" x="139.651018" y="97.059279" style="fill: #4c78a8; fill-opacity: 0.72"/>
     <use xlink:href="#ma8c37e8ff2" x="136.042579" y="92.35932" style="fill: #4c78a8; fill-opacity: 0.72"/>
     <use xlink:href="#ma8c37e8ff2" x="137.848354" y="100.115014" style="fill: #4c78a8; fill-opacity: 0.72"/>
     <use xlink:href="#ma8c37e8ff2" x="138.828693" y="92.55266" style="fill: #4c78a8; fill-opacity: 0.72"/>
     <use xlink:href="#ma8c37e8ff2" x="137.391011" y="98.49208" style="fill: #4c78a8; fill-opacity: 0.72"/>
     <use xlink:href="#ma8c37e8ff2" x="135.903502" y="104.639149" style="fill: #4c78a8; fill-opacity: 0.72"/>
     <use xlink:href="#ma8c37e8ff2" x="135.586954" y="92.883541" style="fill: #4c78a8; fill-opacity: 0.72"/>
     <use xlink:href="#ma8c37e8ff2" x="136.411066" y="91.538725" style="fill: #4c78a8; fill-opacity: 0.72"/>
     <use xlink:href="#ma8c37e8ff2" x="137.615125" y="102.283684" style="fill: #4c78a8; fill-opacity: 0.72"/>
     <use xlink:href="#ma8c37e8ff2" x="135.430847" y="99.957874" style="fill: #4c78a8; fill-opacity: 0.72"/>
     <use xlink:href="#ma8c37e8ff2" x="136.852517" y="101.079703" style="fill: #4c78a8; fill-opacity: 0.72"/>
     <use xlink:href="#ma8c37e8ff2" x="136.941235" y="100.181448" style="fill: #4c78a8; fill-opacity: 0.72"/>
     <use xlink:href="#ma8c37e8ff2" x="138.184634" y="100.593275" style="fill: #4c78a8; fill-opacity: 0.72"/>
     <use xlink:href="#ma8c37e8ff2" x="137.605292" y="101.670855" style="fill: #4c78a8; fill-opacity: 0.72"/>
     <use xlink:href="#ma8c37e8ff2" x="137.855214" y="86.600534" style="fill: #4c78a8; fill-opacity: 0.72"/>
     <use xlink:href="#ma8c37e8ff2" x="136.062767" y="86.953228" style="fill: #4c78a8; fill-opacity: 0.72"/>
     <use xlink:href="#ma8c37e8ff2" x="136.993828" y="96.329226" style="fill: #4c78a8; fill-opacity: 0.72"/>
    </g>
   </g>
   <g id="PathCollection_3">
    <defs>
     <path id="m0838a674f0" d="M 0 1.414214 
C 0.375054 1.414214 0.734797 1.265203 1 1 
C 1.265203 0.734797 1.414214 0.375054 1.414214 0 
C 1.414214 -0.375054 1.265203 -0.734797 1 -1 
C 0.734797 -1.265203 0.375054 -1.414214 0 -1.414214 
C -0.375054 -1.414214 -0.734797 -1.265203 -1 -1 
C -1.265203 -0.734797 -1.414214 -0.375054 -1.414214 0 
C -1.414214 0.375054 -1.265203 0.734797 -1 1 
C -0.734797 1.265203 -0.375054 1.414214 0 1.414214 
z
"/>
    </defs>
    <g clip-path="url(#pdeb88df888)">
     <use xlink:href="#m0838a674f0" x="197.819958" y="130.386361" style="fill: #4daf7c; fill-opacity: 0.72"/>
     <use xlink:href="#m0838a674f0" x="199.080026" y="126.242437" style="fill: #4daf7c; fill-opacity: 0.72"/>
     <use xlink:href="#m0838a674f0" x="194.191302" y="129.72482" style="fill: #4daf7c; fill-opacity: 0.72"/>
     <use xlink:href="#m0838a674f0" x="199.116423" y="122.982363" style="fill: #4daf7c; fill-opacity: 0.72"/>
     <use xlink:href="#m0838a674f0" x="198.817951" y="121.909393" style="fill: #4daf7c; fill-opacity: 0.72"/>
     <use xlink:href="#m0838a674f0" x="197.815226" y="126.23721" style="fill: #4daf7c; fill-opacity: 0.72"/>
     <use xlink:href="#m0838a674f0" x="196.897236" y="125.628405" style="fill: #4daf7c; fill-opacity: 0.72"/>
     <use xlink:href="#m0838a674f0" x="195.869975" y="127.37518" style="fill: #4daf7c; fill-opacity: 0.72"/>
     <use xlink:href="#m0838a674f0" x="199.017133" y="125.444475" style="fill: #4daf7c; fill-opacity: 0.72"/>
     <use xlink:href="#m0838a674f0" x="199.90916" y="122.927228" style="fill: #4daf7c; fill-opacity: 0.72"/>
     <use xlink:href="#m0838a674f0" x="199.627428" y="114.118934" style="fill: #4daf7c; fill-opacity: 0.72"/>
     <use xlink:href="#m0838a674f0" x="198.763297" y="128.090488" style="fill: #4daf7c; fill-opacity: 0.72"/>
     <use xlink:href="#m0838a674f0" x="197.06228" y="135.855322" style="fill: #4daf7c; fill-opacity: 0.72"/>
     <use xlink:href="#m0838a674f0" x="194.281434" y="124.755517" style="fill: #4daf7c; fill-opacity: 0.72"/>
     <use xlink:href="#m0838a674f0" x="196.419624" y="122.623192" style="fill: #4daf7c; fill-opacity: 0.72"/>
     <use xlink:href="#m0838a674f0" x="197.593503" y="126.776815" style="fill: #4daf7c; fill-opacity: 0.72"/>
     <use xlink:href="#m0838a674f0" x="194.13927" y="130.344158" style="fill: #4daf7c; fill-opacity: 0.72"/>
     <use xlink:href="#m0838a674f0" x="197.129313" y="132.326171" style="fill: #4daf7c; fill-opacity: 0.72"/>
     <use xlink:href="#m0838a674f0" x="197.191018" y="135.850584" style="fill: #4daf7c; fill-opacity: 0.72"/>
    </g>
   </g>
  </g>
 </g>
 <defs>
  <clipPath id="pdeb88df888">
   <rect x="48.418785" y="7.2" width="177.6105" height="134.781766"/>
  </clipPath>
 </defs>
</svg>
