<?xml version="1.0" encoding="utf-8" standalone="no"?>
<!DOCTYPE svg PUBLIC "-//W3C//DTD SVG 1.1//EN"
  "http://www.w3.org/Graphics/SVG/1.1/DTD/svg11.dtd">
<svg xmlns:xlink="http://www.w3.org/1999/xlink" width="420.180072pt" height="169.317188pt" viewBox="0 0 420.180072 169.317188" xmlns="http://www.w3.org/2000/svg" version="1.1">
 <metadata>
  <rdf:RDF xmlns:dc="http://purl.org/dc/elements/1.1/" xmlns:cc="http://creativecommons.org/ns#" xmlns:rdf="http://www.w3.org/1999/02/22-rdf-syntax-ns#">
   <cc:Work>
    <dc:type rdf:resource="http://purl.org/dc/dcmitype/StillImage"/>
    <dc:date>2026-06-15T20:39:40.652484</dc:date>
    <dc:format>image/svg+xml</dc:format>
    <dc:creator>
     <cc:Agent>
      <dc:title>Matplotlib v3.10.8, https://matplotlib.org/</dc:title>
     </cc:Agent>
    </dc:creator>
   </cc:Work>
  </rdf:RDF>
 </metadata>
 <defs>
  <style type="text/css">*{stroke-linejoin: round; stroke-linecap: butt}</style>
 </defs>
 <g id="figure_1">
  <g id="patch_1">
   <path d="M 0 169.317188 
L 420.180072 169.317188 
L 420.180072 0 
L 0 0 
z
" style="fill: #ffffff"/>
  </g>
  <g id="axes_1">
   <g id="patch_2">
    <path d="M 60.104088 137.1 
L 407.413978 137.1 
L 407.413978 7.2 
L 60.104088 7.2 
z
" style="fill: #ffffff"/>
   </g>
   <g id="matplotlib.axis_1">
    <g id="xtick_1">
     <g id="line2d_1">
      <defs>
       <path id="mfb8c9bb197" d="M 0 0 
L 0 3 
" style="stroke: #222222; stroke-width: 0.8"/>
      </defs>
      <g>
       <use xlink:href="#mfb8c9bb197" x="60.104088" y="137.1" style="fill: #222222; stroke: #222222; stroke-width: 0.8"/>
      </g>
     </g>
     <g id="text_1">
      <text style="font-size: 7px; font-family: 'Arial', 'Helvetica', 'DejaVu Sans', sans-serif; text-anchor: middle; fill: #222222" x="60.104088" y="148.918906" transform="rotate(-0 60.104088 148.918906)">0.0</text>
     </g>
    </g>
    <g id="xtick_2">
     <g id="line2d_2">
      <g>
       <use xlink:href="#mfb8c9bb197" x="129.566066" y="137.1" style="fill: #222222; stroke: #222222; stroke-width: 0.8"/>
      </g>
     </g>
     <g id="text_2">
      <text style="font-size: 7px; font-family: 'Arial', 'Helvetica', 'DejaVu Sans', sans-serif; text-anchor: middle; fill: #222222" x="129.566066" y="148.918906" transform="rotate(-0 129.566066 148.918906)">0.2</text>
     </g>
    </g>
    <g id="xtick_3">
     <g id="line2d_3">
      <g>
       <use xlink:href="#mfb8c9bb197" x="199.028044" y="137.1" style="fill: #222222; stroke: #222222; stroke-width: 0.8"/>
      </g>
     </g>
     <g id="text_3">
      <text style="font-size: 7px; font-family: 'Arial', 'Helvetica', 'DejaVu Sans', sans-serif; text-anchor: middle; fill: #222222" x="199.028044" y="148.918906" transform="rotate(-0 199.028044 148.918906)">0.4</text>
     </g>
    </g>
    <g id="xtick_4">
     <g id="line2d_4">
      <g>
       <use xlink:href="#mfb8c9bb197" x="268.490022" y="137.1" style="fill: #222222; stroke: #222222; stroke-width: 0.8"/>
      </g>
     </g>
     <g id="text_4">
      <text style="font-size: 7px; font-family: 'Arial', 'Helvetica', 'DejaVu Sans', sans-serif; text-anchor: middle; fill: #222222" x="268.490022" y="148.918906" transform="rotate(-0 268.490022 148.918906)">0.6</text>
     </g>
    </g>
    <g id="xtick_5">
     <g id="line2d_5">
      <g>
       <use xlink:href="#mfb8c9bb197" x="337.952" y="137.1" style="fill: #222222; stroke: #222222; stroke-width: 0.8"/>
      </g>
     </g>
     <g id="text_5">
      <text style="font-size: 7px; font-family: 'Arial', 'Helvetica', 'DejaVu Sans', sans-serif; text-anchor: middle; fill: #222222" x="337.952" y="148.918906" transform="rotate(-0 337.952 148.918906)">0.8</text>
     </g>
    </g>
    <g id="xtick_6">
     <g id="line2d_6">
      <g>
       <use xlink:href="#mfb8c9bb197" x="407.413978" y="137.1" style="fill: #222222; stroke: #222222; stroke-width: 0.8"/>
      </g>
     </g>
     <g id="text_6">
      <text style="font-size: 7px; font-family: 'Arial', 'Helvetica', 'DejaVu Sans', sans-serif; text-anchor: middle; fill: #222222" x="407.413978" y="148.918906" transform="rotate(-0 407.413978 148.918906)">1.0</text>
     </g>
    </g>
    <g id="text_7">
     <text style="font-size: 8px; font-family: 'Arial', 'Helvetica', 'DejaVu Sans', sans-serif; text-anchor: middle" x="233.759033" y="160.453438" transform="rotate(-0 233.759033 160.453438)">Normalized arc length</text>
    </g>
   </g>
   <g id="matplotlib.axis_2">
    <g id="ytick_1">
     <g id="line2d_7">
      <defs>
       <path id="mf6ccbb9c2b" d="M 0 0 
L -3 0 
" style="stroke: #222222; stroke-width: 0.8"/>
      </defs>
      <g>
       <use xlink:href="#mf6ccbb9c2b" x="60.104088" y="131.195455" style="fill: #222222; stroke: #222222; stroke-width: 0.8"/>
      </g>
     </g>
     <g id="text_8">
      <text style="font-size: 7px; font-family: 'Arial', 'Helvetica', 'DejaVu Sans', sans-serif; text-anchor: end; fill: #222222" x="53.604088" y="133.854908" transform="rotate(-0 53.604088 133.854908)">0</text>
     </g>
    </g>
    <g id="ytick_2">
     <g id="line2d_8">
      <g>
       <use xlink:href="#mf6ccbb9c2b" x="60.104088" y="108.381777" style="fill: #222222; stroke: #222222; stroke-width: 0.8"/>
      </g>
     </g>
     <g id="text_9">
      <text style="font-size: 7px; font-family: 'Arial', 'Helvetica', 'DejaVu Sans', sans-serif; text-anchor: end; fill: #222222" x="53.604088" y="111.04123" transform="rotate(-0 53.604088 111.04123)">5</text>
     </g>
    </g>
    <g id="ytick_3">
     <g id="line2d_9">
      <g>
       <use xlink:href="#mf6ccbb9c2b" x="60.104088" y="85.5681" style="fill: #222222; stroke: #222222; stroke-width: 0.8"/>
      </g>
     </g>
     <g id="text_10">
      <text style="font-size: 7px; font-family: 'Arial', 'Helvetica', 'DejaVu Sans', sans-serif; text-anchor: end; fill: #222222" x="53.604088" y="88.227553" transform="rotate(-0 53.604088 88.227553)">10</text>
     </g>
    </g>
    <g id="ytick_4">
     <g id="line2d_10">
      <g>
       <use xlink:href="#mf6ccbb9c2b" x="60.104088" y="62.754422" style="fill: #222222; stroke: #222222; stroke-width: 0.8"/>
      </g>
     </g>
     <g id="text_11">
      <text style="font-size: 7px; font-family: 'Arial', 'Helvetica', 'DejaVu Sans', sans-serif; text-anchor: end; fill: #222222" x="53.604088" y="65.413875" transform="rotate(-0 53.604088 65.413875)">15</text>
     </g>
    </g>
    <g id="ytick_5">
     <g id="line2d_11">
      <g>
       <use xlink:href="#mf6ccbb9c2b" x="60.104088" y="39.940744" style="fill: #222222; stroke: #222222; stroke-width: 0.8"/>
      </g>
     </g>
     <g id="text_12">
      <text style="font-size: 7px; font-family: 'Arial', 'Helvetica', 'DejaVu Sans', sans-serif; text-anchor: end; fill: #222222" x="53.604088" y="42.600198" transform="rotate(-0 53.604088 42.600198)">20</text>
     </g>
    </g>
    <g id="ytick_6">
     <g id="line2d_12">
      <g>
       <use xlink:href="#mf6ccbb9c2b" x="60.104088" y="17.127067" style="fill: #222222; stroke: #222222; stroke-width: 0.8"/>
      </g>
     </g>
     <g id="text_13">
      <text style="font-size: 7px; font-family: 'Arial', 'Helvetica', 'DejaVu Sans', sans-serif; text-anchor: end; fill: #222222" x="53.604088" y="19.78652" transform="rotate(-0 53.604088 19.78652)">25</text>
     </g>
    </g>
    <g id="text_14">
     <!-- $d$ -->
     <g transform="translate(18.72 55.712625)">
      <text>
       <tspan x="0" y="-0.671875" style="font-size: 12px; font-family: 'cmmi10'">d</tspan>
      </text>
     </g>
     <!-- $(\mathrm{mm})$ -->
     <g transform="translate(7.2 69.15)">
      <text>
       <tspan x="0" y="-0" style="font-size: 12px; font-family: 'cmr10'">(</tspan>
       <tspan x="4.658203" y="-0" style="font-size: 12px; font-family: 'cmr10'">m</tspan>
       <tspan x="14.654297" y="-0" style="font-size: 12px; font-family: 'cmr10'">m</tspan>
       <tspan x="24.650391" y="-0" style="font-size: 12px; font-family: 'cmr10'">)</tspan>
      </text>
     </g>
    </g>
   </g>
   <g id="line2d_13">
    <path d="M 60.104088 131.195455 
L 66.011033 111.52729 
L 69.982253 120.039489 
L 74.535864 122.514909 
L 78.629488 123.595121 
L 82.668197 122.510712 
L 86.489264 124.935536 
L 91.394346 112.516729 
L 93.720963 107.078665 
L 97.824026 120.121387 
L 105.747602 69.236914 
L 110.081985 96.984754 
L 113.570806 110.631367 
L 117.387276 120.319329 
L 121.13654 123.495923 
L 124.905347 120.64073 
L 128.805233 121.584308 
L 132.759658 119.605675 
L 137.151559 118.920374 
L 142.529768 95.542197 
L 147.678665 57.252246 
L 156.78384 81.189289 
L 162.039831 105.39525 
L 166.44526 119.877962 
L 171.035277 119.81898 
L 174.266307 123.797273 
L 177.965265 125.382762 
L 182.492035 118.712925 
L 186.118347 114.024765 
L 189.100726 112.984161 
L 193.911758 116.41852 
L 197.663677 103.437937 
L 202.212757 73.841865 
L 210.469097 78.881835 
L 214.743606 102.424877 
L 219.14925 117.356354 
L 223.00438 119.832116 
L 226.899738 119.932684 
L 230.522984 119.118904 
L 234.932559 120.806337 
L 238.613926 116.954436 
L 242.885561 117.950859 
L 248.348862 102.117477 
L 253.567582 69.42282 
L 261.827189 68.369608 
L 267.547785 106.21886 
L 271.751604 118.301276 
L 275.833373 123.721825 
L 279.847569 118.400775 
L 284.134131 120.082856 
L 287.795745 119.55863 
L 291.732764 118.333766 
L 295.862029 114.902186 
L 299.638648 105.258628 
L 303.942625 85.770543 
L 307.399425 50.903553 
L 331.271824 13.104545 
L 334.600758 29.528306 
L 337.224267 16.401572 
L 361.030965 57.326193 
L 364.543828 96.781261 
L 369.930988 97.74921 
L 373.009058 106.286446 
L 376.641204 107.218049 
L 380.393189 84.971065 
L 384.315959 62.622461 
L 403.993461 41.501467 
L 407.413978 131.195455 
" clip-path="url(#p0459350cc1)" style="fill: none; stroke-dasharray: 4.625,2; stroke-dashoffset: 0; stroke: #6c6c6c; stroke-width: 1.25"/>
   </g>
   <g id="line2d_14">
    <path d="M 60.104088 131.195455 
L 66.011033 123.84097 
L 69.982253 123.928943 
L 74.535864 124.001402 
L 78.629488 123.375419 
L 82.668197 117.091231 
L 86.489264 108.862494 
L 91.394346 131.195455 
L 93.720963 119.820196 
L 97.824026 131.195455 
L 105.747602 131.195455 
L 110.081985 62.066399 
L 113.570806 111.404797 
L 117.387276 117.581281 
L 121.13654 124.370778 
L 124.905347 131.195455 
L 128.805233 115.774123 
L 132.759658 115.851937 
L 137.151559 106.866391 
L 142.529768 88.612443 
L 147.678665 131.195455 
L 156.78384 131.195455 
L 162.039831 131.195455 
L 166.44526 131.195455 
L 171.035277 117.621872 
L 174.266307 131.195455 
L 177.965265 131.195455 
L 182.492035 131.195455 
L 186.118347 124.123966 
L 189.100726 131.195455 
L 193.911758 112.066034 
L 197.663677 102.460896 
L 202.212757 131.195455 
L 210.469097 121.691781 
L 214.743606 119.204121 
L 219.14925 117.99961 
L 223.00438 124.615127 
L 226.899738 124.61703 
L 230.522984 131.195455 
L 234.932559 131.195455 
L 238.613926 131.195455 
L 242.885561 120.432148 
L 248.348862 95.924077 
L 253.567582 124.140076 
L 261.827189 131.195455 
L 267.547785 104.823745 
L 271.751604 121.917655 
L 275.833373 131.195455 
L 279.847569 124.491965 
L 284.134131 131.195455 
L 287.795745 131.195455 
L 291.732764 117.89789 
L 295.862029 131.195455 
L 299.638648 121.718465 
L 303.942625 124.386399 
L 307.399425 131.195455 
L 331.271824 131.195455 
L 334.600758 123.632025 
L 337.224267 131.195455 
L 361.030965 131.195455 
L 364.543828 113.755727 
L 369.930988 131.195455 
L 373.009058 131.195455 
L 376.641204 131.195455 
L 380.393189 121.976388 
L 384.315959 123.625548 
L 403.993461 131.195455 
L 407.413978 131.195455 
" clip-path="url(#p0459350cc1)" style="fill: none; stroke-dasharray: 4.995,2.16; stroke-dashoffset: 0; stroke: #2c5aa0; stroke-width: 1.35"/>
   </g>
   <g id="patch_3">
    <path d="M 60.104088 137.1 
L 60.104088 7.2 
" style="fill: none; stroke: #222222; stroke-width: 0.8; stroke-linejoin: miter; stroke-linecap: square"/>
   </g>
   <g id="patch_4">
    <path d="M 60.104088 137.1 
L 407.413978 137.1 
" style="fill: none; stroke: #222222; stroke-width: 0.8; stroke-linejoin: miter; stroke-linecap: square"/>
   </g>
   <g id="legend_1">
    <g id="patch_5">
     <path d="M 327.263197 25.878125 
L 403.913978 25.878125 
Q 404.913978 25.878125 404.913978 24.878125 
L 404.913978 10.7 
Q 404.913978 9.7 403.913978 9.7 
L 327.263197 9.7 
Q 326.263197 9.7 326.263197 10.7 
L 326.263197 24.878125 
Q 326.263197 25.878125 327.263197 25.878125 
z
" style="fill: #ffffff; opacity: 0.8; stroke: #cccccc; stroke-linejoin: miter"/>
    </g>
    <g id="line2d_15">
     <path d="M 328.263197 13.749219 
L 333.263197 13.749219 
L 338.263197 13.749219 
" style="fill: none; stroke-dasharray: 4.625,2; stroke-dashoffset: 0; stroke: #6c6c6c; stroke-width: 1.25"/>
    </g>
    <g id="text_15">
     <text style="font-size: 5px; font-family: 'Arial', 'Helvetica', 'DejaVu Sans', sans-serif; text-anchor: start" x="342.263197" y="15.499219" transform="rotate(-0 342.263197 15.499219)">Moving-average smooth</text>
    </g>
    <g id="line2d_16">
     <path d="M 328.263197 21.088281 
L 333.263197 21.088281 
L 338.263197 21.088281 
" style="fill: none; stroke-dasharray: 4.995,2.16; stroke-dashoffset: 0; stroke: #2c5aa0; stroke-width: 1.35"/>
    </g>
    <g id="text_16">
     <text style="font-size: 5px; font-family: 'Arial', 'Helvetica', 'DejaVu Sans', sans-serif; text-anchor: start" x="342.263197" y="22.838281" transform="rotate(-0 342.263197 22.838281)">Geodesic optimized</text>
    </g>
   </g>
  </g>
 </g>
 <defs>
  <clipPath id="p0459350cc1">
   <rect x="60.104088" y="7.2" width="347.30989" height="129.9"/>
  </clipPath>
 </defs>
</svg>
