<?xml version="1.0" encoding="utf-8" standalone="no"?>
<!DOCTYPE svg PUBLIC "-//W3C//DTD SVG 1.1//EN"
  "http://www.w3.org/Graphics/SVG/1.1/DTD/svg11.dtd">
<svg xmlns:xlink="http://www.w3.org/1999/xlink" width="420.881054pt" height="169.317188pt" viewBox="0 0 420.881054 169.317188" xmlns="http://www.w3.org/2000/svg" version="1.1">
 <metadata>
  <rdf:RDF xmlns:dc="http://purl.org/dc/elements/1.1/" xmlns:cc="http://creativecommons.org/ns#" xmlns:rdf="http://www.w3.org/1999/02/22-rdf-syntax-ns#">
   <cc:Work>
    <dc:type rdf:resource="http://purl.org/dc/dcmitype/StillImage"/>
    <dc:date>2026-06-15T20:39:40.341081</dc:date>
    <dc:format>image/svg+xml</dc:format>
    <dc:creator>
     <cc:Agent>
      <dc:title>Matplotlib v3.10.8, https://matplotlib.org/</dc:title>
     </cc:Agent>
    </dc:creator>
   </cc:Work>
  </rdf:RDF>
 </metadata>
 <defs>
  <style type="text/css">*{stroke-linejoin: round; stroke-linecap: butt}</style>
 </defs>
 <g id="figure_1">
  <g id="patch_1">
   <path d="M 0 169.317188 
L 420.881054 169.317188 
L 420.881054 0 
L 0 0 
z
" style="fill: #ffffff"/>
  </g>
  <g id="axes_1">
   <g id="patch_2">
    <path d="M 55.889771 137.1 
L 408.11496 137.1 
L 408.11496 7.2 
L 55.889771 7.2 
z
" style="fill: #ffffff"/>
   </g>
   <g id="matplotlib.axis_1">
    <g id="xtick_1">
     <g id="line2d_1">
      <defs>
       <path id="m221bf4d5f1" d="M 0 0 
L 0 3 
" style="stroke: #222222; stroke-width: 0.8"/>
      </defs>
      <g>
       <use xlink:href="#m221bf4d5f1" x="55.889771" y="137.1" style="fill: #222222; stroke: #222222; stroke-width: 0.8"/>
      </g>
     </g>
     <g id="text_1">
      <text style="font-size: 7px; font-family: 'Arial', 'Helvetica', 'DejaVu Sans', sans-serif; text-anchor: middle; fill: #222222" x="55.889771" y="148.918906" transform="rotate(-0 55.889771 148.918906)">0.0</text>
     </g>
    </g>
    <g id="xtick_2">
     <g id="line2d_2">
      <g>
       <use xlink:href="#m221bf4d5f1" x="126.334809" y="137.1" style="fill: #222222; stroke: #222222; stroke-width: 0.8"/>
      </g>
     </g>
     <g id="text_2">
      <text style="font-size: 7px; font-family: 'Arial', 'Helvetica', 'DejaVu Sans', sans-serif; text-anchor: middle; fill: #222222" x="126.334809" y="148.918906" transform="rotate(-0 126.334809 148.918906)">0.2</text>
     </g>
    </g>
    <g id="xtick_3">
     <g id="line2d_3">
      <g>
       <use xlink:href="#m221bf4d5f1" x="196.779846" y="137.1" style="fill: #222222; stroke: #222222; stroke-width: 0.8"/>
      </g>
     </g>
     <g id="text_3">
      <text style="font-size: 7px; font-family: 'Arial', 'Helvetica', 'DejaVu Sans', sans-serif; text-anchor: middle; fill: #222222" x="196.779846" y="148.918906" transform="rotate(-0 196.779846 148.918906)">0.4</text>
     </g>
    </g>
    <g id="xtick_4">
     <g id="line2d_4">
      <g>
       <use xlink:href="#m221bf4d5f1" x="267.224884" y="137.1" style="fill: #222222; stroke: #222222; stroke-width: 0.8"/>
      </g>
     </g>
     <g id="text_4">
      <text style="font-size: 7px; font-family: 'Arial', 'Helvetica', 'DejaVu Sans', sans-serif; text-anchor: middle; fill: #222222" x="267.224884" y="148.918906" transform="rotate(-0 267.224884 148.918906)">0.6</text>
     </g>
    </g>
    <g id="xtick_5">
     <g id="line2d_5">
      <g>
       <use xlink:href="#m221bf4d5f1" x="337.669922" y="137.1" style="fill: #222222; stroke: #222222; stroke-width: 0.8"/>
      </g>
     </g>
     <g id="text_5">
      <text style="font-size: 7px; font-family: 'Arial', 'Helvetica', 'DejaVu Sans', sans-serif; text-anchor: middle; fill: #222222" x="337.669922" y="148.918906" transform="rotate(-0 337.669922 148.918906)">0.8</text>
     </g>
    </g>
    <g id="xtick_6">
     <g id="line2d_6">
      <g>
       <use xlink:href="#m221bf4d5f1" x="408.11496" y="137.1" style="fill: #222222; stroke: #222222; stroke-width: 0.8"/>
      </g>
     </g>
     <g id="text_6">
      <text style="font-size: 7px; font-family: 'Arial', 'Helvetica', 'DejaVu Sans', sans-serif; text-anchor: middle; fill: #222222" x="408.11496" y="148.918906" transform="rotate(-0 408.11496 148.918906)">1.0</text>
     </g>
    </g>
    <g id="text_7">
     <text style="font-size: 8px; font-family: 'Arial', 'Helvetica', 'DejaVu Sans', sans-serif; text-anchor: middle" x="232.002365" y="160.453438" transform="rotate(-0 232.002365 160.453438)">Normalized arc length</text>
    </g>
   </g>
   <g id="matplotlib.axis_2">
    <g id="ytick_1">
     <g id="line2d_7">
      <defs>
       <path id="m878666b1e5" d="M 0 0 
L -3 0 
" style="stroke: #222222; stroke-width: 0.8"/>
      </defs>
      <g>
       <use xlink:href="#m878666b1e5" x="55.889771" y="131.209374" style="fill: #222222; stroke: #222222; stroke-width: 0.8"/>
      </g>
     </g>
     <g id="text_8">
      <text style="font-size: 7px; font-family: 'Arial', 'Helvetica', 'DejaVu Sans', sans-serif; text-anchor: end; fill: #222222" x="49.389771" y="133.868827" transform="rotate(-0 49.389771 133.868827)">0</text>
     </g>
    </g>
    <g id="ytick_2">
     <g id="line2d_8">
      <g>
       <use xlink:href="#m878666b1e5" x="55.889771" y="103.926649" style="fill: #222222; stroke: #222222; stroke-width: 0.8"/>
      </g>
     </g>
     <g id="text_9">
      <text style="font-size: 7px; font-family: 'Arial', 'Helvetica', 'DejaVu Sans', sans-serif; text-anchor: end; fill: #222222" x="49.389771" y="106.586102" transform="rotate(-0 49.389771 106.586102)">100</text>
     </g>
    </g>
    <g id="ytick_3">
     <g id="line2d_9">
      <g>
       <use xlink:href="#m878666b1e5" x="55.889771" y="76.643924" style="fill: #222222; stroke: #222222; stroke-width: 0.8"/>
      </g>
     </g>
     <g id="text_10">
      <text style="font-size: 7px; font-family: 'Arial', 'Helvetica', 'DejaVu Sans', sans-serif; text-anchor: end; fill: #222222" x="49.389771" y="79.303377" transform="rotate(-0 49.389771 79.303377)">200</text>
     </g>
    </g>
    <g id="ytick_4">
     <g id="line2d_10">
      <g>
       <use xlink:href="#m878666b1e5" x="55.889771" y="49.361199" style="fill: #222222; stroke: #222222; stroke-width: 0.8"/>
      </g>
     </g>
     <g id="text_11">
      <text style="font-size: 7px; font-family: 'Arial', 'Helvetica', 'DejaVu Sans', sans-serif; text-anchor: end; fill: #222222" x="49.389771" y="52.020653" transform="rotate(-0 49.389771 52.020653)">300</text>
     </g>
    </g>
    <g id="ytick_5">
     <g id="line2d_11">
      <g>
       <use xlink:href="#m878666b1e5" x="55.889771" y="22.078475" style="fill: #222222; stroke: #222222; stroke-width: 0.8"/>
      </g>
     </g>
     <g id="text_12">
      <text style="font-size: 7px; font-family: 'Arial', 'Helvetica', 'DejaVu Sans', sans-serif; text-anchor: end; fill: #222222" x="49.389771" y="24.737928" transform="rotate(-0 49.389771 24.737928)">400</text>
     </g>
    </g>
    <g id="text_13">
     <!-- $|\kappa_g|$ -->
     <g transform="translate(7.2 67.99)">
      <text>
       <tspan x="0" y="-0.25" style="font-size: 13px; font-family: 'cmsy10'">j</tspan>
       <tspan x="16.259572" y="-0.25" style="font-size: 13px; font-family: 'cmsy10'">j</tspan>
       <tspan x="3.599121" y="-0.25" style="font-size: 13px; font-family: 'cmmi10'">∙</tspan>
       <tspan x="11.089355" y="1.960812" style="font-size: 9.1px; font-family: 'cmmi10'">g</tspan>
      </text>
     </g>
    </g>
   </g>
   <g id="line2d_12">
    <path d="M 61.880314 128.799056 
L 65.907737 124.616205 
L 70.525792 127.867366 
L 74.677351 131.09756 
L 78.773219 128.346167 
L 82.648362 118.291936 
L 87.622864 122.883885 
L 89.982409 84.999452 
L 94.14354 119.583743 
L 102.179254 13.104545 
L 106.574979 123.171795 
L 110.113176 125.210559 
L 113.983659 128.673972 
L 117.785984 131.195455 
L 121.608129 126.755748 
L 125.563208 131.135124 
L 129.573598 129.270874 
L 134.027656 129.608137 
L 139.48198 130.789739 
L 144.703746 51.6643 
L 153.937782 106.472268 
L 159.268159 126.708491 
L 163.735935 130.851877 
L 168.390912 129.835449 
L 171.667669 121.703018 
L 175.418977 126.834949 
L 180.009812 128.29166 
L 183.687446 127.622607 
L 186.712033 125.24913 
L 191.591153 127.831046 
L 195.39617 130.376171 
L 200.009632 74.091835 
L 208.382818 90.234047 
L 212.717822 125.735426 
L 217.185817 129.103219 
L 221.095508 123.541128 
L 225.045994 126.29348 
L 228.720518 129.353183 
L 233.1925 126.578282 
L 236.925967 122.786046 
L 241.258056 131.055037 
L 246.798677 128.921443 
L 252.091255 80.871107 
L 260.467756 80.25004 
L 266.269312 128.809101 
L 270.532625 127.786445 
L 274.672162 131.042732 
L 278.743169 119.056571 
L 283.090397 126.895856 
L 286.803832 128.857454 
L 290.796569 119.736288 
L 294.984273 128.703604 
L 298.814341 127.428491 
L 303.17923 116.522424 
L 306.684952 118.530107 
L 330.895205 121.602994 
L 334.271252 123.038922 
L 336.93189 125.283478 
L 361.075512 116.914874 
L 364.638091 98.58418 
L 370.101492 128.714705 
L 373.223125 127.287421 
L 376.906675 124.996702 
L 380.71176 119.418215 
L 384.690046 124.14229 
L 404.646034 126.961634 
" clip-path="url(#p612faf4eac)" style="fill: none; stroke: #c73e3a; stroke-width: 1.55; stroke-linecap: square"/>
   </g>
   <g id="line2d_13">
    <path d="M 67.608477 130.328837 
L 70.695987 131.139707 
L 77.323087 129.305552 
L 82.870752 130.802165 
L 88.80645 130.314352 
L 94.674007 128.897955 
L 100.199304 125.096604 
L 104.9747 119.43545 
L 108.971634 110.864078 
L 112.082835 65.142516 
L 114.552099 80.578609 
L 117.699779 111.765335 
L 121.795833 121.65726 
L 126.767413 126.149872 
L 132.441191 128.347374 
L 138.36243 129.494861 
L 144.190669 127.527715 
L 149.398075 123.33444 
L 153.521322 102.508572 
L 156.320271 43.833567 
L 159.104304 86.761661 
L 162.81259 117.256385 
L 167.69057 125.318333 
L 173.407221 127.8216 
L 179.352976 127.989667 
L 185.1075 128.772112 
L 190.669948 128.405715 
L 196.07068 129.238405 
L 201.275511 128.217481 
L 206.051482 123.616807 
L 209.904163 107.884126 
L 212.711064 60.226454 
L 215.27428 70.201359 
L 218.371095 111.600164 
L 222.59237 124.089471 
L 227.650252 127.359215 
L 233.215327 128.846273 
L 238.997371 129.989951 
L 244.976539 127.454718 
L 250.947202 127.205012 
L 256.467483 124.382293 
L 261.091278 114.571386 
L 264.417939 69.646332 
L 267.023998 60.121965 
L 270.17262 112.465937 
L 274.549759 124.363034 
L 279.917473 128.461077 
L 285.789479 130.282872 
L 291.661397 129.0091 
L 297.361311 129.231547 
L 303.027376 122.100115 
L 308.99534 123.828951 
L 315.376336 125.563198 
L 322.254148 125.437028 
L 328.308467 120.380159 
L 333.915365 106.223111 
L 337.116371 90.054796 
L 340.841511 119.716577 
L 347.06766 131.120293 
L 353.847136 130.107221 
L 360.96182 126.010917 
L 366.767971 124.86564 
L 372.39001 125.260348 
L 378.192417 127.000608 
L 386.518764 130.524032 
L 390.749404 130.227985 
" clip-path="url(#p612faf4eac)" style="fill: none; stroke-dasharray: 4.995,2.16; stroke-dashoffset: 0; stroke: #6c6c6c; stroke-width: 1.35"/>
   </g>
   <g id="line2d_14">
    <path d="M 61.956088 130.269744 
L 65.884216 129.559702 
L 69.50042 130.902728 
L 75.082828 121.543236 
L 76.825497 127.826807 
L 79.967023 128.614543 
L 86.802927 115.960937 
L 89.19371 124.999774 
L 92.559347 125.808527 
L 100.401893 120.774986 
L 103.970896 111.727051 
L 116.739746 130.944387 
L 119.944821 124.065345 
L 122.946725 131.188393 
L 125.964194 127.494098 
L 131.029019 125.464385 
L 133.49426 129.052814 
L 136.647854 127.658575 
L 148.165946 108.52598 
L 150.046972 128.123982 
L 159.059033 106.472268 
L 164.261275 126.708491 
L 168.621652 129.138727 
L 171.905313 128.173382 
L 176.53382 125.89075 
L 180.194951 126.834949 
L 184.675429 130.153016 
L 188.974891 123.619755 
L 191.395035 130.243991 
L 194.08742 128.433792 
L 202.862724 112.14599 
L 204.753732 101.825136 
L 213.527242 103.598928 
L 216.252623 122.604769 
L 221.701018 124.846504 
L 225.466992 124.786789 
L 229.82182 125.844768 
L 232.724346 130.930266 
L 237.088827 126.578282 
L 240.732546 128.508559 
L 243.98224 129.659525 
L 253.358014 111.663928 
L 256.176825 110.798067 
L 265.087972 104.524297 
L 269.23809 112.576887 
L 275.008669 128.943738 
L 279.573708 119.130528 
L 283.384816 130.033419 
L 287.731299 130.213829 
L 291.355468 130.397763 
L 296.623331 123.823392 
L 299.345935 131.095349 
L 302.090923 127.991527 
L 307.509247 126.42025 
L 310.553685 120.035979 
L 334.181954 122.208063 
L 336.712163 129.830254 
L 340.021674 125.373012 
L 363.584914 120.552658 
L 365.933679 131.074052 
L 371.477345 124.859771 
L 374.523938 127.287421 
L 378.11894 128.554662 
L 381.018386 129.114863 
L 384.673944 122.667786 
L 404.729423 127.277254 
" clip-path="url(#p612faf4eac)" style="fill: none; stroke: #1b8a3a; stroke-width: 1.75; stroke-linecap: square"/>
   </g>
   <g id="patch_3">
    <path d="M 55.889771 137.1 
L 55.889771 7.2 
" style="fill: none; stroke: #222222; stroke-width: 0.8; stroke-linejoin: miter; stroke-linecap: square"/>
   </g>
   <g id="patch_4">
    <path d="M 55.889771 137.1 
L 408.11496 137.1 
" style="fill: none; stroke: #222222; stroke-width: 0.8; stroke-linejoin: miter; stroke-linecap: square"/>
   </g>
   <g id="legend_1">
    <g id="patch_5">
     <path d="M 327.964179 33.217188 
L 404.61496 33.217188 
Q 405.61496 33.217188 405.61496 32.217188 
L 405.61496 10.7 
Q 405.61496 9.7 404.61496 9.7 
L 327.964179 9.7 
Q 326.964179 9.7 326.964179 10.7 
L 326.964179 32.217188 
Q 326.964179 33.217188 327.964179 33.217188 
z
" style="fill: #ffffff; opacity: 0.8; stroke: #cccccc; stroke-linejoin: miter"/>
    </g>
    <g id="line2d_15">
     <path d="M 328.964179 13.749219 
L 333.964179 13.749219 
L 338.964179 13.749219 
" style="fill: none; stroke: #c73e3a; stroke-width: 1.55; stroke-linecap: square"/>
    </g>
    <g id="text_14">
     <text style="font-size: 5px; font-family: 'Arial', 'Helvetica', 'DejaVu Sans', sans-serif; text-anchor: start" x="342.964179" y="15.499219" transform="rotate(-0 342.964179 15.499219)">Original</text>
    </g>
    <g id="line2d_16">
     <path d="M 328.964179 21.088281 
L 333.964179 21.088281 
L 338.964179 21.088281 
" style="fill: none; stroke-dasharray: 4.995,2.16; stroke-dashoffset: 0; stroke: #6c6c6c; stroke-width: 1.35"/>
    </g>
    <g id="text_15">
     <text style="font-size: 5px; font-family: 'Arial', 'Helvetica', 'DejaVu Sans', sans-serif; text-anchor: start" x="342.964179" y="22.838281" transform="rotate(-0 342.964179 22.838281)">Moving-average smooth</text>
    </g>
    <g id="line2d_17">
     <path d="M 328.964179 28.427344 
L 333.964179 28.427344 
L 338.964179 28.427344 
" style="fill: none; stroke: #1b8a3a; stroke-width: 1.75; stroke-linecap: square"/>
    </g>
    <g id="text_16">
     <text style="font-size: 5px; font-family: 'Arial', 'Helvetica', 'DejaVu Sans', sans-serif; text-anchor: start" x="342.964179" y="30.177344" transform="rotate(-0 342.964179 30.177344)">Geodesic optimized</text>
    </g>
   </g>
  </g>
 </g>
 <defs>
  <clipPath id="p612faf4eac">
   <rect x="55.889771" y="7.2" width="352.225189" height="129.9"/>
  </clipPath>
 </defs>
</svg>
