<?xml version="1.0" encoding="utf-8" standalone="no"?>
<!DOCTYPE svg PUBLIC "-//W3C//DTD SVG 1.1//EN"
  "http://www.w3.org/Graphics/SVG/1.1/DTD/svg11.dtd">
<svg xmlns:xlink="http://www.w3.org/1999/xlink" width="420.222356pt" height="169.200156pt" viewBox="0 0 420.222356 169.200156" xmlns="http://www.w3.org/2000/svg" version="1.1">
 <metadata>
  <rdf:RDF xmlns:dc="http://purl.org/dc/elements/1.1/" xmlns:cc="http://creativecommons.org/ns#" xmlns:rdf="http://www.w3.org/1999/02/22-rdf-syntax-ns#">
   <cc:Work>
    <dc:type rdf:resource="http://purl.org/dc/dcmitype/StillImage"/>
    <dc:date>2026-06-23T12:37:49.913649</dc:date>
    <dc:format>image/svg+xml</dc:format>
    <dc:creator>
     <cc:Agent>
      <dc:title>Matplotlib v3.11.0, https://matplotlib.org/</dc:title>
     </cc:Agent>
    </dc:creator>
   </cc:Work>
  </rdf:RDF>
 </metadata>
 <defs>
  <style type="text/css">*{stroke-linejoin: round; stroke-linecap: butt}</style>
 </defs>
 <g id="figure_1">
  <g id="patch_1">
   <path d="M 0 169.200156 
L 420.222356 169.200156 
L 420.222356 0 
L 0 0 
z
" style="fill: #ffffff"/>
  </g>
  <g id="axes_1">
   <g id="patch_2">
    <path d="M 60.177756 137.422852 
L 408.157356 137.422852 
L 408.157356 7.2 
L 60.177756 7.2 
z
" style="fill: #ffffff"/>
   </g>
   <g id="matplotlib.axis_1">
    <g id="xtick_1">
     <g id="line2d_1">
      <defs>
       <path id="mcc36c2ff1a" d="M 0 0 
L 0 3 
" style="stroke: #222222; stroke-width: 0.8"/>
      </defs>
      <g>
       <use xlink:href="#mcc36c2ff1a" x="60.177756" y="137.422852" style="fill: #222222; stroke: #222222; stroke-width: 0.8"/>
      </g>
     </g>
     <g id="text_1">
      <text style="font-size: 7px; font-family: 'Arial', 'Helvetica', 'DejaVu Sans', sans-serif; text-anchor: middle; fill: #222222" x="60.177756" y="149.019043" transform="rotate(-0 60.177756 149.019043)">0.0</text>
     </g>
    </g>
    <g id="xtick_2">
     <g id="line2d_2">
      <g>
       <use xlink:href="#mcc36c2ff1a" x="129.773676" y="137.422852" style="fill: #222222; stroke: #222222; stroke-width: 0.8"/>
      </g>
     </g>
     <g id="text_2">
      <text style="font-size: 7px; font-family: 'Arial', 'Helvetica', 'DejaVu Sans', sans-serif; text-anchor: middle; fill: #222222" x="129.773676" y="149.019043" transform="rotate(-0 129.773676 149.019043)">0.2</text>
     </g>
    </g>
    <g id="xtick_3">
     <g id="line2d_3">
      <g>
       <use xlink:href="#mcc36c2ff1a" x="199.369596" y="137.422852" style="fill: #222222; stroke: #222222; stroke-width: 0.8"/>
      </g>
     </g>
     <g id="text_3">
      <text style="font-size: 7px; font-family: 'Arial', 'Helvetica', 'DejaVu Sans', sans-serif; text-anchor: middle; fill: #222222" x="199.369596" y="149.019043" transform="rotate(-0 199.369596 149.019043)">0.4</text>
     </g>
    </g>
    <g id="xtick_4">
     <g id="line2d_4">
      <g>
       <use xlink:href="#mcc36c2ff1a" x="268.965516" y="137.422852" style="fill: #222222; stroke: #222222; stroke-width: 0.8"/>
      </g>
     </g>
     <g id="text_4">
      <text style="font-size: 7px; font-family: 'Arial', 'Helvetica', 'DejaVu Sans', sans-serif; text-anchor: middle; fill: #222222" x="268.965516" y="149.019043" transform="rotate(-0 268.965516 149.019043)">0.6</text>
     </g>
    </g>
    <g id="xtick_5">
     <g id="line2d_5">
      <g>
       <use xlink:href="#mcc36c2ff1a" x="338.561436" y="137.422852" style="fill: #222222; stroke: #222222; stroke-width: 0.8"/>
      </g>
     </g>
     <g id="text_5">
      <text style="font-size: 7px; font-family: 'Arial', 'Helvetica', 'DejaVu Sans', sans-serif; text-anchor: middle; fill: #222222" x="338.561436" y="149.019043" transform="rotate(-0 338.561436 149.019043)">0.8</text>
     </g>
    </g>
    <g id="xtick_6">
     <g id="line2d_6">
      <g>
       <use xlink:href="#mcc36c2ff1a" x="408.157356" y="137.422852" style="fill: #222222; stroke: #222222; stroke-width: 0.8"/>
      </g>
     </g>
     <g id="text_6">
      <text style="font-size: 7px; font-family: 'Arial', 'Helvetica', 'DejaVu Sans', sans-serif; text-anchor: middle; fill: #222222" x="408.157356" y="149.019043" transform="rotate(-0 408.157356 149.019043)">1.0</text>
     </g>
    </g>
    <g id="text_7">
     <text style="font-size: 8px; font-family: 'Arial', 'Helvetica', 'DejaVu Sans', sans-serif; text-anchor: middle" x="234.167556" y="160.316406" transform="rotate(-0 234.167556 160.316406)">Normalized arc length</text>
    </g>
   </g>
   <g id="matplotlib.axis_2">
    <g id="ytick_1">
     <g id="line2d_7">
      <defs>
       <path id="m599b11fb43" d="M 0 0 
L -3 0 
" style="stroke: #222222; stroke-width: 0.8"/>
      </defs>
      <g>
       <use xlink:href="#m599b11fb43" x="60.177756" y="131.503631" style="fill: #222222; stroke: #222222; stroke-width: 0.8"/>
      </g>
     </g>
     <g id="text_8">
      <text style="font-size: 7px; font-family: 'Arial', 'Helvetica', 'DejaVu Sans', sans-serif; text-anchor: end; fill: #222222" x="53.677756" y="134.051727" transform="rotate(-0 53.677756 134.051727)">0</text>
     </g>
    </g>
    <g id="ytick_2">
     <g id="line2d_8">
      <g>
       <use xlink:href="#m599b11fb43" x="60.177756" y="108.633343" style="fill: #222222; stroke: #222222; stroke-width: 0.8"/>
      </g>
     </g>
     <g id="text_9">
      <text style="font-size: 7px; font-family: 'Arial', 'Helvetica', 'DejaVu Sans', sans-serif; text-anchor: end; fill: #222222" x="53.677756" y="111.181438" transform="rotate(-0 53.677756 111.181438)">5</text>
     </g>
    </g>
    <g id="ytick_3">
     <g id="line2d_9">
      <g>
       <use xlink:href="#m599b11fb43" x="60.177756" y="85.763055" style="fill: #222222; stroke: #222222; stroke-width: 0.8"/>
      </g>
     </g>
     <g id="text_10">
      <text style="font-size: 7px; font-family: 'Arial', 'Helvetica', 'DejaVu Sans', sans-serif; text-anchor: end; fill: #222222" x="53.677756" y="88.31115" transform="rotate(-0 53.677756 88.31115)">10</text>
     </g>
    </g>
    <g id="ytick_4">
     <g id="line2d_10">
      <g>
       <use xlink:href="#m599b11fb43" x="60.177756" y="62.892766" style="fill: #222222; stroke: #222222; stroke-width: 0.8"/>
      </g>
     </g>
     <g id="text_11">
      <text style="font-size: 7px; font-family: 'Arial', 'Helvetica', 'DejaVu Sans', sans-serif; text-anchor: end; fill: #222222" x="53.677756" y="65.440862" transform="rotate(-0 53.677756 65.440862)">15</text>
     </g>
    </g>
    <g id="ytick_5">
     <g id="line2d_11">
      <g>
       <use xlink:href="#m599b11fb43" x="60.177756" y="40.022478" style="fill: #222222; stroke: #222222; stroke-width: 0.8"/>
      </g>
     </g>
     <g id="text_12">
      <text style="font-size: 7px; font-family: 'Arial', 'Helvetica', 'DejaVu Sans', sans-serif; text-anchor: end; fill: #222222" x="53.677756" y="42.570574" transform="rotate(-0 53.677756 42.570574)">20</text>
     </g>
    </g>
    <g id="ytick_6">
     <g id="line2d_12">
      <g>
       <use xlink:href="#m599b11fb43" x="60.177756" y="17.15219" style="fill: #222222; stroke: #222222; stroke-width: 0.8"/>
      </g>
     </g>
     <g id="text_13">
      <text style="font-size: 7px; font-family: 'Arial', 'Helvetica', 'DejaVu Sans', sans-serif; text-anchor: end; fill: #222222" x="53.677756" y="19.700285" transform="rotate(-0 53.677756 19.700285)">25</text>
     </g>
    </g>
    <g id="text_14">
     <!-- $d$ -->
     <g transform="translate(18.72 55.087793)">
      <text>
       <tspan x="0" y="-0.671875" style="font-size: 12px; font-family: 'cmmi10'">d</tspan>
      </text>
     </g>
     <!-- $(\mathrm{mm})$ -->
     <g transform="translate(7.2 68.412012)">
      <text>
       <tspan x="0" y="-0" style="font-size: 12px; font-family: 'cmr10'">(</tspan>
       <tspan x="4.658203" y="-0" style="font-size: 12px; font-family: 'cmr10'">m</tspan>
       <tspan x="14.654297" y="-0" style="font-size: 12px; font-family: 'cmr10'">m</tspan>
       <tspan x="24.650391" y="-0" style="font-size: 12px; font-family: 'cmr10'">)</tspan>
      </text>
     </g>
    </g>
   </g>
   <g id="line2d_13">
    <path d="M 60.177756 131.503631 
L 66.096088 111.785747 
L 70.075195 120.321572 
L 74.637475 122.800151 
L 78.739074 123.885281 
L 82.785567 122.796051 
L 86.614257 125.229338 
L 91.528636 112.77804 
L 93.859524 107.326018 
L 97.970589 120.403284 
L 105.909286 69.39301 
L 110.251677 97.206838 
L 113.747538 110.889722 
L 117.571132 120.599434 
L 121.327711 123.786298 
L 125.10375 120.921965 
L 129.010999 121.868115 
L 132.973125 119.885873 
L 137.373489 119.1974 
L 142.762141 95.761818 
L 147.921061 57.375964 
L 157.043965 81.372875 
L 162.310245 105.640186 
L 166.724127 120.157754 
L 171.322632 120.099779 
L 174.559914 124.087912 
L 178.26634 125.677188 
L 182.801494 118.990231 
L 186.435068 114.291874 
L 189.42313 113.245904 
L 194.243242 116.689232 
L 198.002828 103.677117 
L 202.560639 74.006887 
L 210.832731 79.062876 
L 215.115372 102.663053 
L 219.529065 117.629989 
L 223.391632 120.113036 
L 227.294918 120.21338 
L 230.925035 119.397473 
L 235.343015 121.088922 
L 239.031543 117.227729 
L 243.311011 118.225346 
L 248.785125 102.354663 
L 254.013981 69.577065 
L 262.289638 68.520586 
L 268.0213 106.465232 
L 272.233303 118.578357 
L 276.323039 124.010384 
L 280.344673 118.678849 
L 284.639588 120.362282 
L 288.308291 119.838841 
L 292.252941 118.608681 
L 296.390255 115.169454 
L 300.174067 105.503407 
L 304.486385 85.965238 
L 307.949683 51.012834 
L 331.868255 13.119221 
L 335.203319 29.582719 
L 337.832325 16.423847 
L 361.685225 57.449395 
L 365.204901 97.003289 
L 370.602537 97.975676 
L 373.686432 106.532515 
L 377.325402 107.465402 
L 381.084913 85.162875 
L 385.015073 62.762088 
L 404.730379 41.587333 
L 408.157356 131.503631 
" clip-path="url(#p827f94c05f)" style="fill: none; stroke-dasharray: 4.625,2; stroke-dashoffset: 0; stroke: #6c6c6c; stroke-width: 1.25"/>
   </g>
   <g id="line2d_14">
    <path d="M 60.177756 130.171515 
L 66.096088 126.402231 
L 70.075195 130.332777 
L 74.637475 127.894039 
L 78.739074 122.623535 
L 82.785567 122.369734 
L 86.614257 122.416676 
L 91.528636 115.775387 
L 93.859524 110.293686 
L 97.970589 112.437746 
L 105.909286 98.188552 
L 110.251677 116.38132 
L 113.747538 122.548531 
L 117.571132 123.903339 
L 121.327711 123.331312 
L 125.10375 124.091041 
L 129.010999 126.423096 
L 132.973125 129.035256 
L 137.373489 124.811236 
L 142.762141 122.836875 
L 147.921061 112.849581 
L 157.043965 108.541325 
L 162.310245 121.471401 
L 166.724127 123.752679 
L 171.322632 122.085117 
L 174.559914 119.942979 
L 178.26634 121.156968 
L 182.801494 125.353912 
L 186.435068 120.148313 
L 189.42313 117.320691 
L 194.243242 122.531175 
L 198.002828 120.725548 
L 202.560639 107.957769 
L 210.832731 100.778914 
L 215.115372 112.54227 
L 219.529065 121.789331 
L 223.391632 121.389596 
L 227.294918 122.928103 
L 230.925035 119.052269 
L 235.343015 116.603435 
L 239.031543 113.146872 
L 243.311011 116.467716 
L 248.785125 125.236297 
L 254.013981 102.881402 
L 262.289638 86.34435 
L 268.0213 120.42555 
L 272.233303 123.410899 
L 276.323039 115.047487 
L 280.344673 110.764067 
L 284.639588 123.791953 
L 288.308291 130.285328 
L 292.252941 127.454154 
L 296.390255 120.056786 
L 300.174067 116.957306 
L 304.486385 125.533856 
L 307.949683 110.909225 
L 331.868255 111.442488 
L 335.203319 126.838965 
L 337.832325 109.372277 
L 361.685225 107.800088 
L 365.204901 117.199911 
L 370.602537 121.798091 
L 373.686432 120.983867 
L 377.325402 123.929939 
L 381.084913 121.750109 
L 385.015073 118.085824 
L 404.730379 101.37724 
L 408.157356 109.341161 
" clip-path="url(#p827f94c05f)" style="fill: none; stroke-dasharray: 4.995,2.16; stroke-dashoffset: 0; stroke: #4c78a8; stroke-width: 1.35"/>
   </g>
   <g id="line2d_15">
    <path d="M 60.177756 131.503631 
L 66.096088 124.128908 
L 70.075195 124.219186 
L 74.637475 124.294989 
L 78.739074 123.663347 
L 82.785567 117.365151 
L 86.614257 109.112744 
L 91.528636 131.503631 
L 93.859524 120.097837 
L 97.970589 131.503631 
L 105.909286 131.503631 
L 110.251677 62.203703 
L 113.747538 111.667166 
L 117.571132 117.854375 
L 121.327711 124.662954 
L 125.10375 131.503631 
L 129.010999 116.044782 
L 132.973125 116.123581 
L 137.373489 107.11491 
L 142.762141 88.815655 
L 147.921061 131.503631 
L 157.043965 131.503631 
L 162.310245 117.700564 
L 166.724127 131.503631 
L 171.322632 117.897682 
L 174.559914 131.503631 
L 178.26634 131.503631 
L 182.801494 131.503631 
L 186.435068 124.413402 
L 189.42313 131.503631 
L 194.243242 112.329743 
L 198.002828 102.698005 
L 202.560639 131.503631 
L 210.832731 121.979337 
L 215.115372 119.478694 
L 219.529065 118.272254 
L 223.391632 124.906409 
L 227.294918 124.912562 
L 230.925035 131.503631 
L 235.343015 131.503631 
L 239.031543 131.503631 
L 243.311011 120.715784 
L 248.785125 96.145639 
L 254.013981 124.430823 
L 262.289638 131.503631 
L 268.0213 105.068935 
L 272.233303 122.20077 
L 276.323039 131.503631 
L 280.344673 124.78505 
L 284.639588 131.503631 
L 288.308291 131.503631 
L 292.252941 118.174051 
L 296.390255 131.503631 
L 300.174067 122.005063 
L 304.486385 124.675983 
L 307.949683 131.503631 
L 331.868255 131.503631 
L 335.203319 123.922579 
L 337.832325 131.503631 
L 361.685225 131.503631 
L 365.204901 114.022952 
L 370.602537 131.503631 
L 373.686432 131.503631 
L 377.325402 131.503631 
L 381.084913 122.260686 
L 385.015073 123.917338 
L 404.730379 131.503631 
L 408.157356 131.503631 
" clip-path="url(#p827f94c05f)" style="fill: none; stroke-dasharray: 4.995,2.16; stroke-dashoffset: 0; stroke: #4daf7c; stroke-width: 1.35"/>
   </g>
   <g id="patch_3">
    <path d="M 60.177756 137.422852 
L 60.177756 7.2 
" style="fill: none; stroke: #222222; stroke-width: 0.8; stroke-linejoin: miter; stroke-linecap: square"/>
   </g>
   <g id="patch_4">
    <path d="M 60.177756 137.422852 
L 408.157356 137.422852 
" style="fill: none; stroke: #222222; stroke-width: 0.8; stroke-linejoin: miter; stroke-linecap: square"/>
   </g>
   <g id="legend_1">
    <g id="patch_5">
     <path d="M 335.023762 32.777246 
L 404.657356 32.777246 
Q 405.657356 32.777246 405.657356 31.777246 
L 405.657356 10.7 
Q 405.657356 9.7 404.657356 9.7 
L 335.023762 9.7 
Q 334.023762 9.7 334.023762 10.7 
L 334.023762 31.777246 
Q 334.023762 32.777246 335.023762 32.777246 
z
" style="fill: #ffffff; opacity: 0.8; stroke: #cccccc; stroke-linejoin: miter"/>
    </g>
    <g id="line2d_16">
     <path d="M 336.023762 13.590137 
L 341.023762 13.590137 
L 346.023762 13.590137 
" style="fill: none; stroke-dasharray: 4.625,2; stroke-dashoffset: 0; stroke: #6c6c6c; stroke-width: 1.25"/>
    </g>
    <g id="text_15">
     <text style="font-size: 5px; font-family: 'Arial', 'Helvetica', 'DejaVu Sans', sans-serif; text-anchor: start" x="350.023762" y="15.340137" transform="rotate(-0 350.023762 15.340137)">Moving-average smooth</text>
    </g>
    <g id="line2d_17">
     <path d="M 336.023762 20.782617 
L 341.023762 20.782617 
L 346.023762 20.782617 
" style="fill: none; stroke-dasharray: 4.995,2.16; stroke-dashoffset: 0; stroke: #4c78a8; stroke-width: 1.35"/>
    </g>
    <g id="text_16">
     <text style="font-size: 5px; font-family: 'Arial', 'Helvetica', 'DejaVu Sans', sans-serif; text-anchor: start" x="350.023762" y="22.532617" transform="rotate(-0 350.023762 22.532617)">B-spline</text>
    </g>
    <g id="line2d_18">
     <path d="M 336.023762 27.975 
L 341.023762 27.975 
L 346.023762 27.975 
" style="fill: none; stroke-dasharray: 4.995,2.16; stroke-dashoffset: 0; stroke: #4daf7c; stroke-width: 1.35"/>
    </g>
    <g id="text_17">
     <text style="font-size: 5px; font-family: 'Arial', 'Helvetica', 'DejaVu Sans', sans-serif; text-anchor: start" x="350.023762" y="29.725" transform="rotate(-0 350.023762 29.725)">Geodesic optimized</text>
    </g>
   </g>
  </g>
 </g>
 <defs>
  <clipPath id="p827f94c05f">
   <rect x="60.177756" y="7.2" width="347.9796" height="130.222852"/>
  </clipPath>
 </defs>
</svg>
